<svg id="Layer_1" data-name="Layer 1" xmlns="http://www.w3.org/2000/svg" xmlns:xlink="http://www.w3.org/1999/xlink" viewBox="0 0 293 72.337">
  <defs>
    <linearGradient id="New_Gradient_Swatch_2" data-name="New Gradient Swatch 2" x1="104.268" y1="41.297" x2="143.529" y2="41.297" gradientUnits="userSpaceOnUse">
      <stop offset="0" stop-color="#dda144"/>
      <stop offset="1" stop-color="#975f26"/>
    </linearGradient>
    <linearGradient id="New_Gradient_Swatch_3" data-name="New Gradient Swatch 3" x1="127.379" y1="34.807" x2="159.393" y2="34.807" gradientUnits="userSpaceOnUse">
      <stop offset="0" stop-color="#efbe5a"/>
      <stop offset="1" stop-color="#dda144"/>
    </linearGradient>
    <linearGradient id="New_Gradient_Swatch_3-2" x1="133.054" y1="49.413" x2="162.712" y2="49.413" xlink:href="#New_Gradient_Swatch_3"/>
  </defs>
  <title>Feelz Good Logo Final</title>
  <g>
    <path d="M132.981,56.89q-6.285-6.343-12.62-12.639a4.2,4.2,0,0,1-1.081-3.987,4.981,4.981,0,0,1,1.6-2.62q8.136-8.169,16.307-16.3a8.641,8.641,0,0,0,2.08-3.131,7.481,7.481,0,0,0-.717-7.246,74.868,74.868,0,0,0-5.1-5.834c-.28.344-.423.555-.6.732Q120.9,17.827,108.935,29.792a11.14,11.14,0,0,0-1.287,1.454,16.688,16.688,0,0,0-2.932,13.813,15.577,15.577,0,0,0,4.3,7.826c5.262,5.146,10.429,10.389,15.633,15.594,2.966,2.966,5.929,5.934,8.978,8.986.214-.258.389-.508.6-.72q4.647-4.65,9.3-9.3-5.221-5.262-10.475-10.489C133.03,56.935,133.007,56.916,132.981,56.89Z" transform="translate(-4.415 -5.128)" style="fill: url(#New_Gradient_Swatch_2)"/>
    <path d="M158.491,30.352q-5.4-5.415-10.825-10.81c-.19-.19-.392-.367-.608-.568-.15.135-.265.228-.369.332q-8.48,8.467-16.949,16.943a8.4,8.4,0,0,0-1.246,1.573,7.025,7.025,0,0,0-.2,7.257c1.186,2.24,3.326,3.688,5.029,5.56.26-.247.46-.43.652-.622q5.73-5.727,11.457-11.457c.726-.726.726-.726,1.475.023.3.3.6.6.905.907a2.593,2.593,0,0,1,.538,2.943l11.047-11.055A12.194,12.194,0,0,0,158.491,30.352Z" transform="translate(-4.415 -5.128)" style="fill: url(#New_Gradient_Swatch_3)"/>
    <path d="M162.274,37.72a15.821,15.821,0,0,0-2.881-6.342c-1.731,1.734-8.318,8.331-11.053,11.065a2.735,2.735,0,0,1-.544.786q-6.819,6.823-13.63,13.655c-.44.444-.687.474-1.112.074q5.249,5.234,10.475,10.489,6.941-6.942,13.881-13.884a17.818,17.818,0,0,0,4.015-5.933,18.031,18.031,0,0,0,1.284-6.373A14.043,14.043,0,0,0,162.274,37.72Z" transform="translate(-4.415 -5.128)" style="fill: url(#New_Gradient_Swatch_3-2)"/>
    <path d="M264,39.8a8.7,8.7,0,0,0-8.24-7.66c-2.082-.055-4.166,0-6.249-.029-.609-.008-.765.249-.763.815q.021,7.9,0,15.81c0,.653.23.9.879.887,1.857-.024,3.715.017,5.571-.014a8.788,8.788,0,0,0,8.546-6.442c.182-.642.264-1.312.392-1.969v-.753C264.093,40.23,264.028,40.017,264,39.8Zm-4.082,1.577a4.794,4.794,0,0,1-4.683,4.513c-.823.027-1.648,0-2.527,0V35.81a22.527,22.527,0,0,1,3.165.024C258.5,36.213,260.128,38.512,259.922,41.377ZM15.74,32.845c.027-.575-.23-.734-.763-.732-3.262.014-6.525,0-9.786.022a2.291,2.291,0,0,0-.776.321V49.188A3.04,3.04,0,0,0,5.3,49.6a18.123,18.123,0,0,0,1.88.019c1.129,0,1.153-.025,1.153-1.131,0-1.8,0-3.6,0-5.472H9.15c1.5,0,3.011-.025,4.516.012.667.016.9-.236.861-.883-.038-.549-.007-1.1-.008-1.655,0-1.095,0-1.1-1.088-1.1-1.673,0-3.347,0-5.058,0V35.773c.252-.015.472-.04.691-.04,1.957,0,3.915-.014,5.872,0,.568,0,.833-.184.8-.785C15.706,34.251,15.707,33.546,15.74,32.845Zm216.041-1a8.984,8.984,0,1,0,8.851,9.123A8.947,8.947,0,0,0,231.781,31.849Zm-.117,14.016a5.026,5.026,0,0,1-.007-10.052,5.026,5.026,0,0,1,.007,10.052ZM206.836,31.848a9,9,0,0,0-8.981,9.016,8.994,8.994,0,0,0,17.987-.025A8.994,8.994,0,0,0,206.836,31.848Zm.022,14.017a5.025,5.025,0,1,1,4.99-4.985A5,5,0,0,1,206.858,45.865ZM190.59,44.494c0-1.005-.028-2.011.01-3.014.024-.646-.2-.914-.863-.893-1.054.033-2.11.006-3.165.009-2.174.006-1.862-.184-1.872,1.9-.007,1.509-.2,1.445,1.385,1.464.23,0,.658.241.65.34-.041.458.382,1.1-.414,1.326a5.131,5.131,0,0,1-5.2-1.071,4.787,4.787,0,0,1-1.439-5.007,4.96,4.96,0,0,1,7.837-2.767c.463.338.768.348,1.14-.087a18.419,18.419,0,0,1,1.441-1.54c.5-.47.447-.815-.082-1.2a9.274,9.274,0,0,0-7.039-1.981,8.971,8.971,0,0,0-7.615,7.471,8.867,8.867,0,0,0,5.344,9.647c3.273,1.352,6.441.748,9.492-.794a1.059,1.059,0,0,0,.381-.789c.045-1,.018-2.009.018-3.014ZM33.954,32.1c-3.115.034-6.23.014-9.346.015-.991,0-1.007.015-1.008,1.016q0,7.725,0,15.45c0,.1,0,.2,0,.3-.014.5.23.729.733.729q4.9-.007,9.8,0c.546,0,.772-.224.751-.772-.026-.677-.037-1.358,0-2.034.037-.624-.2-.844-.823-.835-1.908.027-3.818.01-5.727.01h-.812V42.543h.782c1.508,0,3.015-.015,4.522.007.613.009.873-.222.841-.844a19.106,19.106,0,0,1,0-1.959c.032-.609-.18-.865-.818-.845-1.154.036-2.311.01-3.466.01H27.515V35.731h.84c1.91,0,3.819-.011,5.728.006.573,0,.832-.2.8-.794a14.085,14.085,0,0,1,0-1.883C34.945,32.34,34.688,32.1,33.954,32.1Zm19.752,0q-4.743.041-9.488,0c-.687-.006-.933.211-.924.905.03,2.283.011,4.568.011,6.852,0,2.937.009,5.874-.007,8.811,0,.6.146.95.834.946,3.238-.015,6.476-.009,9.714,0,.526,0,.79-.206.771-.764-.024-.677-.033-1.356,0-2.032.032-.612-.188-.862-.82-.843-1.129.035-2.259.01-3.389.01H47.241V42.543h.773q2.184,0,4.367,0c.943,0,1.018-.081,1.024-1.046,0-.326,0-.653,0-.979.009-1.851.05-1.594-1.64-1.6-1.5-.008-3,0-4.508,0V35.764c.2-.013.352-.031.5-.031,2.008,0,4.016-.013,6.024,0,.606,0,.874-.221.838-.847a14.071,14.071,0,0,1,0-1.882C54.677,32.3,54.386,32.1,53.706,32.108Zm37.179.014c-3.289-.005-6.578.012-9.867-.014-.67,0-.9.238-.856.881.038.575.006,1.155.008,1.732,0,.967.045,1.008,1.029,1.009,1.6,0,3.2,0,4.883,0-.124.293-.2.5-.3.7q-2.053,3.972-4.112,7.943c-.691,1.335-1.388,2.668-2.061,4.012-.382.762-.187,1.223.526,1.226,3.465.015,6.93.007,10.4.006a.611.611,0,0,0,.695-.692c0-.753-.009-1.506,0-2.26.007-.474-.2-.692-.681-.675-.4.014-.8,0-1.205,0H85.257c.15-.347.235-.571.34-.784q1.581-3.2,3.168-6.4c.922-1.864,1.851-3.724,2.76-5.594C91.9,32.429,91.715,32.124,90.885,32.122ZM72.4,45.975c-1.777.04-3.555.013-5.456.013v-1.3c0-3.889-.011-7.779.01-11.668,0-.678-.213-.96-.915-.915-.75.048-1.5.03-2.257,0-.553-.019-.745.2-.744.756q.021,7.979,0,15.959c0,.538.2.789.743.788q4.441-.009,8.883,0c.465,0,.693-.194.683-.676-.014-.678-.043-1.359.009-2.032C73.418,46.165,73.112,45.959,72.4,45.975Z" transform="translate(-4.415 -5.128)" style="fill: #231f20"/>
    <path d="M279.649,34.946v-8.7h-3.388V24.427h8.9v1.822h-3.29v8.7Zm6.836,0V24.427h3.465l1.993,7.242,2.007-7.242h3.465V34.946H295.3V26.557l-2.365,8.389h-2.007l-2.357-8.389v8.389Z" transform="translate(-4.415 -5.128)" style="fill: #231f20"/>
  </g>
</svg>
