<?xml version="1.0" encoding="UTF-8"?>
<!-- Generator: Adobe Illustrator 23.0.0, SVG Export Plug-In . SVG Version: 6.00 Build 0)  -->
<svg xmlns="http://www.w3.org/2000/svg" xmlns:xlink="http://www.w3.org/1999/xlink" id="Layer_1" x="0px" y="0px" viewBox="0 0 357.7 172.8" style="enable-background:new 0 0 357.7 172.8;" xml:space="preserve">
<style type="text/css">
	.st0{fill:#F7976D;}
</style>
<title>Logo</title>
<path class="st0" d="M9.9,65.3c1.8,2.2,4.1,3.8,6.7,4.9c8.7,3.7,18.7,1.6,25.1-5.3c2.1-2.2,3.7-4.8,4.8-7.7c1.2-3.1,1.7-6.3,1.7-9.6  c0-3.3-0.5-6.5-1.7-9.6c-1.1-2.8-2.7-5.4-4.7-7.7c-2-2.2-4.5-3.9-7.2-5.1c-2.9-1.2-6-1.9-9.1-1.8c-3.3-0.1-6.5,0.6-9.5,2  c-2.7,1.3-5.1,3.2-6.8,5.7v-6.7H0v63.4h9.9L9.9,65.3z M11.1,40.8c0.7-1.8,1.8-3.4,3.2-4.7c1.3-1.2,2.8-2.1,4.5-2.7  c1.6-0.6,3.3-0.9,5-0.9c1.9,0,3.9,0.4,5.6,1.1c1.7,0.7,3.3,1.8,4.5,3.2c1.3,1.4,2.3,3,3,4.8c1.4,4,1.4,8.4,0,12.4  c-0.7,1.8-1.7,3.4-3,4.8c-1.3,1.3-2.9,2.4-4.6,3.1c-1.8,0.7-3.6,1.1-5.5,1.1c-1.8,0-3.5-0.3-5.1-0.9c-1.7-0.6-3.2-1.6-4.5-2.8  c-1.4-1.3-2.5-3-3.2-4.7c-0.8-2.2-1.2-4.5-1.2-6.8C9.8,45.3,10.2,43,11.1,40.8z"></path>
<path class="st0" d="M62.2,66.4c1.8,1.8,4,3.2,6.4,4.1c5.2,1.9,10.8,1.9,16,0c2.4-0.9,4.6-2.3,6.4-4.1c1.8-1.8,3.3-4.1,4.3-6.5  c1.1-2.7,1.6-5.6,1.6-8.5V24.5h-10v27.7c0.3,5.5-3.8,10.3-9.4,10.6c-0.3,0-0.5,0-0.8,0c-2.7,0.1-5.4-1-7.4-2.8c-2.1-2-3.2-4.9-3-7.8  V24.5h-9.9v26.9c0,2.9,0.5,5.8,1.6,8.5C58.9,62.4,60.3,64.6,62.2,66.4z"></path>
<path class="st0" d="M174.6,70.9v-29c0-2.5-0.4-5.1-1.1-7.5c-0.7-2.1-1.8-4.1-3.3-5.8c-1.5-1.7-3.3-3-5.4-3.8  c-2.3-0.9-4.8-1.4-7.3-1.4c-3.2-0.1-6.3,0.6-9.2,2c-2.6,1.3-4.8,3.1-6.5,5.4c-1.4-2.2-3.3-4.1-5.6-5.4c-2.6-1.4-5.5-2.1-8.5-2  c-2.6,0-5.3,0.5-7.7,1.5c-2.2,0.9-4.2,2.3-5.8,4.1v-4.5H105v46.4h9.9V43.3c-0.1-2.9,0.9-5.7,2.8-7.8c1.9-2,4.6-3.1,7.4-3  c2.7-0.1,5.3,1,7.1,3c1.8,2.2,2.7,5,2.6,7.8v27.6h9.9V42.8c-0.1-2.7,0.9-5.4,2.8-7.4c1.9-2,4.6-3,7.4-2.9c2.7-0.1,5.3,1,7.1,3  c1.8,2.2,2.7,5,2.6,7.8v27.6H174.6z"></path>
<path class="st0" d="M231.2,57.3c1.2-3.1,1.7-6.3,1.7-9.6c0-3.3-0.5-6.5-1.7-9.6c-1.1-2.8-2.7-5.4-4.7-7.7c-2-2.2-4.5-3.9-7.2-5.1  c-2.9-1.2-6-1.9-9.1-1.8c-3.3-0.1-6.5,0.6-9.5,2c-2.7,1.3-5.1,3.2-6.8,5.7v-6.7h-9.2v63.4h9.9V65.3c1.8,2.2,4.1,3.8,6.7,4.9  c8.7,3.7,18.7,1.6,25.1-5.3C228.5,62.8,230.1,60.1,231.2,57.3z M221.6,53.9c-0.7,1.8-1.7,3.4-3,4.8c-1.3,1.3-2.8,2.4-4.6,3.1  c-1.8,0.7-3.6,1.1-5.5,1.1c-1.8,0-3.5-0.3-5.1-0.9c-1.7-0.6-3.2-1.6-4.5-2.8c-1.4-1.3-2.5-3-3.2-4.7c-0.8-2.2-1.2-4.5-1.2-6.8  c-0.1-2.3,0.4-4.7,1.3-6.9c0.7-1.8,1.8-3.4,3.2-4.7c1.3-1.2,2.8-2.1,4.5-2.7c1.6-0.6,3.3-0.9,5-0.9c1.9,0,3.9,0.4,5.6,1.1  c1.7,0.7,3.2,1.8,4.5,3.2c1.3,1.4,2.3,3,3,4.8C223.1,45.6,223.1,50,221.6,53.9L221.6,53.9z"></path>
<rect x="242.4" class="st0" width="9.9" height="70.9"></rect>
<polygon class="st0" points="284.8,70.9 264.4,45 283.2,24.5 270.8,24.5 252.6,44.8 272.9,70.9 "></polygon>
<path class="st0" d="M297.8,13.7c1.8,0,3.5-0.7,4.8-1.9c1.3-1.2,2-2.9,2-4.6c0-1.8-0.7-3.5-2-4.7c-2.7-2.6-6.9-2.6-9.6,0  c-1.3,1.2-2,2.9-2,4.7c0,1.8,0.7,3.4,2,4.6C294.3,13.1,296,13.7,297.8,13.7z"></path>
<rect x="292.8" y="24.5" class="st0" width="9.9" height="46.4"></rect>
<path class="st0" d="M356.5,34.4c-1.4-4.4-4.7-7.9-8.9-9.6c-2.3-0.9-4.8-1.4-7.3-1.4c-2.7,0-5.5,0.5-8,1.5c-2.3,1-4.3,2.4-6,4.3  v-4.7h-9.2v46.4h9.9V43.2c-0.1-2.9,1-5.7,3-7.8c2-2,4.8-3.1,7.6-3c2.8-0.1,5.4,1,7.3,3c1.9,2.2,2.8,5,2.7,7.8v27.7h10v-29  C357.7,39.4,357.3,36.8,356.5,34.4z"></path>
<path class="st0" d="M145.9,128.7l-4.4-1.8c-1.7-0.6-3.3-1.5-4.7-2.5c-1-0.7-1.5-1.8-1.5-3c-0.1-1.4,0.6-2.7,1.8-3.4  c1.4-0.8,3-1.1,4.5-1.1c2,0,4,0.4,5.9,1.2c1.9,0.8,3.6,2,5.1,3.5l5.4-6.1c-1.9-2.3-4.3-4.1-7-5.3c-2.9-1.3-6-1.9-9.1-1.8  c-2.2,0-4.3,0.3-6.4,0.9c-1.9,0.5-3.6,1.4-5.2,2.6c-3.1,2.4-4.8,6.1-4.7,9.9c-0.1,3.1,1.1,6,3.3,8.2c1.1,1.1,2.4,2.1,3.8,2.9  c1.6,0.9,3.3,1.7,5.1,2.4l4.7,2c1.6,0.6,3.2,1.4,4.6,2.3c1.2,0.7,1.9,2.1,1.8,3.4c0.1,1.6-0.8,3.1-2.2,3.9c-1.6,0.9-3.4,1.3-5.2,1.3  c-2.5,0-5-0.6-7.1-1.9c-2.2-1.3-4.2-2.9-6-4.8l-5.6,6.2c2.1,2.7,4.7,4.9,7.8,6.5c3.4,1.7,7.2,2.6,11,2.5c2.2,0,4.5-0.3,6.6-0.9  c2-0.6,3.8-1.5,5.5-2.7c3.3-2.5,5.2-6.5,5.1-10.6c0.1-3.1-1-6.1-3.2-8.2C152.7,132,149.4,130,145.9,128.7z"></path>
<path class="st0" d="M211.9,115.3c-2-2.2-4.5-3.9-7.2-5.1c-2.9-1.2-6-1.9-9.1-1.8c-3.3-0.1-6.5,0.6-9.5,2c-2.7,1.3-5.1,3.2-6.8,5.7  v-6.7h-9.2v63.4h9.9v-22.6c1.8,2.2,4.1,3.8,6.7,4.9c2.8,1.2,5.8,1.7,8.8,1.7c6.2,0,12.1-2.5,16.3-7c2.1-2.2,3.7-4.8,4.8-7.7  c1.2-3.1,1.7-6.4,1.7-9.6c0-3.3-0.5-6.5-1.7-9.6C215.5,120.1,213.9,117.5,211.9,115.3z M207,138.8c-0.7,1.8-1.7,3.4-3,4.8  c-1.3,1.3-2.8,2.4-4.5,3.1c-1.8,0.7-3.6,1.1-5.5,1.1c-1.8,0-3.5-0.3-5.1-0.9c-1.7-0.6-3.2-1.5-4.5-2.8c-1.4-1.3-2.5-2.9-3.2-4.7  c-0.8-2.2-1.2-4.5-1.2-6.8c-0.1-2.3,0.4-4.6,1.2-6.8c0.7-1.8,1.8-3.4,3.2-4.7c1.3-1.2,2.8-2.1,4.5-2.8c1.6-0.6,3.3-0.9,5.1-0.9  c3.8,0,7.5,1.5,10.1,4.3c1.3,1.4,2.3,3,3,4.8C208.5,130.4,208.5,134.8,207,138.8L207,138.8z"></path>
<path class="st0" d="M232.9,85.5c-1.8,0-3.5,0.7-4.8,1.9c-1.3,1.2-2,2.9-2,4.7c0,1.8,0.7,3.4,2,4.6c2.7,2.5,6.9,2.5,9.6,0  c1.3-1.2,2-2.9,2-4.6c0-1.8-0.7-3.5-2-4.7C236.4,86.2,234.7,85.5,232.9,85.5z"></path>
<rect x="227.9" y="109.4" class="st0" width="9.9" height="46.4"></rect>
<path class="st0" d="M261.6,121.9c1.3-1.4,2.8-2.5,4.6-3.2c1.8-0.8,3.8-1.2,5.8-1.2c2.6-0.1,5.1,0.6,7.2,1.9  c2.1,1.4,3.9,3.1,5.3,5.1l7-5.5c-4.1-6.9-11.6-11-19.7-10.8c-3.3,0-6.6,0.6-9.6,1.9c-2.9,1.2-5.6,3-7.8,5.2c-2.2,2.2-4,4.8-5.3,7.7  c-1.3,3-1.9,6.2-1.9,9.5c0,3.3,0.6,6.5,1.9,9.6c1.2,2.9,3,5.5,5.2,7.7c2.3,2.2,4.9,3.9,7.8,5.1c3,1.3,6.3,1.9,9.6,1.9  c4,0.1,8-0.9,11.5-2.9c3.3-1.9,6-4.6,8-7.9l-7-5.4c-1.4,2-3.2,3.7-5.3,5.1c-2.2,1.3-4.7,2-7.2,1.9c-2,0-4-0.4-5.8-1.1  c-1.7-0.7-3.3-1.8-4.6-3.2c-1.3-1.4-2.3-3-3-4.8c-0.7-1.9-1.1-3.9-1.1-6c0-2,0.4-4,1.1-5.9C259.3,124.9,260.3,123.3,261.6,121.9z"></path>
<path class="st0" d="M336.1,114.4c-1.9-1.9-4.3-3.4-6.8-4.4c-2.7-1.1-5.7-1.6-8.6-1.6c-3.2,0-6.5,0.6-9.5,1.9  c-2.8,1.2-5.4,3-7.6,5.2c-2.2,2.2-3.9,4.8-5.1,7.7c-1.2,3-1.9,6.3-1.8,9.6c0,3.3,0.6,6.5,1.9,9.6c2.4,5.9,7.2,10.5,13.1,12.8  c3.2,1.2,6.6,1.9,10,1.9c3.5,0,7-0.6,10.2-2c3.1-1.3,5.9-3.2,8.3-5.5l-4.8-6.8c-1.8,1.6-3.9,3-6.2,4c-2.3,1-4.8,1.5-7.4,1.5  c-3.6,0.1-7.1-1-10-3.2c-2.8-2.2-4.6-5.5-5.1-9h34.6c0.2-0.9,0.4-1.8,0.5-2.6c0.2-1.2,0.2-2.4,0.2-3.6c0-2.9-0.5-5.8-1.6-8.5  C339.5,118.6,338,116.3,336.1,114.4z M307,128.1c0.6-3.2,2.2-6.1,4.7-8.3c2.4-2.1,5.5-3.2,8.7-3.1c3-0.1,5.9,1,8.2,2.9  c2.3,1.9,3.5,4.8,3.6,8.4L307,128.1z"></path>
<path class="st0" d="M107.4,98.5c2.6,2.6,3.8,5.2,3.8,7.8c0,4.5-1.6,7.6-4.9,9.5c-3.3,1.9-8.7,2.8-16.4,2.8l-4.7,0.1h-8.9  c-13.7,0-23.9,3.4-30.4,10.3c-0.7-1.3-1.8-3.5-3.3-6.5l-1.8-3.6c-0.1-0.2-0.4-0.8-0.9-1.9c15.6-8.7,23.4-17,23.4-24.9  c0-8.6-4.9-12.9-14.6-12.9c-6.2-0.2-12.2,2.1-16.6,6.4c-4.4,4.2-6.8,10-6.6,16c0,4.3,1.4,9.9,4.2,16.9C11.7,127,2.8,137.4,2.8,150.1  c0,6.6,2.1,11.9,6.4,15.9c4.3,4.1,9.9,6.1,16.8,6.1c10.1,0,19.7-3.4,28.8-10.4c5.5,6.9,10.4,10.4,14.5,10.4c2.8,0,6-1.5,9.7-4.5  c3.7-3,5.6-5.7,5.6-7.9c0-0.8-0.4-1.6-1-2.1c-3.3,4.5-6.4,6.8-9.4,6.8c-3.7,0-7.8-3.1-12.2-9.2c8.2-8.2,13.4-17.4,15.6-27.6h1.2  c11.7,0,21.1-2.5,28.1-7.4c7-4.9,10.5-11.5,10.5-19.8c0.1-3.3-0.8-6.6-2.7-9.3L107.4,98.5z M43.8,83.2c2.8,0,5.5,1.2,7.4,3.3  c2,2.1,3.2,4.8,3.1,7.7c0,7.7-5.1,14.5-15.3,20.5c-3.4-8.3-5.1-14.7-5.1-19.1C33.9,87.4,37.2,83.2,43.8,83.2z M35.3,166.4  c-5.6,0.2-11-1.9-15-5.8c-4-3.9-6.1-9.2-5.9-14.8c0-11,5.7-19.3,17-24.8l1.1,2.5c5.2,11.9,11.6,23.2,19,33.8l1.6,2.1  C47.1,164.1,41.2,166.4,35.3,166.4z M60,152.8c-1.5-2-3.8-5.9-7.1-11.5l-4.4-7.6c-0.1-0.3-0.6-1.1-1.4-2.5  c4.5-2.4,11.4-3.6,20.8-3.6h1.9C69.1,136,65.9,144.4,60,152.8z"></path>
</svg>
