<svg xmlns="http://www.w3.org/2000/svg" viewBox="0 0 288.54 187.45">
  <defs>
    <style>
      .a {
        fill: #231f20;
      }
    </style>
  </defs>
  <title>Morris Legal Group</title>
  <g>
    <path class="a" d="M202.86,152q5.49-12,12.16-26.23a11.12,11.12,0,0,0,1-6.91,11.77,11.77,0,0,0-2.3-5.39,4.91,4.91,0,0,0-3.83-2c-1.44,0-2.61,1.11-3.53,3.33l-.68,1.57-.3.49q-4.51,7.56-10.24,16.52T183,152.1q-6.47,9.81-13.48,20.1l-14.07,20.64q-7.07,10.33-13.83,20.34t-12.79,19.17q-6,9.17-11.13,17.21T109,264q.5-6.37,1.13-15.89t1.32-20.68q.69-11.18,1.38-23.29t1.27-23.58q4.71-12.34,8.92-23.58t7.5-19.9q3.28-8.69,5.35-14.22c1.37-3.69,2.16-5.86,2.35-6.52a9.87,9.87,0,0,0,.1-6,10.05,10.05,0,0,0-2.55-4.41,4.13,4.13,0,0,0-3.48-1.32q-1.81.24-2.7,3.18c-.13.46-.55,1.83-1.27,4.12s-1.7,5.28-2.94,9-2.68,8-4.32,12.94-3.4,10.28-5.29,16c.32-5.23.59-9.64.78-13.23s.36-6.05.49-7.36c.2-2.55-.16-4.16-1.08-4.85a2.87,2.87,0,0,0-3.18-.15,8.64,8.64,0,0,0-3.33,3.24,9,9,0,0,0-1.43,5.29q.3,7.75.39,17.8t0,21.62L70.6,286.52a5.76,5.76,0,0,0-.29,2.69,2.64,2.64,0,0,0,.68,1.57,1,1,0,0,0,1.23,0,3.46,3.46,0,0,0,1.22-2q.19-.58,1.67-4.56L79,273.67q2.44-6.57,5.74-15.29t7.11-18.78q3.81-10,7.94-21t8.23-21.91q-.19,9.81-.49,19.61t-.73,18.92q-.45,9.12-1,17.31t-1.13,14.85a4.22,4.22,0,0,0,.34,2.6,2,2,0,0,0,1.42,1.08,3.3,3.3,0,0,0,2-.44,6,6,0,0,0,2.11-2.06l7.31-10.4q4.75-6.77,11.08-15.73t13.82-19.51q7.5-10.55,15.44-21.87t16.08-22.79q8.14-11.47,15.69-22.16Q178.84,186.32,172.08,210t-10.69,41.13a9.69,9.69,0,0,0-.34,3.83,2.57,2.57,0,0,0,.88,1.86c.42.26.9.15,1.42-.34a6.43,6.43,0,0,0,1.37-2.89q2.94-10.7,5.93-20.4T177,214q3.38-9.45,7.25-19.11t8.48-20.3Q197.38,164,202.86,152Z" transform="translate(-70.25 -104.56)"/>
    <path class="a" d="M206.73,196.9a7.38,7.38,0,0,0-6.77.84,23.15,23.15,0,0,0-6.42,6.22,45.84,45.84,0,0,0-5.19,9.47,52.23,52.23,0,0,0-3.14,10.34,25.39,25.39,0,0,0-.25,8.92c.46,2.62,1.61,4.38,3.44,5.3a5.43,5.43,0,0,0,4.5,0,14.68,14.68,0,0,0,4.86-3.39,37.45,37.45,0,0,0,4.7-5.88,53.59,53.59,0,0,0,4.07-7.3,58,58,0,0,0,2.95-7.8,33,33,0,0,0,1.37-7.35,14.39,14.39,0,0,0-.74-5.88A5.78,5.78,0,0,0,206.73,196.9Zm-4.61,19.52a35.24,35.24,0,0,1-2.16,6.37,40.51,40.51,0,0,1-3.18,5.93,18,18,0,0,1-3.53,4.07c-1.21,1-2.24,1.27-3.09.88s-1.32-1.34-1.42-2.84a18.76,18.76,0,0,1,.54-5.3,45.32,45.32,0,0,1,2-6.32,40.37,40.37,0,0,1,2.84-5.93,18,18,0,0,1,3.24-4.17c1.11-1,2.15-1.35,3.13-1a3.35,3.35,0,0,1,2.06,3A15.44,15.44,0,0,1,202.12,216.42Z" transform="translate(-70.25 -104.56)"/>
    <path class="a" d="M313.77,177.65c.36.85.83,1.31,1.42,1.37.85.07,1.91-.49,3.19-1.67a14.73,14.73,0,0,0,3.13-4.16,8.74,8.74,0,0,0,1-4.76q-.19-2.35-3.23-3.43a3.92,3.92,0,0,0-3.29.05A5,5,0,0,0,314,167.3a10.4,10.4,0,0,0-.93,3.53,18.35,18.35,0,0,0,0,3.78A10.92,10.92,0,0,0,313.77,177.65Z" transform="translate(-70.25 -104.56)"/>
    <path class="a" d="M358.23,200c-.46-.29-1.1-.16-1.91.4a9.64,9.64,0,0,0-2.6,3.18,128.92,128.92,0,0,1-8.58,13.09q-4.47,5.94-7.6,9.66a52.12,52.12,0,0,0-1.86-5.25q-1.08-2.6-2-5.29a31.32,31.32,0,0,1-1.28-5.59,19.63,19.63,0,0,1,.2-6.13,13.17,13.17,0,0,0,2.74-2.25,9.73,9.73,0,0,0,1.82-2.55,6.63,6.63,0,0,0,.64-3.34c-.14-2-.95-3.16-2.46-3.62a5.83,5.83,0,0,0-4.8.83,11.51,11.51,0,0,0-4,4.49,12,12,0,0,0-2.17,2.7q-2.83,4.6-6.32,9.7t-7,9.66a100.56,100.56,0,0,1-6.81,8,23.75,23.75,0,0,1-5.74,4.71,73,73,0,0,1,2.16-8.43q1.47-4.71,3.43-9.37t4.17-8.82a41,41,0,0,1,4.46-6.91q1.75-2.16.78-3.49a3.49,3.49,0,0,0-3.33-1.12,11.47,11.47,0,0,0-5.34,2.25,17.61,17.61,0,0,0-5.35,6.67c-.67,1.35-1.3,2.72-1.87,4.12-.47.77-1,1.56-1.48,2.39a54.09,54.09,0,0,1-3.58,5.1,29.44,29.44,0,0,1-3.72,4,6.1,6.1,0,0,1-3.43,1.72,6.1,6.1,0,0,1,.05-4.12,25.86,25.86,0,0,1,2.25-5.3,36.16,36.16,0,0,1,3.53-5.24,29.56,29.56,0,0,1,3.87-4.07c1.24-1.05,1.78-2.11,1.62-3.19a2.67,2.67,0,0,0-2.06-2.2,8.58,8.58,0,0,0-4.95.34,19.16,19.16,0,0,0-7.06,4.56,81.17,81.17,0,0,0-7.3,7.7q-3.48,4.16-6.13,7.79c-1.76,2.42-3.19,4.48-4.26,6.18a32.09,32.09,0,0,0-1.72,2.84c.06-.2.39-1,1-2.4s1.36-3.2,2.3-5.39,2-4.66,3.24-7.41,2.47-5.55,3.77-8.43,2.62-5.7,3.93-8.48,2.54-5.31,3.72-7.6q1.28-2.45.54-4.12a3.3,3.3,0,0,0-2.55-2,7.12,7.12,0,0,0-4.36.94,14.64,14.64,0,0,0-5,4.6q-2.46,3.44-4.27,6.18c-1.21,1.83-2.27,3.52-3.18,5s-1.77,2.94-2.55,4.22-1.54,2.5-2.26,3.67a10,10,0,0,0-.62,1.21c-.73,1.23-1.51,2.51-2.37,3.89a56,56,0,0,1-3.58,5.1,28.85,28.85,0,0,1-3.73,4,6.07,6.07,0,0,1-3.43,1.72,6.16,6.16,0,0,1,0-4.12,25.39,25.39,0,0,1,2.26-5.3,36.16,36.16,0,0,1,3.53-5.24,29.56,29.56,0,0,1,3.87-4.07c1.24-1.05,1.78-2.11,1.62-3.19a2.69,2.69,0,0,0-2.06-2.2,8.58,8.58,0,0,0-5,.34,19.08,19.08,0,0,0-7.06,4.56,81.26,81.26,0,0,0-7.31,7.7q-3.48,4.16-6.12,7.79t-4.27,6.18a30.48,30.48,0,0,0-1.71,2.84c.06-.2.39-1,1-2.4s1.35-3.2,2.3-5.39,2-4.66,3.24-7.41,2.46-5.55,3.77-8.43,2.61-5.7,3.92-8.48,2.55-5.31,3.73-7.6q1.27-2.45.54-4.12a3.3,3.3,0,0,0-2.55-2,7.15,7.15,0,0,0-4.37.94,14.73,14.73,0,0,0-5,4.6q-2.44,3.44-4.26,6.18c-1.21,1.83-2.27,3.52-3.19,5s-1.76,2.94-2.55,4.22L216,204.55a6.12,6.12,0,0,0-1.08,3,2.11,2.11,0,0,0,.64,1.77,1.62,1.62,0,0,0,1.71,0,5.54,5.54,0,0,0,2.16-2.26q1.27-2.06,2.4-3.77l2-3.09c.72-1.05,1.34-2,1.86-2.84-.91,2.22-2,5.13-3.13,8.72q-1.57,4.71-4,12.06T213,236.32a10,10,0,0,0-.49,3.38c.06.88.34,1.41.83,1.57s1.15-.07,2-.69a13.09,13.09,0,0,0,2.8-3.48q1.56-2.44,4.16-6t5.54-7c2-2.29,3.89-4.34,5.79-6.18a21.24,21.24,0,0,1,4.8-3.72,12.76,12.76,0,0,0-.83,5.88,6.07,6.07,0,0,0,1.76,3.83,5,5,0,0,0,3.68,1.17,10.06,10.06,0,0,0,5.1-2.06,32.54,32.54,0,0,0,7.26-6.91,63.45,63.45,0,0,0,5.78-9.07c.17-.31.32-.59.46-.88.64-1,1.26-2,1.85-2.89l2-3.09c.72-1.05,1.34-2,1.86-2.84-.92,2.22-2,5.13-3.14,8.72q-1.56,4.71-4,12.06t-5.64,18.14a10.29,10.29,0,0,0-.49,3.38c.07.88.35,1.41.84,1.57s1.14-.07,2-.69a13.1,13.1,0,0,0,2.79-3.48q1.58-2.44,4.17-6t5.54-7c2-2.29,3.89-4.34,5.78-6.18a21.48,21.48,0,0,1,4.81-3.72,12.65,12.65,0,0,0-.84,5.88,6,6,0,0,0,1.77,3.83,4.94,4.94,0,0,0,3.68,1.17,10,10,0,0,0,5.09-2.06,30.94,30.94,0,0,0,4.06-3.34l-.12.51q-.93,4.06-1.52,7.35c-.39,2.19-.69,3.87-.88,5.05a8.85,8.85,0,0,0,.1,4.46,3.89,3.89,0,0,0,1.81,2.26,4.48,4.48,0,0,0,2.79.39,7.41,7.41,0,0,0,3-1.23,42.6,42.6,0,0,0,7.06-6.17q3.82-4,7.65-8.92t7.5-10.25q2-2.92,3.83-5.75c0,.14,0,.28,0,.43a18.62,18.62,0,0,0,1.82,6.32c1,2.13,2,4.18,3.08,6.18s2,3.84,2.75,5.54a6.73,6.73,0,0,1,.78,4.21,62.81,62.81,0,0,0-5.78,4.9,50.18,50.18,0,0,0-4.36,4.76,14.79,14.79,0,0,0-2.8,4.85q-.89,3.24-.1,5a2.83,2.83,0,0,0,2.8,1.77,9.74,9.74,0,0,0,4.95-1.91,28.19,28.19,0,0,0,6.18-5.93,20.31,20.31,0,0,0,3.57-6.28,15.33,15.33,0,0,0,.74-5.78,107.88,107.88,0,0,0,7.75-9,149.41,149.41,0,0,0,10.78-16.38,10.32,10.32,0,0,0,1.62-4.07C358.87,201,358.69,200.27,358.23,200Z" transform="translate(-70.25 -104.56)"/>
  </g>
  <g>
    <path class="a" d="M161,273.1h1.87V290h7.62v1.67H161Z" transform="translate(-70.25 -104.56)"/>
    <path class="a" d="M177.38,273.1h9v1.67h-7.18v6.12h5.93v1.67h-5.93V290h7.18v1.67h-9Z" transform="translate(-70.25 -104.56)"/>
    <path class="a" d="M202.94,290.29a7,7,0,0,1-4.32,1.61c-4.78,0-5.61-5.78-5.61-9.48,0-3.48.8-9.57,5.42-9.57a5.46,5.46,0,0,1,4.65,3l-1.65,1a3.64,3.64,0,0,0-3.11-2.23c-3.09,0-3.37,5.68-3.37,7.87,0,6.37,1.87,7.68,3.7,7.68a4.13,4.13,0,0,0,2.42-.86V283.7H197.6V282h5.34Z" transform="translate(-70.25 -104.56)"/>
    <path class="a" d="M212.2,285.92,210.75,292l-1.84-.5,4.71-18.41h2.22l4.7,18.41-1.83.5-1.45-6.09Zm2.56-10.35h-.06l-2.06,8.68h4.18Z" transform="translate(-70.25 -104.56)"/>
    <path class="a" d="M227.77,273.1h1.86V290h7.63v1.67h-9.49Z" transform="translate(-70.25 -104.56)"/>
    <path class="a" d="M266.9,290.29a7,7,0,0,1-4.31,1.61c-4.78,0-5.62-5.78-5.62-9.48,0-3.48.81-9.57,5.43-9.57a5.46,5.46,0,0,1,4.64,3l-1.64,1a3.66,3.66,0,0,0-3.12-2.23c-3.08,0-3.36,5.68-3.36,7.87,0,6.37,1.86,7.68,3.7,7.68a4.13,4.13,0,0,0,2.42-.86V283.7h-3.48V282h5.34Z" transform="translate(-70.25 -104.56)"/>
    <path class="a" d="M274.86,273.1h5c1.84,0,4.15,1.58,4.15,4.92,0,2.28-.92,4.45-3.2,5.23l3.84,8L283,292l-4.17-8.62h-2.09v8.26h-1.86Zm1.86,8.62h2.72c1.62,0,2.62-1.19,2.62-3.7s-1.17-3.25-3.06-3.25h-2.28Z" transform="translate(-70.25 -104.56)"/>
    <path class="a" d="M300.53,282.36c0,2.34.08,9.54-5.15,9.54s-5.15-7.15-5.15-9.54c0-3.06.2-9.51,5.15-9.51C300.61,272.85,300.53,279.91,300.53,282.36Zm-8.35,0c0,5,.59,7.79,3.2,7.79,3.23,0,3.2-4.56,3.2-7.79,0-3.5.08-7.76-3.2-7.76S292.18,279.64,292.18,282.36Z" transform="translate(-70.25 -104.56)"/>
    <path class="a" d="M309.4,273.1v13.49c0,1.84.36,3.56,2.67,3.56s2.7-1.75,2.7-3.56V273.1h1.86v14c0,2.89-1.81,4.75-4.56,4.75a4.33,4.33,0,0,1-4.54-4.67V273.1Z" transform="translate(-70.25 -104.56)"/>
    <path class="a" d="M326.78,291.65h-1.87V273.1h4c3.28,0,5.12,1.75,5.12,4.92,0,3.45-1.95,5.37-4.51,5.37h-2.78Zm0-9.93,2.61,0c1.73,0,2.73-1.33,2.73-3.67s-1.2-3.25-3.2-3.25h-2.14Z" transform="translate(-70.25 -104.56)"/>
  </g>
</svg>
