<svg id="Layer_1" data-name="Layer 1" xmlns="http://www.w3.org/2000/svg" viewBox="0 0 226.576 56.822">
  <title>Mybio me</title>
  <path d="M220.091,13.842v.509h1.038v3.187h.519V14.351h1.018l.062-.509Zm5.7,0-1.059,1.823-1.069-1.823h-.3l-.478,3.7h.53l.335-2.738.937,1.659h.061l.957-1.649.316,2.728h.55l-.489-3.7Z" transform="translate(0 0)" style="fill: #8fa6bb"/>
  <path d="M82.4,41.42l-.115,1.606H75.63V0h7.114V15.776a11.229,11.229,0,0,1,6.712-1.892c9.179,0,14.055,6.826,14.055,14.857S98.635,43.6,89.456,43.6A11.249,11.249,0,0,1,82.4,41.42m0-12.679c0,5.336,2.008,9.007,6.6,9.007s7.228-3.671,7.228-9.007S93.587,19.735,89,19.735s-6.6,3.672-6.6,9.006" transform="translate(0 0)" style="fill: #8fa6bb"/>
  <path d="M106.152,2.869h7.113V9.983h-7.113Zm0,11.473h7.113V43.026h-7.113Z" transform="translate(0 0)" style="fill: #8fa6bb"/>
  <path d="M115.9,28.741c0-8.031,5.336-14.857,14.515-14.857s14.513,6.826,14.513,14.857S139.6,43.6,130.419,43.6,115.9,36.773,115.9,28.741m7.286,0c0,5.336,2.639,9.007,7.229,9.007s7.228-3.671,7.228-9.007-2.639-9.006-7.228-9.006-7.229,3.672-7.229,9.006" transform="translate(0 0)" style="fill: #8fa6bb"/>
  <path d="M183.772,43.026V27.594c0-5.278-1.377-7.86-5.335-7.86-4.705,0-5.68,2.639-5.68,5.566V43.026H165.7V27.594c0-6.2-1.721-7.86-5.737-7.86a6.565,6.565,0,0,0-5.277,2.353V43.026h-7.114V14.342h5.851l.4,2.238a11.806,11.806,0,0,1,7.343-2.7,10.433,10.433,0,0,1,8.777,4.36c.975-1.836,4.36-4.36,9.523-4.36,7.745,0,11.417,5.679,11.417,13.711V43.026Z" transform="translate(0 0)" style="fill: #8fa6bb"/>
  <path d="M200.642,30.232a8.307,8.307,0,0,0,8.547,7.516,21.543,21.543,0,0,0,8.835-2.352l.344,6.023a20.9,20.9,0,0,1-9.58,2.181c-10.384,0-15.547-6.827-15.547-14.859,0-7.973,4.934-14.858,13.769-14.858,7.228,0,12.62,4.876,12.62,12.448a18.956,18.956,0,0,1-.459,3.9Zm.172-4.818H212.4c0-2.582-1.319-5.68-5.163-5.68-3.672,0-5.737,2.409-6.425,5.68" transform="translate(0 0)" style="fill: #8fa6bb"/>
  <path d="M36.2,42.939V27.507c0-5.278-1.377-7.86-5.335-7.86-4.705,0-5.68,2.639-5.68,5.566V42.939H18.128V27.507c0-6.2-1.721-7.86-5.737-7.86A6.568,6.568,0,0,0,7.113,22V42.939H0V14.255H5.851l.4,2.238A11.8,11.8,0,0,1,13.6,13.8a10.434,10.434,0,0,1,8.777,4.36c.975-1.836,4.36-4.36,9.523-4.36,7.745,0,11.416,5.679,11.416,13.711V42.939Z" transform="translate(0 0)" style="fill: #8fa6bb"/>
  <polygon points="55.88 56.822 48.766 56.822 55.134 41.046 43.202 14.255 51.118 14.255 58.462 32.728 65.919 14.255 73.836 14.255 55.88 56.822" style="fill: #8fa6bb"/>
</svg>
