<?xml version="1.0" encoding="utf-8"?>
<!-- Generator: Adobe Illustrator 23.1.0, SVG Export Plug-In . SVG Version: 6.00 Build 0)  -->
<svg version="1.1" id="Layer_1" xmlns="http://www.w3.org/2000/svg" xmlns:xlink="http://www.w3.org/1999/xlink" x="0px" y="0px"
	 viewBox="0 0 1690 584" style="enable-background:new 0 0 1690 584;" xml:space="preserve">
<style type="text/css">
	.st0{fill:#0E476A;}
	.st1{fill:#808285;}
</style>
<g>
	<g>
		<path class="st0" d="M316.27,273.13c1.49-63.76,35.42-95.45,101.41-95.45h7.08v51.45h-16.78c-27.59,0-41.39,14.54-41.39,43.25
			v102.53h-50.33V273.13z"/>
		<path class="st0" d="M481.06,121.38c16.41,0,24.23,8.2,23.86,24.23v14.54h-49.59v-38.78H481.06z M481.06,177.68
			c16.03,0,23.86,7.83,23.86,23.86v173.37h-49.59V177.68H481.06z"/>
		<path class="st0" d="M590.84,248.89v126.02H540.5V258.96c0-56.3,28.34-84.26,84.64-84.26c25.35,0,44.74,5.59,58.91,16.78
			c14.17-10.81,33.56-16.03,58.91-16.03c56.3,0,84.26,27.96,83.89,84.26v115.96h-25.73c-16.41-1.12-24.61-8.95-24.61-24.61V249.64
			c-1.12-20.51-12.3-30.57-34.3-30.57s-33.18,10.07-33.56,30.57v125.28H658.7V248.89c-1.12-20.51-12.3-30.57-34.3-30.57
			C602.4,218.32,591.21,228.39,590.84,248.89z"/>
		<path class="st0" d="M906.63,229.13h-49.59c5.97-36.54,31.69-54.43,77.18-54.43c54.44,0,82.03,17.9,83.15,54.43v67.11
			c0,54.44-32.81,78.67-86.13,82.4c-47.35,3.73-80.16-18.27-80.16-61.89c1.12-47.35,35.42-60.03,85.38-64.88
			c21.25-2.61,32.07-8.95,32.07-19.76c-1.12-11.19-11.56-16.78-32.07-16.78C918.94,215.34,909.24,219.81,906.63,229.13z
			 M969.27,294.01v-18.27c-11.56,4.85-24.98,8.95-39.52,11.93c-19.76,3.73-29.83,13.05-29.83,27.59
			c1.12,15.66,9.32,23.12,24.98,23.12C952.49,338.38,969.27,321.97,969.27,294.01z"/>
		<path class="st0" d="M1044.27,273.13c1.49-63.76,35.42-95.45,101.41-95.45h7.08v51.45h-16.78c-27.59,0-41.39,14.54-41.39,43.25
			v102.53h-50.34V273.13z"/>
		<path class="st0" d="M1266.12,379.39c-59.66,0-90.23-34.3-91.72-102.16c0-67.48,30.2-101.41,90.97-102.53
			c47.72,0,76.06,21.25,84.64,64.13h-54.06c-5.96-13.42-16.4-20.51-32.06-20.51c-26.1,0-39.15,19.76-39.15,58.91
			s13.79,58.91,41.39,58.54c11.56,0,21.62-4.85,29.83-14.17c4.85-4.85,10.44-7.08,16.78-7.08h37.28
			C1341.06,354.78,1311.98,380.51,1266.12,379.39z"/>
		<path class="st0" d="M1467.82,219.07c-29.45,0-42.13,24.61-42.13,54.81v101.04h-49.59V121.38h24.98c16.4,0,24.61,8.58,24.61,24.98
			v58.91c25.35-29.08,56.3-37.28,93.21-24.23c27.59,10.07,40.64,36.54,39.15,79.42v114.46h-49.22V273.87
			C1508.83,240.69,1496.16,219.07,1467.82,219.07z"/>
		<g>
			<g>
				<path class="st0" d="M226.12,284.36h-64.13v90.23h-51.83V148.27c0-14.54,11.56-27.22,26.1-27.22h86.13
					c53.69,0,81.65,28.71,81.65,81.65C304.04,252.67,276.83,284.36,226.12,284.36z M213.07,238.5c26.1,0.37,39.15-11.93,39.15-36.54
					s-12.3-36.91-36.54-36.91h-52.94v73.45H213.07z"/>
			</g>
		</g>
	</g>
	<g>
		<path class="st1" d="M403.52,480.93h-9.36v-72.86h9.36V480.93z"/>
		<path class="st1" d="M478.42,480.93h-9.36v-72.86h11.4l35.41,56.68h0.41l-0.41-14.04v-42.64h9.36v72.86h-9.77l-37.04-59.43h-0.41
			l0.41,14.04V480.93z"/>
		<path class="st1" d="M615.59,417.02v63.9h-9.36v-63.9h-20.35v-8.96h50.07v8.96H615.59z"/>
		<path class="st1" d="M739.12,408.07v8.96h-33.17v23.1h29.92v8.75h-29.92v23.1h33.17v8.95h-42.53v-72.86H739.12z"/>
		<path class="st1" d="M811.98,480.93h-9.36v-72.86h24.83c6.31,0,11.68,2.09,16.13,6.26c4.44,4.17,6.67,9.31,6.67,15.42
			c0,5.02-1.65,9.48-4.93,13.38c-3.29,3.9-7.45,6.39-12.47,7.48l-0.2,0.31l20.45,29.61v0.41H842l-19.64-29.51h-10.38V480.93z
			 M811.98,417.02v25.64h15.06c3.8,0,7.02-1.24,9.67-3.71c2.65-2.47,3.97-5.54,3.97-9.21c0-3.39-1.24-6.36-3.71-8.9
			c-2.48-2.54-5.58-3.82-9.31-3.82H811.98z"/>
		<path class="st1" d="M921.67,480.93h-9.36v-72.86h9.36V480.93z"/>
		<path class="st1" d="M1057.52,444.5c0,10.79-3.6,19.81-10.79,27.07c-7.26,7.33-16.15,10.99-26.66,10.99
			c-10.58,0-19.47-3.66-26.66-10.99c-7.19-7.26-10.79-16.28-10.79-27.07c0-10.79,3.6-19.81,10.79-27.07
			c7.19-7.33,16.08-10.99,26.66-10.99c10.58,0,19.47,3.7,26.66,11.09C1053.93,424.79,1057.52,433.78,1057.52,444.5z M992.19,444.5
			c0,8.41,2.65,15.37,7.94,20.86c5.36,5.49,12.01,8.24,19.95,8.24c7.94,0,14.55-2.75,19.84-8.24c5.36-5.43,8.04-12.38,8.04-20.86
			c0-8.48-2.68-15.43-8.04-20.86c-5.29-5.49-11.91-8.24-19.84-8.24c-7.94,0-14.59,2.75-19.95,8.24
			C994.84,429.13,992.19,436.08,992.19,444.5z"/>
		<path class="st1" d="M1128.85,480.93h-9.36v-72.86h24.83c6.31,0,11.68,2.09,16.13,6.26c4.44,4.17,6.67,9.31,6.67,15.42
			c0,5.02-1.65,9.48-4.93,13.38c-3.29,3.9-7.45,6.39-12.47,7.48l-0.2,0.31l20.45,29.61v0.41h-11.09l-19.64-29.51h-10.38V480.93z
			 M1128.85,417.02v25.64h15.06c3.8,0,7.02-1.24,9.67-3.71c2.65-2.47,3.97-5.54,3.97-9.21c0-3.39-1.24-6.36-3.71-8.9
			c-2.48-2.54-5.58-3.82-9.31-3.82H1128.85z"/>
		<path class="st1" d="M1274.17,461.49c0,6.38-2.34,11.5-7.02,15.37c-4.75,3.8-10.52,5.7-17.3,5.7c-6.04,0-11.36-1.76-15.98-5.29
			c-4.61-3.53-7.8-8.34-9.57-14.45l8.96-3.66c0.61,2.17,1.46,4.14,2.54,5.9c1.08,1.76,2.36,3.27,3.82,4.53
			c1.46,1.26,3.07,2.24,4.83,2.95c1.76,0.71,3.63,1.07,5.6,1.07c4.27,0,7.77-1.1,10.48-3.31c2.71-2.2,4.07-5.14,4.07-8.8
			c0-3.05-1.12-5.66-3.36-7.84c-2.1-2.1-6.04-4.14-11.8-6.11c-5.83-2.1-9.46-3.53-10.89-4.27c-7.73-3.93-11.6-9.73-11.6-17.4
			c0-5.36,2.14-9.94,6.41-13.74c4.34-3.8,9.67-5.7,15.98-5.7c5.56,0,10.38,1.42,14.45,4.27c4.07,2.78,6.78,6.28,8.14,10.48
			l-8.75,3.66c-0.81-2.71-2.43-4.97-4.83-6.77c-2.41-1.8-5.34-2.7-8.8-2.7c-3.66,0-6.75,1.02-9.26,3.05
			c-2.51,1.9-3.77,4.38-3.77,7.43c0,2.51,0.98,4.68,2.95,6.51c2.17,1.83,6.88,4,14.14,6.51c7.39,2.51,12.67,5.58,15.82,9.21
			C1272.59,451.74,1274.17,456.2,1274.17,461.49z"/>
	</g>
</g>
</svg>
