<svg id="Layer_1" data-name="Layer 1" xmlns="http://www.w3.org/2000/svg" viewBox="0 0 587.577 62.309">
  <title>protone1.1</title>
  <g>
    <g>
      <path d="M37.957,16.478c0,9.664-7.284,15.65-16.515,15.65H10.48V49.869H.239V.829H21.8C30.673.829,37.957,6.886,37.957,16.478Zm-10.241,0c0-3.894-3.461-6.346-7.211-6.346H10.48V22.824H20.505C24.255,22.824,27.716,20.373,27.716,16.478Z" transform="translate(-0.239 0.181)" style="fill: #daa528"/>
      <path d="M63.85,11.79v8.8c-5.841,0-9.808,3.966-9.808,9.3V49.869H44.234V29.027c0-10.1,6.635-17.237,18.173-17.237Z" transform="translate(-0.239 0.181)" style="fill: #daa528"/>
      <path d="M88.227,51.167c-11.034,0-20.409-8.654-20.409-19.689S77.193,11.79,88.227,11.79s20.41,8.654,20.41,19.688S99.261,51.167,88.227,51.167Zm0-30.578a10.894,10.894,0,1,0,10.6,10.889A10.87,10.87,0,0,0,88.227,20.589Z" transform="translate(-0.239 0.181)" style="fill: #daa528"/>
      <path d="M125.8,32.128c0,7.067,3.607,10.241,9.736,10.241v8.8h-1.081c-12.4,0-18.462-6.851-18.462-17.38V.829H125.8v12.26h9.736v8.438H125.8Z" transform="translate(-0.239 0.181)" style="fill: #daa528"/>
      <path d="M161.144,51.167c-11.034,0-20.41-8.654-20.41-19.689s9.376-19.688,20.41-19.688,20.409,8.654,20.409,19.688S172.177,51.167,161.144,51.167Zm0-30.578a10.894,10.894,0,1,0,10.6,10.889A10.871,10.871,0,0,0,161.144,20.589Z" transform="translate(-0.239 0.181)" style="fill: #daa528"/>
      <path d="M226.2,29.6V49.869h-9.808v-19.4c0-5.553-3.317-9.88-8.943-9.88s-8.943,4.327-8.943,9.88v19.4H188.7V29.6c0-9.664,7-17.814,18.751-17.814S226.2,19.94,226.2,29.6Z" transform="translate(-0.239 0.181)" style="fill: #daa528"/>
      <path d="M243.727,35.012a10.773,10.773,0,0,0,10.024,7.357,10.457,10.457,0,0,0,8.222-4.111h10.962a20.427,20.427,0,0,1-19.184,12.909c-11.034,0-20.409-8.654-20.409-19.689s9.375-19.688,20.409-19.688,20.41,8.654,20.41,19.688a19.047,19.047,0,0,1-.36,3.534Zm20.121-6.707a10.464,10.464,0,0,0-20.193,0Z" transform="translate(-0.239 0.181)" style="fill: #daa528"/>
    </g>
    <g>
      <path d="M302.211,49.869V.829h18.533c16.083,0,25.963,9.447,25.963,24.519s-10.385,24.521-25.89,24.521Zm6.058-43.416v37.79h12.187c12.044,0,20.193-6.562,20.193-18.9s-8-18.895-20.193-18.895Z" transform="translate(-0.239 0.181)" style="fill: #282525"/>
      <path d="M393.082,31.478V49.869h-5.769V43.45c-2.74,4.976-8.654,7.429-14.207,7.429-11.034,0-19.977-8.654-19.977-19.4s8.943-19.4,19.977-19.4S393.082,20.733,393.082,31.478Zm-5.625,0A14.21,14.21,0,1,0,373.25,45.4,14.037,14.037,0,0,0,387.457,31.478Z" transform="translate(-0.239 0.181)" style="fill: #282525"/>
      <path d="M398.351,13.089H404.7l11.828,27.765,11.827-27.765H434.7L413.856,62.128H407.51l6.058-14.135Z" transform="translate(-0.239 0.181)" style="fill: #282525"/>
      <path d="M460.015,34.579h6.13a11.1,11.1,0,0,0,10.963,10.674c5.985,0,10.745-3.75,10.745-9.447,0-4.976-4.327-7.789-11.178-9.664-9.447-2.6-14.857-6.562-14.857-13.342,0-7.355,6.2-12.981,14.785-12.981,8.366,0,14.928,5.337,15.65,13.991h-6.13c-.361-5.337-4.9-8.365-9.52-8.365-4.76,0-8.726,2.884-8.726,7.284,0,4.615,5.625,7,12.332,8.8,8.221,2.236,13.7,6.851,13.7,14.279,0,8.726-6.635,15.073-16.8,15.073-9.736,0-17.093-6.78-17.093-15.794Z" transform="translate(-0.239 0.181)" style="fill: #282525"/>
      <path d="M541.656,31.478c0,10.747-8.942,19.4-19.976,19.4a17.7,17.7,0,0,1-14.063-6.78V62.128H501.7V31.478c0-10.745,8.943-19.4,19.977-19.4S541.656,20.733,541.656,31.478Zm-5.913,0A14.137,14.137,0,1,0,521.608,45.4,14.021,14.021,0,0,0,535.743,31.478Z" transform="translate(-0.239 0.181)" style="fill: #282525"/>
      <path d="M587.815,31.478V49.869h-5.77V43.45c-2.74,4.976-8.654,7.429-14.206,7.429-11.034,0-19.977-8.654-19.977-19.4s8.943-19.4,19.977-19.4S587.815,20.733,587.815,31.478Zm-5.625,0A14.21,14.21,0,1,0,567.983,45.4,14.037,14.037,0,0,0,582.19,31.478Z" transform="translate(-0.239 0.181)" style="fill: #282525"/>
    </g>
  </g>
</svg>
