<svg id="Layer_1" data-name="Layer 1" xmlns="http://www.w3.org/2000/svg" viewBox="0 0 406.538 135.831">
  <title>SafetyCatch_Logo</title>
  <g>
    <g>
      <path d="M217.734,354.03h-4.449v11.342h-1.062V354.03h-4.467v-.991h9.978Z" transform="translate(-207.756 -229.725)" style="fill: #808184"/>
      <path d="M228.079,360.082h-3.51v5.29H223.5V353.039H228.1c2.468,0,4.074,1.347,4.074,3.514a3.31,3.31,0,0,1-2.877,3.4l3.551,5.418h-1.251Zm-3.51-.987h3.51c1.943,0,2.97-.9,2.97-2.542s-1.027-2.523-2.97-2.523h-3.51Z" transform="translate(-207.756 -229.725)" style="fill: #808184"/>
      <path d="M245.785,361.615h-5.829l-1.475,3.757h-1.123l4.895-12.333h1.272l4.874,12.333h-1.12Zm-.394-.99-2.016-5.138-.486-1.418h-.038l-.448,1.362-2.053,5.194Z" transform="translate(-207.756 -229.725)" style="fill: #808184"/>
      <path d="M255.178,365.372h-1.067V353.039h1.067Z" transform="translate(-207.756 -229.725)" style="fill: #808184"/>
      <path d="M271.99,365.372h-1.326l-6.222-9.361-1.011-1.814h-.017l.055,1.663v9.512h-1.007V353.039h1.324l6.2,9.325,1.028,1.85-.057-1.664v-9.511h1.029Z" transform="translate(-207.756 -229.725)" style="fill: #808184"/>
      <path d="M280.334,365.372H279.27V353.039h1.064Z" transform="translate(-207.756 -229.725)" style="fill: #808184"/>
      <path d="M297.147,365.372h-1.328l-6.223-9.361-1-1.814h-.02l.057,1.663v9.512h-1.01V353.039h1.326l6.2,9.325,1.027,1.85-.055-1.664v-9.511h1.028Z" transform="translate(-207.756 -229.725)" style="fill: #808184"/>
      <path d="M314.274,359.3v6.072h-.823l-.037-2.018a4.27,4.27,0,0,1-4.148,2.2c-3.436,0-5.6-2.446-5.6-6.351s2.26-6.349,5.641-6.349c2.5,0,4.053.969,4.877,2.966l-.953.529a3.748,3.748,0,0,0-3.924-2.509c-2.709,0-4.541,2.04-4.541,5.363s1.664,5.362,4.541,5.362c2.652,0,4-1.7,4-3.644v-.633h-4.131v-.99Z" transform="translate(-207.756 -229.725)" style="fill: #808184"/>
      <path d="M339.748,364.754l-.246.8c-.914,0-1.588-.3-2.783-1.549A4.895,4.895,0,0,1,333,365.556c-2.2,0-3.773-1.251-3.773-3.041,0-1.645.972-2.748,3.084-3.906-1.125-1.44-1.514-2.131-1.514-3.085a2.62,2.62,0,0,1,2.8-2.652c1.476,0,2.748.765,2.748,2.43,0,1.309-.467,2.3-2.656,3.549.357.466.767.99,1.271,1.624.693.9,1.254,1.589,1.738,2.167a7.009,7.009,0,0,0,.916-3.98l.86.1a7.564,7.564,0,0,1-1.2,4.557C338.346,364.492,338.924,364.754,339.748,364.754Zm-3.609-1.4c-.522-.6-1.139-1.348-1.887-2.279l-1.381-1.758c-1.924,1.1-2.635,1.906-2.635,3.123a2.441,2.441,0,0,0,2.711,2.241A4.212,4.212,0,0,0,336.139,363.354Zm-4.332-7.847c0,.746.2,1.156,1.346,2.672,1.923-1.047,2.242-1.889,2.242-2.859,0-.991-.692-1.533-1.813-1.533A1.652,1.652,0,0,0,331.807,355.507Z" transform="translate(-207.756 -229.725)" style="fill: #808184"/>
      <path d="M359.151,365.556c-3.42,0-5.623-2.446-5.623-6.351s2.222-6.349,5.6-6.349c2.467,0,4.053,1.024,4.781,3l-1.045.491a3.493,3.493,0,0,0-3.666-2.509c-2.746,0-4.576,2.018-4.576,5.363,0,3.327,1.774,5.362,4.524,5.362a3.792,3.792,0,0,0,3.884-2.726l1.047.392A4.916,4.916,0,0,1,359.151,365.556Z" transform="translate(-207.756 -229.725)" style="fill: #808184"/>
      <path d="M380.817,359.205c0,3.905-2.186,6.351-5.68,6.351s-5.68-2.446-5.68-6.351,2.188-6.349,5.68-6.349S380.817,355.3,380.817,359.205Zm-10.258,0c0,3.327,1.758,5.362,4.578,5.362s4.578-2.035,4.578-5.362-1.756-5.363-4.578-5.363S370.559,355.882,370.559,359.205Z" transform="translate(-207.756 -229.725)" style="fill: #808184"/>
      <path d="M396.86,365.372h-1.327l-6.22-9.361L388.3,354.2h-.02l.057,1.663v9.512h-1.008V353.039h1.326l6.2,9.325,1.026,1.85-.057-1.664v-9.511h1.03Z" transform="translate(-207.756 -229.725)" style="fill: #808184"/>
      <path d="M412.657,355.563l-.913.727a3.476,3.476,0,0,0-3.736-2.448c-2.166,0-3.42,1.067-3.42,2.448,0,1.31.877,1.981,3.793,2.484,3.27.543,4.426,1.534,4.426,3.385,0,2.033-1.867,3.4-4.651,3.4-2.6,0-4.425-1.1-5.117-2.894l.914-.727c.541,1.7,2.055,2.632,4.225,2.632,2.055,0,3.525-.841,3.525-2.352,0-1.235-.892-1.946-3.64-2.411-3.418-.578-4.594-1.552-4.594-3.4,0-1.9,1.7-3.545,4.519-3.545A4.647,4.647,0,0,1,412.657,355.563Z" transform="translate(-207.756 -229.725)" style="fill: #808184"/>
      <path d="M428.553,360.851c0,3.082-1.718,4.7-4.767,4.7s-4.781-1.623-4.781-4.7v-7.812h1.064v7.567c0,2.635,1.271,3.961,3.717,3.961s3.7-1.326,3.7-3.961v-7.567h1.066Z" transform="translate(-207.756 -229.725)" style="fill: #808184"/>
      <path d="M444.069,364.379v.993H435.7V353.039h1.064v11.34Z" transform="translate(-207.756 -229.725)" style="fill: #808184"/>
      <path d="M455.764,354.03h-4.449v11.342h-1.062V354.03h-4.465v-.991h9.976Z" transform="translate(-207.756 -229.725)" style="fill: #808184"/>
      <path d="M462.594,365.372H461.53V353.039h1.064Z" transform="translate(-207.756 -229.725)" style="fill: #808184"/>
      <path d="M479.407,365.372h-1.326l-6.219-9.361-1.008-1.814h-.021l.052,1.663v9.512h-1V353.039H471.2l6.2,9.325,1.031,1.85-.058-1.664v-9.511h1.027Z" transform="translate(-207.756 -229.725)" style="fill: #808184"/>
      <path d="M496.534,359.3v6.072h-.822l-.036-2.018a4.271,4.271,0,0,1-4.15,2.2c-3.436,0-5.6-2.446-5.6-6.351s2.261-6.349,5.642-6.349c2.5,0,4.053.969,4.877,2.966l-.955.529a3.744,3.744,0,0,0-3.922-2.509c-2.709,0-4.539,2.04-4.539,5.363s1.662,5.362,4.539,5.362c2.654,0,4-1.7,4-3.644v-.633h-4.127v-.99Z" transform="translate(-207.756 -229.725)" style="fill: #808184"/>
      <path d="M520.883,356.685c0,2.261-1.621,3.641-4.162,3.641h-3.084v5.046h-1.062V353.039h4.146C519.262,353.039,520.883,354.423,520.883,356.685Zm-1.1,0c0-1.7-1.086-2.655-3.2-2.655h-2.953v5.306h2.953C518.7,359.336,519.786,358.382,519.786,356.685Z" transform="translate(-207.756 -229.725)" style="fill: #808184"/>
      <path d="M531.307,365.372h-1.232l-4.744-12.333h1.136L530,362.344l.691,2.035.69-2.015,3.529-9.325h1.144Z" transform="translate(-207.756 -229.725)" style="fill: #808184"/>
      <path d="M550.284,354.03h-4.447v11.342H544.77V354.03h-4.463v-.991h9.977Z" transform="translate(-207.756 -229.725)" style="fill: #808184"/>
      <path d="M555.5,364.6a.926.926,0,1,1-.936-.934A.878.878,0,0,1,555.5,364.6Z" transform="translate(-207.756 -229.725)" style="fill: #808184"/>
      <path d="M579.735,364.379v.993h-8.367V353.039h1.064v11.34Z" transform="translate(-207.756 -229.725)" style="fill: #808184"/>
      <path d="M591.428,354.03h-4.447v11.342h-1.064V354.03h-4.463v-.991h9.974Z" transform="translate(-207.756 -229.725)" style="fill: #808184"/>
      <path d="M607.27,359.132c0,4.032-2.248,6.24-6.166,6.24H597.2V353.039H601.1C605.022,353.039,607.27,355.191,607.27,359.132Zm-1.125,0c0-3.25-1.773-5.1-4.949-5.1h-2.934v10.349H601.2C604.372,364.379,606.145,362.492,606.145,359.132Z" transform="translate(-207.756 -229.725)" style="fill: #808184"/>
      <path d="M614.249,364.6a.878.878,0,0,1-.934.917.926.926,0,0,1,0-1.851A.883.883,0,0,1,614.249,364.6Z" transform="translate(-207.756 -229.725)" style="fill: #808184"/>
    </g>
    <g>
      <path d="M430.059,266.354H400.322c-10.986,0-12.48-7.161-12.48-13.168,0-6.063,1.494-13.291,12.48-13.291H415.84l-6.16-10.17h-9.358c-15.136,0-22.187,7.456-22.187,23.461,0,15.921,7.051,23.338,22.187,23.338h34.825v-10.17Z" transform="translate(-207.756 -229.725)" style="fill: #0c3555"/>
      <path d="M431.508,248.061H396.684V258.23h34.824c10.987,0,12.481,7.161,12.481,13.168,0,6.062-1.494,13.289-12.481,13.289H415.915l6.09,10.171h9.5c15.137,0,22.188-7.455,22.188-23.46C453.7,255.476,446.645,248.061,431.508,248.061Z" transform="translate(-207.756 -229.725)" style="fill: #34a1db"/>
    </g>
    <g>
      <path d="M208.481,343.092v-9.6h17.678a2.411,2.411,0,0,0,2.639-2.707v-1.213a2.973,2.973,0,0,0-.525-1.877,2.357,2.357,0,0,0-1.937-.711h-9.568a12.188,12.188,0,0,1-4.164-.633,7.289,7.289,0,0,1-2.762-1.725,6.719,6.719,0,0,1-1.565-2.578,10.252,10.252,0,0,1-.506-3.269v-4.851c0-6.881,3.484-10.227,10.652-10.227h18.268v9.541H219.9a2.412,2.412,0,0,0-2.639,2.707v1.209a2.282,2.282,0,0,0,2.46,2.593H228.7c3.46,0,5.95.771,7.4,2.3s2.19,3.773,2.19,6.663v4.154c0,6.881-3.483,10.228-10.649,10.228Z" transform="translate(-207.756 -229.725)" style="fill: #0c3555"/>
      <path d="M284.352,343.092V306.77c0-2.093,1-3.068,3.15-3.068h22.817v9.541H295.887a1.332,1.332,0,0,0-1.4,1.494v4.149H310.2v8.559H294.488v15.647Z" transform="translate(-207.756 -229.725)" style="fill: #0c3555"/>
      <path d="M319.51,343.092c-2.149,0-3.149-.992-3.149-3.125v-33.2c0-2.093,1-3.068,3.149-3.068h22.816v9.541H327.9a1.332,1.332,0,0,0-1.4,1.494v4.149h15.711v8.559H326.5V332a1.331,1.331,0,0,0,1.4,1.494h14.431v9.6Z" transform="translate(-207.756 -229.725)" style="fill: #0c3555"/>
      <polygon points="150.891 113.367 150.891 83.519 140.613 83.519 140.613 73.978 171.246 73.978 171.246 83.519 161.027 83.519 161.027 113.367 150.891 113.367" style="fill: #0c3555"/>
      <path d="M395.91,343.092V327.445h-3.582c-4.9,0-7.285-2.344-7.285-7.167V303.7H395.18v12.479a2.357,2.357,0,0,0,2.582,2.645H404.2a2.357,2.357,0,0,0,2.582-2.645V303.7h10.136v16.576c0,4.823-2.383,7.167-7.282,7.167h-3.584v15.647Z" transform="translate(-207.756 -229.725)" style="fill: #0c3555"/>
      <path d="M463.464,343.092a25.387,25.387,0,0,1-8.135-1.156,13.633,13.633,0,0,1-5.44-3.307,13.3,13.3,0,0,1-3.1-5.313,24.131,24.131,0,0,1-1.01-7.262v-5.313a24.133,24.133,0,0,1,1.01-7.263,13.291,13.291,0,0,1,3.1-5.315,13.6,13.6,0,0,1,5.438-3.305,25.331,25.331,0,0,1,8.135-1.156h8.876v9.541h-8.7c-2.683,0-4.66.591-5.877,1.76-1.238,1.188-1.841,3.217-1.841,6.2v4.328c0,2.984.6,5.014,1.841,6.2,1.215,1.164,3.192,1.758,5.877,1.758h8.7v9.6Z" transform="translate(-207.756 -229.725)" style="fill: #0c3555"/>
      <polygon points="316.161 113.367 316.161 83.519 305.885 83.519 305.885 73.978 336.516 73.978 336.516 83.519 326.301 83.519 326.301 113.367 316.161 113.367" style="fill: #0c3555"/>
      <path d="M566.4,343.092a25.387,25.387,0,0,1-8.131-1.156,13.614,13.614,0,0,1-5.439-3.307,13.325,13.325,0,0,1-3.1-5.313,24.215,24.215,0,0,1-1.008-7.262v-5.313a24.217,24.217,0,0,1,1.008-7.263,13.333,13.333,0,0,1,3.1-5.315,13.566,13.566,0,0,1,5.439-3.305A25.335,25.335,0,0,1,566.4,303.7h8.879v9.541h-8.7c-2.684,0-4.662.591-5.877,1.76-1.239,1.188-1.842,3.217-1.842,6.2v4.328c0,2.984.6,5.014,1.842,6.2,1.213,1.164,3.191,1.758,5.877,1.758h8.7v9.6Z" transform="translate(-207.756 -229.725)" style="fill: #0c3555"/>
      <polygon points="396.401 113.367 396.401 97.721 383.623 97.721 383.623 113.367 373.485 113.367 373.485 73.978 383.623 73.978 383.623 89.161 396.401 89.161 396.401 73.978 406.538 73.978 406.538 113.367 396.401 113.367" style="fill: #0c3555"/>
      <path d="M268.49,343.092l-4.3-14.25-3.458-11.5H259.73l-7.147,25.749H241.806L254.138,304.9a1.828,1.828,0,0,1,1.815-1.195h8.535a1.409,1.409,0,0,1,1.53.937l13.342,38.453Z" transform="translate(-207.756 -229.725)" style="fill: #0c3555"/>
      <path d="M504.372,343.092l-4.3-14.25-3.457-11.5h-1.006l-7.147,25.749H477.686L490.02,304.9a1.826,1.826,0,0,1,1.815-1.195h8.537a1.4,1.4,0,0,1,1.527.935l13.344,38.455Z" transform="translate(-207.756 -229.725)" style="fill: #0c3555"/>
    </g>
  </g>
</svg>
