<svg id="Layer_1" data-name="Layer 1" xmlns="http://www.w3.org/2000/svg" viewBox="0 0 54.701 113.385">
  <title>Sobha</title>
  <path d="M23.761,130.175V126.86h.6a2.412,2.412,0,0,1,.524.04.86.86,0,0,1,.293.126.75.75,0,0,1,.247.313,1.157,1.157,0,0,1,.082.434.858.858,0,0,1-.26.692,1.3,1.3,0,0,1-.838.224h-.349v1.486Zm.3-1.753h.2a1.286,1.286,0,0,0,.739-.144.555.555,0,0,0,.185-.484.841.841,0,0,0-.039-.266.612.612,0,0,0-.13-.22.465.465,0,0,0-.239-.146,2.216,2.216,0,0,0-.516-.04h-.2Z" transform="translate(-23.761 -16.915)" style="fill: #231f20"/>
  <path d="M23.761,130.175V126.86h.6a2.412,2.412,0,0,1,.524.04.86.86,0,0,1,.293.126.75.75,0,0,1,.247.313,1.157,1.157,0,0,1,.082.434.858.858,0,0,1-.26.692,1.3,1.3,0,0,1-.838.224h-.349v1.486Zm.3-1.753h.2a1.286,1.286,0,0,0,.739-.144.555.555,0,0,0,.185-.484.841.841,0,0,0-.039-.266.612.612,0,0,0-.13-.22.465.465,0,0,0-.239-.146,2.216,2.216,0,0,0-.516-.04h-.2Z" transform="translate(-23.761 -16.915)" style="fill: #231f20"/>
  <path d="M26.527,130.175l1.455-3.445,1.395,3.445h-.331l-.423-1.124h-1.35l-.439,1.124Zm.85-1.38h1.149l-.564-1.444Z" transform="translate(-23.761 -16.915)" style="fill: #231f20"/>
  <path d="M26.527,130.175l1.455-3.445,1.395,3.445h-.331l-.423-1.124h-1.35l-.439,1.124Zm.85-1.38h1.149l-.564-1.444Z" transform="translate(-23.761 -16.915)" style="fill: #231f20"/>
  <path d="M30.652,129.616l.259-.139a.76.76,0,0,0,.247.381.692.692,0,0,0,.426.131.645.645,0,0,0,.491-.182.721.721,0,0,0,.18-.514.657.657,0,0,0-.121-.4,1.657,1.657,0,0,0-.508-.367,2.313,2.313,0,0,1-.667-.466.733.733,0,0,1-.163-.484.74.74,0,0,1,.236-.571.86.86,0,0,1,.618-.226.884.884,0,0,1,.437.106.771.771,0,0,1,.294.316l-.231.141a.508.508,0,0,0-.2-.221.669.669,0,0,0-.313-.069.5.5,0,0,0-.537.529c0,.233.2.448.578.65.071.034.123.067.158.084a1.619,1.619,0,0,1,.564.44.926.926,0,0,1,.145.537.906.906,0,0,1-.97.97.932.932,0,0,1-.558-.166,1.051,1.051,0,0,1-.361-.481" transform="translate(-23.761 -16.915)" style="fill: #231f20"/>
  <path d="M30.652,129.616l.259-.139a.76.76,0,0,0,.247.381.692.692,0,0,0,.426.131.645.645,0,0,0,.491-.182.721.721,0,0,0,.18-.514.657.657,0,0,0-.121-.4,1.657,1.657,0,0,0-.508-.367,2.313,2.313,0,0,1-.667-.466.733.733,0,0,1-.163-.484.74.74,0,0,1,.236-.571.86.86,0,0,1,.618-.226.884.884,0,0,1,.437.106.771.771,0,0,1,.294.316l-.231.141a.508.508,0,0,0-.2-.221.669.669,0,0,0-.313-.069.5.5,0,0,0-.537.529c0,.233.2.448.578.65.071.034.123.067.158.084a1.619,1.619,0,0,1,.564.44.926.926,0,0,1,.145.537.906.906,0,0,1-.97.97.932.932,0,0,1-.558-.166A1.051,1.051,0,0,1,30.652,129.616Z" transform="translate(-23.761 -16.915)" style="fill: #231f20"/>
  <path d="M34.115,129.616l.259-.139a.773.773,0,0,0,.251.381.691.691,0,0,0,.425.131.649.649,0,0,0,.492-.182.715.715,0,0,0,.176-.514.675.675,0,0,0-.117-.4,1.715,1.715,0,0,0-.512-.367,2.282,2.282,0,0,1-.665-.466.8.8,0,0,1,.072-1.055.955.955,0,0,1,1.054-.12.79.79,0,0,1,.3.316l-.235.141a.513.513,0,0,0-.2-.221.691.691,0,0,0-.314-.069.515.515,0,0,0-.389.141.526.526,0,0,0-.146.388c0,.233.191.448.575.65.068.034.122.067.16.084a1.649,1.649,0,0,1,.564.44.965.965,0,0,1,.142.537.946.946,0,0,1-.261.7.933.933,0,0,1-.7.265.92.92,0,0,1-.56-.166,1.037,1.037,0,0,1-.365-.481" transform="translate(-23.761 -16.915)" style="fill: #231f20"/>
  <path d="M34.115,129.616l.259-.139a.773.773,0,0,0,.251.381.691.691,0,0,0,.425.131.649.649,0,0,0,.492-.182.715.715,0,0,0,.176-.514.675.675,0,0,0-.117-.4,1.715,1.715,0,0,0-.512-.367,2.282,2.282,0,0,1-.665-.466.8.8,0,0,1,.072-1.055.955.955,0,0,1,1.054-.12.79.79,0,0,1,.3.316l-.235.141a.513.513,0,0,0-.2-.221.691.691,0,0,0-.314-.069.515.515,0,0,0-.389.141.526.526,0,0,0-.146.388c0,.233.191.448.575.65.068.034.122.067.16.084a1.649,1.649,0,0,1,.564.44.965.965,0,0,1,.142.537.946.946,0,0,1-.261.7.933.933,0,0,1-.7.265.92.92,0,0,1-.56-.166A1.037,1.037,0,0,1,34.115,129.616Z" transform="translate(-23.761 -16.915)" style="fill: #231f20"/>
  <rect x="14.075" y="109.945" width="0.298" height="3.314" style="fill: #231f20"/>
  <rect x="14.075" y="109.945" width="0.298" height="3.314" style="fill: #231f20"/>
  <path d="M43.509,128.527a1.71,1.71,0,0,1-.134.665,1.782,1.782,0,0,1-.96.94,1.828,1.828,0,0,1-1.359,0,1.747,1.747,0,0,1-.574-.378,1.686,1.686,0,0,1-.384-.567,1.655,1.655,0,0,1-.135-.66,1.729,1.729,0,0,1,.135-.679,1.737,1.737,0,0,1,.953-.937,1.908,1.908,0,0,1,1.369,0,1.725,1.725,0,0,1,1.089,1.616m-1.773,1.462a1.477,1.477,0,0,0,.555-.106,1.412,1.412,0,0,0,.79-.8,1.479,1.479,0,0,0-.787-1.924,1.522,1.522,0,0,0-.558-.107,1.5,1.5,0,0,0-.557.107,1.521,1.521,0,0,0-.47.32,1.438,1.438,0,0,0-.318.479,1.519,1.519,0,0,0,0,1.125,1.511,1.511,0,0,0,.318.484,1.321,1.321,0,0,0,.466.313,1.475,1.475,0,0,0,.561.106" transform="translate(-23.761 -16.915)" style="fill: #231f20"/>
  <path d="M43.509,128.527a1.71,1.71,0,0,1-.134.665,1.782,1.782,0,0,1-.96.94,1.828,1.828,0,0,1-1.359,0,1.747,1.747,0,0,1-.574-.378,1.686,1.686,0,0,1-.384-.567,1.655,1.655,0,0,1-.135-.66,1.729,1.729,0,0,1,.135-.679,1.737,1.737,0,0,1,.953-.937,1.908,1.908,0,0,1,1.369,0,1.725,1.725,0,0,1,1.089,1.616Zm-1.773,1.462a1.477,1.477,0,0,0,.555-.106,1.412,1.412,0,0,0,.79-.8,1.479,1.479,0,0,0-.787-1.924,1.522,1.522,0,0,0-.558-.107,1.5,1.5,0,0,0-.557.107,1.521,1.521,0,0,0-.47.32,1.438,1.438,0,0,0-.318.479,1.519,1.519,0,0,0,0,1.125,1.511,1.511,0,0,0,.318.484,1.321,1.321,0,0,0,.466.313A1.475,1.475,0,0,0,41.736,129.989Z" transform="translate(-23.761 -16.915)" style="fill: #231f20"/>
  <polygon points="21.569 113.26 21.569 109.804 23.914 112.575 23.914 109.946 24.196 109.946 24.196 113.356 21.853 110.58 21.853 113.26 21.569 113.26" style="fill: #231f20"/>
  <polygon points="21.569 113.26 21.569 109.804 23.914 112.575 23.914 109.946 24.196 109.946 24.196 113.356 21.853 110.58 21.853 113.26 21.569 113.26" style="fill: #231f20"/>
  <path d="M51.982,130.175l1.453-3.445,1.395,3.445H54.5l-.421-1.124H52.726l-.44,1.124Zm.85-1.38h1.152l-.565-1.444Z" transform="translate(-23.761 -16.915)" style="fill: #231f20"/>
  <path d="M51.982,130.175l1.453-3.445,1.395,3.445H54.5l-.421-1.124H52.726l-.44,1.124Zm.85-1.38h1.152l-.565-1.444Z" transform="translate(-23.761 -16.915)" style="fill: #231f20"/>
  <polygon points="32.938 113.26 32.938 110.228 32.025 110.228 32.025 109.946 34.15 109.946 34.15 110.228 33.234 110.228 33.234 113.26 32.938 113.26" style="fill: #231f20"/>
  <polygon points="32.938 113.26 32.938 110.228 32.025 110.228 32.025 109.946 34.15 109.946 34.15 110.228 33.234 110.228 33.234 113.26 32.938 113.26" style="fill: #231f20"/>
  <polygon points="39.086 113.385 37.941 109.945 38.257 109.945 39.086 112.593 39.968 109.814 40.885 112.567 41.683 109.945 41.992 109.945 40.885 113.385 39.968 110.572 39.086 113.385" style="fill: #231f20"/>
  <polygon points="39.086 113.385 37.941 109.945 38.257 109.945 39.086 112.593 39.968 109.814 40.885 112.567 41.683 109.945 41.992 109.945 40.885 113.385 39.968 110.572 39.086 113.385" style="fill: #231f20"/>
  <path d="M70.767,128.527a1.692,1.692,0,0,1-.134.665,1.728,1.728,0,0,1-.381.562,1.774,1.774,0,0,1-.578.378,1.83,1.83,0,0,1-1.36,0,1.745,1.745,0,0,1-.571-.378,1.8,1.8,0,0,1-.39-.567,1.724,1.724,0,0,1-.132-.66,1.8,1.8,0,0,1,.132-.679,1.9,1.9,0,0,1,.39-.565,1.654,1.654,0,0,1,.566-.372,1.916,1.916,0,0,1,1.372,0,1.823,1.823,0,0,1,.571.372,1.778,1.778,0,0,1,.381.565,1.746,1.746,0,0,1,.134.679m-1.774,1.462a1.43,1.43,0,0,0,1.347-.9,1.506,1.506,0,0,0,0-1.125,1.366,1.366,0,0,0-.318-.479,1.424,1.424,0,0,0-.468-.32,1.518,1.518,0,0,0-.561-.107,1.491,1.491,0,0,0-.556.107,1.561,1.561,0,0,0-.471.32,1.418,1.418,0,0,0-.316.479,1.5,1.5,0,0,0,.316,1.609,1.331,1.331,0,0,0,.471.313,1.442,1.442,0,0,0,.556.106" transform="translate(-23.761 -16.915)" style="fill: #231f20"/>
  <path d="M70.767,128.527a1.692,1.692,0,0,1-.134.665,1.728,1.728,0,0,1-.381.562,1.774,1.774,0,0,1-.578.378,1.83,1.83,0,0,1-1.36,0,1.745,1.745,0,0,1-.571-.378,1.8,1.8,0,0,1-.39-.567,1.724,1.724,0,0,1-.132-.66,1.8,1.8,0,0,1,.132-.679,1.9,1.9,0,0,1,.39-.565,1.654,1.654,0,0,1,.566-.372,1.916,1.916,0,0,1,1.372,0,1.823,1.823,0,0,1,.571.372,1.778,1.778,0,0,1,.381.565A1.746,1.746,0,0,1,70.767,128.527Zm-1.774,1.462a1.43,1.43,0,0,0,1.347-.9,1.506,1.506,0,0,0,0-1.125,1.366,1.366,0,0,0-.318-.479,1.424,1.424,0,0,0-.468-.32,1.518,1.518,0,0,0-.561-.107,1.491,1.491,0,0,0-.556.107,1.561,1.561,0,0,0-.471.32,1.418,1.418,0,0,0-.316.479,1.5,1.5,0,0,0,.316,1.609,1.331,1.331,0,0,0,.471.313A1.442,1.442,0,0,0,68.993,129.989Z" transform="translate(-23.761 -16.915)" style="fill: #231f20"/>
  <path d="M74.6,130.176h-.366l-1.163-1.58h-.185v1.58h-.3V126.86H73.2a1.237,1.237,0,0,1,.808.223.839.839,0,0,1,.267.681.813.813,0,0,1-.23.608.862.862,0,0,1-.633.224Zm-1.714-3.054v1.224H73.2a.984.984,0,0,0,.587-.131.576.576,0,0,0,.166-.459.617.617,0,0,0-.175-.489.91.91,0,0,0-.578-.145Z" transform="translate(-23.761 -16.915)" style="fill: #231f20"/>
  <path d="M74.6,130.176h-.366l-1.163-1.58h-.185v1.58h-.3V126.86H73.2a1.237,1.237,0,0,1,.808.223.839.839,0,0,1,.267.681.813.813,0,0,1-.23.608.862.862,0,0,1-.633.224Zm-1.714-3.054v1.224H73.2a.984.984,0,0,0,.587-.131.576.576,0,0,0,.166-.459.617.617,0,0,0-.175-.489.91.91,0,0,0-.578-.145Z" transform="translate(-23.761 -16.915)" style="fill: #231f20"/>
  <polygon points="52.433 113.26 52.433 109.946 52.73 109.946 52.73 111.496 54.231 109.946 54.623 109.946 53.056 111.529 54.701 113.26 54.26 113.26 52.73 111.574 52.73 113.26 52.433 113.26" style="fill: #231f20"/>
  <polygon points="52.433 113.26 52.433 109.946 52.73 109.946 52.73 111.496 54.231 109.946 54.623 109.946 53.056 111.529 54.701 113.26 54.26 113.26 52.73 111.574 52.73 113.26 52.433 113.26" style="fill: #231f20"/>
  <rect width="54.701" height="105.704" style="fill: #fedf8f"/>
  <path d="M41.558,47.455a.726.726,0,0,1-.73.718.717.717,0,1,1,0-1.434.728.728,0,0,1,.73.716" transform="translate(-23.761 -16.915)" style="fill: #eb2227;fill-rule: evenodd"/>
  <path d="M37.853,73.534a1.19,1.19,0,1,0-1.216-1.2,1.208,1.208,0,0,0,1.216,1.2m0-2.538a1.139,1.139,0,1,0-1.164-1.138A1.149,1.149,0,0,0,37.853,71m0-2.537a1.087,1.087,0,1,0-1.109-1.086,1.1,1.1,0,0,0,1.109,1.086m0-2.537A1.037,1.037,0,1,0,36.8,64.884a1.049,1.049,0,0,0,1.057,1.038m0-2.538a.984.984,0,1,0-1-.983.989.989,0,0,0,1,.983m0-2.532a.937.937,0,1,0-.955-.937.944.944,0,0,0,.955.937m0-2.54a.884.884,0,1,0-.9-.885.9.9,0,0,0,.9.885m0-2.538A.833.833,0,1,0,37,54.945a.841.841,0,0,0,.852.829M41.491,83.5a1.377,1.377,0,0,0-.122-2.486,1.323,1.323,0,0,0-.141-2.484,1.277,1.277,0,0,0-.2-2.48,1.263,1.263,0,1,0-.471,0,1.279,1.279,0,0,0-.2,2.48,1.327,1.327,0,0,0-.139,2.484A1.376,1.376,0,0,0,40.1,83.5a1.439,1.439,0,0,0-.779,1.271,1.473,1.473,0,0,0,2.945,0,1.438,1.438,0,0,0-.78-1.271M40.8,73.534a1.19,1.19,0,1,0,0-2.38,1.19,1.19,0,1,0,0,2.38M40.8,71a1.139,1.139,0,1,0-1.16-1.138A1.152,1.152,0,0,0,40.8,71m0-2.537a1.087,1.087,0,1,0-1.111-1.086A1.1,1.1,0,0,0,40.8,68.459m0-2.537a1.037,1.037,0,1,0-1.059-1.038A1.051,1.051,0,0,0,40.8,65.922m0-2.538A.984.984,0,1,0,39.79,62.4a.989.989,0,0,0,1.008.983m0-2.532a.937.937,0,1,0-.954-.937.948.948,0,0,0,.954.937m0-2.54a.884.884,0,1,0-.907-.885.9.9,0,0,0,.907.885m0-2.538a.833.833,0,1,0-.851-.829.844.844,0,0,0,.851.829m0-2.533a.783.783,0,1,0-.8-.782.792.792,0,0,0,.8.782m0-2.53a.735.735,0,1,0-.746-.74.745.745,0,0,0,.746.74M44.437,83.5a1.377,1.377,0,0,0-.121-2.486,1.333,1.333,0,0,0,.8-1.212,1.352,1.352,0,0,0-.935-1.272,1.28,1.28,0,0,0-.2-2.48,1.269,1.269,0,1,0-.473,0,1.279,1.279,0,0,0-.2,2.48,1.326,1.326,0,0,0-.138,2.484,1.376,1.376,0,0,0-.121,2.486,1.444,1.444,0,0,0-.78,1.271,1.473,1.473,0,0,0,2.946,0,1.432,1.432,0,0,0-.78-1.271m-.691-9.965a1.19,1.19,0,1,0-1.217-1.2,1.2,1.2,0,0,0,1.217,1.2m0-2.538a1.139,1.139,0,1,0-1.163-1.138A1.151,1.151,0,0,0,43.746,71m0-2.537a1.087,1.087,0,1,0-1.111-1.086,1.1,1.1,0,0,0,1.111,1.086m0-2.537a1.037,1.037,0,1,0-1.059-1.038,1.05,1.05,0,0,0,1.059,1.038m0-2.538a.984.984,0,1,0-1.01-.983.988.988,0,0,0,1.01.983m0-2.532a.937.937,0,1,0-.955-.937.945.945,0,0,0,.955.937M47.383,83.5a1.378,1.378,0,0,0-.118-2.486,1.328,1.328,0,0,0-.141-2.484,1.279,1.279,0,0,0-.2-2.48,1.266,1.266,0,1,0-.472,0,1.278,1.278,0,0,0-.2,2.48,1.326,1.326,0,0,0-.143,2.484A1.377,1.377,0,0,0,46,83.5a1.438,1.438,0,0,0-.78,1.271,1.473,1.473,0,0,0,2.946,0,1.437,1.437,0,0,0-.78-1.271m-.692-9.965a1.19,1.19,0,1,0-1.214-1.2,1.2,1.2,0,0,0,1.214,1.2m0-2.538a1.139,1.139,0,1,0-1.168-1.138A1.156,1.156,0,0,0,46.691,71m0-2.537a1.087,1.087,0,1,0-1.109-1.086,1.094,1.094,0,0,0,1.109,1.086m0-2.537a1.037,1.037,0,1,0-1.059-1.038,1.051,1.051,0,0,0,1.059,1.038m0-2.538a.984.984,0,1,0-1-.983.992.992,0,0,0,1,.983m0-2.532a.937.937,0,1,0-.958-.937.945.945,0,0,0,.958.937m0-2.54a.884.884,0,1,0-.906-.885.892.892,0,0,0,.906.885m0-2.538a.833.833,0,1,0,0-1.665.833.833,0,1,0,0,1.665m0-2.533a.783.783,0,1,0-.8-.782.8.8,0,0,0,.8.782M50.33,83.5a1.378,1.378,0,0,0-.119-2.486,1.326,1.326,0,0,0-.143-2.484,1.278,1.278,0,0,0-.2-2.48,1.266,1.266,0,1,0-.474,0,1.279,1.279,0,0,0-.2,2.48,1.328,1.328,0,0,0-.137,2.484,1.378,1.378,0,0,0-.123,2.486,1.437,1.437,0,0,0-.778,1.271,1.472,1.472,0,0,0,2.944,0A1.436,1.436,0,0,0,50.33,83.5m-.7-9.965a1.19,1.19,0,1,0-1.217-1.2,1.206,1.206,0,0,0,1.217,1.2m0-2.538a1.139,1.139,0,1,0-1.163-1.138A1.151,1.151,0,0,0,49.635,71m0-2.537a1.087,1.087,0,1,0-1.108-1.086,1.1,1.1,0,0,0,1.108,1.086m0-2.537a1.037,1.037,0,1,0-1.056-1.038,1.05,1.05,0,0,0,1.056,1.038m0-2.538a.984.984,0,1,0-1-.983.988.988,0,0,0,1,.983m0-2.532a.937.937,0,1,0-.952-.937.948.948,0,0,0,.952.937m0-2.54a.884.884,0,1,0-.9-.885.891.891,0,0,0,.9.885m0-2.538a.833.833,0,1,0-.849-.829.838.838,0,0,0,.849.829m0-2.533a.783.783,0,1,0-.8-.782.791.791,0,0,0,.8.782M53.273,83.5a1.377,1.377,0,0,0-.117-2.486,1.329,1.329,0,0,0-.142-2.484,1.28,1.28,0,0,0-.2-2.48,1.268,1.268,0,1,0-.475,0,1.278,1.278,0,0,0-.2,2.48,1.326,1.326,0,0,0-.137,2.484,1.378,1.378,0,0,0-.124,2.486,1.438,1.438,0,0,0-.78,1.271,1.473,1.473,0,0,0,2.946,0,1.437,1.437,0,0,0-.78-1.271m-.692-9.965a1.19,1.19,0,1,0-1.214-1.2,1.206,1.206,0,0,0,1.214,1.2m0-2.538a1.139,1.139,0,1,0-1.165-1.138A1.155,1.155,0,0,0,52.581,71m0-2.537a1.087,1.087,0,1,0-1.109-1.086,1.1,1.1,0,0,0,1.109,1.086m2.945,5.075a1.19,1.19,0,1,0-1.212-1.2,1.207,1.207,0,0,0,1.212,1.2m0-2.538a1.139,1.139,0,1,0-1.158-1.138A1.156,1.156,0,0,0,55.526,71m0-2.537a1.087,1.087,0,1,0-1.108-1.086,1.1,1.1,0,0,0,1.108,1.086m0-2.537a1.037,1.037,0,1,0-1.06-1.038,1.05,1.05,0,0,0,1.06,1.038m2.947,7.612a1.19,1.19,0,1,0-1.217-1.2,1.205,1.205,0,0,0,1.217,1.2m0-2.538a1.139,1.139,0,1,0-1.163-1.138A1.153,1.153,0,0,0,58.473,71m0-2.537a1.087,1.087,0,1,0-1.109-1.086,1.1,1.1,0,0,0,1.109,1.086m0-2.537a1.037,1.037,0,1,0-1.06-1.038,1.053,1.053,0,0,0,1.06,1.038m0-2.538a.984.984,0,1,0-1.008-.983.993.993,0,0,0,1.008.983m0-2.532a.937.937,0,1,0-.952-.937.943.943,0,0,0,.952.937m0-2.54a.884.884,0,1,0-.9-.885.891.891,0,0,0,.9.885M62.111,83.5a1.376,1.376,0,0,0-.119-2.486,1.328,1.328,0,0,0-.139-2.484,1.279,1.279,0,0,0-.2-2.48,1.27,1.27,0,1,0-.469,0,1.279,1.279,0,0,0-.2,2.48,1.327,1.327,0,0,0-.139,2.484A1.377,1.377,0,0,0,60,82.286a1.392,1.392,0,0,0,.726,1.213,1.439,1.439,0,0,0-.779,1.271,1.434,1.434,0,0,0-.781-1.271,1.38,1.38,0,0,0-.115-2.486,1.329,1.329,0,0,0-.142-2.484,1.279,1.279,0,0,0-.2-2.48,1.271,1.271,0,1,0-.468,0,1.277,1.277,0,0,0-.2,2.48,1.325,1.325,0,0,0-.139,2.484,1.379,1.379,0,0,0-.123,2.486,1.434,1.434,0,0,0-.772,1.266,1.446,1.446,0,0,0-.786-1.266,1.377,1.377,0,0,0-.118-2.486,1.327,1.327,0,0,0-.139-2.484,1.279,1.279,0,0,0-.2-2.48,1.263,1.263,0,1,0-.469,0,1.279,1.279,0,0,0-.2,2.48,1.329,1.329,0,0,0-.139,2.484,1.382,1.382,0,0,0-.117,2.486,1.439,1.439,0,0,0-.783,1.271,1.477,1.477,0,0,0,2.952.005,1.471,1.471,0,0,0,2.941,0,1.47,1.47,0,0,0,2.94-.005,1.43,1.43,0,0,0-.775-1.271m-.691-9.965a1.19,1.19,0,1,0-1.215-1.2,1.2,1.2,0,0,0,1.215,1.2m0-2.538a1.139,1.139,0,1,0-1.162-1.138A1.154,1.154,0,0,0,61.42,71m0-2.537a1.087,1.087,0,1,0-1.109-1.086,1.1,1.1,0,0,0,1.109,1.086m0-2.537a1.037,1.037,0,1,0-1.06-1.038,1.047,1.047,0,0,0,1.06,1.038m0-2.538a.984.984,0,1,0-1.007-.983.994.994,0,0,0,1.007.983m0-2.532a.937.937,0,1,0-.956-.937.944.944,0,0,0,.956.937m0-2.54a.884.884,0,1,0-.906-.885.9.9,0,0,0,.906.885m0-2.538a.833.833,0,1,0-.852-.829.843.843,0,0,0,.852.829m0-2.533a.783.783,0,1,0-.8-.782.788.788,0,0,0,.8.782m0-2.53a.735.735,0,1,0-.751-.74.745.745,0,0,0,.751.74M65.062,83.5a1.379,1.379,0,0,0-.121-2.486,1.327,1.327,0,0,0-.143-2.484,1.279,1.279,0,0,0-.2-2.48,1.264,1.264,0,1,0-.467,0,1.28,1.28,0,0,0-.2,2.48,1.329,1.329,0,0,0-.141,2.484,1.375,1.375,0,0,0-.116,2.486,1.445,1.445,0,0,0-.787,1.271A1.478,1.478,0,1,0,65.062,83.5m-.692-9.965a1.19,1.19,0,1,0-1.215-1.2,1.2,1.2,0,0,0,1.215,1.2m0-2.538a1.139,1.139,0,1,0,0-2.277,1.139,1.139,0,1,0,0,2.277m0-2.537a1.087,1.087,0,1,0-1.112-1.086,1.092,1.092,0,0,0,1.112,1.086m0-2.537a1.037,1.037,0,1,0-1.065-1.038,1.046,1.046,0,0,0,1.065,1.038m0-2.538a.984.984,0,1,0-1.011-.983.994.994,0,0,0,1.011.983m0-2.532a.937.937,0,1,0-.962-.937.945.945,0,0,0,.962.937m0-2.54a.884.884,0,1,0-.9-.885.891.891,0,0,0,.9.885m0-2.538a.833.833,0,1,0-.856-.829.837.837,0,0,0,.856.829m0-2.533a.783.783,0,1,0-.8-.782.79.79,0,0,0,.8.782m0-2.53a.735.735,0,1,0-.754-.74.743.743,0,0,0,.754.74M38.545,83.5a1.377,1.377,0,0,0-.119-2.486,1.329,1.329,0,0,0-.138-2.484,1.28,1.28,0,0,0-.2-2.48,1.268,1.268,0,1,0-.474,0,1.281,1.281,0,0,0-.2,2.48,1.327,1.327,0,0,0-.142,2.484,1.38,1.38,0,0,0-.119,2.486,1.439,1.439,0,0,0-.779,1.271,1.473,1.473,0,0,0,2.946,0,1.441,1.441,0,0,0-.781-1.271" transform="translate(-23.761 -16.915)" style="fill: #231f20;fill-rule: evenodd"/>
  <path d="M34.437,94.026a1.9,1.9,0,0,0-.6-.583,10.125,10.125,0,0,0-1.323-.646,7.491,7.491,0,0,1-1.474-.752.714.714,0,0,1-.268-.545.83.83,0,0,1,.4-.673,1.732,1.732,0,0,1,1.038-.294,1.774,1.774,0,0,1,1.035.294,1.618,1.618,0,0,1,.659.836.073.073,0,0,0,.079.061c.045,0,.08-.026.08-.065v0l.1-1.052a3.647,3.647,0,0,0-.737-.327,4.031,4.031,0,0,0-1.017-.11,2.84,2.84,0,0,0-1.7.462,1.371,1.371,0,0,0-.636,1.131,1.167,1.167,0,0,0,.181.649,2.552,2.552,0,0,0,.728.681,9.762,9.762,0,0,0,1.256.613,4.756,4.756,0,0,1,1.3.744.938.938,0,0,1,.313.677.954.954,0,0,1-.208.557,1.27,1.27,0,0,1-.573.438,2.138,2.138,0,0,1-.811.155,2.057,2.057,0,0,1-1.293-.454,1.523,1.523,0,0,1-.669-.929c0-.027,0-.054,0-.074a.123.123,0,0,0-.129-.109.124.124,0,0,0-.132.109c-.01.042-.113,1.252-.113,1.252a.208.208,0,0,0,.093.165,1.855,1.855,0,0,0,.513.2,5.364,5.364,0,0,0,1.5.2,3.857,3.857,0,0,0,1.439-.224,2.017,2.017,0,0,0,.86-.683,1.628,1.628,0,0,0,.322-.965,1.394,1.394,0,0,0-.2-.744" transform="translate(-23.761 -16.915)" style="fill: #231f20"/>
  <path d="M51.029,92.934c.759-.249,1.278-.723,1.278-1.267,0-.8-1.115-1.448-2.49-1.448l-.014,0c-.453,0-1.026,0-1.253.009-.566.02-.941.045-1.4.082l-.392.018h0a.131.131,0,0,0-.144.1.119.119,0,0,0,.118.122l.677.126c.2.042.191.161.177.322V95.93a.321.321,0,0,1-.318.317l-.536.128a.119.119,0,0,0-.118.122.133.133,0,0,0,.144.1h3.4c1.56,0,2.821-.841,2.821-1.88,0-.83-.818-1.535-1.95-1.78m-1.454-2.418a2.354,2.354,0,0,1,1.056.211,1.01,1.01,0,0,1,.437,1.594c-.017.029-.414.663-1.767.663a5.074,5.074,0,0,1-.722-.054v-2.3a4.57,4.57,0,0,1,1-.116m2.056,5.124a2.15,2.15,0,0,1-1.675.617.823.823,0,0,1-.087,0c-.286,0-1.223-.052-1.29-.681V93.371a7.9,7.9,0,0,1,1.013-.068,3.807,3.807,0,0,1,1.621.288,1.829,1.829,0,0,1,.575.546,1.214,1.214,0,0,1-.157,1.5" transform="translate(-23.761 -16.915)" style="fill: #231f20"/>
  <path d="M63.177,96.352h0l-.535-.124h0a.332.332,0,0,1-.324-.321v-5a.331.331,0,0,1,.324-.322l.535-.127a.115.115,0,0,0,.115-.12.131.131,0,0,0-.148-.1h-2.65a.14.14,0,0,0-.151.1.124.124,0,0,0,.121.12l.533.127H61a.332.332,0,0,1,.321.322v2.317h-4.1V90.87a.336.336,0,0,1,.32-.288l.535-.127a.121.121,0,0,0,.121-.12.137.137,0,0,0-.148-.1H55.4a.126.126,0,0,0-.145.1.115.115,0,0,0,.116.12l.538.127a.343.343,0,0,1,.314.264v5.117a.338.338,0,0,1-.314.264l-.538.125v0a.114.114,0,0,0-.116.119.128.128,0,0,0,.145.1h2.65a.14.14,0,0,0,.148-.1.12.12,0,0,0-.121-.119l-.535-.129h0a.332.332,0,0,1-.32-.286V93.59h4.1v2.316a.333.333,0,0,1-.321.321H61l-.533.124v0a.121.121,0,0,0-.121.119.139.139,0,0,0,.151.1h1.824v0l.823,0h0a.131.131,0,0,0,.148-.1.121.121,0,0,0-.115-.124" transform="translate(-23.761 -16.915)" style="fill: #231f20"/>
  <path d="M72.185,96.358h0l-.381-.1h0a.533.533,0,0,1-.412-.3l0,0-2.621-5.718H68.5l-2.623,5.718v0a.544.544,0,0,1-.414.3l-.387.1a.116.116,0,0,0-.117.121.13.13,0,0,0,.148.1H67.06a.134.134,0,0,0,.149-.1.113.113,0,0,0-.114-.121l-.481-.119a.288.288,0,0,1-.2-.12.2.2,0,0,1,0-.216V95.9l.85-1.856h2.366l.816,1.774c.116.226-.057.389-.251.415l-.533.129a.113.113,0,0,0-.115.121.13.13,0,0,0,.148.1h2.46a.127.127,0,0,0,.143-.1.114.114,0,0,0-.116-.121m-4.747-2.694,1.012-2.209,1.013,2.209Z" transform="translate(-23.761 -16.915)" style="fill: #231f20"/>
  <path d="M44.568,93.327a3,3,0,0,0-.21-1.112,2.466,2.466,0,0,0-.475-.763,3.415,3.415,0,0,0-.9-.764,4.282,4.282,0,0,0-1-.383,4.641,4.641,0,0,0-1.132-.138c-.052,0-.1,0-.154,0s-.105,0-.155,0a4.627,4.627,0,0,0-1.131.138,4.249,4.249,0,0,0-1,.383,3.421,3.421,0,0,0-.905.764,2.453,2.453,0,0,0-.471.763,3.059,3.059,0,0,0-.212,1.112c0,.025,0,.052,0,.08s0,.05,0,.074a3.033,3.033,0,0,0,.212,1.11,2.481,2.481,0,0,0,.471.767,3.277,3.277,0,0,0,.905.761,4.006,4.006,0,0,0,1,.385,4.531,4.531,0,0,0,1.131.138c.05,0,.1,0,.155,0s.1,0,.154,0a4.545,4.545,0,0,0,1.132-.138,4.036,4.036,0,0,0,1-.385,3.271,3.271,0,0,0,.9-.761,2.5,2.5,0,0,0,.475-.767,2.97,2.97,0,0,0,.21-1.11v-.154Zm-1,.093a3.762,3.762,0,0,1-.219,1.277,2.2,2.2,0,0,1-.553.858,2.655,2.655,0,0,1-.931.586,3.213,3.213,0,0,1-1.162.207h-.011a3.194,3.194,0,0,1-1.162-.207,2.615,2.615,0,0,1-.93-.586,2.213,2.213,0,0,1-.557-.858,3.869,3.869,0,0,1-.224-1.277c0-.009,0-.009,0-.013l0-.014a3.857,3.857,0,0,1,.224-1.281,2.213,2.213,0,0,1,.557-.858,2.649,2.649,0,0,1,.93-.589,3.274,3.274,0,0,1,1.158-.206H40.7a3.3,3.3,0,0,1,1.162.206,2.69,2.69,0,0,1,.931.589,2.2,2.2,0,0,1,.553.858,3.752,3.752,0,0,1,.219,1.281v.027Z" transform="translate(-23.761 -16.915)" style="fill: #231f20"/>
</svg>
