<svg id="Layer_1" data-name="Layer 1" xmlns="http://www.w3.org/2000/svg" viewBox="0 0 320.035 52.04">
  <title>TTT</title>
  <g>
    <g>
      <path d="M42.55,112.333H61.242v5.5H54.919v32.986H48.872V117.831H42.55Z" transform="translate(-42.55 -106.487)" style="fill: #323740"/>
      <path d="M63.881,112.333h6.047v38.484H63.881Z" transform="translate(-42.55 -106.487)" style="fill: #323740"/>
      <path d="M79.714,122.943v27.874H74.271V112.333h7.587l6.212,23.035V112.333h5.388v38.484H87.246Z" transform="translate(-42.55 -106.487)" style="fill: #323740"/>
      <path d="M103.464,138.062l-7.642-25.729h6.323l4.618,17.538,4.617-17.538h5.773l-7.642,25.729v12.755h-6.047Z" transform="translate(-42.55 -106.487)" style="fill: #323740"/>
      <path d="M126.335,112.333h18.692v5.5h-6.322v32.986h-6.048V117.831h-6.322Z" transform="translate(-42.55 -106.487)" style="fill: #323740"/>
      <path d="M153.438,112.333v29.688c0,2.749,1.21,3.738,3.134,3.738s3.134-.989,3.134-3.738V112.333h5.718v29.3c0,6.157-3.079,9.676-9.017,9.676s-9.016-3.519-9.016-9.676v-29.3Z" transform="translate(-42.55 -106.487)" style="fill: #323740"/>
      <path d="M182.357,139.656l4.123-27.323h8.412v38.484h-5.718v-27.6L185,150.817h-5.718L174.77,123.6v27.214h-5.278V112.333H177.9Z" transform="translate(-42.55 -106.487)" style="fill: #323740"/>
      <path d="M212.1,139.656l4.123-27.323h8.411v38.484h-5.717v-27.6l-4.178,27.6h-5.718L204.513,123.6v27.214h-5.278V112.333h8.411Z" transform="translate(-42.55 -106.487)" style="fill: #323740"/>
      <path d="M234.7,138.062l-7.642-25.729h6.323l4.618,17.538,4.618-17.538h5.773l-7.642,25.729v12.755H234.7Z" transform="translate(-42.55 -106.487)" style="fill: #323740"/>
      <path d="M300.174,112.333h18.692v5.5h-6.323v32.986H306.5V117.831h-6.322Z" transform="translate(-42.55 -106.487)" style="fill: #323740"/>
      <path d="M327.552,128.551h8.3v5.5h-8.3v11.27H338v5.5H321.505V112.333H338v5.5H327.552Z" transform="translate(-42.55 -106.487)" style="fill: #323740"/>
      <path d="M361.309,150.817h-6.1l-1.044-6.982H346.74l-1.045,6.982h-5.552l6.157-38.484h8.851Zm-13.8-12.205h5.828l-2.914-19.462Z" transform="translate(-42.55 -106.487)" style="fill: #323740"/>
    </g>
    <g>
      <path d="M275.221,138.89c-12.158,0-17.588-5.151-17.814-5.37a1,1,0,0,1,1.4-1.433c.047.045,5.138,4.8,16.418,4.8,11.354,0,16.369-4.755,16.418-4.8a1,1,0,0,1,1.4,1.433C292.809,133.739,287.379,138.89,275.221,138.89Z" transform="translate(-42.55 -106.487)" style="fill: #323740"/>
      <path d="M275.263,150.208H275.2a2.577,2.577,0,0,1-2.01-.952c-3.337-4.106-6.1-5.423-9.594-7.091a54.642,54.642,0,0,1-7.116-3.9,1,1,0,1,1,1.1-1.669,52.7,52.7,0,0,0,6.876,3.766c3.575,1.707,6.663,3.181,10.286,7.638a.654.654,0,0,0,.489.211.6.6,0,0,0,.514-.211c3.623-4.458,6.71-5.932,10.285-7.638a52.882,52.882,0,0,0,6.874-3.766,1,1,0,1,1,1.1,1.669,54.672,54.672,0,0,1-7.115,3.9c-3.494,1.669-6.255,2.986-9.6,7.094A2.594,2.594,0,0,1,275.263,150.208Z" transform="translate(-42.55 -106.487)" style="fill: #323740"/>
      <path d="M275.221,158.527a1,1,0,0,1-1-1v-8.319a1,1,0,1,1,2,0v8.319A1,1,0,0,1,275.221,158.527Z" transform="translate(-42.55 -106.487)" style="fill: #323740"/>
      <g>
        <path d="M261.339,158.527a1,1,0,0,1-.859-.485,33.413,33.413,0,0,1-4.9-17.549,25.519,25.519,0,0,1,2.92-11.53,28.888,28.888,0,0,0,1.5-3.479,1,1,0,0,1,1.886.667,31.189,31.189,0,0,1-1.609,3.721,23.531,23.531,0,0,0-2.7,10.63,31.422,31.422,0,0,0,4.61,16.51,1,1,0,0,1-.856,1.515Z" transform="translate(-42.55 -106.487)" style="fill: #323740"/>
        <path d="M261.751,124.13a1.01,1.01,0,0,1-.231-.026,1,1,0,0,1-.743-1.2c1.832-7.738-1.224-12.679-1.255-12.728a1,1,0,0,1,1.684-1.08c.146.227,3.556,5.659,1.517,14.269A1,1,0,0,1,261.751,124.13Z" transform="translate(-42.55 -106.487)" style="fill: #323740"/>
        <path d="M267.374,128.148a.97.97,0,0,1-.131-.008c-8.424-1.095-13.453-3.686-13.453-6.933,0-2.133,2.137-3.981,6.18-5.345a1,1,0,0,1,.639,1.9c-3.553,1.2-4.819,2.567-4.819,3.449,0,1.662,4.1,3.961,11.711,4.949a1,1,0,0,1-.127,1.992Z" transform="translate(-42.55 -106.487)" style="fill: #ec2227"/>
        <path d="M267.745,131.175a1,1,0,0,1-.621-1.784l2.429-1.922-1.813-2.616a1,1,0,1,1,1.644-1.139l2.347,3.388a1,1,0,0,1-.2,1.354l-3.165,2.5A1,1,0,0,1,267.745,131.175Z" transform="translate(-42.55 -106.487)" style="fill: #ec2227"/>
      </g>
      <g>
        <path d="M289.1,158.527a1,1,0,0,1-.856-1.515,31.44,31.44,0,0,0,4.609-16.511,23.514,23.514,0,0,0-2.7-10.629,30.92,30.92,0,0,1-1.61-3.721,1,1,0,0,1,1.885-.668,29.023,29.023,0,0,0,1.506,3.48,25.485,25.485,0,0,1,2.921,11.53,33.413,33.413,0,0,1-4.895,17.549A1,1,0,0,1,289.1,158.527Z" transform="translate(-42.55 -106.487)" style="fill: #323740"/>
        <path d="M288.69,124.13a1,1,0,0,1-.972-.769c-2.038-8.61,1.373-14.042,1.519-14.269a1,1,0,0,1,1.683,1.08c-.04.064-3.085,5-1.255,12.728a1,1,0,0,1-.743,1.2A1.025,1.025,0,0,1,288.69,124.13Z" transform="translate(-42.55 -106.487)" style="fill: #323740"/>
        <path d="M283.067,128.148a1,1,0,0,1-.128-1.992c7.609-.988,11.714-3.287,11.714-4.949,0-.882-1.266-2.251-4.82-3.449a1,1,0,0,1,.639-1.9c4.044,1.364,6.181,3.212,6.181,5.345,0,3.247-5.03,5.838-13.456,6.933A.955.955,0,0,1,283.067,128.148Z" transform="translate(-42.55 -106.487)" style="fill: #ec2227"/>
        <path d="M282.7,131.175a1,1,0,0,1-.62-.216l-3.164-2.5a1,1,0,0,1-.2-1.354l2.348-3.388a1,1,0,1,1,1.644,1.139l-1.813,2.616,2.428,1.922a1,1,0,0,1-.621,1.784Z" transform="translate(-42.55 -106.487)" style="fill: #ec2227"/>
      </g>
    </g>
    <path d="M362.585,109.112a2.7,2.7,0,1,1-2.689-2.625A2.638,2.638,0,0,1,362.585,109.112Zm-4.721,0a2.033,2.033,0,0,0,2.048,2.1,2.01,2.01,0,0,0,2-2.081,2.026,2.026,0,1,0-4.049-.016Zm1.616,1.377h-.608v-2.625a5.314,5.314,0,0,1,1.008-.08,1.639,1.639,0,0,1,.913.192.728.728,0,0,1,.256.576.673.673,0,0,1-.544.608v.032a.776.776,0,0,1,.48.641,2,2,0,0,0,.192.656h-.656a2.24,2.24,0,0,1-.209-.64c-.048-.288-.208-.416-.544-.416h-.288ZM359.5,109h.288c.336,0,.608-.112.608-.384,0-.24-.175-.4-.56-.4a1.456,1.456,0,0,0-.336.032Z" transform="translate(-42.55 -106.487)" style="fill: #231f20"/>
  </g>
</svg>
