<svg xmlns="http://www.w3.org/2000/svg" viewBox="0 0 355.16 222.01">
  <title>Logotype+mark_black</title>
  <g>
    <path d="M356.39,429.21V456.3H350v9h6.39v69.46c-10.88,13.44-10.95,30.48-10.94,31.56v84.9H459.79a40.71,40.71,0,0,0,40.66-40.66V429.21Zm9,9H400.9V456.3H365.39Zm8.38,27.09a5.86,5.86,0,1,0,10.15,0h17v43.23l17.54-3-1.51-8.87-7,1.2V438.21h60.55V456.3H422v9h11a5.85,5.85,0,1,0,10.15,0h27.32v71A24.47,24.47,0,0,1,446,560.79h-4.83c-.75-6.66-3.45-19.31-13.08-29-8.41-8.49-20.06-12.8-34.64-12.8-11.09,0-20.49,2.56-28.06,7.61V465.3Zm105.68-27.09h12V610.56a31.69,31.69,0,0,1-31.66,31.66H354.45v-76c0-.17,0-17.13,11.12-28.28,6.63-6.66,16-10,27.88-10,12.05,0,21.54,3.39,28.18,10.07,10.79,10.85,10.82,27.08,10.82,27.24l-.05,4.54H446a33.48,33.48,0,0,0,33.45-33.45Z" transform="translate(-345.45 -429.21)"/>
    <path d="M393.43,540c-26.06,0-26.74,25.18-26.74,25.43l-.07,4.57h53.63l-.07-4.57C420.18,565.18,419.5,540,393.43,540Zm-17,21c1.39-5,5.42-12,17-12s15.62,7.06,17,12Z" transform="translate(-345.45 -429.21)"/>
    <g>
      <path d="M568.31,439.09v7.2h-11.1v34.8h-8.1v-34.8H538v-7.2Z" transform="translate(-345.45 -429.21)"/>
      <path d="M582.11,481.09h-7.8v-42.6h7.8v15.6a12.88,12.88,0,0,1,7.92-2.7,13.11,13.11,0,0,1,10.08,4.68c1.92,2.28,3,5.22,3,10.2v14.82h-7.8V465.67c0-2.88-.66-4.38-1.74-5.46a6.13,6.13,0,0,0-4.38-1.62,9.29,9.29,0,0,0-7.08,3.6Z" transform="translate(-345.45 -429.21)"/>
      <path d="M636.29,476.47a15.79,15.79,0,0,1-11.94,5.22c-8.7,0-15.24-6-15.24-15.12,0-8.1,5.52-15.18,14.16-15.18,8,0,13.74,6.78,13.74,14.88a12.8,12.8,0,0,1-.18,2.22H616.67a7.64,7.64,0,0,0,7.86,6.9,10.3,10.3,0,0,0,7.32-3.36ZM629,462.79a5.8,5.8,0,0,0-5.76-5.1,6.31,6.31,0,0,0-6.24,5.1Z" transform="translate(-345.45 -429.21)"/>
      <path d="M555.59,494.09c4.74,0,7.38,1.14,9.42,2.94a11.2,11.2,0,0,1,3.9,8.46,11,11,0,0,1-2.7,7,12,12,0,0,1,6.3,10.74,12.69,12.69,0,0,1-3.84,9.06c-2.34,2.34-5.58,3.78-11,3.78H541.31v-42Zm-6.18,16.2h5.7c2.52,0,3.66-.6,4.5-1.5a4.35,4.35,0,0,0,0-6c-.84-.9-2-1.5-4.5-1.5h-5.7Zm8.1,18.6c2.82,0,4.38-.72,5.4-1.86a5.67,5.67,0,0,0,0-7.68c-1-1.14-2.58-1.86-5.4-1.86h-8.1v11.4Z" transform="translate(-345.45 -429.21)"/>
      <path d="M604.19,531.47a15.79,15.79,0,0,1-11.94,5.22c-8.7,0-15.24-6-15.24-15.12,0-8.1,5.52-15.18,14.16-15.18,8,0,13.74,6.78,13.74,14.88a12.8,12.8,0,0,1-.18,2.22H584.57a7.64,7.64,0,0,0,7.86,6.9,10.3,10.3,0,0,0,7.32-3.36Zm-7.26-13.68a5.8,5.8,0,0,0-5.76-5.1,6.31,6.31,0,0,0-6.24,5.1Z" transform="translate(-345.45 -429.21)"/>
      <path d="M640,536.09h-7.5v-2.34a12.17,12.17,0,0,1-8.1,2.94,14.63,14.63,0,0,1-11-4.92,15.62,15.62,0,0,1-3.72-10.2c0-8.58,6.36-15.18,14.28-15.18a13.33,13.33,0,0,1,8.52,2.94V507H640Zm-7.8-18.9a9,9,0,0,0-7.2-3.6c-4.56,0-7.5,3.78-7.5,8a7.6,7.6,0,0,0,7.68,7.92,8.52,8.52,0,0,0,7-3.6Z" transform="translate(-345.45 -429.21)"/>
      <path d="M666.71,513.89a10.85,10.85,0,0,0-2.82-.3,8.63,8.63,0,0,0-7.08,4.2v18.3H649V507h7.5v2.94a10.89,10.89,0,0,1,8.46-3.54,15.89,15.89,0,0,1,2.64.24Z" transform="translate(-345.45 -429.21)"/>
      <path d="M693.11,536.09v-2.34a12.17,12.17,0,0,1-8.1,2.94,14.63,14.63,0,0,1-11-4.92,15.62,15.62,0,0,1-3.72-10.2c0-8.58,6.36-15.18,14.28-15.18a12.9,12.9,0,0,1,8.22,2.7v-15.6h7.8v42.6Zm-.3-18.9a9,9,0,0,0-7.2-3.6c-4.56,0-7.5,3.78-7.5,8a7.6,7.6,0,0,0,7.68,7.92,8.52,8.52,0,0,0,7-3.6Z" transform="translate(-345.45 -429.21)"/>
      <path d="M541.31,549.09H547l23.4,27.36V549.09h8.1v42h-5.7l-23.4-27.36v27.36h-8.1Z" transform="translate(-345.45 -429.21)"/>
      <path d="M600.89,561.39a15.15,15.15,0,1,1-15.48,15.18A15.15,15.15,0,0,1,600.89,561.39Zm0,23.1a8,8,0,1,0-7.68-7.92A7.6,7.6,0,0,0,600.89,584.49Z" transform="translate(-345.45 -429.21)"/>
      <path d="M644,591.09v-2.34a12.17,12.17,0,0,1-8.1,2.94,14.63,14.63,0,0,1-11-4.92,15.62,15.62,0,0,1-3.72-10.2c0-8.58,6.36-15.18,14.28-15.18a12.9,12.9,0,0,1,8.22,2.7v-15.6h7.8v42.6Zm-.3-18.9a9,9,0,0,0-7.2-3.6c-4.56,0-7.5,3.78-7.5,8a7.6,7.6,0,0,0,7.68,7.92,8.52,8.52,0,0,0,7-3.6Z" transform="translate(-345.45 -429.21)"/>
    </g>
  </g>
</svg>
