<svg xmlns="http://www.w3.org/2000/svg" xmlns:xlink="http://www.w3.org/1999/xlink" viewBox="0 0 452.68 105.26"><defs><clipPath id="a" transform="translate(-23.66 -32.11)"><rect x="23.84" y="32.11" width="452.33" height="105.08" style="fill:none"/></clipPath></defs><title>Logo</title><g style="clip-path:url(#a)"><path d="M469.15,137.36H30.85c-5.68,0-7.19-4.7-7.19-7.19V68.47c0-5.69,4.71-7.19,7.19-7.19h438.3c5.68,0,7.19,4.7,7.19,7.19v61.7C476.34,135.86,471.63,137.36,469.15,137.36ZM30.86,63.28c-.54,0-5.2.18-5.2,5.19v61.7c0,.53.18,5.19,5.19,5.19h438.3c.53,0,5.19-.18,5.19-5.19V68.47c0-.53-.18-5.19-5.19-5.19H30.86Z" transform="translate(-23.66 -32.11)" style="fill:#7c9f5a"/><path d="M453.33,53l-.85,1.87a5.17,5.17,0,0,0,2.79.81,4.79,4.79,0,0,0,4.56-3.32l5.11-13.08h1.62V37.4h-5.74v1.92h1.67L459.62,47a9.27,9.27,0,0,0-.31,1.13h-.07A6,6,0,0,0,459,47l-2.89-7.7h1.71V37.4h-5.91v1.92h1.64l4.53,11.26-.54,1.28a2.67,2.67,0,0,1-2.38,1.79,3.12,3.12,0,0,1-1.84-.61M425,43.93c0-3.3,1.82-4.66,3.74-4.66,2.15,0,3.66,1.82,3.66,4.63s-1.69,4.61-3.71,4.61c-2.49,0-3.69-2.28-3.69-4.58m-2.4,6.42h2.35v-1a6.7,6.7,0,0,0-.08-1h.05a4.52,4.52,0,0,0,4.1,2.36c3.43,0,5.91-2.66,5.91-6.78s-2.2-6.78-5.71-6.78A4.67,4.67,0,0,0,425,39.35H425a7,7,0,0,0,.08-1.08v-6h-4.66V34.2h2.18Zm-46.4-4.73c0,4.32,3.3,4.83,4.94,4.83a7,7,0,0,0,.89-.05V48.33s-.23,0-.58,0c-1,0-2.77-.33-2.77-3V39.32h3.1V37.4h-3.1V33.85H376.2V37.4H374v1.92h2.18Zm-25.61,4.73h6.55V48.43h-2v-11h-4.63v1.92h2.15v9.11h-2Zm2-15.53h2.61V32.29h-2.61ZM325.2,50.35h6.89V48.43h-2.38V39.32h3.12V37.4h-3.12v-.69c0-2.33,1.61-2.56,2.43-2.56a4.31,4.31,0,0,1,.92.08v-2a9.23,9.23,0,0,0-1.18-.07c-1.53,0-4.66.51-4.66,4.65v.64h-2.14v1.92h2.14v9.11h-2Zm-27.48-7.83a3.81,3.81,0,0,1,3.79-3.45c1.64,0,3,1.17,3.1,3.45Zm-2.63,1.36a6.59,6.59,0,0,0,6.85,6.78A8,8,0,0,0,307,48.87l-1-1.82a6.29,6.29,0,0,1-3.86,1.46,4.36,4.36,0,0,1-4.48-4.4h9.47s.07-.62.07-1c0-3.35-1.91-6.06-5.6-6.06s-6.47,2.66-6.47,6.78M261.9,50.35h6.55V48.43H266.4V44.34c0-2.59,1.72-5,4.33-5,2.07,0,2.43,1.44,2.43,3.25v7.73h4.53V48.43h-2.05V42.06c0-3.3-1.33-5-4.3-5a5.46,5.46,0,0,0-5,3.14h-.05a3.5,3.5,0,0,0,.08-.74v-.66c0-1-.52-1.44-1.64-1.44h-2.92v1.92h1.59a.5.5,0,0,1,.56.57v8.54h-2Zm-27.48-7.83a3.8,3.8,0,0,1,3.79-3.45c1.63,0,3,1.17,3.09,3.45Zm-2.64,1.36a6.59,6.59,0,0,0,6.86,6.78,7.92,7.92,0,0,0,5-1.79l-1-1.82a6.3,6.3,0,0,1-3.87,1.46,4.35,4.35,0,0,1-4.47-4.4h9.46s.08-.62.08-1c0-3.35-1.92-6.06-5.6-6.06s-6.48,2.66-6.48,6.78m-28,4.37V42h4.05a2.92,2.92,0,0,1,3.12,3.1A3,3,0,0,1,209.21,48a4.41,4.41,0,0,1-1.61.25Zm0-8.36V34.38h3.41a4.16,4.16,0,0,1,1.87.36,2.64,2.64,0,0,1,1.17,2.38,2.55,2.55,0,0,1-2.66,2.77ZM199,50.35h8.55a8.51,8.51,0,0,0,2.71-.33,5,5,0,0,0,3.33-4.81,4.3,4.3,0,0,0-3-4.38v0a4.21,4.21,0,0,0,2.27-3.89,4.33,4.33,0,0,0-2.48-4.07,7.37,7.37,0,0,0-3.17-.53H199v2h2.26V48.35H199ZM146.49,53l-.84,1.87a5.17,5.17,0,0,0,2.79.81A4.79,4.79,0,0,0,153,52.4l5.12-13.08h1.61V37.4H154v1.92h1.66L152.79,47a7.53,7.53,0,0,0-.31,1.13h-.08a6,6,0,0,0-.23-1.13l-2.89-7.7H151V37.4h-5.91v1.92h1.63l4.53,11.26-.53,1.28a2.67,2.67,0,0,1-2.38,1.79,3.17,3.17,0,0,1-1.85-.61M124,46.67c0,3,1.59,3.76,3.43,3.76.59,0,1.1,0,1.1,0l0-2.05s-.28,0-.69,0c-1.13,0-1.39-.74-1.39-1.84V32.29h-4.63V34.2H124ZM98.93,50.35h6.55V48.43h-2v-11H98.8v1.92H101v9.11h-2Zm2-15.53h2.61V32.29H100.9ZM71.11,46.54c0-2.48,4.07-2.53,5.25-2.53H77v.53c0,2-1.36,4.2-3.56,4.2a2.19,2.19,0,0,1-2.33-2.2m-2.51.2c0,2.66,2.15,3.92,4.3,3.92a4.72,4.72,0,0,0,4.28-2.74h0a3.18,3.18,0,0,0-.1.84v.18c0,.85.46,1.41,1.61,1.41h2.58V48.43H80a.5.5,0,0,1-.57-.56V42.09c0-3.28-1.74-5-5-5a8.32,8.32,0,0,0-4.91,1.53l1,1.77a6.85,6.85,0,0,1,3.71-1.26A2.46,2.46,0,0,1,77,41.91v.48h-.82c-2.15,0-7.55.28-7.55,4.35M38.26,48.25V34.38H41a8.86,8.86,0,0,1,3.1.41c2.4.87,3.91,3.2,3.91,6.53S46.52,47,44.09,47.79a8.2,8.2,0,0,1-3.07.46Zm-4.81,2.1h7.72A11.83,11.83,0,0,0,45,49.86c3.53-1.12,5.7-4.17,5.7-8.54s-2.25-7.52-5.7-8.6a12.77,12.77,0,0,0-3.84-.43h-7.7v2H35.7V48.35H33.45Z" transform="translate(-23.66 -32.11)" style="fill:#7c9f5a"/><path d="M409.89,115.42h17V109h-4.16V97.09a14.78,14.78,0,0,0-.15-2.57l-.15-1.39h.2l.44,1.29a17.55,17.55,0,0,0,1,2.33l11.15,18.67h8.91v-29h4V80h-17v6.43h4.16v12a16,16,0,0,0,.14,2.58l.15,1.38h-.2L435,101.1a12.45,12.45,0,0,0-1-2.32L422.82,80H409.89v6.43h4V109h-4ZM377.7,97.49c0-5.94,4.26-10.4,9.46-10.4s9.46,4.46,9.46,10.4c0,6.19-4.26,10.84-9.46,10.84s-9.46-4.65-9.46-10.84m-9.16,0a18.62,18.62,0,0,0,37.24,0c0-10.15-7.78-18.08-18.62-18.08s-18.62,7.93-18.62,18.08m-30.31,5.35v4.55c0,5.7,6.44,8.62,13,8.62,6.74,0,13.67-3,13.67-11.09,0-6.69-5.4-9-10.79-10.8C350.91,92.93,348,92,348,89.52c0-1.84,1.79-2.43,3.82-2.43,2.23,0,4.11.74,4.11,2.13v2.23h7.92V86.2c0-4.51-6-6.79-12-6.79-6.29,0-12.73,2.48-12.73,10.35,0,6.49,4.51,8.77,9.31,10.65,3.71,1.44,7.63,2.33,7.63,5,0,1.93-2,2.87-4.76,2.87s-5.1-1-5.1-2.87v-2.62ZM317,115.42h16.79V109h-4V86.44h4V80H317v6.43h4V109h-4ZM293.21,96.05V86.94h3.17a8,8,0,0,1,3.42.59c1.53.75,1.93,2.28,1.93,3.92,0,3.22-1.73,4.6-4.51,4.6Zm-12.83,19.37h16.54V109h-3.71v-6H295c1.84,0,2.48.39,3.07,1.53l4.31,8.27c1,1.93,2.18,2.63,5,2.63h5.85V109H312a2.23,2.23,0,0,1-2.28-1.14L307,102.59a4.64,4.64,0,0,0-1.39-1.63,6.9,6.9,0,0,0-.79-.5v-.1a10.28,10.28,0,0,0,5.74-9.71c0-5.2-2.77-8.61-7.08-10a25.8,25.8,0,0,0-7.08-.69h-16v6.43h4V109h-4ZM256.56,96.05V86.94h3.17a7.93,7.93,0,0,1,3.42.59c1.53.75,1.93,2.28,1.93,3.92,0,3.22-1.73,4.6-4.51,4.6Zm-12.82,19.37h16.54V109h-3.72v-6h1.79c1.83,0,2.47.39,3.07,1.53l4.3,8.27c1,1.93,2.18,2.63,5,2.63h5.84V109h-1.24a2.23,2.23,0,0,1-2.28-1.14l-2.72-5.25a4.64,4.64,0,0,0-1.39-1.63,6.13,6.13,0,0,0-.79-.5v-.1a10.29,10.29,0,0,0,5.75-9.71c0-5.2-2.78-8.61-7.09-10a25.75,25.75,0,0,0-7.08-.69h-16v6.43h4V109h-4Zm-32.2-17.93c0-5.94,4.26-10.4,9.46-10.4s9.46,4.46,9.46,10.4c0,6.19-4.26,10.84-9.46,10.84s-9.46-4.65-9.46-10.84m-9.16,0a18.63,18.63,0,0,0,37.25,0c0-10.15-7.78-18.08-18.63-18.08s-18.62,7.93-18.62,18.08M153.6,115.42h16.05V109h-3.52L167,96.25a21.62,21.62,0,0,0-.05-2.53l-.15-1.43h.2a13.1,13.1,0,0,0,.25,1.34,24.4,24.4,0,0,0,.69,2.42L172.57,109H180l4.65-12.93a11,11,0,0,0,.7-2.42,13,13,0,0,0,.24-1.34h.2l-.15,1.43a21.62,21.62,0,0,0,0,2.53l.85,12.73h-3.52v6.44H199V109H195.1l-1.88-22.54h4V80H183.27l-6,17.53c-.34,1.14-.64,2-.79,2.62a7.93,7.93,0,0,0-.2,1h-.1a9.93,9.93,0,0,0-.19-1,26.28,26.28,0,0,0-.8-2.62L169.3,80H155.38v6.43h4L157.46,109H153.6Zm-25,0h8.12v-8.13h-8.12ZM104.27,96.05V86.94h3.17a7.93,7.93,0,0,1,3.42.59c1.54.75,1.93,2.28,1.93,3.92,0,3.22-1.73,4.6-4.5,4.6ZM91.45,115.42H108V109h-3.72v-6h1.79c1.83,0,2.47.39,3.07,1.53l4.31,8.27c1,1.93,2.18,2.63,5,2.63h5.84V109H123a2.22,2.22,0,0,1-2.27-1.14L118,102.59a4.63,4.63,0,0,0-1.38-1.63,7,7,0,0,0-.8-.5v-.1a10.29,10.29,0,0,0,5.75-9.71c0-5.2-2.77-8.61-7.08-10a25.83,25.83,0,0,0-7.09-.69h-16v6.43h4V109h-4Zm-26.2-6.94V86.94h2.57a11.65,11.65,0,0,1,4.76.74C75.9,89.07,78,92.44,78,97.74c0,4.75-1.79,8.22-4.81,9.75a12,12,0,0,1-5.4,1Zm-12.83,6.94H68.07a24,24,0,0,0,8.47-1.19c6.54-2.38,10.65-8.37,10.65-16.54,0-8.92-4.85-15-11.89-16.94A25.85,25.85,0,0,0,68,80H52.42v6.43h4V109h-4Z" transform="translate(-23.66 -32.11)" style="fill:#231f20"/></g></svg>