<svg xmlns="http://www.w3.org/2000/svg" viewBox="0 0 402.633 265.769">
  <title>Asset 1</title>
  <g id="Layer_2" data-name="Layer 2">
    <g id="Layer_1-2" data-name="Layer 1">
      <g>
        <g>
          <path d="M.277,168.107H66.046a.253.253,0,0,1,.242.277v13.555c0,.185-.081.276-.242.276H19.053v9.2H66.046c.161.024.242.1.242.243v12.413a.214.214,0,0,1-.242.243H19.053v23.029a.244.244,0,0,1-.276.277H.277A.245.245,0,0,1,0,227.341V168.384C.023,168.2.115,168.107.277,168.107Z" style="fill: #060606"/>
          <path d="M88.107,168.107h47.408a18.926,18.926,0,0,1,14.765,6.778,15.122,15.122,0,0,1,3.6,9.613V211.5q0,8.334-8.783,13.589a19.5,19.5,0,0,1-9.578,2.525H88.107q-9.993,0-16.217-8.645a15.285,15.285,0,0,1-2.144-7.192v-27.56q0-8.333,8.783-13.589A19.641,19.641,0,0,1,88.107,168.107Zm.692,24.24v10.789q0,7.3,6.639,9.82a10.6,10.6,0,0,0,3.873.554h25.83q6.951,0,9.579-7.712.137-1.59.138-2.282V192.07q0-6.707-6.674-9.439a10.477,10.477,0,0,0-3.838-.553H99.311q-7.47,0-9.994,6.673A12.03,12.03,0,0,0,88.8,192.347Z" style="fill: #060606"/>
          <path d="M175.7,168.107h58.991c.185.024.277.116.277.277v13.555a.244.244,0,0,1-.277.276H181.954a4.771,4.771,0,0,0-4.772,3.078,13.855,13.855,0,0,0-.276,1.59q0,3.287,4.115,4.53H216.43q10.028,0,16.252,8.645a15.421,15.421,0,0,1,2.143,7.469v3.32q0,11.514-13.174,16.114a26.168,26.168,0,0,1-5.464.657H157.611a.245.245,0,0,1-.277-.277V213.786c.023-.184.115-.276.277-.276h52.7a4.956,4.956,0,0,0,5.083-4.668q0-3.251-3.873-4.393a8.27,8.27,0,0,0-1.59-.137H175.7q-9.995,0-16.218-8.645a15.406,15.406,0,0,1-2.144-7.469v-3.977q0-8.333,8.783-13.589A19.645,19.645,0,0,1,175.7,168.107Z" style="fill: #060606"/>
          <path d="M256.783,168.107h58.992c.184.024.277.116.277.277v13.555a.244.244,0,0,1-.277.276H263.042a4.771,4.771,0,0,0-4.772,3.078,13.976,13.976,0,0,0-.277,1.59q0,3.287,4.115,4.53h35.409q10.027,0,16.252,8.645a15.423,15.423,0,0,1,2.144,7.469v3.32q0,11.514-13.174,16.114a26.168,26.168,0,0,1-5.464.657H238.7a.244.244,0,0,1-.276-.277V213.786c.022-.184.115-.276.276-.276h52.7a4.956,4.956,0,0,0,5.083-4.668q0-3.251-3.873-4.393a8.27,8.27,0,0,0-1.59-.137H256.783q-9.993,0-16.218-8.645a15.415,15.415,0,0,1-2.143-7.469v-3.977q0-8.333,8.783-13.589A19.638,19.638,0,0,1,256.783,168.107Z" style="fill: #060606"/>
          <path d="M368.953,168.107q.483.588,33.68,59.234v.277H383.477q-.727-.553-6.259-10.513-.657-.795-18.915-32.227-1,1.142-10.512,17.981-.519.657-14.523,24.759H314.249l-.276-.138q30.084-53.389,33.541-59.373Z" style="fill: #060606"/>
        </g>
        <g>
          <g>
            <path d="M135.1,27.3a10.373,10.373,0,0,0-5.059,3.075,14.145,14.145,0,0,1-7.356,4.382,3.841,3.841,0,0,0-1.814,1.255,1.422,1.422,0,0,0,.077,1.347c.53.7,1.457,1.157,1.834,1.908a8.759,8.759,0,0,1,.4,2.706,5.7,5.7,0,0,0,3.382-1.065c.905-.723,1.814-1.444,2.693-2.2a13.423,13.423,0,0,1,4.813-2.77,8.739,8.739,0,0,0,2.414-1.123C134.611,33.053,135.425,29.611,135.1,27.3Z" style="fill: #060606"/>
            <path d="M122.157,43.94c-1.354-1.834-2.453-3.406-3.666-4.883a1.39,1.39,0,0,0-1.342-.077,4.749,4.749,0,0,0-1.36,1.54c-1.611,2.778-3.531,5.194-6.562,6.587-1.605.738-1.626,1.931-.129,2.835a2.5,2.5,0,0,1,1.488,1.834c.1.652.482,1.53,1.325,1.4a3.071,3.071,0,0,0,1.689-1.07c.988-1.178,1.714-2.6,2.789-3.675a38.445,38.445,0,0,1,3.934-3.083C120.914,44.9,121.5,44.444,122.157,43.94Z" style="fill: #060606"/>
            <path d="M105.636,50.928a19.027,19.027,0,0,0-2.331,2.209,13.866,13.866,0,0,1-5.519,4.7c-.918.4-1.566,1.419-2.609,2.416a9.178,9.178,0,0,1,2.551,1.314,9.7,9.7,0,0,1,1.209,2.574c3.9-2.373,6.651-5.966,10.3-8.41Z" style="fill: #060606"/>
            <path d="M84.672,68.6l2.892,4.331a85.929,85.929,0,0,0,9.661-7.33L94.36,61.366a3.208,3.208,0,0,0-2.4,1.53,11.1,11.1,0,0,1-5.536,4.3A6.381,6.381,0,0,0,84.672,68.6Z" style="fill: #060606"/>
            <path d="M83.03,69.77A12.821,12.821,0,0,0,80.9,70.789c-1.918,1.373-3.552,3.155-5.979,3.762a5.008,5.008,0,0,0-1.527,1.018l1.879,4.118a2.772,2.772,0,0,0,2.507-.911,12.8,12.8,0,0,1,6.011-3.3,5.339,5.339,0,0,0,.92-.274,1.006,1.006,0,0,0,.506-1.578C84.564,72.466,83.9,71.31,83.03,69.77Z" style="fill: #060606"/>
            <path d="M72.76,80.751c-.341-1.521-.566-2.785-.916-4.013-.28-.981-.86-1.19-1.777-.715a12.775,12.775,0,0,0-1.439.971,10.867,10.867,0,0,1-5.867,2.238c-1.274.057-1.425.31-1.178,1.581.231,1.187.557,2.356.88,3.69,2.032-.2,3.212-1.844,4.928-2.276S70.831,81.285,72.76,80.751Z" style="fill: #060606"/>
            <path d="M60.151,84.752c.031-.976.126-1.8.07-2.622a1.629,1.629,0,0,0-2.4-1.558,13.154,13.154,0,0,1-1.772.733,20.173,20.173,0,0,1-3.964.506c-2.083-.024-2.239.074-1.883,2.063a13.61,13.61,0,0,1,.363,2.058C53.8,85.333,56.779,85.378,60.151,84.752Z" style="fill: #060606"/>
            <path d="M39.84,85.51a30.431,30.431,0,0,0,7.6.344c1.108-.037,1.475-.977,1.289-2.58-.13-1.121-.452-1.394-1.628-1.436-1.663-.059-3.328-.095-4.988-.216-1.726-.125-2.366.4-2.4,2.151C39.707,84.281,39.786,84.79,39.84,85.51Z" style="fill: #060606"/>
            <path d="M37.44,85.367l.9-3.488-8.18-1.464-.776,3.6Z" style="fill: #060606"/>
            <path d="M27.637,83.348c.474-.942.9-1.782,1.444-2.871l-7.035-1.683c-.292.836-.578,1.654-.963,2.753Z" style="fill: #060606"/>
            <path d="M15.051,76.963l-1.172,2.006,5.568,2.1,1.1-2.323c-1-.347-1.871-.669-2.758-.958C16.948,77.516,16.093,77.276,15.051,76.963Z" style="fill: #060606"/>
            <path d="M13.206,78.423l.96-1.749c-.738-.415-1.37-.8-2.031-1.133-.681-.338-1.392-.618-2.268-1L8.858,76.329Z" style="fill: #060606"/>
            <path d="M4.135,73.51l3.457,2.584,1.414-2.225a21.967,21.967,0,0,0-4.712-.883Z" style="fill: #060606"/>
          </g>
          <path d="M157.1,104.718c-4.637-.172-9.273-.383-13.911-.5-3.607-.094-7.222-.2-10.824-.056a24.339,24.339,0,0,0-5.671,1.079c-3.03.873-5.994,1.973-9.007,2.911a14.039,14.039,0,0,1-3.385.7,2.755,2.755,0,0,1-3.144-2.895c0-2.437.245-4.877.434-7.313a4.168,4.168,0,0,1,.453-1.464c1.042-2.127,1.958-2.287,3.853-.914,3.933,2.85,2.943,2.726,7.732,1.916q16.863-2.85,33.742-5.606c2.039-.334,3.843-.846,4.975-2.842a4.729,4.729,0,0,1,3.222-1.974,1.8,1.8,0,0,1,2.446,1.5q.847,3.366,1.641,6.744a4.5,4.5,0,0,1-1.516,4.833A15.748,15.748,0,0,1,157.1,104.718Zm-1.05-6.122.057-.524a16.207,16.207,0,0,0-2.348-.622,36.593,36.593,0,0,0-4.236-.267A92.866,92.866,0,0,0,131.688,99.1c-2.834.555-5.613,1.406-8.392,2.209a2.723,2.723,0,0,0-2.065,1.42Z" style="fill: #060606"/>
          <path d="M144.905,55.629c2.608-.339,4.187,1.179,5.945,2.742,3.993,3.552,8.065,7.039,12.325,10.26,3.694,2.792,7.669,5.215,11.562,7.736,2.237,1.448,4.4,2.949,5.807,5.282a4.244,4.244,0,0,1,.764,1.738,2.972,2.972,0,0,1-.463,2.132c-1.2,1.062-1.535,2.5-2.143,3.824-1.269,2.77-1.893,3.089-4.941,2.482-.253-.05-.507-.1-.755-.167-1.452-.4-1.491-.489-1.607-1.962-.1-1.28-.276-2.554-.437-3.829a5.034,5.034,0,0,0-1.827-3.308c-6.859-5.755-13.612-11.668-21.961-15.279a12.384,12.384,0,0,1-6.124-5.1c-1.132-1.946-.623-4.891,1.281-6.015A8.2,8.2,0,0,1,144.905,55.629Z" style="fill: #060606"/>
          <path d="M137.155,53.559a6.048,6.048,0,0,1-.563-3.941c1.336-7.476,2.6-14.964,3.915-22.445a7.266,7.266,0,0,1,3.345-5.378c1.374-.83,2.589-1.921,3.954-2.767,2.024-1.253,3.265-.638,3.752,1.628a14.63,14.63,0,0,1-.4,8.366c-1.1,2.953-2.058,5.965-3.325,8.843-1.443,3.278-1.948,6.512-.593,9.911a4.446,4.446,0,0,1-.063,3.569c-.466,1.047-.977,1.207-1.982.689a5.791,5.791,0,0,1-.646-.424,3.256,3.256,0,0,0-4.1.124A36.416,36.416,0,0,1,137.155,53.559Z" style="fill: #060606"/>
          <path d="M169.363,53.5a11.439,11.439,0,0,1,2.884,1.315,36.471,36.471,0,0,1,4.666,4.6c3.849,4.683,7.564,9.478,11.338,14.224,1.967,2.474,3.949,4.936,5.922,7.405a3.779,3.779,0,0,1,1.019,2.833c-.181,1.625-1.064,2.136-2.5,1.4a6.942,6.942,0,0,1-3.472-3.149c-1.539-3.283-4.074-5.731-6.82-8.028a76.786,76.786,0,0,0-14.3-9.867,17.181,17.181,0,0,1-3.493-2.4c-1.718-1.509-1.8-2.982-.328-4.7a17.218,17.218,0,0,1,2.636-2.535A12.045,12.045,0,0,1,169.363,53.5Z" style="fill: #060606"/>
          <path d="M196.324,89.5c2.853,2.284,3.249,5.365,3.085,8.592a3.706,3.706,0,0,1-2.13,3.054,28.558,28.558,0,0,1-4.04,1.816c-5.414,1.885-10.837,3.744-16.289,5.513a9.775,9.775,0,0,0-4.563,3.094,4.786,4.786,0,0,1-.9,1c-.338.218-.912.437-1.192.291a1.722,1.722,0,0,1-.805-1.145,2.653,2.653,0,0,1,.876-2.434c4.629-4.155,9.462-7.968,15.462-10.029a24.116,24.116,0,0,0,4.156-2.035,6.871,6.871,0,0,0,3.375-4.078A6.238,6.238,0,0,1,196.324,89.5Z" style="fill: #060606"/>
          <path d="M167.078,24.991c.033.909.063,1.665.087,2.422.1,3.148.094,6.3.322,9.443a12.943,12.943,0,0,1-1.449,7.447,26.03,26.03,0,0,0-1.549,4.338,26.08,26.08,0,0,1-.992,3.11,4.752,4.752,0,0,1-4.363,2.714,4.249,4.249,0,0,1-4.2-2.535c-.417-.8-.847-1.592-1.3-2.371A2.318,2.318,0,0,1,154,46.55c1.028-1.063,2.13-2.056,3.225-3.051,1-.91,2.089-1.727,3.044-2.68a9.873,9.873,0,0,0,2.917-9.875c-.169-.688-.352-1.376-.452-2.075a2.526,2.526,0,0,1,1.831-3.173A25.655,25.655,0,0,1,167.078,24.991ZM161.014,44.9l-.4-.224q-1.443,1.236-2.884,2.472c-.577.5-1.014,1.108-.543,1.84.552.856,1.358.5,2.072.191a2.757,2.757,0,0,0,1.684-2.2A15.464,15.464,0,0,0,161.014,44.9Z" style="fill: #060606"/>
          <path d="M175.835,114.831c.837,1.879,1.6,3.575,2.35,5.276,1.459,3.3,2.924,6.594,4.363,9.9.912,2.1.758,2.74-.934,4.178-.737.626-1.5,1.221-2.259,1.818a5.038,5.038,0,0,1-.737.357,23.11,23.11,0,0,1-1.354-2.463q-1.925-4.743-3.734-9.532a14.5,14.5,0,0,0-2.837-4.559,36.153,36.153,0,0,1-2.372-3.312C170.715,114.907,173.306,115.614,175.835,114.831Z" style="fill: #060606"/>
          <path d="M105.951,134.084a32.416,32.416,0,0,1,.237-3.444c.421-2.339,1.018-4.647,1.42-6.989a19.211,19.211,0,0,0-.752-9.894,10.017,10.017,0,0,1-.13-2.675,34.435,34.435,0,0,1,3.852-.5c1.978-.038,2.978.993,2.876,2.99-.246,4.818-.579,9.63-.881,14.445-.068,1.09-.155,2.178-.23,3.268a1.76,1.76,0,0,1-1.364,1.854C109.424,133.47,107.855,133.731,105.951,134.084Z" style="fill: #060606"/>
          <path d="M133.422,48.608a2.238,2.238,0,0,1,.373,2.579,10.837,10.837,0,0,0,.683,8.607,9.592,9.592,0,0,1,.363.893c.649,1.873.3,2.46-1.585,3.181q-3.234,1.235-6.395,2.654c-1.854.833-2.546.791-3.568-.482a2.878,2.878,0,0,1,.024-4.162,7.136,7.136,0,0,1,1.252-1.2c2.611-1.784,4.06-4.4,5.377-7.167a41.126,41.126,0,0,1,2.545-4.281C132.668,48.952,133.083,48.826,133.422,48.608Z" style="fill: #060606"/>
          <g>
            <path d="M227.63,19.016c-2.1,11.818-3.37,24.5-1,36.461C215.74,57.255,213.684,10.129,227.63,19.016Z" style="fill: #060606"/>
            <path d="M224.219,13.418c-3.2.379-9.956,1.789-10.48-.818.515-1.745-2.858-6.15.308-7.442C227.052,6.926,225.165,1.228,224.219,13.418Z" style="fill: #060606"/>
            <path d="M241.29,14.341C234.027,11.682,230,17.6,229.822,8.36c.153-1.208-1.333-3.09,1.207-3.376C243.819,8.571,245.053,1.364,241.29,14.341Z" style="fill: #060606"/>
            <path d="M193.755,13.524c-.407,2.216-.876,2.784-2.516,2.926-2.371.2-4.755.278-7.135.319-1.181.021-1.5-.407-1.466-1.528.039-1.478.08-2.957.086-4.435.005-1.449.106-1.589,1.625-1.739,1.09-.108,2.194-.121,3.271-.3a15.816,15.816,0,0,0,2.794-.736,2.357,2.357,0,0,1,3.4,2.088A24.664,24.664,0,0,1,193.755,13.524Z" style="fill: #060606"/>
            <path d="M208.634,11.319c-.345,2.226-.8,2.808-2.434,2.995-2.363.271-4.745.411-7.123.519-1.18.054-1.506-.366-1.508-1.487,0-1.478,0-2.957-.039-4.435-.035-1.449.062-1.591,1.577-1.784,1.086-.139,2.189-.183,3.261-.388a15.9,15.9,0,0,0,2.772-.814A2.356,2.356,0,0,1,208.6,7.917,24.94,24.94,0,0,1,208.634,11.319Z" style="fill: #060606"/>
            <path d="M163.615,15.442c.221,2.1.459,4.129.638,6.167.074.838-.473,1.248-1.226,1.5-2.186.743-4.357,1.531-6.54,2.288-1.252.434-1.909.12-2.018-1.19a8.98,8.98,0,0,0-1.114-4.044,1.238,1.238,0,0,1,.41-1.862c3.013-1.4,5.967-3.045,9.446-2.983A2.605,2.605,0,0,1,163.615,15.442Z" style="fill: #060606"/>
            <path d="M167.1,13.959c1.025-.346,1.8-.611,2.576-.868,1.827-.606,3.643-1.251,5.487-1.8,1.725-.512,2.605.131,2.7,1.907.092,1.842.132,3.686.2,5.67L168.4,20.758C167.95,18.4,167.537,16.239,167.1,13.959Z" style="fill: #060606"/>
            <path d="M241.167,17.806c-18.613-7.9-10.978,44.536.443,46.2C241.564,49.725,236.063,33.2,241.167,17.806Z" style="fill: #060606"/>
          </g>
          <path d="M187.59,134.412l2.577.441a3.466,3.466,0,0,1,2.908.14c.344.231.464.458,1,1.271.393.6.719,1.047.982,1.395.877,1.158.876,1.177.912,1.314.131.5-.149,1.472-3.013,3.328a5.627,5.627,0,0,1-2.251-2.549c-.241-.587-.307-1.1-.7-1.247-.646-.234-1.092.907-2.044,1.017-1.664.193-2.682-3.019-4.194-2.768-.251.042-.732.494-1.693,1.4-1.159,1.091-1.343,1.444-1.721,1.405-.7-.072-1.409-1.41-1.093-2.387.151-.469.476-.66,1.7-1.444,2.62-1.674,2.585-1.725,2.973-1.828A5.156,5.156,0,0,1,187.59,134.412Z" style="fill: #060606"/>
          <path d="M109.039,139.081c1.683,1.748,3.44.77,5.756,2.013,1.1.592,1.8.9,3.093,1.458a1.917,1.917,0,0,0,.74,0,1.694,1.694,0,0,0-.878-1.608,8.286,8.286,0,0,1-3.22-5.152c-.051-.217-.111-.434-.183-.646-.441-1.313-.864-1.514-2.14-1.2q-2.184.538-4.408.941c-1.305.238-1.645.526-1.645,1.64a3.288,3.288,0,0,0,.1.814c.213-.07.372-.12.436-.135,0,0,.637-.049,2.291,1.817h0Z" style="fill: #060606"/>
          <path d="M300.863,103.288q.627-.051,1.258-.1a140.769,140.769,0,0,1,23.62.278l5.366,4.056c4.848,9.045,6.879,7.1,6.879,7.1,8.419,3.847,7.234-6.435,7.234-6.435-4.005-10.143-16.775-16.46-18.663-17.5-1.788-.987-21.936-4.4-24.09-4.759a66.239,66.239,0,0,1,3.988-11.1,22.281,22.281,0,0,0,1.218-8.686c6.6-4.311,9-7.587,11.544-10.079,3.488-3.423,9.9-7.665,15.8-8.194S351.591,45.2,351.591,45.2s14.106-4.429,15.939-4.184,21.677,9.088,22.076,2.482l-.413-.2a21.815,21.815,0,0,0,3.859-1.242,3.057,3.057,0,0,0,.792-.5c6-5.269,4.839-8.537,3.869-9.854a2.7,2.7,0,0,0-1.243-.888C390.792,28.645,384.7,23,382.685,21.031a3.044,3.044,0,0,1-.836-1.642c-1.439-7.763-8.985-10.609-8.985-10.609a12.778,12.778,0,0,0-4.533-2.247,50.665,50.665,0,0,0-12.737-1.776l-2.9-3.168A4.714,4.714,0,0,0,350.351.307c-11.324-1.767-8.283,4.527-9.888,7.968a3.051,3.051,0,0,1-2.226,1.613l.014.014c-5.808,1.933-16.654.465-16.654.465a23.515,23.515,0,0,0-2.331-.532c-5.923-.369-9.914-.991-14.19-1.339-4.712-.219-8.47-.259-8.507-.259-6.264-.008-16.445.04-16.445.04-7.789-.458-18.162-1.59-26.185-2.552-1.813-.218-2.6.536-3.434,3,0,0-8.62,26-1.007,56.791a3.9,3.9,0,0,0,3.03,3.084c4.289-.137,10.321.43,15.091,4.4a21.6,21.6,0,0,1,3.88,4.484c2.656,3.671,6.584,8.83,12.009,15.083.212,12.9-.658,6.746.444,17.289s3.6,15.8,6.017,25.417c1.98,7.872,5.905,9,5.905,9l24.462-2.723c-1.064-9.979-10.614-10.438-10.614-10.438a41.969,41.969,0,0,0-8.266.356,127.961,127.961,0,0,1-1.029-21.192Q300.553,106.662,300.863,103.288Z" style="fill: #060606"/>
        </g>
        <g>
          <path d="M87.859,259.98H76.079l-2.322,5.452h-4.51l10.6-23.56h4.308l10.636,23.56H90.215Zm-1.448-3.433-4.442-10.3-4.409,10.3Z" style="fill: #060606"/>
          <path d="M113.169,245.575h-7.808v-3.7h19.991v3.7h-7.808v19.857h-4.375Z" style="fill: #060606"/>
          <path d="M161.365,241.872v23.56H156.99v-10.1H144.806v10.1h-4.375v-23.56h4.375V251.6H156.99v-9.727Z" style="fill: #060606"/>
          <path d="M179.473,241.872h4.375V261.73h12.318v3.7H179.473Z" style="fill: #060606"/>
          <path d="M229.084,261.764v3.668H211.415v-23.56h17.2v3.669H215.79v6.126h11.375v3.6H215.79v6.5Z" style="fill: #060606"/>
          <path d="M250.523,245.575h-7.808v-3.7h19.992v3.7H254.9v19.857h-4.376Z" style="fill: #060606"/>
          <path d="M277.785,241.872h4.375v23.56h-4.375Z" style="fill: #060606"/>
          <path d="M298.617,253.652c0-7.033,5.386-12.116,12.621-12.116a11.932,11.932,0,0,1,9.323,3.938l-2.826,2.659a8.274,8.274,0,0,0-6.3-2.76,8.281,8.281,0,1,0,0,16.559,8.2,8.2,0,0,0,6.3-2.793l2.826,2.692a11.954,11.954,0,0,1-9.356,3.938C304,265.769,298.617,260.687,298.617,253.652Z" style="fill: #060606"/>
        </g>
      </g>
    </g>
  </g>
</svg>
