<svg xmlns="http://www.w3.org/2000/svg" xmlns:xlink="http://www.w3.org/1999/xlink" viewBox="0 0 1079.929 433.329">
  <defs>
    <linearGradient id="linear-gradient" x1="190.02" y1="570.199" x2="190.02" y2="404.982" gradientTransform="translate(0 -1.887)" gradientUnits="userSpaceOnUse">
      <stop offset="0" stop-color="#d2edf3"/>
      <stop offset="0.274" stop-color="#a2dbe2"/>
      <stop offset="1" stop-color="#66a9dc"/>
    </linearGradient>
    <linearGradient id="linear-gradient-2" x1="357.16" y1="570.199" x2="357.16" y2="404.982" xlink:href="#linear-gradient"/>
    <linearGradient id="linear-gradient-3" x1="516.099" y1="570.199" x2="516.099" y2="404.982" xlink:href="#linear-gradient"/>
    <linearGradient id="linear-gradient-4" x1="644.566" y1="570.199" x2="644.566" y2="404.982" xlink:href="#linear-gradient"/>
    <linearGradient id="linear-gradient-5" x1="768.554" y1="570.199" x2="768.554" y2="404.982" gradientTransform="translate(-60.385 -193.156)" xlink:href="#linear-gradient"/>
    <linearGradient id="linear-gradient-6" x1="887.676" y1="570.199" x2="887.676" y2="404.982" xlink:href="#linear-gradient"/>
    <linearGradient id="linear-gradient-7" x1="983.519" y1="570.199" x2="983.519" y2="404.982" xlink:href="#linear-gradient"/>
    <linearGradient id="linear-gradient-8" x1="171.291" y1="368.456" x2="224.562" y2="550.698" gradientTransform="matrix(1, 0, 0, 1, 0, 0)" xlink:href="#linear-gradient"/>
    <linearGradient id="linear-gradient-9" x1="324.805" y1="323.583" x2="378.075" y2="505.825" gradientTransform="matrix(1, 0, 0, 1, 0, 0)" xlink:href="#linear-gradient"/>
    <linearGradient id="linear-gradient-10" x1="468.223" y1="281.66" x2="521.494" y2="463.902" gradientTransform="matrix(1, 0, 0, 1, 0, 0)" xlink:href="#linear-gradient"/>
    <linearGradient id="linear-gradient-11" x1="598.619" y1="243.545" x2="651.89" y2="425.787" gradientTransform="matrix(1, 0, 0, 1, 0, 0)" xlink:href="#linear-gradient"/>
    <linearGradient id="linear-gradient-12" x1="722.448" y1="207.349" x2="775.718" y2="389.591" gradientTransform="matrix(1, 0, 0, 1, 0, 0)" xlink:href="#linear-gradient"/>
    <linearGradient id="linear-gradient-13" x1="846.511" y1="171.084" x2="899.782" y2="353.326" gradientTransform="matrix(1, 0, 0, 1, 0, 0)" xlink:href="#linear-gradient"/>
    <linearGradient id="linear-gradient-14" x1="928.631" y1="147.08" x2="981.901" y2="329.322" gradientTransform="matrix(1, 0, 0, 1, 0, 0)" xlink:href="#linear-gradient"/>
    <linearGradient id="linear-gradient-15" x1="217.052" y1="525.698" x2="159.462" y2="330.49" gradientTransform="translate(0 3.774)" gradientUnits="userSpaceOnUse">
      <stop offset="0" stop-color="#4283c4"/>
      <stop offset="1" stop-color="#66a9dc"/>
    </linearGradient>
    <linearGradient id="linear-gradient-16" x1="368.406" y1="481.045" x2="310.816" y2="285.837" xlink:href="#linear-gradient-15"/>
    <linearGradient id="linear-gradient-17" x1="511.963" y1="438.693" x2="454.373" y2="243.485" xlink:href="#linear-gradient-15"/>
    <linearGradient id="linear-gradient-18" x1="644.394" y1="399.624" x2="586.804" y2="204.416" xlink:href="#linear-gradient-15"/>
    <linearGradient id="linear-gradient-19" x1="768.042" y1="363.145" x2="710.451" y2="167.937" gradientTransform="translate(-60.385 -187.496)" xlink:href="#linear-gradient-15"/>
    <linearGradient id="linear-gradient-20" x1="890.322" y1="327.07" x2="832.732" y2="131.862" xlink:href="#linear-gradient-15"/>
    <linearGradient id="linear-gradient-21" x1="974.695" y1="302.178" x2="917.105" y2="106.97" xlink:href="#linear-gradient-15"/>
    <linearGradient id="linear-gradient-22" x1="215.693" y1="598.855" x2="163.809" y2="283.134" gradientUnits="userSpaceOnUse">
      <stop offset="0.355" stop-color="#66a9dc"/>
      <stop offset="0.357" stop-color="#d2edf3"/>
      <stop offset="0.591" stop-color="#a2dbe2"/>
      <stop offset="1" stop-color="#66a9dc"/>
    </linearGradient>
    <linearGradient id="linear-gradient-23" x1="378.064" y1="572.172" x2="326.179" y2="256.451" xlink:href="#linear-gradient-22"/>
    <linearGradient id="linear-gradient-24" x1="531.053" y1="547.031" x2="479.169" y2="231.309" xlink:href="#linear-gradient-22"/>
    <linearGradient id="linear-gradient-25" x1="665.103" y1="525.001" x2="613.218" y2="209.28" xlink:href="#linear-gradient-22"/>
    <linearGradient id="linear-gradient-26" x1="728.741" y1="313.35" x2="676.856" y2="-2.371" xlink:href="#linear-gradient-22"/>
    <linearGradient id="linear-gradient-27" x1="914.783" y1="483.97" x2="862.899" y2="168.248" xlink:href="#linear-gradient-22"/>
    <linearGradient id="linear-gradient-28" x1="1006.285" y1="468.933" x2="954.401" y2="153.211" xlink:href="#linear-gradient-22"/>
  </defs>
  <title>Gagster Logo_FinalX__RGB_Colored</title>
  <g id="Styles">
    <g>
      <g>
        <g>
          <path d="M147.112,357.537c14.7-15.224,33.672-37.867,75.328-44.321,23.765-3.682,42.541,2.222,56.719,20.031l-10.465,41.811a42.672,42.672,0,0,0-9.114-9.425q-11.482-9.309-24.309-7.234a34.283,34.283,0,0,0-8.441.578q-37.815,7.128-64.483,80.691-10.809,30.066-10.805,57.406,0,38.488,17.219,44.357a37.424,37.424,0,0,0,9.791,1.531c10.577-2,21.169-7.554,31.3-13.741l21.032-84.24-34.774,6.556,8.778-36.768L240,408.149l.337-.063,46.591-8.783L245.062,567.561l-39.5,7.447q-19.247,12.741-37.814,16.244-17.558,3.311-32.41-2-20.6-7.591-31.736-29.468T92.46,507.2C92.46,474.564,100.477,405.825,147.112,357.537Z" transform="translate(-60.385 -191.27)" style="fill: none;stroke: #5e8dc9;stroke-linecap: round;stroke-linejoin: round;stroke-width: 64.1496801990144px"/>
          <path d="M305.012,555.116q-27.345-6.662-27.344-49.2,0-23.631,10.125-49.177,11.142-28.432,30.386-48.774T356.667,384q18.9-3.564,30.046,9.864l3.714-14.542,45.578-8.592-29.37,118.976a17.277,17.277,0,0,0-.677,4.517q0,6.757,7.765,5.288a32.838,32.838,0,0,0,9.791-3.87l-8.439,31.3q-17.56,15.121-32.412,17.926-16.884,3.183-28.36-9.847-17.558,16.818-34.774,20.06A36.86,36.86,0,0,1,305.012,555.116Zm56.382-135.884q-8.106,1.527-17.387,13.4t-15.36,29.569q-5.747,16.275-5.741,30.454,0,22.623,11.815,20.393,7.766-1.465,17.219-14.052t15.531-30.608q6.077-16.338,6.077-29.844Q373.548,416.942,361.394,419.232Z" transform="translate(-60.385 -191.27)" style="fill: none;stroke: #5e8dc9;stroke-linecap: round;stroke-linejoin: round;stroke-width: 64.1496801990144px"/>
          <path d="M463.691,521.61q-27.348-6.317-27.347-47.851,0-22.952,10.128-48.5,11.142-28.764,30.386-48.942t38.485-23.8q18.566-3.5,30.05,9.19l3.376-14.139,46.929-8.846L553.5,506.709a147.176,147.176,0,0,1-5.74,18.3c-7.654,16.974-15.3,32.629-29.142,44.691s-27.351,19.287-41.305,21.916c-8.1,1.529-18.909.316-25.436-1.606a20.5,20.5,0,0,1-8.438-6.172q-4.054-4.644-7.43-9.068l8.441-33.326c6.619,8.663,17.363,14.375,27.627,13.887,14.031-.668,19.657-9.6,25.48-19a69.135,69.135,0,0,0,9.015-20.78l2.7-10.3q-15.873,13.8-31.06,16.659A32.753,32.753,0,0,1,463.691,521.61Zm59.419-132.4q-8.783,1.656-18.568,12.277a91.908,91.908,0,0,0-17.558,30.657q-5.743,16.613-5.738,29.78,0,21.949,12.155,19.651,7.76-1.462,17.049-13.51t15.361-29.4l.676-1.817,4.388-17.033a90.6,90.6,0,0,0,1.013-13.018Q531.888,387.552,523.11,389.208Z" transform="translate(-60.385 -191.27)" style="fill: none;stroke: #5e8dc9;stroke-linecap: round;stroke-linejoin: round;stroke-width: 64.1496801990144px"/>
          <path d="M703.472,367.306q-19.245-10.215-45.241-5.316a25.462,25.462,0,0,0-11.478,5.88q-5.747,4.8-5.74,10.2t14.518,10.094q20.257,6.306,27.009,10.438,14.181,9.148,14.179,25.686,0,28.7-19.243,49.714T629.2,500.485q-9.8,1.845-27.686,1.167-19.582-.363-25.322-3.668l9.454-39.259q18.565,7.314,44.565,2.4,22.283-4.2,22.284-16.693,0-9.45-13.336-14.367t-26.5-9.522q-13.846-7.848-13.841-23.723,0-25.992,20.256-47.37,19.245-20.169,45.577-25.137,30.048-5.661,48.279,3.394Z" transform="translate(-60.385 -191.27)" style="fill: none;stroke: #5e8dc9;stroke-linecap: round;stroke-linejoin: round;stroke-width: 64.1496801990144px"/>
          <path d="M756.215,473.229l-46.591,8.782,32.41-131.025L720.765,355,729.88,318.5l21.271-4.009,18.229-72.648,46.592-8.783-17.893,72.585,29.371-5.537L818,336.666l-29.036,5.474Z" transform="translate(-60.385 -191.27)" style="fill: none;stroke: #5e8dc9;stroke-linecap: round;stroke-linejoin: round;stroke-width: 64.1496801990144px"/>
          <path d="M910.589,411.8l-.01.037c-.269-.036-.525-.086-.793-.124s-.532-.051-.8-.087l.01-.037c-58.158-9.748-56.785-61.372-42.194-43.734,11.385,13.764,36.62,13.833,50.035,13.692a.917.917,0,0,0,1.007-.951l28.6-106.914c-.466-.065-.924-.142-1.392-.2-52.128-6.9-100.216,11.752-113.541,63.357s18.133,99.035,70.261,105.939c.468.062.937.1,1.406.15l8.022-31.069C910.991,411.833,910.792,411.823,910.589,411.8Zm-44.7-78.324c4.6-14.852,33.6-19.474,38.276-3.422,4.482,15.4,1.083,13.571-19.673,10.822C867.426,338.615,863.723,340.48,865.892,333.476Z" transform="translate(-60.385 -191.27)" style="fill: none;stroke: #5e8dc9;stroke-linecap: round;stroke-linejoin: round;stroke-width: 64.1496801990144px"/>
          <path d="M1047.171,256.994,1036.7,302.857a29.91,29.91,0,0,0-16.542-1.946q-17.9,3.374-28.023,29.927l-25.319,98.63-46.592,8.783,42.878-167.435,46.591-8.783-2.7,10.636q16.536-13.577,30.046-16.127Q1043.12,255.4,1047.171,256.994Z" transform="translate(-60.385 -191.27)" style="fill: none;stroke: #5e8dc9;stroke-linecap: round;stroke-linejoin: round;stroke-width: 64.1496801990144px"/>
        </g>
        <g>
          <path d="M147.112,347.819c14.7-15.224,33.672-37.867,75.328-44.321,23.765-3.681,42.541,2.222,56.719,20.032l-10.465,41.81a42.672,42.672,0,0,0-9.114-9.425q-11.482-9.309-24.309-7.234a34.283,34.283,0,0,0-8.441.578q-37.815,7.128-64.483,80.691-10.809,30.066-10.805,57.406,0,38.488,17.219,44.357a37.424,37.424,0,0,0,9.791,1.531c10.577-2,21.169-7.554,31.3-13.741l21.032-84.24-34.774,6.556,8.778-36.768L240,398.431l.337-.063,46.591-8.783L245.062,557.843l-39.5,7.447q-19.247,12.743-37.814,16.244-17.558,3.312-32.41-2-20.6-7.591-31.736-29.468T92.46,497.481C92.46,464.846,100.477,396.107,147.112,347.819Z" transform="translate(-60.385 -191.27)" style="fill: none;stroke: #3a53a4;stroke-linecap: round;stroke-linejoin: round;stroke-width: 64.1496801990144px"/>
          <path d="M305.012,545.4q-27.345-6.662-27.344-49.2,0-23.631,10.125-49.177,11.142-28.431,30.386-48.774t38.488-23.965q18.9-3.562,30.046,9.864l3.714-14.542,45.578-8.592-29.37,118.976a17.283,17.283,0,0,0-.677,4.517q0,6.757,7.765,5.288a32.838,32.838,0,0,0,9.791-3.87l-8.439,31.3q-17.56,15.121-32.412,17.926-16.884,3.183-28.36-9.847-17.558,16.818-34.774,20.061A36.859,36.859,0,0,1,305.012,545.4Zm56.382-135.884q-8.106,1.527-17.387,13.4t-15.36,29.568q-5.747,16.275-5.741,30.454,0,22.623,11.815,20.393,7.766-1.465,17.219-14.052t15.531-30.608q6.077-16.338,6.077-29.844Q373.548,407.226,361.394,409.514Z" transform="translate(-60.385 -191.27)" style="fill: none;stroke: #3a53a4;stroke-linecap: round;stroke-linejoin: round;stroke-width: 64.1496801990144px"/>
          <path d="M463.691,511.893q-27.348-6.318-27.347-47.852,0-22.951,10.128-48.5,11.142-28.764,30.386-48.942t38.485-23.8q18.566-3.5,30.05,9.191l3.376-14.14,46.929-8.846L553.5,496.991a147.176,147.176,0,0,1-5.74,18.3c-7.654,16.975-15.3,32.63-29.142,44.691s-27.351,19.287-41.305,21.917c-8.1,1.528-18.909.315-25.436-1.607a20.5,20.5,0,0,1-8.438-6.172q-4.054-4.644-7.43-9.068l8.441-33.326c6.619,8.663,17.363,14.375,27.627,13.887,14.031-.667,19.657-9.6,25.48-19a69.135,69.135,0,0,0,9.015-20.78l2.7-10.3q-15.873,13.8-31.06,16.659A32.768,32.768,0,0,1,463.691,511.893Zm59.419-132.4q-8.783,1.656-18.568,12.277a91.908,91.908,0,0,0-17.558,30.657q-5.743,16.613-5.738,29.78,0,21.95,12.155,19.651,7.76-1.463,17.049-13.51t15.361-29.4l.676-1.817,4.388-17.032a90.624,90.624,0,0,0,1.013-13.019Q531.888,377.834,523.11,379.49Z" transform="translate(-60.385 -191.27)" style="fill: none;stroke: #3a53a4;stroke-linecap: round;stroke-linejoin: round;stroke-width: 64.1496801990144px"/>
          <path d="M703.472,357.588q-19.245-10.215-45.241-5.316a25.462,25.462,0,0,0-11.478,5.88q-5.747,4.8-5.74,10.2t14.518,10.094q20.257,6.306,27.009,10.438,14.181,9.149,14.179,25.686,0,28.7-19.243,49.714T629.2,490.767q-9.8,1.845-27.686,1.167-19.582-.363-25.322-3.668l9.454-39.259q18.565,7.314,44.565,2.4,22.283-4.2,22.284-16.693,0-9.448-13.336-14.367-13.343-4.9-26.5-9.522-13.846-7.848-13.841-23.723,0-25.992,20.256-47.37,19.245-20.169,45.577-25.137,30.048-5.661,48.279,3.394Z" transform="translate(-60.385 -191.27)" style="fill: none;stroke: #3a53a4;stroke-linecap: round;stroke-linejoin: round;stroke-width: 64.1496801990144px"/>
          <path d="M756.215,463.511l-46.591,8.782,32.41-131.025-21.269,4.009,9.115-36.492,21.271-4.01,18.229-72.648,46.592-8.783-17.893,72.585,29.371-5.537L818,326.948l-29.036,5.474Z" transform="translate(-60.385 -191.27)" style="fill: none;stroke: #3a53a4;stroke-linecap: round;stroke-linejoin: round;stroke-width: 64.1496801990144px"/>
          <path d="M910.589,402.082l-.01.037c-.269-.036-.525-.086-.793-.124s-.532-.051-.8-.087l.01-.037c-58.158-9.748-56.785-61.372-42.194-43.733,11.385,13.763,36.62,13.832,50.035,13.691a.917.917,0,0,0,1.007-.951l28.6-106.914c-.466-.065-.924-.142-1.392-.2-52.128-6.9-100.216,11.752-113.541,63.357s18.133,99.035,70.261,105.939c.468.062.937.1,1.406.15l8.022-31.069C910.991,402.116,910.792,402.105,910.589,402.082Zm-44.7-78.324c4.6-14.852,33.6-19.474,38.276-3.421,4.482,15.4,1.083,13.57-19.673,10.821C867.426,328.9,863.723,330.762,865.892,323.758Z" transform="translate(-60.385 -191.27)" style="fill: none;stroke: #3a53a4;stroke-linecap: round;stroke-linejoin: round;stroke-width: 64.1496801990144px"/>
          <path d="M1047.171,247.276,1036.7,293.139a29.91,29.91,0,0,0-16.542-1.946q-17.9,3.374-28.023,29.928L966.82,419.75l-46.592,8.783L963.106,261.1l46.591-8.783-2.7,10.636q16.536-13.577,30.046-16.127Q1043.12,245.678,1047.171,247.276Z" transform="translate(-60.385 -191.27)" style="fill: none;stroke: #3a53a4;stroke-linecap: round;stroke-linejoin: round;stroke-width: 64.1496801990144px"/>
        </g>
        <g>
          <path d="M147.112,347.819c14.7-15.224,33.672-37.867,75.328-44.321,23.765-3.681,42.541,2.222,56.719,20.032l-10.465,41.81a42.672,42.672,0,0,0-9.114-9.425q-11.482-9.309-24.309-7.234a34.283,34.283,0,0,0-8.441.578q-37.815,7.128-64.483,80.691-10.809,30.066-10.805,57.406,0,38.488,17.219,44.357a37.424,37.424,0,0,0,9.791,1.531c10.577-2,21.169-7.554,31.3-13.741l21.032-84.24-34.774,6.556,8.778-36.768L240,398.431l.337-.063,46.591-8.783L245.062,557.843l-39.5,7.447q-19.247,12.743-37.814,16.244-17.558,3.312-32.41-2-20.6-7.591-31.736-29.468T92.46,497.481C92.46,464.846,100.477,396.107,147.112,347.819Z" transform="translate(-60.385 -191.27)" style="fill: none;stroke: #3a1e5e;stroke-linecap: round;stroke-linejoin: round;stroke-width: 60.3760813556207px"/>
          <path d="M305.012,545.4q-27.345-6.662-27.344-49.2,0-23.631,10.125-49.177,11.142-28.431,30.386-48.774t38.488-23.965q18.9-3.562,30.046,9.864l3.714-14.542,45.578-8.592-29.37,118.976a17.283,17.283,0,0,0-.677,4.517q0,6.757,7.765,5.288a32.838,32.838,0,0,0,9.791-3.87l-8.439,31.3q-17.56,15.121-32.412,17.926-16.884,3.183-28.36-9.847-17.558,16.818-34.774,20.061A36.859,36.859,0,0,1,305.012,545.4Zm56.382-135.884q-8.106,1.527-17.387,13.4t-15.36,29.568q-5.747,16.275-5.741,30.454,0,22.623,11.815,20.393,7.766-1.465,17.219-14.052t15.531-30.608q6.077-16.338,6.077-29.844Q373.548,407.226,361.394,409.514Z" transform="translate(-60.385 -191.27)" style="fill: none;stroke: #3a1e5e;stroke-linecap: round;stroke-linejoin: round;stroke-width: 60.3760813556207px"/>
          <path d="M463.691,511.893q-27.348-6.318-27.347-47.852,0-22.951,10.128-48.5,11.142-28.764,30.386-48.942t38.485-23.8q18.566-3.5,30.05,9.191l3.376-14.14,46.929-8.846L553.5,496.991a147.176,147.176,0,0,1-5.74,18.3c-7.654,16.975-15.3,32.63-29.142,44.691s-27.351,19.287-41.305,21.917c-8.1,1.528-18.909.315-25.436-1.607a20.5,20.5,0,0,1-8.438-6.172q-4.054-4.644-7.43-9.068l8.441-33.326c6.619,8.663,17.363,14.375,27.627,13.887,14.031-.667,19.657-9.6,25.48-19a69.135,69.135,0,0,0,9.015-20.78l2.7-10.3q-15.873,13.8-31.06,16.659A32.768,32.768,0,0,1,463.691,511.893Zm59.419-132.4q-8.783,1.656-18.568,12.277a91.908,91.908,0,0,0-17.558,30.657q-5.743,16.613-5.738,29.78,0,21.95,12.155,19.651,7.76-1.463,17.049-13.51t15.361-29.4l.676-1.817,4.388-17.032a90.624,90.624,0,0,0,1.013-13.019Q531.888,377.834,523.11,379.49Z" transform="translate(-60.385 -191.27)" style="fill: none;stroke: #3a1e5e;stroke-linecap: round;stroke-linejoin: round;stroke-width: 60.3760813556207px"/>
          <path d="M703.472,357.588q-19.245-10.215-45.241-5.316a25.462,25.462,0,0,0-11.478,5.88q-5.747,4.8-5.74,10.2t14.518,10.094q20.257,6.306,27.009,10.438,14.181,9.149,14.179,25.686,0,28.7-19.243,49.714T629.2,490.767q-9.8,1.845-27.686,1.167-19.582-.363-25.322-3.668l9.454-39.259q18.565,7.314,44.565,2.4,22.283-4.2,22.284-16.693,0-9.448-13.336-14.367-13.343-4.9-26.5-9.522-13.846-7.848-13.841-23.723,0-25.992,20.256-47.37,19.245-20.169,45.577-25.137,30.048-5.661,48.279,3.394Z" transform="translate(-60.385 -191.27)" style="fill: none;stroke: #3a1e5e;stroke-linecap: round;stroke-linejoin: round;stroke-width: 60.3760813556207px"/>
          <path d="M756.215,463.511l-46.591,8.782,32.41-131.025-21.269,4.009,9.115-36.492,21.271-4.01,18.229-72.648,46.592-8.783-17.893,72.585,29.371-5.537L818,326.948l-29.036,5.474Z" transform="translate(-60.385 -191.27)" style="fill: none;stroke: #3a1e5e;stroke-linecap: round;stroke-linejoin: round;stroke-width: 60.3760813556207px"/>
          <path d="M910.589,402.082l-.01.037c-.269-.036-.525-.086-.793-.124s-.532-.051-.8-.087l.01-.037c-58.158-9.748-56.785-61.372-42.194-43.733,11.385,13.763,36.62,13.832,50.035,13.691a.917.917,0,0,0,1.007-.951l28.6-106.914c-.466-.065-.924-.142-1.392-.2-52.128-6.9-100.216,11.752-113.541,63.357s18.133,99.035,70.261,105.939c.468.062.937.1,1.406.15l8.022-31.069C910.991,402.116,910.792,402.105,910.589,402.082Zm-44.7-78.324c4.6-14.852,33.6-19.474,38.276-3.421,4.482,15.4,1.083,13.57-19.673,10.821C867.426,328.9,863.723,330.762,865.892,323.758Z" transform="translate(-60.385 -191.27)" style="fill: none;stroke: #3a1e5e;stroke-linecap: round;stroke-linejoin: round;stroke-width: 60.3760813556207px"/>
          <path d="M1047.171,247.276,1036.7,293.139a29.91,29.91,0,0,0-16.542-1.946q-17.9,3.374-28.023,29.928L966.82,419.75l-46.592,8.783L963.106,261.1l46.591-8.783-2.7,10.636q16.536-13.577,30.046-16.127Q1043.12,245.678,1047.171,247.276Z" transform="translate(-60.385 -191.27)" style="fill: none;stroke: #3a1e5e;stroke-linecap: round;stroke-linejoin: round;stroke-width: 60.3760813556207px"/>
        </g>
        <g style="opacity: 0.2">
          <path d="M147.112,351.463c14.7-15.224,33.672-37.867,75.328-44.321,23.765-3.681,42.541,2.222,56.719,20.032l-10.465,41.81a42.672,42.672,0,0,0-9.114-9.425q-11.482-9.309-24.309-7.234a34.236,34.236,0,0,0-8.441.579q-37.815,7.126-64.483,80.691Q151.538,463.66,151.542,491q0,38.488,17.219,44.357a37.424,37.424,0,0,0,9.791,1.531c10.577-2,21.169-7.554,31.3-13.741l21.032-84.239-34.774,6.555,8.778-36.768L240,402.076l.337-.064,46.591-8.782L245.062,561.487l-39.5,7.447q-19.247,12.743-37.814,16.244-17.558,3.312-32.41-1.994-20.6-7.593-31.736-29.468T92.46,501.125C92.46,468.49,100.477,399.751,147.112,351.463Z" transform="translate(-60.385 -191.27)" style="fill: none;stroke: #010101;stroke-linecap: round;stroke-linejoin: round;stroke-width: 37.7352383645977px"/>
          <path d="M305.012,549.042q-27.345-6.662-27.344-49.2,0-23.63,10.125-49.177,11.142-28.431,30.386-48.774t38.488-23.965q18.9-3.562,30.046,9.865l3.714-14.543,45.578-8.592-29.37,118.976a17.283,17.283,0,0,0-.677,4.517q0,6.757,7.765,5.289a32.865,32.865,0,0,0,9.791-3.87l-8.439,31.3q-17.56,15.121-32.412,17.926-16.884,3.183-28.36-9.847-17.558,16.818-34.774,20.061A36.859,36.859,0,0,1,305.012,549.042Zm56.382-135.884q-8.106,1.527-17.387,13.4t-15.36,29.568q-5.747,16.275-5.741,30.454,0,22.623,11.815,20.393,7.766-1.466,17.219-14.052t15.531-30.608q6.077-16.338,6.077-29.844Q373.548,410.87,361.394,413.158Z" transform="translate(-60.385 -191.27)" style="fill: none;stroke: #010101;stroke-linecap: round;stroke-linejoin: round;stroke-width: 37.7352383645977px"/>
          <path d="M463.691,515.537q-27.348-6.318-27.347-47.851,0-22.953,10.128-48.5,11.142-28.764,30.386-48.942t38.485-23.8q18.566-3.5,30.05,9.191l3.376-14.14,46.929-8.846L553.5,500.635a147.176,147.176,0,0,1-5.74,18.3c-7.654,16.975-15.3,32.63-29.142,44.691s-27.351,19.287-41.305,21.917c-8.1,1.528-18.909.315-25.436-1.606a20.509,20.509,0,0,1-8.438-6.173q-4.054-4.644-7.43-9.068l8.441-33.326c6.619,8.663,17.363,14.376,27.627,13.887,14.031-.667,19.657-9.6,25.48-19a69.135,69.135,0,0,0,9.015-20.78l2.7-10.3q-15.873,13.8-31.06,16.659A32.768,32.768,0,0,1,463.691,515.537Zm59.419-132.4q-8.783,1.656-18.568,12.277a91.918,91.918,0,0,0-17.558,30.657q-5.743,16.612-5.738,29.781,0,21.948,12.155,19.65,7.76-1.461,17.049-13.51t15.361-29.4l.676-1.817,4.388-17.032a90.624,90.624,0,0,0,1.013-13.019Q531.888,381.477,523.11,383.134Z" transform="translate(-60.385 -191.27)" style="fill: none;stroke: #010101;stroke-linecap: round;stroke-linejoin: round;stroke-width: 37.7352383645977px"/>
          <path d="M703.472,361.232q-19.245-10.215-45.241-5.316a25.462,25.462,0,0,0-11.478,5.88q-5.747,4.8-5.74,10.2t14.518,10.094q20.257,6.306,27.009,10.438,14.181,9.149,14.179,25.686,0,28.7-19.243,49.714T629.2,494.411q-9.8,1.845-27.686,1.167-19.582-.363-25.322-3.667l9.454-39.259q18.565,7.313,44.565,2.405,22.283-4.2,22.284-16.694,0-9.448-13.336-14.366t-26.5-9.523q-13.846-7.848-13.841-23.723,0-25.992,20.256-47.37,19.245-20.169,45.577-25.136,30.048-5.662,48.279,3.393Z" transform="translate(-60.385 -191.27)" style="fill: none;stroke: #010101;stroke-linecap: round;stroke-linejoin: round;stroke-width: 37.7352383645977px"/>
          <path d="M756.215,467.155l-46.591,8.782,32.41-131.025-21.269,4.009,9.115-36.492,21.271-4.01,18.229-72.648,46.592-8.782-17.893,72.584,29.371-5.537L818,330.592l-29.036,5.474Z" transform="translate(-60.385 -191.27)" style="fill: none;stroke: #010101;stroke-linecap: round;stroke-linejoin: round;stroke-width: 37.7352383645977px"/>
          <path d="M910.589,405.726l-.01.037c-.269-.036-.525-.086-.793-.124s-.532-.051-.8-.087l.01-.037c-58.158-9.748-56.785-61.372-42.194-43.733,11.385,13.763,36.62,13.832,50.035,13.691a.917.917,0,0,0,1.007-.951l28.6-106.914c-.466-.065-.924-.142-1.392-.2-52.128-6.9-100.216,11.752-113.541,63.357S849.639,429.8,901.767,436.7c.468.062.937.1,1.406.15l8.022-31.069C910.991,405.76,910.792,405.75,910.589,405.726Zm-44.7-78.324c4.6-14.852,33.6-19.474,38.276-3.421,4.482,15.4,1.083,13.57-19.673,10.821C867.426,332.541,863.723,334.406,865.892,327.4Z" transform="translate(-60.385 -191.27)" style="fill: none;stroke: #010101;stroke-linecap: round;stroke-linejoin: round;stroke-width: 37.7352383645977px"/>
          <path d="M1047.171,250.92,1036.7,296.783a29.9,29.9,0,0,0-16.542-1.945q-17.9,3.372-28.023,29.927L966.82,423.394l-46.592,8.783,42.878-167.435,46.591-8.783L1007,266.6q16.536-13.577,30.046-16.127Q1043.12,249.322,1047.171,250.92Z" transform="translate(-60.385 -191.27)" style="fill: none;stroke: #010101;stroke-linecap: round;stroke-linejoin: round;stroke-width: 37.7352383645977px"/>
        </g>
        <g>
          <path d="M147.112,351.463c14.7-15.224,33.672-37.867,75.328-44.321,23.765-3.681,42.541,2.222,56.719,20.032l-10.465,41.81a42.672,42.672,0,0,0-9.114-9.425q-11.482-9.309-24.309-7.234a34.236,34.236,0,0,0-8.441.579q-37.815,7.126-64.483,80.691Q151.538,463.66,151.542,491q0,38.488,17.219,44.357a37.424,37.424,0,0,0,9.791,1.531c10.577-2,21.169-7.554,31.3-13.741l21.032-84.239-34.774,6.555,8.778-36.768L240,402.076l.337-.064,46.591-8.782L245.062,561.487l-39.5,7.447q-19.247,12.743-37.814,16.244-17.558,3.312-32.41-1.994-20.6-7.593-31.736-29.468T92.46,501.125C92.46,468.49,100.477,399.751,147.112,351.463Z" transform="translate(-60.385 -191.27)" style="fill: none;stroke: #46215d;stroke-linecap: round;stroke-linejoin: round;stroke-width: 30.1880406778104px"/>
          <path d="M305.012,549.042q-27.345-6.662-27.344-49.2,0-23.63,10.125-49.177,11.142-28.431,30.386-48.774t38.488-23.965q18.9-3.562,30.046,9.865l3.714-14.543,45.578-8.592-29.37,118.976a17.283,17.283,0,0,0-.677,4.517q0,6.757,7.765,5.289a32.865,32.865,0,0,0,9.791-3.87l-8.439,31.3q-17.56,15.121-32.412,17.926-16.884,3.183-28.36-9.847-17.558,16.818-34.774,20.061A36.859,36.859,0,0,1,305.012,549.042Zm56.382-135.884q-8.106,1.527-17.387,13.4t-15.36,29.568q-5.747,16.275-5.741,30.454,0,22.623,11.815,20.393,7.766-1.466,17.219-14.052t15.531-30.608q6.077-16.338,6.077-29.844Q373.548,410.87,361.394,413.158Z" transform="translate(-60.385 -191.27)" style="fill: none;stroke: #46215d;stroke-linecap: round;stroke-linejoin: round;stroke-width: 30.1880406778104px"/>
          <path d="M463.691,515.537q-27.348-6.318-27.347-47.851,0-22.953,10.128-48.5,11.142-28.764,30.386-48.942t38.485-23.8q18.566-3.5,30.05,9.191l3.376-14.14,46.929-8.846L553.5,500.635a147.176,147.176,0,0,1-5.74,18.3c-7.654,16.975-15.3,32.63-29.142,44.691s-27.351,19.287-41.305,21.917c-8.1,1.528-18.909.315-25.436-1.606a20.509,20.509,0,0,1-8.438-6.173q-4.054-4.644-7.43-9.068l8.441-33.326c6.619,8.663,17.363,14.376,27.627,13.887,14.031-.667,19.657-9.6,25.48-19a69.135,69.135,0,0,0,9.015-20.78l2.7-10.3q-15.873,13.8-31.06,16.659A32.768,32.768,0,0,1,463.691,515.537Zm59.419-132.4q-8.783,1.656-18.568,12.277a91.918,91.918,0,0,0-17.558,30.657q-5.743,16.612-5.738,29.781,0,21.948,12.155,19.65,7.76-1.461,17.049-13.51t15.361-29.4l.676-1.817,4.388-17.032a90.624,90.624,0,0,0,1.013-13.019Q531.888,381.477,523.11,383.134Z" transform="translate(-60.385 -191.27)" style="fill: none;stroke: #46215d;stroke-linecap: round;stroke-linejoin: round;stroke-width: 30.1880406778104px"/>
          <path d="M703.472,361.232q-19.245-10.215-45.241-5.316a25.462,25.462,0,0,0-11.478,5.88q-5.747,4.8-5.74,10.2t14.518,10.094q20.257,6.306,27.009,10.438,14.181,9.149,14.179,25.686,0,28.7-19.243,49.714T629.2,494.411q-9.8,1.845-27.686,1.167-19.582-.363-25.322-3.667l9.454-39.259q18.565,7.313,44.565,2.405,22.283-4.2,22.284-16.694,0-9.448-13.336-14.366t-26.5-9.523q-13.846-7.848-13.841-23.723,0-25.992,20.256-47.37,19.245-20.169,45.577-25.136,30.048-5.662,48.279,3.393Z" transform="translate(-60.385 -191.27)" style="fill: none;stroke: #46215d;stroke-linecap: round;stroke-linejoin: round;stroke-width: 30.1880406778104px"/>
          <path d="M756.215,467.155l-46.591,8.782,32.41-131.025-21.269,4.009,9.115-36.492,21.271-4.01,18.229-72.648,46.592-8.782-17.893,72.584,29.371-5.537L818,330.592l-29.036,5.474Z" transform="translate(-60.385 -191.27)" style="fill: none;stroke: #46215d;stroke-linecap: round;stroke-linejoin: round;stroke-width: 30.1880406778104px"/>
          <path d="M910.589,405.726l-.01.037c-.269-.036-.525-.086-.793-.124s-.532-.051-.8-.087l.01-.037c-58.158-9.748-56.785-61.372-42.194-43.733,11.385,13.763,36.62,13.832,50.035,13.691a.917.917,0,0,0,1.007-.951l28.6-106.914c-.466-.065-.924-.142-1.392-.2-52.128-6.9-100.216,11.752-113.541,63.357S849.639,429.8,901.767,436.7c.468.062.937.1,1.406.15l8.022-31.069C910.991,405.76,910.792,405.75,910.589,405.726Zm-44.7-78.324c4.6-14.852,33.6-19.474,38.276-3.421,4.482,15.4,1.083,13.57-19.673,10.821C867.426,332.541,863.723,334.406,865.892,327.4Z" transform="translate(-60.385 -191.27)" style="fill: none;stroke: #46215d;stroke-linecap: round;stroke-linejoin: round;stroke-width: 30.1880406778104px"/>
          <path d="M1047.171,250.92,1036.7,296.783a29.9,29.9,0,0,0-16.542-1.945q-17.9,3.372-28.023,29.927L966.82,423.394l-46.592,8.783,42.878-167.435,46.591-8.783L1007,266.6q16.536-13.577,30.046-16.127Q1043.12,249.322,1047.171,250.92Z" transform="translate(-60.385 -191.27)" style="fill: none;stroke: #46215d;stroke-linecap: round;stroke-linejoin: round;stroke-width: 30.1880406778104px"/>
        </g>
        <g>
          <path d="M147.112,344.175c14.7-15.224,33.672-37.867,75.328-44.321,23.765-3.682,42.541,2.222,56.719,20.031L268.694,361.7a42.672,42.672,0,0,0-9.114-9.425q-11.482-9.309-24.309-7.234a34.283,34.283,0,0,0-8.441.578q-37.815,7.128-64.483,80.691-10.809,30.066-10.805,57.406,0,38.488,17.219,44.357a37.424,37.424,0,0,0,9.791,1.531c10.577-2,21.169-7.554,31.3-13.741l21.032-84.24-34.774,6.556,8.778-36.768L240,394.787l.337-.063,46.591-8.783L245.062,554.2l-39.5,7.447q-19.247,12.741-37.814,16.244-17.558,3.31-32.41-2-20.6-7.591-31.736-29.468T92.46,493.837C92.46,461.2,100.477,392.463,147.112,344.175Z" transform="translate(-60.385 -191.27)" style="fill: none;stroke: #925aa5;stroke-linecap: round;stroke-linejoin: round;stroke-width: 30.1880406778104px"/>
          <path d="M305.012,541.754q-27.345-6.662-27.344-49.2,0-23.631,10.125-49.177,11.142-28.433,30.386-48.774t38.488-23.965q18.9-3.564,30.046,9.864l3.714-14.542,45.578-8.592-29.37,118.976a17.283,17.283,0,0,0-.677,4.517q0,6.757,7.765,5.288a32.838,32.838,0,0,0,9.791-3.87l-8.439,31.3Q397.515,528.7,382.663,531.5q-16.884,3.183-28.36-9.847-17.558,16.818-34.774,20.06A36.86,36.86,0,0,1,305.012,541.754ZM361.394,405.87q-8.106,1.527-17.387,13.4t-15.36,29.569q-5.747,16.275-5.741,30.454,0,22.623,11.815,20.393,7.766-1.465,17.219-14.052t15.531-30.608q6.077-16.338,6.077-29.844Q373.548,403.58,361.394,405.87Z" transform="translate(-60.385 -191.27)" style="fill: none;stroke: #925aa5;stroke-linecap: round;stroke-linejoin: round;stroke-width: 30.1880406778104px"/>
          <path d="M463.691,508.248q-27.348-6.317-27.347-47.851,0-22.951,10.128-48.5,11.142-28.764,30.386-48.942t38.485-23.8q18.566-3.5,30.05,9.19l3.376-14.139,46.929-8.846L553.5,493.347a147.176,147.176,0,0,1-5.74,18.3c-7.654,16.974-15.3,32.63-29.142,44.691s-27.351,19.287-41.305,21.916c-8.1,1.529-18.909.316-25.436-1.606a20.5,20.5,0,0,1-8.438-6.172q-4.054-4.644-7.43-9.068l8.441-33.326c6.619,8.663,17.363,14.375,27.627,13.887,14.031-.668,19.657-9.6,25.48-19a69.135,69.135,0,0,0,9.015-20.78l2.7-10.3q-15.873,13.8-31.06,16.659A32.753,32.753,0,0,1,463.691,508.248Zm59.419-132.4q-8.783,1.656-18.568,12.277a91.908,91.908,0,0,0-17.558,30.657q-5.743,16.613-5.738,29.78,0,21.95,12.155,19.651,7.76-1.463,17.049-13.51t15.361-29.4l.676-1.817,4.388-17.033a90.6,90.6,0,0,0,1.013-13.018Q531.888,374.19,523.11,375.846Z" transform="translate(-60.385 -191.27)" style="fill: none;stroke: #925aa5;stroke-linecap: round;stroke-linejoin: round;stroke-width: 30.1880406778104px"/>
          <path d="M703.472,353.944q-19.245-10.215-45.241-5.316a25.462,25.462,0,0,0-11.478,5.88q-5.747,4.8-5.74,10.2T655.531,374.8q20.257,6.306,27.009,10.438,14.181,9.149,14.179,25.686,0,28.7-19.243,49.714T629.2,487.123q-9.8,1.845-27.686,1.167-19.582-.363-25.322-3.668l9.454-39.259q18.565,7.314,44.565,2.4,22.283-4.2,22.284-16.693,0-9.45-13.336-14.367t-26.5-9.522q-13.846-7.848-13.841-23.723,0-25.992,20.256-47.37,19.245-20.169,45.577-25.137,30.048-5.661,48.279,3.394Z" transform="translate(-60.385 -191.27)" style="fill: none;stroke: #925aa5;stroke-linecap: round;stroke-linejoin: round;stroke-width: 30.1880406778104px"/>
          <path d="M756.215,459.867l-46.591,8.782,32.41-131.025-21.269,4.009,9.115-36.493,21.271-4.009,18.229-72.648,46.592-8.783-17.893,72.585,29.371-5.537L818,323.3l-29.036,5.474Z" transform="translate(-60.385 -191.27)" style="fill: none;stroke: #925aa5;stroke-linecap: round;stroke-linejoin: round;stroke-width: 30.1880406778104px"/>
          <path d="M910.589,398.438l-.01.037c-.269-.036-.525-.086-.793-.124s-.532-.051-.8-.087l.01-.037c-58.158-9.748-56.785-61.372-42.194-43.734,11.385,13.764,36.62,13.833,50.035,13.692a.917.917,0,0,0,1.007-.951l28.6-106.914c-.466-.065-.924-.142-1.392-.2-52.128-6.9-100.216,11.752-113.541,63.357s18.133,99.035,70.261,105.939c.468.062.937.1,1.406.15l8.022-31.069C910.991,398.471,910.792,398.461,910.589,398.438Zm-44.7-78.324c4.6-14.852,33.6-19.474,38.276-3.422,4.482,15.4,1.083,13.571-19.673,10.822C867.426,325.253,863.723,327.118,865.892,320.114Z" transform="translate(-60.385 -191.27)" style="fill: none;stroke: #925aa5;stroke-linecap: round;stroke-linejoin: round;stroke-width: 30.1880406778104px"/>
          <path d="M1047.171,243.632,1036.7,289.5a29.91,29.91,0,0,0-16.542-1.946q-17.9,3.374-28.023,29.927l-25.319,98.63-46.592,8.783,42.878-167.435,46.591-8.783-2.7,10.636q16.536-13.577,30.046-16.127Q1043.12,242.034,1047.171,243.632Z" transform="translate(-60.385 -191.27)" style="fill: none;stroke: #925aa5;stroke-linecap: round;stroke-linejoin: round;stroke-width: 30.1880406778104px"/>
        </g>
        <g>
          <path d="M147.112,345.389c14.7-15.224,33.672-37.867,75.328-44.32,23.765-3.682,42.541,2.222,56.719,20.031l-10.465,41.811a42.672,42.672,0,0,0-9.114-9.425q-11.482-9.31-24.309-7.235a34.285,34.285,0,0,0-8.441.579q-37.815,7.127-64.483,80.691-10.809,30.065-10.805,57.4,0,38.488,17.219,44.357a37.381,37.381,0,0,0,9.791,1.531c10.577-2,21.169-7.553,31.3-13.74l21.032-84.24-34.774,6.556,8.778-36.769L240,396l.337-.064,46.591-8.782L245.062,555.414l-39.5,7.447q-19.247,12.741-37.814,16.244-17.558,3.311-32.41-2-20.6-7.592-31.736-29.468T92.46,495.052C92.46,462.417,100.477,393.678,147.112,345.389Z" transform="translate(-60.385 -191.27)" style="fill: none;stroke: #793b96;stroke-linecap: round;stroke-linejoin: round;stroke-width: 26.4146918575296px"/>
          <path d="M305.012,542.969q-27.345-6.663-27.344-49.2,0-23.629,10.125-49.177,11.142-28.431,30.386-48.774t38.488-23.964q18.9-3.564,30.046,9.864l3.714-14.542,45.578-8.592-29.37,118.975a17.283,17.283,0,0,0-.677,4.517q0,6.757,7.765,5.289a32.865,32.865,0,0,0,9.791-3.87l-8.439,31.3q-17.56,15.123-32.412,17.927-16.884,3.181-28.36-9.847-17.558,16.818-34.774,20.06A36.86,36.86,0,0,1,305.012,542.969Zm56.382-135.884q-8.106,1.527-17.387,13.4t-15.36,29.568q-5.747,16.276-5.741,30.455,0,22.623,11.815,20.392,7.766-1.464,17.219-14.051t15.531-30.609q6.077-16.338,6.077-29.844Q373.548,404.8,361.394,407.085Z" transform="translate(-60.385 -191.27)" style="fill: none;stroke: #793b96;stroke-linecap: round;stroke-linejoin: round;stroke-width: 26.4146918575296px"/>
          <path d="M463.691,509.463q-27.348-6.318-27.347-47.851,0-22.953,10.128-48.5,11.142-28.765,30.386-48.943t38.485-23.8q18.566-3.5,30.05,9.19l3.376-14.139,46.929-8.846L553.5,494.562a147.289,147.289,0,0,1-5.74,18.3c-7.654,16.974-15.3,32.629-29.142,44.691s-27.351,19.286-41.305,21.916c-8.1,1.529-18.909.316-25.436-1.606a20.506,20.506,0,0,1-8.438-6.172q-4.054-4.644-7.43-9.069l8.441-33.326c6.619,8.663,17.363,14.376,27.627,13.888,14.031-.668,19.657-9.6,25.48-19a69.12,69.12,0,0,0,9.015-20.779l2.7-10.3q-15.873,13.8-31.06,16.659A32.767,32.767,0,0,1,463.691,509.463Zm59.419-132.4q-8.783,1.655-18.568,12.276a91.928,91.928,0,0,0-17.558,30.657q-5.743,16.614-5.738,29.781,0,21.95,12.155,19.65,7.76-1.461,17.049-13.509t15.361-29.4l.676-1.816,4.388-17.033a90.613,90.613,0,0,0,1.013-13.019Q531.888,375.4,523.11,377.061Z" transform="translate(-60.385 -191.27)" style="fill: none;stroke: #793b96;stroke-linecap: round;stroke-linejoin: round;stroke-width: 26.4146918575296px"/>
          <path d="M703.472,355.158q-19.245-10.214-45.241-5.315a25.459,25.459,0,0,0-11.478,5.879q-5.747,4.8-5.74,10.2t14.518,10.093q20.257,6.307,27.009,10.438,14.181,9.15,14.179,25.686,0,28.7-19.243,49.714T629.2,488.337q-9.8,1.846-27.686,1.167-19.582-.362-25.322-3.667l9.454-39.259q18.565,7.314,44.565,2.405,22.283-4.2,22.284-16.693,0-9.45-13.336-14.367t-26.5-9.522q-13.846-7.849-13.841-23.723,0-25.994,20.256-47.37,19.245-20.169,45.577-25.137,30.048-5.662,48.279,3.394Z" transform="translate(-60.385 -191.27)" style="fill: none;stroke: #793b96;stroke-linecap: round;stroke-linejoin: round;stroke-width: 26.4146918575296px"/>
          <path d="M756.215,461.081l-46.591,8.783,32.41-131.026-21.269,4.01,9.115-36.493,21.271-4.009L769.38,229.7l46.592-8.783L798.079,293.5l29.371-5.538L818,324.518l-29.036,5.474Z" transform="translate(-60.385 -191.27)" style="fill: none;stroke: #793b96;stroke-linecap: round;stroke-linejoin: round;stroke-width: 26.4146918575296px"/>
          <path d="M910.589,399.653l-.01.037c-.269-.036-.525-.086-.793-.124s-.532-.052-.8-.087l.01-.037c-58.158-9.748-56.785-61.372-42.194-43.734,11.385,13.763,36.62,13.833,50.035,13.691a.917.917,0,0,0,1.007-.95l28.6-106.914c-.466-.066-.924-.142-1.392-.2-52.128-6.9-100.216,11.751-113.541,63.356s18.133,99.036,70.261,105.94c.468.062.937.095,1.406.15l8.022-31.069C910.991,399.686,910.792,399.676,910.589,399.653Zm-44.7-78.324c4.6-14.852,33.6-19.474,38.276-3.422,4.482,15.4,1.083,13.57-19.673,10.821C867.426,326.468,863.723,328.333,865.892,321.329Z" transform="translate(-60.385 -191.27)" style="fill: none;stroke: #793b96;stroke-linecap: round;stroke-linejoin: round;stroke-width: 26.4146918575296px"/>
          <path d="M1047.171,244.846,1036.7,290.71a29.9,29.9,0,0,0-16.542-1.946q-17.9,3.373-28.023,29.927l-25.319,98.63L920.228,426.1l42.878-167.435,46.591-8.782-2.7,10.636q16.536-13.578,30.046-16.127Q1043.12,243.248,1047.171,244.846Z" transform="translate(-60.385 -191.27)" style="fill: none;stroke: #793b96;stroke-linecap: round;stroke-linejoin: round;stroke-width: 26.4146918575296px"/>
        </g>
        <g>
          <path d="M154.657,586.037A59.142,59.142,0,0,1,134.7,582.66c-14.146-5.214-25.169-15.436-32.783-30.388-7.529-14.776-11.347-32.758-11.347-53.447,0-22.012,3.979-97.954,55.182-150.973q1.507-1.562,3.081-3.219c14.3-15,33.88-35.545,73.315-41.655a86.392,86.392,0,0,1,13.151-1.067c18.833,0,33.661,7.127,45.333,21.787l.581.73-11.68,46.666-2.375-3.31a40.99,40.99,0,0,0-8.71-9.013c-5.945-4.818-12.165-7.238-18.547-7.238a27.211,27.211,0,0,0-4.332.354l-.207.034-.208-.013q-.879-.053-1.773-.053a33.551,33.551,0,0,0-6.2.6c-24.391,4.6-45.607,31.338-63.059,79.48-7.094,19.732-10.692,38.831-10.692,56.762,0,24.641,5.363,38.965,15.941,42.571a35.236,35.236,0,0,0,9.061,1.419c10.632-2.06,21.417-7.977,29.775-13.051l20.131-80.632L193.6,445.556l9.737-40.789,86.134-16.237L246.6,560.817l-40.316,7.6C193.4,576.9,180.557,582.385,168.1,584.733A72.861,72.861,0,0,1,154.657,586.037Z" transform="translate(-60.385 -191.27)" style="fill: #4356a6"/>
          <path d="M311.932,549.332a35.586,35.586,0,0,1-7.309-.743c-19.158-4.667-28.842-21.837-28.842-51.048,0-15.922,3.451-32.7,10.258-49.872,7.481-19.088,17.834-35.7,30.77-49.376,13.05-13.79,26.343-22.041,39.508-24.522a43.082,43.082,0,0,1,7.935-.78,29.575,29.575,0,0,1,21.5,8.657l3.148-12.332,49.644-9.359L408.466,481.783a15.648,15.648,0,0,0-.621,4.065c0,3.05,1.284,3.662,3.356,3.662a11.877,11.877,0,0,0,2.173-.228,31.156,31.156,0,0,0,9.214-3.659l3.918-2.207-9.76,36.2-.44.379c-11.911,10.256-23.113,16.43-33.294,18.35a36.714,36.714,0,0,1-6.77.658c-8.4,0-15.8-3.254-22.031-9.679-11.46,10.632-23,17.1-34.332,19.235A43.139,43.139,0,0,1,311.932,549.332Zm51.681-136.807a10.182,10.182,0,0,0-1.87.187c-4.915.926-10.382,5.2-16.249,12.712-6.028,7.71-11.1,17.474-15.063,29.02-3.743,10.6-5.638,20.636-5.638,29.841,0,12.412,2.66,18.7,7.9,18.706h0a9.08,9.08,0,0,0,1.674-.167c4.68-.883,10.083-5.368,16.059-13.33,6.157-8.2,11.289-18.318,15.252-30.079,3.974-10.688,5.979-20.507,5.979-29.241C371.662,418.463,368.954,412.525,363.613,412.525Z" transform="translate(-60.385 -191.27)" style="fill: #4356a6"/>
          <path d="M469.045,585.821a67.515,67.515,0,0,1-17.705-2.375,22.44,22.44,0,0,1-9.325-6.74c-2.756-3.157-5.283-6.241-7.511-9.167l-.551-.724,9.622-37.992,2.37,3.1c6.115,8,15.889,13.176,24.9,13.176.38,0,.758-.01,1.137-.028,13.129-.624,18.393-9.115,23.967-18.106a67.567,67.567,0,0,0,8.783-20.224l1.233-4.7c-9.256,7.181-18.456,11.667-27.408,13.355a38.963,38.963,0,0,1-7.183.7,32.241,32.241,0,0,1-8.163-1.028c-19.062-4.4-28.754-21.121-28.754-49.677,0-15.473,3.452-32.024,10.26-49.193,7.481-19.312,17.837-35.988,30.775-49.549,13.052-13.678,26.342-21.871,39.5-24.351a43.652,43.652,0,0,1,8.041-.788,30.658,30.658,0,0,1,21.308,8.107l2.875-12.041,51.028-9.619L555.326,498.8a149.954,149.954,0,0,1-5.835,18.583c-7.951,17.63-15.658,33.189-29.638,45.371-14.18,12.359-27.982,19.669-42.194,22.348A46.973,46.973,0,0,1,469.045,585.821Zm55.4-203.231a5.375,5.375,0,0,0-.985.1c-5.42,1.022-11.318,4.959-17.531,11.7a90.463,90.463,0,0,0-17.167,30.01c-3.734,10.8-5.629,20.612-5.629,29.15,0,11.93,2.717,17.98,8.076,17.98h0a10.034,10.034,0,0,0,1.842-.184c4.682-.882,10.033-5.191,15.905-12.808a102.86,102.86,0,0,0,15.074-28.868l.654-1.76,4.338-16.839A89.012,89.012,0,0,0,530,398.424C530,391.2,529.038,382.59,524.445,382.59Z" transform="translate(-60.385 -191.27)" style="fill: #4356a6"/>
          <path d="M610.545,495.347c-2.826,0-5.889-.062-9.1-.184-13.465-.249-22.045-1.531-26.192-3.917l-1.224-.7L584.317,447.8l2.018.8a65.8,65.8,0,0,0,24.185,4.243,105.132,105.132,0,0,0,19.339-1.936c13.767-2.6,20.748-7.588,20.748-14.84,0-5.471-3.959-9.592-12.1-12.6-9.468-3.48-18.129-6.591-26.474-9.511l-.16-.056-.147-.083c-9.819-5.566-14.8-14.1-14.8-25.365,0-17.746,6.989-34.12,20.773-48.668,13.057-13.683,28.734-22.326,46.6-25.693a118.415,118.415,0,0,1,21.716-2.21c10.706,0,20.043,1.941,27.751,5.769l1.344.668-10.366,43.424-2.153-1.143a59.508,59.508,0,0,0-28.214-6.683,85.712,85.712,0,0,0-15.793,1.555,23.731,23.731,0,0,0-10.618,5.474c-3.36,2.805-5.064,5.749-5.064,8.748,0,1.213,1.288,4.449,13.211,8.3,13.738,4.277,22.711,7.754,27.413,10.623,10.021,6.465,15.082,15.64,15.082,27.3A73.309,73.309,0,0,1,678.868,466.9c-13.05,14.251-29.643,23.358-49.321,27.067A106.629,106.629,0,0,1,610.545,495.347Z" transform="translate(-60.385 -191.27)" style="fill: #4356a6"/>
          <polygon points="679.113 153.74 657.836 157.751 667.957 117.229 689.23 113.219 707.459 40.571 758.121 31.022 740.228 103.607 769.635 98.062 759.14 138.654 730.115 144.127 697.368 275.215 646.703 284.766 679.113 153.74" style="fill: #4356a6"/>
          <path d="M902.953,436.424c-.191-.022-.381-.041-.572-.059-.287-.028-.575-.056-.862-.094-25.514-3.379-47.054-16.347-60.652-36.515-13.857-20.553-17.83-46.04-11.187-71.767,10.855-42.041,45.454-66.152,94.928-66.152a158.225,158.225,0,0,1,20.686,1.4c.278.037.552.078.827.12l.58.086,2.112.3L919.7,372.588a2.775,2.775,0,0,1-2.841,2.472c-1.187.012-2.463.023-3.814.023-15.362,0-37.019-1.493-47.7-14.4-2.33-2.816-3.648-2.959-3.889-2.959-.582,0-1.082,1.111-1.214,2.7-.717,8.613,9.579,34.311,49.062,40.929l.588.1.12.013.226.036,1.152.1,2.175.229-8.98,34.783ZM888.2,313.5c-8.117,0-18.063,4.263-20.51,12.164-.68,2.2-.44,2.592-.429,2.607.414.621,4.017.955,7.5,1.279,2.644.245,5.935.55,9.975,1.086,1.751.231,3.378.457,4.888.666a93.756,93.756,0,0,0,10.918,1.167c1.7,0,2.788-.249,3.141-.719,1.04-1.385-.623-7.1-1.333-9.538C900.067,314.344,891.7,313.5,888.2,313.5Z" transform="translate(-60.385 -191.27)" style="fill: #4356a6"/>
          <path d="M961.576,260.811l50.678-9.554-2.065,8.13c9.554-7.164,18.451-11.555,26.5-13.073a27.509,27.509,0,0,1,5.067-.51,16.63,16.63,0,0,1,6.1,1.06l1.51.594-11.314,49.575-2.037-.791a30.822,30.822,0,0,0-11.1-2.258,23.74,23.74,0,0,0-4.4.408c-11.161,2.1-20.1,11.74-26.572,28.646l-25.591,99.688-50.683,9.554Z" transform="translate(-60.385 -191.27)" style="fill: #4356a6"/>
        </g>
        <g>
          <path d="M154.657,580.377A59.167,59.167,0,0,1,134.7,577c-14.146-5.214-25.169-15.436-32.783-30.389-7.529-14.776-11.347-32.757-11.347-53.446,0-22.012,3.979-97.954,55.182-150.973q1.507-1.562,3.081-3.219c14.3-15,33.88-35.546,73.315-41.655a86.392,86.392,0,0,1,13.151-1.067c18.833,0,33.661,7.126,45.333,21.787l.581.73-11.68,46.666-2.375-3.31a40.968,40.968,0,0,0-8.71-9.013c-5.945-4.818-12.165-7.238-18.547-7.238a27.211,27.211,0,0,0-4.332.354l-.207.034-.208-.013q-.879-.054-1.773-.053a33.634,33.634,0,0,0-6.2.6c-24.391,4.6-45.607,31.338-63.059,79.48-7.094,19.732-10.692,38.831-10.692,56.763,0,24.641,5.363,38.964,15.941,42.571a35.236,35.236,0,0,0,9.061,1.419c10.632-2.061,21.417-7.978,29.775-13.051l20.131-80.632L193.6,439.9l9.737-40.789,86.134-16.237L246.6,555.157l-40.316,7.6c-12.882,8.478-25.727,13.967-38.187,16.314A72.778,72.778,0,0,1,154.657,580.377Z" transform="translate(-60.385 -191.27)" style="fill: url(#linear-gradient)"/>
          <path d="M311.932,543.672a35.517,35.517,0,0,1-7.309-.744c-19.158-4.666-28.842-21.837-28.842-51.047,0-15.922,3.451-32.7,10.258-49.873,7.481-19.088,17.834-35.7,30.77-49.375,13.05-13.791,26.343-22.041,39.508-24.522a43.082,43.082,0,0,1,7.935-.78,29.578,29.578,0,0,1,21.5,8.656l3.148-12.331L438.54,354.3,408.466,476.123a15.648,15.648,0,0,0-.621,4.065c0,3.049,1.284,3.662,3.356,3.662a11.966,11.966,0,0,0,2.173-.228,31.156,31.156,0,0,0,9.214-3.659l3.918-2.208-9.76,36.2-.44.378c-11.911,10.257-23.113,16.431-33.294,18.351a36.711,36.711,0,0,1-6.77.657c-8.4,0-15.8-3.254-22.031-9.678-11.46,10.631-23,17.1-34.332,19.234A43.056,43.056,0,0,1,311.932,543.672Zm51.681-136.807a10.182,10.182,0,0,0-1.87.187c-4.915.926-10.382,5.2-16.249,12.712-6.028,7.71-11.1,17.474-15.063,29.02-3.743,10.6-5.638,20.635-5.638,29.841,0,12.412,2.66,18.7,7.9,18.706h0a9.168,9.168,0,0,0,1.674-.167c4.68-.883,10.083-5.369,16.059-13.33,6.157-8.2,11.289-18.318,15.252-30.079,3.974-10.688,5.979-20.507,5.979-29.241C371.662,412.8,368.954,406.865,363.613,406.865Z" transform="translate(-60.385 -191.27)" style="fill: url(#linear-gradient-2)"/>
          <path d="M469.045,580.161a67.515,67.515,0,0,1-17.705-2.375,22.448,22.448,0,0,1-9.325-6.74c-2.756-3.157-5.283-6.241-7.511-9.167l-.551-.724,9.622-37.992,2.37,3.1c6.115,8,15.889,13.175,24.9,13.175.38,0,.758-.009,1.137-.027,13.129-.624,18.393-9.116,23.967-18.106a67.567,67.567,0,0,0,8.783-20.224l1.233-4.7c-9.256,7.182-18.456,11.667-27.408,13.355a38.88,38.88,0,0,1-7.183.7,32.2,32.2,0,0,1-8.163-1.029c-19.062-4.4-28.754-21.12-28.754-49.676,0-15.473,3.452-32.024,10.26-49.193,7.481-19.313,17.837-35.988,30.775-49.55,13.052-13.678,26.342-21.871,39.5-24.35a43.652,43.652,0,0,1,8.041-.788,30.662,30.662,0,0,1,21.308,8.106l2.875-12.04,51.028-9.619-42.92,170.844a149.925,149.925,0,0,1-5.835,18.582c-7.951,17.631-15.658,33.189-29.638,45.371-14.18,12.36-27.982,19.67-42.194,22.349A46.973,46.973,0,0,1,469.045,580.161Zm55.4-203.232a5.294,5.294,0,0,0-.985.1c-5.42,1.022-11.318,4.959-17.531,11.7a90.458,90.458,0,0,0-17.167,30.009c-3.734,10.8-5.629,20.613-5.629,29.15,0,11.931,2.717,17.981,8.076,17.981h0a10.034,10.034,0,0,0,1.842-.184c4.682-.882,10.033-5.191,15.905-12.808a102.852,102.852,0,0,0,15.074-28.869l.654-1.759,4.338-16.839A89.012,89.012,0,0,0,530,392.764C530,385.54,529.038,376.929,524.445,376.929Z" transform="translate(-60.385 -191.27)" style="fill: url(#linear-gradient-3)"/>
          <path d="M610.545,489.687c-2.826,0-5.889-.062-9.1-.184-13.465-.249-22.045-1.531-26.192-3.918l-1.224-.7,10.292-42.74,2.018.795a65.8,65.8,0,0,0,24.185,4.243,105.138,105.138,0,0,0,19.339-1.937c13.767-2.6,20.748-7.588,20.748-14.839,0-5.471-3.959-9.592-12.1-12.6-9.468-3.48-18.129-6.591-26.474-9.512l-.16-.055-.147-.084c-9.819-5.565-14.8-14.1-14.8-25.364,0-17.747,6.989-34.121,20.773-48.668,13.057-13.683,28.734-22.326,46.6-25.693a118.328,118.328,0,0,1,21.716-2.21c10.706,0,20.043,1.941,27.751,5.768l1.344.668-10.366,43.425-2.153-1.143a59.509,59.509,0,0,0-28.214-6.684,85.716,85.716,0,0,0-15.793,1.556,23.738,23.738,0,0,0-10.618,5.473c-3.36,2.806-5.064,5.749-5.064,8.749,0,1.213,1.288,4.449,13.211,8.3,13.738,4.277,22.711,7.754,27.413,10.623,10.021,6.465,15.082,15.64,15.082,27.3a73.311,73.311,0,0,1-19.737,50.988c-13.05,14.251-29.643,23.358-49.321,27.067A106.629,106.629,0,0,1,610.545,489.687Z" transform="translate(-60.385 -191.27)" style="fill: url(#linear-gradient-4)"/>
          <polygon points="679.113 148.08 657.836 152.091 667.957 111.569 689.23 107.559 707.459 34.911 758.121 25.361 740.228 97.946 769.635 92.402 759.14 132.994 730.115 138.466 697.368 269.555 646.703 279.105 679.113 148.08" style="fill: url(#linear-gradient-5)"/>
          <path d="M902.953,430.764c-.191-.023-.381-.041-.572-.059-.287-.028-.575-.057-.862-.094-25.514-3.38-47.054-16.348-60.652-36.516-13.857-20.552-17.83-46.039-11.187-71.766,10.855-42.041,45.454-66.153,94.928-66.153a158.229,158.229,0,0,1,20.686,1.4c.278.036.552.078.827.119l.58.087,2.112.3L919.7,366.928a2.774,2.774,0,0,1-2.841,2.471c-1.187.013-2.463.023-3.814.023-15.362,0-37.019-1.492-47.7-14.4-2.33-2.816-3.648-2.959-3.889-2.959-.582,0-1.082,1.111-1.214,2.7-.717,8.612,9.579,34.311,49.062,40.928l.588.1.12.013.226.035,1.152.1,2.175.23-8.98,34.783ZM888.2,307.835c-8.117,0-18.063,4.264-20.51,12.165-.68,2.2-.44,2.591-.429,2.607.414.621,4.017.955,7.5,1.278,2.644.245,5.935.551,9.975,1.086q2.627.348,4.888.666a93.584,93.584,0,0,0,10.918,1.168c1.7,0,2.788-.249,3.141-.719,1.04-1.386-.623-7.1-1.333-9.538C900.067,308.684,891.7,307.835,888.2,307.835Z" transform="translate(-60.385 -191.27)" style="fill: url(#linear-gradient-6)"/>
          <path d="M961.576,255.15l50.678-9.553-2.065,8.13c9.554-7.164,18.451-11.556,26.5-13.073a27.509,27.509,0,0,1,5.067-.51,16.63,16.63,0,0,1,6.1,1.06l1.51.593-11.314,49.576-2.037-.791a30.822,30.822,0,0,0-11.1-2.258,23.825,23.825,0,0,0-4.4.407c-11.161,2.1-20.1,11.741-26.572,28.646l-25.591,99.689-50.683,9.554Z" transform="translate(-60.385 -191.27)" style="fill: url(#linear-gradient-7)"/>
        </g>
        <g>
          <path d="M147.112,345.389c14.7-15.224,33.672-37.867,75.328-44.32,23.765-3.682,42.541,2.222,56.719,20.031l-10.465,41.811a42.672,42.672,0,0,0-9.114-9.425q-11.482-9.31-24.309-7.235a34.285,34.285,0,0,0-8.441.579q-37.815,7.127-64.483,80.691-10.809,30.065-10.805,57.4,0,38.488,17.219,44.357a37.381,37.381,0,0,0,9.791,1.531c10.577-2,21.169-7.553,31.3-13.74l21.032-84.24-34.774,6.556,8.778-36.769L240,396l.337-.064,46.591-8.782L245.062,555.414l-39.5,7.447q-19.247,12.741-37.814,16.244-17.558,3.311-32.41-2-20.6-7.592-31.736-29.468T92.46,495.052C92.46,462.417,100.477,393.678,147.112,345.389Z" transform="translate(-60.385 -191.27)" style="fill: url(#linear-gradient-8)"/>
          <path d="M305.012,542.969q-27.345-6.663-27.344-49.2,0-23.629,10.125-49.177,11.142-28.431,30.386-48.774t38.488-23.964q18.9-3.564,30.046,9.864l3.714-14.542,45.578-8.592-29.37,118.975a17.283,17.283,0,0,0-.677,4.517q0,6.757,7.765,5.289a32.865,32.865,0,0,0,9.791-3.87l-8.439,31.3q-17.56,15.123-32.412,17.927-16.884,3.181-28.36-9.847-17.558,16.818-34.774,20.06A36.86,36.86,0,0,1,305.012,542.969Zm56.382-135.884q-8.106,1.527-17.387,13.4t-15.36,29.568q-5.747,16.276-5.741,30.455,0,22.623,11.815,20.392,7.766-1.464,17.219-14.051t15.531-30.609q6.077-16.338,6.077-29.844Q373.548,404.8,361.394,407.085Z" transform="translate(-60.385 -191.27)" style="fill: url(#linear-gradient-9)"/>
          <path d="M463.691,509.463q-27.348-6.318-27.347-47.851,0-22.953,10.128-48.5,11.142-28.765,30.386-48.943t38.485-23.8q18.566-3.5,30.05,9.19l3.376-14.139,46.929-8.846L553.5,494.562a147.289,147.289,0,0,1-5.74,18.3c-7.654,16.974-15.3,32.629-29.142,44.691s-27.351,19.286-41.305,21.916c-8.1,1.529-18.909.316-25.436-1.606a20.506,20.506,0,0,1-8.438-6.172q-4.054-4.644-7.43-9.069l8.441-33.326c6.619,8.663,17.363,14.376,27.627,13.888,14.031-.668,19.657-9.6,25.48-19a69.12,69.12,0,0,0,9.015-20.779l2.7-10.3q-15.873,13.8-31.06,16.659A32.767,32.767,0,0,1,463.691,509.463Zm59.419-132.4q-8.783,1.655-18.568,12.276a91.928,91.928,0,0,0-17.558,30.657q-5.743,16.614-5.738,29.781,0,21.95,12.155,19.65,7.76-1.461,17.049-13.509t15.361-29.4l.676-1.816,4.388-17.033a90.613,90.613,0,0,0,1.013-13.019Q531.888,375.4,523.11,377.061Z" transform="translate(-60.385 -191.27)" style="fill: url(#linear-gradient-10)"/>
          <path d="M703.472,355.158q-19.245-10.214-45.241-5.315a25.459,25.459,0,0,0-11.478,5.879q-5.747,4.8-5.74,10.2t14.518,10.093q20.257,6.307,27.009,10.438,14.181,9.15,14.179,25.686,0,28.7-19.243,49.714T629.2,488.337q-9.8,1.846-27.686,1.167-19.582-.362-25.322-3.667l9.454-39.259q18.565,7.314,44.565,2.405,22.283-4.2,22.284-16.693,0-9.45-13.336-14.367t-26.5-9.522q-13.846-7.849-13.841-23.723,0-25.994,20.256-47.37,19.245-20.169,45.577-25.137,30.048-5.662,48.279,3.394Z" transform="translate(-60.385 -191.27)" style="fill: url(#linear-gradient-11)"/>
          <path d="M756.215,461.081l-46.591,8.783,32.41-131.026-21.269,4.01,9.115-36.493,21.271-4.009L769.38,229.7l46.592-8.783L798.079,293.5l29.371-5.538L818,324.518l-29.036,5.474Z" transform="translate(-60.385 -191.27)" style="fill: url(#linear-gradient-12)"/>
          <path d="M910.589,399.653l-.01.037c-.269-.036-.525-.086-.793-.124s-.532-.052-.8-.087l.01-.037c-58.158-9.748-56.785-61.372-42.194-43.734,11.385,13.763,36.62,13.833,50.035,13.691a.917.917,0,0,0,1.007-.95l28.6-106.914c-.466-.066-.924-.142-1.392-.2-52.128-6.9-100.216,11.751-113.541,63.356s18.133,99.036,70.261,105.94c.468.062.937.095,1.406.15l8.022-31.069C910.991,399.686,910.792,399.676,910.589,399.653Zm-44.7-78.324c4.6-14.852,33.6-19.474,38.276-3.422,4.482,15.4,1.083,13.57-19.673,10.821C867.426,326.468,863.723,328.333,865.892,321.329Z" transform="translate(-60.385 -191.27)" style="fill: url(#linear-gradient-13)"/>
          <path d="M1047.171,244.846,1036.7,290.71a29.9,29.9,0,0,0-16.542-1.946q-17.9,3.373-28.023,29.927l-25.319,98.63L920.228,426.1l42.878-167.435,46.591-8.782-2.7,10.636q16.536-13.578,30.046-16.127Q1043.12,243.248,1047.171,244.846Z" transform="translate(-60.385 -191.27)" style="fill: url(#linear-gradient-14)"/>
        </g>
        <g>
          <path d="M154.657,576.6a49.75,49.75,0,0,1-16.782-2.827c-11.921-4.394-20.956-12.837-27.549-25.785-6.848-13.439-10.32-29.98-10.32-49.166,0-21.118,3.789-93.944,52.535-144.42q1.529-1.582,3.124-3.263c14.108-14.8,31.666-33.223,67.93-38.842a76.981,76.981,0,0,1,11.708-.955c14.744,0,26.147,4.926,35.6,15.443l-6.223,24.866c-.154-.118-.307-.235-.461-.351-7.576-6.107-15.755-9.2-24.312-9.2a36.331,36.331,0,0,0-5.012.352c-.5-.02-1.006-.029-1.508-.029a42.97,42.97,0,0,0-7.954.766c-28.289,5.332-51.246,33.31-70.179,85.534C147.78,449.505,144,469.678,144,488.7c0,29.477,7.276,46.315,22.246,51.472,2.779,1.007,6.55,1.627,11.853,1.949l.935.057.921-.174c12.491-2.356,24.642-9.1,33.832-14.716l2.639-1.613,24.634-98.666-34.9,6.581,4.938-20.685,65.672-12.379L238.907,552.668,202.666,559.5l-1.271.84c-11.934,7.9-23.725,12.988-35.045,15.121A63.4,63.4,0,0,1,154.657,576.6Z" transform="translate(-60.385 -191.27)" style="fill: url(#linear-gradient-15)"/>
          <path d="M311.932,539.9a26.176,26.176,0,0,1-5.257-.519c-5.46-1.332-21.461-5.506-21.461-41.839,0-14.726,3.228-30.336,9.6-46.4,7.049-17.989,16.753-33.58,28.852-46.368,11.656-12.317,23.231-19.63,34.4-21.735a33.539,33.539,0,0,1,6.188-.617,20.278,20.278,0,0,1,16.654,7.885l9.456,11.392,6.188-24.229,29.314-5.526L399.329,479.438a24.753,24.753,0,0,0-.917,6.41c0,7.833,5.139,13.1,12.789,13.1q.663,0,1.362-.052L408.4,514.327c-9.956,8.27-19.078,13.229-27.138,14.749a27.236,27.236,0,0,1-5.023.494c-6.262,0-11.585-2.588-16.274-7.912l-5.2-5.907-5.683,5.444c-10.575,10.129-20.988,16.217-30.951,18.094A33.59,33.59,0,0,1,311.932,539.9Zm51.681-136.808a19.572,19.572,0,0,0-3.618.351c-7.336,1.382-14.511,6.673-21.935,16.174-6.673,8.536-12.242,19.223-16.551,31.762a99.54,99.54,0,0,0-6.15,32.907c0,23.257,9.429,28.139,17.338,28.139h0a18.554,18.554,0,0,0,3.421-.33c7.169-1.352,14.318-6.893,21.857-16.938,6.741-8.975,12.33-19.949,16.609-32.618,4.32-11.647,6.51-22.535,6.51-32.364C381.1,406.61,370.142,403.091,363.613,403.091Z" transform="translate(-60.385 -191.27)" style="fill: url(#linear-gradient-16)"/>
          <path d="M469.045,576.388a57.452,57.452,0,0,1-14.834-1.931,13.657,13.657,0,0,1-5.1-3.962c-1.732-1.984-3.368-3.937-4.886-5.831l4.4-17.364a39.844,39.844,0,0,0,22.219,7.233q.793,0,1.586-.037c18.084-.861,25.543-12.892,31.536-22.559a76.751,76.751,0,0,0,9.921-22.92l8.88-33.874-18.452,16.042c-9.5,8.263-18.759,13.289-27.507,14.938a29.472,29.472,0,0,1-5.435.534,22.777,22.777,0,0,1-5.77-.721l-.215-.053c-5.318-1.228-21.5-4.966-21.5-40.5,0-14.277,3.229-29.658,9.6-45.716,7.058-18.222,16.751-33.853,28.831-46.515,11.661-12.22,23.243-19.485,34.422-21.591a34.184,34.184,0,0,1,6.294-.625A21.512,21.512,0,0,1,539.8,358.4l9.609,10.618,5.568-23.311,30.53-5.755L546.177,496.5a142.5,142.5,0,0,1-5.332,17.1c-7.461,16.541-14.664,31.12-27.189,42.034-12.881,11.227-25.227,17.831-37.745,20.19A37.476,37.476,0,0,1,469.045,576.388Zm55.4-203.232a14.791,14.791,0,0,0-2.734.262c-7.563,1.426-15,6.195-22.72,14.579l-.1.108a99.822,99.822,0,0,0-19.023,33.141c-4.1,11.865-6.172,22.714-6.172,32.3,0,23.851,10.97,27.414,17.509,27.414h0a19.417,19.417,0,0,0,3.59-.348c7.122-1.341,14.2-6.679,21.628-16.318a112.169,112.169,0,0,0,16.482-31.439l.788-2.119,4.587-17.807.059-.4a98.737,98.737,0,0,0,1.092-14.106C539.435,377.54,531.284,373.156,524.445,373.156Z" transform="translate(-60.385 -191.27)" style="fill: url(#linear-gradient-17)"/>
          <path d="M610.545,485.913c-2.708,0-5.65-.059-8.747-.177l-.146,0a115.684,115.684,0,0,1-16.473-1.214l5.906-24.526a80.046,80.046,0,0,0,19.435,2.28,114.585,114.585,0,0,0,21.086-2.1c23.5-4.43,28.435-15.557,28.435-24.11,0-6.708-3.17-15.875-18.271-21.447-9.271-3.407-17.765-6.461-25.946-9.328-6.454-3.852-9.466-9.218-9.466-16.837,0-15.466,5.95-29.263,18.187-42.179,11.809-12.374,25.389-19.875,41.5-22.911a109,109,0,0,1,19.969-2.047,58.8,58.8,0,0,1,18.07,2.563l-5.857,24.535a71.335,71.335,0,0,0-23.851-3.931,95.189,95.189,0,0,0-17.541,1.719,32.972,32.972,0,0,0-14.92,7.5c-5.6,4.679-8.447,10.059-8.447,15.987,0,10.9,14.346,15.533,19.746,17.276,15.9,4.951,22.538,7.973,25.319,9.65,7.259,4.713,10.641,10.846,10.641,19.292,0,17.338-5.647,31.932-17.262,44.618-11.8,12.892-26.234,20.8-44.11,24.166A97.591,97.591,0,0,1,610.545,485.913Z" transform="translate(-60.385 -191.27)" style="fill: url(#linear-gradient-18)"/>
          <polygon points="691.797 141.75 670.557 145.753 675.645 125.379 696.911 121.371 715.14 48.723 745.45 43.01 727.557 115.595 756.783 110.085 751.506 130.494 722.428 135.976 689.681 267.065 659.387 272.775 691.797 141.75" style="fill: url(#linear-gradient-19)"/>
          <path d="M897.567,426.073c-20.517-3.982-37.738-15.069-48.879-31.591-12.325-18.282-15.833-41.058-9.875-64.134,9.694-37.545,40.965-59.078,85.795-59.078,4.016,0,8.125.179,12.281.534l-25.1,93.844c-8.782-.025-30.538-.538-39.173-10.977-3.5-4.233-7.255-6.379-11.157-6.379-4.813,0-9.962,3.51-10.615,11.352-1,12.012,10.229,39.685,48.8,49.333l-.157.592,2.259.31ZM888.2,304.062c-11.776,0-25.7,6.461-29.521,18.808-.6,1.949-2.017,6.514.737,10.638,2.912,4.358,7.512,4.785,14.475,5.431,2.563.237,5.751.533,9.609,1.044q2.6.345,4.832.659a97.328,97.328,0,0,0,12.212,1.257c1.809,0,7.317,0,10.687-4.491,3.578-4.769,2.2-10.9.179-17.837C908.629,310.005,899.736,304.062,888.2,304.062Z" transform="translate(-60.385 -191.27)" style="fill: url(#linear-gradient-20)"/>
          <path d="M969.225,268.968l30.246-5.7-5.444,21.441,17.759-14.58c9.716-7.977,18.468-12.825,26.026-14.418l-6.707,29.387a36.218,36.218,0,0,0-6.188-.547,33.254,33.254,0,0,0-6.155.572c-14.621,2.755-25.951,14.414-33.674,34.652l-.152.4L960.7,414.568l-30.224,5.7Z" transform="translate(-60.385 -191.27)" style="fill: url(#linear-gradient-21)"/>
        </g>
        <g>
          <path d="M154.657,570.943a49.75,49.75,0,0,1-16.782-2.827c-11.921-4.395-20.956-12.838-27.549-25.785-6.848-13.439-10.32-29.98-10.32-49.166,0-21.118,3.789-93.945,52.535-144.42q1.529-1.582,3.124-3.264c14.108-14.8,31.666-33.223,67.93-38.841a76.981,76.981,0,0,1,11.708-.955c14.744,0,26.147,4.925,35.6,15.442l-6.223,24.867c-.154-.118-.307-.235-.461-.351-7.576-6.107-15.755-9.2-24.312-9.2a36.331,36.331,0,0,0-5.012.352c-.5-.02-1.006-.03-1.508-.03a43.056,43.056,0,0,0-7.954.766c-28.289,5.332-51.246,33.311-70.179,85.535C147.78,443.845,144,464.018,144,483.04c0,29.477,7.276,46.315,22.246,51.471,2.779,1.008,6.55,1.628,11.853,1.95l.935.057.921-.174c12.491-2.356,24.642-9.1,33.832-14.717l2.639-1.612,24.634-98.666-34.9,6.58,4.938-20.684,65.672-12.38L238.907,547.007l-36.241,6.833-1.271.841c-11.934,7.9-23.725,12.988-35.045,15.121A63.4,63.4,0,0,1,154.657,570.943Z" transform="translate(-60.385 -191.27)" style="fill: #fff"/>
          <path d="M311.932,534.238a26.176,26.176,0,0,1-5.257-.518c-5.46-1.333-21.461-5.506-21.461-41.839,0-14.726,3.228-30.336,9.6-46.4,7.049-17.989,16.753-33.58,28.852-46.368,11.656-12.317,23.231-19.63,34.4-21.736a33.621,33.621,0,0,1,6.188-.616,20.28,20.28,0,0,1,16.654,7.884l9.456,11.393,6.188-24.229,29.314-5.526L399.329,473.778a24.747,24.747,0,0,0-.917,6.41c0,7.833,5.139,13.1,12.789,13.1q.663,0,1.362-.052L408.4,508.667c-9.956,8.27-19.078,13.229-27.138,14.749a27.236,27.236,0,0,1-5.023.494c-6.262,0-11.585-2.588-16.274-7.912l-5.2-5.907-5.683,5.444c-10.575,10.129-20.988,16.217-30.951,18.094A33.673,33.673,0,0,1,311.932,534.238Zm51.681-136.807a19.572,19.572,0,0,0-3.618.351c-7.336,1.382-14.511,6.673-21.935,16.174-6.673,8.536-12.242,19.222-16.551,31.762a99.54,99.54,0,0,0-6.15,32.907c0,23.256,9.429,28.139,17.338,28.139h0a18.554,18.554,0,0,0,3.421-.33c7.169-1.352,14.318-6.893,21.857-16.938,6.741-8.975,12.33-19.949,16.609-32.619,4.32-11.646,6.51-22.535,6.51-32.363C381.1,400.949,370.142,397.431,363.613,397.431Z" transform="translate(-60.385 -191.27)" style="fill: #fff"/>
          <path d="M469.045,570.728a57.446,57.446,0,0,1-14.834-1.932,13.643,13.643,0,0,1-5.1-3.961c-1.732-1.984-3.368-3.937-4.886-5.832l4.4-17.363a39.844,39.844,0,0,0,22.219,7.233q.793,0,1.586-.038c18.084-.86,25.543-12.891,31.536-22.558a76.762,76.762,0,0,0,9.921-22.92l8.88-33.875-18.452,16.042c-9.5,8.264-18.759,13.29-27.507,14.939a29.472,29.472,0,0,1-5.435.534,22.777,22.777,0,0,1-5.77-.721l-.215-.053c-5.318-1.228-21.5-4.966-21.5-40.5,0-14.277,3.229-29.658,9.6-45.716,7.058-18.222,16.751-33.853,28.831-46.515,11.661-12.22,23.243-19.485,34.422-21.592a34.184,34.184,0,0,1,6.294-.625A21.512,21.512,0,0,1,539.8,352.74l9.609,10.618,5.568-23.311,30.53-5.754L546.177,490.836a142.47,142.47,0,0,1-5.332,17.106c-7.461,16.54-14.664,31.12-27.189,42.034-12.881,11.227-25.227,17.831-37.745,20.19A37.476,37.476,0,0,1,469.045,570.728Zm55.4-203.232a14.791,14.791,0,0,0-2.734.262c-7.563,1.426-15,6.195-22.72,14.579l-.1.108a99.827,99.827,0,0,0-19.023,33.14c-4.1,11.866-6.172,22.715-6.172,32.3,0,23.852,10.97,27.414,17.509,27.414h0a19.414,19.414,0,0,0,3.59-.347c7.122-1.341,14.2-6.679,21.628-16.319A112.142,112.142,0,0,0,532.909,427.2l.788-2.118,4.587-17.807.059-.4a98.737,98.737,0,0,0,1.092-14.106C539.435,371.879,531.284,367.5,524.445,367.5Z" transform="translate(-60.385 -191.27)" style="fill: #fff"/>
          <path d="M610.545,480.253c-2.708,0-5.65-.06-8.747-.177l-.146,0a115.727,115.727,0,0,1-16.473-1.213l5.906-24.526a80.046,80.046,0,0,0,19.435,2.279,114.58,114.58,0,0,0,21.086-2.1c23.5-4.43,28.435-15.557,28.435-24.11,0-6.709-3.17-15.875-18.271-21.447-9.271-3.407-17.765-6.461-25.946-9.329-6.454-3.851-9.466-9.217-9.466-16.836,0-15.467,5.95-29.264,18.187-42.179,11.809-12.375,25.389-19.875,41.5-22.911a108.917,108.917,0,0,1,19.969-2.048,58.794,58.794,0,0,1,18.07,2.564l-5.857,24.535a71.335,71.335,0,0,0-23.851-3.931,95.1,95.1,0,0,0-17.541,1.719,32.962,32.962,0,0,0-14.92,7.5c-5.6,4.679-8.447,10.059-8.447,15.987,0,10.9,14.346,15.532,19.746,17.276,15.9,4.95,22.538,7.973,25.319,9.65,7.259,4.713,10.641,10.845,10.641,19.292,0,17.337-5.647,31.932-17.262,44.617-11.8,12.892-26.234,20.8-44.11,24.167A97.591,97.591,0,0,1,610.545,480.253Z" transform="translate(-60.385 -191.27)" style="fill: #fff"/>
          <polygon points="691.797 136.089 670.557 140.093 675.645 119.719 696.911 115.711 715.14 43.063 745.45 37.35 727.557 109.935 756.783 104.425 751.506 124.834 722.428 130.316 689.681 261.404 659.387 267.115 691.797 136.089" style="fill: #fff"/>
          <path d="M897.567,420.413c-20.517-3.982-37.738-15.069-48.879-31.592-12.325-18.281-15.833-41.058-9.875-64.133,9.694-37.545,40.965-59.078,85.795-59.078,4.016,0,8.125.179,12.281.534l-25.1,93.844c-8.782-.026-30.538-.538-39.173-10.977-3.5-4.233-7.255-6.38-11.157-6.38-4.813,0-9.962,3.511-10.615,11.352-1,12.013,10.229,39.686,48.8,49.333l-.157.593,2.259.309ZM888.2,298.4c-11.776,0-25.7,6.46-29.521,18.808-.6,1.949-2.017,6.514.737,10.638,2.912,4.358,7.512,4.785,14.475,5.431,2.563.237,5.751.533,9.609,1.044,1.73.229,3.339.452,4.832.658a97.328,97.328,0,0,0,12.212,1.257c1.809,0,7.317,0,10.687-4.49,3.578-4.769,2.2-10.9.179-17.837C908.629,304.345,899.736,298.4,888.2,298.4Z" transform="translate(-60.385 -191.27)" style="fill: #fff"/>
          <path d="M969.225,263.308l30.246-5.7-5.444,21.442,17.759-14.58c9.716-7.977,18.468-12.825,26.026-14.418l-6.707,29.387a36.117,36.117,0,0,0-6.188-.547,33.339,33.339,0,0,0-6.155.571c-14.621,2.756-25.951,14.415-33.674,34.653l-.152.4L960.7,408.907l-30.224,5.7Z" transform="translate(-60.385 -191.27)" style="fill: #fff"/>
        </g>
        <g>
          <path d="M154.657,572.83A49.751,49.751,0,0,1,137.875,570c-11.921-4.394-20.956-12.837-27.549-25.784-6.848-13.44-10.32-29.981-10.32-49.166,0-21.118,3.789-93.945,52.535-144.42q1.529-1.583,3.124-3.264c14.108-14.8,31.666-33.223,67.93-38.841a76.987,76.987,0,0,1,11.708-.956c14.744,0,26.147,4.926,35.6,15.443l-6.223,24.866-.461-.351c-7.576-6.107-15.755-9.2-24.312-9.2a36.485,36.485,0,0,0-5.012.351c-.5-.019-1.006-.029-1.508-.029a43.056,43.056,0,0,0-7.954.766c-28.289,5.332-51.246,33.311-70.179,85.535C147.78,445.731,144,465.9,144,484.926c0,29.477,7.276,46.315,22.246,51.472,2.779,1.008,6.55,1.628,11.853,1.95l.935.056.921-.174c12.491-2.355,24.642-9.1,33.832-14.716l2.639-1.612,24.634-98.666-34.9,6.58,4.938-20.685,65.672-12.379L238.907,548.894l-36.241,6.833-1.271.841c-11.934,7.9-23.725,12.988-35.045,15.12A63.318,63.318,0,0,1,154.657,572.83Z" transform="translate(-60.385 -191.27)" style="fill: url(#linear-gradient-22)"/>
          <path d="M311.932,536.125a26.1,26.1,0,0,1-5.257-.519c-5.46-1.332-21.461-5.5-21.461-41.838,0-14.726,3.228-30.336,9.6-46.4,7.049-17.989,16.753-33.58,28.852-46.369,11.656-12.316,23.231-19.629,34.4-21.735a33.626,33.626,0,0,1,6.188-.617,20.281,20.281,0,0,1,16.654,7.885l9.456,11.392L396.55,373.7l29.314-5.527L399.329,475.665a24.746,24.746,0,0,0-.917,6.409c0,7.833,5.139,13.1,12.789,13.1q.663,0,1.362-.051L408.4,510.553c-9.956,8.271-19.078,13.229-27.138,14.75a27.319,27.319,0,0,1-5.023.493c-6.262,0-11.585-2.588-16.274-7.912l-5.2-5.906-5.683,5.443c-10.575,10.129-20.988,16.217-30.951,18.095A33.673,33.673,0,0,1,311.932,536.125Zm51.681-136.807a19.656,19.656,0,0,0-3.618.35c-7.336,1.382-14.511,6.673-21.935,16.175-6.673,8.535-12.242,19.222-16.551,31.761a99.546,99.546,0,0,0-6.15,32.908c0,23.256,9.429,28.138,17.338,28.139h0a18.554,18.554,0,0,0,3.421-.33c7.169-1.353,14.318-6.893,21.857-16.938,6.741-8.975,12.33-19.949,16.609-32.619,4.32-11.646,6.51-22.535,6.51-32.364C381.1,402.836,370.142,399.318,363.613,399.318Z" transform="translate(-60.385 -191.27)" style="fill: url(#linear-gradient-23)"/>
          <path d="M469.045,572.614a57.452,57.452,0,0,1-14.834-1.931,13.636,13.636,0,0,1-5.1-3.962c-1.732-1.984-3.368-3.936-4.886-5.831l4.4-17.364a39.845,39.845,0,0,0,22.219,7.234q.793,0,1.586-.038c18.084-.86,25.543-12.891,31.536-22.558a76.773,76.773,0,0,0,9.921-22.92l8.88-33.875-18.452,16.042c-9.5,8.263-18.759,13.289-27.507,14.939a29.468,29.468,0,0,1-5.435.533,22.777,22.777,0,0,1-5.77-.72l-.215-.054c-5.318-1.228-21.5-4.965-21.5-40.5,0-14.278,3.229-29.658,9.6-45.716,7.058-18.223,16.751-33.854,28.831-46.515,11.661-12.22,23.243-19.485,34.422-21.592a34.184,34.184,0,0,1,6.294-.625,21.512,21.512,0,0,1,16.762,7.463l9.609,10.618,5.568-23.311,30.53-5.755L546.177,492.723a142.531,142.531,0,0,1-5.332,17.106c-7.461,16.54-14.664,31.12-27.189,42.034-12.881,11.227-25.227,17.831-37.745,20.19A37.571,37.571,0,0,1,469.045,572.614Zm55.4-203.232a14.793,14.793,0,0,0-2.734.263c-7.563,1.425-15,6.194-22.72,14.579l-.1.108a99.827,99.827,0,0,0-19.023,33.14c-4.1,11.865-6.172,22.715-6.172,32.3,0,23.851,10.97,27.414,17.509,27.414h0a19.417,19.417,0,0,0,3.59-.348c7.122-1.341,14.2-6.678,21.628-16.318a112.156,112.156,0,0,0,16.482-31.439l.788-2.119,4.587-17.807.059-.4a98.715,98.715,0,0,0,1.092-14.106C539.435,373.766,531.284,369.382,524.445,369.382Z" transform="translate(-60.385 -191.27)" style="fill: url(#linear-gradient-24)"/>
          <path d="M610.545,482.14c-2.708,0-5.65-.06-8.747-.177l-.146,0a115.727,115.727,0,0,1-16.473-1.213l5.906-24.526A80.1,80.1,0,0,0,610.52,458.5a114.585,114.585,0,0,0,21.086-2.1c23.5-4.43,28.435-15.556,28.435-24.109,0-6.709-3.17-15.875-18.271-21.448-9.271-3.406-17.765-6.46-25.946-9.328-6.454-3.851-9.466-9.218-9.466-16.836,0-15.467,5.95-29.264,18.187-42.179,11.809-12.375,25.389-19.875,41.5-22.912a109,109,0,0,1,19.969-2.047,58.764,58.764,0,0,1,18.07,2.564l-5.857,24.534a71.335,71.335,0,0,0-23.851-3.93,95.185,95.185,0,0,0-17.541,1.718,32.974,32.974,0,0,0-14.92,7.506c-5.6,4.679-8.447,10.059-8.447,15.986,0,10.9,14.346,15.533,19.746,17.276,15.9,4.951,22.538,7.973,25.319,9.651,7.259,4.713,10.641,10.845,10.641,19.291,0,17.338-5.647,31.933-17.262,44.618-11.8,12.892-26.234,20.8-44.11,24.167A97.687,97.687,0,0,1,610.545,482.14Z" transform="translate(-60.385 -191.27)" style="fill: url(#linear-gradient-25)"/>
          <polygon points="691.797 137.976 670.557 141.98 675.645 121.606 696.911 117.598 715.14 44.95 745.45 39.236 727.557 111.822 756.783 106.311 751.506 126.721 722.428 132.203 689.681 263.291 659.387 269.001 691.797 137.976" style="fill: url(#linear-gradient-26)"/>
          <path d="M897.567,422.3c-20.517-3.982-37.738-15.07-48.879-31.592-12.325-18.281-15.833-41.058-9.875-64.134,9.694-37.544,40.965-59.077,85.795-59.077,4.016,0,8.125.179,12.281.534l-25.1,93.844c-8.782-.026-30.538-.539-39.173-10.978-3.5-4.232-7.255-6.379-11.157-6.379-4.813,0-9.962,3.51-10.615,11.352-1,12.012,10.229,39.685,48.8,49.333l-.157.592,2.259.31ZM888.2,300.289c-11.776,0-25.7,6.46-29.521,18.807-.6,1.949-2.017,6.515.737,10.638,2.912,4.359,7.512,4.786,14.475,5.432,2.563.237,5.751.533,9.609,1.043,1.73.23,3.339.453,4.832.659a97.328,97.328,0,0,0,12.212,1.257c1.809,0,7.317,0,10.687-4.49,3.578-4.769,2.2-10.9.179-17.837C908.629,306.231,899.736,300.289,888.2,300.289Z" transform="translate(-60.385 -191.27)" style="fill: url(#linear-gradient-27)"/>
          <path d="M969.225,265.2l30.246-5.7-5.444,21.442,17.759-14.581c9.716-7.977,18.468-12.825,26.026-14.417l-6.707,29.387a36.117,36.117,0,0,0-6.188-.547,33.253,33.253,0,0,0-6.155.571c-14.621,2.756-25.951,14.414-33.674,34.652l-.152.4L960.7,410.794l-30.224,5.7Z" transform="translate(-60.385 -191.27)" style="fill: url(#linear-gradient-28)"/>
        </g>
      </g>
      <path d="M989.145,489.426s-366.069,96.114-377.178,98.1-20.641-4.407-21.291-14.271,7.828-19.467,18.936-21.45S989.145,489.426,989.145,489.426Z" transform="translate(-60.385 -191.27)" style="fill: #582d74"/>
      <g>
        <path d="M336.812,451.127c-6.48,28.534-4.124,52.832,15.611,24.483s14.434-53.092,9.721-57.805C362.144,417.805,343.292,422.592,336.812,451.127Z" transform="translate(-60.385 -191.27)" style="fill: #793b96"/>
        <path d="M496.318,417.41c-9.072,18.817-1.344,40.322-1.344,40.322,25.537-14.785,32.258-58.131,28.562-63.843S505.391,398.593,496.318,417.41Z" transform="translate(-60.385 -191.27)" style="fill: #793b96"/>
        <path d="M605.678,412.541c-13.279-12.561-17.226-10.767-17.226-10.767s-13.638,33.736-6.819,35.89,54.551,2.512,58.858-3.23S618.957,425.1,605.678,412.541Z" transform="translate(-60.385 -191.27)" style="fill: #793b96"/>
        <path d="M702.221,360.861c-13.279-2.154-57.782-4.307-43.785,4.665,0,0,31.582,7.537,40.914,24.4s12.075,32.02,16.8,11.7,8.677-48.31,8.677-48.31l-15.073-1.077S715.5,363.014,702.221,360.861Z" transform="translate(-60.385 -191.27)" style="fill: #793b96"/>
        <path d="M276.885,376.253c-2.538-.17-3.045-.846-3.045-.846l-13.2-4.23s-13.027-13.534-23.686-16.918-33.5,17.764-39.249,22.5-19.415,32.313-19.415,32.313-14.065,52.039-16.731,66.97c-3.373,18.888,0,35.343,5.059,40.811,13.228,14.283,34.741-9.443,34.741-9.443l14.84-59.026-26.51-2.023s1.249-41.518,9.708-48.285,55.829-11.843,55.829-11.843S279.422,376.422,276.885,376.253Z" transform="translate(-60.385 -191.27)" style="fill: #793b96"/>
        <path d="M432.044,497.212l-4.293,11s-7.514,15.831-2.952,13.5,5.367,3.034,5.367,3.034l4.025,1.44,14.49-8.318-8.587-11.807Z" transform="translate(-60.385 -191.27)" style="fill: #793b96"/>
        <path d="M471.943,519.031c-9.477,1.128-18.954-4.739-21.21,0s10.83,11.507,10.83,11.507c17.826,4.739,20.533,0,24.821-7.446S481.42,517.9,471.943,519.031Z" transform="translate(-60.385 -191.27)" style="fill: #793b96"/>
        <path d="M914.512,378.385c-7.521-.451-21.811-2.557-32.19-7.22s-11.732-3.159-4.813,6.318,25.722,12.184,25.722,12.184c14.985,4.358,16.7,2.557,18.05-3.31S922.033,378.836,914.512,378.385Z" transform="translate(-60.385 -191.27)" style="fill: #793b96"/>
      </g>
    </g>
  </g>
  <g id="Text">
    <g>
      <path d="M353.7,317.385l-15.349,2.843-2.774,15.708-10.445,1.935,7.655-42.857,28.968-5.365-1.687,9.291-18.58,3.442-1.509,8.567,15.35-2.843Z" transform="translate(-60.385 -191.27)" style="fill: #582d74"/>
      <path d="M386.238,323.531q-4.618,4.685-12.985,6.233t-11.568-1.713q-2.287-2.224-2.25-6.893a26.407,26.407,0,0,1,.5-4.639l4.883-27.436,10.387-1.924-4.881,27.2a19.739,19.739,0,0,0-.255,3.04q-.031,4.037,4.815,3.138a8.3,8.3,0,0,0,4.629-2.354q1.743-1.818,2.467-5.982L386.859,285l10.387-1.924-4.884,27.436Q390.855,318.851,386.238,323.531Z" transform="translate(-60.385 -191.27)" style="fill: #582d74"/>
      <path d="M434.811,276.119l-7.6,42.845L416.769,320.9l-7.092-21.362-4.1,23.436-10.445,1.935,7.656-42.857,10.733-1.988,6.988,19.886,3.918-21.906Z" transform="translate(-60.385 -191.27)" style="fill: #582d74"/>
      <path d="M472.722,269.1l-7.6,42.845-10.445,1.935-7.091-21.362-4.1,23.435-10.444,1.935,7.655-42.857,10.733-1.987,6.988,19.885,3.918-21.9Z" transform="translate(-60.385 -191.27)" style="fill: #582d74"/>
      <path d="M491.245,280.228l9.867-16.39,10.386-1.923L493.524,290.74l-2.954,16.489-10.444,1.935,2.954-16.49-8.57-23.908,11.021-2.042,4.387,13.749Z" transform="translate(-60.385 -191.27)" style="fill: #582d74"/>
      <path d="M528.459,288.413q-.031,3.978,5.71,2.914t5.77-4.637A2.827,2.827,0,0,0,538,283.94a16.146,16.146,0,0,0-4.745-1.135q-2.793-.287-5.583-.836a9.077,9.077,0,0,1-4.734-2.461,7.033,7.033,0,0,1-1.917-5.314q.114-14.468,18.752-17.92,6.808-1.26,10.281.657t3.435,6.473a12.681,12.681,0,0,1-.458,3.278,8.9,8.9,0,0,1-.912,2.328l-.467.777-10.214,1.891a5.55,5.55,0,0,0,1.3-3.577q.03-3.747-4.875-2.839-6.175,1.143-6.205,5.064a2.76,2.76,0,0,0,1.937,2.748,14.657,14.657,0,0,0,4.746.934,52.4,52.4,0,0,1,5.614.6,8.574,8.574,0,0,1,4.763,2.371,7.349,7.349,0,0,1,1.916,5.543q-.058,7.32-4.472,11.677t-13.531,6.046q-9.117,1.689-12.438-.919-2.463-1.962-2.428-6.226a20.811,20.811,0,0,1,.374-3.581l.18-.954,10.387-1.924-.121.713A5.577,5.577,0,0,0,528.459,288.413Z" transform="translate(-60.385 -191.27)" style="fill: #582d74"/>
      <path d="M593.828,255.645l-14.195,2.629-5.969,33.565-10.445,1.934,5.969-33.565-14.252,2.64,1.686-9.291,38.893-7.2Z" transform="translate(-60.385 -191.27)" style="fill: #582d74"/>
      <path d="M618.957,280.428q-4.618,4.684-12.985,6.233T594.4,284.947q-2.287-2.223-2.25-6.892a26.406,26.406,0,0,1,.5-4.639l4.883-27.437,10.387-1.924-4.881,27.206a19.6,19.6,0,0,0-.255,3.04q-.031,4.035,4.815,3.137a8.292,8.292,0,0,0,4.628-2.354q1.743-1.817,2.468-5.982l4.881-27.206,10.387-1.923-4.884,27.436Q623.574,275.748,618.957,280.428Z" transform="translate(-60.385 -191.27)" style="fill: #582d74"/>
      <path d="M656.416,261.317l-15.35,2.843-2.774,15.709L627.848,281.8l7.655-42.856,28.968-5.365-1.687,9.291L644.2,246.314l-1.508,8.567,15.349-2.842Z" transform="translate(-60.385 -191.27)" style="fill: #582d74"/>
      <path d="M688.845,255.311,673.5,258.154l-2.774,15.708L660.277,275.8l7.655-42.856,28.968-5.365-1.687,9.292-18.58,3.441-1.508,8.567,15.349-2.843Z" transform="translate(-60.385 -191.27)" style="fill: #582d74"/>
      <path d="M692.271,266.533a8.9,8.9,0,0,1,1.658-5.689,8.318,8.318,0,0,1,5.149-2.651q4.846-.9,4.814,3.368a7.407,7.407,0,0,1-6.865,8.234Q692.238,270.683,692.271,266.533ZM703.558,252.7l-7.674,1.421,4.395-31.258,9.809-1.818Z" transform="translate(-60.385 -191.27)" style="fill: #582d74"/>
    </g>
    <g>
      <path d="M1092.082,233.572l-7.691,1.244,1.231-5.84,22.012-3.559-1.232,5.839-7.819,1.265-5.254,24.912-6.5,1.051Z" transform="translate(-60.385 -191.27)" style="fill: #431f61"/>
      <path d="M1131.127,239.951c.651-3.676,1.467-8.127,2.41-12.6l-.127.02c-1.721,4.067-3.834,8.64-5.7,12.423l-6.014,12.564-5.057.818-.547-11.415c-.175-3.452-.229-7.675-.062-11.579l-.085.013c-1.046,4.179-2.174,8.945-3.195,12.812l-2.973,11.763-5.992.969L1112.1,224.7l8.626-1.395.639,9.811c.142,3.415.227,7.1.1,10.605l.127-.02c1.558-3.691,3.391-7.909,5.049-11.482l5.214-10.714,8.456-1.368-4.913,30.5-6.332,1.025Z" transform="translate(-60.385 -191.27)" style="fill: #431f61"/>
    </g>
  </g>
</svg>
