<svg id="Layer_1" data-name="Layer 1" xmlns="http://www.w3.org/2000/svg" viewBox="0 0 244.136 83.645">
  <title>GRNLogoNoCircle (1)</title>
  <g>
    <g>
      <g>
        <path d="M377.433,67.927h0v0Z" transform="translate(-315.338 -33.171)" style="fill: none"/>
        <path d="M385.256,64.947a.5.5,0,0,1-.129-.024c0,.113.006.223.01.338C385.181,65.156,385.216,65.052,385.256,64.947Z" transform="translate(-315.338 -33.171)" style="fill: none"/>
        <path d="M386.78,68.074c-.043-.037-.085-.073-.119-.105-.018.069-.03.137-.05.207A.631.631,0,0,0,386.78,68.074Z" transform="translate(-315.338 -33.171)" style="fill: none"/>
        <path d="M373.359,67.858c-.035.035-.084.07-.113.106a.684.684,0,0,0,.159.134C373.388,68.018,373.375,67.938,373.359,67.858Z" transform="translate(-315.338 -33.171)" style="fill: none"/>
        <path d="M387.264,61.573l-.075.022c0,.132-.012.263-.016.394A1.805,1.805,0,0,0,387.264,61.573Z" transform="translate(-315.338 -33.171)" style="fill: none"/>
        <path d="M376.8,65.626a70.809,70.809,0,0,0-1.363-7.224,3.133,3.133,0,0,0-.164-.5c-.065-.2-.127-.4-.2-.6a16.991,16.991,0,0,1,.136,4.083c-1.334-1.8-1.014-3.822-1.174-5.759-.352,2.529-.079,5.064-.278,7.614a15.239,15.239,0,0,0-2.345-3.806c1.961,2.486,1.374,5.476,1.948,8.419.016.08.029.16.046.24a.684.684,0,0,1-.159-.134c-.292-.335-.175-.858-.7-.762-.07,2.266.692,3.835,2.173,4.475a12.973,12.973,0,0,0,7.566,1.013c2.054-.387,4.651-.5,5-3.527.074-.637.166-1.271.238-1.907,0-.034-.1-.081-.085-.068-.593.025-.294.583-.662.886a.631.631,0,0,1-.169.1c.02-.07.032-.138.05-.207a25.842,25.842,0,0,0,.512-5.98c0-.131.011-.262.016-.394.008-.206.015-.412.028-.618-.353.386-.007.9-.375,1.269-.636-.481-.644-.481-.646-1.291-.005-1.817,0-3.634,0-5.451-.625,3.014.309,6.154-.939,9.443-.04.105-.075.209-.119.314,0-.115-.007-.225-.01-.338-.075-2.363-.023-4.434-.988-6.707-.359,1.809.648,3.156.057,4.567-.48-.562.106-1.374-.521-2.112-.081,1.663-.625,3.069-.282,4.559-.977-2.413-.1-4.972-.663-7.41-.078,3.018-.546,6.009-.453,9.037a51.922,51.922,0,0,0-.871-5.875c-.369.97.42,1.863-.294,2.615-.931-1.321-.43-3-.9-4.516-.843.932-.34,1.833-.315,2.7-.559.2-.016.869-.414,1.093-.937-2.246.226-4.593-.291-6.881-.369,4.006-1.734,7.868-1.76,11.93V48.082h-.274C376.954,53.926,376.709,59.769,376.8,65.626Zm-2.011-.034c-.924-1.768-.569-3.368-.65-5.185A7.306,7.306,0,0,1,374.789,65.592Zm6.6.805c.144,1.047.637,2.049.315,3.324A6.007,6.007,0,0,1,381.389,66.4Zm-1.473-4.575c-.007-.01-.01-.02-.017-.03l.021-.018,0,.048c.629.9.094,1.737-.253,2.581Q379.789,63.113,379.916,61.822Z" transform="translate(-315.338 -33.171)" style="fill: #8cc241"/>
        <path d="M379.9,61.792c.007.01.01.02.017.03l0-.048Z" transform="translate(-315.338 -33.171)" style="fill: #fefefe"/>
      </g>
      <g>
        <path d="M347.9,59.84V74.453A12.237,12.237,0,0,1,342.98,84.4a17.194,17.194,0,0,1-21.03.278,15.06,15.06,0,0,1-5.223-7.945h4.1a10.544,10.544,0,0,0,4.214,5.638,11.956,11.956,0,0,0,7.153,2.362,11.623,11.623,0,0,0,8.068-3.25,10.112,10.112,0,0,0,3.41-7.64v-3A15.766,15.766,0,0,1,332.029,76.4a15.259,15.259,0,0,1-11.755-4.741,16.28,16.28,0,0,1-4.936-11.9,16.1,16.1,0,0,1,4.584-11.481,15.941,15.941,0,0,1,23.058-.242A15.661,15.661,0,0,1,347.9,59.84Zm-4.222.307a12.231,12.231,0,0,0-3.537-9.132,11.185,11.185,0,0,0-8.938-3.676,11.519,11.519,0,0,0-8.3,3.983,12.446,12.446,0,0,0-3.341,8.77,12.153,12.153,0,0,0,3.675,8.631,11.692,11.692,0,0,0,8.577,3.563,11.115,11.115,0,0,0,8.326-3.563A12.356,12.356,0,0,0,343.675,60.147Z" transform="translate(-315.338 -33.171)" style="fill: #302f2f"/>
        <path d="M364.788,47.9a7.8,7.8,0,0,0-4.779,1.611,11.218,11.218,0,0,0-2.5,2.612,9.767,9.767,0,0,0-1.056,4.889V75.953h-4.445V44.284h3.945v4.5a9.218,9.218,0,0,1,3.945-3.945,9.354,9.354,0,0,1,4.89-1.167Z" transform="translate(-315.338 -33.171)" style="fill: #302f2f"/>
        <path d="M396.235,60.063v15.89h-4.222V71.008a15.824,15.824,0,0,1-23.744.611,16.121,16.121,0,0,1-4.593-11.5A16.3,16.3,0,0,1,368.621,48.2a15.179,15.179,0,0,1,11.835-4.695,15.906,15.906,0,0,1,11.334,5.083A15.229,15.229,0,0,1,396.235,60.063Zm-4.222-.307a12.3,12.3,0,0,0-3.565-8.575,11.144,11.144,0,0,0-8.3-3.564,11.762,11.762,0,0,0-8.633,3.564,11.948,11.948,0,0,0-3.619,8.631,12.183,12.183,0,0,0,3.314,8.771,11.555,11.555,0,0,0,8.27,3.981,11.212,11.212,0,0,0,8.937-3.647A12.408,12.408,0,0,0,392.013,59.756Z" transform="translate(-315.338 -33.171)" style="fill: #302f2f"/>
        <path d="M420.738,66.508a8.838,8.838,0,0,1-3,7.417,9.86,9.86,0,0,1-7.667,2.861,9.661,9.661,0,0,1-6.695-3.221,10.018,10.018,0,0,1-2.695-7h4.389v1.065a4.89,4.89,0,0,0,1.778,3.364,5.143,5.143,0,0,0,3.778,1.682,5.871,5.871,0,0,0,4.223-1.616,5.452,5.452,0,0,0,1.445-3.79q.055-4.07-4.619-5.573l-3.717-1.182a8.043,8.043,0,0,1-6.11-7.949,7.961,7.961,0,0,1,2.48-6.28,9.382,9.382,0,0,1,6.382-2.779,8.736,8.736,0,0,1,6.046,2.083,7.577,7.577,0,0,1,3.038,5.584v.945h-4.445v-.731a3.234,3.234,0,0,0-1.416-2.729,5.35,5.35,0,0,0-3.251-1.041A4.561,4.561,0,0,0,407.6,48.9a4.226,4.226,0,0,0-1.362,3.073q-.222,3.407,4.056,4.858l3.667,1.23Q420.294,60.229,420.738,66.508Z" transform="translate(-315.338 -33.171)" style="fill: #302f2f"/>
        <path d="M444.907,66.508a8.842,8.842,0,0,1-3,7.417,9.864,9.864,0,0,1-7.668,2.861,9.665,9.665,0,0,1-6.7-3.221,10.021,10.021,0,0,1-2.694-7h4.39v1.065a4.888,4.888,0,0,0,1.777,3.364,5.145,5.145,0,0,0,3.778,1.682,5.871,5.871,0,0,0,4.223-1.616,5.447,5.447,0,0,0,1.444-3.79q.055-4.07-4.618-5.573l-3.718-1.182a8.044,8.044,0,0,1-6.109-7.949,7.958,7.958,0,0,1,2.481-6.28,9.377,9.377,0,0,1,6.38-2.779,8.738,8.738,0,0,1,6.047,2.083,7.58,7.58,0,0,1,3.038,5.584v.945h-4.445v-.731a3.233,3.233,0,0,0-1.417-2.729,5.343,5.343,0,0,0-3.25-1.041,4.565,4.565,0,0,0-3.084,1.285,4.232,4.232,0,0,0-1.361,3.073q-.224,3.407,4.056,4.858l3.667,1.23Q444.463,60.229,444.907,66.508Z" transform="translate(-315.338 -33.171)" style="fill: #302f2f"/>
        <path d="M475.354,47.9a7.8,7.8,0,0,0-4.778,1.611,11.2,11.2,0,0,0-2.5,2.612,9.767,9.767,0,0,0-1.056,4.889V75.953h-4.444V44.284h3.944v4.5a9.212,9.212,0,0,1,3.945-3.945,9.353,9.353,0,0,1,4.889-1.167Z" transform="translate(-315.338 -33.171)" style="fill: #302f2f"/>
        <path d="M506.8,60.119a16.132,16.132,0,0,1-4.972,11.806,15.992,15.992,0,0,1-23-.25,16.778,16.778,0,0,1,.361-23.419,15.289,15.289,0,0,1,11.778-4.75,15.663,15.663,0,0,1,11.224,5.083A16.189,16.189,0,0,1,506.8,60.119Zm-4.222-.335a12.612,12.612,0,0,0-3.592-8.594,11.038,11.038,0,0,0-8.27-3.573,11.513,11.513,0,0,0-8.633,3.544,12.082,12.082,0,0,0-3.619,8.679,12.279,12.279,0,0,0,3.286,8.79,11.305,11.305,0,0,0,8.3,3.934,11,11,0,0,0,8.938-3.628A12.471,12.471,0,0,0,502.58,59.784Z" transform="translate(-315.338 -33.171)" style="fill: #302f2f"/>
        <path d="M543.639,60.119a16.129,16.129,0,0,1-4.973,11.806,15.992,15.992,0,0,1-23-.25,16.779,16.779,0,0,1,.362-23.419,15.287,15.287,0,0,1,11.778-4.75,15.663,15.663,0,0,1,11.224,5.083A16.189,16.189,0,0,1,543.639,60.119Zm-4.223-.335a12.607,12.607,0,0,0-3.591-8.594,11.04,11.04,0,0,0-8.27-3.573,11.513,11.513,0,0,0-8.633,3.544A12.082,12.082,0,0,0,515.3,59.84a12.279,12.279,0,0,0,3.286,8.79,11.305,11.305,0,0,0,8.3,3.934,11,11,0,0,0,8.938-3.628A12.466,12.466,0,0,0,539.416,59.784Z" transform="translate(-315.338 -33.171)" style="fill: #302f2f"/>
        <path d="M559.474,76.62q-11.558,0-11.557-9.834V33.171h4.223V44.228h7.334v3.945H552.14V66.064q0,7.056,7.334,7.055Z" transform="translate(-315.338 -33.171)" style="fill: #302f2f"/>
      </g>
      <g>
        <path d="M448.832,89.589c-.59,2.257-.937,3.507-1.006,3.75-.453,1.841-.973,4.064-1.494,6.668-.382,1.772-.764,3.3-1.181,4.619a17.684,17.684,0,0,0-.382,2.015,17.621,17.621,0,0,1-.347,2.118c-.1.209-.243.522-.417.973-.035.347-.069.8-.1,1.319a2.146,2.146,0,0,0-.521,1.7.482.482,0,0,0-.382-.208q-.364,0-.626.625a2.308,2.308,0,0,0-.208.938.681.681,0,0,0-.555.729c0,.243.174,1.007.174,1.25a.783.783,0,0,1-.382.73,12.164,12.164,0,0,1-.556-1.772c-.035-.66.069-3.056.347-7.259a1.067,1.067,0,0,0,.382-.625c.035-.1-.208-.277-.243-.52a17.451,17.451,0,0,1,.243-3.091,31.094,31.094,0,0,1,.452-3.195,28.769,28.769,0,0,1,.59-4.515,25.225,25.225,0,0,0,.59-3.889.2.2,0,0,0-.173-.07c-.556,0-1.529.695-2.883,2.084a8.487,8.487,0,0,0-1.98,2.465c-.173.174-.416.417-.728.765a23.932,23.932,0,0,0-2.536,4.549c-.486,1.042-1.181,2.639-2.118,4.792-1.216,3.3-2.119,4.932-2.744,4.932h-.452c-.1,0-.485-.451-1.111-1.389-.139.139-.208.208-.243.208a1.453,1.453,0,0,0-.764-1.146,2.512,2.512,0,0,1,.174-1.181c.1-.346.243-.694.348-1.007.034-.763.172-1.91.346-3.4.243-.937.591-2.5,1.077-4.688s.869-3.785,1.146-4.793a25.688,25.688,0,0,0,.452-3.681c-.035.069.034.1.208.1s.277-.173.277-.487a3.847,3.847,0,0,1-.034-.625v-.346c.1-.07.382-.209.8-.453a1.616,1.616,0,0,1,.625-.312c.139,0,.069.1.208.1.174,0,.452-.417.591-.417-.035,0,.174.036.694.14a7,7,0,0,0,.695.9c.312.382.452.591.452.695,0,.243-.452,2.431-1.321,6.529V96.5a1.747,1.747,0,0,1,.244.173,47.323,47.323,0,0,1,5.209-5.626c1.771-1.632,3.542-3.3,5.314-4.966A3.218,3.218,0,0,1,446.3,85.6c.07-.035.382-.139.9-.312.555-.208.833-.313.868-.313.138,0,.729.347.9.347a4.652,4.652,0,0,1,.556.7,2.477,2.477,0,0,1,.035.659Q449.562,86.881,448.832,89.589Z" transform="translate(-315.338 -33.171)" style="fill: #8cc340"/>
        <path d="M461.68,103.133l-.937,3.369a20.81,20.81,0,0,0-.244,2.743,2.7,2.7,0,0,0,.833,2.466c1.494.174,1.181,1.007.348,1.042a3.365,3.365,0,0,1-2.153-.208,5.287,5.287,0,0,1-1.424-1.077,2.233,2.233,0,0,1-.9-1.145,2.7,2.7,0,0,1-.416-1.078,14.294,14.294,0,0,1-2.745,2.536,4.524,4.524,0,0,1-2.465.66,3.356,3.356,0,0,1-3.3-3.543,13.335,13.335,0,0,1,4.341-8.856,7.161,7.161,0,0,1,5.07-2.118,5.928,5.928,0,0,1,1.736.972c.279-.277.313-.659,1.98-.659.695.138,1.077.208,1.181.243a1.025,1.025,0,0,1,.521,1.111A29.341,29.341,0,0,0,461.68,103.133Zm-3.508-2.986a1.7,1.7,0,0,0-1.25.243,13.181,13.181,0,0,0-4.445,5.348c-.73,2.084-.694,3.264.139,3.577.868.312,2.188-.625,4.028-2.779.174-.52.383-1.285.66-2.327l.591-2.083q.26-.833.625-1.771Z" transform="translate(-315.338 -33.171)" style="fill: #8cc340"/>
        <path d="M476.3,109.384a11.038,11.038,0,0,1-1.91,2.327c-.556.521-1.216,1.076-1.945,1.632a3.979,3.979,0,0,1-6.182-1.25,6.714,6.714,0,0,1-1.354-3.924,17.95,17.95,0,0,1,.521-3.681c.313-1.285.59-2.535.9-3.785a6.492,6.492,0,0,1-1.006-.556,1.084,1.084,0,0,0,.1-.9c.034-.035.208-.174.451-.417a1.393,1.393,0,0,1,.591-.382,5.077,5.077,0,0,0,.868-.278,40.112,40.112,0,0,1,5.7-10c.868.244,1.006.938,1.25,1.6a11.733,11.733,0,0,1-1.32,3.856,15.074,15.074,0,0,0-1.389,3.681c.764,0,1.979,0,3.681.034.66.174,1.007.765,1.181.869a4.789,4.789,0,0,0-1.389.59c-1.008.521-1.528.764-1.6.8-.036.034-.7.208-1.946.556-.8.208-1.216.416-1.319.659-.73,2.327-1.147,3.682-1.251,3.994a15.635,15.635,0,0,0-.555,4.064c0,.972,0,1.562.034,1.771.139.764.487,1.146,1.042,1.111a8.624,8.624,0,0,0,3.578-1.667c1.528-1.007,2.361-1.737,2.465-2.153a11.241,11.241,0,0,1,1.806-1.042A6.354,6.354,0,0,1,476.3,109.384Z" transform="translate(-315.338 -33.171)" style="fill: #8cc340"/>
        <path d="M492.83,110.009a4.659,4.659,0,0,1-.313.348c-.729,1.216-1.111,1.805-1.145,1.841a2.624,2.624,0,0,1-2.084.833,9.1,9.1,0,0,1-2.536-.486,1.591,1.591,0,0,1-1.25-1.32q-.26-.99-.417-1.875l-2.4,1.979a5.427,5.427,0,0,1-2.709,1.529,3.01,3.01,0,0,1-2.326-1.077,4.163,4.163,0,0,1-1.216-2.883c0-.173-.313-.486-.313-.764a18.36,18.36,0,0,1,1.667-5c1.25-2.917,2.257-4.376,3.056-4.376.174,0,.834.174.973.174a1.969,1.969,0,0,0,.035.764q.1.678.1.729c0,.139-.451,1.424-1.388,3.89a17.641,17.641,0,0,0-1.355,5.383.738.738,0,0,0,.174.452,17.889,17.889,0,0,0,3.4-2.64,10.239,10.239,0,0,0,2.431-2.952c.451-1.285,1.181-3.16,2.258-5.626.312-.694,1.042-.9,1.215-1.354a5.789,5.789,0,0,0,1.146-.208c.59-.14.9-.209.973-.209.174,0,1.145.278,1.527.278a2.462,2.462,0,0,1,.14.556,11.592,11.592,0,0,1-.9,1.736,24.015,24.015,0,0,0-1.32,2.5,20.333,20.333,0,0,0-1.077,3.091,16.132,16.132,0,0,0-.833,4.376c0,1.042.277,1.563.868,1.563a5.1,5.1,0,0,0,2.014-1.146c.521-.382,1.008-.764,1.494-1.146,0,.034.313.382.313.694C493.039,109.766,492.969,109.87,492.83,110.009Z" transform="translate(-315.338 -33.171)" style="fill: #8cc340"/>
        <path d="M507.969,104.314a3.7,3.7,0,0,1-.416,1.18,3.272,3.272,0,0,1-.695,1.008c-.59.59-.972.9-1.215.9s-.556-.174-.729-.174v-.695s.1-.694.312-2.118a21.031,21.031,0,0,0,.348-2.709c0-.069-.035-.381-.071-.937s-.069-.973-.069-1.216c.069-.069,0-.1-.208-.1-.591,0-1.562,1.007-2.986,2.987a30.746,30.746,0,0,0-2.466,3.959,51.786,51.786,0,0,0-2.432,6.737h-1.7c-.312,0-.729-.451-1.181-1.354a9.248,9.248,0,0,1-.66-1.6l3.855-12.919h.625a13.875,13.875,0,0,1,1.494,1.7,3.278,3.278,0,0,1,.173.972,10.261,10.261,0,0,0,.1,1.042c1.077-1.216,1.841-2.014,2.292-2.431A3.808,3.808,0,0,1,504.67,97.4q.834,0,2.084,1.459a8.5,8.5,0,0,1,1.215,1.667,7.922,7.922,0,0,1,.209,1.111A19,19,0,0,1,507.969,104.314Z" transform="translate(-315.338 -33.171)" style="fill: #8cc340"/>
        <path d="M521.687,103.133l-.938,3.369a20.945,20.945,0,0,0-.243,2.743,2.7,2.7,0,0,0,.833,2.466c1.493.174,1.181,1.007.348,1.042a3.365,3.365,0,0,1-2.153-.208,5.271,5.271,0,0,1-1.424-1.077,2.24,2.24,0,0,1-.9-1.145,2.712,2.712,0,0,1-.416-1.078,14.294,14.294,0,0,1-2.744,2.536,4.524,4.524,0,0,1-2.465.66,3.356,3.356,0,0,1-3.3-3.543,13.339,13.339,0,0,1,4.34-8.856,7.165,7.165,0,0,1,5.071-2.118,5.928,5.928,0,0,1,1.736.972c.278-.277.313-.659,1.98-.659.7.138,1.077.208,1.18.243a1.022,1.022,0,0,1,.522,1.111A29.176,29.176,0,0,0,521.687,103.133Zm-3.508-2.986a1.7,1.7,0,0,0-1.25.243,13.181,13.181,0,0,0-4.445,5.348c-.73,2.084-.7,3.264.138,3.577.869.312,2.188-.625,4.029-2.779.174-.52.382-1.285.66-2.327l.591-2.083q.26-.833.625-1.771Z" transform="translate(-315.338 -33.171)" style="fill: #8cc340"/>
        <path d="M528.388,106.606a10.085,10.085,0,0,0,.069,2.847c.244,1.216.869,1.841,1.841,1.911a7.962,7.962,0,0,0,1.389-.382c1.077-.313,1.7-.521,1.806-.556.9-.312.9,0-.035.938a4.665,4.665,0,0,1-1.632,1.146,8.533,8.533,0,0,1-3.056.451c-1.91-.59-2.466-1.145-3.126-2.361a6.249,6.249,0,0,1-.625-1.563c-.034-.312-.069-.868-.139-1.667l.278-2.674a43.161,43.161,0,0,1,1.459-7.293c.8-2.917,2.048-6.7,3.715-11.391a10.4,10.4,0,0,0,1.286-1.424c.243.034.9-.139,1.18-.035.279,0,.73.625,1.007.66.383-.417.73-.347,1.042.243Q528.754,98.844,528.388,106.606Z" transform="translate(-315.338 -33.171)" style="fill: #8cc340"/>
        <path d="M546.792,96.708a5.469,5.469,0,0,1-.937,1.007c-.382.348-.868.765-1.528,1.285.035-.347.069-.9.138-1.667.105-.763.14-1.354.174-1.771a.7.7,0,0,0-.382-.139c-.451-.034-.972.348-1.493,1.147a4.185,4.185,0,0,0-.7,1.424,12.275,12.275,0,0,0-.278,1.979,3.106,3.106,0,0,0,.1,1.319c.659,5.106.972,8.058.937,8.926a10.969,10.969,0,0,1-.555,3.716c-.522,1.389-1.216,2.049-2.084,2.015-.243,0-1.112.069-1.285.069-1.007-.035-2.049-.868-3.161-2.466a6.352,6.352,0,0,1-1.459-3.369c.071-1.389.939-3.091,2.606-5.07a1.444,1.444,0,0,1,.659.8c.035.625,0,1.772-.1,3.4a4.138,4.138,0,0,0,.589,2.778l.591.348c.59-.7.938-2.292,1.076-4.758a19.876,19.876,0,0,0-.417-3.647c-.172-1.077-.346-2.119-.52-3.161-.105-1.388-.139-2.326-.139-2.5a7.114,7.114,0,0,1,.313-2.4,5.308,5.308,0,0,1,1.424-2.64,4.2,4.2,0,0,1,2.6-.485,7.046,7.046,0,0,1,2.431.8c1.216.59,1.876,1.111,1.91,1.632A1.791,1.791,0,0,1,546.792,96.708Z" transform="translate(-315.338 -33.171)" style="fill: #8cc340"/>
      </g>
    </g>
    <path d="M553.7,88.133a3.8,3.8,0,0,1,1.035.139,3.92,3.92,0,0,1,2.324,1.787,3.883,3.883,0,0,1-.609,4.714,3.889,3.889,0,0,1-1.715,1,3.947,3.947,0,0,1-2.069,0,3.908,3.908,0,0,1-.929-.393,3.928,3.928,0,0,1-1.395-1.395,3.889,3.889,0,0,1,0-3.927,3.95,3.95,0,0,1,1.395-1.395,3.906,3.906,0,0,1,.929-.392A3.806,3.806,0,0,1,553.7,88.133Zm0,7.049a3.121,3.121,0,0,0,.841-.113,3.178,3.178,0,0,0,.754-.319,3.11,3.11,0,0,0,.64-.494,3.177,3.177,0,0,0,.494-.638,3.226,3.226,0,0,0,.317-.754,3.186,3.186,0,0,0,0-1.682,3.19,3.19,0,0,0-.317-.754,3.247,3.247,0,0,0-.494-.64,3.176,3.176,0,0,0-.64-.493,3.217,3.217,0,0,0-.754-.318,3.182,3.182,0,0,0-1.681,0,3.235,3.235,0,0,0-.754.318,3.115,3.115,0,0,0-.639.493,3.173,3.173,0,0,0-.494.64,3.235,3.235,0,0,0-.318.754,3.186,3.186,0,0,0,0,1.682,3.271,3.271,0,0,0,.318.754,3.106,3.106,0,0,0,.494.638,3.052,3.052,0,0,0,.639.494,3.2,3.2,0,0,0,.754.319A3.124,3.124,0,0,0,553.7,95.182Zm1.536-1.506h-.66l-.541-.909c-.043-.072-.085-.138-.127-.2a.708.708,0,0,0-.138-.149.561.561,0,0,0-.176-.094.722.722,0,0,0-.235-.035l-.094,0h-.1v1.38H552.6v-3.4h1.119a1.7,1.7,0,0,1,.418.051,1.018,1.018,0,0,1,.356.163.792.792,0,0,1,.247.285.889.889,0,0,1,.092.418.986.986,0,0,1-.055.331.864.864,0,0,1-.153.27.958.958,0,0,1-.24.2,1.215,1.215,0,0,1-.31.126,1.26,1.26,0,0,1,.308.27,3.361,3.361,0,0,1,.24.329Zm-2.066-2.945v1.105h.47a.681.681,0,0,0,.243-.04.521.521,0,0,0,.191-.117.529.529,0,0,0,.124-.184.647.647,0,0,0,.044-.244.549.549,0,0,0-.046-.236.433.433,0,0,0-.127-.162.526.526,0,0,0-.191-.094.974.974,0,0,0-.234-.028Z" transform="translate(-315.338 -33.171)"/>
  </g>
</svg>
