<?xml version="1.0" encoding="UTF-8"?>
<svg xmlns="http://www.w3.org/2000/svg" viewBox="0 0 186.23 59.76">
  <title>Logo-Blue</title>
  <path d="M118.21,36.18A7.51,7.51,0,0,0,122.78,35c.18-.14.44-.31.67-.17s.06.47,0,.66A7,7,0,0,1,122,38.34a7.55,7.55,0,0,1-10.13.44c-.23-.2-.44-.62-.82-.4a1.62,1.62,0,0,0-.27.91l-.35,3.14c-.11.87,0,1.09.68,1.38a16.13,16.13,0,0,0,9.34.78,9.76,9.76,0,0,0,7.27-5.29,19.51,19.51,0,0,0,1.64-5.83c.82-4.89,1.47-9.8,2.38-14.67.05-.29.16-.7-.26-.75a12,12,0,0,0-4.59.11c-.25.07-.35.32-.46.53s-.43.4-.72.13a6.34,6.34,0,0,0-4.79-1.52,9.15,9.15,0,0,0-3,.35,11.56,11.56,0,0,0-7.56,10.93C110.52,33.4,113.41,36.32,118.21,36.18ZM116,27a5.81,5.81,0,0,1,5-4.5,3.56,3.56,0,0,1,4,3.69c-.09,2.85-2.21,5.55-5.23,5.55A3.77,3.77,0,0,1,116,27Z" transform="translate(-12.36 -9.24)" style="fill:#1647fb"></path>
  <path d="M144.17,68.27a.68.68,0,0,0,.81-.72c.21-2.27.65-4.49,1-6.73.61-3.64.94-7.32,1.7-10.93.1-.48-.11-.53-.46-.53l-3.91,0c-.28,0-.63,0-.69.32-.31,1.26-.78.42-1.2.11a3.07,3.07,0,0,0-.66-.45,9.59,9.59,0,0,0-7.75-.07,12.17,12.17,0,0,0-7.18,12.66,7.87,7.87,0,0,0,3.93,6.17,9.49,9.49,0,0,0,9.5-.79c.25-.21.54-.45.54.16s.38.75.89.75h1.72Zm-5.55-5.13a5,5,0,0,1-4.94,1.06,4.83,4.83,0,0,1-2.54-4.73,7.28,7.28,0,0,1,2.75-5.31,4.38,4.38,0,0,1,4.73-.78c1.78.79,2.19,2.36,2.27,4.15A8.18,8.18,0,0,1,138.62,63.14Z" transform="translate(-12.36 -9.24)" style="fill:#1647fb"></path>
  <path d="M145,37a11.73,11.73,0,0,0,7.7-10.83,8.27,8.27,0,0,0-8.53-8.91c-.69.07-1.4.08-2.07.21a12.47,12.47,0,0,0-9.35,9.65A8.86,8.86,0,0,0,135,35.29C137.85,38.21,141.47,38.34,145,37Zm-3.61-14.45c1.91-1.41,3.92-.8,5.07,1.29s.71,4.4-.39,6.48a5.41,5.41,0,0,1-2.61,2.56,3.67,3.67,0,0,1-5.25-3.07c0-.33,0-.66-.06-1.16A7.46,7.46,0,0,1,141.34,22.51Z" transform="translate(-12.36 -9.24)" style="fill:#1647fb"></path>
  <path d="M169.54,35.2a11.58,11.58,0,0,0,4.57-10.42c-.38-4.22-3.56-8-9.41-7.51-5,.38-10.65,5.53-10.57,11.71,0,4.62,2.84,8.09,7.32,8.63A10.33,10.33,0,0,0,169.54,35.2Zm-9.93-5.93v-.45c.26-2.51,1-4.78,3.22-6.29s4.15-.6,5.25,1.42c1.48,2.73-.05,7.34-2.83,8.77A3.82,3.82,0,0,1,159.61,29.27Z" transform="translate(-12.36 -9.24)" style="fill:#1647fb"></path>
  <path d="M172.28,49.29A8.05,8.05,0,0,0,164.52,54c-1.14,2.79-.45,5.24,1.88,6.42a9.07,9.07,0,0,0,3.09,1,4.45,4.45,0,0,1,2,.64.93.93,0,0,1,.16,1.59,3,3,0,0,1-4.43,0,1.16,1.16,0,0,0-1.46-.35c-1,.44-2,.91-3,1.34-.53.22-.61.59-.32,1a6.76,6.76,0,0,0,3.39,2.9c3.86,1.14,7.84.36,10.56-3,1.67-2.09,1.9-5.29-.55-7.11a6.2,6.2,0,0,0-2.19-1c-1-.28-2.12-.48-3.16-.76s-1.33-1-.72-1.91a1.92,1.92,0,0,1,3.05-.29,1.72,1.72,0,0,0,1.94.55c.79-.2,1.57-.45,2.34-.71.95-.33,1.06-.65.64-1.55A5.44,5.44,0,0,0,172.28,49.29Z" transform="translate(-12.36 -9.24)" style="fill:#1647fb"></path>
  <path d="M163,49.94c.11-.45,0-.62-.45-.62h-2c-.64,0-1.28,0-1.91,0s-.75-.29-.63-.83c.21-.94.41-1.88.62-2.83.08-.35.15-.69-.38-.7-1.54,0-3.08-.06-4.62-.07-.49,0-.72.26-.74.8,0,.88-.18,1.75-.24,2.62a1.1,1.1,0,0,1-.94,1.16c-1.83.24-2.55,1.35-2.56,3.08a.29.29,0,0,1,0,.08s0,1.07.76,1c.39,0,.79,0,1.18,0s.6.22.53.66c-.29,1.73-.57,3.45-.82,5.18a23.86,23.86,0,0,0-.55,4.57c.17,3.17,1.3,4.62,4.34,4.84a12.76,12.76,0,0,0,4.68-.3c.63-.19,1-1.06,1-1.06l.45-2.94s-.14-.57-.54-.48c-.56.13-1.11.3-1.67.38A2.09,2.09,0,0,1,156,62.35c.34-2.69.79-5.38,1.16-8.07.07-.53.32-.63.78-.62,1.24,0,2.49,0,3.72,0,.53,0,.74-.65.74-.65S162.75,51,163,49.94Z" transform="translate(-12.36 -9.24)" style="fill:#1647fb"></path>
  <path d="M125.54,49.25a30,30,0,0,0-4.34.18c-1.55.24-2.71,1.21-4,2.17,0-.66.07-1.18.1-1.71,0-.3,0-.54-.42-.55-1.3,0-2.6-.07-3.9-.08-.62,0-.88.33-.93,1-.11,1.2-.29,2.39-.47,3.58-.44,2.9-.89,5.79-1.37,8.68-.27,1.63-.89,4.9-.89,4.9s.09.82.67.82c1.39,0,2.79,0,4.18.05.71,0,.86-.27.92-.88.32-3,.81-6,1.32-9a3.82,3.82,0,0,1,.79-2.09A6.74,6.74,0,0,1,124,53.94c1.15.26,1.16.25,1.4-.93a30.07,30.07,0,0,1,.72-3C126.3,49.41,126.08,49.25,125.54,49.25Z" transform="translate(-12.36 -9.24)" style="fill:#1647fb"></path>
  <path d="M198,9.24c-1.48,0-3,0-4.45,0-.3,0-.62.09-.62.5-.16,1.26-.56,3.75-.56,3.75s-.51,3.36-.78,5.1a10.59,10.59,0,0,0-7.75-1.09,3.88,3.88,0,0,0-.93.34l-.9.38h0a10.57,10.57,0,0,0-1.32.73c-3.86,2.91-6,6.68-5.35,11.62a7.53,7.53,0,0,0,4.84,6.57,4.87,4.87,0,0,0,1.62.35,12.26,12.26,0,0,0,3,0h0a9.47,9.47,0,0,0,2.62-.61c.73-.32,1.39-1.1,2.19-.12.11.13.4.11.61.12l3.54.1c.48,0,.6-.23.66-.65.57-3.73,1.16-7.46,1.74-11.18.79-5,1.57-10.08,2.41-15.11C198.66,9.43,198.54,9.24,198,9.24Zm-9.3,22c-1.2,1.57-4,2.63-5.87,1.55a4.59,4.59,0,0,1-2.11-2.92h0a6.24,6.24,0,0,1-.1-1.41,8.46,8.46,0,0,1,.08-1.13,6.59,6.59,0,0,1,3.86-5.14,3.85,3.85,0,0,1,5.78,3.25A8.38,8.38,0,0,1,188.66,31.24Z" transform="translate(-12.36 -9.24)" style="fill:#1647fb"></path>
  <path d="M101,43.64a51.53,51.53,0,0,0-6.73-2.13,26.9,26.9,0,0,0-6.86-.95,8.21,8.21,0,0,0-4.28.87,3.32,3.32,0,0,0-1.64,1.89,13.3,13.3,0,0,1-1.61,3.73,4.56,4.56,0,0,1-2.51,2.13c-2.07.55-4.16,1-6.29.14a4.81,4.81,0,0,1-2.75-2.54,12.68,12.68,0,0,1-.48-2.6,5.58,5.58,0,0,0-.29-1.62,5.23,5.23,0,0,0,0-.56,21,21,0,0,0-1.1-4,19.11,19.11,0,0,0-3.94-6.78A25.69,25.69,0,0,0,59,28.13a19.42,19.42,0,0,0-4.67-2.64A13.56,13.56,0,0,0,48,24.66a8.77,8.77,0,0,0-1.52.19,12.39,12.39,0,0,1-3.78.54,8.92,8.92,0,0,1-4.21-1.45c-.83-.53-.85-.5-.28-1.29a3.57,3.57,0,0,0,.31-4,2.58,2.58,0,0,0-2.77-1.27,5.46,5.46,0,0,0-2.53,1.15.52.52,0,0,1-.47.14A1.54,1.54,0,0,1,32,17.27a5.78,5.78,0,0,0,.23-1.37c0-.9-.51-1.59-1.6-1.42a3,3,0,0,0-1.85,1.06c-.16.19-.35.31-.56.13a5.24,5.24,0,0,0-.92-.53,6.71,6.71,0,0,0-3.07-1,43.4,43.4,0,0,1-5.59-.58c-1.32-.19-2.63-.47-4-.55a1,1,0,0,0-.92.51,3.52,3.52,0,0,0-.47,1.4,6,6,0,0,1-.56,2c-.48.87-.48,1,.17,1.8s1.45,1.32,2.06,2.1c.11.15.24.27.2.48a2.48,2.48,0,0,0,.29,1.54,13,13,0,0,0,4.84,5.35,12.6,12.6,0,0,0,2.89,1.26,3.19,3.19,0,0,1,1.35.86,7.36,7.36,0,0,1,1.35,2.82,39.83,39.83,0,0,1,1.24,6.24c.23,1.47.38,3,.51,4.44s.25,1.42-1.18,1.83a6.45,6.45,0,0,0-2.26.81,7.62,7.62,0,0,0-2.88,4.92,1.7,1.7,0,0,0,.77,1.33c.39.18.67-.06,1-.29s.47-.3.62.16.48.67,1,.36a5.76,5.76,0,0,0,1.31-1.25,5.28,5.28,0,0,1,1.2-1.16c.1-.06.2-.11.3,0s0,.14,0,.21a15.06,15.06,0,0,0-.71,4.86,4.77,4.77,0,0,1-.53,2.1,7.21,7.21,0,0,1-1.36,1.5,1.9,1.9,0,0,0-.44,2.41,1.29,1.29,0,0,0,1.24.78,1.12,1.12,0,0,0,1-.73c.1-.22.2-.45.32-.67a2.81,2.81,0,0,1,1.43-1.06,1.88,1.88,0,0,0,1.35-1.67,4.66,4.66,0,0,1,.83-2.34,1.94,1.94,0,0,0,.24-2.07c-.06-.11,0-.28-.07-.41s.05-.26.22-.24a1,1,0,0,0,.81-.38,11.59,11.59,0,0,0,1.82-2.62c.49-.86.78-1.83,1.32-2.66a.76.76,0,0,1,.51-.37,6.28,6.28,0,0,1,1-.13,22.47,22.47,0,0,1,3.36.48c.17,0,.2.16.23.31a7.41,7.41,0,0,0,.9,2.08,16.34,16.34,0,0,0,5.24,4.65c.24.15.49.26.51.6a29.3,29.3,0,0,1-4,.11A4.23,4.23,0,0,1,41.23,55,1.28,1.28,0,0,0,40.1,55a20.26,20.26,0,0,1-2.67,1.05A12.76,12.76,0,0,0,34,58c-.43.34-.38.61.13.85a2.65,2.65,0,0,0,1,.19.4.4,0,0,1,.4.25,1.05,1.05,0,0,0,1.23.43c.45-.19.69-.09.89.36a.84.84,0,0,0,1,.51,6.69,6.69,0,0,0,2-1c.11-.06.2-.24.35-.1.4.37.84.2,1.28.12.13,0,.26-.08.32.06.23.48.6.39,1,.28s.79-.17,1.17-.29a28.1,28.1,0,0,0,4.3-1.32,7.59,7.59,0,0,0,2.4-1.58A3,3,0,0,1,53.7,56a7.63,7.63,0,0,1,3.24.53c.44.19.47.31.13.65a6.64,6.64,0,0,1-1.85,1.23c-1.28.6-2.69.81-4,1.39a3.57,3.57,0,0,0-2.35,2.81c-.2,1.23-.14,1.34,1.09,1.2.59-.07.6-.07.58.5,0,.33,0,.64.35.79s.63-.05.88-.32.67-.64,1.07-1c0,.3-.08.48-.1.66-.06.61.32.95.84.66a3.24,3.24,0,0,0,1.55-1.21c.08-.15.18-.27.36-.23s.12.22.14.35a.48.48,0,0,0,.37.48.62.62,0,0,0,.72-.16,1.09,1.09,0,0,0,.32-.56l.1-.18c.23-.2.21-.49.29-.75A3.92,3.92,0,0,1,58.89,61a7.72,7.72,0,0,0,2.48-2.28.93.93,0,0,1,.36-.29,2.46,2.46,0,0,0,.8-.63,27.53,27.53,0,0,0,3.21-5.1c.13-.24.2-.29.44-.16a14.35,14.35,0,0,0,1.6.84,15.86,15.86,0,0,0,4.31,1.2,12,12,0,0,0,4.56-.33A15.33,15.33,0,0,0,83,50.46a5.44,5.44,0,0,0,1.84-3.54c.06-.62.09-1.25.17-1.86.1-.82.38-1.1,1.2-1.23a8.7,8.7,0,0,1,2.1-.08,55.91,55.91,0,0,1,6.81,1c1.83.36,3.66.81,5.49,1.2A1.17,1.17,0,0,0,102,44.9,1.51,1.51,0,0,0,101,43.64Zm0,1.21c0,.23-.31.12-.48.09-1.53-.3-3.06-.63-4.6-.93a45.81,45.81,0,0,0-8.33-1.1,5.58,5.58,0,0,0-2.43.29,1.22,1.22,0,0,0-.64.58,5.12,5.12,0,0,0-.6,2.27,4.62,4.62,0,0,1-1.37,3.57,14.67,14.67,0,0,1-7.64,4.09,12.37,12.37,0,0,1-2.51,0,14.87,14.87,0,0,1-6-2.22c-.6-.36-.82-.3-1.16.3-.58,1-1.12,2.07-1.74,3.07a16.1,16.1,0,0,1-1.65,2.3.79.79,0,0,1-.32.26,2.48,2.48,0,0,0-1.29,1.2A6.07,6.07,0,0,1,58.71,60a6.33,6.33,0,0,0-1.64,1.54h0v0l-.37.58c-.55-.32-.64-.3-1.15.15a10.59,10.59,0,0,0-1.36,1.32c-.34.4-.53.36-.73,0,0-.09-.06-.12,0-.22a1.33,1.33,0,0,0,.2-1.1c-.09-.44-.43-.56-.8-.29a2.23,2.23,0,0,0-.27.26c-.19.23-.37.7-.56,0,0-.2-.26-.2-.43-.18a1.73,1.73,0,0,0-1,.49,1.18,1.18,0,0,0-.18.21.44.44,0,0,1-.61.18c-.17-.11-.08-.37,0-.56a3.21,3.21,0,0,1,1.67-1.67,11.19,11.19,0,0,1,2-.65,10.42,10.42,0,0,0,4.12-2,1.46,1.46,0,0,0,.64-1.41,1.49,1.49,0,0,0-1.14-1A8.56,8.56,0,0,0,53,55.25a5.15,5.15,0,0,1-.56,0,1.75,1.75,0,0,0-1.25.52,9.19,9.19,0,0,1-4.69,2.52A18.73,18.73,0,0,0,44,59c-.24.1-.45.11-.54-.23s-.36-.41-.69-.26a1.93,1.93,0,0,1-.67.2c-.21,0-.36,0-.48-.21s-.49-.28-.76-.11c-.64.37-1.25.8-1.91,1.15-.37.19-.51.06-.65-.19-.36-.67-.36-.67-1.09-.57-.27,0-.57.17-.66-.31,0-.14-.34-.18-.58-.13s-.4.07-.46-.19.19-.2.3-.27a18.06,18.06,0,0,1,3.69-1.53,8.7,8.7,0,0,0,1.72-.84c-.33.4-.11.44.1.46a11.21,11.21,0,0,0,1.15.12,39,39,0,0,0,5.18-.19c.19,0,.39-.1.58-.14s.47-.17.48-.48a.55.55,0,0,0-.38-.58A14.93,14.93,0,0,1,45.52,53a13,13,0,0,1-3.27-2.83A5.59,5.59,0,0,1,41,47.88a1.7,1.7,0,0,0-1.4-1.36,13.63,13.63,0,0,0-4-.39,2.13,2.13,0,0,0-2,1.66A14.92,14.92,0,0,1,32.6,50a8,8,0,0,1-1.28,1.94,1.22,1.22,0,0,1-.63.42c-.75.18-1,.56-.84,1.34a2.53,2.53,0,0,1-.43,2.29A2.3,2.3,0,0,0,29,57.48a1.76,1.76,0,0,1-1.32,1.75A2.82,2.82,0,0,0,25.89,61c-.08.21-.15.39-.4.39s-.35-.2-.4-.39a1,1,0,0,1,.32-1.14,8,8,0,0,0,1.47-1.55,6.31,6.31,0,0,0,.74-3A23.81,23.81,0,0,1,28.29,51c.11-.37.27-.72.41-1.08A.63.63,0,0,0,28,49a1.75,1.75,0,0,0-.76.34,9.71,9.71,0,0,0-1.78,1.49.8.8,0,0,1-.21.17c0-.19-.06-.34-.1-.49-.1-.51-.48-.66-.85-.29a.64.64,0,0,1-.84.18.74.74,0,0,0-.63.07c-.35.15-.34-.06-.27-.27a2.66,2.66,0,0,1,.26-.6c.59-1.06,1.15-2.17,2.39-2.61.57-.2,1.18-.29,1.76-.44a3.56,3.56,0,0,0,.95-.38,1.4,1.4,0,0,0,.8-1.5c-.56-3.39-.66-6.84-1.51-10.17a15.1,15.1,0,0,0-1.31-3.66,4.89,4.89,0,0,0-1.69-2,3,3,0,0,0-.91-.34A10.9,10.9,0,0,1,18,25.07a9.34,9.34,0,0,1-1.74-2.69,1.88,1.88,0,0,1-.2-.66A3,3,0,0,0,15,19.53c-.48-.44-.93-.92-1.41-1.36a.38.38,0,0,1-.12-.52,13.38,13.38,0,0,0,.87-3c.15-.69.19-.7.87-.59l5.9.88c1.14.17,2.31.07,3.45.27a10.27,10.27,0,0,1,3.18,1.26,3.87,3.87,0,0,1,.43.27c.36.28.63.22.89-.16a4.89,4.89,0,0,1,1.27-1.08.8.8,0,0,1,.8-.06.65.65,0,0,1,.22.72,9.17,9.17,0,0,1-.27,1,1.23,1.23,0,0,0,.21,1.31,12.32,12.32,0,0,0,.94,1,1.06,1.06,0,0,0,1.37,0,8.6,8.6,0,0,1,2-1.11c.66-.21,1.95.08,2.15.78a6.53,6.53,0,0,1,.34,1,3,3,0,0,1-1,2.35c-.76.93-.81,1,.15,1.76a9.14,9.14,0,0,0,6.39,1.92c1.54-.11,3-.36,4.56-.61a11.06,11.06,0,0,1,4,.31,17.71,17.71,0,0,1,7,3.59,17.65,17.65,0,0,1,5.63,7.17,25.87,25.87,0,0,1,1.65,5.46c.18,1,.29,1.93.43,2.89h0a5.52,5.52,0,0,0,3.35,5,8.6,8.6,0,0,0,4.51.58A8.58,8.58,0,0,0,78,49.93,6.62,6.62,0,0,0,80.29,48,8.55,8.55,0,0,0,82,44.61c.45-2,1.61-2.71,3.51-3.08a16.5,16.5,0,0,1,6,.32,53.58,53.58,0,0,1,7.36,2c.59.19,1.15.46,1.72.69C100.75,44.57,101,44.67,101,44.85Z" transform="translate(-12.36 -9.24)" style="fill:#1647fb"></path>
</svg>
