<svg id="Pavlok_Black" data-name="Pavlok, Black" xmlns="http://www.w3.org/2000/svg" viewBox="0 0 326.6 60.64"><defs><style>.cls-1{fill:#231f20;}</style></defs><title>pavlok-logo</title><path class="cls-1" d="M13.51,59.72H0V1H22.65C38.93,1,43.88,12.4,43.88,20.37,43.88,32.12,33.56,40,23.66,40H13.51ZM30.46,20.37c0-2.44-1.34-7-7.38-7H13.51v14h9.81A7,7,0,0,0,30.46,20.37Z"/><path class="cls-1" d="M101.6,59.72h-15L81.47,47.47H64.85L59.74,59.72h-15L72.57.49h1.17ZM69.22,36.9H77l-3.86-9.4Z"/><path class="cls-1" d="M123.08,60.22H121.9L94,1h15l13.43,32.21L135.91,1h15Z"/><path class="cls-1" d="M175.34,47.22h21.23v12.5H161.83V1h13.51Z"/><path class="cls-1" d="M275.85,59.72V1h13.51V23.31L308.81,1h15.78l.25.83-24.92,27.6L326.6,58.88l-.33.84h-15.6L289.35,35.55V59.72Z"/><path class="cls-1" d="M234.27.44h-.1c0,.08,20.2,35.25,20.2,35.25h0l.07.09H230.14l4.93,1.05a.86.86,0,0,1,.46.36L243.13,58l-.23,0-28.13-33.7h20.45a5.73,5.73,0,0,0-1.09-.26l-5.76-1.24a1,1,0,0,1-.31-.17l-.17-.2c0-.07-12.34-15.44-12.57-15.67-7.23,6.27-9.84,15.95-9.84,23.43,0,12.4,6.78,29.92,28.76,29.92s28.68-17.52,28.68-29.92C262.95,18.21,256.17.44,234.27.44Z"/></svg>