<svg xmlns="http://www.w3.org/2000/svg" viewBox="0 0 457.64 151.29"><title>Asset 2</title><path d="M189.1,34.28H161a1.38,1.38,0,0,0-1.38,1.38V94A1.38,1.38,0,0,0,161,95.39h4A1.39,1.39,0,0,0,166.4,94V73.13h22.54c13,0,22.05-7.73,22.05-18.8C211,41.77,202.81,34.28,189.1,34.28Zm-.16,32.59H166.4V40.54h22.7c9.75,0,15.12,4.9,15.12,13.79C204.22,62,198.22,66.87,188.94,66.87Z" style="fill:teal"/><path d="M265.62,34.28H221.86a1.38,1.38,0,0,0-1.38,1.38V94a1.38,1.38,0,0,0,1.38,1.39h43.76A1.39,1.39,0,0,0,267,94V90.5a1.38,1.38,0,0,0-1.39-1.38H227.33V68h36.79a1.39,1.39,0,0,0,1.39-1.39v-3.5a1.38,1.38,0,0,0-1.39-1.38H227.33V40.54h38.29A1.38,1.38,0,0,0,267,39.16v-3.5A1.38,1.38,0,0,0,265.62,34.28Z" style="fill:teal"/><path d="M300.72,34.19H275a1.38,1.38,0,0,0-1.38,1.39V94A1.38,1.38,0,0,0,275,95.39h25.76c20,0,30.47-15.37,30.47-30.56S320.72,34.19,300.72,34.19ZM300.8,89H280.51V40.79H300.8c16.29,0,23.7,12.55,23.7,24.21C324.5,76.92,317.17,89,300.8,89Z" style="fill:teal"/><path d="M370.5,70.63h1.07c13.24,0,22.14-7.35,22.14-18.3a16.68,16.68,0,0,0-6-13.25c-4-3.19-9.67-4.8-16.86-4.8h-29a1.38,1.38,0,0,0-1.38,1.38V94a1.38,1.38,0,0,0,1.38,1.39h4.09A1.38,1.38,0,0,0,347.28,94V70.72h13.81L386.36,95a1.38,1.38,0,0,0,1,.39h5.17A1.38,1.38,0,0,0,393.87,94v-.25a1.38,1.38,0,0,0-.42-1ZM347.28,40.54h23.54c6,0,16,1.54,16,11.79,0,7.64-5.3,11.83-15.29,12.12H347.28Z" style="fill:teal"/><path d="M455.13,92.76,432.18,70.63h1.07c13.24,0,22.14-7.35,22.14-18.3a16.7,16.7,0,0,0-6-13.25c-4-3.19-9.68-4.8-16.87-4.8h-29a1.38,1.38,0,0,0-1.39,1.38V94a1.39,1.39,0,0,0,1.39,1.39h4.08A1.38,1.38,0,0,0,409,94V70.72h13.82L448.05,95a1.36,1.36,0,0,0,1,.39h5.16A1.39,1.39,0,0,0,455.56,94v-.25A1.39,1.39,0,0,0,455.13,92.76ZM409,40.54H432.5c6,0,16,1.54,16,11.79,0,7.64-5.3,11.83-15.29,12.12H409Z" style="fill:teal"/><path d="M169.85,114.57v1.5h-7.69v-12.4h7.69v1.49H164v3.93h4.7v1.44H164v4Z" style="fill:#303030"/><path d="M177.51,108.93a.53.53,0,0,1-.15.15.33.33,0,0,1-.21.06.53.53,0,0,1-.29-.11,3.77,3.77,0,0,0-.38-.23,3.26,3.26,0,0,0-.55-.23,2.34,2.34,0,0,0-.8-.11,2.57,2.57,0,0,0-1.1.22,2.24,2.24,0,0,0-.79.64,3.05,3.05,0,0,0-.48,1,5.53,5.53,0,0,0-.16,1.34,5.19,5.19,0,0,0,.17,1.37,2.9,2.9,0,0,0,.5,1,2.1,2.1,0,0,0,.77.62,2.45,2.45,0,0,0,1,.21,2.6,2.6,0,0,0,.9-.13,3.24,3.24,0,0,0,.59-.29,3.39,3.39,0,0,0,.38-.29.51.51,0,0,1,.32-.13.37.37,0,0,1,.32.15l.49.62a3.11,3.11,0,0,1-.68.63,3.64,3.64,0,0,1-.8.43,4.4,4.4,0,0,1-.88.24,5.86,5.86,0,0,1-.94.08,3.7,3.7,0,0,1-1.53-.31A3.39,3.39,0,0,1,172,115a4.11,4.11,0,0,1-.82-1.42,5.67,5.67,0,0,1-.3-1.91,5.76,5.76,0,0,1,.27-1.8,4,4,0,0,1,.8-1.43,3.58,3.58,0,0,1,1.31-.94,4.35,4.35,0,0,1,1.78-.34,4.22,4.22,0,0,1,1.65.3,3.92,3.92,0,0,1,1.28.85Z" style="fill:#303030"/><path d="M183.21,107.16a4.62,4.62,0,0,1,1.75.31,3.63,3.63,0,0,1,1.33.91,3.88,3.88,0,0,1,.84,1.42,6,6,0,0,1,0,3.74,3.84,3.84,0,0,1-.84,1.43,3.73,3.73,0,0,1-1.33.9,4.95,4.95,0,0,1-3.5,0,3.68,3.68,0,0,1-1.34-.9,4,4,0,0,1-.85-1.43,6,6,0,0,1,0-3.74,4,4,0,0,1,.85-1.42,3.59,3.59,0,0,1,1.34-.91A4.62,4.62,0,0,1,183.21,107.16Zm0,7.71a2.17,2.17,0,0,0,1.86-.83,4.87,4.87,0,0,0,0-4.72,2.15,2.15,0,0,0-1.86-.84,2.19,2.19,0,0,0-1.88.84,4.87,4.87,0,0,0,0,4.72A2.21,2.21,0,0,0,183.21,114.87Z" style="fill:#303030"/><path d="M194.47,108.8a.39.39,0,0,1-.15.16.29.29,0,0,1-.19.05.64.64,0,0,1-.31-.09,3.09,3.09,0,0,0-.41-.21,4.24,4.24,0,0,0-.55-.21,2.88,2.88,0,0,0-.76-.09,2.29,2.29,0,0,0-.66.09,1.52,1.52,0,0,0-.51.25,1.07,1.07,0,0,0-.32.38,1,1,0,0,0-.11.47.76.76,0,0,0,.19.54,1.53,1.53,0,0,0,.51.37,4,4,0,0,0,.72.28l.82.27c.28.09.55.2.82.31a3.22,3.22,0,0,1,.72.44,2.12,2.12,0,0,1,.51.64,1.93,1.93,0,0,1,.19.9,2.86,2.86,0,0,1-.22,1.14,2.42,2.42,0,0,1-.65.9,3,3,0,0,1-1.05.6,4.66,4.66,0,0,1-1.45.21,4.55,4.55,0,0,1-1.67-.3,4.29,4.29,0,0,1-1.29-.77l.4-.64a.45.45,0,0,1,.17-.19.58.58,0,0,1,.61.06l.42.26a3.7,3.7,0,0,0,.59.26,2.64,2.64,0,0,0,.86.11,2.39,2.39,0,0,0,.75-.1,1.6,1.6,0,0,0,.53-.3,1.18,1.18,0,0,0,.32-.42,1.25,1.25,0,0,0,.1-.51.88.88,0,0,0-.19-.58,1.72,1.72,0,0,0-.51-.39,4.9,4.9,0,0,0-.72-.29l-.83-.25c-.28-.1-.56-.2-.83-.32a3,3,0,0,1-.72-.46,2.17,2.17,0,0,1-.51-.68,2.13,2.13,0,0,1-.2-1,2.23,2.23,0,0,1,.22-1,2.41,2.41,0,0,1,.61-.82,3.16,3.16,0,0,1,1-.56,4.07,4.07,0,0,1,1.35-.21,4.4,4.4,0,0,1,1.58.27,3.52,3.52,0,0,1,1.2.76Z" style="fill:#303030"/><path d="M204.31,107.29l-4.87,11.32a.88.88,0,0,1-.21.3.59.59,0,0,1-.38.1H197.6l1.6-3.5-3.6-8.22h1.47a.51.51,0,0,1,.34.11.53.53,0,0,1,.17.23l2.23,5.27c0,.13.09.26.13.4s.08.27.11.4c0-.14.08-.28.13-.41a2.74,2.74,0,0,1,.15-.4l2.15-5.26a.48.48,0,0,1,.18-.24.47.47,0,0,1,.3-.1Z" style="fill:#303030"/><path d="M210.61,108.8a.47.47,0,0,1-.15.16.31.31,0,0,1-.2.05.64.64,0,0,1-.3-.09,4.62,4.62,0,0,0-1-.42,2.78,2.78,0,0,0-.76-.09,2.29,2.29,0,0,0-.66.09,1.47,1.47,0,0,0-.5.25,1,1,0,0,0-.32.38.93.93,0,0,0-.11.47.76.76,0,0,0,.19.54,1.53,1.53,0,0,0,.51.37,4,4,0,0,0,.72.28l.82.27c.28.09.55.2.82.31a3.39,3.39,0,0,1,.71.44,2.12,2.12,0,0,1,.51.64,1.93,1.93,0,0,1,.2.9,3,3,0,0,1-.22,1.14,2.54,2.54,0,0,1-.65.9,3.12,3.12,0,0,1-1.06.6,4.91,4.91,0,0,1-3.11-.09,4.05,4.05,0,0,1-1.29-.77l.4-.64a.45.45,0,0,1,.17-.19.55.55,0,0,1,.28-.06.58.58,0,0,1,.33.12l.42.26a3.56,3.56,0,0,0,.58.26,2.71,2.71,0,0,0,.87.11,2.48,2.48,0,0,0,.75-.1,1.6,1.6,0,0,0,.53-.3,1.15,1.15,0,0,0,.31-.42,1.26,1.26,0,0,0,.11-.51.89.89,0,0,0-.2-.58,1.72,1.72,0,0,0-.51-.39,4.9,4.9,0,0,0-.72-.29l-.83-.25c-.28-.1-.55-.2-.82-.32a2.83,2.83,0,0,1-.73-.46,2.17,2.17,0,0,1-.51-.68,2.13,2.13,0,0,1-.19-1,2.37,2.37,0,0,1,.21-1,2.44,2.44,0,0,1,.62-.82,3,3,0,0,1,1-.56,4,4,0,0,1,1.35-.21,4.4,4.4,0,0,1,1.58.27,3.61,3.61,0,0,1,1.2.76Z" style="fill:#303030"/><path d="M215.69,116.2a2.19,2.19,0,0,1-1.64-.59,2.38,2.38,0,0,1-.57-1.7v-5.25h-1a.37.37,0,0,1-.25-.09.34.34,0,0,1-.1-.28v-.68l1.43-.2.38-2.61a.35.35,0,0,1,.13-.23.36.36,0,0,1,.25-.08h.86v2.94h2.49v1.23h-2.49v5.13a1.06,1.06,0,0,0,.25.78.89.89,0,0,0,.66.25,1.2,1.2,0,0,0,.4-.06,1.57,1.57,0,0,0,.29-.13,1.15,1.15,0,0,0,.2-.14.29.29,0,0,1,.16-.06.22.22,0,0,1,.13,0,.49.49,0,0,1,.1.13l.5.81a2.92,2.92,0,0,1-1,.59A3.66,3.66,0,0,1,215.69,116.2Z" style="fill:#303030"/><path d="M226.34,114.81a3.33,3.33,0,0,1-.72.63,3.84,3.84,0,0,1-.86.43,5.09,5.09,0,0,1-.95.24,6.22,6.22,0,0,1-1,.08,4.64,4.64,0,0,1-1.68-.31,3.69,3.69,0,0,1-1.34-.9,4.12,4.12,0,0,1-.88-1.47,5.89,5.89,0,0,1-.31-2,5,5,0,0,1,.28-1.71,4,4,0,0,1,.82-1.37,3.72,3.72,0,0,1,1.3-.93,4.32,4.32,0,0,1,1.72-.33,4,4,0,0,1,1.49.26,3.29,3.29,0,0,1,1.17.76,3.78,3.78,0,0,1,.77,1.24,4.61,4.61,0,0,1,.28,1.67,1,1,0,0,1-.09.52.34.34,0,0,1-.32.14h-5.75a4.61,4.61,0,0,0,.23,1.37,2.62,2.62,0,0,0,.55,1,2.19,2.19,0,0,0,.83.58,3.06,3.06,0,0,0,1.08.19,3.45,3.45,0,0,0,1-.13,5.54,5.54,0,0,0,.71-.28c.2-.1.36-.2.5-.28a.64.64,0,0,1,.36-.13.39.39,0,0,1,.32.15ZM225,110.7a3,3,0,0,0-.14-.92,2.18,2.18,0,0,0-.42-.73,2,2,0,0,0-.68-.49,2.31,2.31,0,0,0-.91-.17,2.23,2.23,0,0,0-1.67.61,3,3,0,0,0-.77,1.7Z" style="fill:#303030"/><path d="M228.28,116.07v-8.78h1a.41.41,0,0,1,.44.34l.12.84a4.58,4.58,0,0,1,1.08-1,2.6,2.6,0,0,1,1.38-.36,2,2,0,0,1,1.42.47,2.75,2.75,0,0,1,.79,1.3,2.93,2.93,0,0,1,.5-.8,2.69,2.69,0,0,1,.67-.55,2.85,2.85,0,0,1,.79-.32,3.47,3.47,0,0,1,.85-.1,3.28,3.28,0,0,1,1.25.22,2.5,2.5,0,0,1,.93.64,2.82,2.82,0,0,1,.57,1,4.47,4.47,0,0,1,.2,1.42v5.59h-1.69v-5.59a2.23,2.23,0,0,0-.43-1.49,1.55,1.55,0,0,0-1.24-.5,1.77,1.77,0,0,0-.69.13,1.69,1.69,0,0,0-.58.37,2,2,0,0,0-.39.63,2.46,2.46,0,0,0-.14.86v5.59h-1.69v-5.59A2.3,2.3,0,0,0,233,109a1.45,1.45,0,0,0-1.19-.49,1.91,1.91,0,0,0-1,.29,3.4,3.4,0,0,0-.85.77v6.52Z" style="fill:#303030"/><path d="M247.73,108.8a.47.47,0,0,1-.15.16.31.31,0,0,1-.2.05.71.71,0,0,1-.31-.09,2.92,2.92,0,0,0-.4-.21,3.91,3.91,0,0,0-.56-.21,2.78,2.78,0,0,0-.76-.09,2.29,2.29,0,0,0-.66.09,1.38,1.38,0,0,0-.5.25,1,1,0,0,0-.32.38.94.94,0,0,0-.12.47.77.77,0,0,0,.2.54,1.53,1.53,0,0,0,.51.37,4,4,0,0,0,.72.28l.82.27c.28.09.55.2.82.31a3.39,3.39,0,0,1,.71.44,2.12,2.12,0,0,1,.51.64,1.93,1.93,0,0,1,.2.9,3,3,0,0,1-.22,1.14,2.54,2.54,0,0,1-.65.9,3.12,3.12,0,0,1-1.06.6,4.55,4.55,0,0,1-1.44.21,4.6,4.6,0,0,1-1.68-.3,4.12,4.12,0,0,1-1.28-.77l.39-.64a.55.55,0,0,1,.18-.19.54.54,0,0,1,.27-.06.59.59,0,0,1,.34.12c.11.08.25.16.41.26a4.15,4.15,0,0,0,.59.26,2.71,2.71,0,0,0,.87.11,2.48,2.48,0,0,0,.75-.1,1.6,1.6,0,0,0,.53-.3,1.15,1.15,0,0,0,.31-.42,1.26,1.26,0,0,0,.11-.51.89.89,0,0,0-.2-.58,1.72,1.72,0,0,0-.51-.39,4.9,4.9,0,0,0-.72-.29l-.83-.25c-.28-.1-.56-.2-.83-.32a3,3,0,0,1-.72-.46,2.17,2.17,0,0,1-.51-.68,2.13,2.13,0,0,1-.19-1,2.37,2.37,0,0,1,.21-1,2.55,2.55,0,0,1,.61-.82,3.1,3.1,0,0,1,1-.56,4,4,0,0,1,1.35-.21,4.35,4.35,0,0,1,1.57.27,3.66,3.66,0,0,1,1.21.76Z" style="fill:#303030"/><path d="M255,116.07v-7.4l-.92-.11a.73.73,0,0,1-.32-.14.34.34,0,0,1-.13-.29v-.7H255v-.79a4,4,0,0,1,.21-1.34,2.82,2.82,0,0,1,.62-1,2.65,2.65,0,0,1,1-.62,3.6,3.6,0,0,1,1.27-.21,3.52,3.52,0,0,1,1.1.17l0,.85a.24.24,0,0,1-.07.17.48.48,0,0,1-.16.08,1.29,1.29,0,0,1-.24,0h-.31a2.24,2.24,0,0,0-.7.1,1.22,1.22,0,0,0-.55.32,1.41,1.41,0,0,0-.34.59,3,3,0,0,0-.12.91v.74h2.46v1.23h-2.41v7.41Z" style="fill:#303030"/><path d="M264,107.16a4.7,4.7,0,0,1,1.75.31,3.51,3.51,0,0,1,1.32.91,4,4,0,0,1,.85,1.42,6.17,6.17,0,0,1,0,3.74,4,4,0,0,1-.85,1.43,3.61,3.61,0,0,1-1.32.9,5,5,0,0,1-3.51,0,3.64,3.64,0,0,1-1.33-.9,4,4,0,0,1-.86-1.43,6.17,6.17,0,0,1,0-3.74,4.06,4.06,0,0,1,.86-1.42,3.55,3.55,0,0,1,1.33-.91A4.68,4.68,0,0,1,264,107.16Zm0,7.71a2.15,2.15,0,0,0,1.85-.83,4.8,4.8,0,0,0,0-4.72,2.14,2.14,0,0,0-1.85-.84,2.18,2.18,0,0,0-1.88.84,4.8,4.8,0,0,0,0,4.72A2.2,2.2,0,0,0,264,114.87Z" style="fill:#303030"/><path d="M271.65,109a4.08,4.08,0,0,1,1-1.36,2.18,2.18,0,0,1,1.43-.49,2.29,2.29,0,0,1,.54.06,1.54,1.54,0,0,1,.45.2l-.11,1.27a.28.28,0,0,1-.29.23,1.5,1.5,0,0,1-.36,0,2.82,2.82,0,0,0-.52,0,2,2,0,0,0-.72.11,1.61,1.61,0,0,0-.55.35,2.27,2.27,0,0,0-.44.56,5.25,5.25,0,0,0-.35.75v5.5h-1.69v-8.78h1a.58.58,0,0,1,.38.1.77.77,0,0,1,.14.35Z" style="fill:#303030"/><path d="M291.55,109.87a6.86,6.86,0,0,1-.44,2.53,5.66,5.66,0,0,1-1.26,1.95,5.59,5.59,0,0,1-1.94,1.27,6.72,6.72,0,0,1-2.51.45h-4.67v-12.4h4.67a6.72,6.72,0,0,1,2.51.45,5.56,5.56,0,0,1,1.94,1.26,5.7,5.7,0,0,1,1.26,2A6.86,6.86,0,0,1,291.55,109.87Zm-1.88,0a6.06,6.06,0,0,0-.3-2,4.2,4.2,0,0,0-.86-1.49,3.55,3.55,0,0,0-1.35-.93,4.68,4.68,0,0,0-1.76-.32h-2.82v9.43h2.82a4.68,4.68,0,0,0,1.76-.32,3.55,3.55,0,0,0,1.35-.93,4.15,4.15,0,0,0,.86-1.48A6.06,6.06,0,0,0,289.67,109.87Z" style="fill:#303030"/><path d="M295.44,104.58a1,1,0,0,1-.1.45,1.15,1.15,0,0,1-.25.37,1.25,1.25,0,0,1-.38.25,1.12,1.12,0,0,1-.44.09,1.13,1.13,0,0,1-.45-.09,1.29,1.29,0,0,1-.36-.25,1.15,1.15,0,0,1-.25-.37,1.17,1.17,0,0,1,0-.9,1.05,1.05,0,0,1,.25-.37,1.11,1.11,0,0,1,.36-.25,1.13,1.13,0,0,1,.45-.09,1.12,1.12,0,0,1,.44.09,1.09,1.09,0,0,1,.38.25,1.05,1.05,0,0,1,.25.37A1,1,0,0,1,295.44,104.58Zm-.32,2.71v8.78h-1.68v-8.78Z" style="fill:#303030"/><path d="M302.73,108.8a.38.38,0,0,1-.14.16.31.31,0,0,1-.2.05.71.71,0,0,1-.31-.09,2.92,2.92,0,0,0-.4-.21,4.42,4.42,0,0,0-.56-.21,2.83,2.83,0,0,0-.76-.09,2.29,2.29,0,0,0-.66.09,1.38,1.38,0,0,0-.5.25,1,1,0,0,0-.32.38.94.94,0,0,0-.12.47.77.77,0,0,0,.2.54,1.53,1.53,0,0,0,.51.37,4.2,4.2,0,0,0,.71.28l.82.27c.28.09.56.2.82.31a3.22,3.22,0,0,1,.72.44,2.12,2.12,0,0,1,.51.64,1.93,1.93,0,0,1,.2.9,3,3,0,0,1-.22,1.14,2.54,2.54,0,0,1-.65.9,3.12,3.12,0,0,1-1.06.6,4.94,4.94,0,0,1-3.12-.09,4.12,4.12,0,0,1-1.28-.77l.39-.64a.55.55,0,0,1,.18-.19.51.51,0,0,1,.27-.06.61.61,0,0,1,.34.12c.11.08.25.16.41.26a3.7,3.7,0,0,0,.59.26,2.68,2.68,0,0,0,.86.11,2.5,2.5,0,0,0,.76-.1,1.7,1.7,0,0,0,.53-.3,1.15,1.15,0,0,0,.31-.42,1.25,1.25,0,0,0,.1-.51.88.88,0,0,0-.19-.58,1.72,1.72,0,0,0-.51-.39,4.9,4.9,0,0,0-.72-.29l-.83-.25c-.28-.1-.56-.2-.83-.32a3,3,0,0,1-.72-.46,2.17,2.17,0,0,1-.51-.68,2.13,2.13,0,0,1-.19-1,2.37,2.37,0,0,1,.21-1,2.55,2.55,0,0,1,.61-.82,3.1,3.1,0,0,1,1-.56,4,4,0,0,1,1.35-.21,4.35,4.35,0,0,1,1.57.27,3.66,3.66,0,0,1,1.21.76Z" style="fill:#303030"/><path d="M304.84,108.52a5.17,5.17,0,0,1,1.59-1,5.08,5.08,0,0,1,1.89-.34,3.29,3.29,0,0,1,1.33.25,2.74,2.74,0,0,1,1,.68,3.2,3.2,0,0,1,.6,1,4.51,4.51,0,0,1,.2,1.36v5.6h-.75a.64.64,0,0,1-.38-.09.51.51,0,0,1-.21-.3l-.18-.77a7.75,7.75,0,0,1-.67.55,3.57,3.57,0,0,1-.68.4,3.67,3.67,0,0,1-.77.26,4.91,4.91,0,0,1-.89.08,3,3,0,0,1-1-.14,2.08,2.08,0,0,1-.79-.43,2.12,2.12,0,0,1-.54-.74,2.49,2.49,0,0,1-.19-1,1.91,1.91,0,0,1,.28-1,2.49,2.49,0,0,1,.92-.86,5.59,5.59,0,0,1,1.65-.62,11.56,11.56,0,0,1,2.52-.28v-.64a2.22,2.22,0,0,0-.42-1.48,1.56,1.56,0,0,0-1.25-.5,2.7,2.7,0,0,0-.92.14,3.59,3.59,0,0,0-.65.31l-.48.3a.66.66,0,0,1-.42.14.48.48,0,0,1-.29-.09.91.91,0,0,1-.21-.23Zm4.94,3.65a12.8,12.8,0,0,0-1.74.16,5,5,0,0,0-1.17.33,1.57,1.57,0,0,0-.65.49,1.1,1.1,0,0,0-.2.63,1.33,1.33,0,0,0,.11.56,1,1,0,0,0,.3.39,1.1,1.1,0,0,0,.43.22,1.93,1.93,0,0,0,.55.07,3.15,3.15,0,0,0,.71-.08,2.83,2.83,0,0,0,1.15-.57,4.36,4.36,0,0,0,.51-.47Z" style="fill:#303030"/><path d="M318.86,108.8a.38.38,0,0,1-.14.16.33.33,0,0,1-.2.05.67.67,0,0,1-.31-.09,2.92,2.92,0,0,0-.4-.21,4.42,4.42,0,0,0-.56-.21,2.83,2.83,0,0,0-.76-.09,2.29,2.29,0,0,0-.66.09,1.52,1.52,0,0,0-.51.25,1.18,1.18,0,0,0-.32.38,1,1,0,0,0-.11.47.77.77,0,0,0,.2.54,1.53,1.53,0,0,0,.51.37,4.2,4.2,0,0,0,.71.28l.82.27c.28.09.56.2.82.31a3.22,3.22,0,0,1,.72.44,2.12,2.12,0,0,1,.51.64,1.93,1.93,0,0,1,.19.9,2.86,2.86,0,0,1-.22,1.14,2.4,2.4,0,0,1-.64.9,3.12,3.12,0,0,1-1.06.6,4.94,4.94,0,0,1-3.12-.09,4.29,4.29,0,0,1-1.29-.77l.4-.64a.64.64,0,0,1,.17-.19.55.55,0,0,1,.28-.06.61.61,0,0,1,.34.12c.11.08.25.16.41.26a3.7,3.7,0,0,0,.59.26,2.68,2.68,0,0,0,.86.11,2.39,2.39,0,0,0,.75-.1,1.5,1.5,0,0,0,.53-.3,1.07,1.07,0,0,0,.32-.42,1.25,1.25,0,0,0,.1-.51.88.88,0,0,0-.19-.58,1.72,1.72,0,0,0-.51-.39,4.9,4.9,0,0,0-.72-.29l-.83-.25c-.28-.1-.56-.2-.83-.32a3,3,0,0,1-.72-.46,2.17,2.17,0,0,1-.51-.68,2.13,2.13,0,0,1-.19-1,2.37,2.37,0,0,1,.21-1,2.41,2.41,0,0,1,.61-.82,3.16,3.16,0,0,1,1-.56,4.07,4.07,0,0,1,1.35-.21,4.36,4.36,0,0,1,1.58.27,3.52,3.52,0,0,1,1.2.76Z" style="fill:#303030"/><path d="M323.94,116.2a2.21,2.21,0,0,1-1.64-.59,2.38,2.38,0,0,1-.57-1.7v-5.25h-1a.32.32,0,0,1-.24-.09.34.34,0,0,1-.1-.28v-.68l1.42-.2.38-2.61a.4.4,0,0,1,.13-.23.38.38,0,0,1,.26-.08h.85v2.94h2.49v1.23h-2.49v5.13a1.06,1.06,0,0,0,.26.78.88.88,0,0,0,.65.25,1.16,1.16,0,0,0,.4-.06,1.57,1.57,0,0,0,.29-.13,1.91,1.91,0,0,0,.21-.14.29.29,0,0,1,.15-.06.26.26,0,0,1,.14,0l.1.13.5.81a3.07,3.07,0,0,1-1,.59A3.61,3.61,0,0,1,323.94,116.2Z" style="fill:#303030"/><path d="M334.6,114.81a3.33,3.33,0,0,1-.72.63,4.07,4.07,0,0,1-.86.43,5.09,5.09,0,0,1-.95.24,6.43,6.43,0,0,1-1,.08,4.57,4.57,0,0,1-1.68-.31,3.6,3.6,0,0,1-1.34-.9,4,4,0,0,1-.88-1.47,5.89,5.89,0,0,1-.32-2,5,5,0,0,1,.29-1.71,4.18,4.18,0,0,1,.81-1.37,3.82,3.82,0,0,1,1.3-.93,4.37,4.37,0,0,1,1.73-.33,3.94,3.94,0,0,1,1.48.26,3.29,3.29,0,0,1,1.17.76,3.47,3.47,0,0,1,.77,1.24,4.61,4.61,0,0,1,.28,1.67,1,1,0,0,1-.08.52.36.36,0,0,1-.32.14h-5.75a5,5,0,0,0,.22,1.37,2.93,2.93,0,0,0,.55,1,2.23,2.23,0,0,0,.84.58,3,3,0,0,0,1.07.19,3.53,3.53,0,0,0,1-.13,5.36,5.36,0,0,0,.7-.28c.2-.1.37-.2.5-.28a.69.69,0,0,1,.36-.13.37.37,0,0,1,.32.15Zm-1.4-4.11a2.73,2.73,0,0,0-.14-.92,1.89,1.89,0,0,0-.42-.73,1.94,1.94,0,0,0-.67-.49,2.34,2.34,0,0,0-.91-.17,2.27,2.27,0,0,0-1.68.61,3,3,0,0,0-.77,1.7Z" style="fill:#303030"/><path d="M338.13,109a4,4,0,0,1,1-1.36,2.14,2.14,0,0,1,1.43-.49,2.35,2.35,0,0,1,.54.06,1.37,1.37,0,0,1,.44.2l-.11,1.27a.27.27,0,0,1-.28.23,1.63,1.63,0,0,1-.37,0,2.78,2.78,0,0,0-.51,0,2,2,0,0,0-.72.11,1.65,1.65,0,0,0-.56.35,2.25,2.25,0,0,0-.43.56,5.24,5.24,0,0,0-.36.75v5.5h-1.68v-8.78h1a.55.55,0,0,1,.37.1.67.67,0,0,1,.14.35Z" style="fill:#303030"/><path d="M356.51,116.07h-1.64a.77.77,0,0,1-.72-.39l-3.06-4.3a.93.93,0,0,0-.32-.31,1.18,1.18,0,0,0-.52-.09h-1.2v5.09h-1.84v-12.4h3.57a7.85,7.85,0,0,1,2.07.24,4.21,4.21,0,0,1,1.44.7,2.84,2.84,0,0,1,.83,1.09,3.7,3.7,0,0,1,.27,1.44,3.76,3.76,0,0,1-.19,1.22,3.36,3.36,0,0,1-.59,1,3.57,3.57,0,0,1-.93.78,4.74,4.74,0,0,1-1.26.5,1.94,1.94,0,0,1,.6.58Zm-5.79-6.43a4.29,4.29,0,0,0,1.25-.17,2.59,2.59,0,0,0,.9-.49,2,2,0,0,0,.55-.75,2.49,2.49,0,0,0,.18-1,1.93,1.93,0,0,0-.71-1.62,3.41,3.41,0,0,0-2.11-.54h-1.73v4.53Z" style="fill:#303030"/><path d="M359.71,104.58a1.13,1.13,0,0,1-.09.45,1.37,1.37,0,0,1-.26.37,1.15,1.15,0,0,1-.82.34,1.08,1.08,0,0,1-.44-.09,1.34,1.34,0,0,1-.37-.25,1.15,1.15,0,0,1-.25-.37,1.17,1.17,0,0,1,0-.9,1.05,1.05,0,0,1,.25-.37,1.15,1.15,0,0,1,.37-.25,1.08,1.08,0,0,1,.44-.09,1.2,1.2,0,0,1,.45.09,1.05,1.05,0,0,1,.37.25,1.23,1.23,0,0,1,.26.37A1.13,1.13,0,0,1,359.71,104.58Zm-.32,2.71v8.78h-1.68v-8.78Z" style="fill:#303030"/><path d="M367,108.8a.47.47,0,0,1-.15.16.31.31,0,0,1-.2.05.64.64,0,0,1-.3-.09,4.62,4.62,0,0,0-1-.42,2.78,2.78,0,0,0-.76-.09,2.29,2.29,0,0,0-.66.09,1.47,1.47,0,0,0-.5.25,1,1,0,0,0-.32.38.93.93,0,0,0-.11.47.76.76,0,0,0,.19.54,1.53,1.53,0,0,0,.51.37,4,4,0,0,0,.72.28l.82.27c.28.09.55.2.82.31a3.39,3.39,0,0,1,.71.44,2.12,2.12,0,0,1,.51.64,1.93,1.93,0,0,1,.2.9,3,3,0,0,1-.22,1.14,2.54,2.54,0,0,1-.65.9,3.12,3.12,0,0,1-1.06.6,4.91,4.91,0,0,1-3.11-.09,4.05,4.05,0,0,1-1.29-.77l.4-.64a.45.45,0,0,1,.17-.19.55.55,0,0,1,.28-.06.58.58,0,0,1,.33.12l.42.26a3.56,3.56,0,0,0,.58.26,2.71,2.71,0,0,0,.87.11,2.48,2.48,0,0,0,.75-.1,1.6,1.6,0,0,0,.53-.3,1.15,1.15,0,0,0,.31-.42,1.26,1.26,0,0,0,.11-.51.89.89,0,0,0-.2-.58,1.72,1.72,0,0,0-.51-.39,4.9,4.9,0,0,0-.72-.29l-.83-.25c-.28-.1-.55-.2-.83-.32a3,3,0,0,1-.72-.46,2.17,2.17,0,0,1-.51-.68,2.13,2.13,0,0,1-.19-1,2.37,2.37,0,0,1,.21-1,2.44,2.44,0,0,1,.62-.82,3,3,0,0,1,1-.56,4,4,0,0,1,1.35-.21,4.4,4.4,0,0,1,1.58.27,3.61,3.61,0,0,1,1.2.76Z" style="fill:#303030"/><path d="M371,103.32v7.45h.4a.67.67,0,0,0,.3,0,.58.58,0,0,0,.25-.21l2.63-2.89a.83.83,0,0,1,.26-.24.74.74,0,0,1,.38-.09h1.53l-3.1,3.4a2,2,0,0,1-.53.49,1.42,1.42,0,0,1,.29.26,3,3,0,0,1,.24.32l3.3,4.31h-1.51a1,1,0,0,1-.36-.07.7.7,0,0,1-.27-.25l-2.71-3.53a.67.67,0,0,0-.26-.25,1,1,0,0,0-.39-.06H371v4.16h-1.68V103.32Z" style="fill:#303030"/><path d="M392.23,116.07h-1.64a.77.77,0,0,1-.72-.39l-3.07-4.3a.83.83,0,0,0-.31-.31A1.18,1.18,0,0,0,386,111h-1.2v5.09h-1.84v-12.4h3.57a7.85,7.85,0,0,1,2.07.24,4.07,4.07,0,0,1,1.43.7,2.77,2.77,0,0,1,.84,1.09,3.7,3.7,0,0,1,.27,1.44,3.76,3.76,0,0,1-.19,1.22,3.36,3.36,0,0,1-.59,1,3.74,3.74,0,0,1-.93.78,4.74,4.74,0,0,1-1.26.5,1.94,1.94,0,0,1,.6.58Zm-5.79-6.43a4.29,4.29,0,0,0,1.25-.17,2.59,2.59,0,0,0,.9-.49,2,2,0,0,0,.55-.75,2.49,2.49,0,0,0,.18-1,1.93,1.93,0,0,0-.71-1.62,3.43,3.43,0,0,0-2.11-.54h-1.73v4.53Z" style="fill:#303030"/><path d="M400.1,114.81a3.06,3.06,0,0,1-.71.63,3.92,3.92,0,0,1-.87.43,5,5,0,0,1-.94.24,6.45,6.45,0,0,1-1,.08,4.55,4.55,0,0,1-1.67-.31,3.53,3.53,0,0,1-1.34-.9,4,4,0,0,1-.88-1.47,5.89,5.89,0,0,1-.32-2,5,5,0,0,1,.29-1.71,4.18,4.18,0,0,1,.81-1.37,3.82,3.82,0,0,1,1.3-.93,4.34,4.34,0,0,1,1.73-.33,4,4,0,0,1,1.48.26,3.29,3.29,0,0,1,1.17.76,3.62,3.62,0,0,1,.77,1.24,4.61,4.61,0,0,1,.28,1.67,1.15,1.15,0,0,1-.08.52.36.36,0,0,1-.32.14h-5.75a4.62,4.62,0,0,0,.22,1.37,2.77,2.77,0,0,0,.55,1,2.19,2.19,0,0,0,.83.58,3.1,3.1,0,0,0,1.08.19,3.4,3.4,0,0,0,1-.13,5,5,0,0,0,.71-.28c.2-.1.37-.2.5-.28a.69.69,0,0,1,.36-.13.38.38,0,0,1,.32.15Zm-1.39-4.11a3,3,0,0,0-.14-.92,1.89,1.89,0,0,0-.42-.73,1.94,1.94,0,0,0-.67-.49,2.4,2.4,0,0,0-.92-.17,2.26,2.26,0,0,0-1.67.61,3,3,0,0,0-.77,1.7Z" style="fill:#303030"/><path d="M409.39,103.32v12.75h-1a.42.42,0,0,1-.44-.34l-.14-1a4.59,4.59,0,0,1-1.28,1.06,3.25,3.25,0,0,1-1.64.41,3,3,0,0,1-1.36-.3,2.76,2.76,0,0,1-1-.86,4.05,4.05,0,0,1-.67-1.4,7.43,7.43,0,0,1-.23-1.92,6.25,6.25,0,0,1,.26-1.82,4.25,4.25,0,0,1,.75-1.45,3.45,3.45,0,0,1,2.77-1.31,3,3,0,0,1,2.35,1v-4.8Zm-1.69,6.1a2.3,2.3,0,0,0-.89-.76,2.51,2.51,0,0,0-1.08-.22,2.13,2.13,0,0,0-1.79.83,4,4,0,0,0-.63,2.44,5.88,5.88,0,0,0,.14,1.42,2.63,2.63,0,0,0,.41,1,1.6,1.6,0,0,0,.67.55,2.19,2.19,0,0,0,.9.18,2.38,2.38,0,0,0,1.27-.33,3.72,3.72,0,0,0,1-.92Z" style="fill:#303030"/><path d="M419.05,107.29v8.78h-1a.44.44,0,0,1-.45-.34l-.12-.88a6.2,6.2,0,0,1-.6.55,3.64,3.64,0,0,1-.67.43,3,3,0,0,1-.75.27,3.3,3.3,0,0,1-.85.1,3.21,3.21,0,0,1-1.28-.24,2.37,2.37,0,0,1-.91-.68,3,3,0,0,1-.57-1,4.86,4.86,0,0,1-.19-1.36v-5.59h1.7v5.59a2.21,2.21,0,0,0,.43,1.46,1.62,1.62,0,0,0,1.32.53,2.56,2.56,0,0,0,1.21-.31,4.51,4.51,0,0,0,1.05-.84v-6.43Z" style="fill:#303030"/><path d="M427.55,108.93a.53.53,0,0,1-.15.15.33.33,0,0,1-.21.06.53.53,0,0,1-.29-.11,3.77,3.77,0,0,0-.38-.23,3.65,3.65,0,0,0-.55-.23,2.38,2.38,0,0,0-.8-.11,2.54,2.54,0,0,0-1.1.22,2.15,2.15,0,0,0-.79.64,3.05,3.05,0,0,0-.48,1,5.08,5.08,0,0,0-.16,1.34,4.8,4.8,0,0,0,.17,1.37,3.07,3.07,0,0,0,.49,1,2.13,2.13,0,0,0,.78.62,2.38,2.38,0,0,0,1,.21,2.6,2.6,0,0,0,.9-.13,3.12,3.12,0,0,0,.58-.29,2.82,2.82,0,0,0,.39-.29.47.47,0,0,1,.32-.13.37.37,0,0,1,.32.15l.48.62a3.06,3.06,0,0,1-.67.63,3.64,3.64,0,0,1-.8.43,4.32,4.32,0,0,1-.89.24,5.84,5.84,0,0,1-.93.08,3.78,3.78,0,0,1-1.54-.31A3.44,3.44,0,0,1,422,115a4.29,4.29,0,0,1-.83-1.42,5.67,5.67,0,0,1-.3-1.91,5.76,5.76,0,0,1,.27-1.8,4,4,0,0,1,.81-1.43,3.62,3.62,0,0,1,1.3-.94,4.38,4.38,0,0,1,1.78-.34,4.28,4.28,0,0,1,1.66.3,4,4,0,0,1,1.28.85Z" style="fill:#303030"/><path d="M438,116.07h-1.69v-7.41h-4.41v5.13a1.06,1.06,0,0,0,.26.78.88.88,0,0,0,.65.25,1.16,1.16,0,0,0,.4-.06,1.57,1.57,0,0,0,.29-.13,1.91,1.91,0,0,0,.21-.14.29.29,0,0,1,.15-.06.26.26,0,0,1,.14,0l.1.13.5.81a3.07,3.07,0,0,1-1,.59,3.61,3.61,0,0,1-1.18.2,2.21,2.21,0,0,1-1.64-.59,2.38,2.38,0,0,1-.57-1.7v-5.25h-1a.32.32,0,0,1-.24-.09.34.34,0,0,1-.1-.28v-.68l1.43-.2.37-2.61a.4.4,0,0,1,.13-.23.38.38,0,0,1,.26-.08h.85v2.94H438Zm.38-11.54a1,1,0,0,1-.1.45,1.15,1.15,0,0,1-.25.37,1.25,1.25,0,0,1-.38.25,1.12,1.12,0,0,1-.44.09,1,1,0,0,1-.44-.09,1.21,1.21,0,0,1-.37-.25,1.15,1.15,0,0,1-.25-.37,1.2,1.2,0,0,1,0-.91,1.16,1.16,0,0,1,1.06-.71,1.12,1.12,0,0,1,.44.09,1.09,1.09,0,0,1,.38.25,1.21,1.21,0,0,1,.35.83Z" style="fill:#303030"/><path d="M444.16,107.16a4.62,4.62,0,0,1,1.75.31,3.63,3.63,0,0,1,1.33.91,3.88,3.88,0,0,1,.84,1.42,6,6,0,0,1,0,3.74,3.84,3.84,0,0,1-.84,1.43,3.73,3.73,0,0,1-1.33.9,4.95,4.95,0,0,1-3.5,0,3.68,3.68,0,0,1-1.34-.9,4,4,0,0,1-.85-1.43,6,6,0,0,1,0-3.74,4,4,0,0,1,.85-1.42,3.59,3.59,0,0,1,1.34-.91A4.62,4.62,0,0,1,444.16,107.16Zm0,7.71A2.17,2.17,0,0,0,446,114a4.87,4.87,0,0,0,0-4.72,2.15,2.15,0,0,0-1.86-.84,2.19,2.19,0,0,0-1.88.84,4.87,4.87,0,0,0,0,4.72A2.21,2.21,0,0,0,444.16,114.87Z" style="fill:#303030"/><path d="M451.83,108.51a7.54,7.54,0,0,1,.59-.55,3.93,3.93,0,0,1,.66-.43,3.38,3.38,0,0,1,1.62-.37,3.16,3.16,0,0,1,1.27.24,2.57,2.57,0,0,1,.92.67,2.94,2.94,0,0,1,.56,1.05,4.47,4.47,0,0,1,.19,1.36v5.59H456v-5.59a2.25,2.25,0,0,0-.43-1.46,1.63,1.63,0,0,0-1.33-.53,2.56,2.56,0,0,0-1.21.31,4,4,0,0,0-1.05.83v6.44h-1.68v-8.78h1a.42.42,0,0,1,.44.34Z" style="fill:#303030"/><path d="M252.49,129.24a5.13,5.13,0,0,1,1.59-1,5,5,0,0,1,1.89-.35,3.29,3.29,0,0,1,1.33.25,2.7,2.7,0,0,1,1,.68,2.84,2.84,0,0,1,.6,1.06,4.15,4.15,0,0,1,.21,1.35v5.6h-.76a.8.8,0,0,1-.38-.08.62.62,0,0,1-.2-.31l-.18-.77a7.75,7.75,0,0,1-.67.55,5.34,5.34,0,0,1-.68.41,3.85,3.85,0,0,1-.77.25,4.16,4.16,0,0,1-.9.09,3.08,3.08,0,0,1-1-.15,2.25,2.25,0,0,1-.79-.43,2.13,2.13,0,0,1-.53-.74,2.48,2.48,0,0,1-.19-1,1.92,1.92,0,0,1,.28-1,2.45,2.45,0,0,1,.91-.86,6.08,6.08,0,0,1,1.66-.62,12.22,12.22,0,0,1,2.52-.28v-.64a2.18,2.18,0,0,0-.43-1.48,1.53,1.53,0,0,0-1.24-.49,2.78,2.78,0,0,0-.93.13,4.26,4.26,0,0,0-.64.31c-.19.11-.34.21-.48.31a.75.75,0,0,1-.42.14.54.54,0,0,1-.3-.1.83.83,0,0,1-.2-.22Zm4.94,3.65a14.84,14.84,0,0,0-1.75.16,5.06,5.06,0,0,0-1.16.34,1.55,1.55,0,0,0-.65.48,1.1,1.1,0,0,0-.2.63,1.41,1.41,0,0,0,.11.57,1.1,1.1,0,0,0,.29.38,1.14,1.14,0,0,0,.44.22,1.9,1.9,0,0,0,.54.07,3.11,3.11,0,0,0,.71-.07,3.66,3.66,0,0,0,.61-.22,3.94,3.94,0,0,0,.55-.35,5.61,5.61,0,0,0,.51-.48Z" style="fill:#303030"/><path d="M262.92,129.23a7.54,7.54,0,0,1,.59-.55,3.93,3.93,0,0,1,.66-.43,3.27,3.27,0,0,1,.76-.27,3.33,3.33,0,0,1,.86-.1,3.16,3.16,0,0,1,1.27.24,2.6,2.6,0,0,1,.92.68,2.94,2.94,0,0,1,.56,1,4.41,4.41,0,0,1,.19,1.35v5.59H267V131.2a2.27,2.27,0,0,0-.43-1.46,1.61,1.61,0,0,0-1.32-.52,2.56,2.56,0,0,0-1.22.3,4.26,4.26,0,0,0-1.05.84v6.43h-1.68V128h1a.41.41,0,0,1,.44.33Z" style="fill:#303030"/><path d="M278.35,124v12.75h-1a.41.41,0,0,1-.44-.34l-.15-1a4.76,4.76,0,0,1-1.27,1.07,3.41,3.41,0,0,1-1.65.4,3.19,3.19,0,0,1-1.36-.29,3.06,3.06,0,0,1-1-.86,4.19,4.19,0,0,1-.66-1.41,7,7,0,0,1-.24-1.92,6.25,6.25,0,0,1,.26-1.82,4.55,4.55,0,0,1,.76-1.45,3.37,3.37,0,0,1,1.19-1,3.5,3.5,0,0,1,1.58-.35,3.22,3.22,0,0,1,1.35.26,3.18,3.18,0,0,1,1,.73V124Zm-1.7,6.1a2.31,2.31,0,0,0-.89-.76,2.66,2.66,0,0,0-1.07-.22,2.11,2.11,0,0,0-1.79.84,3.89,3.89,0,0,0-.64,2.43,6.52,6.52,0,0,0,.14,1.43,2.84,2.84,0,0,0,.42,1,1.64,1.64,0,0,0,.67.56,2.28,2.28,0,0,0,.89.17,2.44,2.44,0,0,0,1.27-.32,3.77,3.77,0,0,0,1-.93Z" style="fill:#303030"/><path d="M295.05,136.79h-1.41a.65.65,0,0,1-.4-.12.68.68,0,0,1-.22-.31l-1.1-2.88h-5.47l-1.09,2.88a.63.63,0,0,1-.23.29.6.6,0,0,1-.39.14h-1.42l4.94-12.4h1.86Zm-3.63-4.62-1.84-4.81c-.13-.33-.26-.74-.4-1.24-.06.24-.12.47-.19.69s-.13.4-.2.57L287,132.17Z" style="fill:#303030"/><path d="M303.41,124v12.75h-1a.41.41,0,0,1-.44-.34l-.14-1a4.8,4.8,0,0,1-1.28,1.07,3.35,3.35,0,0,1-1.64.4,3.19,3.19,0,0,1-1.36-.29,3,3,0,0,1-1-.86,4.2,4.2,0,0,1-.67-1.41,7.43,7.43,0,0,1-.23-1.92,6.25,6.25,0,0,1,.26-1.82,4.34,4.34,0,0,1,.75-1.45,3.45,3.45,0,0,1,2.77-1.31,3,3,0,0,1,2.35,1V124Zm-1.69,6.1a2.39,2.39,0,0,0-.89-.76,2.67,2.67,0,0,0-1.08-.22A2.11,2.11,0,0,0,298,130a4,4,0,0,0-.63,2.43,6,6,0,0,0,.14,1.43,2.65,2.65,0,0,0,.41,1,1.71,1.71,0,0,0,.67.56,2.37,2.37,0,0,0,.9.17,2.47,2.47,0,0,0,1.27-.32,3.77,3.77,0,0,0,1-.93Z" style="fill:#303030"/><path d="M305.55,129.24a4.85,4.85,0,0,1,3.47-1.39,3.22,3.22,0,0,1,1.33.25,2.65,2.65,0,0,1,1,.68,3.15,3.15,0,0,1,.6,1.06,4.45,4.45,0,0,1,.2,1.35v5.6h-.75a.8.8,0,0,1-.38-.08.62.62,0,0,1-.2-.31l-.19-.77a6.41,6.41,0,0,1-.66.55,4.82,4.82,0,0,1-.69.41,3.76,3.76,0,0,1-.76.25,4.16,4.16,0,0,1-.9.09,3,3,0,0,1-1-.15,2.16,2.16,0,0,1-.79-.43,2,2,0,0,1-.53-.74,2.47,2.47,0,0,1-.2-1,2,2,0,0,1,.28-1,2.57,2.57,0,0,1,.92-.86,5.84,5.84,0,0,1,1.66-.62,12.19,12.19,0,0,1,2.51-.28v-.64a2.23,2.23,0,0,0-.42-1.48,1.54,1.54,0,0,0-1.24-.49,2.78,2.78,0,0,0-.93.13,4.41,4.41,0,0,0-.65.31,5.49,5.49,0,0,0-.47.31.78.78,0,0,1-.42.14.49.49,0,0,1-.3-.1.83.83,0,0,1-.2-.22Zm4.93,3.65a14.85,14.85,0,0,0-1.74.16,5,5,0,0,0-1.17.34,1.51,1.51,0,0,0-.64.48,1,1,0,0,0-.2.63,1.26,1.26,0,0,0,.11.57,1.1,1.1,0,0,0,.29.38,1.07,1.07,0,0,0,.44.22,1.81,1.81,0,0,0,.54.07,3.11,3.11,0,0,0,.71-.07,3.66,3.66,0,0,0,.61-.22,4.62,4.62,0,0,0,.55-.35,4.48,4.48,0,0,0,.5-.48Z" style="fill:#303030"/><path d="M316,129.33a5.59,5.59,0,0,1,.59-.6,4.35,4.35,0,0,1,.68-.47,3.32,3.32,0,0,1,.78-.3,3.45,3.45,0,0,1,.87-.11,3,3,0,0,1,1.36.3,2.76,2.76,0,0,1,1,.86,4.2,4.2,0,0,1,.67,1.41,7,7,0,0,1,.24,1.92,6.19,6.19,0,0,1-.26,1.81,4.45,4.45,0,0,1-.76,1.45,3.37,3.37,0,0,1-1.19,1,3.56,3.56,0,0,1-1.58.35,3.25,3.25,0,0,1-1.35-.26,3.07,3.07,0,0,1-1-.73v3.81H314.4V128h1a.41.41,0,0,1,.44.33Zm.09,5.3a2.39,2.39,0,0,0,.89.76,2.67,2.67,0,0,0,1.08.21,2.1,2.1,0,0,0,1.79-.83,4,4,0,0,0,.63-2.43,6,6,0,0,0-.14-1.43,2.78,2.78,0,0,0-.41-1,1.77,1.77,0,0,0-.67-.55,2.19,2.19,0,0,0-.9-.17,2.37,2.37,0,0,0-1.27.32,3.52,3.52,0,0,0-1,.94Z" style="fill:#303030"/><path d="M326.74,136.93a2.14,2.14,0,0,1-1.63-.6,2.32,2.32,0,0,1-.58-1.7v-5.25h-1a.34.34,0,0,1-.24-.09.33.33,0,0,1-.1-.27v-.69l1.42-.19.38-2.62a.45.45,0,0,1,.14-.23.39.39,0,0,1,.25-.08h.86v2.94h2.48v1.23h-2.48v5.14a1.05,1.05,0,0,0,.25.77.89.89,0,0,0,.65.26,1,1,0,0,0,.4-.07,1.32,1.32,0,0,0,.29-.13l.21-.13a.29.29,0,0,1,.16-.06.18.18,0,0,1,.13,0,.44.44,0,0,1,.1.12l.5.81a2.85,2.85,0,0,1-1,.59A3.43,3.43,0,0,1,326.74,136.93Z" style="fill:#303030"/><path d="M330,129.24a4.91,4.91,0,0,1,1.59-1,5,5,0,0,1,1.88-.35,3.25,3.25,0,0,1,1.33.25,2.74,2.74,0,0,1,1,.68,3.15,3.15,0,0,1,.6,1.06,4.45,4.45,0,0,1,.2,1.35v5.6h-.75a.77.77,0,0,1-.38-.08.63.63,0,0,1-.21-.31l-.18-.77a6.41,6.41,0,0,1-.66.55,4.82,4.82,0,0,1-.69.41,3.76,3.76,0,0,1-.76.25,4.16,4.16,0,0,1-.9.09,3,3,0,0,1-1-.15,2.16,2.16,0,0,1-.79-.43,2,2,0,0,1-.53-.74,2.47,2.47,0,0,1-.2-1,2,2,0,0,1,.28-1,2.57,2.57,0,0,1,.92-.86,5.84,5.84,0,0,1,1.66-.62,12.19,12.19,0,0,1,2.51-.28v-.64a2.23,2.23,0,0,0-.42-1.48,1.54,1.54,0,0,0-1.24-.49,2.78,2.78,0,0,0-.93.13,4.41,4.41,0,0,0-.65.31,5.49,5.49,0,0,0-.47.31.78.78,0,0,1-.42.14.49.49,0,0,1-.3-.1.83.83,0,0,1-.2-.22Zm4.93,3.65a14.85,14.85,0,0,0-1.74.16,5,5,0,0,0-1.17.34,1.51,1.51,0,0,0-.64.48,1,1,0,0,0-.2.63,1.26,1.26,0,0,0,.11.57,1.09,1.09,0,0,0,.72.6,1.93,1.93,0,0,0,.55.07,3.17,3.17,0,0,0,.71-.07,3.66,3.66,0,0,0,.61-.22,3.74,3.74,0,0,0,1-.83Z" style="fill:#303030"/><path d="M347.08,136.79h-1.7v-7.41H341v5.14a1.05,1.05,0,0,0,.26.77.87.87,0,0,0,.65.26,1,1,0,0,0,.4-.07,1.57,1.57,0,0,0,.29-.13l.2-.13a.29.29,0,0,1,.16-.06.17.17,0,0,1,.13,0,.25.25,0,0,1,.1.12l.5.81a2.76,2.76,0,0,1-1,.59,3.37,3.37,0,0,1-1.18.21,2.16,2.16,0,0,1-1.64-.6,2.36,2.36,0,0,1-.57-1.7v-5.25h-1a.37.37,0,0,1-.25-.09.37.37,0,0,1-.1-.27v-.69l1.44-.19.37-2.62a.38.38,0,0,1,.13-.23.42.42,0,0,1,.26-.08H341v2.94h6.1Zm.38-11.54a1.14,1.14,0,0,1-.1.45,1.34,1.34,0,0,1-.25.37,1.39,1.39,0,0,1-.38.25,1.13,1.13,0,0,1-.45.09,1.12,1.12,0,0,1-.44-.09,1.34,1.34,0,0,1-.37-.25,1.6,1.6,0,0,1-.25-.37,1.17,1.17,0,0,1,0-.9,1.47,1.47,0,0,1,.25-.38,1.15,1.15,0,0,1,.37-.25,1.12,1.12,0,0,1,.44-.09,1.13,1.13,0,0,1,.45.09,1.19,1.19,0,0,1,.38.25,1.25,1.25,0,0,1,.25.38A1.14,1.14,0,0,1,347.46,125.25Z" style="fill:#303030"/><path d="M353.26,127.88a4.66,4.66,0,0,1,1.75.31,3.63,3.63,0,0,1,1.33.91,4.18,4.18,0,0,1,.84,1.42,5.78,5.78,0,0,1,.29,1.87,5.84,5.84,0,0,1-.29,1.88,4.08,4.08,0,0,1-.84,1.42,3.73,3.73,0,0,1-1.33.9,5,5,0,0,1-3.51,0,3.73,3.73,0,0,1-1.33-.9,3.82,3.82,0,0,1-.85-1.42,5.58,5.58,0,0,1-.3-1.88,5.52,5.52,0,0,1,.3-1.87,3.9,3.9,0,0,1,.85-1.42,3.63,3.63,0,0,1,1.33-.91A4.68,4.68,0,0,1,353.26,127.88Zm0,7.72a2.12,2.12,0,0,0,1.85-.84,4.8,4.8,0,0,0,0-4.72,2.12,2.12,0,0,0-1.85-.84,2.18,2.18,0,0,0-1.88.84,4.8,4.8,0,0,0,0,4.72A2.18,2.18,0,0,0,353.26,135.6Z" style="fill:#303030"/><path d="M360.92,129.23a7.65,7.65,0,0,1,.6-.55,3.93,3.93,0,0,1,.66-.43,3,3,0,0,1,.75-.27,3.44,3.44,0,0,1,.86-.1,3.13,3.13,0,0,1,1.27.24,2.43,2.43,0,0,1,.92.68,3,3,0,0,1,.57,1,4.73,4.73,0,0,1,.19,1.35v5.59H365V131.2a2.21,2.21,0,0,0-.43-1.46,1.61,1.61,0,0,0-1.32-.52,2.55,2.55,0,0,0-1.21.3,3.92,3.92,0,0,0-1.05.84v6.43h-1.68V128h1a.41.41,0,0,1,.44.33Z" style="fill:#303030"/><path d="M78.57,9.81c-.65-2-.7-4.74.09-6.22A10.35,10.35,0,0,0,80,10c2.81-2.77,2.75-6.1-.56-9.6a1.37,1.37,0,0,0-2.19.23C75.41,3.9,74,9.28,78.57,9.81Z" style="fill:teal"/><path d="M80.23,32.93c-.65-2-.7-4.74.09-6.22a10.31,10.31,0,0,0,1.34,6.45c2.81-2.77,2.74-6.09-.57-9.6a1.36,1.36,0,0,0-2.18.24C77.07,27,75.67,32.4,80.23,32.93Z" style="fill:teal"/><path d="M129,46.39c-.65-2-.7-4.76.09-6.25a10.38,10.38,0,0,0,1.35,6.48c2.81-2.77,2.75-6.11-.56-9.62a1.38,1.38,0,0,0-2.21.23C125.86,40.47,124.46,45.86,129,46.39Z" style="fill:teal"/><path d="M127.4,56c.06,4.48,2.87,7,8.4,7a1.44,1.44,0,0,0,1.42-1.79c-1.15-4-4.47-9.56-8.52-6.21,2.15,1,4.41,3.13,5,4.92A11.68,11.68,0,0,0,127.4,56Z" style="fill:teal"/><path d="M112.13,15.94a10.56,10.56,0,0,0-3.7,5.59c4,0,6.39-2.4,6.54-7.35a1.35,1.35,0,0,0-1.65-1.37c-3.66,1-8.66,3.82-5.75,7.53C108.57,18.42,110.5,16.43,112.13,15.94Z" style="fill:teal"/><path d="M96.69,40.3a1.61,1.61,0,0,0,.74-2.48c-3.23-4.29-6.89-5-10.48-2.42a11.55,11.55,0,0,0,6.89,2.73c-1.79.59-4.8,0-6.91-1.11C86.63,42.14,92.76,41.69,96.69,40.3Z" style="fill:teal"/><path d="M39,15.41a11.89,11.89,0,0,0,.29-7.59c1.18,1.53,1.64,4.64,1.28,7.06,5.24-1.51,2.33-7.66-.45-10.92A1.36,1.36,0,0,0,38,4.13C34.66,8.86,35.16,12.75,39,15.41Z" style="fill:teal"/><path d="M57.25,19a1.34,1.34,0,0,0-1.77-1.16c-5.79,1.8-7.87,5.35-6.43,10a12.36,12.36,0,0,0,5.08-6.07c0,2-1.6,4.87-3.43,6.64C56,30.48,57.5,23.45,57.25,19Z" style="fill:teal"/><path d="M25.62,15.75c0,1.9-1.51,4.59-3.24,6.27,5,2,6.4-4.56,6.19-8.77a1.34,1.34,0,0,0-1.76-1.16c-5.4,1.71-7.34,5.05-6,9.39A11.73,11.73,0,0,0,25.62,15.75Z" style="fill:teal"/><path d="M39.36,40.53C42,35.65,35.45,33.35,31.1,33a1.35,1.35,0,0,0-1.37,1.62c1.05,5.8,4.23,8.24,8.88,7.41a12.15,12.15,0,0,0-5.27-5.67C35.29,36.64,37.87,38.54,39.36,40.53Z" style="fill:teal"/><path d="M7.66,37.27a12.18,12.18,0,0,0-4.35-6.45c1.9.55,4.16,2.84,5.33,5,3.43-4.44-2.79-7.77-7.06-8.75A1.32,1.32,0,0,0,0,28.47C.12,34.43,2.89,37.36,7.66,37.27Z" style="fill:teal"/><path d="M11.33,58.39C7.07,54.47,3.11,60.7,1.79,65a1.2,1.2,0,0,0,1,1.55c6.22.48,9.52-2.1,9.84-7a12.41,12.41,0,0,0-6.92,3.86C6.47,61.48,9,59.38,11.33,58.39Z" style="fill:teal"/><path d="M126.32,128.29c-3.22,0-6.15,1.1-9,2.16L116,131a21.87,21.87,0,0,1-7.45,1.37,20.17,20.17,0,0,1-8.18-1.77,26.92,26.92,0,0,0-10.85-2.42A23.31,23.31,0,0,0,80.3,130a24.67,24.67,0,0,1-9.81,2.13A25.15,25.15,0,0,1,60.43,130a22.55,22.55,0,0,0-9-1.91,23.6,23.6,0,0,0-9.28,2A25.53,25.53,0,0,1,32,132.27a22,22,0,0,1-9.7-2.32A16.42,16.42,0,0,0,15,128.36h0a2.88,2.88,0,0,1-.47-.06,3,3,0,0,0-.65-.09c-.52,0-1.17.26-1.25,1.47a2.82,2.82,0,0,0,.49,2.1,2.26,2.26,0,0,0,1.72.62,16.51,16.51,0,0,1,6.37,1.53,26.92,26.92,0,0,0,10.9,2.39,28.94,28.94,0,0,0,11.31-2.44,19.4,19.4,0,0,1,16,.08,27.26,27.26,0,0,0,11,2.43A26.64,26.64,0,0,0,81,134.1a21.46,21.46,0,0,1,8.52-1.83,22.77,22.77,0,0,1,9.41,2.15,23.56,23.56,0,0,0,9.89,2h.49a24.53,24.53,0,0,0,8.37-1.63l.66-.27c2.63-1.07,5.11-2.08,7.9-2.08h.41c1.63,0,1.65-1.21,1.67-2V130a1.64,1.64,0,0,0-.33-1.28A2.21,2.21,0,0,0,126.32,128.29Z" style="fill:teal"/><path d="M112.92,144.3a1.08,1.08,0,0,0-1.23-1.2l-.55,0c-3,0-5.48,1.4-7.68,2.63a10.56,10.56,0,0,1-5.13,1.44,9.76,9.76,0,0,1-5.15-1.55A16.65,16.65,0,0,0,84.49,143a17,17,0,0,0-8.76,2.66,9.9,9.9,0,0,1-5.19,1.53,9.72,9.72,0,0,1-2.54-.35,16,16,0,0,1-3.29-1.46l-1.08-.57a16.09,16.09,0,0,0-7.25-1.87,13.91,13.91,0,0,0-7.07,2,13.49,13.49,0,0,1-6.89,2.14,11.34,11.34,0,0,1-6.3-2,11.86,11.86,0,0,0-6-1.9,1.62,1.62,0,0,1-.38-.08,2.34,2.34,0,0,0-.64-.12.83.83,0,0,0-.61.24,1.22,1.22,0,0,0-.28,1,5.09,5.09,0,0,1-.06.64,2.22,2.22,0,0,0,.25,1.78,1.65,1.65,0,0,0,1.28.57A13.44,13.44,0,0,1,34.81,149l.77.4a15.34,15.34,0,0,0,7.09,1.85,13.74,13.74,0,0,0,7-2,13.19,13.19,0,0,1,6.8-2.08,13.25,13.25,0,0,1,6.81,2.08,13.76,13.76,0,0,0,7.1,2,14.19,14.19,0,0,0,7.23-2.06,13.59,13.59,0,0,1,6.88-2.11A11.38,11.38,0,0,1,90.7,149a13.27,13.27,0,0,0,6.87,2.05c.4,0,.79,0,1.17,0a12,12,0,0,0,4.4-.77,31.94,31.94,0,0,0,3-1.37,16.46,16.46,0,0,1,5.66-2c1.41-.15,1.28-1.44,1.2-2.13A4.92,4.92,0,0,1,112.92,144.3Z" style="fill:teal"/><path d="M139.81,116.42v-.26c-.05-.78-.07-1.83-1.77-1.83a30.8,30.8,0,0,0-10.2,1.89,34.86,34.86,0,0,1-10.64,2.27l-.41,0a1.78,1.78,0,0,1-1.12-.26,1.56,1.56,0,0,1-.35-1.21,16.53,16.53,0,0,0-1.27-5.73A20.7,20.7,0,0,1,114.18,97a23.36,23.36,0,0,0,0-15.78,20.33,20.33,0,0,1,0-14.55,18.59,18.59,0,0,0,1.34-7c0-.76.22-1.06,1-1.34l10.11-3.77c3.34-1.27,6.68-2.52,10.19-3.82a2.14,2.14,0,0,0,1.4-1,1.81,1.81,0,0,0-.13-1.48c-.3-.76-.71-1.71-1.76-1.71a3,3,0,0,0-1.15.28c-2.63,1.08-5.34,2.12-8,3.09l-3.49,1.31L116,54.14c0-.17.08-.3.19-.5l.15-.23,2.31-4.4c2.84-5.45,5.8-11.12,8.81-16.62a2.32,2.32,0,0,0,.37-2,2.52,2.52,0,0,0-1.74-1.21,2.36,2.36,0,0,0-.8-.15c-1,0-1.4.86-1.66,1.47a4.66,4.66,0,0,1-.22.45q-6.27,11.9-12.44,23.84a4.16,4.16,0,0,1-2.58,2.2c-2.07.71-4.12,1.49-6.17,2.26-1.16.46-2.3.89-3.47,1.32-1.94.73-3.88,1.46-5.82,2.17l-1.64.61a69.72,69.72,0,0,1,4.62-6.06c4.87-5.91,9.76-11.81,14.76-17.83l.69-.88.67-.82.19-.24,1.43-1.76c2.48-3.09,5-6.17,7.43-9.27a1.22,1.22,0,0,1,.31-.28c.32-.3.73-.69.66-1.21s-.56-.8-.9-1a2.41,2.41,0,0,1-.54-.43,2.18,2.18,0,0,0-1.36-.71,1.91,1.91,0,0,0-1.44.95c-1.68,2.22-3.47,4.39-5.22,6.51l-1.72,2.09c-1.49,1.83-3,3.64-4.59,5.58l-.18.19c-.23-1.94-.36-3.64-.41-5.34L105,20.77c-.22-2.2-.24-4.48-.26-6.72,0-.91,0-2.57-2.11-2.57h-.26a2,2,0,0,0-1.47.58,2.16,2.16,0,0,0-.3,1.66l0,.37q.78,13.23,1.58,26.45a5.27,5.27,0,0,1-1.21,4c-2.22,2.56-4.33,5.19-6.47,7.82L84.71,64.47,82.4,60.09c-1.18-2.2-2.32-4.35-3.44-6.51a2.06,2.06,0,0,1,.12-2c1.17-2.55,2.31-5.11,3.48-7.7,1-2.22,2-4.46,3-6.7q5.63-12.39,11.32-24.77c.56-1.23.88-2.33-1.06-3.23a2.72,2.72,0,0,0-1.12-.3c-1,0-1.29.81-1.53,1.42-.06.13-.11.26-.17.41L92.38,12a33.92,33.92,0,0,0-1.66,3.84,7.6,7.6,0,0,1-.62,1.48c-.41.8-1.16,2.31-2.82,5.91l-.37.76c-.6,1.33-1,2.28-1.94,4.24l-1.36,2.89c-1,2.26-1.81,4.14-2.33,5.39-.17.43-.3.78-.41,1C79.82,40,78.7,42.48,77.53,45c-.45,1-.92,2-1.38,3a77.43,77.43,0,0,1-3.66-7.76c-.52-1.21-1-2.41-1.58-3.62a.64.64,0,0,1,0-.73S77,26.05,78.44,23.77l0,0,3.92-6.23c1.53-2.46,3.06-4.91,4.66-7.33a1.88,1.88,0,0,0,.39-1.55A2.25,2.25,0,0,0,86.2,7.39,2.85,2.85,0,0,0,84.93,7,1.74,1.74,0,0,0,83.5,8c-3.08,5.06-6.25,10.09-9.42,15.09l-1.44,2.28c-.84,1.38-1.73,2.72-2.67,4.14l-1.32,2c-.26-.61-.49-1.19-.75-1.75-.78-1.79-1.49-3.49-2.31-5.13A2.37,2.37,0,0,1,65.74,22c1.79-2.93,3.51-5.88,5.26-8.86,1-1.74,2.07-3.51,3.11-5.28a2.1,2.1,0,0,0,.36-1.7A2.06,2.06,0,0,0,73.29,5,3.23,3.23,0,0,0,72,4.65c-.65,0-1.16.39-1.53,1.23A30,30,0,0,1,69,8.51L63,18.51a7.6,7.6,0,0,1-.87-1.7L62,16.4c-.41-1-.84-2-1.29-3C60,11.7,59.23,10,58.56,8.29c-.13-.3-.47-1.21-1.35-1.21a2.63,2.63,0,0,0-1.08.31l-.37.15a1.84,1.84,0,0,0-1.25,1A1.87,1.87,0,0,0,54.7,10c.69,1.46,1.34,3,2,4.44.8,1.85,1.61,3.79,2.54,5.64a4.74,4.74,0,0,1-.32,5.54,52.38,52.38,0,0,0-3,4.92q-.7,1.26-1.44,2.52s-4.94,8.32-6.06,10.22C46,39.5,45.59,37.54,46.17,33.1c.71-5.3,1.36-10.63,2-15.93l.8-6.55a1.8,1.8,0,0,0-.21-1.55,1.44,1.44,0,0,0-1.23-.41h0l-.47,0a3,3,0,0,0-.52-.05c-.95,0-1.44.54-1.55,1.64-.21,2.16-.47,4.29-.75,6.45L42.37,30.82a5.75,5.75,0,0,1-.75-1.38L41.43,29,35.35,16.27,35.24,16c-.24-.58-.56-1.3-1.49-1.3a2.52,2.52,0,0,0-.84.16,2.43,2.43,0,0,0-1.59,1.2,2.6,2.6,0,0,0,.32,2.07q8.79,18.18,17.5,36.37l2.48,5.17c.54,1.14,1.08,2.31,1.64,3.56L54,64.75C48.8,63,44,61.43,39.18,59.83a2.22,2.22,0,0,1-1.4-1.42l-.51-1.23c-1.08-2.54-2.16-5.11-3.28-7.63-1.38-3.23-2.8-6.45-4.2-9.68-2.2-5-4.42-10.09-6.58-15.15a1.85,1.85,0,0,0-1.64-1.38,4.13,4.13,0,0,0-1.25.3,2,2,0,0,0-1.23,1,2.36,2.36,0,0,0,.28,1.79c2.63,5.86,5.41,12.24,8.78,20.07a3.59,3.59,0,0,0,.17.34c.19.37.32.6.26.89l-2.16-1c-1.33-.59-2.65-1.19-4-1.75a2.09,2.09,0,0,0-.8-.19c-.93,0-1.23.84-1.47,1.44l-.11.28c-.25.71-.69,1.87,1,2.5a23,23,0,0,1,2.76,1.19,30.9,30.9,0,0,1,4.29,1.55A10.08,10.08,0,0,1,30.27,53,8,8,0,0,1,33,57.76l-2.82-.95c-4.05-1.38-8-2.69-11.92-4a1.74,1.74,0,0,1-1.49-2.05c.05-3.47.05-7,.05-10.43,0-3,0-5.93,0-8.91a2,2,0,0,0-.45-1.55,2.2,2.2,0,0,0-1.64-.47c-1.27,0-2.11.39-2.11,2.09.06,5.06,0,10.22,0,15.22V49.2c0,.18,0,.35,0,.54a2.5,2.5,0,0,1-.09,1.19c-.84-.28-1.66-.54-2.5-.8C8,49.46,5.86,48.77,3.83,48a2.94,2.94,0,0,0-1-.24c-1,0-1.3.77-1.58,1.44l-.17.41A1.66,1.66,0,0,0,.9,51c.22.5.76.67,1.53.93,5.05,1.64,10.07,3.32,15.09,5l6.1,2c2.5.84,3.88,1.29,4.25,2.05s-.05,2-.93,4.59A25.18,25.18,0,0,0,27,82.31a19.92,19.92,0,0,1,0,13.58A26.1,26.1,0,0,0,25.67,107,27.71,27.71,0,0,0,27,112.86a35,35,0,0,1,1,3.9c.13.63.11,1.06-.07,1.27s-.51.3-1.18.35-1.45.08-2.16.08a29.88,29.88,0,0,1-10.54-1.91,33.1,33.1,0,0,0-11-2.22,2,2,0,0,0-1.53.47,2.18,2.18,0,0,0-.46,1.59c0,.69.05,2.14,1.77,2.14l.32,0a8.47,8.47,0,0,1,1.12-.05,22.83,22.83,0,0,1,8.07,1.84,34.46,34.46,0,0,0,12.18,2.28,35.47,35.47,0,0,0,12.2-2.24,31.11,31.11,0,0,1,10.88-2,28.77,28.77,0,0,1,10.09,1.86,36.15,36.15,0,0,0,12.57,2.3A40.05,40.05,0,0,0,83.63,120a28.43,28.43,0,0,1,9.77-1.75,29.9,29.9,0,0,1,10.62,2,34.29,34.29,0,0,0,23.39.36l.56-.17a28.94,28.94,0,0,1,9.23-2,7.86,7.86,0,0,1,.84,0h.24a1.58,1.58,0,0,0,1.16-.39A2.21,2.21,0,0,0,139.81,116.42ZM42,95.64c-.25.66-.51,1.35-.71,2a19,19,0,0,0,.22,11.75c.21.63.41,1.27.58,1.9.28.86.54,1.74.84,2.59.15.41.09.56.07.62s-.15.15-.56.17a26.05,26.05,0,0,0-7.35,1.88l-1.43.52a3.3,3.3,0,0,1-.92.19c-.24,0-.56,0-.65-1a21.55,21.55,0,0,0-1.16-4.7A29.18,29.18,0,0,1,30,108.5,20.14,20.14,0,0,1,30.93,97a24.23,24.23,0,0,0-.15-16.39,19.41,19.41,0,0,1-.11-13.17,39.47,39.47,0,0,0,1.29-5c.15-.6.22-.6.3-.6a1.24,1.24,0,0,1,.48.11c3.1,1.12,6.27,2.13,9.35,3.1a1.41,1.41,0,0,1,.87.54,1.53,1.53,0,0,1-.13,1c-.35.92-.63,1.87-.91,2.82-.19.63-.36,1.25-.58,1.88a18.55,18.55,0,0,0,.34,12.52l.22.54a11.81,11.81,0,0,1,1.16,5.69A12.18,12.18,0,0,1,42,95.64Zm6.23,18.86a2,2,0,0,1-1-.15.36.36,0,0,1-.06-.2,20.82,20.82,0,0,0-1.27-4.8,16.33,16.33,0,0,1-1.3-5.82,17.62,17.62,0,0,1,1.21-6.43,18,18,0,0,0-.24-14.68C44,79,44.08,75.31,45.69,71.17c.22-.56.67-1.68.69-1.72L47.22,67l2.66.75,2.73.91c3.56.86,4.55,2.63,5.16,5.62a80.14,80.14,0,0,1,2,15.93c0,9.7-2.32,17-7.2,23.13C52.23,113.81,49.92,114.5,48.19,114.5Zm34.28,1.55a43.78,43.78,0,0,1-9.59,2.31c-.74.06-1.47.08-2.2.08-5,0-9.68-1.42-14-3a1.82,1.82,0,0,1-.33-.15,1.75,1.75,0,0,1,.35-.46l.24-.28a36.31,36.31,0,0,0,6.33-16,64,64,0,0,0-1.5-25c-1.45-5.86-4.19-11.25-6.84-16.47-1-2.07-2.11-4.16-3.1-6.27-1.06-2.28-1-3.66.17-5.54,3.43-5.43,9.85-16.68,9.87-16.73l.56-.62.33.36c.1.26,12,26.41,18.69,39a3.55,3.55,0,0,1,0,3c-3.42,11.56-4,22-1.78,31.82a35.78,35.78,0,0,0,6,13C84.56,115.36,83.5,115.7,82.47,116.05Zm12.63-6a24.54,24.54,0,0,1,1.27,4.31l-2.82,0c-.84,0-1.66,0-2.52,0-.46,0-.65-.19-1.08-.73A33.11,33.11,0,0,1,82.68,94.9a63.17,63.17,0,0,1,2.79-23.71,2.71,2.71,0,0,1,2-2c2.48-.82,5.11-1.81,8.08-3a2.37,2.37,0,0,1,.76-.22h0s.09.16-.11.8l-.15.56a6.66,6.66,0,0,1-.36,1.15,20.69,20.69,0,0,0-.09,16.83,13,13,0,0,1-.32,10.43A19.09,19.09,0,0,0,95.1,110.06ZM111.31,118c0,.06-.13.08-.28.08a2.66,2.66,0,0,1-.6-.1q-4.59-1.42-9.19-2.78c-.58-.18-.64-.37-.64-.56a18.3,18.3,0,0,0-1.32-5.26,21,21,0,0,1-1.2-4.25,13.07,13.07,0,0,1,.73-6.79,20.19,20.19,0,0,0,0-16.47A12.71,12.71,0,0,1,98.87,72L99,71.6a16.56,16.56,0,0,0,1.58-6.7c0-.48.15-.69.73-.89l7.87-2.91,2.13-.79a15.88,15.88,0,0,1-1.14,5.17A24.51,24.51,0,0,0,110,81.84a20.55,20.55,0,0,1,.09,14.31,24,24,0,0,0,0,16.36,29.82,29.82,0,0,1,1.08,4l.13.52C111.48,117.69,111.35,117.92,111.31,118Z" style="fill:teal"/><line x1="112" y1="37.8" x2="111.33" y2="38.62" style="fill:teal"/><line x1="112.19" y1="37.56" x2="113.62" y2="35.8" style="fill:teal"/><path d="M106.57,49.68c3.24,3.4,6.77-1.12,8.23-4.59a1.34,1.34,0,0,0-1.12-1.81c-4.89-.56-7.64,1.41-8.16,5.39a10.47,10.47,0,0,0,6-2.85C110.83,47.36,108.6,49,106.57,49.68Z" style="fill:teal"/></svg>