<svg id="Layer_2" data-name="Layer 2" xmlns="http://www.w3.org/2000/svg" xmlns:xlink="http://www.w3.org/1999/xlink" viewBox="0 0 214.755 57.799">
  <defs>
    <linearGradient id="linear-gradient" x1="1.177" y1="36.98" x2="102.381" y2="64.097" gradientUnits="userSpaceOnUse">
      <stop offset="0" stop-color="#00b4d3"/>
      <stop offset="0.5" stop-color="#00b4d3"/>
      <stop offset="0.581" stop-color="#03b5d4"/>
      <stop offset="0.646" stop-color="#0db8d5"/>
      <stop offset="0.706" stop-color="#1ebdd8"/>
      <stop offset="0.762" stop-color="#36c4dc"/>
      <stop offset="0.817" stop-color="#55cde2"/>
      <stop offset="0.869" stop-color="#7bd8e8"/>
      <stop offset="0.92" stop-color="#a7e5f0"/>
      <stop offset="0.969" stop-color="#daf4f9"/>
      <stop offset="1" stop-color="#fff"/>
    </linearGradient>
    <linearGradient id="linear-gradient-2" x1="1.282" y1="25.501" x2="105.989" y2="53.556" gradientUnits="userSpaceOnUse">
      <stop offset="0" stop-color="#8fc850"/>
      <stop offset="0.5" stop-color="#8fc850"/>
      <stop offset="0.595" stop-color="#91c953"/>
      <stop offset="0.671" stop-color="#97cc5d"/>
      <stop offset="0.741" stop-color="#a2d16e"/>
      <stop offset="0.807" stop-color="#b2d986"/>
      <stop offset="0.87" stop-color="#c5e3a5"/>
      <stop offset="0.931" stop-color="#ddeeca"/>
      <stop offset="0.99" stop-color="#f9fcf6"/>
      <stop offset="1" stop-color="#fff"/>
    </linearGradient>
    <linearGradient id="linear-gradient-3" x1="1.393" y1="14.05" x2="109.584" y2="43.039" gradientUnits="userSpaceOnUse">
      <stop offset="0" stop-color="#fbed17"/>
      <stop offset="0.6" stop-color="#fbed17"/>
      <stop offset="0.668" stop-color="#fbed1a"/>
      <stop offset="0.722" stop-color="#fbee24"/>
      <stop offset="0.771" stop-color="#fcef35"/>
      <stop offset="0.818" stop-color="#fcf14d"/>
      <stop offset="0.863" stop-color="#fcf46c"/>
      <stop offset="0.907" stop-color="#fdf792"/>
      <stop offset="0.949" stop-color="#fefabe"/>
      <stop offset="0.99" stop-color="#fffef1"/>
      <stop offset="1" stop-color="#fff"/>
    </linearGradient>
    <linearGradient id="linear-gradient-4" y1="17.907" x2="117.423" y2="17.907" gradientUnits="userSpaceOnUse">
      <stop offset="0" stop-color="#f99c20"/>
      <stop offset="0.59" stop-color="#f99c20"/>
      <stop offset="0.649" stop-color="#f99e24"/>
      <stop offset="0.704" stop-color="#f9a32f"/>
      <stop offset="0.758" stop-color="#faab42"/>
      <stop offset="0.811" stop-color="#fbb75d"/>
      <stop offset="0.864" stop-color="#fcc67f"/>
      <stop offset="0.916" stop-color="#fdd9a9"/>
      <stop offset="0.967" stop-color="#feefdb"/>
      <stop offset="1" stop-color="#fff"/>
    </linearGradient>
    <linearGradient id="linear-gradient-5" x1="1.602" y1="-8.937" x2="116.786" y2="21.925" gradientUnits="userSpaceOnUse">
      <stop offset="0" stop-color="#ef493e"/>
      <stop offset="0.5" stop-color="#ef493e"/>
      <stop offset="0.569" stop-color="#ef4d42"/>
      <stop offset="0.642" stop-color="#f0594f"/>
      <stop offset="0.715" stop-color="#f26c63"/>
      <stop offset="0.789" stop-color="#f58880"/>
      <stop offset="0.864" stop-color="#f8aba6"/>
      <stop offset="0.938" stop-color="#fbd6d3"/>
      <stop offset="1" stop-color="#fff"/>
    </linearGradient>
  </defs>
  <title>Solaray logo</title>
  <g>
    <polygon points="106.299 45.395 0 45.395 0 56.417 102.584 56.417 106.299 45.395" style="fill: url(#linear-gradient)"/>
    <polygon points="110.006 34.395 0 34.395 0 45.395 106.299 45.395 110.006 34.395" style="fill: url(#linear-gradient-2)"/>
    <polygon points="113.704 23.425 0 23.425 0 34.395 110.006 34.395 113.704 23.425" style="fill: url(#linear-gradient-3)"/>
    <polygon points="117.423 12.389 0 12.389 0 23.425 113.704 23.425 117.423 12.389" style="fill: url(#linear-gradient-4)"/>
    <polygon points="121.148 1.339 0 1.294 0 12.389 117.423 12.389 121.148 1.339" style="fill: url(#linear-gradient-5)"/>
  </g>
  <path d="M184.3,63.955a.086.086,0,0,1-.027,0,.083.083,0,0,1-.053-.107L203.645,6.215a.081.081,0,0,1,.107-.054.085.085,0,0,1,.053.107L184.382,63.9A.085.085,0,0,1,184.3,63.955Z" transform="translate(-82.133 -6.156)" style="fill: #fed307"/>
  <path d="M293.336,24.179a3.542,3.542,0,1,1-3.57,3.522A3.524,3.524,0,0,1,293.336,24.179Zm0,6.562a3.022,3.022,0,1,0-2.927-3.04A2.92,2.92,0,0,0,293.336,30.741Zm-1.382-5.095h1.6c.984,0,1.449.388,1.449,1.185a1.062,1.062,0,0,1-1.09,1.125l1.183,1.83H294.4L293.277,28h-.68v1.782h-.643Zm.643,1.837h.673c.569,0,1.086-.028,1.086-.682,0-.549-.473-.634-.909-.634h-.85Z" transform="translate(-82.133 -6.156)" style="fill: #262f68"/>
  <path d="M111.085,54.381c-.661-.348-.708-.547-.708-1.889,0-2.483.189-4.47.236-5.265.047-.547.141-.795.378-.795.283,0,.33.149.33.546a9.171,9.171,0,0,0,.142,1.838c.708,3.676,3.823,5.068,6.985,5.068a6.46,6.46,0,0,0,6.748-6.608c0-3.428-1.368-5.415-5.427-8.942L117.645,36.5c-5-4.322-6.135-7.4-6.135-10.78,0-5.316,3.776-8.942,9.77-8.942a17.425,17.425,0,0,1,4.388.5,7.367,7.367,0,0,0,1.653.249c.377,0,.472.1.472.347s-.19,1.888-.19,5.267c0,.794-.094,1.142-.33,1.142-.283,0-.33-.248-.377-.646a9.106,9.106,0,0,0-.614-2.484c-.283-.547-1.558-2.633-5.9-2.633a5.492,5.492,0,0,0-5.8,5.763c0,2.832,1.321,4.521,5.757,8.346l1.322,1.093c5.569,4.62,6.891,7.7,6.891,11.675a10.5,10.5,0,0,1-4.012,8.246,11.952,11.952,0,0,1-7.127,2.087A13.728,13.728,0,0,1,111.085,54.381Z" transform="translate(-82.133 -6.156)" style="fill: #262f68"/>
  <path d="M147.46,24.038c8.6,0,15.014,5.709,15.014,15.078,0,9.006-6.036,16.445-15.243,16.445-10.467,0-14.822-8.565-14.822-15.8C132.409,33.245,136.917,24.038,147.46,24.038Zm.8,30c3.438,0,10.544-2.091,10.544-13.791,0-9.65-5.579-14.837-11.614-14.837-6.379,0-11.154,4.423-11.154,13.228C136.039,48,141.387,54.033,148.263,54.033Z" transform="translate(-82.133 -6.156)" style="fill: #262f68"/>
  <path d="M171.153,43.418c0,5.911.152,8.484.841,9.208.611.643,1.6.924,4.584.924,2.024,0,3.7-.039,4.622-1.2a5.762,5.762,0,0,0,.993-2.414c.039-.321.114-.522.345-.522.19,0,.229.161.229.6a26.912,26.912,0,0,1-.574,4.021c-.267.925-.382,1.085-2.406,1.085-5.5,0-8.022-.241-10.238-.241-.344,0-2.6.121-3.744.121-.421,0-.612-.081-.612-.321,0-.121.077-.242.306-.242a5.58,5.58,0,0,0,1.146-.161c.764-.161.955-1.045,1.108-2.211.191-1.688.191-4.866.191-8.725V36.261c0-6.272,0-7.4-.076-8.685-.076-1.367-.382-2.011-1.643-2.292a6.834,6.834,0,0,0-1.3-.121c-.152,0-.306-.08-.306-.241,0-.241.192-.322.612-.322,1.719,0,4.126.121,4.317.121s2.979-.121,4.126-.121c.42,0,.61.081.61.322,0,.161-.152.241-.306.241a8.594,8.594,0,0,0-1.26.121c-1.108.2-1.414.885-1.489,2.292-.077,1.287-.077,2.413-.077,8.685Z" transform="translate(-82.133 -6.156)" style="fill: #262f68"/>
  <path d="M216.307,36.261c0-6.272,0-7.4-.077-8.685-.076-1.367-.382-2.011-1.642-2.292a6.834,6.834,0,0,0-1.3-.121c-.152,0-.306-.08-.306-.241,0-.241.191-.322.612-.322,1.718,0,4.125.121,4.317.121.419,0,3.323-.121,4.507-.121,2.407,0,4.966.242,6.991,1.77a7.144,7.144,0,0,1,2.636,5.468c0,2.975-1.185,5.951-4.623,9.288,3.133,4.222,5.731,7.8,7.947,10.293,2.062,2.292,3.7,2.735,4.66,2.9a8.761,8.761,0,0,0,1.49.12c.191,0,.343.121.343.242,0,.24-.229.321-.916.321h-2.713a7.428,7.428,0,0,1-4.087-.765c-1.643-.924-2.98-2.894-5.158-5.91-1.6-2.211-3.4-4.905-4.163-5.951a.607.607,0,0,0-.5-.241l-4.7-.08c-.191,0-.267.12-.267.321v.966c0,3.859,0,7.037.191,8.725.114,1.166.344,2.05,1.49,2.211a15.708,15.708,0,0,0,1.719.161c.229,0,.305.121.305.242,0,.2-.191.321-.61.321-2.1,0-4.508-.121-4.7-.121-.038,0-2.445.121-3.59.121-.421,0-.612-.081-.612-.321,0-.121.077-.242.306-.242a5.6,5.6,0,0,0,1.147-.161c.763-.161.954-1.045,1.106-2.211.192-1.688.192-4.866.192-8.725Zm3.056,3.5a.531.531,0,0,0,.267.483,10.074,10.074,0,0,0,4.011.643,4.76,4.76,0,0,0,2.866-.764c1.337-.965,2.33-3.136,2.33-6.192,0-5.026-2.522-8.042-6.609-8.042a10.957,10.957,0,0,0-2.56.242.485.485,0,0,0-.305.482Z" transform="translate(-82.133 -6.156)" style="fill: #262f68"/>
  <path d="M273.73,44.584a8.879,8.879,0,0,0-.879-4.222c-.267-.643-5.386-9.489-6.723-11.58a11.061,11.061,0,0,0-2.6-2.975,3.548,3.548,0,0,0-1.643-.644c-.191,0-.382-.08-.382-.281,0-.161.153-.282.5-.282.725,0,3.59.121,3.782.121.267,0,1.718-.121,3.209-.121.419,0,.5.121.5.282s-.229.2-.573.362a.811.811,0,0,0-.5.724,3.553,3.553,0,0,0,.5,1.568c.612,1.166,6.341,11.54,7.029,12.706.726-1.689,5.577-10.495,6.341-11.822a4.066,4.066,0,0,0,.65-2.05c0-.563-.153-1.006-.611-1.126-.344-.121-.573-.2-.573-.4,0-.161.229-.242.611-.242.993,0,2.216.121,2.521.121.23,0,2.98-.121,3.706-.121.267,0,.5.081.5.242,0,.2-.191.321-.5.321a3.508,3.508,0,0,0-1.758.563,7.458,7.458,0,0,0-2.024,2.051,129.646,129.646,0,0,0-7.3,12.786,10.084,10.084,0,0,0-.573,4.021v3.458c0,.643,0,2.333.115,4.021.076,1.166.42,2.05,1.566,2.211a15.73,15.73,0,0,0,1.719.161c.23,0,.306.121.306.242,0,.2-.191.321-.611.321-2.1,0-4.508-.121-4.7-.121s-2.6.121-3.744.121c-.42,0-.611-.081-.611-.321,0-.121.076-.242.305-.242a5.59,5.59,0,0,0,1.147-.161c.764-.161,1.108-1.045,1.184-2.211.114-1.688.114-3.378.114-4.021Z" transform="translate(-82.133 -6.156)" style="fill: #262f68"/>
  <path d="M266.051,54.435c-.184,0-.511-.024-.857-.058a4.165,4.165,0,0,1-.769-.183c-.8-.242-1.909-.885-3.284-4.463-2.331-6.113-8.328-22.718-8.9-24.246-.458-1.246-.612-1.447-.841-1.447s-.382.241-.84,1.568l-8.672,24.969c-.688,2.01-1.451,3.538-3.209,3.78a11.049,11.049,0,0,1-1.107.08c-.192,0-.344.081-.344.242,0,.24.229.321.725.321,1.8,0,3.9-.121,4.317-.121s2.063.121,2.98.121c.344,0,.573-.081.573-.321,0-.161-.115-.242-.382-.242h-.382c-.65,0-1.452-.363-1.452-1.166a8.872,8.872,0,0,1,.535-2.694l2.293-7.117c.075-.2.19-.322.381-.322h8.214a.334.334,0,0,1,.343.242l3.51,9.769a.728.728,0,0,1,.025.122,1.055,1.055,0,0,1-.641.962.889.889,0,0,1-.123.043,5.58,5.58,0,0,1-1.146.161c-.23,0-.305.121-.305.242,0,.24.19.321.61.321,1.146,0,3.553-.121,3.744-.121s2.6.121,4.7.121c.42,0,.612-.121.612-.321C266.357,54.556,266.28,54.435,266.051,54.435Zm-11.52-12.746h-7.3c-.114,0-.191-.08-.114-.281l3.361-10.857q.288-.9.573,0l3.63,10.857C254.723,41.569,254.723,41.689,254.531,41.689Z" transform="translate(-82.133 -6.156)" style="fill: #262f68"/>
  <path d="M211.732,54.435c-.184,0-.511-.024-.857-.058a4.155,4.155,0,0,1-.768-.183c-.8-.242-1.91-.885-3.285-4.463-2.33-6.113-8.328-22.718-8.9-24.246-.458-1.246-.612-1.447-.841-1.447s-.381.241-.84,1.568l-8.671,24.969c-.689,2.01-1.452,3.538-3.209,3.78a11.09,11.09,0,0,1-1.108.08c-.191,0-.344.081-.344.242,0,.24.229.321.725.321,1.8,0,3.9-.121,4.317-.121s2.064.121,2.98.121c.344,0,.573-.081.573-.321,0-.161-.115-.242-.382-.242h-.382c-.65,0-1.452-.363-1.452-1.166a8.9,8.9,0,0,1,.535-2.694l2.293-7.117c.076-.2.19-.322.381-.322h8.214a.334.334,0,0,1,.343.242l3.51,9.769a.753.753,0,0,1,.026.122,1.056,1.056,0,0,1-.642.962.924.924,0,0,1-.122.043,5.6,5.6,0,0,1-1.147.161c-.229,0-.305.121-.305.242,0,.24.19.321.611.321,1.145,0,3.552-.121,3.744-.121s2.6.121,4.7.121c.421,0,.612-.121.612-.321C212.038,54.556,211.961,54.435,211.732,54.435ZM200.213,41.689h-7.3c-.115,0-.192-.08-.115-.281l3.362-10.857q.286-.9.573,0l3.629,10.857C200.4,41.569,200.4,41.689,200.213,41.689Z" transform="translate(-82.133 -6.156)" style="fill: #262f68"/>
</svg>
