<?xml version="1.0" encoding="utf-8"?>
<!-- Generator: Adobe Illustrator 24.0.1, SVG Export Plug-In . SVG Version: 6.00 Build 0)  -->
<svg version="1.1" id="Layer_1" xmlns="http://www.w3.org/2000/svg" xmlns:xlink="http://www.w3.org/1999/xlink" x="0px" y="0px"
	 viewBox="0 0 357.3 85" style="enable-background:new 0 0 357.3 85;" xml:space="preserve">
<style type="text/css">
	.st0{fill:url(#SVGID_1_);}
	.st1{fill:#FFFFFF;}
	.st2{fill-rule:evenodd;clip-rule:evenodd;fill:#030303;}
	.st3{fill:#030303;}
</style>
<g>
	<linearGradient id="SVGID_1_" gradientUnits="userSpaceOnUse" x1="1.222" y1="42.48" x2="84.232" y2="42.48">
		<stop  offset="0" style="stop-color:#FDBC28"/>
		<stop  offset="0.1132" style="stop-color:#FAA425"/>
		<stop  offset="0.2416" style="stop-color:#F89223"/>
		<stop  offset="0.3937" style="stop-color:#F68521"/>
		<stop  offset="0.5906" style="stop-color:#F57D20"/>
		<stop  offset="0.9944" style="stop-color:#F57B20"/>
	</linearGradient>
	<path class="st0" d="M84.2,43.2v-1.4C83.9,19.2,65.4,0.9,42.7,0.9C20,0.9,1.6,19.2,1.2,41.8v1.4C1.6,65.8,20,84,42.7,84
		S83.9,65.8,84.2,43.2z"/>
	<path class="st1" d="M32.5,41c8.5,1.1,14.6-1.6,18.1-5.7c1.5-1.7,2.5-3.8,3.1-6c0.5-2.1,0.6-4.3,0.1-6.5c-1.1-5-5-9.4-11.8-11.1
		c-2.3-0.6-4.6-0.7-6.9-0.6c-7.8,0.6-15.5,4.9-21.6,10.3S2.9,33.7,1.6,38.9c-0.2,0.7-0.3,1.5-0.4,2.2c0,0.4,0,0.9,0,1.3l0,0
		c0,0.5,0,1,0,1.5c0.1,0.7,0.2,1.4,0.3,2.1c1.3,5.2,5.8,11.9,11.9,17.3s13.8,9.8,21.6,10.3c2.3,0.2,4.7,0,6.9-0.6
		c3.7-0.7,7-2.8,9.2-5.8c4.8-6.8,1.2-15.5-5.1-19.9c-3.7-2.5-10.7-4.9-17.3-5.6c-5.6-0.6-11,0-13.9,2.6l-0.1,0.1
		c-2.7,2.8-2.5,6-0.8,9c1.2,2,2.9,3.6,4.8,4.8c2,1.3,4.3,2.2,6.6,2.7c3.7,0.7,7.4,0,9.8-2.9c2.4-2.8-0.5-3.4-2.6-1.9
		C28.8,59,22,57.3,19.4,52.9c-1.1-1.6-1-3.7,0.4-5.2c3.6-3.1,10-2.7,14.6-1.8c21.6,4.3,14.8,29.9-5.5,23
		C18.6,65.3,9.6,54.4,9.2,44.4C8.7,32.3,18,20.3,28.7,16c17.3-6.9,25,10.8,16.4,18.5c-2.5,2.3-6.3,4.1-11.9,3.4
		C29.1,37.4,28.9,40.5,32.5,41L32.5,41z"/>
</g>
<g>
	<path class="st2" d="M271.4,10.8c2.9,0,5.3,2.4,5.3,5.3c0,2.9-2.4,5.3-5.3,5.3c-2.9,0-5.3-2.4-5.3-5.3c0,0,0,0,0,0
		C266.1,13.2,268.5,10.8,271.4,10.8z"/>
	<path class="st3" d="M109.8,53.4c0.1-0.9-0.2-1.7-0.8-2.3c-0.8-0.7-1.7-1.3-2.7-1.8c-1.2-0.6-2.5-1.2-4.1-1.8
		c-1.7-0.7-3.4-1.6-5-2.6c-1.2-0.7-2.3-1.6-3.2-2.7c-0.8-1-1.4-2.2-1.8-3.4c-0.4-1.2-0.5-2.5-0.5-3.7c0.1-1.3,0.4-2.6,0.9-3.8
		c0.5-1.1,1.2-2.2,2.1-3c0.9-0.8,1.8-1.5,2.9-2c1-0.5,2.1-0.9,3.2-1.1c1-0.2,2-0.3,3-0.3h1c5.5,0.3,10.5,2.8,14,7.1l0.2,0.2
		l-0.2,0.3c-0.5,0.7-1.1,1.3-1.8,1.7c-0.6,0.4-1.3,0.6-2,0.6c-0.8,0-1.5-0.2-2.2-0.5c-0.7-0.3-1.5-0.6-2.3-0.9c-1-0.4-2-0.8-2.9-1.1
		c-0.9-0.3-1.8-0.5-2.7-0.5c-1-0.1-1.9,0.2-2.7,0.8c-0.6,0.5-0.9,1.1-1,1.8c-0.1,1,0.2,1.9,1,2.6c1,0.8,2.1,1.5,3.3,1.9
		c1.7,0.7,3.5,1.5,5.4,2.3c1.8,0.8,3.5,1.8,5,3.1c1.4,1.2,2.6,2.7,3.3,4.4c0.8,2,0.9,4.2,0.2,6.2c-0.3,1.1-0.8,2.1-1.4,3.1
		c-0.7,1.1-1.6,2.1-2.7,2.9c-1.3,0.9-2.7,1.7-4.2,2.1c-1.9,0.6-3.8,0.9-5.8,0.9c-0.4,0-0.7,0-1.1-0.1c-5.4-0.3-10.5-2.8-14-7
		l-0.2-0.2l0.2-0.3c0.2-0.4,0.5-0.8,0.9-1.1c0.3-0.3,0.6-0.5,0.9-0.7c0.6-0.3,1.3-0.5,1.9-0.5c0.8,0,1.5,0.1,2.2,0.4
		c0.7,0.3,1.5,0.6,2.3,0.9c0.8,0.4,1.7,0.7,2.6,1c1,0.3,2.1,0.5,3.1,0.6c1.9,0,3.3-0.4,4.2-1.1C109.1,55.1,109.6,54.3,109.8,53.4
		L109.8,53.4z M323.4,42.2c5-3.2,12.2-3.4,17.9-1.8c-0.1-1.2-0.3-2.3-0.6-3.4c-0.4-1.2-1-2.3-1.8-3.3c-0.7-0.7-1.5-1.3-2.4-1.6
		c-0.9-0.3-1.8-0.4-2.7-0.4c0,0-0.1,0-0.1,0l-0.4,0c-0.8,0-1.5,0.2-2.3,0.4c-0.8,0.2-1.5,0.4-2.3,0.7c-0.8,0.3-1.5,0.5-2.3,0.7
		c-0.7,0.2-1.4,0.3-2.2,0.3c-0.8,0-1.5-0.2-2.2-0.5c-0.7-0.5-1.3-1.1-1.7-1.9L320,31l0.2-0.2c1.6-1.7,3.6-3.2,5.7-4.2
		c1.9-0.9,4-1.5,6.1-1.7l0-0.1c0.3,0,0.6,0,0.9,0l0.1,0c0.2,0,0.5-0.1,0.7-0.1h0.7c1.6,0,3.2,0.2,4.8,0.6c0.3,0,0.5,0.1,0.7,0.1
		c2.1,0.5,4,1.4,5.7,2.6c1.8,1.4,3.2,3.3,4.1,5.4c1.1,2.8,1.7,5.9,1.6,8.9V55c0,1.6,0,3,0,4c0,1,0.1,1.8,0.1,2.4
		c0.1,0.7,0.1,1.1,0.2,1.5c-3.4,0-5.9-0.7-7.7-2.1c-0.3-0.3-0.6-0.6-0.9-0.9c-1.5,1.8-3.9,3.3-7.9,3.7c-4.4,0.5-8.9-0.6-12.5-3.2
		c-4-3.1-5.7-10.1-2.9-14.6C320.7,44.3,321.9,43.1,323.4,42.2L323.4,42.2z M329.4,48.2c-1.3,1.8-1.4,4.2-0.2,6
		c2.7,4,12.6,3.4,12.1-5.1c0-0.2,0-0.3,0-0.5l0-2.4C337.4,45.5,332.2,44.6,329.4,48.2L329.4,48.2z M317.6,60.2
		c-0.5,0.5-1,0.9-1.6,1.3c-0.5,0.4-1.1,0.6-1.7,0.9c-0.6,0.2-1.3,0.4-2,0.4c-1.9,0-3.7-0.7-5-2c-1.5-1.4-2.8-2.9-3.9-4.6
		c-0.6-1-1.4-2-2.1-3.2c-0.8-1.1-1.5-2.2-2.2-3.3s-1.3-2-1.9-2.8c-0.6-0.9-1-1.5-1.3-2c-0.9,0.7-1.7,1.4-2.4,2s-1.4,1.1-1.9,1.6V55
		c0,1.6,0,3,0,4c0,1,0.1,1.8,0.1,2.4c0.1,0.7,0.1,1.1,0.2,1.5c-3.4,0-5.9-0.7-7.7-2.1s-2.6-3.7-2.6-6.9l0.3-38.4
		c0-3.3,0.8-5.6,2.5-6.9c1.7-1.4,4.2-2.1,7.5-2.1c0,0.3-0.1,0.8-0.2,1.5c-0.1,0.6-0.1,1.4-0.1,2.4c0,1,0,2.4,0,4v22.4
		c0.8-0.6,1.7-1.3,2.6-2c0.9-0.7,1.8-1.4,2.6-2.1c0.8-0.7,1.7-1.3,2.4-1.9s1.4-1.1,2-1.5c1.6-1.4,3.4-2.5,5.4-3.4
		c1.2-0.5,2.5-0.8,3.8-0.9c1.1-0.1,2.1,0,3.1,0.3c0.7,0.3,1.3,0.6,1.8,1.1c0.5,0.5,0.9,1.1,1.1,1.8c-0.4,0.3-1.1,0.9-2,1.6
		s-1.9,1.6-3.1,2.6c-1.2,1-2.5,2-3.9,3.2c-1.4,1.2-2.8,2.3-4.3,3.5l9,13.3L317.6,60.2L317.6,60.2z M276.5,51.8v2
		c0,3.3-0.9,5.6-2.6,7s-4.3,2.1-7.6,2.1c0.1-0.4,0.1-0.9,0.2-1.5c0.1-0.6,0.1-1.4,0.1-2.4s0-2.3,0-3.9v-3.2h0l0.1-17.1
		c0-3.3,0.9-5.6,2.6-7c1.7-1.4,4.3-2.1,7.6-2.1c0,0.4-0.1,0.9-0.2,1.6c-0.1,0.6-0.1,1.4-0.1,2.4c0,1,0,2.3,0,3.9L276.5,51.8
		L276.5,51.8z M202.9,16c0-1.6,0-3,0-4c0-1-0.1-1.8-0.1-2.5c-0.1-0.6-0.1-1.1-0.2-1.5c3.4,0,5.9,0.7,7.7,2.1
		c1.8,1.4,2.7,3.7,2.7,6.9l0,7.7h8.7c0.1,2.1-0.6,4.2-2,5.9c-1.5,1.5-3.6,2.3-5.8,2.2H213l0,13.5c-0.1,1.9,0.2,3.7,0.7,5.5
		c2.1,6.2,7.2,3.9,6.7,11.1c-2,0-4.1-0.2-6.1-0.6c-2.1-0.4-4-1.3-5.7-2.6c-1.8-1.4-3.2-3.3-4.1-5.4c-1.2-2.8-1.7-5.9-1.6-8.9
		L202.9,16L202.9,16z M261.2,55c0,1.6,0,3,0,4s0.1,1.8,0.1,2.4c0.1,0.7,0.1,1.1,0.2,1.5c-3.4,0-5.9-0.7-7.7-2.1
		c-1.8-1.4-2.7-3.7-2.7-6.9L251,42.4c0.1-1.9-0.2-3.7-0.7-5.5c-0.4-1.2-1-2.3-1.8-3.3c-0.7-0.7-1.5-1.3-2.4-1.6
		c-0.9-0.3-1.8-0.4-2.7-0.4c-0.9,0-1.8,0.1-2.7,0.4c-0.9,0.3-1.8,0.8-2.4,1.6c-0.8,0.9-1.4,2.1-1.7,3.3c-0.5,1.8-0.7,3.6-0.7,5.5V55
		c0,1.6,0,3,0.1,4s0,1.8,0.1,2.4c0.1,0.7,0.1,1.1,0.2,1.5c-3.3,0-5.9-0.7-7.7-2.1s-2.6-3.7-2.6-6.9l0.1-38.4c0-3.3,0.8-5.6,2.5-6.9
		c1.7-1.4,4.2-2.1,7.6-2.1c-0.1,0.3-0.1,0.8-0.2,1.5c0,0.6-0.1,1.4-0.1,2.4c0,1,0,2.4,0,4v11.6c1.2-0.4,2.5-0.8,3.9-0.9
		c1.3-0.2,2.6-0.3,3.9-0.3c2.1,0,4.2,0.2,6.3,0.7c2.1,0.5,4,1.4,5.7,2.6c1.8,1.4,3.2,3.3,4.1,5.4c1.1,2.8,1.7,5.9,1.6,8.9L261.2,55
		L261.2,55z M193.1,30.5c1.7,1.8,3,3.9,3.9,6.1c1,2.4,1.4,5,1.4,7.6c0,2.6-0.4,5.2-1.3,7.6c-0.8,2.3-2,4.3-3.6,6.1
		c-1.6,1.8-3.5,3.2-5.7,4.2c-2.4,1-4.9,1.6-7.5,1.5c-2.4,0-4.8-0.5-7-1.5c-2.2-1-4.2-2.5-5.8-4.2c-1.7-1.8-3-3.9-3.9-6.1
		c-1-2.4-1.4-5-1.4-7.6c0-2.6,0.4-5.2,1.3-7.6c0.8-2.3,2-4.4,3.6-6.1c1.6-1.8,3.5-3.2,5.7-4.2c2.4-1.1,4.9-1.6,7.5-1.5
		c2.5,0,4.9,0.5,7.1,1.5C189.6,27.3,191.5,28.8,193.1,30.5L193.1,30.5z M180.3,56.8c0.8,0,1.7-0.2,2.5-0.5c1-0.4,2-1,2.7-1.9
		c1-1.1,1.7-2.4,2.2-3.8c0.7-2,1-4.2,0.9-6.3c0.1-2.2-0.2-4.3-0.9-6.4c-0.5-1.4-1.2-2.7-2.2-3.8c-0.7-0.8-1.7-1.4-2.7-1.8
		c-1.6-0.7-3.4-0.7-5,0c-1,0.4-2,1-2.7,1.8c-1,1.1-1.7,2.4-2.2,3.8c-0.7,2.1-1,4.2-0.9,6.4c-0.1,2.1,0.2,4.3,0.9,6.3
		c0.5,1.4,1.2,2.7,2.2,3.8c0.7,0.8,1.7,1.5,2.7,1.9C178.6,56.6,179.5,56.8,180.3,56.8L180.3,56.8z M153.6,30.5
		c1.7,1.8,3,3.9,3.9,6.1c1,2.4,1.4,5,1.4,7.6c0,2.6-0.4,5.2-1.3,7.6c-0.8,2.3-2,4.3-3.6,6.1c-1.6,1.8-3.5,3.2-5.7,4.2
		c-2.4,1.1-4.9,1.6-7.5,1.5c-2.4,0-4.8-0.5-7-1.5c-2.2-1-4.2-2.5-5.8-4.2c-1.7-1.8-3-3.9-3.9-6.1c-1-2.4-1.4-5-1.4-7.6
		c0-2.6,0.4-5.2,1.2-7.6c0.8-2.3,2-4.3,3.6-6.1c1.6-1.8,3.5-3.2,5.7-4.2c2.4-1.1,4.9-1.6,7.5-1.5c2.5,0,4.9,0.5,7.1,1.5
		C150.1,27.3,152,28.8,153.6,30.5L153.6,30.5z M140.8,56.8c0.8,0,1.7-0.2,2.5-0.5c1-0.4,2-1,2.7-1.9c1-1.1,1.7-2.4,2.2-3.8
		c0.7-2,1-4.2,0.9-6.3c0.1-2.2-0.2-4.3-0.9-6.4c-0.5-1.4-1.2-2.7-2.2-3.8c-0.8-0.8-1.7-1.4-2.7-1.8c-1.6-0.7-3.4-0.7-5,0
		c-1,0.4-2,1-2.7,1.8c-1,1.1-1.7,2.4-2.2,3.8c-0.7,2.1-1,4.2-0.9,6.4c-0.1,2.1,0.2,4.3,0.9,6.3c0.5,1.4,1.2,2.7,2.2,3.8
		c0.7,0.8,1.7,1.5,2.7,1.9C139.1,56.6,139.9,56.8,140.8,56.8z"/>
	<polygon points="347.3,19.1 345.4,19.1 345.4,18.1 350.4,18.1 350.4,19.1 348.5,19.1 348.5,24.7 347.3,24.7 347.3,19.1 	"/>
	<path d="M351.5,18.1h1.3l1.2,3.3l0.4,1.3h0l0.4-1.3l1.2-3.3h1.3v6.6h-1.1v-3c0-0.2,0-0.3,0-0.5s0-0.4,0-0.6s0-0.4,0.1-0.5
		s0-0.3,0.1-0.5h0l-0.5,1.5l-1.1,3h-0.5l-1.1-3l-0.5-1.5h0c0,0.2,0,0.3,0,0.5s0,0.4,0,0.5s0,0.4,0,0.6s0,0.3,0,0.5v3h-1.1
		L351.5,18.1L351.5,18.1z"/>
</g>
</svg>
