<?xml version="1.0" encoding="utf-8"?>
<!-- Generator: Adobe Illustrator 23.1.0, SVG Export Plug-In . SVG Version: 6.00 Build 0)  -->
<svg version="1.1" xmlns="http://www.w3.org/2000/svg" xmlns:xlink="http://www.w3.org/1999/xlink" x="0px" y="0px"
	 viewBox="0 0 1920 1080" style="enable-background:new 0 0 1920 1080;" xml:space="preserve">
<style type="text/css">
	.st0{fill:#72BF44;}
	.st1{fill:#4D98C8;}
	.st2{fill:#4EA2D1;}
	.st3{fill:#FFFFFF;}
	.st4{fill:#71BF44;}
	.st5{fill:url(#SVGID_67_);}
</style>
<g id="Layer_1">
	<g>
		<g>
			<g>
				<g>
					<defs>
						<path id="SVGID_1_" d="M181.47,885.73l8.31-46.94h-15.99l1.84-10.22h42.77l-1.84,10.22h-15.99l-8.32,46.94H181.47z"/>
					</defs>
					<use xlink:href="#SVGID_1_"  style="overflow:visible;fill:#2F8E39;"/>
					<clipPath id="SVGID_2_">
						<use xlink:href="#SVGID_1_"  style="overflow:visible;"/>
					</clipPath>
				</g>
			</g>
		</g>
		<g>
			<g>
				<g>
					<defs>
						<path id="SVGID_3_" d="M226.07,828.57h10.79l-4.08,22.83h24.14l4.08-22.83h10.71l-10.15,57.16h-10.71l4.24-24.11h-24.14
							l-4.24,24.11h-10.79L226.07,828.57z"/>
					</defs>
					<use xlink:href="#SVGID_3_"  style="overflow:visible;fill:#2F8E39;"/>
					<clipPath id="SVGID_4_">
						<use xlink:href="#SVGID_3_"  style="overflow:visible;"/>
					</clipPath>
				</g>
			</g>
		</g>
		<g>
			<g>
				<g>
					<defs>
						<path id="SVGID_5_" d="M292.17,838.79l-2.32,13.25h22.94l-1.84,10.22h-22.94l-2.4,13.25h25.58l-1.84,10.22h-36.29l10.15-57.16
							h36.29l-1.84,10.22H292.17z"/>
					</defs>
					<use xlink:href="#SVGID_5_"  style="overflow:visible;fill:#2F8E39;"/>
					<clipPath id="SVGID_6_">
						<use xlink:href="#SVGID_5_"  style="overflow:visible;"/>
					</clipPath>
				</g>
			</g>
		</g>
		<g>
			<g>
				<g>
					<defs>
						<path id="SVGID_7_" d="M355.96,838.79l-2.32,13.25h22.94l-1.84,10.22H351.8l-2.4,13.25h25.58l-1.84,10.22h-36.29l10.15-57.16
							h36.29l-1.84,10.22H355.96z"/>
					</defs>
					<use xlink:href="#SVGID_7_"  style="overflow:visible;fill:#2F8E39;"/>
					<clipPath id="SVGID_8_">
						<use xlink:href="#SVGID_7_"  style="overflow:visible;"/>
					</clipPath>
				</g>
			</g>
		</g>
		<g>
			<g>
				<g>
					<defs>
						<path id="SVGID_9_" d="M401.36,887c-2.4,0-4.67-0.33-6.8-0.99c-2.13-0.67-4.05-1.68-5.75-3.04c-1.71-1.35-3.15-3.04-4.32-5.07
							c-1.17-2.02-1.97-4.39-2.4-7.1l10.31-4.15c0.11,1.44,0.4,2.77,0.88,3.99s1.15,2.29,2,3.19c0.85,0.91,1.88,1.63,3.08,2.16
							c1.2,0.53,2.57,0.8,4.11,0.8c2.77,0,5.12-0.68,7.04-2.04c1.92-1.36,2.88-3.21,2.88-5.55c0-1.97-0.69-3.62-2.08-4.95
							c-1.38-1.33-3.78-2.66-7.19-3.99l-2.8-1.12c-1.55-0.58-3.02-1.32-4.44-2.2c-1.41-0.88-2.65-1.93-3.71-3.15
							c-1.07-1.22-1.92-2.65-2.56-4.27c-0.64-1.63-0.96-3.48-0.96-5.55c0-2.4,0.52-4.62,1.56-6.67c1.04-2.04,2.46-3.8,4.28-5.27
							c1.81-1.46,3.96-2.62,6.44-3.47c2.48-0.85,5.16-1.28,8.03-1.28c2.93,0,5.44,0.4,7.52,1.2c2.08,0.8,3.79,1.81,5.16,3.03
							c1.36,1.22,2.41,2.55,3.16,3.95c0.75,1.41,1.25,2.76,1.52,4.04l-9.91,3.75c-0.37-1.71-1.24-3.14-2.6-4.31
							c-1.36-1.17-3.35-1.76-5.96-1.76c-1.07,0-2.11,0.14-3.12,0.44c-1.02,0.3-1.92,0.71-2.72,1.24c-0.8,0.53-1.44,1.19-1.92,1.99
							s-0.72,1.71-0.72,2.71c0,1.76,0.65,3.21,1.96,4.35c1.3,1.14,3.31,2.22,6.04,3.23l3.35,1.19c3.84,1.44,6.89,3.38,9.16,5.83
							c2.26,2.45,3.39,5.72,3.39,9.82c0,2.77-0.53,5.31-1.6,7.63c-1.07,2.31-2.56,4.31-4.48,5.99c-1.92,1.68-4.22,2.99-6.91,3.95
							C407.58,886.53,404.61,887,401.36,887z"/>
					</defs>
					<use xlink:href="#SVGID_9_"  style="overflow:visible;fill:#2F8E39;"/>
					<clipPath id="SVGID_10_">
						<use xlink:href="#SVGID_9_"  style="overflow:visible;"/>
					</clipPath>
				</g>
			</g>
		</g>
		<g>
			<g>
				<g>
					<defs>
						<path id="SVGID_11_" d="M447.33,887c-2.4,0-4.67-0.33-6.8-0.99c-2.13-0.67-4.05-1.68-5.75-3.04
							c-1.71-1.35-3.15-3.04-4.32-5.07c-1.17-2.02-1.97-4.39-2.4-7.1l10.31-4.15c0.11,1.44,0.4,2.77,0.88,3.99
							c0.48,1.22,1.15,2.29,2,3.19c0.85,0.91,1.88,1.63,3.08,2.16c1.2,0.53,2.57,0.8,4.11,0.8c2.77,0,5.12-0.68,7.04-2.04
							c1.92-1.36,2.88-3.21,2.88-5.55c0-1.97-0.69-3.62-2.08-4.95c-1.38-1.33-3.78-2.66-7.19-3.99l-2.8-1.12
							c-1.55-0.58-3.02-1.32-4.44-2.2s-2.65-1.93-3.71-3.15c-1.07-1.22-1.92-2.65-2.56-4.27c-0.64-1.63-0.96-3.48-0.96-5.55
							c0-2.4,0.52-4.62,1.56-6.67c1.04-2.04,2.46-3.8,4.28-5.27c1.81-1.46,3.96-2.62,6.44-3.47c2.48-0.85,5.16-1.28,8.03-1.28
							c2.93,0,5.44,0.4,7.52,1.2c2.08,0.8,3.79,1.81,5.16,3.03c1.36,1.22,2.41,2.55,3.16,3.95c0.75,1.41,1.25,2.76,1.52,4.04
							l-9.91,3.75c-0.37-1.71-1.24-3.14-2.6-4.31c-1.36-1.17-3.35-1.76-5.96-1.76c-1.07,0-2.11,0.14-3.12,0.44
							c-1.02,0.3-1.92,0.71-2.72,1.24s-1.44,1.19-1.92,1.99s-0.72,1.71-0.72,2.71c0,1.76,0.65,3.21,1.96,4.35
							c1.3,1.14,3.31,2.22,6.04,3.23l3.35,1.19c3.84,1.44,6.89,3.38,9.16,5.83c2.26,2.45,3.39,5.72,3.39,9.82
							c0,2.77-0.53,5.31-1.6,7.63c-1.07,2.31-2.56,4.31-4.48,5.99c-1.92,1.68-4.22,2.99-6.91,3.95
							C453.54,886.53,450.58,887,447.33,887z"/>
					</defs>
					<use xlink:href="#SVGID_11_"  style="overflow:visible;fill:#2F8E39;"/>
					<clipPath id="SVGID_12_">
						<use xlink:href="#SVGID_11_"  style="overflow:visible;"/>
					</clipPath>
				</g>
			</g>
		</g>
		<g>
			<g>
				<g>
					<defs>
						<path id="SVGID_13_" d="M494.09,838.79l-2.32,13.25h22.94l-1.84,10.22h-22.94l-2.4,13.25h25.58l-1.84,10.22h-36.29
							l10.15-57.16h36.29l-1.84,10.22H494.09z"/>
					</defs>
					<use xlink:href="#SVGID_13_"  style="overflow:visible;fill:#2F8E39;"/>
					<clipPath id="SVGID_14_">
						<use xlink:href="#SVGID_13_"  style="overflow:visible;"/>
					</clipPath>
				</g>
			</g>
		</g>
		<g>
			<g>
				<g>
					<defs>
						<path id="SVGID_15_" d="M531.33,828.57h11.99l16.78,38.32h0.64l1.36-11.02l4.8-27.3h10.71l-10.15,57.16h-10.71l-17.75-40.48
							h-0.64l-1.28,11.02l-5.28,29.46h-10.63L531.33,828.57z"/>
					</defs>
					<use xlink:href="#SVGID_15_"  style="overflow:visible;fill:#2F8E39;"/>
					<clipPath id="SVGID_16_">
						<use xlink:href="#SVGID_15_"  style="overflow:visible;"/>
					</clipPath>
				</g>
			</g>
		</g>
		<g>
			<g>
				<g>
					<defs>
						<path id="SVGID_17_" d="M591.13,885.73l8.31-46.94h-15.99l1.84-10.22h42.77l-1.84,10.22h-15.99l-8.32,46.94H591.13z"/>
					</defs>
					<use xlink:href="#SVGID_17_"  style="overflow:visible;fill:#2F8E39;"/>
					<clipPath id="SVGID_18_">
						<use xlink:href="#SVGID_17_"  style="overflow:visible;"/>
					</clipPath>
				</g>
			</g>
		</g>
		<g>
			<g>
				<g>
					<defs>
						<path id="SVGID_19_" d="M635.73,828.57h10.79l-10.15,57.16h-10.79L635.73,828.57z"/>
					</defs>
					<use xlink:href="#SVGID_19_"  style="overflow:visible;fill:#2F8E39;"/>
					<clipPath id="SVGID_20_">
						<use xlink:href="#SVGID_19_"  style="overflow:visible;"/>
					</clipPath>
				</g>
			</g>
		</g>
		<g>
			<g>
				<g>
					<defs>
						<path id="SVGID_21_" d="M674.34,828.57h12.63l11.43,57.16h-11.51l-2.48-13.65h-21.82l-7.19,13.65h-12.23L674.34,828.57z
							 M682.57,862.18l-2.64-14.37l-0.8-6.87h-0.64l-3.2,6.87l-7.6,14.37H682.57z"/>
					</defs>
					<use xlink:href="#SVGID_21_"  style="overflow:visible;fill:#2F8E39;"/>
					<clipPath id="SVGID_22_">
						<use xlink:href="#SVGID_21_"  style="overflow:visible;"/>
					</clipPath>
				</g>
			</g>
		</g>
		<g>
			<g>
				<g>
					<defs>
						<path id="SVGID_23_" d="M715.26,828.57h10.79l-8.4,46.94h24.3l-1.84,10.22h-35.01L715.26,828.57z"/>
					</defs>
					<use xlink:href="#SVGID_23_"  style="overflow:visible;fill:#2F8E39;"/>
					<clipPath id="SVGID_24_">
						<use xlink:href="#SVGID_23_"  style="overflow:visible;"/>
					</clipPath>
				</g>
			</g>
		</g>
		<g>
			<g>
				<g>
					<defs>
						<path id="SVGID_25_" d="M775.53,828.57h36.29l-1.84,10.22h-25.5l-2.48,13.89h22.94l-1.76,10.22h-22.94l-4.08,22.83h-10.79
							L775.53,828.57z"/>
					</defs>
					<use xlink:href="#SVGID_25_"  style="overflow:visible;fill:#2F8E39;"/>
					<clipPath id="SVGID_26_">
						<use xlink:href="#SVGID_25_"  style="overflow:visible;"/>
					</clipPath>
				</g>
			</g>
		</g>
		<g>
			<g>
				<g>
					<defs>
						<path id="SVGID_27_" d="M837.8,887c-3.84,0-7.39-0.63-10.67-1.91c-3.28-1.27-6.11-3.07-8.51-5.38
							c-2.4-2.32-4.28-5.11-5.64-8.38c-1.36-3.27-2.04-6.91-2.04-10.9c0-4.47,0.83-8.72,2.48-12.74c1.65-4.02,3.97-7.53,6.95-10.54
							c2.98-3,6.57-5.4,10.75-7.18c4.18-1.78,8.81-2.68,13.87-2.68c4,0,7.65,0.67,10.95,2c3.3,1.33,6.13,3.18,8.47,5.55
							c2.35,2.37,4.17,5.17,5.48,8.42c1.3,3.25,1.96,6.79,1.96,10.62c0,4.47-0.83,8.7-2.48,12.7c-1.65,3.99-3.97,7.51-6.95,10.54
							c-2.99,3.04-6.57,5.44-10.75,7.23C847.49,886.12,842.87,887,837.8,887z M838.92,876.79c3.04,0,5.89-0.6,8.55-1.8
							c2.66-1.19,5-2.81,6.99-4.83c2-2.02,3.59-4.36,4.76-7.02c1.17-2.66,1.76-5.48,1.76-8.46c0-2.61-0.44-4.96-1.32-7.07
							c-0.88-2.1-2.09-3.89-3.64-5.38s-3.36-2.65-5.44-3.48c-2.08-0.82-4.32-1.24-6.71-1.24c-3.15,0-6.05,0.61-8.71,1.84
							c-2.67,1.23-5,2.86-7,4.92c-2,2.04-3.56,4.4-4.67,7.06c-1.12,2.66-1.68,5.43-1.68,8.31c0,2.61,0.44,4.96,1.32,7.06
							c0.88,2.11,2.09,3.9,3.64,5.39c1.55,1.49,3.36,2.65,5.44,3.48C834.28,876.37,836.52,876.79,838.92,876.79z"/>
					</defs>
					<use xlink:href="#SVGID_27_"  style="overflow:visible;fill:#2F8E39;"/>
					<clipPath id="SVGID_28_">
						<use xlink:href="#SVGID_27_"  style="overflow:visible;"/>
					</clipPath>
				</g>
			</g>
		</g>
		<g>
			<g>
				<g>
					<defs>
						<path id="SVGID_29_" d="M900.89,887c-3.84,0-7.39-0.63-10.67-1.91c-3.28-1.27-6.11-3.07-8.51-5.38
							c-2.4-2.32-4.28-5.11-5.64-8.38c-1.36-3.27-2.04-6.91-2.04-10.9c0-4.47,0.83-8.72,2.48-12.74c1.65-4.02,3.97-7.53,6.95-10.54
							c2.98-3,6.57-5.4,10.75-7.18c4.18-1.78,8.81-2.68,13.87-2.68c4,0,7.65,0.67,10.95,2c3.3,1.33,6.13,3.18,8.47,5.55
							c2.35,2.37,4.17,5.17,5.48,8.42c1.3,3.25,1.96,6.79,1.96,10.62c0,4.47-0.83,8.7-2.48,12.7c-1.65,3.99-3.97,7.51-6.95,10.54
							c-2.99,3.04-6.57,5.44-10.75,7.23C910.57,886.12,905.95,887,900.89,887z M902.01,876.79c3.04,0,5.89-0.6,8.55-1.8
							c2.66-1.19,5-2.81,6.99-4.83c2-2.02,3.59-4.36,4.76-7.02c1.17-2.66,1.76-5.48,1.76-8.46c0-2.61-0.44-4.96-1.32-7.07
							c-0.88-2.1-2.09-3.89-3.64-5.38s-3.36-2.65-5.44-3.48c-2.08-0.82-4.32-1.24-6.71-1.24c-3.15,0-6.05,0.61-8.71,1.84
							c-2.67,1.23-5,2.86-7,4.92c-2,2.04-3.56,4.4-4.67,7.06c-1.12,2.66-1.68,5.43-1.68,8.31c0,2.61,0.44,4.96,1.32,7.06
							c0.88,2.11,2.09,3.9,3.64,5.39c1.55,1.49,3.36,2.65,5.44,3.48C897.37,876.37,899.61,876.79,902.01,876.79z"/>
					</defs>
					<use xlink:href="#SVGID_29_"  style="overflow:visible;fill:#2F8E39;"/>
					<clipPath id="SVGID_30_">
						<use xlink:href="#SVGID_29_"  style="overflow:visible;"/>
					</clipPath>
				</g>
			</g>
		</g>
		<g>
			<g>
				<g>
					<defs>
						<path id="SVGID_31_" d="M948.13,828.57h18.22c4.21,0,7.94,0.63,11.19,1.88c3.25,1.25,5.97,2.98,8.15,5.19
							c2.18,2.2,3.84,4.84,4.95,7.9c1.12,3.06,1.68,6.43,1.68,10.1c0,4.26-0.79,8.31-2.36,12.17c-1.57,3.86-3.84,7.27-6.8,10.22
							c-2.96,2.96-6.54,5.31-10.75,7.07s-8.98,2.63-14.31,2.63h-20.15L948.13,828.57z M958.68,875.51c3.41,0,6.53-0.53,9.35-1.6
							c2.82-1.07,5.24-2.53,7.24-4.39c2-1.86,3.54-4.04,4.63-6.54c1.09-2.5,1.64-5.22,1.64-8.15c0-5.16-1.35-9.13-4.04-11.9
							c-2.69-2.76-6.78-4.15-12.27-4.15h-8.15l-6.56,36.72H958.68z"/>
					</defs>
					<use xlink:href="#SVGID_31_"  style="overflow:visible;fill:#2F8E39;"/>
					<clipPath id="SVGID_32_">
						<use xlink:href="#SVGID_31_"  style="overflow:visible;"/>
					</clipPath>
				</g>
			</g>
		</g>
		<g>
			<g>
				<g>
					<defs>
						<path id="SVGID_33_" d="M1028.94,887c-2.4,0-4.67-0.33-6.8-0.99c-2.13-0.67-4.05-1.68-5.75-3.04
							c-1.71-1.35-3.15-3.04-4.32-5.07c-1.17-2.02-1.97-4.39-2.4-7.1l10.31-4.15c0.11,1.44,0.4,2.77,0.88,3.99s1.15,2.29,2,3.19
							c0.85,0.91,1.88,1.63,3.08,2.16c1.2,0.53,2.57,0.8,4.11,0.8c2.77,0,5.12-0.68,7.04-2.04c1.92-1.36,2.88-3.21,2.88-5.55
							c0-1.97-0.69-3.62-2.08-4.95c-1.38-1.33-3.78-2.66-7.19-3.99l-2.8-1.12c-1.55-0.58-3.02-1.32-4.44-2.2
							c-1.41-0.88-2.65-1.93-3.71-3.15c-1.07-1.22-1.92-2.65-2.56-4.27c-0.64-1.63-0.96-3.48-0.96-5.55c0-2.4,0.52-4.62,1.56-6.67
							c1.04-2.04,2.46-3.8,4.28-5.27c1.81-1.46,3.96-2.62,6.44-3.47c2.48-0.85,5.16-1.28,8.03-1.28c2.93,0,5.44,0.4,7.52,1.2
							c2.08,0.8,3.79,1.81,5.16,3.03c1.36,1.22,2.41,2.55,3.16,3.95c0.75,1.41,1.25,2.76,1.52,4.04l-9.91,3.75
							c-0.37-1.71-1.24-3.14-2.6-4.31c-1.36-1.17-3.35-1.76-5.96-1.76c-1.07,0-2.11,0.14-3.12,0.44c-1.02,0.3-1.92,0.71-2.72,1.24
							s-1.44,1.19-1.92,1.99s-0.72,1.71-0.72,2.71c0,1.76,0.65,3.21,1.96,4.35c1.3,1.14,3.31,2.22,6.04,3.23l3.35,1.19
							c3.84,1.44,6.89,3.38,9.16,5.83c2.26,2.45,3.39,5.72,3.39,9.82c0,2.77-0.53,5.31-1.6,7.63c-1.07,2.31-2.56,4.31-4.48,5.99
							c-1.92,1.68-4.22,2.99-6.91,3.95C1035.16,886.53,1032.19,887,1028.94,887z"/>
					</defs>
					<use xlink:href="#SVGID_33_"  style="overflow:visible;fill:#2F8E39;"/>
					<clipPath id="SVGID_34_">
						<use xlink:href="#SVGID_33_"  style="overflow:visible;"/>
					</clipPath>
				</g>
			</g>
		</g>
		<g>
			<g>
				<g>
					<defs>
						<path id="SVGID_35_" d="M1075.71,838.79l-2.32,13.25h22.94l-1.84,10.22h-22.94l-2.4,13.25h25.58l-1.84,10.22h-36.29
							l10.15-57.16h36.29l-1.84,10.22H1075.71z"/>
					</defs>
					<use xlink:href="#SVGID_35_"  style="overflow:visible;fill:#2F8E39;"/>
					<clipPath id="SVGID_36_">
						<use xlink:href="#SVGID_35_"  style="overflow:visible;"/>
					</clipPath>
				</g>
			</g>
		</g>
		<g>
			<g>
				<g>
					<defs>
						<path id="SVGID_37_" d="M1112.95,828.57h18.87c2.72,0,5.2,0.41,7.43,1.24c2.24,0.83,4.15,1.96,5.75,3.39
							c1.6,1.44,2.82,3.12,3.68,5.03c0.85,1.91,1.28,3.99,1.28,6.23c0,2.45-0.4,4.7-1.2,6.75c-0.8,2.04-1.88,3.87-3.24,5.46
							c-1.36,1.6-2.94,2.93-4.76,3.99c-1.81,1.07-3.75,1.84-5.83,2.32l-0.16,0.55l11.19,21.56l-0.16,0.64h-11.75l-11.03-21.48h-5.6
							l-3.84,21.48h-10.79L1112.95,828.57z M1129.18,854.36c2.88,0,5.25-0.73,7.12-2.2c1.86-1.47,2.8-3.68,2.8-6.67
							c0-2.02-0.68-3.69-2.04-5.02c-1.36-1.33-3.24-2-5.64-2h-9.51l-2.8,15.89H1129.18z"/>
					</defs>
					<use xlink:href="#SVGID_37_"  style="overflow:visible;fill:#2F8E39;"/>
					<clipPath id="SVGID_38_">
						<use xlink:href="#SVGID_37_"  style="overflow:visible;"/>
					</clipPath>
				</g>
			</g>
		</g>
		<g>
			<g>
				<g>
					<defs>
						<path id="SVGID_39_" d="M1157.72,828.57h11.51l5.68,34.49l0.88,7.26h0.64l3.44-7.26l18.39-34.49h11.91l-30.85,57.16h-11.35
							L1157.72,828.57z"/>
					</defs>
					<use xlink:href="#SVGID_39_"  style="overflow:visible;fill:#2F8E39;"/>
					<clipPath id="SVGID_40_">
						<use xlink:href="#SVGID_39_"  style="overflow:visible;"/>
					</clipPath>
				</g>
			</g>
		</g>
		<g>
			<g>
				<g>
					<defs>
						<path id="SVGID_41_" d="M1216.87,828.57h10.79l-10.15,57.16h-10.79L1216.87,828.57z"/>
					</defs>
					<use xlink:href="#SVGID_41_"  style="overflow:visible;fill:#2F8E39;"/>
					<clipPath id="SVGID_42_">
						<use xlink:href="#SVGID_41_"  style="overflow:visible;"/>
					</clipPath>
				</g>
			</g>
		</g>
		<g>
			<g>
				<g>
					<defs>
						<path id="SVGID_43_" d="M1280.2,876.71c-1.81,1.86-3.62,3.43-5.44,4.71c-1.81,1.27-3.7,2.35-5.67,3.2
							c-1.97,0.85-4.08,1.46-6.32,1.84c-2.24,0.37-4.66,0.55-7.27,0.55c-3.62,0-7.01-0.61-10.15-1.84
							c-3.15-1.22-5.89-2.98-8.23-5.27c-2.35-2.29-4.2-5.07-5.56-8.34s-2.04-6.96-2.04-11.05c0-4.47,0.85-8.72,2.55-12.73
							c1.71-4.02,4.08-7.55,7.12-10.58c3.04-3.04,6.66-5.44,10.87-7.23s8.85-2.68,13.91-2.68c4.85,0,9,0.88,12.47,2.63
							c3.46,1.76,6.23,4.15,8.31,7.19l-8.63,7.02c-1.55-2.08-3.38-3.7-5.52-4.87c-2.13-1.17-4.82-1.76-8.07-1.76
							c-3.04,0-5.89,0.59-8.55,1.76c-2.67,1.17-5.01,2.77-7.03,4.79s-3.62,4.39-4.8,7.1c-1.17,2.71-1.76,5.64-1.76,8.78
							c0,2.55,0.41,4.87,1.24,6.95c0.83,2.08,1.96,3.85,3.39,5.31c1.44,1.46,3.15,2.59,5.12,3.39s4.13,1.2,6.47,1.2
							c3.41,0,6.45-0.71,9.11-2.12c2.67-1.41,5.2-3.32,7.6-5.71L1280.2,876.71z"/>
					</defs>
					<use xlink:href="#SVGID_43_"  style="overflow:visible;fill:#2F8E39;"/>
					<clipPath id="SVGID_44_">
						<use xlink:href="#SVGID_43_"  style="overflow:visible;"/>
					</clipPath>
				</g>
			</g>
		</g>
		<g>
			<g>
				<g>
					<defs>
						<path id="SVGID_45_" d="M1305.99,838.79l-2.32,13.25h22.94l-1.84,10.22h-22.94l-2.4,13.25h25.58l-1.84,10.22h-36.29
							l10.15-57.16h36.29l-1.84,10.22H1305.99z"/>
					</defs>
					<use xlink:href="#SVGID_45_"  style="overflow:visible;fill:#2F8E39;"/>
					<clipPath id="SVGID_46_">
						<use xlink:href="#SVGID_45_"  style="overflow:visible;"/>
					</clipPath>
				</g>
			</g>
		</g>
		<g>
			<g>
				<g>
					<defs>
						<path id="SVGID_47_" d="M1353.22,887c-2.4,0-4.67-0.33-6.8-0.99c-2.13-0.67-4.05-1.68-5.75-3.04
							c-1.71-1.35-3.15-3.04-4.32-5.07c-1.17-2.02-1.97-4.39-2.4-7.1l10.31-4.15c0.11,1.44,0.4,2.77,0.88,3.99s1.15,2.29,2,3.19
							c0.85,0.91,1.88,1.63,3.08,2.16c1.2,0.53,2.57,0.8,4.11,0.8c2.77,0,5.12-0.68,7.04-2.04c1.92-1.36,2.88-3.21,2.88-5.55
							c0-1.97-0.69-3.62-2.08-4.95c-1.38-1.33-3.78-2.66-7.19-3.99l-2.8-1.12c-1.55-0.58-3.02-1.32-4.44-2.2s-2.65-1.93-3.71-3.15
							c-1.07-1.22-1.92-2.65-2.56-4.27c-0.64-1.63-0.96-3.48-0.96-5.55c0-2.4,0.52-4.62,1.56-6.67c1.04-2.04,2.46-3.8,4.28-5.27
							c1.81-1.46,3.96-2.62,6.44-3.47c2.48-0.85,5.16-1.28,8.03-1.28c2.93,0,5.44,0.4,7.52,1.2c2.08,0.8,3.79,1.81,5.16,3.03
							c1.36,1.22,2.41,2.55,3.16,3.95c0.75,1.41,1.25,2.76,1.52,4.04l-9.91,3.75c-0.37-1.71-1.24-3.14-2.6-4.31
							c-1.36-1.17-3.35-1.76-5.96-1.76c-1.07,0-2.11,0.14-3.12,0.44c-1.02,0.3-1.92,0.71-2.72,1.24c-0.8,0.53-1.44,1.19-1.92,1.99
							c-0.48,0.8-0.72,1.71-0.72,2.71c0,1.76,0.65,3.21,1.96,4.35c1.3,1.14,3.31,2.22,6.04,3.23l3.35,1.19
							c3.84,1.44,6.89,3.38,9.16,5.83c2.26,2.45,3.39,5.72,3.39,9.82c0,2.77-0.53,5.31-1.6,7.63c-1.07,2.31-2.56,4.31-4.48,5.99
							c-1.92,1.68-4.22,2.99-6.91,3.95C1359.44,886.53,1356.47,887,1353.22,887z"/>
					</defs>
					<use xlink:href="#SVGID_47_"  style="overflow:visible;fill:#2F8E39;"/>
					<clipPath id="SVGID_48_">
						<use xlink:href="#SVGID_47_"  style="overflow:visible;"/>
					</clipPath>
				</g>
			</g>
		</g>
		<g>
			<g>
				<g>
					<defs>
						<path id="SVGID_49_" d="M1449.3,876.71c-1.81,1.86-3.62,3.43-5.44,4.71c-1.81,1.27-3.7,2.35-5.67,3.2
							c-1.97,0.85-4.08,1.46-6.32,1.84c-2.24,0.37-4.66,0.55-7.27,0.55c-3.62,0-7.01-0.61-10.15-1.84
							c-3.15-1.22-5.89-2.98-8.23-5.27c-2.35-2.29-4.2-5.07-5.56-8.34s-2.04-6.96-2.04-11.05c0-4.47,0.85-8.72,2.55-12.73
							c1.71-4.02,4.08-7.55,7.12-10.58c3.04-3.04,6.66-5.44,10.87-7.23s8.85-2.68,13.91-2.68c4.85,0,9,0.88,12.47,2.63
							c3.46,1.76,6.23,4.15,8.31,7.19l-8.63,7.02c-1.55-2.08-3.38-3.7-5.52-4.87c-2.13-1.17-4.82-1.76-8.07-1.76
							c-3.04,0-5.89,0.59-8.55,1.76c-2.67,1.17-5.01,2.77-7.03,4.79c-2.03,2.02-3.62,4.39-4.8,7.1c-1.17,2.71-1.76,5.64-1.76,8.78
							c0,2.55,0.41,4.87,1.24,6.95c0.83,2.08,1.96,3.85,3.39,5.31c1.44,1.46,3.15,2.59,5.12,3.39c1.97,0.8,4.13,1.2,6.47,1.2
							c3.41,0,6.45-0.71,9.11-2.12c2.67-1.41,5.2-3.32,7.6-5.71L1449.3,876.71z"/>
					</defs>
					<use xlink:href="#SVGID_49_"  style="overflow:visible;fill:#2F8E39;"/>
					<clipPath id="SVGID_50_">
						<use xlink:href="#SVGID_49_"  style="overflow:visible;"/>
					</clipPath>
				</g>
			</g>
		</g>
		<g>
			<g>
				<g>
					<defs>
						<path id="SVGID_51_" d="M1483.35,887c-3.84,0-7.39-0.63-10.67-1.91c-3.28-1.27-6.11-3.07-8.51-5.38
							c-2.4-2.32-4.28-5.11-5.64-8.38c-1.36-3.27-2.04-6.91-2.04-10.9c0-4.47,0.83-8.72,2.48-12.74c1.65-4.02,3.97-7.53,6.95-10.54
							c2.98-3,6.57-5.4,10.75-7.18s8.81-2.68,13.87-2.68c4,0,7.65,0.67,10.95,2c3.3,1.33,6.13,3.18,8.47,5.55
							c2.35,2.37,4.17,5.17,5.48,8.42c1.3,3.25,1.96,6.79,1.96,10.62c0,4.47-0.83,8.7-2.48,12.7c-1.65,3.99-3.97,7.51-6.95,10.54
							c-2.99,3.04-6.57,5.44-10.75,7.23C1493.03,886.12,1488.41,887,1483.35,887z M1484.47,876.79c3.04,0,5.89-0.6,8.55-1.8
							c2.66-1.19,5-2.81,6.99-4.83c2-2.02,3.59-4.36,4.76-7.02s1.76-5.48,1.76-8.46c0-2.61-0.44-4.96-1.32-7.07
							c-0.88-2.1-2.09-3.89-3.64-5.38s-3.36-2.65-5.44-3.48c-2.08-0.82-4.32-1.24-6.71-1.24c-3.15,0-6.05,0.61-8.71,1.84
							c-2.67,1.23-5,2.86-7,4.92c-2,2.04-3.56,4.4-4.67,7.06c-1.12,2.66-1.68,5.43-1.68,8.31c0,2.61,0.44,4.96,1.32,7.06
							c0.88,2.11,2.09,3.9,3.64,5.39c1.55,1.49,3.36,2.65,5.44,3.48C1479.83,876.37,1482.07,876.79,1484.47,876.79z"/>
					</defs>
					<use xlink:href="#SVGID_51_"  style="overflow:visible;fill:#2F8E39;"/>
					<clipPath id="SVGID_52_">
						<use xlink:href="#SVGID_51_"  style="overflow:visible;"/>
					</clipPath>
				</g>
			</g>
		</g>
		<g>
			<g>
				<g>
					<defs>
						<path id="SVGID_53_" d="M1530.59,828.57h10.31l12.15,30.26h0.64l22.7-30.26h11.19l-10.15,57.16h-10.71l5.04-28.18l2.32-9.58
							h-0.64l-19.1,25.63h-6.24l-10.31-25.63h-0.64l-1.04,9.58l-5.04,28.18h-10.63L1530.59,828.57z"/>
					</defs>
					<use xlink:href="#SVGID_53_"  style="overflow:visible;fill:#2F8E39;"/>
					<clipPath id="SVGID_54_">
						<use xlink:href="#SVGID_53_"  style="overflow:visible;"/>
					</clipPath>
				</g>
			</g>
		</g>
		<g>
			<g>
				<g>
					<defs>
						<path id="SVGID_55_" d="M1588.94,885.73l10.15-57.16h19.18c2.56,0,4.9,0.4,7.04,1.19c2.13,0.8,3.98,1.91,5.55,3.35
							c1.57,1.44,2.8,3.17,3.68,5.19c0.88,2.02,1.32,4.26,1.32,6.71c0,3.14-0.55,5.94-1.64,8.38c-1.09,2.45-2.63,4.51-4.59,6.18
							c-1.97,1.68-4.33,2.96-7.08,3.84s-5.74,1.32-8.99,1.32h-10.15l-3.68,20.99H1588.94z M1615,854.52c2.88,0,5.28-0.71,7.19-2.12
							c1.92-1.41,2.88-3.61,2.88-6.59c0-2.08-0.63-3.76-1.88-5.07c-1.25-1.3-3.08-1.95-5.48-1.95h-9.67l-2.8,15.73H1615z"/>
					</defs>
					<use xlink:href="#SVGID_55_"  style="overflow:visible;fill:#2F8E39;"/>
					<clipPath id="SVGID_56_">
						<use xlink:href="#SVGID_55_"  style="overflow:visible;"/>
					</clipPath>
				</g>
			</g>
		</g>
		<g>
			<g>
				<g>
					<defs>
						<path id="SVGID_57_" d="M1657.13,828.57h12.63l11.43,57.16h-11.51l-2.48-13.65h-21.82l-7.19,13.65h-12.23L1657.13,828.57z
							 M1665.36,862.18l-2.64-14.37l-0.8-6.87h-0.64l-3.2,6.87l-7.6,14.37H1665.36z"/>
					</defs>
					<use xlink:href="#SVGID_57_"  style="overflow:visible;fill:#2F8E39;"/>
					<clipPath id="SVGID_58_">
						<use xlink:href="#SVGID_57_"  style="overflow:visible;"/>
					</clipPath>
				</g>
			</g>
		</g>
		<g>
			<g>
				<g>
					<defs>
						<path id="SVGID_59_" d="M1698.06,828.57h11.99l16.79,38.32h0.63l1.36-11.02l4.8-27.3h10.71l-10.15,57.16h-10.71l-17.75-40.48
							h-0.64l-1.28,11.02l-5.28,29.46h-10.63L1698.06,828.57z"/>
					</defs>
					<use xlink:href="#SVGID_59_"  style="overflow:visible;fill:#2F8E39;"/>
					<clipPath id="SVGID_60_">
						<use xlink:href="#SVGID_59_"  style="overflow:visible;"/>
					</clipPath>
				</g>
			</g>
		</g>
		<g>
			<g>
				<g>
					<defs>
						<path id="SVGID_61_" d="M1760.16,885.73l4.72-26.59l-13.83-30.57h12.47l8.08,18.92h0.63l14.47-18.92h13.35l-24.39,30.57
							l-4.71,26.59H1760.16z"/>
					</defs>
					<use xlink:href="#SVGID_61_"  style="overflow:visible;fill:#2F8E39;"/>
					<clipPath id="SVGID_62_">
						<use xlink:href="#SVGID_61_"  style="overflow:visible;"/>
					</clipPath>
				</g>
			</g>
		</g>
		<g>
			<g>
				<g>
					<defs>
						<path id="SVGID_63_" d="M376.16,359.97c7.59,0,11.39,3.03,11.39,9.09c0,0.87-0.22,2.39-0.67,4.55l-11.06,51.63
							c-1.12,4.33-3.35,7.69-6.7,10.07c-3.35,2.38-7.15,3.57-11.39,3.57h-46.25l-42.56,194.16c-1.57,8.23-2.35,14.72-2.35,19.48
							c0,8.44,2.06,14.99,6.2,19.65c4.13,4.66,11,7.3,20.61,7.96l10.05,0.65c9.16,0.43,13.74,4.11,13.74,11.04
							c0,1.51-0.33,3.57-1,6.17l-9.72,44.16c-0.9,3.9-3.3,7.47-7.21,10.71c-3.91,3.25-10.89,4.87-20.95,4.87
							c-21.45,0-40.27-3.46-56.47-10.39c-16.2-6.93-28.71-16.99-37.53-30.2c-8.83-13.2-13.24-28.79-13.24-46.76
							c0-9.3,1.12-18.61,3.35-27.92l44.9-203.58h-37.2c-2.91,0-5.53-0.86-7.88-2.6c-2.35-1.73-3.52-4.22-3.52-7.47
							c0-1.51,0.11-2.7,0.33-3.57l11.06-50.65c1.12-4.76,3.29-8.39,6.53-10.88c3.24-2.49,6.76-3.73,10.56-3.73h37.2l14.41-65.26
							c1.12-4.55,2.79-7.84,5.03-9.9c2.23-2.05,6.03-3.73,11.39-5.03l69.7-18.51l4.02-0.65c4.91,0,7.37,2.71,7.37,8.12
							c0,1.52-0.33,3.47-1,5.84l-18.77,85.39H376.16z"/>
					</defs>
					<use xlink:href="#SVGID_63_"  style="overflow:visible;fill:#72BF44;"/>
					<clipPath id="SVGID_64_">
						<use xlink:href="#SVGID_63_"  style="overflow:visible;"/>
					</clipPath>
				</g>
			</g>
		</g>
		<path class="st0" d="M744.77,429.24c-14.75-23.8-34.18-41.6-58.31-53.4c-24.13-11.79-50.05-17.69-77.75-17.69
			c-39.32,0-76.86,8.96-112.6,26.86c-35.75,17.91-66.02,42.08-90.81,72.51c-24.8,30.44-41.33,63.78-49.6,100
			c-2.91,13.07-4.36,26.23-4.36,39.5c0,29.91,7.32,56.98,21.95,81.21c14.63,24.22,34.9,43.24,60.82,57.03
			c25.91,13.79,55.07,20.69,87.47,20.69c27.25,0,53.73-4.37,79.42-13.11c5.11-1.74,10.29-3.76,15.51-5.94
			c0.25-0.09,0.52-0.18,0.76-0.27c10.36-3.63,17.89-7.87,32.94-16.36c0.14-0.08,0.27-0.16,0.42-0.24c0.09-0.05,0.19-0.11,0.28-0.16
			c7.32-4.15,13.36-7.92,18.91-11.59c4.07-2.65,8.16-5.37,12.28-8.25c1-0.69,1.88-1.4,2.67-2.12c0.16-0.11,0.32-0.22,0.48-0.34
			c0,0,16.17-11.5,31.42-30.09c2.09-2.55,5.97-7.3,4.84-12.67c-0.43-2.03-1.57-4.17-3.38-6.37l-34.18-30.59
			c-1.89-2.41-4.57-3.23-8.08-2.5c-0.93,0.2-1.82,0.48-2.67,0.86c-2.99,1.33-4.76,3.51-5.2,4.03c-4.15,4.9-21.61,20.79-29.73,27.92
			c-32.34,22.99-67.55,34.49-105.64,34.49c-19.22,0-35.86-4-49.93-12.01c-14.08-8-24.86-19.12-32.34-33.33
			c-7.49-14.22-15.34-30.49-15.79-48.82h288.74c9.16,0,15.97-0.42,20.44-1.27c4.47-0.84,8.38-3.47,11.73-7.9
			c3.35-4.42,5.92-11.69,7.71-21.8c2.46-15.59,3.69-29.49,3.69-41.71C766.89,481.9,759.52,453.04,744.77,429.24z M458.92,515.5
			c9.38-15.8,21.11-30.02,35.19-42.65c14.07-12.64,29.66-22.59,46.75-29.86c17.09-7.27,34.46-10.9,52.11-10.9
			c19.21,0,36.13,3.63,50.77,10.9c14.63,7.27,26.08,17.22,34.35,29.86c8.26,12.64,12.84,26.86,13.74,42.65H458.92z"/>
		<path class="st0" d="M1062.4,227.82c0,1.73-0.34,3.76-1.02,6.14l-11.72,53.6c-1.13,5.19-3.35,8.92-6.71,11.18
			c-3.35,2.3-8.03,3.43-14.06,3.43c-10.74,0-19.83,1.77-27.33,5.35c-7.5,3.58-14.02,9.9-19.6,19.01
			c-5.01,8.17-9.23,19.35-12.63,33.43h52.24c4.79,0.56,7.2,3.12,7.2,7.68c0,1.51-0.11,2.71-0.34,3.58l-11.72,54.54
			c-1.77,7.57-6.6,11.37-14.4,11.37h-48.89l-68.59,313.26c-1.04,4.75-5.29,8.12-10.16,8.04l-70.54-1.07
			c-6.47-0.1-11.23-6.09-9.85-12.41l67.3-307.7h-0.38l0.04-0.11h-50.28c-2.9,0-5.2-0.72-6.86-2.11c-1.7-1.43-2.53-3.43-2.53-6.02
			c0-1.28,0.11-2.37,0.34-3.24l11.72-54.54c0.9-3.69,2.68-6.51,5.35-8.43c2.22-1.58,4.6-2.52,7.2-2.82h51.56l1.32-6.47
			c8.93-42.24,27.18-75.25,54.65-99.04c27.48-23.83,65.21-35.72,113.26-35.72c5.8,0,9.84,0.72,12.06,2.11
			C1061.27,222.24,1062.4,224.54,1062.4,227.82z"/>
		<g>
			<g>
				<g>
					<defs>
						<path id="SVGID_65_" d="M1385.18,431.1c-0.06-0.09-0.11-0.17-0.17-0.26c-5.79-8.92-15.86-24.1-33.83-38.13
							c-7.54-5.88-15.7-10.97-24.48-15.27c-24.13-11.79-50.05-17.69-77.75-17.69c-39.32,0-76.86,8.96-112.6,26.86
							c-35.75,17.91-66.02,42.08-90.81,72.51c-24.8,30.44-41.33,63.78-49.6,100c-2.91,13.07-4.36,26.23-4.36,39.5
							c0,29.91,7.32,56.98,21.95,81.21c14.63,24.22,34.9,43.24,60.82,57.03c25.91,13.79,55.07,20.69,87.47,20.69
							c27.25,0,53.73-4.37,79.42-13.11c5.11-1.74,10.29-3.76,15.51-5.94c0.25-0.09,0.52-0.18,0.76-0.27
							c10.36-3.63,17.89-7.87,32.94-16.36c0.14-0.08,0.27-0.16,0.42-0.24c0.09-0.05,0.19-0.11,0.28-0.16
							c7.32-4.15,13.36-7.92,18.91-11.59c4.07-2.65,8.16-5.37,12.28-8.25c1-0.69,1.88-1.4,2.68-2.12c0.16-0.11,0.32-0.22,0.48-0.34
							c0,0,16.17-11.5,31.42-30.09c2.09-2.55,5.97-7.3,4.84-12.67c-0.43-2.03-1.57-4.17-3.38-6.37l-34.18-30.59
							c-1.89-2.41-4.57-3.23-8.08-2.5c-0.93,0.2-1.82,0.48-2.67,0.86c-2.99,1.33-4.76,3.51-5.2,4.03
							c-4.15,4.9-21.61,20.78-29.73,27.92c-32.34,22.99-67.56,34.49-105.64,34.49c-19.22,0-35.86-4-49.93-12.01
							c-8.33-4.38-26.36-15.34-38.65-37.13c-8.87-15.73-10.68-29.88-11.38-35.91c-0.22-1.91-0.73-7.1-0.55-13.85
							c0.12-4.63,0.7-15.13,4.42-27.64c0.63-2.1,1.93-6.25,4.06-11.32c1.99-4.75,3.85-8.26,5.16-10.72
							c2.01-3.77,3.68-6.52,4.79-8.35c2.17-3.57,3.81-5.97,7.07-10.78c5.14-7.58,7.76-11,8.49-11.95c1.75-2.27,3.3-4.15,3.61-4.53
							c0.38-0.46,1.89-2.29,4.06-4.75c0.73-0.83,2.05-2.32,4.47-4.92c1.95-2.09,4.37-4.71,7.49-7.86c3.5-3.53,6.64-6.53,8.34-8.1
							c13.1-12.08,28.94-21.02,30.62-21.96c5.22-2.92,10.59-5.55,16.13-7.9c17.09-7.27,34.46-10.9,52.11-10.9
							c19.21,0,36.13,3.63,50.77,10.9c14.63,7.27,26.08,17.22,34.35,29.86c5.38,8.24,15.81,11.65,24.98,8.07
							c4.25-1.65,20.17-10.53,33.6-18.18C1388.65,457.65,1392.52,442.45,1385.18,431.1z"/>
					</defs>
					<use xlink:href="#SVGID_65_"  style="overflow:visible;fill:#72BF44;"/>
					<clipPath id="SVGID_66_">
						<use xlink:href="#SVGID_65_"  style="overflow:visible;"/>
					</clipPath>
				</g>
			</g>
		</g>
		<g>
			<path class="st1" d="M1510.17,776.3c-4.95,15.65,4.62,34.57,22.6,35.05c18.6,0.5,28.51-17.92,24.46-33.92
				c-4.05-16-22.48-38.35-22.53-38.4c0,0-0.15,0.15-0.42,0.45C1531.42,742.64,1514.69,761.99,1510.17,776.3z"/>
		</g>
		<g>
			<path class="st2" d="M1536.37,810.96c0,0,28.96-16.18,7.57-56.63l-5.74-10.44c0,0,13.44,16.7,18.4,31.31c0,0,8.09,24.27-15,34.97
				C1541.59,810.18,1540.15,810.31,1536.37,810.96z"/>
		</g>
		<g>
			<path class="st3" d="M1522.28,761.38c0,0-14.22,18.27-6.26,34.97C1516.02,796.35,1511.32,778.86,1522.28,761.38z"/>
		</g>
		<path class="st4" d="M1476.12,713.09c-36.94-71.44-45.21-128.83-12.01-216.58c13.83-36.6,36.24-70.33,68.16-95.29
			c24.3-19,54.09-32.95,89.79-39.2c-32.89-4.53-67.29-1.14-100.48,11.57c-8.14,3.12-15.89,6.65-23.23,10.57
			c-65.92,34.78-101.78,99.11-106.15,165.22c-2.77,41.73,7.04,84.16,29.75,120.32c-8.54-16.13-19.73-78.92-7.63-141.15
			c6.76-34.77,20.8-69.36,46.64-95.58c-15.63,18.58-28.58,50.43-35.68,87c-15.3,79.09-3.07,180.4,69.42,218.07l2.5,1.24
			C1483.85,728.96,1476.12,713.09,1476.12,713.09z"/>
		<g>
			<path class="st4" d="M1794.74,509.08c0,0-5.65,134.42-100.75,205.36c0,0-23.19,17.61-64.53,27.44
				c11.6-3.05,101.26-30.22,141.12-150.3c0,0,13.84-41.48,9.14-88.83l0.02-0.39c-0.16-3.8-0.97-8.76-1.97-13.71
				c-1.16-6.42-2.69-12.89-4.7-19.31c-0.1-0.36-0.17-0.61-0.17-0.61c-12.96-44.17-39.07-67.17-66.06-78.82
				c-38.54-17.98-78.65-10.63-78.65-10.63l-0.1,0.09c-33.35,4.32-72,21.45-100.14,70.34c0,0-33.41,44.72-5.14,153.7
				c0,0,23.13,88.93,14.91,119.77c0,0-2.56,11.1-4.85,18.25c48.78-54.82,52.04-102.93,52.22-111.27l-0.05-2.78
				c-0.02-0.29-0.02-0.57-0.04-0.86c-2.63-11.14-13.27-66.85,16.55-139.03l3.81-8.8c1.88-4.17,3.92-8.4,6.09-12.67
				c15.01-28.83,27.43-46.1,42.51-56.29c2.71-1.69,5.38-3.04,8.03-4.15l6.24-2.12c0,0,15.42-4.34,34.51,3.18
				c0,0,6.74,2.13,15.34,9.34c0.12,0.1,0.24,0.2,0.36,0.3c8.41,7.14,18.5,19.15,25.83,38.72c5.66,15.14,9.67,34.82,9.94,60.28
				c-0.04,2.23-0.13,4.73-0.27,7.4c-0.47,8.51-1.61,18.94-4.16,29.43c-0.25,0.84-0.54,1.77-0.82,2.67
				c-12.79,56.62-54.29,147.02-187.07,202.57c0,0,82.76,19.28,167.07-43.44C1728.94,713.93,1827.13,633.99,1794.74,509.08z"/>
			<linearGradient id="SVGID_67_" gradientUnits="userSpaceOnUse" x1="1589.9025" y1="738.8993" x2="1660.3135" y2="535.5571">
				<stop  offset="0" style="stop-color:#8DC63F"/>
				<stop  offset="0.8116" style="stop-color:#51A23D"/>
				<stop  offset="1" style="stop-color:#4D9F3C"/>
			</linearGradient>
			<path class="st5" d="M1585.09,629.56c-0.18,8.33-3.44,56.44-52.22,111.27c-0.03,0.11-0.07,0.22-0.1,0.32c0,0,0.1-0.05,0.25-0.14
				c2.02-1.12,17.38-9.74,38.43-23.77c0.55-0.37,1.09-0.73,1.65-1.1c42.27-28.37,105.76-77.55,131.77-131.56
				c0,0,55.5-89.93-31.83-169.6c-6.42,5.49-94.95,83.7-87.52,213.01c0,0-0.21-0.73-0.52-2.07c0.02,0.29,0.02,0.57,0.04,0.86
				L1585.09,629.56z"/>
		</g>
	</g>
</g>
<g id="Layer_2">
</g>
</svg>
