<svg id="Layer_1" data-name="Layer 1" xmlns="http://www.w3.org/2000/svg" xmlns:xlink="http://www.w3.org/1999/xlink" viewBox="0 0 200 90"><defs><style>.cls-1{fill:none;}.cls-2{clip-path:url(#clip-path);}.cls-3,.cls-5{fill:#373d42;}.cls-4{fill:#ed1c24;}.cls-5{font-size:4.45px;font-family:DaxlinePro-ExtraBold, DaxlinePro ExtraBold;font-weight:700;}.cls-6{clip-path:url(#clip-path-3);}.cls-7{fill:url(#linear-gradient);}.cls-8{clip-path:url(#clip-path-4);}.cls-9{fill:url(#linear-gradient-2);}.cls-10{clip-path:url(#clip-path-5);}.cls-11{fill:url(#linear-gradient-3);}.cls-12{clip-path:url(#clip-path-6);}.cls-13{fill:url(#linear-gradient-4);}.cls-14{clip-path:url(#clip-path-7);}.cls-15{fill:url(#linear-gradient-5);}.cls-16{clip-path:url(#clip-path-8);}.cls-17{fill:url(#linear-gradient-6);}.cls-18{clip-path:url(#clip-path-9);}.cls-19{fill:url(#linear-gradient-7);}.cls-20{clip-path:url(#clip-path-10);}.cls-21{fill:url(#linear-gradient-8);}.cls-22{clip-path:url(#clip-path-11);}.cls-23{fill:url(#linear-gradient-9);}.cls-24{clip-path:url(#clip-path-12);}.cls-25{fill:url(#linear-gradient-10);}.cls-26{clip-path:url(#clip-path-13);}.cls-27{fill:url(#linear-gradient-11);}.cls-28{clip-path:url(#clip-path-14);}.cls-29{fill:url(#linear-gradient-12);}.cls-30{clip-path:url(#clip-path-15);}.cls-31{fill:url(#linear-gradient-13);}</style><clipPath id="clip-path"><rect class="cls-1" x="-83.85" y="-87.15" width="364.37" height="257.64"/></clipPath><clipPath id="clip-path-3"><polygon class="cls-1" points="89.95 9.43 91.72 8.03 97.77 11.41 97.77 5.52 91.32 5.51 89.95 9.43"/></clipPath><linearGradient id="linear-gradient" x1="34.82" y1="-27.4" x2="35.26" y2="-27.4" gradientTransform="matrix(-14.72, 0, 0, 14.72, 611.24, 411.84)" gradientUnits="userSpaceOnUse"><stop offset="0" stop-color="#c4161c"/><stop offset="0.28" stop-color="#b00f14"/><stop offset="0.73" stop-color="#950608"/><stop offset="1" stop-color="#8b0304"/></linearGradient><clipPath id="clip-path-4"><polygon class="cls-1" points="89.95 9.43 94.86 5.57 97.77 11.41 97.77 5.52 91.32 5.51 89.95 9.43"/></clipPath><linearGradient id="linear-gradient-2" x1="-41.72" y1="-19.49" x2="-41.28" y2="-19.49" gradientTransform="translate(602.42 246.89) scale(12.24)" gradientUnits="userSpaceOnUse"><stop offset="0" stop-color="#ed1c24"/><stop offset="0.06" stop-color="#ed1c24"/><stop offset="0.34" stop-color="#d6181f"/><stop offset="0.76" stop-color="#bb1318"/><stop offset="1" stop-color="#b11116"/></linearGradient><clipPath id="clip-path-5"><polygon class="cls-1" points="94.94 5.51 90.35 20.07 104.97 20.07 100.39 5.51 94.94 5.51"/></clipPath><linearGradient id="linear-gradient-3" x1="26.56" y1="-42.47" x2="26.99" y2="-42.47" gradientTransform="matrix(0, 15.34, 15.34, 0, 749.22, -401.31)" gradientUnits="userSpaceOnUse"><stop offset="0" stop-color="#ed1c24"/><stop offset="0.58" stop-color="#d2181f"/><stop offset="1" stop-color="#c4161c"/></linearGradient><clipPath id="clip-path-6"><path class="cls-1" d="M97.46,12.77V30.12h0a76.23,76.23,0,0,0,8.09-.41l13.89-16.94Z"/></clipPath><linearGradient id="linear-gradient-4" x1="10.18" y1="-30.06" x2="10.61" y2="-30.06" gradientTransform="matrix(0, 39.22, 39.22, 0, 1287.52, -386.57)" gradientUnits="userSpaceOnUse"><stop offset="0" stop-color="#ed1c24"/><stop offset="0.07" stop-color="#e91b23"/><stop offset="0.66" stop-color="#ce171e"/><stop offset="1" stop-color="#c4161c"/></linearGradient><clipPath id="clip-path-7"><path class="cls-1" d="M97.44,49.33a19.22,19.22,0,0,0,17-9.34l-17-19.89Z"/></clipPath><linearGradient id="linear-gradient-5" x1="10.53" y1="-30.89" x2="10.97" y2="-30.89" gradientTransform="matrix(0, 35.43, 35.43, 0, 1200.3, -341.11)" xlink:href="#linear-gradient-4"/><clipPath id="clip-path-8"><path class="cls-1" d="M97.46,30.12h0v9.46l8.09-9.87a76.23,76.23,0,0,1-8.09.41"/></clipPath><linearGradient id="linear-gradient-6" x1="18.5" y1="-37.6" x2="18.93" y2="-37.6" gradientTransform="matrix(0, 20.29, 20.29, 0, 864.6, -344.79)" gradientUnits="userSpaceOnUse"><stop offset="0" stop-color="#c4161c"/><stop offset="1" stop-color="#7b0000"/></linearGradient><clipPath id="clip-path-9"><path class="cls-1" d="M119.44,12.77,105.55,29.71C121.33,28,130.64,21.3,134,12.77Z"/></clipPath><linearGradient id="linear-gradient-7" x1="-10.2" y1="-22.1" x2="-9.77" y2="-22.1" gradientTransform="matrix(49.51, 0, 0, -49.51, 612.28, -1072.85)" gradientUnits="userSpaceOnUse"><stop offset="0" stop-color="#c4161c"/><stop offset="1" stop-color="#9e0b0f"/></linearGradient><clipPath id="clip-path-10"><path class="cls-1" d="M75.48,12.77,89.37,29.71a76.23,76.23,0,0,0,8.09.41h0V12.77Z"/></clipPath><linearGradient id="linear-gradient-8" x1="-14.6" y1="-9.78" x2="-14.17" y2="-9.78" gradientTransform="matrix(0, -26.21, -26.21, 0, -169.93, -357.75)" xlink:href="#linear-gradient-7"/><clipPath id="clip-path-11"><path class="cls-1" d="M80.45,40a19.23,19.23,0,0,0,17,9.34V20.1Z"/></clipPath><linearGradient id="linear-gradient-9" x1="-5.74" y1="-19.67" x2="-5.31" y2="-19.67" gradientTransform="matrix(76.18, 0, 0, -76.18, 505.7, -1463.54)" xlink:href="#linear-gradient-7"/><clipPath id="clip-path-12"><path class="cls-1" d="M97.46,39.58V30.12h0a76.23,76.23,0,0,1-8.09-.41Z"/></clipPath><linearGradient id="linear-gradient-10" x1="18.72" y1="-37.28" x2="19.16" y2="-37.28" gradientTransform="matrix(0, 20.03, 20.03, 0, 840.24, -344.22)" gradientUnits="userSpaceOnUse"><stop offset="0" stop-color="#ed1c24"/><stop offset="1" stop-color="#ba131a"/></linearGradient><clipPath id="clip-path-13"><path class="cls-1" d="M60.9,12.77C64.28,21.3,73.59,28,89.37,29.71L75.48,12.77Z"/></clipPath><linearGradient id="linear-gradient-11" x1="-14.25" y1="-32.39" x2="-13.82" y2="-32.39" gradientTransform="translate(944.19 -357.2) rotate(-90) scale(26.83)" xlink:href="#linear-gradient-3"/><clipPath id="clip-path-14"><path class="cls-1" d="M97.46,30.12v0Z"/></clipPath><linearGradient id="linear-gradient-12" x1="97.46" y1="21.45" x2="97.46" y2="21.45" gradientTransform="matrix(0.01, 0, 0, -0.01, 418.93, -366)" gradientUnits="userSpaceOnUse"><stop offset="0" stop-color="#0063b0"/><stop offset="0.4" stop-color="#0076bc"/><stop offset="1" stop-color="#0099d3"/></linearGradient><clipPath id="clip-path-15"><path class="cls-1" d="M97.48,20.1v0Z"/></clipPath><linearGradient id="linear-gradient-13" x1="0.58" y1="-25.71" x2="1.01" y2="-25.71" gradientTransform="matrix(0.02, 119.3, 119.3, -0.02, 3165.04, -66.83)" gradientUnits="userSpaceOnUse"><stop offset="0" stop-color="#0063b0"/><stop offset="0.18" stop-color="#0076bc"/><stop offset="0.45" stop-color="#0099d3"/><stop offset="0.83" stop-color="#72bf44"/><stop offset="1" stop-color="#bcd631"/></linearGradient></defs><title>Artboard 1</title><g class="cls-2"><polygon class="cls-3" points="30.6 60.31 30.6 73.1 26.86 73.1 26.86 60.31 23.83 60.31 23.83 57.2 33.63 57.2 33.63 60.31 30.6 60.31"/><g class="cls-2"><path class="cls-3" d="M40.34,64.07A4.08,4.08,0,0,0,39,63.85a3.48,3.48,0,0,0-1.23.2v9H34.15V61.85A14.6,14.6,0,0,1,39.29,61a10.63,10.63,0,0,1,1.71.13Z"/><path class="cls-3" d="M47.56,73.36c-3.47,0-5.23-1.29-5.23-4.5v-7.6H46V69c0,1,.55,1.47,1.6,1.47a3.76,3.76,0,0,0,1.32-.18v-9H52.5V72.51a12.83,12.83,0,0,1-4.94.85"/><path class="cls-3" d="M58.12,73.36a9.86,9.86,0,0,1-4-.85l1.14-2.73a7,7,0,0,0,2.77.75c.83,0,1.36-.4,1.36-1s-.66-1-1.52-1.27c-1.4-.51-3.45-1.23-3.45-3.65C54.4,62.4,56.09,61,59,61a8.19,8.19,0,0,1,3.85.85l-1.08,2.44a5.55,5.55,0,0,0-2.28-.66c-.86,0-1.36.4-1.36,1,0,.72.65,1,1.53,1.32,1.45.5,3.49,1.16,3.49,3.64,0,2.33-1.66,3.8-5,3.8"/><path class="cls-3" d="M69.06,73.3c-2.46,0-3.49-1.34-3.49-4V64H64.16v-2.7h1.41V58.73l3.53-1v3.52h2.07V64H69.1V69c0,.82.48,1.08,1.17,1.08a2.17,2.17,0,0,0,.9-.2v3a5.43,5.43,0,0,1-2.11.4"/><path class="cls-4" d="M86.86,73.1H83.1l-1.49-5.95a15.73,15.73,0,0,1-.33-1.85h0a18.39,18.39,0,0,1-.35,1.85L79.39,73.1H75.63L72.27,61.26h3.65l1.36,6.65a15.16,15.16,0,0,1,.26,2h0s.17-1.07.39-2l1.63-6.65h3.27l1.65,6.65c.22.93.37,2,.37,2h0a17.24,17.24,0,0,1,.28-2l1.36-6.65h3.63Z"/><path class="cls-4" d="M96.36,73.36c-3.54,0-5.56-2.66-5.56-6.19s2-6.17,5.56-6.17,5.56,2.63,5.56,6.17-2,6.19-5.56,6.19m0-9.55c-1.27,0-1.93,1.14-1.93,3.31s.66,3.34,1.93,3.34,1.93-1.16,1.93-3.34-.66-3.31-1.93-3.31"/><path class="cls-4" d="M110,64.07a4.13,4.13,0,0,0-1.34-.22,3.48,3.48,0,0,0-1.23.2v9h-3.63V61.85a14.64,14.64,0,0,1,5.14-.85,10.67,10.67,0,0,1,1.72.13Z"/><path class="cls-4" d="M116.55,73.3c-2.46,0-3.49-1.34-3.49-4V64h-1.41v-2.7h1.41V58.73l3.54-1v3.52h2.06V64H116.6V69c0,.82.48,1.08,1.16,1.08a2.17,2.17,0,0,0,.9-.2v3a5.39,5.39,0,0,1-2.11.4"/><path class="cls-4" d="M127.28,73.1V65.48c0-1.06-.57-1.61-1.71-1.61a3.21,3.21,0,0,0-1.32.31V73.1h-3.63V55.86h3.63v5.69a5.81,5.81,0,0,1,2.28-.49c2.84,0,4.37,1.43,4.37,4v8Z"/><path class="cls-4" d="M138.14,77.82h-3.8l1.77-4.72-4.45-11.84h4.08l1.85,6.81a17.65,17.65,0,0,1,.37,2h0s.16-1.08.4-2l1.84-6.81h4.09Z"/><path class="cls-3" d="M146.12,73.32a2.2,2.2,0,1,1,2.19-2.2,2.21,2.21,0,0,1-2.19,2.2"/><path class="cls-3" d="M155.41,73.36c-3.73,0-5.58-1.38-5.58-3.91,0-3.14,3.21-3.86,6.79-4.06v-.46c0-1-.66-1.39-1.89-1.39a9.87,9.87,0,0,0-3.36.73l-.88-2.42a13.83,13.83,0,0,1,4.68-.85c3.23,0,4.86,1.23,4.86,4.37v7.14a11.53,11.53,0,0,1-4.62.85m1.21-5.71c-2,.09-3.42.31-3.42,1.71,0,1,.81,1.5,2.1,1.5a4.64,4.64,0,0,0,1.32-.18Z"/><path class="cls-3" d="M172.7,67.65l-7.38,1a2.64,2.64,0,0,0,2.88,1.93,8.09,8.09,0,0,0,3.34-.72l1,2.68a12,12,0,0,1-4.64.85c-4.1,0-6.12-2.68-6.12-6.19s2.1-6.17,5.66-6.17,5.3,2.3,5.3,5.55a8,8,0,0,1-.05,1.1m-5.33-4.11c-1.28,0-2.27.88-2.29,2.84l4.17-.53c0-1.49-.72-2.31-1.88-2.31"/></g><text class="cls-5" transform="translate(166.77 58.76)">TM</text><g class="cls-6"><rect class="cls-7" x="89.41" y="3.62" width="8.91" height="9.68" transform="translate(41.64 86.91) rotate(-61.5)"/></g><g class="cls-8"><rect class="cls-9" x="89.07" y="3.58" width="9.58" height="9.77" transform="translate(25.94 73.8) rotate(-49.04)"/></g><g class="cls-10"><rect class="cls-11" x="90.35" y="5.51" width="14.62" height="14.56"/></g><g class="cls-12"><rect class="cls-13" x="97.46" y="12.77" width="21.98" height="17.35"/></g><g class="cls-14"><rect class="cls-15" x="97.44" y="20.1" width="16.98" height="29.23"/></g><g class="cls-16"><rect class="cls-17" x="97.46" y="29.71" width="8.09" height="9.87"/></g><g class="cls-18"><rect class="cls-19" x="103.71" y="5.21" width="32.15" height="32.06" transform="translate(19.66 90.35) rotate(-44.67)"/></g><g class="cls-20"><rect class="cls-21" x="75.48" y="12.77" width="21.98" height="17.35"/></g><g class="cls-22"><rect class="cls-23" x="72.13" y="20.95" width="33.63" height="27.52" transform="translate(20.64 101.42) rotate(-65.64)"/></g><g class="cls-24"><rect class="cls-25" x="89.37" y="29.71" width="8.09" height="9.87"/></g><g class="cls-26"><rect class="cls-27" x="60.9" y="12.77" width="28.47" height="16.94"/></g><g class="cls-28"><rect class="cls-29" x="97.46" y="12.77" height="17.35"/></g><g class="cls-30"><rect class="cls-31" x="97.46" y="20.08" width="0.02" height="0.02" transform="translate(14.61 75.21) rotate(-45.28)"/></g></g></svg>