<svg xmlns="http://www.w3.org/2000/svg" viewBox="0 0 201.96 172.96"><title>UNEnvironment_Logo_English_Full</title><rect y="118.95" width="201.83" height="1.62" style="fill:#00aeef"/><path d="M46.93,173v8.52a4.88,4.88,0,0,1-.37,2,4,4,0,0,1-1,1.43,4.56,4.56,0,0,1-1.56.87,6.63,6.63,0,0,1-2,.29,6.55,6.55,0,0,1-2-.29,4.52,4.52,0,0,1-1.57-.87,3.93,3.93,0,0,1-1-1.43,4.88,4.88,0,0,1-.37-2V173H39.7v8.52a2.42,2.42,0,0,0,.61,1.84,2.3,2.3,0,0,0,1.68.58,2.26,2.26,0,0,0,1.67-.58,2.45,2.45,0,0,0,.6-1.84V173Z" transform="translate(-37.04 -37.42)" style="fill:#00aeef"/><path d="M51.3,176.29l.08,1.1a3.41,3.41,0,0,1,1.19-.95,3.63,3.63,0,0,1,1.56-.33,3.71,3.71,0,0,1,1.24.19,2.38,2.38,0,0,1,1,.62,3,3,0,0,1,.62,1.14,6,6,0,0,1,.21,1.72v6.09H54.6v-6.11a2.33,2.33,0,0,0-.1-.76,1.16,1.16,0,0,0-.3-.48,1.12,1.12,0,0,0-.47-.25,2.59,2.59,0,0,0-.66-.08,1.77,1.77,0,0,0-1,.25,1.82,1.82,0,0,0-.65.67v6.76H48.89v-9.58Z" transform="translate(-37.04 -37.42)" style="fill:#00aeef"/><path d="M59.09,173.81a1.24,1.24,0,0,1,.38-.95,1.45,1.45,0,0,1,1.05-.37,1.78,1.78,0,0,1,.59.09,1.42,1.42,0,0,1,.46.28,1.19,1.19,0,0,1,.28.42,1.33,1.33,0,0,1,0,1.06,1.19,1.19,0,0,1-.28.42,1.42,1.42,0,0,1-.46.28,2,2,0,0,1-1.18,0,1.28,1.28,0,0,1-.45-.28,1.22,1.22,0,0,1-.29-.42A1.32,1.32,0,0,1,59.09,173.81Zm2.72,12.06H59.24v-9.58h2.57Z" transform="translate(-37.04 -37.42)" style="fill:#00aeef"/><path d="M67,173.93v2.36h1.64v1.87H67V183a1.75,1.75,0,0,0,.06.5.62.62,0,0,0,.19.3.71.71,0,0,0,.3.15,1.85,1.85,0,0,0,.43,0,2.68,2.68,0,0,0,.42,0l.34,0v1.94a6.56,6.56,0,0,1-.7.16,4.43,4.43,0,0,1-.85.07,3.7,3.7,0,0,1-1.14-.16,2,2,0,0,1-.86-.49,2.15,2.15,0,0,1-.56-.87,3.9,3.9,0,0,1-.19-1.31v-5.06H63v-1.87h1.4v-2.36Z" transform="translate(-37.04 -37.42)" style="fill:#00aeef"/><path d="M74.46,186.05a5.24,5.24,0,0,1-2-.36,4.53,4.53,0,0,1-1.5-1,4.26,4.26,0,0,1-.94-1.47,5.18,5.18,0,0,1-.32-1.81v-.35a6.12,6.12,0,0,1,.31-2,4.63,4.63,0,0,1,.9-1.56,4,4,0,0,1,1.41-1,4.43,4.43,0,0,1,1.85-.37,4.56,4.56,0,0,1,1.83.34,3.66,3.66,0,0,1,1.32,1,4,4,0,0,1,.81,1.48,6.48,6.48,0,0,1,.27,1.93v1.09H72.3a2.55,2.55,0,0,0,.25.85,2.14,2.14,0,0,0,.49.65,2,2,0,0,0,.69.42,2.33,2.33,0,0,0,.9.16,3.11,3.11,0,0,0,1.29-.27,2.62,2.62,0,0,0,1-.81l1.26,1.41a4.25,4.25,0,0,1-.58.64,3.56,3.56,0,0,1-.82.55,4.08,4.08,0,0,1-1,.39A5.31,5.31,0,0,1,74.46,186.05Zm-.29-7.87a1.72,1.72,0,0,0-.74.15,1.55,1.55,0,0,0-.54.41,2,2,0,0,0-.36.62,3.2,3.2,0,0,0-.21.81h3.56V180a2.35,2.35,0,0,0-.11-.71,1.47,1.47,0,0,0-.31-.56,1.27,1.27,0,0,0-.53-.37A1.94,1.94,0,0,0,74.17,178.18Z" transform="translate(-37.04 -37.42)" style="fill:#00aeef"/><path d="M79.45,181a7.26,7.26,0,0,1,.26-2,4.79,4.79,0,0,1,.73-1.56,3.34,3.34,0,0,1,1.18-1,3.51,3.51,0,0,1,1.59-.35,3,3,0,0,1,1.31.27,3.23,3.23,0,0,1,1,.77v-4.89h2.57v13.61H85.78l-.12-1a3.16,3.16,0,0,1-1.06.88,2.88,2.88,0,0,1-1.41.32,3.29,3.29,0,0,1-1.58-.37,3.43,3.43,0,0,1-1.17-1,4.78,4.78,0,0,1-.73-1.54,7,7,0,0,1-.26-1.94Zm2.56.18a6.13,6.13,0,0,0,.1,1.09,2.93,2.93,0,0,0,.32.89,1.54,1.54,0,0,0,1.42.81,1.84,1.84,0,0,0,1-.27,1.75,1.75,0,0,0,.64-.73v-3.79a1.72,1.72,0,0,0-.64-.74,1.87,1.87,0,0,0-1-.26,1.55,1.55,0,0,0-.86.22,1.5,1.5,0,0,0-.57.6,2.61,2.61,0,0,0-.32.89A5.49,5.49,0,0,0,82,181Z" transform="translate(-37.04 -37.42)" style="fill:#00aeef"/><path d="M105.26,185.87H102.6l-5.18-8.49v8.49H94.76V173h2.66l5.19,8.51V173h2.65Z" transform="translate(-37.04 -37.42)" style="fill:#00aeef"/><path d="M113,185.87a2.66,2.66,0,0,1-.25-.86,3.37,3.37,0,0,1-1,.74,3.19,3.19,0,0,1-1.44.3,3.88,3.88,0,0,1-1.29-.21,3.05,3.05,0,0,1-1-.6,2.6,2.6,0,0,1-.93-2.06,3,3,0,0,1,.28-1.34,2.54,2.54,0,0,1,.83-1,4.13,4.13,0,0,1,1.39-.62,7.86,7.86,0,0,1,1.93-.21h1.14v-.55a1.58,1.58,0,0,0-.34-1.07,1.37,1.37,0,0,0-1.08-.39,1.49,1.49,0,0,0-1,.31,1,1,0,0,0-.37.85h-2.56a2.54,2.54,0,0,1,.29-1.18,2.83,2.83,0,0,1,.82-1,4.41,4.41,0,0,1,1.28-.66,5.91,5.91,0,0,1,3.23,0,3.31,3.31,0,0,1,1.22.64,2.88,2.88,0,0,1,.8,1,3.54,3.54,0,0,1,.29,1.47v4.06c0,.27,0,.52,0,.73a4.78,4.78,0,0,0,.07.59,3,3,0,0,0,.11.47,2.3,2.3,0,0,0,.17.39v.15Zm-2.11-1.78a1.94,1.94,0,0,0,.6-.08,1.75,1.75,0,0,0,.5-.21,1.65,1.65,0,0,0,.39-.29,2,2,0,0,0,.26-.35v-1.65h-1a3.25,3.25,0,0,0-.88.11,1.84,1.84,0,0,0-.61.31,1.35,1.35,0,0,0-.36.47,1.63,1.63,0,0,0-.11.59,1,1,0,0,0,.33.79A1.32,1.32,0,0,0,110.85,184.09Z" transform="translate(-37.04 -37.42)" style="fill:#00aeef"/><path d="M120.2,173.93v2.36h1.64v1.87H120.2V183a1.75,1.75,0,0,0,.06.5.81.81,0,0,0,.19.3.69.69,0,0,0,.31.15,1.8,1.8,0,0,0,.43,0,2.82,2.82,0,0,0,.42,0l.33,0v1.94a6,6,0,0,1-.7.16,4.36,4.36,0,0,1-.85.07,3.7,3.7,0,0,1-1.14-.16,2.1,2.1,0,0,1-.86-.49,2.13,2.13,0,0,1-.55-.87,3.88,3.88,0,0,1-.2-1.31v-5.06h-1.4v-1.87h1.4v-2.36Z" transform="translate(-37.04 -37.42)" style="fill:#00aeef"/><path d="M123.25,173.81a1.25,1.25,0,0,1,.39-.95,1.42,1.42,0,0,1,1-.37,1.87,1.87,0,0,1,.59.09,1.28,1.28,0,0,1,.45.28,1.37,1.37,0,0,1,.29.42,1.45,1.45,0,0,1,0,1.06,1.37,1.37,0,0,1-.29.42,1.28,1.28,0,0,1-.45.28,1.87,1.87,0,0,1-.59.09,1.89,1.89,0,0,1-.6-.09,1.28,1.28,0,0,1-.45-.28,1.37,1.37,0,0,1-.29-.42A1.32,1.32,0,0,1,123.25,173.81ZM126,185.87H123.4v-9.58H126Z" transform="translate(-37.04 -37.42)" style="fill:#00aeef"/><path d="M127.68,181a6.07,6.07,0,0,1,.3-1.94,4.38,4.38,0,0,1,.88-1.55,4.1,4.1,0,0,1,1.42-1,4.71,4.71,0,0,1,1.93-.37,4.8,4.8,0,0,1,1.94.37,4.24,4.24,0,0,1,1.43,1,4.54,4.54,0,0,1,.88,1.55,6.07,6.07,0,0,1,.3,1.94v.19a6,6,0,0,1-.3,1.94,4.49,4.49,0,0,1-.88,1.54,3.94,3.94,0,0,1-1.42,1,5.24,5.24,0,0,1-3.87,0,3.9,3.9,0,0,1-1.43-1,4.49,4.49,0,0,1-.88-1.54,6,6,0,0,1-.3-1.94Zm2.56.19a5.54,5.54,0,0,0,.11,1.1,2.7,2.7,0,0,0,.34.89,1.64,1.64,0,0,0,.61.59,1.77,1.77,0,0,0,.92.23,1.73,1.73,0,0,0,.91-.23,1.75,1.75,0,0,0,.62-.59,2.7,2.7,0,0,0,.34-.89,5.54,5.54,0,0,0,.11-1.1V181a5.34,5.34,0,0,0-.11-1.08,2.7,2.7,0,0,0-.34-.89,1.73,1.73,0,0,0-1.54-.84,1.73,1.73,0,0,0-.91.23,1.7,1.7,0,0,0-.61.61,2.7,2.7,0,0,0-.34.89,5.34,5.34,0,0,0-.11,1.08Z" transform="translate(-37.04 -37.42)" style="fill:#00aeef"/><path d="M140.7,176.29l.08,1.1a3.32,3.32,0,0,1,1.19-.95,3.63,3.63,0,0,1,1.56-.33,3.71,3.71,0,0,1,1.24.19,2.45,2.45,0,0,1,1,.62,3,3,0,0,1,.61,1.14,5.66,5.66,0,0,1,.22,1.72v6.09H144v-6.11a2.33,2.33,0,0,0-.1-.76,1.16,1.16,0,0,0-.3-.48,1.1,1.1,0,0,0-.48-.25,2.51,2.51,0,0,0-.65-.08,1.77,1.77,0,0,0-1,.25,1.82,1.82,0,0,0-.65.67v6.76h-2.56v-9.58Z" transform="translate(-37.04 -37.42)" style="fill:#00aeef"/><path d="M153.69,183.22a.77.77,0,0,0-.08-.37.73.73,0,0,0-.3-.31,2.83,2.83,0,0,0-.6-.28,7,7,0,0,0-1-.26,9.5,9.5,0,0,1-1.36-.4,4.26,4.26,0,0,1-1.08-.59,2.57,2.57,0,0,1-.72-.83,2.22,2.22,0,0,1-.26-1.09,2.52,2.52,0,0,1,.27-1.14,2.73,2.73,0,0,1,.75-.95,3.63,3.63,0,0,1,1.2-.65,5.09,5.09,0,0,1,1.61-.24,5.83,5.83,0,0,1,1.68.23,3.93,3.93,0,0,1,1.26.64,3,3,0,0,1,.8,1,2.86,2.86,0,0,1,.28,1.24H153.6a1.23,1.23,0,0,0-.36-.91,1.86,1.86,0,0,0-2.11-.06.92.92,0,0,0-.35.74.79.79,0,0,0,.09.38.86.86,0,0,0,.3.3,2.61,2.61,0,0,0,.55.25,5.7,5.7,0,0,0,.84.21,10.75,10.75,0,0,1,1.44.38,3.75,3.75,0,0,1,1.15.57,2.58,2.58,0,0,1,.76.85,2.52,2.52,0,0,1,.27,1.21,2.46,2.46,0,0,1-.28,1.17,2.76,2.76,0,0,1-.81.93,4.16,4.16,0,0,1-1.27.61,5.77,5.77,0,0,1-1.67.22,5.36,5.36,0,0,1-1.78-.28,4.11,4.11,0,0,1-1.3-.75,3.09,3.09,0,0,1-.79-1,2.77,2.77,0,0,1-.27-1.17h2.43a1.45,1.45,0,0,0,.17.65,1.24,1.24,0,0,0,.38.44,1.61,1.61,0,0,0,.55.24,2.39,2.39,0,0,0,.66.08,1.85,1.85,0,0,0,1.12-.28A.86.86,0,0,0,153.69,183.22Z" transform="translate(-37.04 -37.42)" style="fill:#00aeef"/><path d="M44.93,201H39.82v3.45h6v2.14H37.17v-12.9H45.8v2.15h-6v3.08h5.11Z" transform="translate(-37.04 -37.42)" style="fill:#00aeef"/><path d="M49.56,197l.08,1.11a3.35,3.35,0,0,1,1.2-.95,3.57,3.57,0,0,1,1.56-.33,3.79,3.79,0,0,1,1.24.19,2.16,2.16,0,0,1,1,.62,3,3,0,0,1,.62,1.14,6,6,0,0,1,.22,1.71v6.1H52.87V200.5a2.41,2.41,0,0,0-.11-.77,1,1,0,0,0-.29-.47A1.12,1.12,0,0,0,52,199a2.62,2.62,0,0,0-.66-.07,1.77,1.77,0,0,0-1,.25,1.9,1.9,0,0,0-.65.67v6.76H47.15V197Z" transform="translate(-37.04 -37.42)" style="fill:#00aeef"/><path d="M61,203.48,62.74,197h2.67l-3.23,9.59H59.73L56.5,197h2.67Z" transform="translate(-37.04 -37.42)" style="fill:#00aeef"/><path d="M66.52,194.54a1.26,1.26,0,0,1,.38-.94,1.45,1.45,0,0,1,1-.38,1.89,1.89,0,0,1,.6.1,1.37,1.37,0,0,1,.45.28,1.17,1.17,0,0,1,.29.42,1.27,1.27,0,0,1,.1.52,1.33,1.33,0,0,1-.1.54,1.37,1.37,0,0,1-.29.42,1.2,1.2,0,0,1-.45.27,1.64,1.64,0,0,1-.6.1,1.63,1.63,0,0,1-.59-.1,1.13,1.13,0,0,1-.45-.27,1.22,1.22,0,0,1-.29-.42A1.33,1.33,0,0,1,66.52,194.54Zm2.72,12.07H66.67V197h2.57Z" transform="translate(-37.04 -37.42)" style="fill:#00aeef"/><path d="M76.73,199.42l-.45,0-.47,0a2.54,2.54,0,0,0-1.22.26,1.55,1.55,0,0,0-.68.73v6.27H71.35V197h2.42l.07,1.15a2.79,2.79,0,0,1,.89-1,2.17,2.17,0,0,1,1.24-.35l.43,0a3.72,3.72,0,0,1,.37.08Z" transform="translate(-37.04 -37.42)" style="fill:#00aeef"/><path d="M77.25,201.73a6,6,0,0,1,.3-1.94,4.38,4.38,0,0,1,.88-1.55,4,4,0,0,1,1.42-1,4.71,4.71,0,0,1,1.93-.37,4.8,4.8,0,0,1,1.94.37,4.24,4.24,0,0,1,1.43,1,4.54,4.54,0,0,1,.88,1.55,6,6,0,0,1,.3,1.94v.18a6,6,0,0,1-.3,2,4.49,4.49,0,0,1-.88,1.54,4,4,0,0,1-1.43,1,5.22,5.22,0,0,1-3.86,0,4,4,0,0,1-1.43-1,4.34,4.34,0,0,1-.88-1.54,6,6,0,0,1-.3-2Zm2.56.18a4.83,4.83,0,0,0,.11,1.1,2.54,2.54,0,0,0,.34.89,1.68,1.68,0,0,0,1.53.82,1.73,1.73,0,0,0,.91-.22,1.87,1.87,0,0,0,.62-.6,2.54,2.54,0,0,0,.34-.89,5.47,5.47,0,0,0,.11-1.1v-.18a5.34,5.34,0,0,0-.11-1.08,2.62,2.62,0,0,0-.34-.89,1.81,1.81,0,0,0-.62-.61,1.7,1.7,0,0,0-.92-.23,1.64,1.64,0,0,0-.91.23,1.7,1.7,0,0,0-.61.61,2.62,2.62,0,0,0-.34.89,4.71,4.71,0,0,0-.11,1.08Z" transform="translate(-37.04 -37.42)" style="fill:#00aeef"/><path d="M90.26,197l.08,1.11a3.35,3.35,0,0,1,1.2-.95,3.63,3.63,0,0,1,1.56-.33,3.75,3.75,0,0,1,1.24.19,2.25,2.25,0,0,1,1,.62,3,3,0,0,1,.61,1.14,5.64,5.64,0,0,1,.22,1.71v6.1H93.57V200.5a2.77,2.77,0,0,0-.1-.77,1.06,1.06,0,0,0-.3-.47,1.12,1.12,0,0,0-.48-.26,2.59,2.59,0,0,0-.65-.07,1.75,1.75,0,0,0-1,.25,1.93,1.93,0,0,0-.66.67v6.76H87.85V197Z" transform="translate(-37.04 -37.42)" style="fill:#00aeef"/><path d="M100.47,197l.08,1.08a3.4,3.4,0,0,1,1.17-.92,3.58,3.58,0,0,1,1.59-.33,3.17,3.17,0,0,1,1.51.34,2.26,2.26,0,0,1,1,1.12,3.36,3.36,0,0,1,1.18-1.07,3.5,3.5,0,0,1,1.7-.39A3.94,3.94,0,0,1,110,197a2.27,2.27,0,0,1,1,.63,2.86,2.86,0,0,1,.62,1.13,5.59,5.59,0,0,1,.22,1.71v6.1h-2.57v-6.1a2.49,2.49,0,0,0-.1-.79,1.12,1.12,0,0,0-.29-.49,1.08,1.08,0,0,0-.45-.24,2.77,2.77,0,0,0-.6-.06,1.58,1.58,0,0,0-1,.3,1.77,1.77,0,0,0-.61.8.28.28,0,0,0,0,.09v6.49h-2.56v-6.09a2.57,2.57,0,0,0-.1-.79,1.13,1.13,0,0,0-.28-.48,1,1,0,0,0-.46-.25,2.25,2.25,0,0,0-.6-.07,1.8,1.8,0,0,0-1,.24,1.71,1.71,0,0,0-.62.66v6.78H98.07V197Z" transform="translate(-37.04 -37.42)" style="fill:#00aeef"/><path d="M118.19,206.79a5.09,5.09,0,0,1-2-.37,4.42,4.42,0,0,1-1.49-1,4.07,4.07,0,0,1-.94-1.47,5,5,0,0,1-.33-1.82v-.34a6.08,6.08,0,0,1,.32-2,4.68,4.68,0,0,1,.89-1.56,4.15,4.15,0,0,1,1.41-1,4.61,4.61,0,0,1,1.86-.36,4.48,4.48,0,0,1,1.82.34,3.68,3.68,0,0,1,1.33.95,4.27,4.27,0,0,1,.8,1.49,6.48,6.48,0,0,1,.27,1.93v1.09H116a2.55,2.55,0,0,0,.25.85,2.27,2.27,0,0,0,.49.65,2.2,2.2,0,0,0,.69.42,2.57,2.57,0,0,0,.9.15,3,3,0,0,0,1.29-.26,2.49,2.49,0,0,0,1-.81l1.26,1.41a3.77,3.77,0,0,1-.58.64,4.1,4.1,0,0,1-.81.55,5.08,5.08,0,0,1-1.06.39A5.19,5.19,0,0,1,118.19,206.79Zm-.29-7.87a1.67,1.67,0,0,0-.73.15,1.52,1.52,0,0,0-.54.4,2.18,2.18,0,0,0-.37.63,3.23,3.23,0,0,0-.2.8h3.56v-.2a3.19,3.19,0,0,0-.11-.71,1.57,1.57,0,0,0-.31-.57,1.52,1.52,0,0,0-.54-.37A2,2,0,0,0,117.9,198.92Z" transform="translate(-37.04 -37.42)" style="fill:#00aeef"/><path d="M125.94,197l.08,1.11a3.35,3.35,0,0,1,1.2-.95,3.63,3.63,0,0,1,1.56-.33A3.75,3.75,0,0,1,130,197a2.25,2.25,0,0,1,1,.62,3,3,0,0,1,.61,1.14,5.64,5.64,0,0,1,.22,1.71v6.1h-2.56V200.5a2.77,2.77,0,0,0-.1-.77,1.06,1.06,0,0,0-.3-.47,1.12,1.12,0,0,0-.48-.26,2.59,2.59,0,0,0-.65-.07,1.75,1.75,0,0,0-1,.25,1.93,1.93,0,0,0-.66.67v6.76h-2.56V197Z" transform="translate(-37.04 -37.42)" style="fill:#00aeef"/><path d="M136.81,194.67V197h1.64v1.88h-1.64v4.79a1.64,1.64,0,0,0,.07.49.73.73,0,0,0,.18.31.81.81,0,0,0,.31.15,1.8,1.8,0,0,0,.43,0l.42,0,.33,0v1.94a5.86,5.86,0,0,1-.69.16,4.54,4.54,0,0,1-.86.07,3.59,3.59,0,0,1-1.13-.16,2.08,2.08,0,0,1-.87-.49,2.17,2.17,0,0,1-.55-.88,3.82,3.82,0,0,1-.2-1.3V198.9h-1.4V197h1.4v-2.35Z" transform="translate(-37.04 -37.42)" style="fill:#00aeef"/><path d="M147.22,202.07v4.54h-2.65v-12.9h5a6.15,6.15,0,0,1,2,.32,4.44,4.44,0,0,1,1.53.89,3.89,3.89,0,0,1,1,1.35,4.42,4.42,0,0,1,.33,1.71,4.14,4.14,0,0,1-.33,1.69,3.67,3.67,0,0,1-1,1.29,4.48,4.48,0,0,1-1.53.82,6.74,6.74,0,0,1-2,.29Zm0-2.16h2.38a2.9,2.9,0,0,0,1-.14,1.82,1.82,0,0,0,.67-.39,1.56,1.56,0,0,0,.39-.61,2.39,2.39,0,0,0,.12-.77,2.63,2.63,0,0,0-.12-.8,1.83,1.83,0,0,0-1.06-1.16,2.45,2.45,0,0,0-1-.18h-2.38Z" transform="translate(-37.04 -37.42)" style="fill:#00aeef"/><path d="M161.49,199.42l-.46,0-.46,0a2.54,2.54,0,0,0-1.22.26,1.57,1.57,0,0,0-.69.73v6.27H156.1V197h2.42l.07,1.15a2.73,2.73,0,0,1,.9-1,2.15,2.15,0,0,1,1.24-.35l.43,0,.37.08Z" transform="translate(-37.04 -37.42)" style="fill:#00aeef"/><path d="M162,201.73a6,6,0,0,1,.3-1.94,4.71,4.71,0,0,1,.88-1.55,4.2,4.2,0,0,1,1.42-1,5.24,5.24,0,0,1,3.87,0,4.14,4.14,0,0,1,1.43,1,4.38,4.38,0,0,1,.88,1.55,6,6,0,0,1,.3,1.94v.18a6,6,0,0,1-.3,2,4.34,4.34,0,0,1-.88,1.54,4.07,4.07,0,0,1-1.42,1,4.85,4.85,0,0,1-1.93.37,4.93,4.93,0,0,1-1.94-.37,4,4,0,0,1-1.42-1,4.51,4.51,0,0,1-.89-1.54,6,6,0,0,1-.3-2Zm2.56.18a5.47,5.47,0,0,0,.11,1.1,2.75,2.75,0,0,0,.34.89,1.84,1.84,0,0,0,.61.6,1.78,1.78,0,0,0,.93.22,1.75,1.75,0,0,0,.91-.22,1.84,1.84,0,0,0,.61-.6,2.55,2.55,0,0,0,.35-.89,5.49,5.49,0,0,0,.1-1.1v-.18a5.35,5.35,0,0,0-.1-1.08,2.63,2.63,0,0,0-.35-.89,1.73,1.73,0,0,0-.62-.61,1.94,1.94,0,0,0-1.83,0,1.78,1.78,0,0,0-.61.61,2.85,2.85,0,0,0-.34.89,5.34,5.34,0,0,0-.11,1.08Z" transform="translate(-37.04 -37.42)" style="fill:#00aeef"/><path d="M172.29,201.75a7,7,0,0,1,.27-2,4.79,4.79,0,0,1,.77-1.55,3.47,3.47,0,0,1,1.22-1,3.57,3.57,0,0,1,1.62-.35,3.33,3.33,0,0,1,1.44.28,3,3,0,0,1,1,.8l.1-.91h2.32v9.26a4.37,4.37,0,0,1-.33,1.75,3.61,3.61,0,0,1-.95,1.29,4.06,4.06,0,0,1-1.45.79,6.12,6.12,0,0,1-1.87.27,5.19,5.19,0,0,1-.94-.08,5,5,0,0,1-1-.28,4.7,4.7,0,0,1-.92-.47,3.17,3.17,0,0,1-.74-.67l1.14-1.56a3.26,3.26,0,0,0,1,.79,2.9,2.9,0,0,0,1.29.28,2.22,2.22,0,0,0,1.59-.54,2.09,2.09,0,0,0,.56-1.55v-.51a2.93,2.93,0,0,1-1,.74,3.22,3.22,0,0,1-1.33.26,3.56,3.56,0,0,1-1.61-.37,3.68,3.68,0,0,1-1.21-1,4.94,4.94,0,0,1-.77-1.54,6.69,6.69,0,0,1-.27-1.94Zm2.56.18A4.67,4.67,0,0,0,175,203a2.58,2.58,0,0,0,.35.88,2,2,0,0,0,.62.6,1.7,1.7,0,0,0,.87.21,2,2,0,0,0,1-.23,1.67,1.67,0,0,0,.65-.64v-4a1.65,1.65,0,0,0-.65-.66,2,2,0,0,0-1-.22,1.67,1.67,0,0,0-.88.22,1.81,1.81,0,0,0-.61.59,2.8,2.8,0,0,0-.37.9,4.84,4.84,0,0,0-.12,1.11Z" transform="translate(-37.04 -37.42)" style="fill:#00aeef"/><path d="M188.41,199.42l-.46,0-.46,0a2.51,2.51,0,0,0-1.22.26,1.57,1.57,0,0,0-.69.73v6.27H183V197h2.42l.07,1.15a2.79,2.79,0,0,1,.89-1,2.17,2.17,0,0,1,1.24-.35l.43,0a3.72,3.72,0,0,1,.37.08Z" transform="translate(-37.04 -37.42)" style="fill:#00aeef"/><path d="M194.93,206.61a2.73,2.73,0,0,1-.26-.86,3.37,3.37,0,0,1-1,.74,3.13,3.13,0,0,1-1.44.3,3.88,3.88,0,0,1-1.29-.21,3.18,3.18,0,0,1-1-.6,2.69,2.69,0,0,1-.94-2.06,3,3,0,0,1,.28-1.34,2.65,2.65,0,0,1,.84-1,4,4,0,0,1,1.38-.62,7.48,7.48,0,0,1,1.93-.22h1.14v-.54a1.58,1.58,0,0,0-.34-1.07,1.34,1.34,0,0,0-1.07-.4,1.59,1.59,0,0,0-1,.31,1.07,1.07,0,0,0-.37.85H189.2a2.6,2.6,0,0,1,.29-1.18,3,3,0,0,1,.82-1,4,4,0,0,1,1.29-.66,5.5,5.5,0,0,1,1.68-.24,5.41,5.41,0,0,1,1.54.21,3.45,3.45,0,0,1,1.22.63,2.86,2.86,0,0,1,.81,1.06,3.54,3.54,0,0,1,.28,1.47v4.06c0,.27,0,.52,0,.73s0,.41.07.59a2.93,2.93,0,0,0,.12.47,2.66,2.66,0,0,0,.16.39v.15Zm-2.12-1.78a2.37,2.37,0,0,0,.61-.08,2,2,0,0,0,.5-.21,1.82,1.82,0,0,0,.38-.29,1.58,1.58,0,0,0,.26-.35v-1.65h-1.05a3.25,3.25,0,0,0-.88.11,1.84,1.84,0,0,0-.61.31,1.21,1.21,0,0,0-.35.47,1.45,1.45,0,0,0-.12.59,1,1,0,0,0,.34.79A1.28,1.28,0,0,0,192.81,204.83Z" transform="translate(-37.04 -37.42)" style="fill:#00aeef"/><path d="M201.5,197l.08,1.08a3.4,3.4,0,0,1,1.17-.92,3.58,3.58,0,0,1,1.59-.33,3.24,3.24,0,0,1,1.52.34,2.29,2.29,0,0,1,1,1.12,3.36,3.36,0,0,1,1.18-1.07,3.5,3.5,0,0,1,1.7-.39A3.89,3.89,0,0,1,211,197a2.37,2.37,0,0,1,1,.63,3.13,3.13,0,0,1,.62,1.13,6,6,0,0,1,.21,1.71v6.1h-2.57v-6.1a2.49,2.49,0,0,0-.1-.79,1.12,1.12,0,0,0-.29-.49,1.08,1.08,0,0,0-.45-.24,2.77,2.77,0,0,0-.6-.06,1.58,1.58,0,0,0-1,.3,1.77,1.77,0,0,0-.61.8s0,.06,0,.09v6.49h-2.56v-6.09a3,3,0,0,0-.09-.79,1.15,1.15,0,0,0-.29-.48,1,1,0,0,0-.45-.25,2.32,2.32,0,0,0-.61-.07,1.8,1.8,0,0,0-1,.24,1.71,1.71,0,0,0-.62.66v6.78H199.1V197Z" transform="translate(-37.04 -37.42)" style="fill:#00aeef"/><path d="M217.21,197l.08,1.08a3.4,3.4,0,0,1,1.17-.92,3.58,3.58,0,0,1,1.59-.33,3.24,3.24,0,0,1,1.52.34,2.29,2.29,0,0,1,1,1.12,3.36,3.36,0,0,1,1.18-1.07,3.5,3.5,0,0,1,1.7-.39,3.94,3.94,0,0,1,1.27.19,2.27,2.27,0,0,1,1,.63,2.86,2.86,0,0,1,.62,1.13,5.59,5.59,0,0,1,.22,1.71v6.1H226v-6.1a2.49,2.49,0,0,0-.1-.79,1.12,1.12,0,0,0-.29-.49,1.08,1.08,0,0,0-.45-.24,2.77,2.77,0,0,0-.6-.06,1.58,1.58,0,0,0-1,.3,1.77,1.77,0,0,0-.61.8.28.28,0,0,0,0,.09v6.49h-2.56v-6.09a2.57,2.57,0,0,0-.1-.79,1.13,1.13,0,0,0-.28-.48,1,1,0,0,0-.46-.25,2.25,2.25,0,0,0-.6-.07,1.8,1.8,0,0,0-1,.24,1.71,1.71,0,0,0-.62.66v6.78h-2.56V197Z" transform="translate(-37.04 -37.42)" style="fill:#00aeef"/><path d="M234.93,206.79a5.09,5.09,0,0,1-2-.37,4.42,4.42,0,0,1-1.49-1,4.07,4.07,0,0,1-.94-1.47,5,5,0,0,1-.33-1.82v-.34a6.08,6.08,0,0,1,.32-2,4.68,4.68,0,0,1,.89-1.56,4.15,4.15,0,0,1,1.41-1,4.61,4.61,0,0,1,1.86-.36,4.48,4.48,0,0,1,1.82.34,3.68,3.68,0,0,1,1.33.95,4.27,4.27,0,0,1,.8,1.49,6.48,6.48,0,0,1,.27,1.93v1.09h-6.1a2.55,2.55,0,0,0,.25.85,2.27,2.27,0,0,0,.49.65,2.2,2.2,0,0,0,.69.42,2.57,2.57,0,0,0,.9.15,3,3,0,0,0,1.29-.26,2.49,2.49,0,0,0,1-.81l1.26,1.41a3.77,3.77,0,0,1-.58.64,4.1,4.1,0,0,1-.81.55,5.08,5.08,0,0,1-1.06.39A5.19,5.19,0,0,1,234.93,206.79Zm-.29-7.87a1.67,1.67,0,0,0-.73.15,1.52,1.52,0,0,0-.54.4,2.18,2.18,0,0,0-.37.63,3.23,3.23,0,0,0-.2.8h3.56v-.2a3.19,3.19,0,0,0-.11-.71,1.74,1.74,0,0,0-.31-.57,1.52,1.52,0,0,0-.54-.37A2,2,0,0,0,234.64,198.92Z" transform="translate(-37.04 -37.42)" style="fill:#00aeef"/><path d="M196.35,88.36a19.44,19.44,0,0,1-13.26-23.2l12.62,1.62s4.84.21,4.67,8.79C200.2,83.89,196.35,88.36,196.35,88.36Z" transform="translate(-37.04 -37.42)" style="fill:#00aeef"/><path d="M207.63,88.36a19.49,19.49,0,0,0,13.26-23.2l-12.62,1.62s-4.85.21-4.67,8.79C203.78,83.89,207.63,88.36,207.63,88.36Z" transform="translate(-37.04 -37.42)" style="fill:#00aeef"/><path d="M202,55.84a3,3,0,0,1,2.94,2.95A3.24,3.24,0,0,1,203,61.56c-.13.06-.25.12-.22.32s.63.32.89.38l17,2A19.44,19.44,0,0,0,202,50.32h0a19.44,19.44,0,0,0-18.64,13.91l17-2c.26-.06.87-.17.89-.38s-.09-.26-.22-.32a3.24,3.24,0,0,1-1.92-2.77A2.94,2.94,0,0,1,202,55.84Z" transform="translate(-37.04 -37.42)" style="fill:#00aeef"/><path d="M209.74,102.12l1.15-.72S205.43,94,193.24,94c-6.25,0-9.48,2.51-13.85,2.51a5.91,5.91,0,0,1-3.52-.86s2.08,3,9.62,3c5.52,0,9.47-3.22,13.34-3.22C204.14,95.45,208.09,100.18,209.74,102.12Z" transform="translate(-37.04 -37.42)" style="fill:#00aeef"/><path d="M192.8,102.12l-1.14-.72S197.11,94,209.31,94c6.24,0,9.47,2.51,13.85,2.51a5.88,5.88,0,0,0,3.51-.86s-2.08,3-9.61,3c-5.53,0-9.47-3.22-13.35-3.22C198.4,95.45,194.46,100.18,192.8,102.12Z" transform="translate(-37.04 -37.42)" style="fill:#00aeef"/><path d="M187,93.36c-.21.58-2.54-.1-4.12.36a13,13,0,0,1-15.18-8s3.87,4.16,6.89,4.45a23.09,23.09,0,0,1,9.11,2.58l.65.14a.83.83,0,0,0-.36-.43c-.37-.2-3.27-1.13-4.67-5.74a40.67,40.67,0,0,1-.86-5.31,48.12,48.12,0,0,1,4.45,5.74C184.19,89.35,184.34,91.86,187,93.36Z" transform="translate(-37.04 -37.42)" style="fill:#00aeef"/><path d="M177.48,88.48c-.23.24-.82-.14-1-.25s-1.76-.81-4.41-1.75a12.1,12.1,0,0,1-7-12.13,9.8,9.8,0,0,0,2.69,4.41c2,1.76,2.73,2,3.95,3.41s4,4.7,4.09,4.66.14-.21-.07-.39-.94-2-1.4-2.58-1.87-4.81.18-10a16.3,16.3,0,0,1,2,7.57c-.14,3.81-.32,2.91.61,6.07C177.09,87.52,177.59,88.38,177.48,88.48Z" transform="translate(-37.04 -37.42)" style="fill:#00aeef"/><path d="M171.39,79.26c-.13.13-.69-.68-1.12-1.43s-3.44-4-3.84-4.63a10.65,10.65,0,0,1-1.22-10.8s.26-.07.26,1.36a13.7,13.7,0,0,0,2.4,6,11.65,11.65,0,0,1,2.26,5.88s.14.43.32.47.18-.43.18-.43-.14-2.16-.14-3.63a8.64,8.64,0,0,1,2-5.41,7,7,0,0,0,1-1.58,2.75,2.75,0,0,1,.61-.86,21.86,21.86,0,0,1-1.11,8c-1.4,3.84-1.86,4.49-1.65,6.57C171.42,78.73,171.46,79.19,171.39,79.26Z" transform="translate(-37.04 -37.42)" style="fill:#00aeef"/><path d="M169,67.93c-.15,0-.25-.51-.33-.9a20.22,20.22,0,0,0-.78-3.19,12.71,12.71,0,0,1-1.4-5.49,14,14,0,0,1,3.91-9.26,14.09,14.09,0,0,1-.83,2.76,7,7,0,0,0-.21,4,31.72,31.72,0,0,1,.32,3.59,29.67,29.67,0,0,1-.4,4.23s-.07.4.08.4.28-.33.28-.33a8.23,8.23,0,0,1,1.8-4.23c1.65-2,4.63-3.23,5.09-4.12,0,0-.21,3.15-3.69,6.85-3.1,3.29-2.19,1.61-3.2,4.3a7.9,7.9,0,0,0-.43,1.22C169.23,68,169,67.93,169,67.93Z" transform="translate(-37.04 -37.42)" style="fill:#00aeef"/><path d="M170.92,57.31a2.55,2.55,0,0,1,.47-1.4c.53-1,0-2.69.68-5.2s2-6.82,7.1-9.4a6.45,6.45,0,0,0-.75.82,19.66,19.66,0,0,0-2,4.74,17.7,17.7,0,0,1-2.76,5.49c-.65.68-.36.75-.36.75a1.19,1.19,0,0,0,.64-.57,7.75,7.75,0,0,1,3.81-2.8,36.82,36.82,0,0,0,4.91-1.47,34.27,34.27,0,0,1-6.06,4.87c-2.91,1.66-3.23,1.15-5,3.38C171.64,56.52,171.06,57.31,170.92,57.31Z" transform="translate(-37.04 -37.42)" style="fill:#00aeef"/><path d="M177.88,47.73s0-.29.54-.79,1.07-2,2-3.41A11.75,11.75,0,0,1,189,37.61a15.66,15.66,0,0,0-1.91,1.61,32.51,32.51,0,0,1-2.58,3.23A20.55,20.55,0,0,1,181,45s-.36.29-.29.4.43-.11.43-.11a8.2,8.2,0,0,1,4.2-1.55c2.29-.07,4.7,0,5.06.08,0,0-2.16,1.47-7.29,2.4s-4.16,1-5,1.47C178.2,47.69,178,47.83,177.88,47.73Z" transform="translate(-37.04 -37.42)" style="fill:#00aeef"/><path d="M187,41.77s.11-.29.93-.54.75-1,3.27-2.36,5.13-1.94,7.78-.83a11.61,11.61,0,0,0-1.29.22,25.89,25.89,0,0,0-2.62.86,28.26,28.26,0,0,1-4.41,1.72c-1.11.21-.58.29-.58.29a1.59,1.59,0,0,0,.47.1,12.49,12.49,0,0,1,4.31.33c1.61.57,1.57.79,2.22,1s1.4.36,1.51.61c0,0-1.62.14-2.59.14a14.9,14.9,0,0,1-4.73-.82,6.5,6.5,0,0,0-3.09-.72A2.07,2.07,0,0,1,187,41.77Z" transform="translate(-37.04 -37.42)" style="fill:#00aeef"/><path d="M197.22,40.52s.11-.15.82-.29a18,18,0,0,1,2.59-.93,8.38,8.38,0,0,1,6.71,1l-1.8,0c-.32,0-3.12.5-3.77.5s-1.93-.29-2.11-.07,1.18.5,1.4.57a4.63,4.63,0,0,1,2.4,1.33,16.06,16.06,0,0,0,2.23,1.9,30.55,30.55,0,0,1-4.49-1.33c-.9-.5-2.44-2-2.69-2.15S197.22,40.52,197.22,40.52Z" transform="translate(-37.04 -37.42)" style="fill:#00aeef"/><path d="M205.51,42a7.81,7.81,0,0,1,3.91,1c1.65,1,3,2.4,3.12,3.22a6.29,6.29,0,0,0-1.54-1,20.51,20.51,0,0,1-2.7-1.37C208,43.64,205.86,42.31,205.51,42Z" transform="translate(-37.04 -37.42)" style="fill:#00aeef"/><path d="M216.13,93.76s.32-.32,1.39-1.26,1.37-2.29,2.55-4.41a19.49,19.49,0,0,1,4.59-5.74,19.31,19.31,0,0,0-.46,2.12,10.21,10.21,0,0,1-1.8,4.91c-1.36,1.62-1.43,2-3,2.94,0,0-.61.43-.57.58s1.07,0,1.07,0a16.36,16.36,0,0,0,1.51-.64c.36-.22,2-1,2.62-1.3a25,25,0,0,1,2.62-.93c1.43-.43,6.64-1.76,8.68-5.06A10.71,10.71,0,0,1,234,87.77c-.76.89-5,6.53-11,6.42,0,0-2.33-.18-3.55-.39a5.88,5.88,0,0,0-1.83-.18A5.45,5.45,0,0,1,216.13,93.76Z" transform="translate(-37.04 -37.42)" style="fill:#00aeef"/><path d="M229.36,73.63a21.14,21.14,0,0,0-2.72,8.5c-.5,5,.36,3.52-.47,5.75,0,0-.29.57-.18.6s.54-.21,2.12-1.18,3.12-.68,6.49-3.91,4.06-9.65,4.13-10.19a3.42,3.42,0,0,0-.75,1.36,4.58,4.58,0,0,1-.9,1.65c-.11.11-3.77,4.13-4.2,4.49a35.79,35.79,0,0,0-3,3.73c-.47.75-1.83,2.12-2.08,2a2.72,2.72,0,0,1,.14-.57,13.57,13.57,0,0,0,1.55-3.2,14.43,14.43,0,0,0,.57-3.55C230.05,78.12,229.4,74.42,229.36,73.63Z" transform="translate(-37.04 -37.42)" style="fill:#00aeef"/><path d="M232.38,78.47a1.21,1.21,0,0,1,0-.89,5.9,5.9,0,0,0-.43-3.34c-.64-1.4-2-5.27-1.94-7.86s.4-2.94.4-2.94.72,2.12.93,2.48,2.37,4.16,2.19,6.24-.29,2.73-.18,2.76.36-.25.4-.5a19.91,19.91,0,0,1,1.07-3.37c.68-1.69,3.45-5.42,4.06-7.9a12.75,12.75,0,0,1-1.51,8.33c-2.4,4-2.65,3.12-3.66,5S232.52,78.47,232.38,78.47Z" transform="translate(-37.04 -37.42)" style="fill:#00aeef"/><path d="M234.57,67.1c-.18,0-.07-1.68-.51-2.22s-4.12-4.92-4.91-9.3c0,0,2.33,2.37,2.73,2.62a8.62,8.62,0,0,1,2.44,3.2c.46,1.36.36,2.51.53,2.54s.18-1.5.18-1.5a39.9,39.9,0,0,1,.29-4.45c.25-1.44.9-3.84.61-5.06a10.5,10.5,0,0,1,1.33,5.38,14.41,14.41,0,0,1-1.58,6,11.22,11.22,0,0,0-.68,2.22C235,66.89,234.57,67.1,234.57,67.1Z" transform="translate(-37.04 -37.42)" style="fill:#00aeef"/><path d="M230.19,44.64s4.84,2.87,4.09,12.49c0,0,0,.43-.29,0A9.9,9.9,0,0,0,232.2,55c-.47-.29-4.77-2.91-6.6-6.92,0,0,.28-.08.72.32a12.36,12.36,0,0,0,2,1.18,7.07,7.07,0,0,1,2.83,1.73A9.2,9.2,0,0,1,233,54.15s.33.25.11-.47a6.27,6.27,0,0,0-.82-2.08A8.8,8.8,0,0,1,231.09,48,7.26,7.26,0,0,0,230.19,44.64Z" transform="translate(-37.04 -37.42)" style="fill:#00aeef"/><path d="M229.36,48a2.69,2.69,0,0,0-.35-1.54c-.47-.9-.11-1.89-1.58-4.27-.83-1.33-3.7-2.37-3.7-2.37s.83,1.15,1.37,1.8a7.11,7.11,0,0,1,.89,1.43c.18.33,1.18,1.28,1.55,1.83a1.43,1.43,0,0,1,.21.58c0,.18-.39-.11-.5-.22a9.63,9.63,0,0,0-3-1.65,27.59,27.59,0,0,1-3.8-.72,14.63,14.63,0,0,0,5.24,2.95A6,6,0,0,1,229.36,48Z" transform="translate(-37.04 -37.42)" style="fill:#00aeef"/><path d="M223.7,42.09a9.05,9.05,0,0,0-7-3.33,1.6,1.6,0,0,0,.75.36c.51.1,1.4,1,1.87,1.29A12,12,0,0,0,223.7,42.09Z" transform="translate(-37.04 -37.42)" style="fill:#00aeef"/><path d="M86,37.42V79.57a24.21,24.21,0,0,1-1.84,9.76,19.85,19.85,0,0,1-5.09,7.08,21.32,21.32,0,0,1-7.74,4.3,31.71,31.71,0,0,1-9.8,1.45,31.85,31.85,0,0,1-9.85-1.45,21.32,21.32,0,0,1-7.74-4.3,19.56,19.56,0,0,1-5.07-7.08A24.55,24.55,0,0,1,37,79.57V37.42H50.2V79.57q0,6.27,3,9.15t8.32,2.87c3.56,0,6.34-1,8.31-2.87s3-5,3-9.15V37.42Z" transform="translate(-37.04 -37.42)" style="fill:#00aeef"/><path d="M148.71,101.28H135.56l-25.62-42v42H96.78V37.42h13.16L135.6,79.53V37.42h13.11Z" transform="translate(-37.04 -37.42)" style="fill:#00aeef"/><path d="M46.5,142.5a10.37,10.37,0,0,1-4-.73,8.86,8.86,0,0,1-3-2,8.54,8.54,0,0,1-1.87-2.93,10.27,10.27,0,0,1-.64-3.61v-.69a12,12,0,0,1,.63-4,9.07,9.07,0,0,1,1.78-3.11,7.92,7.92,0,0,1,2.8-2,9,9,0,0,1,3.69-.74,9.14,9.14,0,0,1,3.63.68,7.35,7.35,0,0,1,2.63,1.91,8.09,8.09,0,0,1,1.61,2.95,12.83,12.83,0,0,1,.53,3.84v2.17H42.2a5.37,5.37,0,0,0,.51,1.69,4.29,4.29,0,0,0,1,1.29,4.19,4.19,0,0,0,1.38.84,5,5,0,0,0,1.78.3,6.25,6.25,0,0,0,2.57-.52,5.23,5.23,0,0,0,2-1.61l2.5,2.8a7.86,7.86,0,0,1-1.15,1.27,7.3,7.3,0,0,1-1.62,1.1,9.44,9.44,0,0,1-2.1.77A10.36,10.36,0,0,1,46.5,142.5Zm-.58-15.65a3.32,3.32,0,0,0-1.45.29,3.07,3.07,0,0,0-1.08.81,4.32,4.32,0,0,0-.73,1.24,6.9,6.9,0,0,0-.4,1.61h7.08v-.41a4.84,4.84,0,0,0-.22-1.41,3,3,0,0,0-.62-1.13,2.81,2.81,0,0,0-1-.74A4.15,4.15,0,0,0,45.92,126.85Z" transform="translate(-37.04 -37.42)" style="fill:#00aeef"/><path d="M61.92,123.08l.16,2.2a6.7,6.7,0,0,1,2.38-1.89,7.15,7.15,0,0,1,3.1-.67,7.67,7.67,0,0,1,2.47.38,4.58,4.58,0,0,1,1.9,1.25,5.77,5.77,0,0,1,1.23,2.25,12,12,0,0,1,.43,3.42v12.12h-5.1V130a4.64,4.64,0,0,0-.2-1.51,2.12,2.12,0,0,0-.59-1,2.07,2.07,0,0,0-1-.5,5.1,5.1,0,0,0-1.3-.15,3.57,3.57,0,0,0-1.93.49,3.71,3.71,0,0,0-1.3,1.34v13.44H57.13V123.08Z" transform="translate(-37.04 -37.42)" style="fill:#00aeef"/><path d="M84.58,135.92l3.54-12.84h5.33L87,142.14H82.15l-6.43-19.06H81Z" transform="translate(-37.04 -37.42)" style="fill:#00aeef"/><path d="M95.65,118.14a2.47,2.47,0,0,1,.77-1.88,2.83,2.83,0,0,1,2.08-.74,3.36,3.36,0,0,1,1.18.19,2.4,2.4,0,0,1,.9.55,2.44,2.44,0,0,1,.58.83,2.91,2.91,0,0,1,0,2.12,2.58,2.58,0,0,1-.58.84,2.51,2.51,0,0,1-.9.54,3.36,3.36,0,0,1-1.18.2,3.44,3.44,0,0,1-1.18-.2,2.4,2.4,0,0,1-1.47-1.38A2.83,2.83,0,0,1,95.65,118.14Zm5.41,24H96V123.08h5.11Z" transform="translate(-37.04 -37.42)" style="fill:#00aeef"/><path d="M116,127.85l-.91-.09c-.35,0-.66-.05-.93-.05a5.12,5.12,0,0,0-2.42.5,3.06,3.06,0,0,0-1.36,1.46v12.47h-5.1V123.08h4.81l.14,2.27a5.83,5.83,0,0,1,1.78-1.93,4.44,4.44,0,0,1,2.47-.7,6.63,6.63,0,0,1,.86.07c.29,0,.54.11.73.16Z" transform="translate(-37.04 -37.42)" style="fill:#00aeef"/><path d="M117,132.43a12.06,12.06,0,0,1,.6-3.86,8.9,8.9,0,0,1,1.74-3.07,8.16,8.16,0,0,1,2.83-2,9.48,9.48,0,0,1,3.83-.74,9.59,9.59,0,0,1,3.86.74,8.24,8.24,0,0,1,2.85,2,8.76,8.76,0,0,1,1.75,3.07,12.06,12.06,0,0,1,.6,3.86v.37a12,12,0,0,1-.6,3.87,8.85,8.85,0,0,1-1.75,3.07,8,8,0,0,1-2.83,2,10.36,10.36,0,0,1-7.69,0,8,8,0,0,1-2.84-2,8.85,8.85,0,0,1-1.75-3.07,12,12,0,0,1-.6-3.87Zm5.09.37a10.85,10.85,0,0,0,.21,2.19,5.4,5.4,0,0,0,.68,1.77,3.47,3.47,0,0,0,1.22,1.19,3.61,3.61,0,0,0,1.84.44,3.53,3.53,0,0,0,1.8-.44,3.59,3.59,0,0,0,1.23-1.19,5.41,5.41,0,0,0,.69-1.77,10.85,10.85,0,0,0,.21-2.19v-.37a10.57,10.57,0,0,0-.21-2.14,5.65,5.65,0,0,0-.69-1.78,3.59,3.59,0,0,0-1.24-1.21,3.5,3.5,0,0,0-1.83-.45,3.44,3.44,0,0,0-1.8.45,3.53,3.53,0,0,0-1.22,1.21,5.64,5.64,0,0,0-.68,1.78,10.57,10.57,0,0,0-.21,2.14Z" transform="translate(-37.04 -37.42)" style="fill:#00aeef"/><path d="M142.87,123.08l.16,2.2a6.7,6.7,0,0,1,2.38-1.89,7.15,7.15,0,0,1,3.1-.67,7.67,7.67,0,0,1,2.47.38,4.58,4.58,0,0,1,1.9,1.25,5.77,5.77,0,0,1,1.23,2.25,12,12,0,0,1,.43,3.42v12.12h-5.09V130a4.61,4.61,0,0,0-.21-1.51,2.12,2.12,0,0,0-.59-1,2.07,2.07,0,0,0-1-.5,5,5,0,0,0-1.3-.15,3.6,3.6,0,0,0-1.93.49,3.71,3.71,0,0,0-1.3,1.34v13.44h-5.09V123.08Z" transform="translate(-37.04 -37.42)" style="fill:#00aeef"/><path d="M163.17,123.08l.16,2.13a6.76,6.76,0,0,1,2.32-1.82,7.17,7.17,0,0,1,3.16-.67,6.38,6.38,0,0,1,3,.69,4.62,4.62,0,0,1,2,2.22,6.85,6.85,0,0,1,2.35-2.13,6.92,6.92,0,0,1,3.38-.78,7.7,7.7,0,0,1,2.52.39,4.68,4.68,0,0,1,1.94,1.25,5.8,5.8,0,0,1,1.24,2.25,11.75,11.75,0,0,1,.43,3.39v12.14h-5.11V130a5.35,5.35,0,0,0-.2-1.57,2.27,2.27,0,0,0-.58-1,1.94,1.94,0,0,0-.9-.47,4.82,4.82,0,0,0-1.19-.13,3.19,3.19,0,0,0-2,.59,3.58,3.58,0,0,0-1.2,1.59c0,.06,0,.12,0,.19a1.48,1.48,0,0,1,0,.2v12.7H169.5V130a5.65,5.65,0,0,0-.19-1.57,2.25,2.25,0,0,0-.57-1,2.06,2.06,0,0,0-.91-.49,4.44,4.44,0,0,0-1.2-.14,3.3,3.3,0,0,0-3.14,1.79v13.48H158.4V123.08Z" transform="translate(-37.04 -37.42)" style="fill:#00aeef"/><path d="M198.41,142.5a10.37,10.37,0,0,1-4-.73,8.86,8.86,0,0,1-3-2,8.37,8.37,0,0,1-1.86-2.93,10.05,10.05,0,0,1-.65-3.61v-.69a12,12,0,0,1,.63-4,9.23,9.23,0,0,1,1.78-3.11,7.92,7.92,0,0,1,2.8-2,9,9,0,0,1,3.69-.74,9.08,9.08,0,0,1,3.63.68,7.39,7.39,0,0,1,2.64,1.91,8.07,8.07,0,0,1,1.6,2.95,12.82,12.82,0,0,1,.54,3.84v2.17H194.12a5.36,5.36,0,0,0,.5,1.69,4.29,4.29,0,0,0,1,1.29,4.19,4.19,0,0,0,1.38.84,5,5,0,0,0,1.78.3,6.25,6.25,0,0,0,2.57-.52,5.23,5.23,0,0,0,2-1.61l2.5,2.8a7.78,7.78,0,0,1-1.14,1.27,7.62,7.62,0,0,1-1.63,1.1,9.44,9.44,0,0,1-2.1.77A10.36,10.36,0,0,1,198.41,142.5Zm-.58-15.65a3.32,3.32,0,0,0-1.45.29,3,3,0,0,0-1.07.81,4.34,4.34,0,0,0-.74,1.24,7.44,7.44,0,0,0-.4,1.61h7.08v-.41A4.84,4.84,0,0,0,201,129a3,3,0,0,0-.62-1.13,2.81,2.81,0,0,0-1-.74A4.15,4.15,0,0,0,197.83,126.85Z" transform="translate(-37.04 -37.42)" style="fill:#00aeef"/><path d="M213.83,123.08l.16,2.2a6.7,6.7,0,0,1,2.38-1.89,7.15,7.15,0,0,1,3.1-.67,7.67,7.67,0,0,1,2.47.38,4.58,4.58,0,0,1,1.9,1.25,5.77,5.77,0,0,1,1.23,2.25,12,12,0,0,1,.43,3.42v12.12h-5.09V130a4.61,4.61,0,0,0-.21-1.51,2.12,2.12,0,0,0-.59-1,2.07,2.07,0,0,0-1-.5,5,5,0,0,0-1.3-.15,3.6,3.6,0,0,0-1.93.49,3.71,3.71,0,0,0-1.3,1.34v13.44H209V123.08Z" transform="translate(-37.04 -37.42)" style="fill:#00aeef"/><path d="M235.45,118.39v4.69h3.27v3.73h-3.27v9.52a3.27,3.27,0,0,0,.13,1,1.24,1.24,0,0,0,.37.61,1.25,1.25,0,0,0,.61.3,3.56,3.56,0,0,0,.85.08c.31,0,.58,0,.84,0l.66-.09V142a12.21,12.21,0,0,1-1.38.32,9.65,9.65,0,0,1-1.7.14,7.86,7.86,0,0,1-2.26-.31,4.37,4.37,0,0,1-1.72-1,4.52,4.52,0,0,1-1.1-1.74,7.69,7.69,0,0,1-.39-2.6V126.81h-2.78v-3.73h2.78v-4.69Z" transform="translate(-37.04 -37.42)" style="fill:#00aeef"/></svg>