<?xml version="1.0" encoding="utf-8"?>
<!-- Generator: Adobe Illustrator 23.1.0, SVG Export Plug-In . SVG Version: 6.00 Build 0)  -->
<svg version="1.1" id="Layer_1" xmlns="http://www.w3.org/2000/svg" xmlns:xlink="http://www.w3.org/1999/xlink" x="0px" y="0px"
	 viewBox="0 0 1920 1080" style="enable-background:new 0 0 1920 1080;" xml:space="preserve">
<style type="text/css">
	.st0{fill:#00615A;}
	.st1{fill:#00AA93;}
</style>
<g>
	<g>
		<path class="st0" d="M1008.22,742.8l-0.91,0.01c-44.81,0.23-85.7,26.64-106.69,68.9c-22.15,44.6-17.51,95.03,12.42,134.93
			c23.39,31.19,56.64,48.37,93.63,48.37c31.97,0,62.47-12.89,86.06-36.47c4.78-4.38,7.48-10.23,7.62-16.48
			c0.15-6.72-2.63-13.27-7.9-18.55c-4.24-4.44-10.43-6.99-17-6.99c-6.41,0-12.62,2.42-16.87,6.47
			c-13.32,13.84-29.99,21.17-51.09,22.42c-0.83,0.03-1.64,0.05-2.47,0.05c-29.34,0-55.74-19.68-65.7-48.96l-2.63-7.73h170.03
			c14.14,0,20.62-6.13,21.67-20.29c1.22-33.18-10.87-64.7-34.06-88.76C1071.39,755.91,1040.81,742.8,1008.22,742.8z M938.77,839.08
			l4.65-8.62c12.8-23.76,37.27-38.52,63.87-38.52c26.2,0,51.27,15.12,63.87,38.52l4.63,8.61H938.77z"/>
		<path class="st0" d="M1268.72,742.8l-0.91,0.01c-44.81,0.23-85.69,26.63-106.68,68.9c-22.15,44.59-17.51,95.03,12.41,134.93
			c23.39,31.19,56.64,48.37,93.63,48.37c31.98,0,62.47-12.89,86.06-36.47c4.78-4.38,7.48-10.23,7.61-16.48
			c0.15-6.72-2.62-13.27-7.89-18.55c-4.24-4.44-10.43-6.99-17-6.99c-6.41,0-12.63,2.42-16.88,6.47
			c-13.32,13.84-29.98,21.17-51.09,22.42c-0.83,0.03-1.64,0.05-2.47,0.05c-29.34,0-55.73-19.68-65.69-48.97l-2.62-7.72h170.02
			c14.13,0,20.62-6.13,21.67-20.29c1.22-33.17-10.87-64.69-34.05-88.75C1331.92,755.91,1301.33,742.8,1268.72,742.8z M1199.3,839.08
			l4.63-8.61c12.8-23.76,37.26-38.52,63.86-38.52c26.2,0,51.27,15.12,63.87,38.52l4.63,8.61H1199.3z"/>
		<path class="st0" d="M1634.85,636.4c-14.57,0-26.43,11.62-26.43,25.89v103.48l-8.87-5.37c-19.67-11.91-42.4-18.2-65.74-18.2
			c-69.41,0-125.87,56.94-125.87,126.93c0,69.4,56.46,125.87,125.87,125.87c69.99,0,126.93-56.46,126.93-125.87V662.29
			C1660.74,648.02,1649.12,636.4,1634.85,636.4z M1533.81,943.21c-40.85,0-74.08-33.23-74.08-74.08c0-41.14,33.23-74.61,74.08-74.61
			c41.14,0,74.61,33.47,74.61,74.61C1608.42,909.98,1574.95,943.21,1533.81,943.21z"/>
		<path class="st0" d="M486.18,742.2c-14.28,0-25.9,11.62-25.9,25.89V868.6c0,2.54-0.13,5.09-0.39,7.56
			c-0.51,4.89-1.52,9.76-3.01,14.49c-1.45,4.59-3.37,9.08-5.71,13.35c-13.25,24.18-38.36,39.21-65.51,39.21
			c-27.15,0-52.25-15.02-65.5-39.21c-5.95-10.87-9.1-23.11-9.1-35.4V768.09c0-14.28-11.62-25.89-25.9-25.89
			c-14.28,0-25.89,11.62-25.89,25.89V868.6c0,46.36,25.34,88.94,65.94,111.01l0.5,0.25l0.09,0.07c2.89,1.55,6.1,3.09,9.8,4.7
			l2.12,0.87c3.15,1.29,6.29,2.44,9.39,3.44l1.42,0.47c3.64,1.12,7.4,2.09,11.21,2.89l1.73,0.31c3.1,0.59,6.34,1.09,9.69,1.47
			c0.96,0.11,1.91,0.22,2.89,0.31c4.3,0.39,8.1,0.59,11.62,0.59h0.02c3.5-0.01,7.29-0.2,11.62-0.59c0.99-0.09,1.96-0.2,2.95-0.31
			c3.29-0.38,6.53-0.87,9.6-1.46l1.75-0.32c3.82-0.8,7.59-1.78,11.23-2.89l1.42-0.47c3.09-0.99,6.24-2.15,9.9-3.65l1.6-0.66
			c3.62-1.58,6.79-3.09,9.78-4.7l0.4-0.22c40.79-22.18,66.14-64.76,66.14-111.12V768.09C512.06,753.81,500.45,742.2,486.18,742.2z"
			/>
		<path class="st0" d="M872.91,869.95c-0.02-0.67-0.04-1.19-0.04-1.34l-0.04-101.82c-0.59-11.58-8.78-21.11-19.68-23.78
			c-1.96-0.48-3.98-0.81-6.08-0.81c-14.28,0-25.9,11.61-25.9,25.89v64.13v0v8.02c0.03,0.03,0.05,0.07,0.08,0.11c0,0,0,0,0,0
			c0.07,11.26,0.05,31.64-0.81,44.08c-0.13,1.91-0.28,3.61-0.46,5.08c-0.08,0.7-0.17,1.33-0.27,1.91c-0.16,1.02-0.44,1.98-0.65,2.98
			c-0.37,1.76-0.79,3.49-1.32,5.18c-0.11,0.36-0.25,0.7-0.37,1.06c-0.57,1.72-1.2,3.41-1.93,5.05c-0.13,0.28-0.28,0.55-0.41,0.84
			c-0.78,1.67-1.61,3.31-2.54,4.88c-0.13,0.22-0.28,0.42-0.41,0.64c-0.98,1.6-2.01,3.15-3.14,4.63c-0.13,0.17-0.28,0.32-0.41,0.49
			c-1.16,1.49-2.38,2.94-3.69,4.29c-0.14,0.15-0.3,0.27-0.44,0.41c-1.32,1.35-2.7,2.64-4.16,3.84c-0.21,0.17-0.44,0.31-0.65,0.48
			c-1.42,1.13-2.87,2.22-4.4,3.2c-1.76,1.13-3.58,2.16-5.46,3.07c-0.02,0.01-0.04,0.02-0.06,0.03c-1.33,0.64-2.68,1.23-4.06,1.75
			c-0.12,0.05-0.24,0.08-0.37,0.13c-1.3,0.49-2.62,0.93-3.97,1.31c-5.25,1.11-9.6,1.13-13.55,0.44c-1.11-0.19-2.17-0.47-3.22-0.78
			c-0.33-0.1-0.68-0.15-1.01-0.26c-0.18-0.06-0.36-0.1-0.53-0.16c-0.62-0.21-1.23-0.47-1.84-0.7c-0.71-0.27-1.43-0.52-2.12-0.82
			c-0.06-0.03-0.12-0.06-0.19-0.09c-13.78-6.05-24.56-17.95-29.48-32.69c-2.29-8.12-2.58-16.6-2.58-16.6v-7.83v-33.34v-29.94v-10.51
			v-3.16v-30.86c0-5.95-2.1-11.36-5.47-15.73c-4.74-6.14-12.09-10.16-20.41-10.16c-0.01,0-0.02,0-0.03,0c-0.25,0-0.5,0.04-0.75,0.05
			c-0.01,0-0.02,0-0.03,0c-0.01,0-0.02,0-0.03,0c-0.25-0.01-0.5-0.04-0.75-0.05c-0.01,0-0.02,0-0.03,0
			c-8.33,0-15.67,4.03-20.41,10.16c-3.38,4.37-5.48,9.79-5.48,15.73v30.86v3.16v10.51v29.94v33.34v7.83c0,0-0.29,8.48-2.58,16.6
			c-4.92,14.74-15.7,26.64-29.48,32.69c-0.06,0.03-0.12,0.06-0.19,0.09c-0.69,0.3-1.41,0.55-2.12,0.82
			c-0.61,0.23-1.22,0.49-1.84,0.7c-0.17,0.06-0.35,0.1-0.53,0.16c-0.33,0.11-0.68,0.16-1.01,0.26c-1.05,0.31-2.11,0.59-3.22,0.78
			c-3.95,0.7-8.31,0.67-13.55-0.44c-1.35-0.38-2.66-0.82-3.97-1.31c-0.12-0.04-0.24-0.08-0.37-0.13c-1.38-0.53-2.73-1.11-4.06-1.75
			c-0.02-0.01-0.04-0.02-0.06-0.03c-1.89-0.91-3.71-1.95-5.46-3.07c-1.53-0.98-2.98-2.07-4.4-3.2c-0.21-0.17-0.44-0.31-0.65-0.48
			c-1.45-1.2-2.83-2.49-4.15-3.84c-0.14-0.14-0.3-0.27-0.44-0.41c-1.31-1.36-2.52-2.8-3.69-4.29c-0.13-0.17-0.28-0.32-0.41-0.49
			c-1.13-1.48-2.16-3.04-3.14-4.63c-0.13-0.22-0.28-0.42-0.41-0.64c-0.93-1.57-1.76-3.21-2.54-4.88c-0.13-0.28-0.28-0.55-0.41-0.84
			c-0.73-1.64-1.36-3.33-1.93-5.05c-0.12-0.35-0.26-0.7-0.37-1.06c-0.53-1.69-0.95-3.43-1.32-5.18c-0.21-1-0.49-1.97-0.65-2.98
			c-0.1-0.58-0.19-1.21-0.27-1.91c-0.18-1.47-0.33-3.18-0.46-5.08c-0.86-12.44-0.88-32.81-0.81-44.08c0,0,0,0,0,0
			c0.03-0.03,0.05-0.07,0.08-0.11v-8.02v0v-64.13c0-14.28-11.62-25.89-25.9-25.89c-2.11,0-4.13,0.33-6.09,0.81
			c-10.89,2.66-19.09,12.2-19.68,23.78l-0.04,101.82c0,0.15-0.02,0.67-0.04,1.34c0.08,6.53,0.65,12.98,1.71,19.3l-0.07-0.03
			c0,0,2.28,46.79,38.17,75.3c7.34,5.83,16.82,12.27,27.23,16.01c11.46,4.64,20.62,6.27,29.69,6.21c6.14-0.19,11.88-0.85,17.19-1.76
			c0.49-0.08,1-0.15,1.48-0.24c37.23-5.44,54.4-28.56,57.02-32.44l0.15,0.65l0.03-0.13l0.03,0.13l0.21-0.93l0.21,0.93l0.03-0.13
			l0.03,0.13l0.15-0.65c2.63,3.88,19.79,27,57.02,32.44c0.48,0.09,1,0.15,1.48,0.24c5.31,0.91,11.05,1.57,17.19,1.76
			c9.07,0.06,18.23-1.56,29.69-6.21c10.41-3.74,19.89-10.19,27.23-16.01c35.9-28.51,38.17-75.3,38.17-75.3l-0.06,0.03
			C872.25,882.92,872.83,876.47,872.91,869.95z"/>
	</g>
	<path class="st1" d="M977.7,303.41c1.73-6.57,14.23-33.23,14.23-33.23s-7.18,2.5-9.62,2.9c2.47-7.31,5.15-15.27,8.18-24.22
		l-8.02,0.33c3.01-9.14,5.9-17.92,9.22-28.04c-5.14-0.16-8.24-0.25-11.43-0.34c1.82-8.79,3.62-17.5,5.64-27.23
		c-4.38,1.14-7.35,1.92-10.36,2.71c1.99-7.07,3.99-13.66,5.65-20.35c0.45-2.07,1.71-7.43,1.71-7.43s-0.69,0.16-1.89,0.66
		c-3.53,1.26-6.72,2.4-10.34,3.69c1.44-9.89,2.83-19.39,4.28-29.34l-8.21,0.34c0.77-5.57,1.75-11.43,2.47-16.71
		c-2.2,0.69-8.03,4.24-8.03,4.24s-2.15-23.32-6.14-32.48l-1.8,2.29L948.24,85l-5.68,15.93l-2.13-2.02
		c-3.99,9.17-6.14,32.48-6.14,32.48s-5.82-3.55-8.03-4.24c0.73,5.28,1.71,11.14,2.47,16.71l-8.21-0.34
		c1.45,9.94,2.84,19.45,4.28,29.34c-3.62-1.29-6.81-2.43-10.34-3.69c-1.2-0.5-1.89-0.66-1.89-0.66s1.27,5.36,1.71,7.43
		c1.65,6.69,3.65,13.28,5.65,20.35c-3-0.79-5.98-1.56-10.35-2.71c2.01,9.73,3.82,18.44,5.64,27.23c-3.2,0.09-6.29,0.19-11.43,0.34
		c3.33,10.12,6.22,18.9,9.22,28.04l-8.02-0.33c3.02,8.96,5.71,16.91,8.18,24.22c-2.44-0.4-9.62-2.9-9.62-2.9s12.5,26.66,14.23,33.23
		c-1.88,0.18-6.56,0.06-8.74,0.15c4.49,13.51,7.93,23.41,12.59,37.38l-8.31-1.83l7.15,15.25l7.8,15.03l-5.65-2.36
		c0,0,7.29,12.53,7.89,14.44c0.51,1.62,11.61,21.53,14.78,27.81l1.11,2.46l1.29,2.84l1.32-2.8l0.02-0.03l1.16-2.46
		c3.17-6.28,14.27-26.19,14.78-27.81c0.61-1.91,7.89-14.44,7.89-14.44l-5.65,2.36l7.8-15.03l7.15-15.25l-8.31,1.83
		c4.66-13.98,8.1-23.87,12.59-37.38C984.26,303.47,979.58,303.59,977.7,303.41"/>
	<path class="st1" d="M822.3,372.8c-3.97-4.96-17.11-29.52-17.11-29.52s-2.01,7.19-3.03,9.39c-4.12-5.95-8.6-12.43-13.65-19.72
		l-4.08,6.71c-5.19-7.38-10.18-14.47-15.93-22.64c-2.89,4.1-4.63,6.57-6.42,9.12c-5.58-6.23-11.09-12.39-17.27-19.28
		c-1.51,4.18-2.53,7.02-3.57,9.89c-4.2-5.44-8.04-10.62-12.13-15.58c-1.3-1.48-4.62-5.41-4.62-5.41s-0.25,0.65-0.53,1.9
		c-0.97,3.55-1.84,6.77-2.83,10.41c-6.59-6.51-12.94-12.77-19.57-19.31l-4.17,6.87c-3.74-3.63-7.58-7.59-11.13-11.03
		c-0.67,2.17-1.17,8.82-1.17,8.82s-18.55-10.83-27.54-12.53l0.74,2.7l-14.78-4.66l8.81,13.22l-2.66,0.64
		c4.68,8.2,20.91,22.53,20.91,22.53s-5.79,2.82-7.5,4.24c4.33,2.26,9.23,4.62,13.8,7l-4.69,6.5c8.2,4.18,16.03,8.19,24.19,12.34
		c-2.91,2.25-5.49,4.23-8.33,6.43c-1.03,0.71-1.52,1.18-1.52,1.18s4.68,1.86,6.47,2.61c5.88,2.26,11.88,4.19,18.22,6.39
		c-2.21,2.02-4.39,4.02-7.61,6.97c8.35,3.61,15.81,6.84,23.35,10.1c-1.65,2.65-3.25,5.22-5.91,9.49c9.34,2.75,17.45,5.13,25.89,7.62
		l-4.57,6.35c8.31,2.37,15.7,4.48,22.48,6.41c-1.61,1.77-7.35,6.27-7.35,6.27s26.62,4.21,32.46,6.35c-0.88,1.63-3.5,5.37-4.61,7.19
		c12.5,3.63,21.74,6.17,34.67,9.92l-5.85,5.78l15.23,2.41l15.42,1.76l-4.81,3.32c0,0,13.28,0.83,15.03,1.37
		c1.48,0.46,22.32,2.16,28.71,2.97l2.43,0.42l2.81,0.48l-1.38-2.58l-0.02-0.03l-1.21-2.27c-2.97-5.97-11.83-25.75-12.76-27.04
		c-1.1-1.53-6.51-14.22-6.51-14.22l-1.28,5.87l-7-14.46l-7.52-14.05l-3.12,7.76c-7.91-11.33-13.43-19.48-21.08-30.42
		C825.88,367.49,823.44,371.36,822.3,372.8"/>
	<path class="st1" d="M844.47,620.73c-2.9,1.54-16.44,5.73-16.44,5.73s3.25,1.89,4.19,2.68c-3.4,1.51-7.1,3.16-11.26,5.01l2.76,2.93
		c-4.23,1.92-8.28,3.77-12.96,5.89c1.64,2,2.62,3.21,3.64,4.45c-3.71,2.26-7.38,4.49-11.49,6.98c1.85,1.28,3.1,2.15,4.36,3.02
		c-3.16,1.61-6.15,3.06-9.06,4.68c-0.88,0.52-3.19,1.84-3.19,1.84s0.28,0.21,0.86,0.49c1.61,0.92,3.06,1.75,4.7,2.69
		c-3.97,2.76-7.79,5.42-11.79,8.2l2.82,3c-2.23,1.58-4.62,3.16-6.73,4.66c0.97,0.6,4.14,1.62,4.14,1.62s-7.54,8.63-9.48,13.21
		l1.4-0.08l-4.08,7.32l7.51-3.18l-0.02,1.49c4.56-1.56,13.52-8.55,13.52-8.55s0.66,3.4,1.14,4.46c1.63-2.04,3.38-4.38,5.1-6.53
		l2.58,3.23c3.04-3.88,5.95-7.59,8.98-11.45c0.73,1.8,1.38,3.4,2.1,5.16c0.22,0.63,0.39,0.94,0.39,0.94s1.48-2.28,2.07-3.14
		c1.82-2.87,3.5-5.83,5.35-8.96c0.71,1.4,1.41,2.79,2.45,4.84c2.78-4.02,5.27-7.62,7.78-11.26c1.08,1.18,2.14,2.32,3.88,4.22
		c2.49-4.65,4.65-8.69,6.89-12.89l2.52,3.15c2.18-4.15,4.11-7.83,5.88-11.22c0.66,1.06,2.14,4.62,2.14,4.62s5.33-13.67,7.08-16.53
		c0.68,0.65,2.18,2.47,2.93,3.27c3.3-6.23,5.68-10.85,9.09-17.3l2.08,3.77l3.05-7.82l2.75-7.99l1.02,2.93c0,0,2.04-6.96,2.52-7.83
		c0.4-0.74,3.8-11.61,4.98-14.92l0.5-1.24l0.58-1.44l-1.42,0.44l-0.02,0.01l-1.25,0.38c-3.26,0.9-13.96,3.36-14.7,3.71
		c-0.88,0.41-7.71,1.84-7.71,1.84l2.69,1.35l-7.88,2.07l-7.75,2.4l3.38,2.54c-6.48,2.92-11.11,4.92-17.37,7.74
		C842.33,618.22,843.91,619.95,844.47,620.73"/>
	<path class="st1" d="M1139.85,495.05c-9.42,4.02-16.31,7.07-26.05,11.24l0.95-6.42l-10.54,6.12l-10.36,6.6l1.44-4.41
		c0,0-8.6,6.1-9.94,6.65c-1.13,0.46-14.82,9.79-19.15,12.48l-1.7,0.99l-0.02,0.01l-1.94,1.13l2.07,0.86l1.8,0.74
		c4.6,2.14,19.24,9.74,20.42,10.06c1.39,0.38,10.61,5.39,10.61,5.39l-1.92-4.2l11.02,5.29l11.16,4.78l-1.66-6.26
		c10.14,2.94,17.33,5.13,27.13,7.97c-0.03-1.67-0.32-5.23-0.27-6.67c4.75,1.03,24.25,9.4,24.25,9.4s-2.08-5.37-2.47-7.21
		c5.3,1.56,11.08,3.26,17.58,5.18l-0.58-6.1c6.63,1.89,13,3.71,20.34,5.81c-0.11-3.93-0.18-6.29-0.25-8.73c6.34,1,12.6,2,19.61,3.11
		c-1-3.29-1.69-5.52-2.37-7.78c5.11,1.21,9.89,2.45,14.72,3.42c1.49,0.25,5.36,0.98,5.36,0.98s-0.14-0.52-0.55-1.41
		c-1.05-2.64-1.99-5.02-3.07-7.72c7.09,0.67,13.92,1.31,21.05,1.98l-0.6-6.25c4,0.34,8.2,0.83,11.99,1.16
		c-0.59-1.65-3.36-5.93-3.36-5.93s16.49-2.66,22.85-6.1l-1.53-1.54l11.09-5.03l-11.73-3.11l1.55-1.47
		c-6.69-2.64-23.37-3.26-23.37-3.26s2.28-4.59,2.67-6.31c-3.73,0.79-7.85,1.79-11.78,2.62l-0.11-6.28
		c-7.01,1.54-13.71,3.01-20.69,4.55c0.76-2.82,1.43-5.3,2.18-8.04c0.31-0.94,0.39-1.47,0.39-1.47s-3.76,1.2-5.21,1.63
		c-4.69,1.55-9.29,3.37-14.24,5.2c0.43-2.32,0.86-4.63,1.48-8.01c-6.84,1.96-12.95,3.71-19.13,5.49c-0.2-2.43-0.4-4.79-0.74-8.7
		c-7.06,2.98-13.18,5.57-19.55,8.26l-0.11-6.13c-6.24,2.7-11.79,5.09-16.88,7.29c0.18-1.88,1.64-7.46,1.64-7.46
		s-18.43,10.69-23.03,12.3C1140.12,500.29,1140,496.71,1139.85,495.05"/>
	<path class="st1" d="M755.57,495.05c9.42,4.02,16.31,7.07,26.05,11.24l-0.95-6.42l10.54,6.12l10.36,6.6l-1.44-4.41
		c0,0,8.6,6.1,9.94,6.65c1.13,0.46,14.82,9.79,19.15,12.48l1.7,0.99l0.02,0.01l1.94,1.13l-2.07,0.86l-1.8,0.74
		c-4.6,2.14-19.24,9.74-20.42,10.06c-1.39,0.38-10.61,5.39-10.61,5.39l1.92-4.2l-11.02,5.29l-11.16,4.78l1.66-6.26
		c-10.14,2.94-17.33,5.13-27.13,7.97c0.03-1.67,0.32-5.23,0.27-6.67c-4.75,1.03-24.25,9.4-24.25,9.4s2.08-5.37,2.47-7.21
		c-5.3,1.56-11.08,3.26-17.58,5.18l0.58-6.1c-6.63,1.89-13,3.71-20.34,5.81c0.11-3.93,0.18-6.29,0.25-8.73
		c-6.34,1-12.6,2-19.61,3.11c1-3.29,1.69-5.52,2.37-7.78c-5.11,1.21-9.89,2.45-14.72,3.42c-1.49,0.25-5.36,0.98-5.36,0.98
		s0.14-0.52,0.55-1.41c1.05-2.64,1.99-5.02,3.07-7.72c-7.09,0.67-13.92,1.31-21.05,1.98l0.6-6.25c-4,0.34-8.2,0.83-11.99,1.16
		c0.59-1.65,3.36-5.93,3.36-5.93s-16.49-2.66-22.85-6.1l1.53-1.54l-11.09-5.03l11.73-3.11l-1.55-1.47
		c6.69-2.64,23.37-3.26,23.37-3.26s-2.28-4.59-2.67-6.31c3.73,0.79,7.85,1.79,11.78,2.62l0.11-6.28c7.01,1.54,13.71,3.01,20.69,4.55
		c-0.76-2.82-1.43-5.3-2.18-8.04c-0.31-0.94-0.39-1.47-0.39-1.47s3.76,1.2,5.21,1.63c4.69,1.55,9.29,3.37,14.24,5.2
		c-0.43-2.32-0.86-4.63-1.48-8.01c6.84,1.96,12.95,3.71,19.13,5.49c0.2-2.43,0.4-4.79,0.74-8.7c7.06,2.98,13.18,5.57,19.55,8.26
		l0.11-6.13c6.24,2.7,11.79,5.09,16.88,7.29c-0.18-1.88-1.64-7.46-1.64-7.46s18.43,10.69,23.03,12.3
		C755.3,500.29,755.42,496.71,755.57,495.05"/>
	<path class="st1" d="M1049.02,619.7c-6.26-2.82-10.89-4.83-17.37-7.74l3.38-2.54l-7.75-2.4l-7.88-2.07l2.69-1.35
		c0,0-6.83-1.43-7.71-1.84c-0.74-0.35-11.44-2.81-14.7-3.71l-1.25-0.38l-0.02-0.01l-1.43-0.44l0.58,1.44l0.5,1.24
		c1.18,3.31,4.58,14.19,4.98,14.92c0.48,0.87,2.52,7.83,2.52,7.83l1.02-2.93l2.75,7.99l3.05,7.82l2.08-3.77
		c3.41,6.45,5.78,11.07,9.09,17.3c0.75-0.8,2.24-2.61,2.93-3.27c1.76,2.86,7.08,16.53,7.08,16.53s1.48-3.56,2.14-4.62
		c1.78,3.39,3.71,7.07,5.89,11.22l2.52-3.15c2.25,4.2,4.4,8.24,6.89,12.89c1.74-1.9,2.8-3.04,3.88-4.22c2.52,3.64,5,7.23,7.78,11.26
		c1.03-2.05,1.74-3.43,2.45-4.84c1.85,3.12,3.52,6.09,5.35,8.96c0.59,0.86,2.07,3.14,2.07,3.14s0.17-0.31,0.39-0.94
		c0.72-1.76,1.36-3.35,2.1-5.16c3.02,3.86,5.93,7.57,8.98,11.45l2.58-3.23c1.72,2.16,3.47,4.49,5.1,6.53
		c0.48-1.07,1.14-4.46,1.14-4.46s8.96,6.99,13.52,8.55l-0.02-1.49l7.51,3.18l-4.08-7.32l1.4,0.08c-1.93-4.58-9.48-13.21-9.48-13.21
		s3.17-1.02,4.14-1.63c-2.11-1.49-4.5-3.08-6.73-4.66l2.82-3c-4-2.78-7.82-5.44-11.79-8.2c1.65-0.94,3.1-1.77,4.7-2.69
		c0.58-0.29,0.86-0.49,0.86-0.49s-2.31-1.31-3.19-1.84c-2.91-1.61-5.9-3.06-9.06-4.67c1.27-0.88,2.52-1.74,4.36-3.02
		c-4.11-2.5-7.78-4.73-11.49-6.98c1.02-1.24,2-2.45,3.64-4.45c-4.68-2.13-8.73-3.97-12.96-5.89l2.76-2.93
		c-4.16-1.85-7.86-3.5-11.26-5.01c0.94-0.79,4.19-2.68,4.19-2.68s-13.55-4.19-16.44-5.73
		C1046.75,622.29,1048.33,620.56,1049.02,619.7"/>
	<path class="st1" d="M1064.07,365.76c-7.65,10.95-13.18,19.09-21.09,30.42l-3.12-7.76l-7.52,14.05l-7,14.46l-1.28-5.87
		c0,0-5.41,12.69-6.52,14.22c-0.93,1.29-9.79,21.07-12.76,27.04l-1.21,2.27l-0.02,0.03l-1.38,2.58l2.81-0.48l2.43-0.42
		c6.39-0.81,27.23-2.51,28.71-2.97c1.75-0.54,15.03-1.37,15.03-1.37l-4.81-3.32l15.42-1.76l15.23-2.41l-5.85-5.78
		c12.94-3.75,22.17-6.29,34.67-9.92c-1.11-1.82-3.73-5.56-4.61-7.19c5.84-2.14,32.46-6.35,32.46-6.35s-5.74-4.5-7.35-6.27
		c6.78-1.94,14.16-4.04,22.47-6.41l-4.57-6.35c8.44-2.49,16.55-4.87,25.89-7.62c-2.66-4.27-4.26-6.84-5.91-9.49
		c7.54-3.26,15-6.49,23.35-10.1c-3.22-2.95-5.4-4.95-7.61-6.97c6.35-2.19,12.35-4.12,18.22-6.38c1.79-0.75,6.47-2.61,6.47-2.61
		s-0.49-0.47-1.51-1.18c-2.84-2.19-5.41-4.18-8.33-6.43c8.15-4.16,15.99-8.16,24.19-12.34l-4.69-6.5c4.57-2.38,9.46-4.74,13.79-7
		c-1.71-1.42-7.49-4.24-7.49-4.24s16.23-14.33,20.91-22.53l-2.66-0.64l8.81-13.22l-14.78,4.66l0.74-2.7
		c-8.99,1.7-27.54,12.53-27.54,12.53s-0.49-6.65-1.17-8.82c-3.55,3.44-7.38,7.4-11.12,11.03l-4.17-6.87
		c-6.63,6.54-12.97,12.8-19.57,19.31c-0.99-3.64-1.86-6.85-2.83-10.41c-0.27-1.25-0.53-1.9-0.53-1.9s-3.31,3.92-4.62,5.41
		c-4.1,4.95-7.93,10.14-12.13,15.58c-1.03-2.87-2.06-5.71-3.56-9.89c-6.17,6.89-11.69,13.05-17.27,19.28
		c-1.8-2.55-3.53-5.02-6.42-9.12c-5.75,8.17-10.74,15.26-15.93,22.64l-4.08-6.71c-5.05,7.29-9.54,13.77-13.66,19.72
		c-1.02-2.2-3.03-9.39-3.03-9.39s-13.14,24.56-17.11,29.52C1067.74,371.36,1065.31,367.49,1064.07,365.76"/>
	<path class="st0" d="M1014.55,499.23h-38.87v-37.89c0-8.34-6.78-15.12-15.06-15.12l-28.16-0.21c-8.34,0-15.12,6.78-15.12,15.12
		l-0.01,39.07h-39.07c-8.34,0-15.12,6.78-15.12,15.12v29.56c0,8.34,6.78,15.12,15.12,15.12h38.95l0.02,8.62l0.02,4.38v7.14
		l0.02,9.65c0,0.15,0,0.3,0.01,0.44l0,9.97c0.16,8.39,7.1,15.22,15.47,15.22h27.2c8.55,0,15.5-6.96,15.5-15.51v-31.28l0.04-9.61
		h39.08c8.34,0,15.12-6.78,15.12-15.12v-29.56C1029.68,506.01,1022.89,499.23,1014.55,499.23z"/>
</g>
</svg>
