<?xml version="1.0" encoding="utf-8"?>
<!-- Generator: Adobe Illustrator 22.0.0, SVG Export Plug-In . SVG Version: 6.00 Build 0)  -->
<svg version="1.1" id="Layer_1" xmlns="http://www.w3.org/2000/svg" xmlns:xlink="http://www.w3.org/1999/xlink" x="0px" y="0px"
	 viewBox="0 0 100 100" style="enable-background:new 0 0 100 100;" xml:space="preserve">
<style type="text/css">
	.st0{fill:#202859;}
</style>
<g>
	<path class="st0" d="M50.8,14.8c-0.6,0-1.1-0.5-1.1-1.1V3c0-0.6,0.5-1.1,1.1-1.1c0.6,0,1.1,0.5,1.1,1.1v10.7
		C51.9,14.3,51.4,14.8,50.8,14.8z"/>
	<path class="st0" d="M67.1,18.8c-0.2,0-0.4-0.1-0.6-0.2c-0.3-0.2-0.4-0.4-0.5-0.7c-0.1-0.3,0-0.6,0.1-0.8L71.7,8
		c0.2-0.3,0.6-0.5,0.9-0.5c0.2,0,0.4,0.1,0.6,0.2c0.3,0.2,0.4,0.4,0.5,0.7c0.1,0.3,0,0.6-0.1,0.8l-5.5,9.1
		C67.9,18.6,67.5,18.8,67.1,18.8z"/>
	<path class="st0" d="M77.3,31.6c-0.4,0-0.8-0.2-1-0.6c-0.3-0.5-0.1-1.2,0.5-1.5l9.5-4.9c0.2-0.1,0.3-0.1,0.5-0.1
		c0.4,0,0.8,0.2,1,0.6c0.1,0.3,0.2,0.6,0.1,0.8c-0.1,0.3-0.3,0.5-0.5,0.6l-9.5,4.9C77.6,31.6,77.5,31.6,77.3,31.6z"/>
	<path class="st0" d="M80.3,46.2c-0.6,0-1.1-0.6-1-1.2c0-0.6,0.5-1,1.1-1l10.7,0.7c0.6,0,1.1,0.6,1,1.2c0,0.6-0.5,1-1.1,1L80.3,46.2
		z"/>
	<path class="st0" d="M84.2,68.3c-0.2,0-0.4-0.1-0.6-0.2L74.8,62c-0.5-0.3-0.6-1-0.3-1.5c0.2-0.3,0.5-0.5,0.9-0.5
		c0.2,0,0.4,0.1,0.6,0.2l8.8,6.1c0.2,0.2,0.4,0.4,0.5,0.7c0.1,0.3,0,0.6-0.2,0.8C84.9,68.1,84.6,68.3,84.2,68.3z"/>
	<path class="st0" d="M32.9,18.8c-0.4,0-0.7-0.2-0.9-0.5l-5.5-9.1c-0.2-0.3-0.2-0.6-0.1-0.8c0.1-0.3,0.3-0.5,0.5-0.7
		c0.2-0.1,0.4-0.2,0.6-0.2c0.4,0,0.7,0.2,0.9,0.5l5.5,9.1c0.2,0.3,0.2,0.6,0.1,0.8c-0.1,0.3-0.2,0.5-0.5,0.7
		C33.3,18.7,33.1,18.8,32.9,18.8z"/>
	<path class="st0" d="M22.7,31.6c-0.2,0-0.3,0-0.5-0.1l-9.5-4.9c-0.3-0.1-0.5-0.4-0.5-0.6c-0.1-0.3-0.1-0.6,0.1-0.8
		c0.2-0.4,0.6-0.6,1-0.6c0.2,0,0.4,0,0.5,0.1l9.5,4.9c0.5,0.3,0.8,1,0.5,1.5C23.5,31.4,23.1,31.6,22.7,31.6z"/>
	<path class="st0" d="M9,46.8c-0.6,0-1.1-0.5-1.1-1c0-0.3,0.1-0.6,0.3-0.8c0.2-0.2,0.5-0.4,0.8-0.4c0,0,10.6-0.7,10.7-0.7
		c0.7,0,1.1,0.5,1.2,1c0,0.6-0.4,1.1-1,1.2L9,46.8z"/>
	<path class="st0" d="M15.8,68.3c-0.4,0-0.7-0.2-0.9-0.5c-0.2-0.2-0.2-0.5-0.2-0.8c0.1-0.3,0.2-0.5,0.5-0.7l8.8-6.1
		c0.2-0.1,0.4-0.2,0.6-0.2c0.4,0,0.7,0.2,0.9,0.5c0.4,0.5,0.2,1.2-0.3,1.5l-8.8,6.1C16.2,68.3,16,68.3,15.8,68.3z"/>
</g>
</svg>
