<?xml version="1.0" encoding="utf-8"?>
<!-- Generator: Adobe Illustrator 22.0.0, SVG Export Plug-In . SVG Version: 6.00 Build 0)  -->
<svg version="1.1" id="Layer_1" xmlns="http://www.w3.org/2000/svg" xmlns:xlink="http://www.w3.org/1999/xlink" x="0px" y="0px"
	 viewBox="0 0 100 100" style="enable-background:new 0 0 100 100;" xml:space="preserve">
<style type="text/css">
	.st0{fill:#1FB7E1;}
	.st1{fill:#202859;}
</style>
<path class="st0" d="M26.8,89.1c10.9,10.8,33.7,12,38.9-0.1c5.2-12.1,0-32.6,12.6-37.1C90.9,47.4,89.9,32.8,66,34.6
	C42,36.3-3.3,59.3,26.8,89.1z"/>
<path class="st1" d="M41.3,85.4c-2,0-3.6-1.6-3.6-3.6c0-2,1.6-3.6,3.6-3.6h17.2c2,0,3.6,1.6,3.6,3.6c0,2-1.6,3.6-3.6,3.6H41.3z
	 M41.3,80.5c-0.7,0-1.2,0.5-1.2,1.2c0,0.7,0.5,1.2,1.2,1.2h17.2c0.7,0,1.2-0.5,1.2-1.2c0-0.7-0.5-1.2-1.2-1.2H41.3z"/>
<path class="st1" d="M49.9,97.7c-2.5,0-4.7-1.6-5.4-4c-3.2-0.6-5.6-3.4-5.6-6.7v-1.2h22V87c0,3.3-2.4,6.1-5.5,6.7
	C54.6,96.1,52.4,97.7,49.9,97.7z M41.5,88.2c0.5,1.8,2.1,3.1,4,3.2l1,0.1l0.1,1c0.2,1.6,1.6,2.8,3.3,2.8c1.6,0,3-1.2,3.3-2.8l0.1-1
	l1-0.1c1.9-0.1,3.5-1.4,4-3.2H41.5z"/>
<path class="st1" d="M37.9,77.7v-8.6c-2.2-3.7-4.7-7.3-7.3-10.6c-3.4-4.3-5.2-9.6-5.2-15.1c0-13.5,11-24.5,24.5-24.5
	c13.5,0,24.5,11,24.5,24.5c0,5.5-1.8,10.8-5.2,15.1c-2.4,3-5.1,7-7.4,10.9v8.4H37.9z M59.3,75.3v-6.7l0.2-0.3
	c2.4-4,5.3-8.2,7.8-11.4C70.3,53,72,48.3,72,43.3c0-12.2-9.9-22.1-22.1-22.1c-12.2,0-22.1,9.9-22.1,22.1c0,5,1.6,9.7,4.7,13.6
	c2.7,3.5,5.4,7.4,7.7,11.2l0.2,0.3v6.9H59.3z"/>
<rect x="42.8" y="50.2" transform="matrix(0.9769 -0.2137 0.2137 0.9769 -12.548 10.8938)" class="st1" width="2.6" height="26.5"/>
<rect x="42.1" y="62.5" transform="matrix(0.2096 -0.9778 0.9778 0.2096 -18.413 104.7198)" class="st1" width="27" height="2.4"/>
<rect x="45.5" y="91.4" class="st1" width="9.1" height="2.4"/>
<polygon class="st1" points="46.9,54.9 43.1,57.4 42,55.7 48.1,51.6 48.9,54.8 51.5,48.6 53.9,55.5 57.7,53.7 58.5,55.6 52.7,58.2 
	51.3,54.2 48.5,61.1 "/>
</svg>
