<?xml version="1.0" encoding="utf-8"?>
<!-- Generator: Adobe Illustrator 22.0.0, SVG Export Plug-In . SVG Version: 6.00 Build 0)  -->
<svg version="1.1" id="Layer_1" xmlns="http://www.w3.org/2000/svg" xmlns:xlink="http://www.w3.org/1999/xlink" x="0px" y="0px"
	 viewBox="0 0 500 318.5" style="enable-background:new 0 0 500 318.5;" xml:space="preserve">
<style type="text/css">
	.st0{fill:#C16E00;}
	.st1{fill:#E59D1F;}
	.st2{fill:#FFDC4A;}
	.st3{fill:#D88000;}
	.st4{fill:#F7C15A;}
	.st5{fill:#263866;}
	.st6{fill:#334A88;}
	.st7{fill:#8FA5CC;}
	.st8{fill:#FFFFFF;}
	.st9{fill:#C7DCEF;}
	.st10{fill:#74A8D7;}
	.st11{fill:#F3EFE8;}
	.st12{opacity:0.57;}
	.st13{fill:#A9A194;}
	.st14{opacity:0.66;}
	.st15{fill:#071835;}
	.st16{fill:#E1D7C5;}
	.st17{fill:#F9F7F3;}
	.st18{fill:#3D5072;}
	.st19{fill:#ECEEF4;}
	.st20{fill:#F9F9FB;}
	.st21{opacity:0.54;}
	.st22{fill:#CBCDD3;}
	.st23{fill:#5E70A1;}
	.st24{fill:#475C94;}
	.st25{fill:#EDE7DC;}
	.st26{fill:#FFFFFF;fill-opacity:0;}
	.st27{opacity:1.960000e-02;fill:#FBFBFD;enable-background:new    ;}
	.st28{opacity:3.920000e-02;fill:#F7F8FA;enable-background:new    ;}
	.st29{opacity:5.880000e-02;fill:#F3F4F8;enable-background:new    ;}
	.st30{opacity:7.840000e-02;fill:#EFF1F6;enable-background:new    ;}
	.st31{opacity:9.800000e-02;fill:#EBEDF3;enable-background:new    ;}
	.st32{opacity:0.1176;fill:#E7EAF1;enable-background:new    ;}
	.st33{opacity:0.1373;fill:#E3E6EF;enable-background:new    ;}
	.st34{opacity:0.1569;fill:#DFE3EC;enable-background:new    ;}
	.st35{opacity:0.1765;fill:#DBDFEA;enable-background:new    ;}
	.st36{opacity:0.1961;fill:#D7DCE8;enable-background:new    ;}
	.st37{opacity:0.2157;fill:#D3D8E5;enable-background:new    ;}
	.st38{opacity:0.2353;fill:#CFD4E3;enable-background:new    ;}
	.st39{opacity:0.2549;fill:#CBD1E1;enable-background:new    ;}
	.st40{opacity:0.2745;fill:#C7CDDE;enable-background:new    ;}
	.st41{opacity:0.2941;fill:#C3CADC;enable-background:new    ;}
	.st42{opacity:0.3137;fill:#BFC6DA;enable-background:new    ;}
	.st43{opacity:0.3333;fill:#BBC3D7;enable-background:new    ;}
	.st44{opacity:0.3529;fill:#B7BFD5;enable-background:new    ;}
	.st45{opacity:0.3725;fill:#B3BCD3;enable-background:new    ;}
	.st46{opacity:0.3922;fill:#AFB8D0;enable-background:new    ;}
	.st47{opacity:0.4118;fill:#ABB4CE;enable-background:new    ;}
	.st48{opacity:0.4314;fill:#A7B1CC;enable-background:new    ;}
	.st49{opacity:0.451;fill:#A3ADC9;enable-background:new    ;}
	.st50{opacity:0.4706;fill:#9FAAC7;enable-background:new    ;}
	.st51{opacity:0.4902;fill:#9BA6C5;enable-background:new    ;}
	.st52{opacity:0.5098;fill:#97A3C2;enable-background:new    ;}
	.st53{opacity:0.5294;fill:#939FC0;enable-background:new    ;}
	.st54{opacity:0.549;fill:#8F9CBE;enable-background:new    ;}
	.st55{opacity:0.5686;fill:#8B98BB;enable-background:new    ;}
	.st56{opacity:0.5882;fill:#8795B9;enable-background:new    ;}
	.st57{opacity:0.6078;fill:#8391B7;enable-background:new    ;}
	.st58{opacity:0.6275;fill:#7F8DB4;enable-background:new    ;}
	.st59{opacity:0.6471;fill:#7B8AB2;enable-background:new    ;}
	.st60{opacity:0.6667;fill:#7786B0;enable-background:new    ;}
	.st61{opacity:0.6863;fill:#7383AD;enable-background:new    ;}
	.st62{opacity:0.7059;fill:#6F7FAB;enable-background:new    ;}
	.st63{opacity:0.7255;fill:#6B7CA9;enable-background:new    ;}
	.st64{opacity:0.7451;fill:#6778A6;enable-background:new    ;}
	.st65{opacity:0.7647;fill:#6375A4;enable-background:new    ;}
	.st66{opacity:0.7843;fill:#5F71A2;enable-background:new    ;}
	.st67{opacity:0.8039;fill:#5B6D9F;enable-background:new    ;}
	.st68{opacity:0.8235;fill:#576A9D;enable-background:new    ;}
	.st69{opacity:0.8431;fill:#53669B;enable-background:new    ;}
	.st70{opacity:0.8627;fill:#4F6398;enable-background:new    ;}
	.st71{opacity:0.8824;fill:#4B5F96;enable-background:new    ;}
	.st72{opacity:0.902;fill:#475C94;enable-background:new    ;}
	.st73{opacity:0.9216;fill:#435891;enable-background:new    ;}
	.st74{opacity:0.9412;fill:#3F558F;enable-background:new    ;}
	.st75{opacity:0.9608;fill:#3B518D;enable-background:new    ;}
	.st76{opacity:0.9804;fill:#374E8A;enable-background:new    ;}
	.st77{fill:none;}
	.st78{fill:#54688C;}
</style>
<g>
	<rect x="365.5" y="31.9" class="st0" width="111.5" height="197.8"/>
	<rect x="373.5" y="40.7" class="st1" width="103.4" height="177.7"/>
	<rect x="373.5" y="142.8" class="st0" width="103.4" height="5.3"/>
	<rect x="373.5" y="131.8" class="st0" width="103.4" height="5.3"/>
	<rect x="373.5" y="120.8" class="st0" width="103.4" height="5.3"/>
	<rect x="373.5" y="109.9" class="st0" width="103.4" height="5.3"/>
	<rect x="373.5" y="98.9" class="st0" width="103.4" height="5.3"/>
	<rect x="373.5" y="87.9" class="st0" width="103.4" height="5.3"/>
	<rect x="373.5" y="77" class="st0" width="103.4" height="5.3"/>
	<rect x="373.5" y="66" class="st0" width="103.4" height="5.3"/>
	<rect x="373.5" y="55" class="st0" width="103.4" height="5.3"/>
	<rect x="373.5" y="44.1" class="st0" width="103.4" height="5.3"/>
	<rect x="373.5" y="147.5" class="st2" width="103.4" height="0.5"/>
	<rect x="373.5" y="136.6" class="st2" width="103.4" height="0.5"/>
	<rect x="373.5" y="125.6" class="st2" width="103.4" height="0.5"/>
	<rect x="373.5" y="114.6" class="st2" width="103.4" height="0.5"/>
	<rect x="373.5" y="103.7" class="st2" width="103.4" height="0.5"/>
	<rect x="373.5" y="92.7" class="st2" width="103.4" height="0.5"/>
	<rect x="373.5" y="81.7" class="st2" width="103.4" height="0.5"/>
	<rect x="373.5" y="70.8" class="st2" width="103.4" height="0.5"/>
	<rect x="373.5" y="59.8" class="st2" width="103.4" height="0.5"/>
	<rect x="373.5" y="48.8" class="st2" width="103.4" height="0.5"/>
	<rect x="355.8" y="218.1" class="st0" width="121" height="15.6"/>
	<rect x="355.8" y="218.1" class="st2" width="121" height="1.4"/>
	<polygon class="st3" points="373.5,202.3 373.5,218.1 476.8,218.1 476.8,175.1 471.5,175.1 471.5,186.6 463.7,186.6 463.7,167.7 
		461.1,167.7 461.1,158.3 458.7,161.7 458.7,184.5 456,184.5 456,171.2 445.5,171.2 445.5,176.6 443.5,176.6 443.5,167.4 
		441.5,164.1 439.3,167.7 439.3,174.6 426.2,174.4 426.2,167.7 421,167.7 421,192.7 408,192.9 408.1,177.2 400.9,177.2 400.9,183.8 
		396.4,183.8 396.4,177.2 394.7,177.2 394.7,171.6 393.7,171.6 393.7,177.2 391.6,177.2 391.5,198.1 387.2,198.1 387.1,189.7 
		382.2,195 382.2,205.6 378.9,205.6 378.9,202.3 	"/>
</g>
<g id="XMLID_57_">
	<rect id="XMLID_62_" x="155.2" y="19.2" class="st3" width="106" height="71.6"/>
	<rect id="XMLID_61_" x="161.3" y="24.8" class="st4" width="93.8" height="60.4"/>
	<polygon id="XMLID_60_" class="st5" points="234.1,71.5 234.1,71.5 195.5,46 234.1,46 	"/>
	<polygon id="XMLID_58_" class="st5" points="181.7,42.3 181.7,42.3 220.3,67.8 181.7,67.8 	"/>
</g>
<g id="XMLID_53_">
	<g id="XMLID_55_">
		<path id="XMLID_56_" class="st3" d="M91.6,108.4h8.8c3.2,0,5.7-2.7,5.5-5.8L103,52.7H88.9l-2.8,49.8
			C85.9,105.7,88.4,108.4,91.6,108.4z"/>
	</g>
	<path id="XMLID_54_" class="st2" d="M99.6,102.6l-2.8-49.8h4.2l2.8,49.8c0.2,3.2-2.3,5.8-5.5,5.8h-4.2
		C97.2,108.4,99.7,105.7,99.6,102.6z"/>
</g>
<g id="XMLID_47_">
	<path id="XMLID_52_" class="st3" d="M115.6,43.1c0,0,0.3,0,0.7,0.2c0.2,0.1,0.5,0.2,0.8,0.3c0.3,0.1,0.6,0.3,1,0.5
		c0.3,0.2,0.7,0.5,1.2,0.8c0.4,0.3,0.8,0.7,1.2,1c0.8,0.8,1.7,1.7,2.4,2.8c0.8,1.1,1.4,2.3,2.1,3.6c0.5,1.3,1.2,2.7,1.6,4.2
		c0.4,1.5,1,3,1.2,4.6c0.3,1.6,0.7,3.2,0.8,4.8c0.2,1.6,0.5,3.2,0.5,4.8c0.1,1.6,0.2,3.2,0.3,4.7c0.1,1.5,0,3,0,4.4
		c0,1.4,0,2.7,0,3.9c-0.3,4.9-0.4,8.1-0.4,8.1l-4.2-0.3c0,0,0.4-3.2,1.1-8c0.1-1.2,0.2-2.5,0.3-3.9c0.1-1.4,0.3-2.8,0.3-4.3
		c0-1.5,0.1-3.1,0.1-4.6c0.1-1.6-0.1-3.2-0.1-4.8c0-1.6-0.3-3.2-0.4-4.8c-0.1-1.6-0.5-3.1-0.8-4.6c-0.3-1.5-0.8-2.9-1.3-4.2
		c-0.6-1.3-1-2.5-1.8-3.6c-0.6-1.1-1.4-2-2.1-2.8c-0.4-0.4-0.7-0.7-1.1-1.1c-0.4-0.3-0.8-0.6-1.1-0.8c-0.4-0.2-0.7-0.4-1-0.5
		c-0.3-0.1-0.6-0.2-0.8-0.3C115.8,43.1,115.6,43.1,115.6,43.1z"/>
	<path id="XMLID_51_" class="st3" d="M125.2,87.1c0,0-0.4-1.9-1.2-4.9c-0.8-2.9-1.9-6.8-3.2-10.7c-0.7-1.9-1.4-3.8-2.2-5.6
		c-0.4-0.9-0.8-1.7-1.2-2.5c-0.4-0.8-0.8-1.5-1.2-2.2c-0.5-0.7-0.8-1.3-1.2-1.8c-0.4-0.5-0.8-1-1.1-1.3c-0.8-0.6-1.2-1-1.2-1
		s0.5,0.3,1.3,0.9c0.4,0.3,0.8,0.7,1.3,1.2c0.5,0.5,0.9,1.1,1.5,1.7c0.5,0.6,1,1.4,1.5,2.1c0.5,0.8,1,1.6,1.5,2.5
		c1,1.7,2,3.6,2.9,5.5c3.7,7.5,6.5,15.4,6.5,15.4L125.2,87.1z"/>
	<path id="XMLID_50_" class="st3" d="M126.7,88.3c0,0,0.2-1.4,0.6-3.5c0.4-2.1,1.1-4.8,2.2-7.5c0.5-1.3,1.1-2.6,1.8-3.8
		c0.4-0.6,0.7-1.2,1.1-1.7c0.4-0.5,0.8-1,1.2-1.4c0.4-0.4,0.8-0.8,1.3-1c0.4-0.3,0.8-0.5,1.2-0.6c0.7-0.2,1.1-0.4,1.1-0.4
		s-0.4,0.2-1,0.5c-0.3,0.1-0.6,0.4-0.9,0.7c-0.4,0.3-0.6,0.7-0.9,1.1c-0.3,0.4-0.6,0.9-0.8,1.4c-0.3,0.5-0.4,1.1-0.7,1.7
		c-0.4,1.2-0.6,2.5-0.8,3.8c-0.4,2.6-0.4,5.3-0.3,7.3c0.1,2,0.2,3.3,0.2,3.3L126.7,88.3z"/>
	<path id="XMLID_49_" class="st3" d="M115.1,85.5l3.3,20c0.3,1.8,1.8,3.1,3.6,3.1h11c1.8,0,3.3-1.3,3.6-3.1l3.3-20H115.1z"/>
	<path class="st2" d="M139.1,85.5l-3.3,20c-0.3,1.8-1.8,3.1-3.6,3.1h0.8c1.8,0,3.3-1.3,3.6-3.1l3.3-20H139.1z"/>
	<path id="XMLID_48_" class="st3" d="M142.7,85.9h-30.4c-0.2,0-0.3-0.1-0.3-0.3v-5.1c0-0.2,0.1-0.3,0.3-0.3h30.4
		c0.2,0,0.3,0.1,0.3,0.3v5.1C143,85.7,142.8,85.9,142.7,85.9z"/>
	<path class="st2" d="M112.7,81.9c0-0.3,0.2-0.5,0.5-0.5H143v-0.7c0-0.3-0.2-0.5-0.5-0.5h-30c-0.3,0-0.5,0.2-0.5,0.5v4.7
		c0,0.3,0.2,0.5,0.5,0.5h0.1C112.7,85.9,112.7,81.9,112.7,81.9z"/>
</g>
<g id="XMLID_43_">
	<rect id="XMLID_46_" x="68.8" y="79.7" class="st3" width="2.7" height="7.9"/>
	<rect id="XMLID_45_" x="61" y="83.7" class="st3" width="18.2" height="24.4"/>
	<rect id="XMLID_44_" x="75.3" y="83.7" class="st2" width="2.5" height="24.4"/>
</g>
<g>
	<path class="st5" d="M49.7,115.4h129.1V108H47.6C48.4,110.5,49.1,112.9,49.7,115.4z"/>
	<path class="st6" d="M48.6,110.5h128.9l1.4-2.4H47.6c0,0,1.4,1.5,0.9,2.2C48.4,110.3,48.5,110.5,48.6,110.5z"/>
</g>
<g>
	<path id="XMLID_40_" class="st6" d="M88.2,154.4l1.8,0c0.4,0,0.6-0.3,0.6-0.6l0-2.2c0-0.4-0.3-0.6-0.6-0.6l-1.4,0
		c-0.2,0-0.4-0.1-0.5-0.4c0-0.1-0.1-0.3-0.2-0.4c-0.1-0.2-0.1-0.4,0.1-0.6l1-1c0.3-0.3,0.3-0.7,0-0.9l-1.6-1.6
		c-0.3-0.3-0.7-0.3-0.9,0l-1,1c-0.2,0.2-0.4,0.2-0.6,0.1c-0.1-0.1-0.3-0.1-0.4-0.2c-0.2-0.1-0.3-0.3-0.3-0.5v-1.4
		c0-0.4-0.3-0.6-0.6-0.6h-2.2c-0.4,0-0.6,0.3-0.6,0.6v1.4c0,0.2-0.1,0.4-0.4,0.5c-0.1,0.1-0.3,0.1-0.4,0.2c-0.2,0.1-0.4,0.1-0.6-0.1
		l-1-1c-0.3-0.3-0.7-0.3-0.9,0l-1.6,1.6c-0.3,0.3-0.3,0.7,0,0.9l1,1c0.2,0.2,0.2,0.4,0.1,0.6c-0.1,0.1-0.1,0.3-0.2,0.4
		c-0.1,0.2-0.3,0.3-0.5,0.3l-1.4,0c-0.4,0-0.6,0.3-0.6,0.6l0,2.2c0,0.4,0.3,0.6,0.6,0.6l1.4,0c0.2,0,0.4,0.1,0.5,0.4
		c0,0.1,0.1,0.3,0.2,0.4c0.1,0.2,0.1,0.4-0.1,0.6l-1,1c-0.3,0.3-0.3,0.7,0,0.9l1.6,1.6c0.3,0.3,0.7,0.3,0.9,0l1-1
		c0.2-0.2,0.4-0.2,0.6-0.1c0.1,0.1,0.3,0.1,0.4,0.2c0.2,0.1,0.3,0.3,0.3,0.5l0,1.4c0,0.4,0.3,0.6,0.6,0.6l2.2,0
		c0.4,0,0.6-0.3,0.6-0.6l0-1.4c0-0.2,0.1-0.4,0.4-0.5c0.1,0,0.3-0.1,0.4-0.2c0.2-0.1,0.5-0.1,0.6,0.1l1,1c0.3,0.3,0.7,0.3,0.9,0
		l1.6-1.6c0.3-0.3,0.3-0.7,0-0.9l-1-1c-0.2-0.2-0.2-0.4-0.1-0.6C88.1,154.8,88.2,154.4,88.2,154.4z M79.3,152.1
		c0.4-2,2.4-3.1,4.3-2.4c1.4,0.5,2.3,2.1,2,3.5c-0.4,2-2.4,3.1-4.3,2.4C79.9,155.1,79,153.6,79.3,152.1z"/>
</g>
<g>
	<path class="st5" d="M166.1,53.2h-15c-1.4,0-2.6-1.2-2.6-2.6v-15c0-1.4,1.2-2.6,2.6-2.6h15c1.4,0,2.6,1.2,2.6,2.6v15
		C168.7,52.1,167.5,53.2,166.1,53.2z"/>
	<path class="st7" d="M164.4,33h-11.7c-1.4,0-2.6,0.7-3.4,1.7c0.7-0.5,1.6-0.9,2.6-0.9h11.7c2.4,0,4.3,1.9,4.3,4.3v11.7
		c0,1-0.3,1.9-0.9,2.6c1-0.8,1.7-2,1.7-3.4V37.2C168.7,34.9,166.8,33,164.4,33z"/>
	<g>
		<path class="st8" d="M153.2,43.7L153.2,43.7l2.7,0.9v1.5l-4.4-1.8V43l4.4-1.8v1.5L153.2,43.7z"/>
		<path class="st8" d="M158.1,47h-1.7l2.5-7.9h1.7L158.1,47z"/>
		<path class="st8" d="M163.9,43.7L163.9,43.7l-2.7-0.9v-1.5l4.4,1.8v1.3l-4.4,1.8v-1.5L163.9,43.7z"/>
	</g>
</g>
<g id="XMLID_37_">
	<path id="XMLID_39_" class="st9" d="M337,44.9l-1.8-1.2c-0.2-0.2-0.6-0.2-0.8,0l-1.8,1.2c-0.2,0.1-0.5-0.1-0.5-0.3v-7.8h5.3v7.8
		C337.5,44.8,337.2,45,337,44.9z"/>
	<path id="XMLID_38_" class="st6" d="M340.3,40.4l-5.3-2.7c-0.1-0.1-0.2-0.1-0.3,0l-5.3,2.9c-0.3,0.1-0.6-0.1-0.5-0.4l0.9-5.9
		c0-0.1,0-0.2-0.1-0.3l-4.3-4.1c-0.2-0.2-0.1-0.6,0.2-0.6l5.9-0.9c0.1,0,0.2-0.1,0.3-0.2l2.6-5.4c0.1-0.3,0.5-0.3,0.6,0l2.7,5.3
		c0.1,0.1,0.2,0.2,0.3,0.2l5.9,0.8c0.3,0,0.4,0.4,0.2,0.6l-4.2,4.2c-0.1,0.1-0.1,0.2-0.1,0.3l1.1,5.9
		C340.9,40.3,340.6,40.6,340.3,40.4z"/>
	<g>
		<path class="st7" d="M344.1,29.6c0.2-0.2,0.1-0.6-0.2-0.6l-5.9-0.8c-0.1,0-0.2-0.1-0.3-0.2l-2.7-5.3c-0.1-0.3-0.5-0.3-0.6,0
			l-0.3,0.7c0.1,0,0.1,0.1,0.1,0.1l2.7,5.3c0.1,0.1,0.2,0.2,0.3,0.2l5.9,0.8c0.3,0,0.4,0.4,0.2,0.6l-4.2,4.2
			c-0.1,0.1-0.1,0.2-0.1,0.3l1,5.2l0.4,0.2c0.3,0.1,0.6-0.1,0.5-0.4l-1.1-5.9c0-0.1,0-0.2,0.1-0.3L344.1,29.6z"/>
	</g>
</g>
<g>
	<circle id="XMLID_36_" class="st10" cx="309.4" cy="224.6" r="10.6"/>
	<path class="st9" d="M309.4,214c-3.1,0-5.9,1.4-7.9,3.5c1.9-1.7,4.4-2.7,7.1-2.7c5.9,0,10.6,4.8,10.6,10.6c0,2.7-1,5.2-2.7,7.1
		c2.2-1.9,3.5-4.8,3.5-7.9C320,218.8,315.3,214,309.4,214z"/>
	<g id="XMLID_34_">
		<polygon id="XMLID_35_" class="st8" points="308,228.9 304.3,225.2 306.4,223.1 308,224.7 312.4,220.3 314.5,222.4 		"/>
	</g>
</g>
<g>
	<path class="st5" d="M176,180.3l-20.2-3.8l-23.5,2.7L102,223.4l0.4,33.5c28,16.2,65.5,18.7,99.1,16.1c1-0.1,2-0.2,3-0.2l0,0
		l16.5-37.2L204.5,202C198.9,190.7,188.3,182.7,176,180.3z"/>
	<path class="st11" d="M169,144.8c0.2-3.3-1.4-6.6-1.4-9.8c0-2.3,1.5-4.6,1.4-6.9c-0.3-5.3-2.5-10.2-4.6-15l-0.9,0.4
		c-5.2-5-13.2-6.5-20.1-4.6s-12.8,6.9-16.5,13.1c-5.3,8.8-8,13.5-4.3,23.1c1.3,3.5,3.4,7,5.9,10.1c1.6,8,5.4,28.9,4.4,42.2h23.5
		c0,0-1.3-15.1-0.1-25.1c1.4,0.4,2.6,0.4,3.5-0.3c1.3-1,2-2.5,3-3.9c2.4-3.5,5.9-6.5,6.7-10.6C169.9,154,168.8,148.2,169,144.8z"/>
	<g class="st12">
		<path class="st13" d="M156.1,172.1c-1.2,10,0.1,25.1,0.1,25.1h-7.4c3.6-5.6-2.1-20.3-0.9-30.3c1.4,0.4,2.9,2.9,3.8,2.2
			L156.1,172.1z"/>
	</g>
	<g class="st14">
		<path class="st13" d="M169,144.8c0.2-3.3-1.4-6.6-1.4-9.8c0-2.3,1.5-4.6,1.4-6.9c-0.3-5.3-2.5-10.2-4.6-15l-0.9,0.4
			c-4.1-4-10-5.7-15.8-5.3c4.6,0.4,9.1,2.1,12.5,5.3l-2.9,2.4c2.1,4.8,8.1,6.9,8.4,12.2c0.1,2.3-4.2,6.3-4.1,8.6
			c0,3.3,5.3,6.7,5.1,10c-0.2,3.4-3.3,7.2-0.7,10.6c2.6,3.4-4.3,7.1-6.7,10.6c-0.3,0.5-0.2,4.3,0.3,3.9c1.3-1,2-2.5,3-3.9
			c2.4-3.5,5.9-6.5,6.7-10.6C169.9,154,168.8,148.2,169,144.8z"/>
	</g>
	<path class="st15" d="M159.8,104.4c-0.3-0.2-0.7-0.4-1-0.6c-4.7-2.5-11.4-3.1-16.7-3c-5.7,0.1-11.4,1.7-16.4,4.5
		c-2.7,1.5-5.4,3.6-6.7,6.4c-1.3,2.7,0.1,5.1-0.7,7.8c-0.5,1.7-2.2,2.9-2.7,4.5c-0.5,1.6-0.1,4,0,5.7c0.2,4,1,7.9,2.1,11.7
		c2.3,7.6,6.5,14.6,12.1,20.2c0.2,0.2-0.5-2.4-0.6-2.6c-0.4-1.2-0.8-2.4-1-3.7c-0.6-3-0.7-6-0.5-9.1c0.1-1.3,0.3-2.7,1.1-3.7
		c0.7-1.1,2.1-1.9,3.4-1.5c0.9,0.2,1.6,1,2.3,1.5c1.6,1.2,3.5,1.5,5.4,1.2c0.4-0.1,0.8-0.1,1-0.4c0.5-0.4,0.5-1.2,0.5-1.9
		c-0.3-3.8-0.6-7.6-0.9-11.4c-0.3-3.2-2.7-10,3-9.6c2.9,0.2,5.3,1.5,8.1,2.1c2.2,0.5,4.5,0.7,6.7,1c6.5,1,16.6,0.2,19.9-6.7
		c1.3-2.6,1.2-5.8-0.2-8.3c-1.8,2.3-5.3,1.7-8,0.8c-1.9-0.6-3.7-1.2-5.5-2.2C162.9,106.5,161.4,105.4,159.8,104.4z"/>
	<g>
		<path class="st10" d="M178,108.8c-1.8,2.3-5.3,1.7-8,0.8c-1.9-0.6-3.7-1.2-5.5-2.2c-1.6-0.9-3.1-2.1-4.7-3c-0.3-0.2-0.7-0.4-1-0.6
			c-4.7-2.5-11.4-3.1-16.7-3c-5.7,0.1-11.4,1.7-16.4,4.5c-1.7,0.9-3.4,2.1-4.7,3.6c1.2-1.1,2.6-2,3.9-2.8c5-2.8,10.6-4.4,16.4-4.5
			c5.3-0.1,12,0.5,16.7,3c0.3,0.2,0.7,0.4,1,0.6c1.6,1,3.1,2.1,4.7,3c1.7,0.9,3.6,1.6,5.5,2.2c2.7,0.9,6.3,1.4,8-0.8
			c1.4,2.5,1.5,5.7,0.2,8.3c-0.4,0.8-0.9,1.6-1.5,2.2c0.9-0.8,1.7-1.8,2.3-3C179.5,114.5,179.4,111.3,178,108.8z"/>
	</g>
	<polygon class="st8" points="148.9,197.3 155.8,174.9 159.8,175.7 164.1,211.6 	"/>
	<path class="st11" d="M131.9,176.5l-21.5,4.1c-10.5,2-19.3,9.1-23.5,19l-24,57c-3.4,8.1,2.5,17,11.3,17l85.8-4.3l4-12.1l-9.4,3.2
		l-53.7-4.6c-4.4-0.4-6.7-5.4-4.1-9l35.9-49.6C132.8,197.3,139.2,179.5,131.9,176.5z"/>
	<g>
		<path class="st13" d="M160.1,265.2c-21,8.9-85.8,4.3-85.8,4.3c-6.3,0-11.1-4.6-12.1-10.2c-1.3,7.2,4.3,14.3,12.1,14.3l85.8-4.3
			l4-12.1l-1.5,0.5C162.6,257.7,161.9,264.5,160.1,265.2z"/>
	</g>
	<path class="st5" d="M131.9,176.5l-21.5,4.1c-10.5,2-19.3,9.1-23.5,19l-16.6,35.2c13-1.3,26.4,12.1,35.6,4.9l26.7-42.4
		C132.8,197.3,139.2,179.5,131.9,176.5z"/>
	<polygon class="st8" points="131.7,175.1 148.9,197.3 136.8,213.2 125.8,176.5 	"/>
	<path class="st15" d="M168.3,151.8c-0.9-3.3-3.1-0.4-6.8-0.8c-2.1-0.2-6.4-3-8.1-1.7c-0.7,0.6-1.3,1.3-1.8,2.1
		c-0.3,0.4-0.7,0.7-1.1,0.9c-1.2,0.6-2.7,0.3-3.7-0.6c-1-0.8-2.5-2.1-3-3.2c-0.9-1.8-0.7-3.5-0.9-5.3c-0.2-1.6-0.8-3.1-1-4.7
		c-0.6-3.6-1.2-7.2-1.8-10.8l-0.9,1.5c0.3-1-0.7-2.1-1.8-2c-1.1,0-1.9,0.9-2.3,1.9s-0.2,2.1,0,3.1c0.6,3.2,1.9,6.5,1.8,9.8
		c-0.1,2.8,0.9,7.7-0.2,10.3c-1.1,2.7-4.4,4.2-2.3,7.7c2,3.3,6.8,6.1,10.1,7.8c4.4,2.3,8.7,5.1,13.7,5.8c0.3,0,0.8,0,1.1,0
		c0.5,0,3.3-1.4,3.7-1.7c3.5-3.2,4.2-5.9,5.1-10C169.4,157,169.5,156.2,168.3,151.8z"/>
	<path class="st16" d="M152.5,156.8l5.5-1.6h4.8l3.9,1.6l-2,4.6c-0.5,1.2-1.8,2-3.1,2l0,0l-0.6-2l-1.9,0.2l-1,1.9h-0.8
		c-1.4,0-2.7-0.9-3.2-2.2L152.5,156.8z"/>
	<path class="st17" d="M155.6,158.5l9.6-0.2C165.2,158.3,159.5,163.9,155.6,158.5z"/>
	<path class="st18" d="M98.9,241.8c2.6,0.1,4.9-0.4,7.1-2.1l2.9-22.2L98.9,241.8z"/>
</g>
<g>
	<path class="st19" d="M152.6,274.4h-51.8c-0.4,0-0.7-0.3-0.7-0.7v-5.5c0-0.4,0.3-0.7,0.7-0.7h51.8V274.4z"/>
	<path class="st20" d="M239.2,274.4h-98.4c-3.2,0-5.3-3.2-4.2-6.1l23-59.5c0.7-1.7,2.3-2.9,4.2-2.9h98.4c3.2,0,5.3,3.2,4.2,6.1
		l-23,59.5C242.7,273.3,241,274.4,239.2,274.4z"/>
	<path class="st19" d="M208.2,240.2c0,3.7-3,6.7-6.7,6.7s-6.7-3-6.7-6.7s3-6.7,6.7-6.7S208.2,236.4,208.2,240.2z"/>
	<g class="st21">
		<path class="st19" d="M239.2,274.4c1.9,0,3.5-1.1,4.2-2.9l23-59.5c1.1-2.9-1-6.1-4.2-6.1h-24.9c-0.7,2.9-1.2,5.8-2,8.7
			c-1.9,7-5.7,13.5-10.9,18.6c-6.5,6.4-15,10.5-22.9,15.2c-7.9,4.7-15.7,10.4-19.7,18.6c-1.1,2.4-1.9,4.9-2.3,7.5L239.2,274.4
			L239.2,274.4L239.2,274.4z"/>
	</g>
</g>
<ellipse class="st22" cx="41.8" cy="273.8" rx="17.1" ry="1.3"/>
<g id="XMLID_26_">
	<g id="XMLID_32_">
		<path id="XMLID_33_" class="st6" d="M29.4,264.4c-4.2-2.7-6.7-7.4-6.7-12.4v-6.3c0-1.1,0.6-2.1,1.5-2.6s2.1-0.6,3,0l3.9,2.3
			l-1.7,3l-3.4-1.9v5.6c0,3.9,1.9,7.4,5.2,9.5L29.4,264.4z"/>
	</g>
	<path id="XMLID_31_" class="st6" d="M29.2,241.2l0,29.4c0.4,2.1,6.2,3.9,13.4,3.9s12.9-1.7,13.4-3.9l0-29.4H29.2z"/>
	<path id="XMLID_30_" class="st23" d="M45,274.4c3.1-0.2,5.8-0.7,7.8-1.4v-31.7H45V274.4z"/>
	<ellipse id="XMLID_29_" class="st24" cx="42.6" cy="241.2" rx="13.4" ry="4.1"/>
	<path id="XMLID_28_" class="st5" d="M55.3,241.1c0,2.1-5.7,3.8-12.7,3.8s-12.7-1.7-12.7-3.8c0-2.1,5.7-3.8,12.7-3.8
		S55.3,239,55.3,241.1z"/>
</g>
<g>
	<path id="XMLID_25_" class="st17" d="M336.4,196H229.7c-1.6,0-2.9-1.3-2.9-2.9V63.4c0-1.6,1.3-2.9,2.9-2.9h106.8
		c1.6,0,2.9,1.3,2.9,2.9v129.7C339.3,194.7,338,196,336.4,196z"/>
	<path id="XMLID_24_" class="st5" d="M339.3,74.8V64.4c0-2.2-1.7-3.9-3.9-3.9H230.7c-2.2,0-3.9,1.7-3.9,3.9v10.4H339.3z"/>
	<path id="XMLID_22_" class="st8" d="M236.5,67.7c0,0.7-0.5,1.2-1.2,1.2c-0.7,0-1.2-0.5-1.2-1.2c0-0.7,0.5-1.2,1.2-1.2
		S236.5,67,236.5,67.7z"/>
	<path id="XMLID_21_" class="st8" d="M242.1,67.7c0,0.7-0.5,1.2-1.2,1.2c-0.7,0-1.2-0.5-1.2-1.2c0-0.7,0.5-1.2,1.2-1.2
		S242.1,67,242.1,67.7z"/>
	<path id="XMLID_15_" class="st8" d="M247.6,67.7c0,0.7-0.6,1.2-1.2,1.2c-0.7,0-1.2-0.5-1.2-1.2c0-0.7,0.5-1.2,1.2-1.2
		C247,66.4,247.6,67,247.6,67.7z"/>
	<path class="st25" d="M259.2,140.5c0,5.5-4.5,10-10,10s-10-4.5-10-10c0-5.5,4.5-10,10-10C254.7,130.5,259.2,135,259.2,140.5z"/>
	<path class="st25" d="M259.2,167.9c0,5.5-4.5,10-10,10s-10-4.5-10-10c0-5.5,4.5-10,10-10C254.7,157.9,259.2,162.4,259.2,167.9z"/>
	<rect x="270.9" y="134" class="st25" width="55.8" height="2.1"/>
	<rect x="270.9" y="142.2" class="st25" width="30.8" height="2.1"/>
	<rect x="270.9" y="161.7" class="st25" width="55.8" height="2.1"/>
	<rect x="270.9" y="169.9" class="st25" width="30.8" height="2.1"/>
</g>
<g>
	<g>
		<path class="st26" d="M268.4,87.2h-41.6v49.7h41.6c3.2,0,5.8-2.6,5.8-5.8V93C274.1,89.8,271.6,87.2,268.4,87.2z"/>
		<path class="st27" d="M268.2,87.3h-41.4v49.5h41.4c3.2,0,5.8-2.6,5.8-5.8V93.1C274,89.9,271.4,87.3,268.2,87.3z"/>
		<path class="st28" d="M268.1,87.4h-41.3v49.2h41.3c3.2,0,5.7-2.6,5.7-5.7V93.1C273.8,90,271.2,87.4,268.1,87.4z"/>
		<path class="st29" d="M267.9,87.5h-41.1v49h41.1c3.1,0,5.7-2.6,5.7-5.7V93.2C273.6,90,271.1,87.5,267.9,87.5z"/>
		<path class="st30" d="M267.8,87.6h-41v48.8h41c3.1,0,5.7-2.5,5.7-5.7V93.3C273.4,90.1,270.9,87.6,267.8,87.6z"/>
		<path class="st31" d="M267.6,87.7h-40.8v48.6h40.8c3.1,0,5.6-2.5,5.6-5.6V93.3C273.3,90.2,270.7,87.7,267.6,87.7z"/>
		<path class="st32" d="M267.5,87.8h-40.7v48.3h40.7c3.1,0,5.6-2.5,5.6-5.6V93.4C273.1,90.3,270.6,87.8,267.5,87.8z"/>
		<path class="st33" d="M267.3,87.8h-40.5V136h40.5c3.1,0,5.6-2.5,5.6-5.6V93.4C272.9,90.3,270.4,87.8,267.3,87.8z"/>
		<path class="st34" d="M267.2,87.9h-40.4v47.9h40.4c3.1,0,5.5-2.5,5.5-5.6V93.5C272.7,90.4,270.3,87.9,267.2,87.9z"/>
		<path class="st35" d="M267,88h-40.2v47.7H267c3,0,5.5-2.5,5.5-5.5V93.6C272.6,90.5,270.1,88,267,88z"/>
		<path class="st36" d="M266.9,88.1h-40.1v47.4h40.1c3,0,5.5-2.5,5.5-5.5V93.6C272.4,90.6,269.9,88.1,266.9,88.1z"/>
		<path class="st37" d="M266.8,88.2h-40v47.2h40c3,0,5.5-2.5,5.5-5.5V93.7C272.2,90.7,269.8,88.2,266.8,88.2z"/>
		<path class="st38" d="M266.6,88.3h-39.8v47h39.8c3,0,5.4-2.4,5.4-5.5V93.8C272,90.7,269.6,88.3,266.6,88.3z"/>
		<path class="st39" d="M266.5,88.4h-39.7v46.8h39.7c3,0,5.4-2.4,5.4-5.4V93.8C271.9,90.8,269.4,88.4,266.5,88.4z"/>
		<path class="st40" d="M266.3,88.5h-39.5V135h39.5c3,0,5.4-2.4,5.4-5.4V93.9C271.7,90.9,269.3,88.5,266.3,88.5z"/>
		<path class="st41" d="M266.2,88.6h-39.4v46.3h39.4c3,0,5.3-2.4,5.3-5.4V93.9C271.5,91,269.1,88.6,266.2,88.6z"/>
		<path class="st42" d="M266,88.6h-39.2v46.1H266c2.9,0,5.3-2.4,5.3-5.4V94C271.3,91,269,88.6,266,88.6z"/>
		<path class="st43" d="M265.9,88.7h-39.1v45.9h39.1c2.9,0,5.3-2.4,5.3-5.3V94.1C271.2,91.1,268.8,88.7,265.9,88.7z"/>
		<path class="st44" d="M265.7,88.8h-38.9v45.7h38.9c2.9,0,5.3-2.4,5.3-5.3v-35C271,91.2,268.6,88.8,265.7,88.8z"/>
		<path class="st45" d="M265.6,88.9h-38.8v45.4h38.8c2.9,0,5.2-2.4,5.2-5.3V94.2C270.8,91.3,268.5,88.9,265.6,88.9z"/>
		<path class="st46" d="M265.4,89h-38.6v45.2h38.6c2.9,0,5.2-2.4,5.2-5.3V94.3C270.6,91.3,268.3,89,265.4,89z"/>
		<path class="st47" d="M265.3,89.1h-38.5v45h38.5c2.9,0,5.2-2.3,5.2-5.2V94.3C270.5,91.4,268.1,89.1,265.3,89.1z"/>
		<path class="st48" d="M265.1,89.2h-38.3v44.8h38.3c2.8,0,5.1-2.3,5.1-5.2V94.4C270.3,91.5,268,89.2,265.1,89.2z"/>
		<path class="st49" d="M265,89.3h-38.2v44.5H265c2.8,0,5.1-2.3,5.1-5.2V94.4C270.1,91.6,267.8,89.3,265,89.3z"/>
		<path class="st50" d="M264.8,89.3h-38v44.3h38c2.8,0,5.1-2.3,5.1-5.2v-34C269.9,91.7,267.7,89.3,264.8,89.3z"/>
		<path class="st51" d="M264.7,89.4h-37.9v44.1h37.9c2.8,0,5.1-2.3,5.1-5.1V94.6C269.8,91.7,267.5,89.4,264.7,89.4z"/>
		<path class="st52" d="M264.6,89.5h-37.8v43.9h37.8c2.8,0,5-2.3,5-5.1V94.6C269.6,91.8,267.3,89.5,264.6,89.5z"/>
		<path class="st53" d="M264.4,89.6h-37.6v43.6h37.6c2.8,0,5-2.3,5-5.1V94.7C269.4,91.9,267.2,89.6,264.4,89.6z"/>
		<path class="st54" d="M264.3,89.7h-37.5v43.4h37.5c2.7,0,5-2.3,5-5.1V94.8C269.2,92,267,89.7,264.3,89.7z"/>
		<path class="st55" d="M264.1,89.8h-37.3V133h37.3c2.7,0,4.9-2.3,4.9-5V94.8C269.1,92,266.8,89.8,264.1,89.8z"/>
		<path class="st56" d="M264,89.9h-37.2v43H264c2.7,0,4.9-2.2,4.9-5v-33C268.9,92.1,266.7,89.9,264,89.9z"/>
		<path class="st57" d="M263.8,90h-37v42.7h37c2.7,0,4.9-2.2,4.9-5V94.9C268.7,92.2,266.5,90,263.8,90z"/>
		<path class="st58" d="M263.7,90.1h-36.9v42.5h36.9c2.7,0,4.9-2.2,4.9-4.9V95C268.5,92.3,266.4,90.1,263.7,90.1z"/>
		<path class="st59" d="M263.5,90.2h-36.7v42.3h36.7c2.7,0,4.8-2.2,4.8-4.9V95.1C268.4,92.4,266.2,90.2,263.5,90.2z"/>
		<path class="st60" d="M263.4,90.2h-36.6v42.1h36.6c2.7,0,4.8-2.2,4.8-4.9V95.1C268.2,92.4,266,90.2,263.4,90.2z"/>
		<path class="st61" d="M263.2,90.3h-36.4v41.9h36.4c2.6,0,4.8-2.2,4.8-4.9V95.2C268,92.5,265.9,90.3,263.2,90.3z"/>
		<path class="st62" d="M263.1,90.4h-36.3V132h36.3c2.6,0,4.7-2.2,4.7-4.8V95.3C267.8,92.6,265.7,90.4,263.1,90.4z"/>
		<path class="st63" d="M262.9,90.5h-36.1v41.4h36.1c2.6,0,4.7-2.2,4.7-4.8V95.3C267.7,92.7,265.5,90.5,262.9,90.5z"/>
		<path class="st64" d="M262.8,90.6h-36v41.2h36c2.6,0,4.7-2.1,4.7-4.8V95.4C267.5,92.7,265.4,90.6,262.8,90.6z"/>
		<path class="st65" d="M262.6,90.7h-35.8v41h35.8c2.6,0,4.7-2.1,4.7-4.8V95.4C267.3,92.8,265.2,90.7,262.6,90.7z"/>
		<path class="st66" d="M262.5,90.8h-35.7v40.7h35.7c2.6,0,4.6-2.1,4.6-4.7V95.5C267.1,92.9,265.1,90.8,262.5,90.8z"/>
		<path class="st67" d="M262.4,90.9h-35.6v40.5h35.6c2.5,0,4.6-2.1,4.6-4.7V95.6C267,93,264.9,90.9,262.4,90.9z"/>
		<path class="st68" d="M262.2,90.9h-35.4v40.3h35.4c2.5,0,4.6-2.1,4.6-4.7V95.6C266.8,93,264.7,90.9,262.2,90.9z"/>
		<path class="st69" d="M262.1,91h-35.3v40.1h35.3c2.5,0,4.5-2.1,4.5-4.7V95.7C266.6,93.1,264.6,91,262.1,91z"/>
		<path class="st70" d="M261.9,91.1h-35.1V131h35.1c2.5,0,4.5-2.1,4.5-4.6V95.8C266.4,93.2,264.4,91.1,261.9,91.1z"/>
		<path class="st71" d="M261.8,91.2h-35v39.6h35c2.5,0,4.5-2.1,4.5-4.6V95.8C266.3,93.3,264.2,91.2,261.8,91.2z"/>
		<path class="st72" d="M261.6,91.3h-34.8v39.4h34.8c2.5,0,4.5-2.1,4.5-4.6V95.9C266.1,93.4,264.1,91.3,261.6,91.3z"/>
		<path class="st73" d="M261.5,91.4h-34.7v39.2h34.7c2.4,0,4.4-2,4.4-4.6V95.9C265.9,93.4,263.9,91.4,261.5,91.4z"/>
		<path class="st74" d="M261.3,91.5h-34.5v38.9h34.5c2.4,0,4.4-2,4.4-4.5V96C265.7,93.5,263.8,91.5,261.3,91.5z"/>
		<path class="st75" d="M261.2,91.6h-34.4v38.7h34.4c2.4,0,4.4-2,4.4-4.5V96.1C265.5,93.6,263.6,91.6,261.2,91.6z"/>
		<path class="st76" d="M261,91.7h-34.2v38.5H261c2.4,0,4.3-2,4.3-4.5V96.1C265.4,93.7,263.4,91.7,261,91.7z"/>
		<path class="st6" d="M260.9,91.7h-34.1V130h34.1c2.4,0,4.3-2,4.3-4.5V96.2C265.2,93.7,263.3,91.7,260.9,91.7z"/>
	</g>
	<g>
		<g>
			<path class="st17" d="M264.8,131.7h-76c-1.9,0-3.5-1.6-3.5-3.5V86.4c0-1.9,1.6-3.5,3.5-3.5h76c1.9,0,3.5,1.6,3.5,3.5v41.8
				C268.2,130.1,266.7,131.7,264.8,131.7z"/>
			<g>
				<path id="XMLID_11_" class="st6" d="M220.2,107.3c0,7.4-6,13.4-13.4,13.4c-7.4,0-13.4-6-13.4-13.4c0-7.4,6-13.4,13.4-13.4
					C214.2,93.9,220.2,99.9,220.2,107.3z"/>
				<path id="XMLID_2_" class="st8" d="M211.7,108.1l-8.6,5c-0.6,0.3-1.3-0.1-1.3-0.8v-10c0-0.7,0.7-1.1,1.3-0.8l8.6,5
					C212.3,106.9,212.3,107.8,211.7,108.1z"/>
			</g>
			<rect x="225.1" y="96.6" class="st25" width="36.8" height="3.3"/>
			<rect x="225.1" y="105.7" class="st25" width="36.8" height="3.3"/>
			<rect x="225.1" y="114.8" class="st10" width="18.4" height="3.3"/>
		</g>
	</g>
</g>
<g>
	<g>
		<path class="st26" d="M312.9,110.3h26.7v39.7h-26.7c-2.6,0-4.6-2.1-4.6-4.6v-30.5C308.3,112.4,310.4,110.3,312.9,110.3z"/>
		<path class="st27" d="M313,110.4h26.6v39.6H313c-2.5,0-4.6-2.1-4.6-4.6V115C308.4,112.4,310.5,110.4,313,110.4z"/>
		<path class="st28" d="M313.2,110.4h26.5v39.4h-26.5c-2.5,0-4.6-2.1-4.6-4.6V115C308.6,112.5,310.6,110.4,313.2,110.4z"/>
		<path class="st29" d="M313.3,110.5h26.4v39.2h-26.4c-2.5,0-4.6-2-4.6-4.6v-30.1C308.7,112.6,310.8,110.5,313.3,110.5z"/>
		<path class="st30" d="M313.4,110.6h26.2v39h-26.2c-2.5,0-4.5-2-4.5-4.5v-30C308.9,112.6,310.9,110.6,313.4,110.6z"/>
		<path class="st31" d="M313.5,110.7h26.1v38.9h-26.1c-2.5,0-4.5-2-4.5-4.5v-29.8C309,112.7,311,110.7,313.5,110.7z"/>
		<path class="st32" d="M313.6,110.7h26v38.7h-26c-2.5,0-4.5-2-4.5-4.5v-29.7C309.1,112.7,311.2,110.7,313.6,110.7z"/>
		<path class="st33" d="M313.7,110.8h25.9v38.5h-25.9c-2.5,0-4.5-2-4.5-4.5v-29.5C309.3,112.8,311.3,110.8,313.7,110.8z"/>
		<path class="st34" d="M313.9,110.9h25.8v38.3h-25.8c-2.5,0-4.4-2-4.4-4.5v-29.4C309.4,112.9,311.4,110.9,313.9,110.9z"/>
		<path class="st35" d="M314,110.9h25.7v38.1H314c-2.4,0-4.4-2-4.4-4.4v-29.3C309.6,112.9,311.5,110.9,314,110.9z"/>
		<path class="st36" d="M314.1,111h25.5v38h-25.5c-2.4,0-4.4-2-4.4-4.4v-29.1C309.7,113,311.7,111,314.1,111z"/>
		<path class="st37" d="M314.2,111.1h25.4v37.8h-25.4c-2.4,0-4.4-2-4.4-4.4v-29C309.8,113.1,311.8,111.1,314.2,111.1z"/>
		<path class="st38" d="M314.3,111.2h25.3v37.6h-25.3c-2.4,0-4.3-2-4.3-4.4v-28.9C310,113.1,311.9,111.2,314.3,111.2z"/>
		<path class="st39" d="M314.5,111.2h25.2v37.4h-25.2c-2.4,0-4.3-1.9-4.3-4.4v-28.7C310.1,113.2,312.1,111.2,314.5,111.2z"/>
		<path class="st40" d="M314.6,111.3h25.1v37.2h-25.1c-2.4,0-4.3-1.9-4.3-4.3v-28.6C310.3,113.2,312.2,111.3,314.6,111.3z"/>
		<path class="st41" d="M314.7,111.4h25v37.1h-25c-2.4,0-4.3-1.9-4.3-4.3v-28.4C310.4,113.3,312.3,111.4,314.7,111.4z"/>
		<path class="st42" d="M314.8,111.4h24.8v36.9h-24.8c-2.4,0-4.3-1.9-4.3-4.3v-28.3C310.5,113.4,312.5,111.4,314.8,111.4z"/>
		<path class="st43" d="M314.9,111.5h24.7v36.7h-24.7c-2.3,0-4.2-1.9-4.2-4.3v-28.2C310.7,113.4,312.6,111.5,314.9,111.5z"/>
		<path class="st44" d="M315,111.6h24.6v36.5H315c-2.3,0-4.2-1.9-4.2-4.2v-28C310.8,113.5,312.7,111.6,315,111.6z"/>
		<path class="st45" d="M315.2,111.7h24.5V148h-24.5c-2.3,0-4.2-1.9-4.2-4.2v-27.9C311,113.5,312.8,111.7,315.2,111.7z"/>
		<path class="st46" d="M315.3,111.7h24.4v36.2h-24.4c-2.3,0-4.2-1.9-4.2-4.2v-27.8C311.1,113.6,313,111.7,315.3,111.7z"/>
		<path class="st47" d="M315.4,111.8h24.2v36h-24.2c-2.3,0-4.1-1.9-4.1-4.2V116C311.2,113.7,313.1,111.8,315.4,111.8z"/>
		<path class="st48" d="M315.5,111.9h24.1v35.8h-24.1c-2.3,0-4.1-1.9-4.1-4.2V116C311.4,113.7,313.2,111.9,315.5,111.9z"/>
		<path class="st49" d="M315.6,111.9h24v35.6h-24c-2.3,0-4.1-1.9-4.1-4.1v-27.3C311.5,113.8,313.4,111.9,315.6,111.9z"/>
		<path class="st50" d="M315.7,112h23.9v35.5h-23.9c-2.2,0-4.1-1.8-4.1-4.1v-27.2C311.7,113.9,313.5,112,315.7,112z"/>
		<path class="st51" d="M315.9,112.1h23.8v35.3h-23.8c-2.2,0-4-1.8-4-4.1v-27.1C311.8,113.9,313.6,112.1,315.9,112.1z"/>
		<path class="st52" d="M316,112.2h23.7v35.1H316c-2.2,0-4-1.8-4-4.1v-26.9C312,114,313.8,112.2,316,112.2z"/>
		<path class="st53" d="M316.1,112.2h23.5v34.9h-23.5c-2.2,0-4-1.8-4-4.1v-26.8C312.1,114,313.9,112.2,316.1,112.2z"/>
		<path class="st54" d="M316.2,112.3h23.4V147h-23.4c-2.2,0-4-1.8-4-4v-26.7C312.2,114.1,314,112.3,316.2,112.3z"/>
		<path class="st55" d="M316.3,112.4h23.3v34.6h-23.3c-2.2,0-4-1.8-4-4v-26.5C312.4,114.2,314.1,112.4,316.3,112.4z"/>
		<path class="st56" d="M316.4,112.4h23.2v34.4h-23.2c-2.2,0-3.9-1.8-3.9-4v-26.4C312.5,114.2,314.3,112.4,316.4,112.4z"/>
		<path class="st57" d="M316.6,112.5h23.1v34.2h-23.1c-2.2,0-3.9-1.8-3.9-4v-26.2C312.7,114.3,314.4,112.5,316.6,112.5z"/>
		<path class="st58" d="M316.7,112.6h23v34h-23c-2.1,0-3.9-1.8-3.9-4v-26.1C312.8,114.4,314.5,112.6,316.7,112.6z"/>
		<path class="st59" d="M316.8,112.7h22.8v33.8h-22.8c-2.1,0-3.9-1.8-3.9-3.9v-26C312.9,114.4,314.7,112.7,316.8,112.7z"/>
		<path class="st60" d="M316.9,112.7h22.7v33.7h-22.7c-2.1,0-3.8-1.8-3.8-3.9v-25.8C313.1,114.5,314.8,112.7,316.9,112.7z"/>
		<path class="st61" d="M317,112.8h22.6v33.5H317c-2.1,0-3.8-1.7-3.8-3.9v-25.7C313.2,114.5,314.9,112.8,317,112.8z"/>
		<path class="st62" d="M317.2,112.9h22.5v33.3h-22.5c-2.1,0-3.8-1.7-3.8-3.9v-25.6C313.4,114.6,315.1,112.9,317.2,112.9z"/>
		<path class="st63" d="M317.3,112.9h22.4v33.1h-22.4c-2.1,0-3.8-1.7-3.8-3.9v-25.4C313.5,114.7,315.2,112.9,317.3,112.9z"/>
		<path class="st64" d="M317.4,113h22.3V146h-22.3c-2.1,0-3.8-1.7-3.8-3.8v-25.3C313.6,114.7,315.3,113,317.4,113z"/>
		<path class="st65" d="M317.5,113.1h22.1v32.8h-22.1c-2.1,0-3.7-1.7-3.7-3.8v-25.1C313.8,114.8,315.4,113.1,317.5,113.1z"/>
		<path class="st66" d="M317.6,113.1h22v32.6h-22c-2,0-3.7-1.7-3.7-3.8v-25C313.9,114.8,315.6,113.1,317.6,113.1z"/>
		<path class="st67" d="M317.7,113.2h21.9v32.4h-21.9c-2,0-3.7-1.7-3.7-3.8V117C314.1,114.9,315.7,113.2,317.7,113.2z"/>
		<path class="st68" d="M317.9,113.3h21.8v32.2h-21.8c-2,0-3.7-1.7-3.7-3.8V117C314.2,115,315.8,113.3,317.9,113.3z"/>
		<path class="st69" d="M318,113.4h21.7v32.1H318c-2,0-3.6-1.7-3.6-3.7v-24.6C314.3,115,316,113.4,318,113.4z"/>
		<path class="st70" d="M318.1,113.4h21.5v31.9h-21.5c-2,0-3.6-1.7-3.6-3.7v-24.5C314.5,115.1,316.1,113.4,318.1,113.4z"/>
		<path class="st71" d="M318.2,113.5h21.4v31.7h-21.4c-2,0-3.6-1.7-3.6-3.7v-24.3C314.6,115.2,316.2,113.5,318.2,113.5z"/>
		<path class="st72" d="M318.3,113.6h21.3v31.5h-21.3c-2,0-3.6-1.6-3.6-3.7v-24.2C314.8,115.2,316.4,113.6,318.3,113.6z"/>
		<path class="st73" d="M318.4,113.6h21.2V145h-21.2c-2,0-3.5-1.6-3.5-3.6v-24C314.9,115.3,316.5,113.6,318.4,113.6z"/>
		<path class="st74" d="M318.6,113.7h21.1v31.2h-21.1c-1.9,0-3.5-1.6-3.5-3.6v-23.9C315,115.3,316.6,113.7,318.6,113.7z"/>
		<path class="st75" d="M318.7,113.8h21v31h-21c-1.9,0-3.5-1.6-3.5-3.6v-23.8C315.2,115.4,316.7,113.8,318.7,113.8z"/>
		<path class="st76" d="M318.8,113.9h20.8v30.8h-20.8c-1.9,0-3.5-1.6-3.5-3.6v-23.6C315.3,115.5,316.9,113.9,318.8,113.9z"/>
		<path class="st6" d="M318.9,113.9h20.7v30.6h-20.7c-1.9,0-3.5-1.6-3.5-3.6v-23.5C315.5,115.5,317,113.9,318.9,113.9z"/>
	</g>
	<g>
		<path class="st17" d="M366.5,145.6h-50.8c-1.1,0-2-0.9-2-2v-34.1c0-1.1,0.9-2,2-2h50.8c1.1,0,2,0.9,2,2v34.1
			C368.5,144.7,367.6,145.6,366.5,145.6z"/>
		<rect x="317.7" y="111.2" class="st9" width="46.7" height="29.1"/>
		<polygon class="st6" points="325,121.9 317.8,132.2 317.7,140.3 336.2,140.3 		"/>
		<polygon class="st8" points="326.1,127.3 326.7,128.3 327.9,126.7 325,121.9 321.7,126.6 322.7,128.3 323.5,127.2 324.7,129.3 		
			"/>
		<polygon class="st6" points="333.7,136.3 339.2,128.1 346.7,140.3 336.2,140.3 		"/>
		<path class="st6" d="M355.8,121.1c0,2.8-2.3,5.1-5.1,5.1c-2.8,0-5.1-2.3-5.1-5.1s2.3-5.1,5.1-5.1S355.8,118.2,355.8,121.1z"/>
		<polygon class="st8" points="340.4,133.5 341,134.6 342.2,132.9 339.2,128.1 335.9,132.9 337,134.6 337.7,133.5 339,135.5 		"/>
	</g>
</g>
<ellipse class="st22" cx="183.3" cy="275.3" rx="68.5" ry="1.3"/>
<path class="st77" d="M399.6,295.7c0,0,11.9,8.2,26.5,13.3s27.7-9,27.7-9l17.5-56.7l5.9-6.3l-5.1-20.1l-21.3-9.4L416.3,196l-25,9.9
	l-20.5-1.6l-5.2,9.7c0,0-25.3,4.9-26.2,6.3s-12.9,24.2-13.5,24.4c-0.6,0.2,4.1,20.1,4.1,20.1l40.9,17.1l24.2,14.6L399.6,295.7z"/>
<g>
	<path class="st78" d="M351,238.4c0,0-3.6-8.7,3.8-10.9c2.1-0.6,4.3-0.4,6.2,0.4c1.2,0.5,2.8,1.2,4.7,2.1c0.8,0.4-0.2,2.4,0.7,2.9
		c0.9,0.5,3.8-0.6,4.8,0c3.2,1.9,6.7,4.2,9.8,6.9c0.7,0.6-0.6,2.2,0.1,2.9c0,0,3.7,0.7,4.4,1.7c4.5,5.3,7.2,11.7,5.5,19.1
		c0,0-7.8,5.4-15.5-5.8c-0.3-0.4,1.6-3.5,1.3-4c-0.5-0.7-3.1,1-3.6,0.1c-0.8-1.6-1.6-3.3-2.4-5.4c0,0-1.8-4.4-4.6-8.5
		c-0.6-1,1.1-1.6,0.4-2.4c-0.4-0.5-3.3-1.3-3.7-1.8C359.2,232.1,354.8,230.9,351,238.4z"/>
	<path class="st78" d="M419.4,201.1c0,0-7.1,4.7-10.7,19.3c-0.3,1.3,0.6,4.2,0.6,4.2s-1.7,1.4-1.8,2.2c-0.7,4.5-1,9.7-0.8,15.7
		c0,1.2,3.4,3,3.5,4.2c0.1,1.2-3.1,1.9-3,3.2c0.3,2.7,0.6,5.5,1,8.5c0,0,2.9,17,7.2,17.2c0.6,0,1.3-0.3,1.9-1.1
		c2.2-2.5,2.9-10.4,2.9-19.2c0-1.1-1.5-2.7-1.5-2.7s1.3-4.1,1.2-5.7c-0.3-6.2-0.9-12-1.5-16.1c-0.2-1-4.6-0.9-0.5-2.6
		c1.2-0.5-0.5-2.1-0.8-2.5C417.2,225.7,414.5,214.5,419.4,201.1z"/>
	<path class="st5" d="M411.9,281.9c0,0-11.6-5.1-21.4-18.5c-0.3-0.4,2.1-1.7,2.1-1.7s-3.4-0.1-3.6-0.4c-2.6-3.9-5.1-8.5-7.1-13.8
		c-0.2-0.5,2.4-0.8,2.4-0.8s-3.3-1.7-3.5-2.2c-1.4-4.4-2.5-9.2-3.1-14.4c-0.1-0.5,2.8-0.9,2.8-0.9s-3.1-1.7-3.2-2.2
		c-0.5-5.9-0.4-12.3,0.4-19.3c0,0,8.2,4.5,16.9,13.2c0.1,0.1-0.9,2.8-1,2.9l2.6-1.3c4,4.2,8,9.3,11.3,15.2c0.2,0.3-1.2,2.4-1.2,2.4
		c-0.1-0.2,2.3-0.3,2.3-0.3c1.5,2.8,2.4,5.2,3.4,8.4c0.2,0.5-1.3,3.5-1.3,3.5s2-1.2,2.1-0.7C415.3,259.9,415.5,270.3,411.9,281.9z"
		/>
	<path class="st9" d="M415.7,298.8c-2.1-14.6-6-28.8-12.3-42.2c-3.6-7.7-7.7-15.2-11.7-22.7c-0.1,0.7-0.3,1.4-0.4,2
		c3.3,6.2,6.7,12.4,9.8,18.7c6.8,14.1,11.1,28.9,13.4,44.4c1,7.1,1.8,14.2,2.4,21.3l1.3,0C417.6,313.2,416.8,306,415.7,298.8z"/>
	<path class="st5" d="M420.8,276.2c0,0-2.9-8-4.2-18.2c-0.1-0.9,2.8-1.2,2.8-1.2s-3.3-3.6-3.3-4.6c-0.3-6.7,0.4-13.8,3.2-19.8
		c0.4-1,3.6,0.5,3.6,0.5s-1.4-4.4-1-5c3.5-4.8,9-8.4,17.1-9.8c1.2-0.2,3.6,2,3.6,2s0.6-2.7,2.1-2.8c0,0,27.2,1.5,31.1,19.6
		c0,0-4.6-1-10.2-1.1c-0.8,0-5.1-2.3-5.1-2.3c-0.9,0,0.7,2.4-0.2,2.5c-4.6,0.5-9.3,1.8-12.2,4.9c-0.5,0.5-3.8,1.2-4.2,1.8
		c0,0,2.3,0.9,2.1,1.4c-0.7,1.7-1.1,3.8-1,6.2c0,0,0.4,5.1-0.7,10.8c-0.2,0.8-3.1,1.7-3.3,2.5c0,0,2.3,1.7,1.9,2.5
		C440.2,273.8,434.2,280.1,420.8,276.2z"/>
	<path class="st9" d="M426.4,317.6c-0.9-8.3-3.1-16.5-3.9-24.8c-0.4-4.3-0.4-8.7,0.5-12.9c1-4.3,3.1-8.2,4.2-12.4
		c1.9-7.1,1.7-14.6,3.5-21.7c4.4-17.1,22.8-21,37.2-13.9c0.8,0.4,1.4-0.7,0.7-1.1c-10.4-5.1-24.7-5.6-33.3,3.3
		c-4.7,4.9-6.2,11.6-7.1,18.1c-0.6,4.7-0.9,9.5-2.1,14.1c-1.1,4.5-3.3,8.7-4.4,13.2c-1.9,8.2-0.3,16.7,1.2,24.8
		c1,5.5,1.8,10.9,2.3,16.4l1.4,0C426.6,319.7,426.5,318.6,426.4,317.6z"/>
	<path class="st78" d="M412,308.4c-2.4-6-5.7-11.5-8.5-17.3c-2.6-5.5-5-11-7.6-16.5c-2.9-6.2-6.2-12.2-10.2-17.6
		c-0.2,0.5-0.3,1-0.5,1.5c3.7,5.2,6.8,10.9,9.6,16.7c5.1,10.6,10.8,21.2,15.4,32c1.8,4.2,2.9,8.6,3.7,13.1l1.4,0
		C414.5,316.3,413.5,312.2,412,308.4z"/>
	<path class="st78" d="M422.8,306.7c-2.1-25.2-12.1-49.8-9-75.3c0.1-0.8-1.2-0.9-1.3,0c-3.1,25.5,6.9,50.1,9,75.3
		c0.4,4.6,0.7,9.3,0.9,13.9l1.3,0C423.5,316,423.2,311.4,422.8,306.7z"/>
	<path class="st5" d="M397.5,283.3c0,0-2.3-6.6-7-14.1c-0.3-0.5-2.4-0.1-2.7-0.6c-0.3-0.4,1.2-1.8,0.9-2.2
		c-2.9-4.2-6.5-8.5-10.9-11.9c-0.5-0.4-3.3,0.6-3.5,1.1c0,0,1-2.9,0.4-3.3c-5.1-3.2-11.1-5-18-4.1c-1,0.1,0.3,2-0.7,2.2
		c0,0-2.4-2-3.1-1.8c0,0-6.8-0.2-17.6,12.5c0,0,7.7-1.4,15-0.7c0.9,0.1,4.1-1.3,5-1.2c1,0.2-0.4,1.9,0.6,2.2c3,0.9,5.4,2.4,6.6,4.9
		c1.2,2.5,2.6,4.9,4.3,7.1c0.6,0.7,2.2-1.6,2.8-1c0.2,0.2-0.6,3.4-0.4,3.5c2.1,2,4.6,4.2,7.4,6c0.5,0.4,2.3-2.1,2.8-1.8
		c0.4,0.2-0.5,3.3-0.1,3.5C385.2,287,391.9,288.3,397.5,283.3z"/>
	<path class="st9" d="M404.9,300.4c-4-12.6-11.6-22.6-21.8-30.7c-0.5-0.4-1.1-0.9-1.7-1.3c-0.2,0.4-0.3,0.7-0.5,1
		c2.3,1.9,4.5,3.9,6.4,5.7c10.3,9.7,16.1,21.7,18.8,35.5c0.6,3.2,1.1,6.5,1.5,9.7l1.3,0C408.1,313.5,407,306.9,404.9,300.4z"/>
</g>
</svg>
