<?xml version="1.0" encoding="utf-8"?>
<!-- Generator: Adobe Illustrator 21.1.0, SVG Export Plug-In . SVG Version: 6.00 Build 0)  -->
<svg version="1.1" id="Layer_1" xmlns="http://www.w3.org/2000/svg" xmlns:xlink="http://www.w3.org/1999/xlink" x="0px" y="0px"
	 width="428px" height="249px" viewBox="0 0 428 249" style="enable-background:new 0 0 428 249;" xml:space="preserve">
<style type="text/css">
	.st0{fill:#FFFFFF;}
	.st1{fill:#F4F4F4;}
	.st2{fill:#F16937;}
	.st3{fill-rule:evenodd;clip-rule:evenodd;fill:#C33A32;}
	.st4{fill:none;}
	.st5{fill:#C33A32;}
	.st6{fill:#F9F9F9;}
	.st7{fill:#EBB51E;}
	.st8{fill:#D6A955;}
	.st9{fill:#F4CC32;}
	.st10{fill:#3CA5AA;}
	.st11{fill:#105A87;}
	.st12{fill:#07334D;}
	.st13{fill:#DFDFDF;}
	.st14{fill:#218084;}
	.st15{fill:#F8C894;}
	.st16{fill:#1A7DA9;}
	.st17{fill:#F7CE2D;}
	.st18{fill:#3FBDAF;}
	.st19{fill-rule:evenodd;clip-rule:evenodd;fill:#FFFFFF;stroke:#3FBDAF;stroke-width:3.7163;stroke-miterlimit:10;}
	.st20{fill-rule:evenodd;clip-rule:evenodd;fill:#1A7DA9;}
	.st21{fill-rule:evenodd;clip-rule:evenodd;fill:#FFFFFF;}
	.st22{fill:#27A8E0;}
	.st23{fill-rule:evenodd;clip-rule:evenodd;fill:#5F529A;}
	.st24{fill:#22B6E0;}
	.st25{fill:#004F9C;}
	.st26{fill:#F27C29;}
	.st27{fill:#6CBD46;}
	.st28{fill:#F5C05A;}
	.st29{fill:#C55CA2;}
	.st30{fill:#8AD1CF;}
	.st31{fill:#5F529A;}
	.st32{fill-rule:evenodd;clip-rule:evenodd;fill:#F27C29;}
	.st33{fill:#00B181;}
	.st34{fill:#59C4C9;}
	.st35{fill:none;stroke:#FFFFFF;stroke-width:5.0794;stroke-miterlimit:10;}
	.st36{fill:#147098;}
	.st37{fill:#E3E4E2;}
	.st38{fill:#21464F;}
	.st39{fill:#177299;}
	.st40{fill-rule:evenodd;clip-rule:evenodd;fill:#FBFCF8;}
	.st41{fill-rule:evenodd;clip-rule:evenodd;fill:#3FBDAF;}
	.st42{fill-rule:evenodd;clip-rule:evenodd;fill:#27A8E0;}
	.st43{fill:#1F2959;}
	.st44{fill-rule:evenodd;clip-rule:evenodd;fill:#8AD1CF;}
	.st45{fill:#66B6CA;}
	.st46{fill:#F1F1F1;}
	.st47{fill:#169D8B;}
	.st48{fill:#041E41;}
	.st49{fill:#1A3A45;}
	.st50{fill:#C9C7C7;}
	.st51{fill:#D0D2D3;}
	.st52{fill-rule:evenodd;clip-rule:evenodd;fill:#00B181;}
	.st53{fill-rule:evenodd;clip-rule:evenodd;fill:#F5C05A;}
	.st54{fill:#684C46;}
	.st55{fill:#F4DBB9;}
	.st56{fill:#1187BF;}
	.st57{fill:#48B8E2;}
	.st58{fill:#FFD14F;}
	.st59{fill:#122030;}
	.st60{fill:#E9BD8C;}
	.st61{fill:#9C7457;}
	.st62{fill:#008172;}
	.st63{fill:#EC2224;}
	.st64{fill:#6CB8E6;}
	.st65{fill:#3B6CB4;}
</style>
<g>
	<g>
		<g>
			<path class="st0" d="M46.7,197.9c0.1,0,0.3,0,0.4,0c32.3,1.8,65.2,0,97.5,0c61.8,0,123.6,0,185.5,0c0,0,21.8,1.4,34.5-10.4
				c11.6-10.7,17.6-26.9,18.6-43.9c2.3-39.2-27.6-72.8-66.8-75.1c-4.6-0.3-9.2-0.1-13.6,0.5C298.1,32.6,264.1,3,221.3,0.5
				c-32.3-1.9-61.3,12.1-77.5,34.4c-6-2.5-12.6-4.1-19.4-4.5c-29.5-1.7-62.8,18.3-60.2,55.2C-7.1,80.5-25.6,193.6,46.7,197.9z"/>
		</g>
	</g>
	<g>
		<path class="st1" d="M236.8,248.5c0.1,0,0.2,0,0.2,0c18.2,1,36.8,0,55.1,0c34.9,0,69.9,0,104.8,0c0,0,12.3,0.8,19.5-5.8
			c6.5-6.1,9.9-15.2,10.5-24.8c1.3-22.1-15.6-41.1-37.7-42.4c-2.6-0.2-5.2,0-7.7,0.3c-2.6-20.7-21.8-37.4-46-38.8
			c-18.2-1.1-34.6,6.8-43.8,19.4c-3.4-1.4-7.1-2.3-11-2.5c-16.7-1-35.5,10.4-34,31.2C206.4,182.2,196,246.1,236.8,248.5z"/>
	</g>
	<g>
		<g>
			<g>
				<g>
					<g>
						<path class="st2" d="M350.1,223.9c0-0.5-0.4-0.9-1-0.9c-0.5,0-0.9,0.4-0.9,0.9c0,1-0.8,1.9-1.9,2.2c0-0.2-0.1-0.5-0.1-0.7
							c0,0-0.8-2.3-0.8-2.3c-1.6-3-4-4.9-7.3-5.5c-1.1-0.2-12.8-0.2-13.2-0.2c-0.2,0-0.4-0.1-0.5-0.2c-1.3-1.5-2.9-2.7-4.8-3.4
							c-0.9-0.3-1.1-0.2-1.2,0.8c-0.1,1.3-0.3,2.6-0.4,3.9c0,0.2-0.2,0.3-0.3,0.4c-2.4,1.5-4,3.5-4.8,6.3c-0.1,0.3-0.2,0.5-0.2,0.8
							c0,0.4-0.2,0.4-0.5,0.4c-0.4,0-0.7,0-1.1,0.1c-1.1,0.2-1.7,0.9-1.5,2.1c0.2,1.5,1.2,2.6,2.7,2.9c0.3,0.1,0.4,0.2,0.4,0.4
							c0.9,3.5,3.1,6,6.4,7.4c0.8,0.3,0.8,0.3,0.8,1.2c0,0.9,0.2,1.4,0.9,1.5c0.8,0.1,1.6,0.1,2.3,0c0.5,0,0.8-0.6,0.8-1.1
							c0-0.3,0-0.5,0-0.9h10c0,0.2,0,0.5,0,0.7c0,0.9,0.5,1.3,1.4,1.3c0.5,0,1,0,1.5,0c0.6,0,1-0.4,1.1-1c0-0.3,0.1-0.6,0-0.9
							c0-0.3,0.1-0.4,0.3-0.4c2.1-0.4,3.9-1.4,5.3-2.9c1.9-2,2.9-4.3,2.9-7c0-0.5,0-1,0-1.4C348.5,227.6,350.1,225.9,350.1,223.9z"
							/>
						<g>
							<ellipse class="st3" cx="316.3" cy="224.8" rx="0.6" ry="1.1"/>
							<path class="st3" d="M310.5,228.5c0,0.1-0.1,0.1-0.1,0.1l0,0c-0.1,0-0.1-0.1-0.1-0.1v-0.8c0-0.1,0.1-0.1,0.1-0.1l0,0
								c0.1,0,0.1,0.1,0.1,0.1V228.5z"/>
							<path class="st3" d="M309.9,228.3c0,0.1-0.1,0.1-0.1,0.1l0,0c-0.1,0-0.1-0.1-0.1-0.1v-0.8c0-0.1,0.1-0.1,0.1-0.1l0,0
								c0.1,0,0.1,0.1,0.1,0.1V228.3z"/>
						</g>
						<path class="st3" d="M335.6,219.2c0,0.3-0.2,0.5-0.5,0.5h-9.2c-0.3,0-0.5-0.2-0.5-0.5V219c0-0.3,0.2-0.5,0.5-0.5h9.2
							c0.3,0,0.5,0.2,0.5,0.5V219.2z"/>
					</g>
				</g>
				<g>
					<path class="st4" d="M318.4,238.8c0.2,0.1,0.3,0.2,0.5,0.3c0.1,0.1,0.3,0.1,0.4,0.2c-0.1-0.1-0.3-0.1-0.4-0.2
						C318.8,239,318.6,238.9,318.4,238.8z"/>
					<path class="st4" d="M332.3,239.7h-8.4C326.4,239.8,329.6,239.8,332.3,239.7z"/>
					<path class="st5" d="M337.9,239.5c-0.6,0-2.9,0.1-5.7,0.2h1.5c0,0.2,0,0.3,0,0.4c1.9-0.1,3.4-0.1,4-0.2c0,0,0-0.1,0-0.1
						C337.7,239.6,337.8,239.5,337.9,239.5z"/>
					<path class="st5" d="M323.8,239.7L323.8,239.7c-1.9-0.1-3.5-0.2-4.4-0.5c0.2,0.1,0.3,0.2,0.3,0.6c0.9,0.2,2.4,0.3,4.1,0.4
						C323.8,240,323.8,239.9,323.8,239.7z"/>
				</g>
			</g>
			<g>
				<path class="st6" d="M330.4,228.8v-3.1c1,0.1,1.9,0.5,2.6,1.1l0.9-0.9c-0.8-0.7-2-1.2-3.4-1.3v-1.3h-1.1v1.3
					c-2.1,0.1-3.6,1.2-3.6,2.7c0,1.8,1.8,2.3,3.6,2.7v3.5c-1.4-0.1-2.4-0.7-3.1-1.4l-0.9,0.9c0.9,0.8,2.2,1.4,3.9,1.5v1.3h1.1v-1.3
					c2.7-0.2,3.7-1.5,3.7-2.8C334,229.7,332.1,229.2,330.4,228.8z M329.3,228.6c-1.2-0.3-2.1-0.6-2.1-1.4c0-0.8,0.9-1.4,2.1-1.5
					V228.6z M330.4,233.4v-3.3c1.2,0.3,2.2,0.7,2.2,1.6C332.6,232.4,332,233.2,330.4,233.4z"/>
			</g>
		</g>
		<g>
			<path class="st7" d="M326.4,209.4c0,1.4,1.1,2.5,2.5,2.5c1.4,0,2.5-1.1,2.5-2.5c0-1.4-1.1-2.5-2.5-2.5
				C327.5,206.8,326.4,208,326.4,209.4z M326.8,209.4c0-1.2,1-2.2,2.2-2.2c0.6,0,1.1,0.3,1.5,0.7c0.4,0.4,0.7,0.9,0.7,1.5
				c0,1.2-1,2.2-2.2,2.2c-0.6,0-1.1-0.3-1.5-0.7C327,210.5,326.8,210,326.8,209.4z"/>
			<path class="st8" d="M331.1,209.4c0-0.6-0.2-1.1-0.6-1.5C330.9,208.3,331.1,208.8,331.1,209.4c0,1.2-0.9,2.2-2.1,2.2
				c-0.6,0-1.1-0.3-1.5-0.7c0.4,0.4,0.9,0.6,1.5,0.6C330.1,211.5,331.1,210.6,331.1,209.4z"/>
			<path class="st9" d="M328.9,207.2c0.6,0,1.1,0.3,1.5,0.7c0.4,0.4,0.6,0.9,0.6,1.5c0,1.2-1,2.2-2.2,2.2c-0.6,0-1.1-0.2-1.5-0.6
				c-0.4-0.4-0.7-0.9-0.7-1.5C326.8,208.2,327.7,207.2,328.9,207.2z"/>
		</g>
		<g>
			<path class="st7" d="M327.1,216.3c0,1.4,1.1,2.5,2.5,2.5c1.4,0,2.5-1.1,2.5-2.5c0-1.4-1.1-2.5-2.5-2.5
				C328.2,213.8,327.1,214.9,327.1,216.3z M327.5,216.3c0-1.2,1-2.2,2.2-2.2c0.6,0,1.1,0.2,1.5,0.7c0.4,0.4,0.7,0.9,0.7,1.5
				c0,1.2-1,2.2-2.2,2.2c-0.6,0-1.1-0.3-1.5-0.7C327.7,217.4,327.5,216.9,327.5,216.3z"/>
			<path class="st8" d="M331.8,216.3c0-0.6-0.2-1.1-0.6-1.5C331.5,215.2,331.8,215.7,331.8,216.3c0,1.2-0.9,2.2-2.1,2.2
				c-0.6,0-1.1-0.3-1.5-0.7c0.4,0.4,0.9,0.6,1.5,0.6C330.8,218.4,331.8,217.5,331.8,216.3z"/>
			<path class="st9" d="M329.6,214.1c0.6,0,1.1,0.2,1.5,0.7c0.4,0.4,0.6,0.9,0.6,1.5c0,1.2-1,2.2-2.2,2.2c-0.6,0-1.1-0.2-1.5-0.6
				c-0.4-0.4-0.7-0.9-0.7-1.5C327.5,215.1,328.4,214.1,329.6,214.1z"/>
		</g>
		<g>
			<g>
				<path class="st7" d="M330.6,202.5c-0.4,1.3,0.3,2.7,1.6,3.2c1.3,0.4,2.7-0.3,3.2-1.6c0.4-1.3-0.3-2.8-1.6-3.2
					C332.5,200.5,331.1,201.2,330.6,202.5z M330.9,202.7c0.2-0.6,0.6-1,1.1-1.3c0.5-0.3,1.1-0.3,1.7-0.1c1.1,0.4,1.7,1.6,1.4,2.7
					c-0.2,0.6-0.6,1-1.1,1.3c-0.5,0.3-1.1,0.3-1.7,0.1C331.2,205,330.6,203.8,330.9,202.7z"/>
				<path class="st8" d="M332,201.4c-0.5,0.2-0.9,0.7-1.1,1.2c-0.4,1.1,0.2,2.3,1.4,2.7c0.6,0.2,1.1,0.1,1.6-0.1
					c-0.5,0.3-1.1,0.3-1.7,0.1c-1.1-0.4-1.7-1.6-1.4-2.7C331.1,202.1,331.5,201.7,332,201.4z"/>
				<path class="st9" d="M331,202.7c0.2-0.6,0.6-1,1.1-1.2c0.5-0.3,1.1-0.3,1.7-0.1c1.1,0.4,1.7,1.6,1.4,2.7c-0.2,0.6-0.6,1-1.1,1.3
					c-0.5,0.2-1.1,0.3-1.6,0.1C331.2,205,330.6,203.8,331,202.7z"/>
			</g>
		</g>
	</g>
	<g>
		<g>
			<g>
				<path class="st10" d="M197.8,154c-0.1,0.3-0.2,0.6-0.2,1v-1H197.8z M202.1,155.5V155c0-0.3-0.1-0.7-0.2-1h0.7
					C202.3,154.4,202.1,154.9,202.1,155.5z"/>
				<g>
					<path class="st11" d="M210.5,150.7c0,0.7-0.6,1.4-1.3,1.4h-24.8c-0.7,0-1.3-0.6-1.3-1.4v-39.9c0-0.7,0.6-1.3,1.3-1.3h24.8
						c0.7,0,1.3,0.6,1.3,1.3V150.7z"/>
					<rect x="184.3" y="114.6" class="st12" width="24.8" height="31"/>
					<rect x="185.9" y="115.7" class="st13" width="21.7" height="28.8"/>
					<rect x="187.1" y="118.9" class="st0" width="19.4" height="24.3"/>
					<rect x="187.1" y="116.9" class="st14" width="19.4" height="2"/>
					<circle class="st0" cx="196.8" cy="148.9" r="2.1"/>
					<circle class="st12" cx="196.8" cy="148.9" r="1.8"/>
					<g>
						<path class="st12" d="M192.4,148.2h-5c-0.4,0-0.7,0.3-0.7,0.7c0,0.4,0.3,0.7,0.7,0.7h5c0.4,0,0.7-0.3,0.7-0.7
							C193,148.5,192.7,148.2,192.4,148.2z"/>
						<path class="st12" d="M206.2,148.2h-5c-0.4,0-0.7,0.3-0.7,0.7c0,0.4,0.3,0.7,0.7,0.7h5c0.4,0,0.7-0.3,0.7-0.7
							C206.9,148.5,206.6,148.2,206.2,148.2z"/>
					</g>
					<path class="st0" d="M200,112.2c0,0.4-0.3,0.7-0.7,0.7h-5.6c-0.4,0-0.7-0.3-0.7-0.7l0,0c0-0.4,0.3-0.7,0.7-0.7h5.6
						C199.7,111.6,200,111.9,200,112.2L200,112.2z"/>
				</g>
			</g>
			<g>
				<path class="st15" d="M206.4,152.3c-1.3,0-2.3,1-2.3,2.3v-1c0-1.3-1-2.3-2.3-2.3c-1.3,0-2.3,1-2.3,2.3V153c0-1.3-1-2.3-2.3-2.3
					c-1.3,0-2.3,1-2.3,2.3v-11.7c0-1.3-1-2.3-2.3-2.3c-1.3,0-2.3,1-2.3,2.3v15.6c0,0.1,0,0.2,0,0.3c0,0.1,0,0.3,0,0.4l-2.9-2.9
					c-0.9-0.9-2.3-0.9-3.2,0c-0.9,0.9-0.7,2.2,0,3.2l7.6,11h0c0.1,0.2,0.3,0.4,0.5,0.6v9.9h14.2v-9.4c1.2-1.3,2-3.1,2-5.2v-0.7v-0.1
					v-9.5C208.7,153.3,207.7,152.3,206.4,152.3z"/>
				<rect x="191.9" y="172.5" class="st0" width="15.6" height="8.7"/>
				<rect x="191.1" y="175.3" class="st11" width="17" height="8.8"/>
			</g>
		</g>
		<g>
			<g>
				<g>
					<path class="st16" d="M209.7,120.1l17.8,15.6c1.9-2.2,10.5-12.2,11.1-12.7l0.5,0.6c-0.5,0.4-7,7.9-11.3,12.9l-0.3,0.3
						l-17.8-15.6l-10.1,11.6l-6-5.2l-14.2,14c-1,1-2.5,1.1-3.6,0.2l-19.2-14.5l-17.8,20.3l-0.6-0.5l18.3-20.9l21.1,16.2l15.9-15.9
						l6,5.2L209.7,120.1z"/>
				</g>
				
					<ellipse transform="matrix(0.9978 -6.680190e-02 6.680190e-02 0.9978 -7.708 16.2333)" class="st17" cx="238.9" cy="123.4" rx="1.5" ry="1.5"/>
				
					<ellipse transform="matrix(0.9978 -6.641024e-02 6.641024e-02 0.9978 -8.5356 15.4249)" class="st18" cx="227.7" cy="136.1" rx="1.5" ry="1.5"/>
				
					<ellipse transform="matrix(0.9977 -6.724013e-02 6.724013e-02 0.9977 -7.6605 14.4074)" class="st18" cx="210.2" cy="121" rx="1.5" ry="1.5"/>
				
					<ellipse transform="matrix(0.9977 -6.764548e-02 6.764548e-02 0.9977 -8.5087 13.8388)" class="st18" cx="200.1" cy="132.6" rx="1.5" ry="1.5"/>
				
					<ellipse transform="matrix(0.9978 -6.687004e-02 6.687004e-02 0.9978 -8.1225 13.2405)" class="st18" cx="193.7" cy="128" rx="1.5" ry="1.5"/>
				
					<ellipse transform="matrix(0.9977 -6.723737e-02 6.723737e-02 0.9977 -9.1613 12.2836)" class="st18" cx="177.9" cy="142.2" rx="1.5" ry="1.5"/>
				
					<ellipse transform="matrix(0.9978 -6.688394e-02 6.688394e-02 0.9978 -9.554 9.6245)" class="st18" cx="139" cy="147.5" rx="1.5" ry="1.5"/>
				
					<ellipse transform="matrix(0.9977 -6.717103e-02 6.717103e-02 0.9977 -8.1977 10.8279)" class="st18" cx="156.9" cy="127.3" rx="1.5" ry="1.5"/>
			</g>
			<g>
				<path class="st18" d="M241.5,120.1c-2.2,1.3-5.3,2.7-7.7,3.2l4.1,1.4l2.3,3.7C240,125.9,240.7,122.5,241.5,120.1z"/>
			</g>
		</g>
	</g>
	<g>
		<g>
			<path class="st19" d="M266,115.5h18.5c2.7,0,4.9,2.2,4.9,4.9v18.5c0,2.7-2.2,4.9-4.9,4.9H266c-2.7,0-4.9-2.2-4.9-4.9v-18.5
				C261.1,117.7,263.3,115.5,266,115.5L266,115.5z M266.3,118.7c-1,0-1.9,0.8-1.9,1.9c0,1,0.8,1.9,1.9,1.9c1,0,1.9-0.8,1.9-1.9
				C268.2,119.6,267.3,118.7,266.3,118.7L266.3,118.7z M284.3,118.7c-1,0-1.9,0.8-1.9,1.9c0,1,0.8,1.9,1.9,1.9c1,0,1.9-0.8,1.9-1.9
				C286.2,119.6,285.4,118.7,284.3,118.7z"/>
			<path class="st20" d="M266,115.5h18.5c2.7,0,4.9,2.2,4.9,4.9v3.4h-28.4v-3.4C261.1,117.7,263.3,115.5,266,115.5L266,115.5z
				 M266.3,118.7c-1,0-1.9,0.8-1.9,1.9c0,1,0.8,1.9,1.9,1.9c1,0,1.9-0.8,1.9-1.9C268.2,119.6,267.3,118.7,266.3,118.7L266.3,118.7z
				 M284.3,118.7c-1,0-1.9,0.8-1.9,1.9c0,1,0.8,1.9,1.9,1.9c1,0,1.9-0.8,1.9-1.9C286.2,119.6,285.4,118.7,284.3,118.7z"/>
			<path class="st21" d="M266.3,114.1L266.3,114.1c0.4,0,0.7,0.3,0.7,0.7v5c0,0.4-0.3,0.7-0.7,0.7l0,0c-0.4,0-0.7-0.3-0.7-0.7v-5
				C265.5,114.4,265.9,114.1,266.3,114.1z"/>
			<path class="st21" d="M284.3,114.1L284.3,114.1c0.4,0,0.7,0.3,0.7,0.7v5c0,0.4-0.3,0.7-0.7,0.7l0,0c-0.4,0-0.7-0.3-0.7-0.7v-5
				C283.6,114.4,283.9,114.1,284.3,114.1z"/>
		</g>
		<g>
			<path class="st22" d="M271.9,140.5h-2.6v-9.6c-0.9,0.9-2,1.5-3.3,1.9v-2.3c0.7-0.2,1.4-0.6,2.2-1.2c0.8-0.6,1.3-1.3,1.6-2.1h2.1
				V140.5z"/>
			<path class="st22" d="M275.7,137.1l2.5-0.3c0.1,0.6,0.3,1,0.6,1.4c0.4,0.3,0.8,0.5,1.2,0.5c0.5,0,1-0.2,1.4-0.7
				c0.4-0.4,0.6-1.1,0.6-2c0-0.8-0.2-1.4-0.5-1.8c-0.4-0.4-0.8-0.6-1.4-0.6c-0.7,0-1.4,0.3-2,1l-2.1-0.3l1.3-6.9h6.8v2.4h-4.8
				l-0.4,2.3c0.6-0.3,1.2-0.4,1.7-0.4c1.1,0,2.1,0.4,2.9,1.2c0.8,0.8,1.2,1.9,1.2,3.2c0,1.1-0.3,2.1-1,2.9c-0.9,1.2-2.1,1.8-3.6,1.8
				c-1.2,0-2.2-0.3-3-1C276.4,139.1,275.9,138.2,275.7,137.1z"/>
		</g>
	</g>
	<g>
		<path class="st23" d="M151.7,81.3c3.7,0,6.8-3.1,6.8-6.8c0-3.7-3.1-6.8-6.8-6.8c-3.7,0-6.8,3.1-6.8,6.8
			C144.9,78.2,148,81.3,151.7,81.3z"/>
		<path class="st23" d="M151.7,63c6.3,0,11.5,5.1,11.5,11.5h4.6c0-8.9-7.2-16.1-16.1-16.1V63L151.7,63z M151.7,53.6v-4.5
			c14,0,25.3,11.3,25.3,25.3h-4.5C172.5,63,163.2,53.6,151.7,53.6z"/>
	</g>
	<path class="st24" d="M22.1,177.2c1.9,1.2,4.2,1.9,6.6,1.9c8,0,12.5-6.8,12.3-12.8c0.8-0.6,1.6-1.4,2.2-2.2
		c-0.8,0.3-1.6,0.6-2.5,0.7c0.9-0.5,1.6-1.4,1.9-2.4c-0.8,0.5-1.8,0.9-2.7,1c-0.8-0.8-1.9-1.4-3.2-1.4c-2.8,0-4.8,2.6-4.2,5.3
		c-3.6-0.2-6.8-1.9-8.9-4.5c-1.1,1.9-0.6,4.5,1.3,5.8c-0.7,0-1.4-0.2-2-0.5c0,2,1.4,3.9,3.5,4.3c-0.6,0.2-1.3,0.2-1.9,0.1
		c0.5,1.7,2.1,3,4,3C26.7,176.9,24.4,177.5,22.1,177.2z"/>
	<path class="st25" d="M260.5,223.2h5.2v-13h3.6l0.4-4.4h-4c0,0,0-1.6,0-2.5c0-1,0.2-1.4,1.2-1.4c0.8,0,2.8,0,2.8,0v-4.5
		c0,0-3,0-3.6,0c-3.9,0-5.6,1.7-5.6,5c0,2.8,0,3.5,0,3.5h-2.7v4.4h2.7V223.2z"/>
	<path class="st26" d="M338.5,119.2c0.3,0.1,0.6,0,0.7-0.3c0.1-0.2,0.2-0.8,0.3-1.1c0.1-0.3,0.1-0.5-0.2-0.8
		c-0.5-0.6-0.9-1.5-0.9-2.6c0-3.4,2.5-6.5,6.6-6.5c3.6,0,5.6,2.2,5.6,5.2c0,3.9-1.7,7.2-4.3,7.2c-1.4,0-2.5-1.2-2.1-2.6
		c0.4-1.7,1.2-3.5,1.2-4.8c0-1.1-0.6-2-1.8-2c-1.4,0-2.6,1.5-2.6,3.5c0,1.3,0.4,2.1,0.4,2.1s-1.5,6.2-1.7,7.3
		c-0.5,2.2-0.1,4.8,0,5.1c0,0.2,0.2,0.2,0.3,0.1c0.1-0.2,1.8-2.3,2.4-4.4c0.2-0.6,0.9-3.7,0.9-3.7c0.5,0.9,1.8,1.7,3.3,1.7
		c4.3,0,7.3-3.9,7.3-9.2c0-4-3.4-7.7-8.5-7.7c-6.4,0-9.6,4.6-9.6,8.4C335.7,116.4,336.6,118.4,338.5,119.2z"/>
	<g>
		<path class="st27" d="M241.3,230h-7.1l0,2h4.8c-0.6,2.5-2.3,4-4.7,4c-3.1,0-5.6-2.5-5.6-5.6c0-3.1,2.5-5.6,5.6-5.6
			c1.5,0,2.8,0.6,3.8,1.5l1.6-1.4c-1.4-1.4-3.3-2.2-5.4-2.2c-4.2,0-7.7,3.4-7.7,7.7c0,4.2,3.4,7.7,7.7,7.7c4.1,0,7-3.1,7-7.3
			L241.3,230z"/>
		<g>
			<rect x="243.8" y="230.1" class="st27" width="7.8" height="1.9"/>
			
				<rect x="243.8" y="230.1" transform="matrix(-1.836970e-16 1 -1 -1.836970e-16 478.7262 -16.6444)" class="st27" width="7.8" height="1.9"/>
		</g>
	</g>
	<path class="st28" d="M197.6,78.7c0,5.5,4.4,9.9,9.9,9.9c0.6,0,1.3-0.1,1.9-0.2c0.9,0.5,1.9,0.8,3,0.8c3.2,0,5.8-2.6,5.8-5.8
		c0-1.1-0.3-2.2-0.9-3c0.1-0.6,0.2-1.1,0.2-1.7c0-5.4-4.4-9.9-9.9-9.9c-0.6,0-1.2,0.1-1.8,0.2c-0.9-0.5-1.9-0.8-3-0.8
		c-3.2,0-5.8,2.6-5.8,5.8c0,1.1,0.3,2.1,0.9,3C197.6,77.5,197.6,78.1,197.6,78.7z M207.6,71.7c3.2,0.2,5,1.6,5.2,2.9
		c0.1,0.9-0.5,1.5-1.5,1.5c-1.4,0-1.6-1.9-4.1-1.9c-1.1,0-2.1,0.5-2.1,1.5c0,2.1,7.9,0.9,7.9,5.5c0,2.7-2.1,4.4-5.3,4.4
		c-2.8,0-5.6-1.3-5.6-3.5c0-0.7,0.5-1.3,1.2-1.3c1.7,0,1.6,2.5,4.3,2.5c1.8,0,2.5-1,2.5-1.7c0-2.5-8-1-8-5.8
		C202.1,73.3,204.2,71.5,207.6,71.7z"/>
	<g>
		<g>
			<g>
				<path class="st29" d="M276.8,53.5c0.4,0,0.9-0.2,1.4-0.8v0.7h1.2v-6.7h-1.2v5.1c-0.2,0.2-0.5,0.5-0.7,0.5
					c-0.3,0-0.3-0.2-0.3-0.5v-5.1h-1.3v5.6C275.9,53,276.1,53.5,276.8,53.5z"/>
				<path class="st29" d="M271.2,51.8c0,1.2,0.6,1.8,1.8,1.8c1,0,1.8-0.7,1.8-1.8v-3.3c0-1.1-0.8-1.8-1.8-1.8
					c-1.1,0-1.8,0.7-1.8,1.8V51.8z M272.5,48.6c0-0.4,0.2-0.6,0.5-0.6c0.4,0,0.5,0.3,0.5,0.6v3.1c0,0.4-0.2,0.6-0.5,0.6
					c-0.3,0-0.5-0.3-0.5-0.6V48.6z"/>
				<polygon class="st29" points="268.2,53.4 269.6,53.4 269.6,49.7 271.3,44.3 269.9,44.3 269,48 268,44.3 266.6,44.3 268.2,49.7 
									"/>
			</g>
		</g>
		<g>
			<path class="st29" d="M281.1,55h-14.7c-1.6,0-2.9,1.3-2.9,2.9V65c0,1.6,1.3,2.9,2.9,2.9h14.7c1.6,0,2.9-1.3,2.9-2.9v-7.2
				C284,56.2,282.7,55,281.1,55z M268.4,65.8h-1.3v-7.4h-1.4v-1.3h4.1v1.3h-1.4V65.8z M273.2,65.8H272v-0.7
				c-0.2,0.3-0.4,0.5-0.7,0.6c-0.6,0.4-1.5,0.4-1.5-0.9v-5.3h1.2v4.9c0,0.3,0.1,0.4,0.3,0.4c0.2,0,0.6-0.3,0.7-0.5v-4.9h1.2V65.8z
				 M277.7,64.4c0,0.8-0.3,1.4-1.1,1.4c-0.4,0-0.8-0.2-1.1-0.6v0.5h-1.2v-8.7h1.2v2.8c0.3-0.3,0.6-0.6,1.1-0.6
				c0.9,0,1.2,0.7,1.2,1.6V64.4z M282.1,62.7h-2.3v1.2c0,0.5,0,0.9,0.5,0.9c0.5,0,0.5-0.3,0.5-0.9v-0.4h1.2V64c0,1.2-0.5,2-1.8,2
				c-1.1,0-1.7-0.8-1.7-2v-2.9c0-1.1,0.7-1.9,1.8-1.9c1.1,0,1.7,0.7,1.7,1.9V62.7z"/>
			<path class="st29" d="M280.4,60.3c-0.4,0-0.5,0.3-0.5,0.7v0.6h1v-0.6C280.9,60.6,280.8,60.3,280.4,60.3z"/>
			<path class="st29" d="M275.8,60.4c-0.1,0-0.2,0.1-0.2,0.2v4c0.1,0.1,0.2,0.2,0.3,0.2c0.2,0.1,0.5,0.1,0.6-0.1
				c0.1-0.1,0.1-0.2,0.1-0.4V61c0-0.2,0-0.4-0.1-0.5C276.2,60.3,276,60.3,275.8,60.4z"/>
		</g>
	</g>
	<g>
		<path class="st16" d="M102.5,139.9c-0.1,0.2-0.1,0.5-0.1,0.8c0,0.3-0.1,0.5-0.1,0.8c-0.1,0.5-0.1,1-0.1,1.6c0,0.5,0,1.1,0.1,1.6
			c0,0.3,0.1,0.5,0.1,0.8c0,0.3,0.1,0.5,0.1,0.8c0,0.2,0.1,0.5,0.2,0.7c0.1,0.5,0.3,1,0.4,1.4c0.1,0.2,0.2,0.5,0.3,0.7
			c0.1,0.2,0.2,0.5,0.3,0.7c0.1,0.1,0.1,0.2,0.2,0.3c0.1,0.2,0.2,0.4,0.4,0.7c0.4,0.6,0.8,1.3,1.2,1.8c0.2,0.3,0.5,0.6,0.7,0.8
			c0.2,0.2,0.3,0.4,0.5,0.5c0.2,0.2,0.3,0.3,0.5,0.5c0.8,0.7,1.7,1.4,2.7,2c0.2,0.1,0.4,0.2,0.7,0.4c0.4,0.2,0.9,0.4,1.4,0.6
			c0.2,0.1,0.5,0.2,0.7,0.3c1.5,0.5,3.2,0.8,4.9,0.8c1.2,0,2.3-0.1,3.4-0.4c0.5-0.1,1-0.3,1.5-0.4c0.2-0.1,0.5-0.2,0.7-0.3
			c0.5-0.2,0.9-0.4,1.4-0.6c0.2-0.1,0.4-0.2,0.6-0.4c1-0.6,1.9-1.2,2.7-2c0.2-0.2,0.4-0.3,0.5-0.5c0.2-0.2,0.3-0.4,0.5-0.5
			c0.2-0.3,0.5-0.6,0.7-0.8c0.4-0.5,0.7-0.9,1-1.4c0.1-0.1,0.2-0.3,0.2-0.4c0.1-0.2,0.2-0.4,0.4-0.7c0.1-0.1,0.1-0.2,0.2-0.3
			c0.1-0.2,0.2-0.5,0.3-0.7c0.1-0.2,0.2-0.5,0.3-0.7c0.2-0.5,0.3-1,0.4-1.4c0.1-0.2,0.1-0.5,0.2-0.7c0.1-0.3,0.1-0.5,0.1-0.8
			c0-0.3,0.1-0.5,0.1-0.8c0.1-0.5,0.1-1,0.1-1.6c0-0.5,0-1.1-0.1-1.6c0-0.3-0.1-0.5-0.1-0.8c0-0.3-0.1-0.5-0.1-0.8
			c0-0.2-0.1-0.5-0.2-0.7c-0.1-0.5-0.3-1-0.4-1.4c0-0.1-0.1-0.2-0.1-0.4c-0.1-0.3-0.3-0.7-0.4-1c-0.1-0.1-0.1-0.2-0.2-0.3
			c-0.1-0.2-0.2-0.4-0.4-0.7c-0.4-0.6-0.8-1.3-1.2-1.8c-0.2-0.3-0.5-0.6-0.7-0.8c-0.2-0.2-0.3-0.4-0.5-0.5c-0.2-0.2-0.4-0.3-0.5-0.5
			c-0.3-0.3-0.7-0.6-1.1-0.9c-0.5-0.4-1-0.7-1.6-1c-0.2-0.1-0.4-0.2-0.6-0.4c-0.1-0.1-0.2-0.1-0.3-0.2c-0.1-0.1-0.2-0.1-0.4-0.2
			c0,0-0.1,0-0.2-0.1c-0.2-0.1-0.4-0.2-0.5-0.2l0,0c-0.2-0.1-0.4-0.1-0.6-0.2c0,0-0.1,0-0.1,0c-0.5-0.2-0.9-0.3-1.4-0.4
			c-0.1,0-0.3-0.1-0.4-0.1c-0.1,0-0.2,0-0.3-0.1c-0.8-0.1-1.6-0.2-2.5-0.2c-0.1,0-0.2,0-0.3,0c-0.2,0-0.3,0-0.5,0
			c-1.6,0-3,0.3-4.4,0.8c-0.2,0.1-0.5,0.2-0.7,0.3c-0.1,0-0.1,0.1-0.2,0.1c-0.2,0.1-0.3,0.1-0.5,0.2c-0.2,0.1-0.5,0.2-0.7,0.3
			c-0.2,0.1-0.4,0.2-0.7,0.4c-0.9,0.5-1.7,1.1-2.4,1.7c-0.1,0.1-0.2,0.2-0.3,0.2c-0.2,0.2-0.4,0.3-0.5,0.5c-0.2,0.2-0.3,0.4-0.5,0.5
			c-0.2,0.3-0.5,0.6-0.7,0.8c-0.5,0.6-0.9,1.2-1.2,1.8c-0.1,0.2-0.2,0.4-0.4,0.7c-0.1,0.1-0.1,0.2-0.2,0.3c-0.2,0.3-0.3,0.7-0.4,1
			c0,0.1-0.1,0.2-0.1,0.4c-0.2,0.5-0.3,0.9-0.4,1.4C102.6,139.4,102.6,139.6,102.5,139.9z"/>
		<path class="st22" d="M114.9,128.7L114.9,128.7c0,0,0.1,0.1,0.1,0.1c0.1-0.1,0.3,0,0.4,0c0.2,0,0.3-0.1,0.5,0c0.3,0,0.7,0.3,1,0.2
			c0.1,0,0-0.1,0.1-0.2c0-0.1,0.1-0.2,0.1-0.3c0.1,0,0.2,0,0.4,0c1,0,2,0.1,2.9,0.3c0,0.1-0.2,0.1-0.3,0.1c-0.1,0-0.1,0.1-0.2,0.2
			c-0.3,0.1-0.5-0.1-0.8-0.1c0,0.1,0.1,0.2,0.2,0.2c0.2,0.1,0.4,0.1,0.8,0.1c0.2,0,0.4,0.1,0.5,0c0.1-0.1,0.1-0.2,0.2-0.3
			c0,0,0.1-0.1,0.1-0.1c0.2,0,0.3,0.1,0.5,0.1c0,0.1-0.2,0.1-0.2,0.2c0.1,0.1,0.4,0,0.5-0.2c0,0,0.1,0,0.1,0
			c0.2,0.1,0.5,0.1,0.7,0.2c0.3,0.1,0.6,0.2,1,0.4c-0.1,0-0.1,0.1-0.2,0.1c-0.1,0-0.2-0.2-0.3-0.1c0,0.2,0.2,0.2,0.3,0.3
			c0.1,0.1,0.3,0.2,0.3,0.3c-0.1,0.3-0.3,0-0.6,0c-0.2,0-0.6,0.4-0.8,0.1c0-0.2,0.3-0.2,0.3-0.4c0,0-0.1,0-0.1,0
			c-0.1,0-0.2,0.1-0.2,0.1c-0.1,0.1-0.2,0.1-0.3,0.1c-0.1,0-0.2,0-0.3,0c-0.2,0.1-0.3,0.2-0.5,0.3c-0.1,0-0.2,0-0.3,0
			c-0.2,0.1-0.4,0.2-0.6,0.3c-0.2,0.1-0.4,0.2-0.6,0.3c-0.1,0.1-0.3,0.3-0.2,0.3c0,0.1,0.2,0.1,0.2,0.2c0,0.1-0.1,0.2,0,0.3
			c0.1,0.1,0.2,0,0.3,0c0.3,0,0.4,0.2,0.6,0.3c0.1,0.1,0.4,0.2,0.5,0.2c0.2,0,0.5-0.1,0.5,0.1c0,0.2-0.2,0.2-0.2,0.3
			c0.1,0.2-0.1,0.2-0.1,0.4c0,0.1,0.1,0.3,0.3,0.3c0.2,0,0.4-0.2,0.5-0.3c0.1-0.2,0-0.5,0.2-0.6c0.8,0,1.4-0.3,1.4-1.1
			c0-0.1,0-0.2,0-0.3c0-0.1,0.2-0.2,0.2-0.4c0.1,0,0.1-0.1,0.2-0.2c0.1-0.1,0.1-0.2,0.2-0.3c0,0,0,0,0,0c0.1,0,0.1,0,0.2,0
			c0.1,0,0.3,0.1,0.4,0.1c0.1,0,0.2-0.1,0.3-0.1c0.2,0,0.3,0.2,0.4,0.3c0.1,0.1,0.2,0.1,0.2,0.2c0,0.2-0.2,0.2-0.1,0.4v0
			c0,0.2,0.2,0.3,0.2,0.3c0.1,0,0.3,0,0.4-0.1c0.1-0.1,0.2-0.2,0.4-0.3c0.2,0.1,0.3,0.3,0.5,0.4c0,0.1,0,0.1,0,0.2
			c0,0.2,0,0.3,0,0.5c0,0.3,0.4,0.3,0.5,0.4c0.1,0,0.1,0.2,0.1,0.2c0.1,0.1,0.2,0.1,0.2,0.2c0,0.3-0.3,0.3-0.2,0.6
			c-0.1,0.1-0.2,0.1-0.2,0.3c0,0.3,0.4,0.1,0.5,0.3c0.1,0.1,0,0.2,0,0.3c0.1,0.2,0.1,0.4-0.1,0.4c-0.1,0-0.2-0.1-0.3-0.2
			c-0.1,0-0.2,0-0.3,0c-0.1,0-0.2,0-0.3,0c-0.2,0-0.4,0-0.5-0.1c0.2-0.3,0.5-0.5,0.7-0.7c0.1-0.1,0.2-0.1,0.2-0.2
			c-0.1-0.1-0.3,0-0.4,0.1c-0.1,0.1-0.3,0.2-0.5,0.2c-0.3,0-0.6-0.1-0.9,0.1c0,0.1,0.3,0.1,0.2,0.3c-0.1,0-0.2,0-0.3-0.1
			c-0.1-0.1,0-0.2-0.1-0.2c-0.1-0.1-0.4-0.1-0.5-0.1c-0.2,0-0.3,0.1-0.3,0.3c0.2,0.1,0.6-0.1,0.6,0.2c-0.1,0.2-0.4,0.3-0.3,0.6
			c0,0.1,0.1,0.2,0.2,0.3c0.1,0,0.1-0.1,0.2-0.1c0.1,0,0.1,0.1,0.2,0.1c0.2-0.1,0.2-0.3,0.4-0.3c0.2,0.3-0.2,0.4-0.4,0.5
			c-0.3,0.1-0.6,0.1-0.8,0.2c-0.1,0-0.5,0.4-0.6,0.1c0-0.2,0.2-0.1,0.2-0.3c-0.3,0-0.5,0.1-0.7,0.2c-0.3,0.1-0.9,0.2-1,0.6
			c0,0.1,0,0.2,0,0.3c0,0-0.3,0-0.4,0.1c-0.2,0.1-0.3,0.2-0.4,0.2c-0.1,0-0.2,0-0.2,0c-0.1,0.1-0.2,0.2-0.3,0.3
			c-0.1,0-0.2,0.1-0.2,0.1c-0.1,0.1-0.1,0.3-0.2,0.3c-0.1,0-0.2-0.1-0.3,0c0,0.2,0.1,0.5,0,0.7c-0.2,0.2-0.4,0.3-0.7,0.4
			c-0.1,0.1-0.3,0.1-0.4,0.2c-0.1,0.1-0.2,0.2-0.4,0.3c-0.3,0.2-0.7,0.4-0.7,0.9c0,0.1,0,0.2,0.1,0.3c0,0.1,0,0.1,0,0.2
			c0,0.2,0.1,0.4,0,0.5c-0.2-0.1-0.5-0.1-0.7-0.3c0-0.2,0.1-0.3,0.1-0.4c0-0.1-0.2-0.3-0.3-0.3c-0.1,0-0.2,0.1-0.3,0.1
			c-0.1,0-0.2-0.2-0.4-0.2c-0.2,0-0.4,0.1-0.7,0c-0.2,0.1-0.3,0.4-0.6,0.3c-0.1,0-0.2-0.1-0.3-0.1c-0.1,0-0.3-0.1-0.5-0.1
			c-0.3,0-0.5,0.2-0.7,0.3c-0.2,0.1-0.5,0.2-0.6,0.5c0,0.1,0,0.3,0,0.4c0,0.1-0.1,0.1-0.1,0.2c-0.2,0.3-0.3,0.8-0.2,1.3
			c0,0.1,0.2,0.5,0.3,0.6c0.1,0.1,0.3,0.2,0.5,0.2c0.1,0,0.3-0.1,0.4-0.1c0.1,0,0.3,0,0.4-0.1c0.4-0.1,0.3-0.6,0.6-0.8
			c0.2-0.1,0.3-0.1,0.6-0.1c0.1,0.1,0.1,0.2,0.1,0.3c0,0.1-0.1,0.2-0.1,0.3c0,0.1,0,0.2-0.1,0.3c0,0.1-0.2,0.2-0.2,0.3
			c0,0.1,0,0.1,0,0.2c0,0.1-0.2,0.2-0.1,0.3c0.4,0.1,0.8,0,1.1,0c0.1,0,0.4,0.2,0.4,0.4c0,0.2-0.1,0.2-0.1,0.4
			c0,0.2-0.1,0.5-0.1,0.6c0,0.3,0.4,0.7,0.7,0.7c0.3,0,0.5-0.3,0.9-0.1c0.1,0.1,0.3,0.3,0.4,0.2c0.1,0,0.3-0.2,0.4-0.3
			c0.1-0.2,0.1-0.3,0.3-0.4c0.2-0.1,0.3,0,0.5-0.1c0.1,0,0.2-0.1,0.3-0.2c0.1-0.1,0.2-0.2,0.3-0.1c0.1,0.1-0.2,0.2,0,0.3
			c0.2,0.1,0.3-0.2,0.5-0.2c0.1,0,0.2,0.1,0.3,0.2c0.1,0.1,0.2,0.2,0.3,0.2c0.1,0,0.2,0,0.4,0c0.2,0,0.3,0.2,0.4,0.2
			c0.2,0,0.2-0.2,0.4-0.2c0.3-0.1,0.4,0,0.5,0.2c0.1,0,0.2-0.2,0.3-0.1c-0.1,0.1,0,0.2,0.1,0.3c0,0.1,0,0.1,0.1,0.2
			c0.1,0.1,0.2,0.1,0.3,0.1c0.1,0.1,0.2,0.2,0.3,0.4c0.1,0.2,0.4,0.3,0.6,0.3c0.2,0,0.3,0,0.5,0c0.3,0,0.5,0.2,0.8,0.4
			c0.1,0.1,0.3,0.2,0.3,0.3c0,0.1,0,0.2,0,0.3c0.1,0.2,0.4,0.3,0.3,0.7c0,0.1,0.2,0.1,0.3,0.2c0.1,0.1,0.2,0.2,0.3,0.2
			c0.1,0,0.1,0,0.2,0c0.2,0,0.3,0.1,0.5,0.1c0.1,0,0.2,0.1,0.3,0.1c0.1,0.1,0.1,0.2,0.2,0.3c0.1,0,0.2,0,0.3,0
			c0.2,0,0.4,0.1,0.6,0.1c0.1,0,0.2,0,0.3,0c0.2,0,0.4,0.1,0.5,0.3c-2,3.2-5.2,5.6-8.9,6.5c0-0.1-0.1-0.3-0.1-0.4c0-0.3,0-0.5,0-0.8
			c0-0.2-0.1-0.6-0.2-0.7c-0.1-0.2-0.4-0.4-0.6-0.5c-0.1-0.1-0.3-0.1-0.4-0.1c-0.3-0.1-0.8-0.4-0.9-0.7c0-0.1,0-0.2-0.1-0.3
			c-0.1-0.2-0.2-0.3-0.3-0.5c-0.2-0.3-0.4-0.7-0.6-1c-0.1-0.2-0.2-0.3-0.3-0.5c-0.1-0.1-0.3-0.1-0.3-0.3c0-0.2-0.1-0.4-0.1-0.5
			c0-0.2,0.3-0.3,0.3-0.4c0-0.1-0.2-0.2-0.2-0.3c-0.1-0.3,0.1-0.4,0.2-0.6c0-0.1,0.1-0.2,0.1-0.2c0.1-0.1,0.2-0.1,0.3-0.2
			c0-0.1,0.1-0.2,0.1-0.2c0.1-0.2,0.3-0.2,0.4-0.4c0-0.1,0.1-0.7,0-0.9c0-0.1-0.1-0.2-0.2-0.3c-0.1-0.2-0.1-0.4-0.3-0.4
			c-0.1,0-0.2,0.1-0.3,0.2c0,0.1,0,0.2-0.1,0.3c-0.2,0.1-0.3-0.2-0.5-0.3c-0.1,0-0.2,0-0.3,0c-0.2-0.1-0.2-0.3-0.4-0.4
			c-0.1-0.1-0.3,0-0.3-0.2c0-0.1,0-0.2,0-0.3c-0.2-0.1-0.3-0.5-0.5-0.6c-0.1-0.1-0.4-0.1-0.5-0.1c-0.1,0-0.1-0.1-0.2-0.1
			c-0.1,0-0.2,0-0.3-0.1c-0.3-0.2-0.5-0.7-0.9-0.7c-0.2,0-0.3,0.2-0.5,0.2c-0.2,0-0.4-0.1-0.6-0.2c-0.2-0.1-0.4-0.1-0.6-0.2
			c-0.1-0.1-0.2-0.2-0.3-0.2c-0.1,0-0.2,0-0.3-0.1c-0.1-0.1-0.2-0.2-0.3-0.2c-0.1-0.1-0.3-0.2-0.3-0.3c0-0.1,0.1-0.2,0.1-0.4
			c0-0.4-0.2-0.7-0.4-0.9c-0.1-0.2-0.3-0.3-0.4-0.5c0-0.1,0-0.1,0-0.2c-0.1-0.1-0.2-0.2-0.3-0.4c-0.1-0.1-0.3-0.3-0.3-0.4
			c0-0.2,0.1-0.3,0-0.5c-0.1-0.3-0.5-0.2-0.5,0.2c0,0.1,0.2,0.3,0.2,0.4c0,0.1,0,0.2,0.1,0.4c0,0.1,0.2,0.2,0.2,0.4
			c0.1,0.2,0.1,0.5,0.1,0.6c0.1,0.1,0.3,0.2,0.1,0.4c-0.2,0-0.2-0.1-0.3-0.2c-0.1-0.1-0.2-0.1-0.3-0.3c0-0.1,0.1-0.2,0-0.3
			c-0.1-0.2-0.5-0.2-0.5-0.5c0-0.1,0.2-0.2,0.2-0.3c0-0.2-0.2-0.3-0.3-0.4c0-0.1,0-0.3-0.1-0.5c0-0.2,0-0.3,0-0.5
			c0-0.1-0.2-0.3-0.3-0.3c-0.1-0.1-0.3,0-0.3-0.2c-0.1-0.1-0.1-0.3-0.1-0.4c0-0.2,0-0.4,0-0.6c0-0.2,0-0.4,0-0.6
			c0.1-0.2,0.2-0.2,0.3-0.4c0.1-0.1,0.1-0.2,0.1-0.4c0.1-0.2,0.4-0.4,0.6-0.6c0.2-0.2,0.4-0.4,0.5-0.7c0-0.1,0.1-0.3,0.1-0.4
			c0-0.2-0.3-0.3-0.3-0.5c0-0.1,0.2-0.1,0.2-0.2c0-0.1,0-0.2,0-0.3c0-0.2-0.1-0.3,0-0.5c0-0.1,0.2-0.2,0.1-0.4
			c-0.1-0.2-0.3,0.1-0.4,0c-0.1-0.1,0-0.2,0-0.4c0-0.1,0-0.1,0-0.2c0-0.1,0.2-0.2,0.1-0.2c-0.1-0.1-0.1-0.2-0.2-0.4
			C110.3,130.2,112.5,129.1,114.9,128.7z"/>
	</g>
	<g>
		<g>
			<path class="st22" d="M257.1,103.7h-8l-0.9-7.1c-2.5-1.7-4-4.4-4-7.4c0-4.9,4-8.9,8.9-8.9c4.9,0,8.9,4,8.9,8.9c0,3-1.5,5.8-4,7.4
				L257.1,103.7z M250.2,102.5h5.9l0.8-6.6l0.2-0.1c2.3-1.4,3.7-3.9,3.7-6.6c0-4.2-3.5-7.7-7.7-7.7c-4.2,0-7.7,3.5-7.7,7.7
				c0,2.7,1.4,5.1,3.7,6.6l0.2,0.1L250.2,102.5z"/>
		</g>
		<g>
			<path class="st22" d="M251.8,99.6c0,0.2-0.1,0.4-0.2,0.4c-0.2,0-0.4-0.1-0.4-0.2l-2-8.2c0-0.2,0.1-0.4,0.2-0.4
				c0.1,0,0.3,0,0.3,0.1c0.1,0.1,0.3,0.3,0.4,0.4c0.8,0.7,1.9,1,2.9,1c1,0,2.1-0.3,2.8-1c0.1-0.1,0.2-0.2,0.4-0.4
				c0.1-0.1,0.3-0.2,0.5-0.1c0.1,0.1,0.1,0.2,0.1,0.3l-2,8.2c0,0.2-0.2,0.3-0.4,0.2c-0.2,0-0.3-0.2-0.2-0.4l1.8-7.2
				c-0.8,0.6-1.8,0.9-2.9,0.9c-1.1,0-2.2-0.3-3.1-0.9L251.8,99.6L251.8,99.6z M249.7,91.2l0.1,0.1C249.7,91.3,249.7,91.2,249.7,91.2
				z"/>
		</g>
		<path class="st20" d="M248.4,98.9h9.4l-0.5,4.4c-0.1,0.8-0.1,1.2-1.2,1.2h-6.1c-1.1,0-1.1-0.4-1.2-1.2L248.4,98.9z"/>
		<g>
			<path class="st30" d="M258.2,73.9c0.1-0.2,0.3-0.3,0.5-0.2c0.2,0.1,0.3,0.3,0.2,0.5l-1.8,5c-0.1,0.2-0.3,0.3-0.5,0.2
				c-0.2-0.1-0.3-0.3-0.2-0.5L258.2,73.9z"/>
			<path class="st30" d="M263.1,76.5c0.1-0.2,0.4-0.2,0.6-0.1c0.2,0.1,0.2,0.4,0.1,0.6l-3.4,4.1c-0.1,0.2-0.4,0.2-0.6,0
				c-0.2-0.1-0.2-0.4-0.1-0.6L263.1,76.5z"/>
			<path class="st30" d="M266.7,80.7c0.2-0.1,0.4,0,0.6,0.1c0.1,0.2,0,0.5-0.2,0.6l-4.6,2.7c-0.2,0.1-0.4,0-0.6-0.2
				c-0.1-0.2,0-0.4,0.2-0.6L266.7,80.7z"/>
			<path class="st30" d="M268.8,85.8c0.2,0,0.4,0.1,0.5,0.3c0,0.2-0.1,0.4-0.3,0.5l-5.2,0.9c-0.2,0-0.4-0.1-0.5-0.3
				c0-0.2,0.1-0.4,0.3-0.5L268.8,85.8z"/>
			<path class="st30" d="M252.7,73.1c0-0.2,0.2-0.4,0.4-0.4c0.2,0,0.4,0.2,0.4,0.4v5.3c0,0.2-0.2,0.4-0.4,0.4
				c-0.2,0-0.4-0.2-0.4-0.4V73.1z"/>
			<path class="st30" d="M247.3,74.2c-0.1-0.2,0-0.4,0.2-0.5c0.2-0.1,0.4,0,0.5,0.2l1.8,5c0.1,0.2,0,0.5-0.2,0.5
				c-0.2,0.1-0.5,0-0.5-0.2L247.3,74.2z"/>
			<path class="st30" d="M242.6,77.1c-0.1-0.2-0.1-0.4,0-0.6c0.2-0.1,0.4-0.1,0.6,0.1l3.4,4.1c0.1,0.2,0.1,0.4-0.1,0.6
				c-0.2,0.1-0.4,0.1-0.6,0L242.6,77.1z"/>
			<path class="st30" d="M239.1,81.4c-0.2-0.1-0.3-0.4-0.2-0.6c0.1-0.2,0.4-0.3,0.6-0.1l4.6,2.7c0.2,0.1,0.3,0.4,0.1,0.6
				c-0.1,0.2-0.4,0.3-0.6,0.2L239.1,81.4z"/>
			<path class="st30" d="M237.4,86.6c-0.2,0-0.4-0.3-0.3-0.5c0-0.2,0.3-0.4,0.5-0.3l5.2,0.9c0.2,0,0.4,0.3,0.3,0.5
				c0,0.2-0.3,0.4-0.5,0.3L237.4,86.6z"/>
		</g>
	</g>
	<g>
		<g>
			<rect x="371" y="226.3" class="st27" width="4.1" height="13.2"/>
			<ellipse class="st27" cx="373.1" cy="222.2" rx="2.4" ry="2.4"/>
		</g>
		<path class="st27" d="M381.7,232.6c0-1.9,0.9-3,2.5-3c1.5,0,2.2,1.1,2.2,3c0,1.9,0,6.9,0,6.9h4.1c0,0,0-4.8,0-8.4
			c0-3.5-2-5.2-4.8-5.2c-2.8,0-4,2.2-4,2.2v-1.8h-3.9v13.2h3.9C381.7,239.6,381.7,234.7,381.7,232.6z"/>
	</g>
	<g>
		
			<rect x="53.3" y="184.8" transform="matrix(0.7843 -0.6204 0.6204 0.7843 -102.2036 76.7465)" class="st31" width="12" height="1.2"/>
		
			<rect x="68.1" y="179.3" transform="matrix(0.6203 -0.7844 0.7844 0.6203 -119.3003 124.2787)" class="st31" width="1.2" height="12"/>
		<rect x="63.4" y="169.6" class="st31" width="1.2" height="12"/>
		<path class="st32" d="M65.8,171.2c1.6,0.5,2.8,1.8,3.2,3.3H59c0.4-1.5,1.6-2.8,3.2-3.3c-0.8-0.7-1.2-1.8-1.2-3c0-2,1.3-3.7,3-3.7
			c1.7,0,3,1.7,3,3.7C67,169.5,66.5,170.6,65.8,171.2z"/>
		<g>
			<path class="st32" d="M56.2,188.8c1.6,0.5,2.8,1.8,3.2,3.3h-10c0.4-1.5,1.6-2.8,3.2-3.3c-0.8-0.7-1.2-1.8-1.2-3
				c0-2,1.3-3.7,3-3.7c1.7,0,3,1.7,3,3.7C57.4,187,56.9,188.1,56.2,188.8z"/>
			<path class="st32" d="M75.3,188.8c1.6,0.5,2.8,1.8,3.2,3.3h-10c0.4-1.5,1.6-2.8,3.2-3.3c-0.8-0.7-1.2-1.8-1.2-3
				c0-2,1.3-3.7,3-3.7c1.7,0,3,1.7,3,3.7C76.6,187,76.1,188.1,75.3,188.8z"/>
		</g>
		<circle class="st23" cx="64" cy="181.6" r="3.1"/>
	</g>
	<g>
		<path class="st33" d="M308.4,86.8c2.6,0,2.9,0,4,0.1c1,0,1.5,0.2,1.8,0.3c0.5,0.2,0.8,0.4,1.1,0.7c0.3,0.3,0.6,0.7,0.7,1.1
			c0.1,0.3,0.3,0.9,0.3,1.8c0,1,0.1,1.4,0.1,4c0,2.6,0,2.9-0.1,4c0,1-0.2,1.5-0.3,1.8c-0.2,0.5-0.4,0.8-0.7,1.1
			c-0.3,0.3-0.7,0.6-1.1,0.7c-0.4,0.1-0.9,0.3-1.8,0.3c-1,0-1.4,0.1-4,0.1c-2.6,0-2.9,0-4-0.1c-1,0-1.5-0.2-1.8-0.3
			c-0.5-0.2-0.8-0.4-1.1-0.7c-0.3-0.3-0.6-0.7-0.7-1.1c-0.1-0.3-0.3-0.9-0.3-1.8c0-1-0.1-1.4-0.1-4c0-2.6,0-2.9,0.1-4
			c0-1,0.2-1.5,0.3-1.8c0.2-0.5,0.4-0.8,0.7-1.1c0.3-0.3,0.7-0.6,1.1-0.7c0.3-0.1,0.9-0.3,1.8-0.3C305.4,86.8,305.7,86.8,308.4,86.8
			 M308.4,85c-2.7,0-3,0-4.1,0.1c-1,0-1.8,0.2-2.4,0.5c-0.6,0.3-1.2,0.6-1.7,1.1c-0.5,0.5-0.9,1.1-1.1,1.7c-0.2,0.6-0.4,1.3-0.5,2.4
			c0,1.1-0.1,1.4-0.1,4.1c0,2.7,0,3,0.1,4.1c0,1.1,0.2,1.8,0.5,2.4c0.3,0.6,0.6,1.2,1.1,1.7c0.5,0.5,1.1,0.9,1.7,1.1
			c0.6,0.2,1.3,0.4,2.4,0.5c1,0,1.4,0.1,4.1,0.1c2.7,0,3,0,4.1-0.1c1.1,0,1.8-0.2,2.4-0.5c0.6-0.3,1.2-0.6,1.7-1.1
			c0.6-0.5,0.9-1.1,1.1-1.7c0.2-0.6,0.4-1.3,0.5-2.4c0-1.1,0.1-1.4,0.1-4.1c0-2.7,0-3-0.1-4.1c-0.1-1.1-0.2-1.8-0.5-2.4
			c-0.3-0.6-0.6-1.2-1.1-1.7c-0.5-0.5-1.1-0.9-1.7-1.1c-0.6-0.2-1.3-0.4-2.4-0.5C311.4,85,311.1,85,308.4,85"/>
		<path class="st33" d="M308.4,89.8c-2.8,0-5.1,2.3-5.1,5.1c0,2.8,2.3,5.1,5.1,5.1c2.8,0,5.1-2.3,5.1-5.1
			C313.4,92.1,311.2,89.8,308.4,89.8 M308.4,98.2c-1.8,0-3.3-1.5-3.3-3.3c0-1.8,1.5-3.3,3.3-3.3c1.8,0,3.3,1.5,3.3,3.3
			C311.7,96.7,310.2,98.2,308.4,98.2"/>
		<path class="st31" d="M314.8,89.6c0,0.7-0.5,1.2-1.2,1.2c-0.7,0-1.2-0.5-1.2-1.2c0-0.7,0.5-1.2,1.2-1.2
			C314.3,88.4,314.8,89,314.8,89.6"/>
	</g>
	<g>
		<path class="st11" d="M199.1,49.7c0.4,0.4,0.4,1.2,0,1.6l0,0c-0.4,0.4-1.2,0.4-1.6,0l-9.2-9.2c-0.4-0.4-0.4-1.2,0-1.6l0,0
			c0.4-0.4,1.2-0.4,1.6,0L199.1,49.7z"/>
		
			<ellipse transform="matrix(0.7071 -0.7071 0.7071 0.7071 29.2256 138.4159)" class="st11" cx="181.7" cy="33.9" rx="10.4" ry="10.4"/>
		<path class="st12" d="M191.6,40.5l-1-1c-0.4,0.7-0.9,1.3-1.5,1.8c-0.6,0.6-1.2,1.1-1.8,1.5l1,1c0.9,0.9,2.4,0.9,3.3,0
			C192.5,42.9,192.5,41.4,191.6,40.5z"/>
		
			<ellipse transform="matrix(0.7071 -0.7071 0.7071 0.7071 29.2361 138.4306)" class="st34" cx="181.7" cy="33.9" rx="8.2" ry="8.2"/>
		
			<ellipse transform="matrix(0.7071 -0.7071 0.7071 0.7071 30.8563 135.8095)" class="st0" cx="179.4" cy="30.7" rx="3.3" ry="3.3"/>
	</g>
	<g>
		<path class="st10" d="M242.6,204.2c-1.9,0-3.5,1.6-3.5,3.5c0,1.9,1.6,3.5,3.5,3.5c1.9,0,3.5-1.6,3.5-3.5
			C246.1,205.8,244.6,204.2,242.6,204.2z M242.6,210.2c-1.4,0-2.5-1.1-2.5-2.5c0-1.4,1.1-2.5,2.5-2.5c1.4,0,2.5,1.1,2.5,2.5
			C245.1,209.1,244,210.2,242.6,210.2z"/>
		<circle class="st35" cx="236.3" cy="202.9" r="3"/>
	</g>
	<g>
		<path class="st10" d="M101,178.2c-1.9,0-3.5,1.6-3.5,3.5c0,1.9,1.6,3.5,3.5,3.5c1.9,0,3.5-1.6,3.5-3.5
			C104.5,179.8,102.9,178.2,101,178.2z M101,184.2c-1.4,0-2.5-1.1-2.5-2.5c0-1.4,1.1-2.5,2.5-2.5c1.4,0,2.5,1.1,2.5,2.5
			C103.4,183.1,102.3,184.2,101,184.2z"/>
		<circle class="st35" cx="94.6" cy="176.9" r="3"/>
	</g>
	<g>
		<path class="st10" d="M235.9,63.4c-2,0-3.7,1.7-3.7,3.7c0,2,1.7,3.7,3.7,3.7s3.7-1.7,3.7-3.7C239.6,65.1,237.9,63.4,235.9,63.4z
			 M235.9,69.8c-1.5,0-2.6-1.2-2.6-2.6c0-1.5,1.2-2.6,2.6-2.6c1.5,0,2.6,1.2,2.6,2.6C238.5,68.6,237.3,69.8,235.9,69.8z"/>
		<circle class="st35" cx="229.1" cy="62" r="3.2"/>
	</g>
	<g>
		<path class="st31" d="M293,206.1c-1.9,0-3.5,1.6-3.5,3.5c0,1.9,1.6,3.5,3.5,3.5c1.9,0,3.5-1.6,3.5-3.5
			C296.5,207.6,294.9,206.1,293,206.1z M293,212.1c-1.4,0-2.5-1.1-2.5-2.5c0-1.4,1.1-2.5,2.5-2.5c1.4,0,2.5,1.1,2.5,2.5
			C295.5,210.9,294.4,212.1,293,212.1z"/>
		<circle class="st35" cx="286.6" cy="204.7" r="3"/>
	</g>
	<g>
		<g id="plane_paper_3_">
			<polygon class="st16" points="112.2,88.1 122.7,65 101.6,80.2 			"/>
			<polygon class="st18" points="96.2,78.8 122.7,65 88.1,77.8 			"/>
			<polygon class="st36" points="98.3,85.1 101.6,80.2 122.7,65 96.2,78.8 			"/>
		</g>
	</g>
	<g>
		<g>
			
				<ellipse transform="matrix(0.4573 -0.8893 0.8893 0.4573 -50.9586 376.8806)" class="st0" cx="283.3" cy="230.2" rx="10.2" ry="10.2"/>
			<path class="st37" d="M287.3,222.5c-4.4-2.3-9.9-1-12.9,2.8c2.6-4.8,8.7-6.7,13.6-4.2c4.8,2.5,6.8,8.2,4.7,13
				C293.7,229.6,291.6,224.7,287.3,222.5z"/>
			<path class="st17" d="M287.9,221.2c5,2.5,6.9,8.6,4.4,13.6c-2.5,5-8.6,6.9-13.6,4.4c-5-2.5-6.9-8.6-4.4-13.6
				C276.9,220.6,283,218.7,287.9,221.2 M288.5,220.1c-5.6-2.9-12.5-0.7-15.3,4.9c-2.9,5.6-0.7,12.5,4.9,15.3
				c5.6,2.9,12.5,0.7,15.3-4.9C296.3,229.8,294.1,222.9,288.5,220.1L288.5,220.1z"/>
		</g>
		<g>
			<path class="st38" d="M283.6,222.2v-1.5h-0.4v1.5c0,0,0,0,0.1,0C283.4,222.2,283.5,222.2,283.6,222.2z"/>
			<path class="st38" d="M278.9,221.8l-0.3,0.2l0.8,1.3c0.1-0.1,0.2-0.1,0.3-0.2L278.9,221.8z"/>
			<path class="st38" d="M275.3,225.2l-0.2,0.3l1.3,0.7c0.1-0.1,0.1-0.2,0.2-0.3L275.3,225.2z"/>
			<path class="st38" d="M275.3,229.9h-1.5v0.4h1.5c0,0,0,0,0-0.1C275.3,230.1,275.3,230,275.3,229.9z"/>
			<path class="st38" d="M275,234.7l0.2,0.3l1.3-0.7c-0.1-0.1-0.1-0.2-0.2-0.3L275,234.7z"/>
			<path class="st38" d="M278.3,238.2l0.3,0.2l0.7-1.3c-0.1-0.1-0.2-0.1-0.3-0.2L278.3,238.2z"/>
			<path class="st38" d="M283,238.2v1.5h0.4v-1.5c0,0,0,0-0.1,0C283.2,238.2,283.1,238.2,283,238.2z"/>
			<path class="st38" d="M287.8,238.6l0.3-0.2l-0.8-1.3c-0.1,0.1-0.2,0.1-0.3,0.2L287.8,238.6z"/>
			<path class="st38" d="M291.4,235.2l0.2-0.3l-1.3-0.7c-0.1,0.1-0.1,0.2-0.2,0.3L291.4,235.2z"/>
			<path class="st38" d="M291.3,230.5h1.5v-0.4h-1.5c0,0,0,0,0,0.1C291.3,230.3,291.3,230.4,291.3,230.5z"/>
			<path class="st38" d="M291.7,225.7l-0.2-0.3l-1.3,0.7c0.1,0.1,0.1,0.2,0.2,0.3L291.7,225.7z"/>
			<path class="st38" d="M288.3,222.2L288,222l-0.8,1.3c0.1,0.1,0.2,0.1,0.3,0.2L288.3,222.2z"/>
		</g>
		<path class="st38" d="M283.7,230.4c-0.1,0.1-0.3,0.1-0.4,0l0,0c-0.1-0.1-0.1-0.3,0-0.4l5.9-5.7c0.1-0.1,0.3-0.1,0.4,0l0,0
			c0.1,0.1,0.1,0.3,0,0.4L283.7,230.4z"/>
		<path class="st38" d="M279.9,225.9c-0.1-0.1,0-0.3,0.1-0.4l0,0c0.1-0.1,0.3,0,0.4,0.1l3.1,4.4c0.1,0.1,0,0.3-0.1,0.4l0,0
			c-0.1,0.1-0.3,0-0.4-0.1L279.9,225.9z"/>
		<circle class="st38" cx="283.3" cy="230.2" r="0.7"/>
	</g>
	<g>
		<path class="st24" d="M384.2,194.4L384.2,194.4c1.5,0,2.7,1.2,2.7,2.7c0,1.5-1.2,2.7-2.7,2.7c-1.5,0-2.7-1.2-2.7-2.7
			C381.5,195.6,382.7,194.4,384.2,194.4z"/>
		<polygon class="st31" points="397.9,199.4 397.9,199.4 407.8,213.2 394.4,213.2 394,212.6 391.2,208.7 		"/>
		<polygon class="st39" points="379.5,213.2 379.5,213.2 386.4,203.6 390.6,209.5 393.2,213.2 388,213.2 		"/>
	</g>
	<path class="st22" d="M97.8,46.3l-0.6-1l2.2-1.2l0.6,1c0.9-0.3,1.9-0.4,2.8-0.3l0.3-1.1l2.4,0.7l-0.3,1.1c0.9,0.5,1.6,1.1,2.2,1.8
		l1-0.6l1.2,2.2l-1,0.6c0.3,0.9,0.4,1.9,0.3,2.8l1.1,0.3l-0.7,2.4l-1.1-0.3c-0.5,0.9-1.1,1.6-1.8,2.2l0.6,1l-2.2,1.2l-0.6-1
		c-0.9,0.3-1.9,0.4-2.8,0.3l-0.3,1.1l-2.4-0.7l0.3-1.1c-0.9-0.4-1.6-1.1-2.2-1.8l-1,0.6l-1.2-2.2l1-0.6c-0.3-0.9-0.4-1.9-0.3-2.8
		l-1.1-0.3l0.7-2.4l1.1,0.3C96.4,47.6,97,46.9,97.8,46.3L97.8,46.3z M100.7,56L100.7,56c2.4,0.7,5-0.6,5.7-3.1
		c0.7-2.4-0.6-5-3.1-5.7c-2.4-0.7-5,0.6-5.7,3.1C96.9,52.7,98.3,55.3,100.7,56z"/>
	<path class="st31" d="M309.6,115.6l-0.6-1l2.2-1.2l0.6,1c0.9-0.3,1.9-0.4,2.8-0.3l0.3-1.1l2.4,0.7l-0.3,1.1
		c0.9,0.5,1.6,1.1,2.2,1.8l1-0.6l1.2,2.2l-1.1,0.6c0.3,0.9,0.4,1.9,0.3,2.8l1.1,0.3l-0.7,2.4l-1.1-0.3c-0.4,0.9-1.1,1.6-1.8,2.2
		l0.6,1l-2.2,1.2l-0.6-1c-0.9,0.3-1.9,0.4-2.8,0.3l-0.3,1.1l-2.4-0.7l0.3-1.1c-0.9-0.4-1.6-1.1-2.2-1.8l-1,0.6l-1.2-2.2l1-0.6
		c-0.3-0.9-0.4-1.9-0.3-2.8l-1.1-0.3l0.7-2.4l1.1,0.3C308.2,117,308.8,116.2,309.6,115.6L309.6,115.6z M312.5,125.4L312.5,125.4
		c2.4,0.7,5-0.6,5.7-3.1c0.7-2.4-0.6-5-3.1-5.7c-2.4-0.7-5,0.6-5.7,3.1C308.7,122.1,310.1,124.7,312.5,125.4z"/>
	<path class="st29" d="M324.3,182.6l-0.5-0.9l1.9-1l0.5,0.9c0.8-0.2,1.6-0.3,2.4-0.2l0.3-1l2,0.6l-0.3,1c0.7,0.4,1.4,0.9,1.9,1.5
		l0.9-0.5l1,1.9l-0.9,0.5c0.2,0.8,0.3,1.6,0.2,2.4l1,0.3l-0.6,2l-1-0.3c-0.4,0.7-0.9,1.4-1.5,1.9l0.5,0.9l-1.9,1l-0.5-0.9
		c-0.8,0.2-1.6,0.3-2.4,0.2l-0.3,1l-2-0.6l0.3-1c-0.7-0.4-1.4-0.9-1.9-1.5l-0.9,0.5l-1-1.9l0.9-0.5c-0.2-0.8-0.3-1.6-0.2-2.4l-1-0.3
		l0.6-2l1,0.3C323.2,183.7,323.7,183.1,324.3,182.6L324.3,182.6z M326.8,190.8L326.8,190.8c2,0.6,4.2-0.5,4.8-2.6
		c0.6-2-0.5-4.2-2.6-4.8c-2-0.6-4.2,0.5-4.8,2.6C323.6,188,324.8,190.2,326.8,190.8z"/>
	<path class="st26" d="M160.1,171.1l-0.6-1l2.2-1.2l0.6,1c0.9-0.3,1.9-0.4,2.8-0.3l0.3-1.1l2.4,0.7l-0.3,1.1
		c0.9,0.5,1.6,1.1,2.2,1.8l1-0.6l1.2,2.2l-1,0.6c0.3,0.9,0.4,1.9,0.3,2.8l1.1,0.3l-0.7,2.4l-1.1-0.3c-0.5,0.9-1.1,1.6-1.8,2.2l0.6,1
		L167,184l-0.6-1c-0.9,0.3-1.9,0.4-2.8,0.3l-0.3,1.1l-2.4-0.7l0.3-1.1c-0.9-0.4-1.6-1.1-2.2-1.8l-1,0.6l-1.2-2.2l1-0.6
		c-0.3-0.9-0.4-1.9-0.3-2.8l-1.1-0.3l0.7-2.4l1.1,0.3C158.7,172.4,159.3,171.7,160.1,171.1L160.1,171.1z M163,180.9L163,180.9
		c2.4,0.7,5-0.6,5.7-3.1c0.7-2.4-0.6-5-3.1-5.7c-2.4-0.7-5,0.6-5.7,3.1C159.2,177.5,160.6,180.1,163,180.9z"/>
	<g>
		<polygon class="st20" points="117.1,107.2 107.3,114.3 97.5,107.2 107.3,100.1 		"/>
		<rect x="100.2" y="101.4" class="st40" width="14.3" height="17.4"/>
		<g>
			<g>
				<rect x="102.4" y="103.7" class="st41" width="4.1" height="0.8"/>
				<rect x="102.4" y="105.3" class="st41" width="9.9" height="0.8"/>
				<rect x="102.4" y="106.9" class="st41" width="9.9" height="0.8"/>
				<rect x="102.4" y="108.4" class="st41" width="9.9" height="0.8"/>
				<rect x="102.4" y="109.9" class="st41" width="9.9" height="0.8"/>
				<rect x="102.4" y="111.4" class="st41" width="9.9" height="0.8"/>
				<rect x="102.4" y="113" class="st41" width="9.9" height="0.8"/>
			</g>
		</g>
		<polygon class="st20" points="97.5,118.8 117.1,118.8 117.1,107.2 107.3,114.3 97.5,107.2 		"/>
		<polygon class="st42" points="97.5,118.8 117.1,118.8 109.1,113 105.5,113 105.5,113 		"/>
	</g>
	<path class="st43" d="M272.4,186.1h1.7c-0.5,1.1-1.3,1.9-2.4,2.5c-1.2,0.7-2.7,1-4.5,1c-1.7,0-3.2-0.3-4.4-0.9
		c-1.2-0.6-2.2-1.4-2.8-2.6c-0.6-1.1-0.9-2.4-0.9-3.7c0-1.5,0.3-2.8,1-4.1c0.7-1.3,1.6-2.2,2.8-2.8c1.2-0.6,2.6-0.9,4.1-0.9
		c1.3,0,2.5,0.3,3.5,0.8c1,0.5,1.8,1.2,2.3,2.2c0.5,0.9,0.8,2,0.8,3.1c0,1.3-0.4,2.5-1.2,3.6c-1,1.4-2.3,2-3.9,2
		c-0.4,0-0.8-0.1-1-0.2c-0.2-0.2-0.4-0.4-0.4-0.7c-0.6,0.6-1.3,0.9-2.1,0.9c-0.9,0-1.6-0.3-2.1-0.9c-0.6-0.6-0.9-1.4-0.9-2.4
		c0-1.2,0.3-2.3,1-3.3c0.8-1.2,1.9-1.8,3.2-1.8c0.9,0,1.6,0.4,2.1,1.1l0.2-0.9h2.1l-1.2,5.6c-0.1,0.4-0.1,0.6-0.1,0.7
		c0,0.1,0,0.2,0.1,0.3c0.1,0.1,0.1,0.1,0.2,0.1c0.2,0,0.6-0.1,1-0.5c0.5-0.4,1-0.9,1.3-1.6c0.3-0.7,0.5-1.4,0.5-2.1
		c0-1.3-0.5-2.3-1.4-3.2c-0.9-0.9-2.2-1.3-3.9-1.3c-1.4,0-2.6,0.3-3.6,0.9c-1,0.6-1.7,1.4-2.2,2.4c-0.5,1-0.7,2.1-0.7,3.3
		c0,1.1,0.3,2.1,0.8,3c0.6,0.9,1.3,1.6,2.3,2c1,0.4,2.1,0.6,3.4,0.6c1.2,0,2.3-0.2,3.2-0.5C271.2,187.3,271.9,186.8,272.4,186.1
		L272.4,186.1z M264,182.9c0,0.7,0.1,1.1,0.4,1.5c0.3,0.3,0.6,0.5,1,0.5c0.3,0,0.6-0.1,0.8-0.2c0.2-0.1,0.4-0.3,0.6-0.5
		c0.3-0.3,0.5-0.8,0.7-1.4c0.2-0.6,0.3-1.2,0.3-1.7c0-0.6-0.1-1-0.4-1.4c-0.3-0.3-0.6-0.5-1-0.5c-0.4,0-0.9,0.2-1.2,0.5
		c-0.4,0.3-0.7,0.8-0.9,1.5C264.1,181.8,264,182.4,264,182.9z"/>
	<g>
		<g>
			<rect x="345.5" y="203.4" class="st20" width="24.2" height="0.8"/>
			<rect x="364.3" y="187.2" class="st42" width="5.4" height="16.3"/>
			<rect x="358" y="193.3" class="st20" width="5.4" height="10.1"/>
			<rect x="351.8" y="196.7" class="st44" width="5.4" height="6.7"/>
			<rect x="345.5" y="193.6" class="st42" width="5.4" height="9.9"/>
		</g>
		<g>
			<circle class="st44" cx="343.5" cy="192.4" r="1.2"/>
			<polygon class="st42" points="372,179.6 369,179.6 370.1,181 371.1,182.5 			"/>
			<path class="st16" d="M344.5,191.1l8.7-6.5l0.3-0.2l0.2,0.3l4.1,4.9l11.5-8.6l0.2,0.3l0.2,0.3l-11.8,8.8l-0.3,0.2l-0.2-0.3
				l-4.1-4.9l-8.4,6.3C344.8,191.5,344.7,191.3,344.5,191.1z"/>
		</g>
	</g>
	<g>
		<path class="st45" d="M298.8,193.4c-7.5,0-13.7-6.1-13.7-13.7c0-7.5,6.1-13.7,13.7-13.7c7.5,0,13.7,6.1,13.7,13.7
			C312.4,187.2,306.3,193.4,298.8,193.4z"/>
		<path class="st0" d="M298.8,190.6c-6,0-10.9-4.9-10.9-10.9c0-6,4.9-10.9,10.9-10.9c6,0,10.9,4.9,10.9,10.9
			C309.7,185.7,304.8,190.6,298.8,190.6z"/>
		<path class="st45" d="M298.8,187.9c-4.5,0-8.2-3.7-8.2-8.2c0-4.5,3.7-8.2,8.2-8.2c4.5,0,8.2,3.7,8.2,8.2
			C307,184.2,303.3,187.9,298.8,187.9z"/>
		<circle class="st46" cx="298.8" cy="179.7" r="5.5"/>
		<circle class="st45" cx="298.8" cy="179.7" r="2.7"/>
		<g>
			<polygon class="st47" points="310.9,168.1 314.7,168.7 318.2,165.3 314.4,164.9 			"/>
			<polygon class="st48" points="313.2,165.8 317.2,166.4 317,166.5 313,165.9 			"/>
			<polygon class="st48" points="311.9,167 315.9,167.6 315.7,167.7 311.7,167.2 			"/>
		</g>
		<g>
			<polygon class="st47" points="310.4,167.6 309.8,163.9 313.2,160.3 313.6,164.2 			"/>
			<polygon class="st48" points="312.7,165.4 312.1,161.4 312,161.5 312.6,165.6 			"/>
			<polygon class="st48" points="311.5,166.7 310.9,162.7 310.8,162.9 311.3,166.9 			"/>
		</g>
		<path class="st49" d="M299.2,180.1L299.2,180.1c-0.1,0.1-0.3,0.2-0.4,0.2c-0.3,0-0.6-0.3-0.6-0.6c0-0.2,0.1-0.3,0.2-0.4h0
			l15.2-15.1l0.8,0.8L299.2,180.1z"/>
		<path class="st50" d="M289.7,169.6c-0.4,0.3-0.4,0.4-0.9,0.8l9.5,9.5l0.4-0.5l0.4-0.3L289.7,169.6z"/>
	</g>
	<g>
		<path class="st23" d="M236.8,37c-2,0-4,0-5.9,0c-0.1,0.6,0,1.2-0.2,1.8c-0.3,1.2-1.4,2-2.6,2.1c-1.3,0.1-2.5-0.7-3-1.9
			c-0.5-1.2-0.2-2.6,0.8-3.3c0.5-0.4,0.5-0.7,0.3-1.2c-1.7-4.3-3.3-8.7-5-13c-0.2-0.6-0.5-0.8-1-0.7c-0.6,0.1-1.1,0-1.7,0
			c-0.7,0-1.2-0.4-1.2-1c0-0.6,0.4-1,1.1-1c1,0,2,0,3.1,0c0.6,0,1,0.3,1.2,0.8c0.3,0.7,0.6,1.4,0.8,2.2c0.2,0.6,0.5,0.7,1.1,0.7
			c6.2,0,12.4,0,18.7,0c0.3,0,0.5,0,0.8,0c0.8,0.1,1.2,0.6,0.9,1.3c-0.9,3-1.8,6-2.8,8.9c-0.2,0.7-0.8,0.8-1.4,0.8
			c-3.9,0-7.8,0-11.7,0c-0.3,0-0.6,0-0.8,0c0.2,1.4,0.3,1.4,1.5,1.4c3.3,0,6.6,0,9.9,0c2,0,3.4,1.7,3,3.6c-0.3,1.6-1.7,2.6-3.3,2.4
			c-1.5-0.2-2.7-1.6-2.6-3.2C236.7,37.4,236.7,37.2,236.8,37z M224.6,24.4c0.4,1,0.7,1.9,1.1,2.8c0.1,0.1,0.3,0.3,0.4,0.3
			c1.5,0,2.9,0,4.5,0c-0.1-1.1-0.2-2.1-0.3-3.1C228.3,24.4,226.5,24.4,224.6,24.4z M237,27.5c1.5,0,2.8,0,4.2,0
			c0.2,0,0.4-0.1,0.5-0.3c0.3-0.9,0.6-1.9,0.9-2.8c-1.8,0-3.5,0-5.3,0C237.2,25.4,237.1,26.4,237,27.5z M236.2,24.4
			c-1.6,0-3.2,0-4.9,0c0.1,0.9,0.1,1.8,0.2,2.6c0,0.2,0.3,0.4,0.5,0.5c1.1,0,2.3,0,3.4,0c0.2,0,0.5-0.3,0.5-0.5
			C236.1,26.2,236.1,25.3,236.2,24.4z M235.9,28.6c-1.4,0-2.8,0-4.3,0c0.1,0.9,0.2,1.8,0.2,2.7c1.3,0,2.5,0,3.8,0
			C235.7,30.4,235.8,29.5,235.9,28.6z M226.2,28.6c0.3,0.9,0.6,1.7,0.9,2.4c0.1,0.1,0.2,0.3,0.4,0.3c1.1,0,2.2,0,3.4,0
			c-0.1-1-0.2-1.9-0.2-2.8C229.1,28.6,227.7,28.6,226.2,28.6z M241.2,28.6c-1.5,0-2.9,0-4.3,0c-0.1,0.9-0.1,1.8-0.2,2.8
			c1.2,0,2.3,0,3.4,0c0.2,0,0.4-0.2,0.4-0.3C240.8,30.2,241,29.4,241.2,28.6z M239.7,36.9c-0.5,0-1,0.4-1,1c0,0.6,0.4,0.9,0.9,0.9
			c0.5,0,1-0.5,1-1C240.6,37.3,240.3,37,239.7,36.9z M228.8,37.8c0-0.5-0.5-1-1-0.9c-0.6,0.1-0.9,0.4-0.9,1c0,0.6,0.4,0.9,0.9,0.9
			C228.3,38.8,228.8,38.4,228.8,37.8z"/>
	</g>
	<g>
		<path class="st9" d="M131.1,169.8c-6.1,0-11.1,5-11.1,11.1c0,1.9,0.5,3.7,1.3,5.3v-2.9c0-0.5,0.2-1,0.5-1.5c0-0.3,0-0.6,0-0.9
			c0-5.1,4.2-9.3,9.2-9.3c5.1,0,9.3,4.2,9.3,9.3c0,0.3,0,0.7-0.1,1c0.3,0.4,0.5,0.9,0.5,1.4v3.1c0.9-1.7,1.4-3.5,1.4-5.5
			C142.2,174.8,137.3,169.9,131.1,169.8z"/>
		<path class="st2" d="M122.1,182.8c0,0.2-0.1,0.3-0.1,0.5v2.8v1.3c0,1.3,1.5,2.3,3.4,2.3h1.4V181h-1.4
			C123.8,181,122.4,181.8,122.1,182.8z"/>
		<path class="st2" d="M140.2,187.5v-1.4v-2.8c0-0.1,0-0.2,0-0.3c-0.2-1.1-1.6-2-3.4-2h-1.4v8.8h1.4
			C138.7,189.8,140.2,188.8,140.2,187.5z"/>
	</g>
	<g>
		<g>
			<g>
				<ellipse class="st51" cx="62.5" cy="145.3" rx="6.1" ry="1.9"/>
			</g>
		</g>
		<g>
			<path class="st52" d="M62.8,144.3l-7.2-12.5c-0.7-1.3-1.2-2.7-1.2-4.3c0-4.6,3.8-8.4,8.4-8.4c4.6,0,8.4,3.7,8.4,8.4
				c0,1.6-0.4,3-1.2,4.3L62.8,144.3z"/>
			<path class="st53" d="M62.8,133.5c3.3,0,5.9-2.7,5.9-5.9c0-3.3-2.7-5.9-5.9-5.9c-3.3,0-5.9,2.7-5.9,5.9
				C56.9,130.8,59.5,133.5,62.8,133.5z"/>
		</g>
	</g>
	<g>
		<g>
			<path class="st11" d="M23.8,126.1h13.8c1,0,1.9,0.8,1.9,1.9v6.2v1v4.9l-3-3H23.8c-1,0-1.9-0.8-1.9-1.9V128
				C21.9,127,22.8,126.1,23.8,126.1z"/>
			<path class="st12" d="M31.9,128.5h-10v6.6c0,1,0.8,1.9,1.9,1.9H34v-6.4C34,129.5,33.1,128.5,31.9,128.5z"/>
			<path class="st24" d="M30.9,130.1H17.1c-1,0-1.9,0.8-1.9,1.9v6.2v1v4.9l3-3h12.7c1,0,1.9-0.8,1.9-1.9v-7.2
				C32.8,130.9,32,130.1,30.9,130.1z"/>
		</g>
	</g>
	<g>
		
			<rect x="83.3" y="143.6" transform="matrix(0.9913 -0.1318 0.1318 0.9913 -19.2511 12.5471)" class="st42" width="3.7" height="16.3"/>
		
			<rect x="84" y="144.3" transform="matrix(0.9913 -0.1319 0.1319 0.9913 -19.272 12.5628)" class="st42" width="2.3" height="14.8"/>
		<path class="st42" d="M85.7,138.1c1.4,0.6,2.4,1.9,2.7,3.5c0.3,2.5-1.4,4.8-3.9,5.1c-2.5,0.3-4.8-1.4-5.1-3.9
			c-0.2-1.6,0.5-3.2,1.6-4.1l0.3,2.5l0.2,1.3l1.3,0.5l1.3,0.5l1.1-0.8l1.1-0.8l-0.2-1.3L85.7,138.1z"/>
		<path class="st42" d="M89.3,164.7c1.2-1,1.9-2.5,1.6-4.1c-0.3-2.5-2.6-4.2-5.1-3.9c-2.5,0.3-4.2,2.6-3.9,5.1
			c0.2,1.6,1.3,2.9,2.7,3.5l-0.3-2.5l-0.2-1.4l1.1-0.8l1.1-0.8l1.3,0.5l1.3,0.5l0.2,1.3L89.3,164.7z"/>
		<path class="st20" d="M89.8,163c0.4-0.7,0.5-1.5,0.4-2.3c-0.3-2.1-2.2-3.5-4.3-3.3c-2.1,0.3-3.5,2.2-3.3,4.3
			c0.1,0.8,0.5,1.5,1,2.1l-0.4-2.7l2.8-2.2l3.3,1.4L89.8,163z"/>
		<path class="st20" d="M80.5,140.4c-0.4,0.7-0.5,1.5-0.4,2.3c0.3,2.1,2.2,3.5,4.3,3.3c2.1-0.3,3.5-2.2,3.3-4.3
			c-0.1-0.8-0.5-1.5-1-2.1l0.4,2.7l-2.8,2.2l-3.3-1.4L80.5,140.4z"/>
	</g>
	<g>
		<path class="st54" d="M352.3,166.7c0,0.1-1.9,7.2-9.1,7.2c-6.3,0-9.3-5.5-9.3-5.5c-0.5,0-0.9-0.1-1.3-0.2
			c-1.8-0.7-2.7-2.8-2.1-4.6l-1-0.8c-3.9-3,7.2-16.7,11.1-13.6c0,0,0.9,0.8,0.9,0.8c1.4-0.9,2.8-1.3,3.9-1.3c0.8,0,1.5,0.2,1.9,0.7
			c1,1.1,0.6,3.2-0.7,5.4c0.3,0.3,0.5,0.7,0.7,1.1c0.4,0.3,0.7,0.9,0.9,1.6c0.2,0.8,0.2,1.9,0.3,2.4c0.4,0.2,0.2,0.1,0.6,0.3
			c0.4,0.2,0.9,0.5,1.5,1c1,0.2,1.4,1.3,0.8,2c0,0-0.1,0.1-0.1,0.2c0,0,0.2,0.4,0.3,1c0.4,0.1,0.7,0.4,0.9,0.7
			C352.9,165.9,352.3,166.7,352.3,166.7z M349.4,172.1v0.3h0.1v-0.3h0.1V172h-0.3v0.1H349.4z M349.7,172v0.4h0.1v-0.3l0.1,0.3h0.1
			l0.1-0.3v0.3h0.1V172H350l-0.1,0.2l-0.1-0.2H349.7z"/>
		<path class="st55" d="M335.3,164L335.3,164L335.3,164c0.2-0.4,0.2-0.7,0.2-0.7c0.2,0.6,0.3,1.1,0.2,1.7l0,0l0,0
			c0.2-0.2,0.3-0.6,0.3-0.6c0.3,1.6-0.9,3.2-2.5,3.2c-1.4,0-2.6-1.2-2.6-2.7c0-1.5,1.1-2.7,2.6-2.7c0.4,0,0.7,0.1,1,0.2
			C334.6,162.5,335.2,162.8,335.3,164z M349.2,169.8c2-1.5,2.3-3.4,2.3-3.5c0.5-0.6,0.4-1.2-0.3-1.2c-0.2,0-0.4,0.1-0.4,0.1
			s0-0.8-0.4-1.5c-0.3,0.3-1.1,1-2.2,1.5c-1,0.5-2.4,0.9-4.1,1l0,0c-0.5,0-0.8-0.1-0.9,0.5c-0.1,0.2,0,0.5,0,0.6
			c0.1,0.5,0.5,0.7,1,0.8c0.3,0.1,0.7,0.1,0.7,0.1c3.5,0.1,6.2-2.6,6.3-2.6c0,0,0.1-0.1,0.1-0.1l0,0.1c-0.5,1.1-3.4,3.2-6.3,3.1h0
			c-0.7,0-1.5-0.2-1.9-0.7c-0.7-0.8-0.3-2.2,0.7-2.2c0,0,0.2,0,0.4,0c2.6-0.1,5-1.1,6.7-3.1c0.2-0.3,0-0.7-0.5-0.7l0,0
			c-0.6-0.6-1.1-0.9-1.6-1.1c-1-0.5-0.9-0.1-1.1-2.5c-0.1-0.7-0.2-1.5-0.8-1.9c-0.1-0.1-0.3-0.1-0.5-0.1c-0.2,0-0.3,0-0.3,0
			c-0.3,0.1-0.5,0.3-0.7,0.5c-1.1,1-1.9,0.7-3.2,0.7c-1.2,0-2.2,0.8-2.4,2.1l0,0c-0.1,0.7,0,1.3,0.1,1.6c0,0-0.3-0.2-0.5-0.4
			c0.2,1.2,1.2,1.9,1.2,1.9c-0.2,0-0.4,0-0.4,0s0.6,0.5,1.1,0.6c-0.1,0.1-0.8,0.8-1.2,1.7c-0.3,0.9-0.2,1.9-0.2,1.9l0.3-0.4
			c0,0-0.2,1,0.2,1.9c0.1-0.3,0.4-0.8,0.4-0.8s0,1,0.5,1.9c0-0.2,0.1-0.7,0.1-0.7s0.3,0.9,1,1.5
			C343.4,171.6,346.7,171.8,349.2,169.8z"/>
		<path class="st56" d="M330.8,162.9c0,0-1-0.7-1.1-0.9c-0.8-1.3,0.6-4.1,1.6-5.7c2.4-3.9,6.5-6.9,8.3-6.5l1.9,1
			c-0.7,0.4-1.4,1-1.9,1.3l-0.4,0.3c0,0-1.2,0.8-1.8,1.3c-2.3,2-4.7,5.1-5.5,8.1C332,161.8,331.3,162.2,330.8,162.9z"/>
		<path class="st57" d="M339.7,149.8L339.7,149.8c-1.8-0.4-5.9,2.6-8.3,6.5l0,0h0l1.9,1.5c2.1-3.4,4.8-5.1,4.9-5.2l-0.3-2.1l0.6-0.3
			l1.2,0.4l-0.1-0.4L339.7,149.8L339.7,149.8z"/>
		<path class="st58" d="M341.6,150.8l-1.9,1.3l-0.1,0.1l-1.7-1.4l0-0.3l0.6-0.3c0,0,1.1,0.4,1.2,0.4l0-0.7l0-0.2l0.5-0.2
			C340.2,149.6,341.6,150.8,341.6,150.8z"/>
		<g>
			<path class="st59" d="M345.2,149.5c-1.2,0-2.6,0.7-3.7,1.3c-0.1,0.1-0.3,0.2-0.4,0.3l-0.6-0.5l0.2,0.7c-0.1,0.1-0.2,0.1-0.2,0.2
				l-1.2-0.4l0.8,0.6c-0.2,0.1-0.3,0.3-0.5,0.4l-1.8-1.5l0.1,0.7l1.3,1.2c0,0-1.2,0.8-1.8,1.3c-2.3,2-4.7,5.1-5.5,8.1l0.1,0
				c0,0,0,0,0,0c0,0,0.1,0,0.1,0c0,0,0,0,0.1,0c0,0,0,0,0.1,0c0,0,0,0,0,0c0,0,0.1,0,0.1,0c0,0,0,0,0,0c0,0,0.1,0,0.1,0
				c0.6-0.2,1.4-0.3,2.3,0.1c0.5-1.2,1-2.4,1.9-3.5c0.7-0.9,1.4-1.8,2.2-2.2c1.5-1.5,5.7-3,7.1-1.7c0.3-0.5,0.6-1,0.8-1.6
				C347.4,151.2,347.4,149.5,345.2,149.5z"/>
			<polygon class="st59" points="339.9,150.8 339.7,149.8 339.5,150.3 339.6,150.7 			"/>
		</g>
		<path class="st0" d="M350.9,165.3c0,0,0-0.8-0.4-1.5c-0.3,0.3-1.1,1-2.2,1.5c-1,0.5-2.4,0.9-4.1,1l0,0c-0.5,0-0.8-0.1-0.9,0.5
			c0,0.1,0,0.1,0,0.2v0l0,0c0,0,0,0,0,0.1c0,0,0,0.1,0,0.1l0,0v0c0,0,0,0,0,0.1l0,0l0,0c0,0.1,0,0.1,0,0.1v0v0
			c0.1,0.5,0.5,0.7,0.9,0.8c0.3,0.1,0.7,0.1,0.7,0.1c2.8,0.1,5.2-1.7,6-2.4C350.9,165.6,350.9,165.5,350.9,165.3z M342.8,150.1
			c0.7-0.3,1.4-0.6,2.1-0.6c-0.7,0.2-1.5,0.5-2.5,1.1c0,0-2.4,1.6-3.8,3c-0.8,0.8-3.9,4.5-3.9,4.5c0.6-1.1,0.9-1.6,1.8-2.7
			c0.5-0.6,1.1-1.3,1.6-1.8c0.2-0.2,0.4-0.4,0.6-0.6l0,0l0,0C338.8,152.9,340.4,151.3,342.8,150.1z"/>
		<path class="st60" d="M349.2,169.8c-0.3,0.3-0.7,0.5-1.1,0.7c-0.8-0.3-1.3-1-1.3-1s0.7-0.2,1.7-0.7c1.2-0.6,2.2-1.4,3.1-2.5
			C351.5,166.4,351.2,168.3,349.2,169.8z M346.9,160.8c-0.4-0.3-1.1-0.1-1.2,0.4c0.2,0,0.5,0.2,0.5,0.4c0.2-0.2,0.4-0.3,0.6-0.3
			C346.7,161.3,346.7,161,346.9,160.8z M342.7,166.6c0.1-0.5,0.5-0.8,1-0.9c0,0,0.2,0,0.4,0c2.6-0.1,5-1.1,6.7-3.1
			c0.2-0.3,0-0.7-0.5-0.7h0c-0.1,0.1-0.1,0.3-0.2,0.5c-0.5,0.9-1.2,1.3-2.2,1.8c-2.9,1.4-4.4,0.8-5,1.7
			C342.6,166.2,342.6,166.5,342.7,166.6L342.7,166.6z M348,160.5c-0.3-0.2-0.3-0.5-0.4-2.2c-0.1-0.5-0.1-1.2-0.5-1.6
			c-0.1-0.1-0.2-0.1-0.3-0.1c-0.2,0-0.4,0.2-0.6,0.3c-0.4,0.5-0.7,0.9-1.3,1.2c-0.6,0.3-1.2,0.4-1.8,0.4c-0.4,0-0.8-0.1-1.2-0.1
			c-0.7,0-1.3,0.2-1.8,0.8c-0.3,0.4-0.4,0.8-0.5,1.3c0,0.1,0,0.1,0,0.2c0,0.1,0,0.2,0,0.2c0,0.3,0.1,0.4,0.1,0.4v0c0,0,0,0,0,0
			c0,0-0.3-0.2-0.5-0.4c0.2,1,0.9,1.7,1.2,1.9c0,0,0,0,0,0l0,0c0,0,0,0,0,0c-0.2,0-0.4,0-0.4,0s0.6,0.5,1.1,0.6
			c0.7-0.6,1.5-0.8,2.1-0.9c0.4-0.2,0.8-0.5,1.3-0.7c-0.1-0.9,0.6-1.7,1.6-1.8c0.7,0,1.1,0.3,1.3,0.6
			C347.6,160.7,347.8,160.6,348,160.5C348,160.6,348,160.6,348,160.5z M348.3,166.3C348.3,166.3,348.3,166.3,348.3,166.3
			c-0.3,0.1-3.3,1.2-5.2,0.6c0,0.1,0,0.3,0,0.4l0,0c0.3,0.1,0.6,0.1,1.1,0.1C346.7,167.4,348.5,166.3,348.3,166.3z M334.5,166.1
			L334.5,166.1c0.2-0.2,0.2-0.4,0.2-0.6c-0.1-0.3-0.4-0.4-0.6-0.6l0,0l0,0l0,0c-0.1-0.1-0.1-0.3-0.1-0.4c0-0.3,0.3-0.4,0.5-0.4
			c0,0,0.2,0,0.3,0.2l0,0c0-0.1,0-0.2-0.1-0.3c-0.2-0.2-0.6-0.5-1.1-0.4l0,0c-0.1,0,0,0-0.1,0c0,0,0,0,0,0c0,0-0.1,0-0.1,0l0,0
			c0,0-0.1,0.1-0.2,0.1C332.3,164.7,333.4,166.2,334.5,166.1z"/>
		<path class="st61" d="M343.8,161c0,0.1,0.1,0.1,0,0.2c0,0-0.2,0-0.4-0.1c-0.6-0.2-1-0.3-1.8,0c-0.2,0.1-0.3,0.1-0.4,0.1
			c-0.1,0,0-0.2,0.2-0.4c0.5-0.4,1.1-0.5,1.7-0.3C343.4,160.7,343.7,160.8,343.8,161z M343.7,161.6c-0.2-0.1-0.4-0.2-0.8-0.1
			c-0.1,0-0.1,0-0.2,0c0,0,0,0-0.1,0c-0.1,0-0.2,0.1-0.3,0.2c-0.1,0.1-0.2,0.2-0.1,0.3c0,0,0.1,0,0.2-0.1c0.4-0.2,0.7-0.2,1-0.2
			c0.2,0,0.2,0,0.3,0C343.8,161.7,343.8,161.7,343.7,161.6z M334.4,163.9L334.4,163.9L334.4,163.9c0.1,0.1,0.1,0.1,0.2,0.2
			c0.1,0.2,0.1,0.3,0.2,0.4c0,0,0,0,0.1,0c0.1,0,0.1-0.2,0.1-0.2l0,0l0,0l0,0c0-0.2-0.1-0.4-0.2-0.6l0,0l0,0l0,0
			c-0.1-0.1-0.2-0.2-0.3-0.3c-0.1-0.1-0.3-0.1-0.5-0.2c-0.3,0-0.6,0-0.7,0l0,0c0,0-0.1,0-0.1,0c-0.5,0.2-0.8,0.5-1,1l0,0l0,0
			c-0.1,0.2-0.1,0.3-0.1,0.5c0,0.1,0,0.3,0,0.4l0,0l0,0l0,0c0,0.2,0.1,0.4,0.3,0.5l0,0l0,0l0,0c0.2,0.2,0.3,0.1,0.3,0
			c0,0-0.1-0.2-0.1-0.6c0-0.2,0-0.5,0.1-0.7c0-0.1,0.1-0.2,0.2-0.3c0.2-0.2,0.4-0.3,0.4-0.3l0,0c0,0,0.1,0,0.1,0c0,0,0,0,0,0
			c0.1,0,0,0,0.1,0l0,0C333.8,163.6,334.1,163.7,334.4,163.9z M334.3,164.6c-0.1,0-0.1-0.1-0.1-0.1c0-0.1,0-0.2,0.1-0.2
			c0.1,0,0.1-0.1,0.1-0.1c0-0.1-0.2-0.1-0.4,0.1c-0.1,0.1-0.2,0.4,0,0.6c0.2,0.2,0.6,0.3,0.6,0.6c0,0,0,0.1,0,0.1c0,0.1,0,0.1,0,0.1
			c-0.1,0.3-0.4,0.6-0.8,0.5c-0.1,0-0.1,0-0.2,0c0,0,0.2,0.3,0.5,0.3c0.4,0,0.7-0.3,0.8-0.7c0,0,0-0.1,0-0.2c0-0.1,0-0.1,0-0.2
			C335,164.9,334.5,164.8,334.3,164.6z M347,160.8c-0.1,0-0.3,0.1-0.3,0.3c0,0.2,0.1,0.4,0.2,0.4c0.1,0,0.3-0.1,0.3-0.3
			C347.3,161.1,347.2,160.9,347,160.8z M345.5,161.4c-0.1,0.1,0,0.4,0.2,0.5c0.2,0.1,0.4,0.1,0.5-0.1c0.1-0.1,0-0.4-0.2-0.5
			C345.8,161.3,345.5,161.3,345.5,161.4z M339.6,155.6c2.7-1.8,5.5-2,6.4-1.3l0,0l0-0.1l0,0c-0.2-0.5-0.8-0.9-1.3-1
			c0.1,0.1,0.2,0.2,0.3,0.3c-0.4-0.3-0.9-0.5-1.4-0.6c0,0,0.1,0.1,0.1,0.1c0.1,0.1,0.2,0.2,0.3,0.4c-0.5-0.2-1.1-0.3-1.7-0.2
			c0,0-0.1,0-0.1,0s0.1,0,0.1,0c0.2,0.1,0.4,0.2,0.5,0.3c-0.9-0.2-1.9,0-2.4,0.3c0.1,0,0.1,0,0.1,0c0.2,0,0.6,0,0.8,0.1
			c-0.6,0.1-1.4,0.4-1.8,0.7c0.1,0,0.5-0.1,0.7,0c-2.4,1.4-3.5,3.5-3.5,3.5l0,0C337.5,157.3,338.4,156.4,339.6,155.6z"/>
		<path class="st54" d="M346.1,159.4c0-0.2,0-0.5,0.2-0.6l0,0l0,0l0,0c0.3-0.1,0.7,0.7,0.7,1.4c-0.2-0.1-0.5-0.2-0.8-0.1
			C346.1,159.9,346.1,159.7,346.1,159.4z"/>
	</g>
	<polygon class="st62" points="235.8,154.4 237.4,158.5 240,159.7 234.8,162.7 234.8,149.6 231,148.3 231,164.8 234.8,166.9 
		244.1,161.6 244.1,157.3 	"/>
	<g>
		<path class="st63" d="M165.5,96.3c-0.3-1-1-1.8-2-2c-1.8-0.5-9-0.5-9-0.5s-7.2,0-9,0.5c-1,0.3-1.8,1-2,2c-0.5,1.8-0.5,5.5-0.5,5.5
			s0,3.7,0.5,5.5c0.3,1,1,1.8,2,2c1.8,0.5,9,0.5,9,0.5s7.2,0,9-0.5c1-0.3,1.8-1,2-2c0.5-1.8,0.5-5.5,0.5-5.5S165.9,98.1,165.5,96.3z
			"/>
		<polygon class="st0" points="152.2,105.2 158.1,101.8 152.2,98.3 		"/>
	</g>
	<g>
		<g>
			<path class="st64" d="M56.4,94.6c0.4-0.3,1-0.3,1.5-0.3c2.8,0,5.7,0,8.5,0v0.1c0,1.4,0,2.8,0.1,4.2c0,1.1,0,2.2-0.5,3.2
				c-0.8,1.7-2.5,2.9-4.3,3c-1.9,0.1-3.9,0-5.8,0h-0.1c0-2.9,0-5.8,0-8.7C55.8,95.6,55.9,94.9,56.4,94.6z"/>
		</g>
		<g>
			<path class="st65" d="M66.4,94.4c1.4,0,2.9,0,4.4,0c0.7,0,1.3,0.6,1.3,1.3c0,2.2,0,4.4,0,6.5c0,1.7-0.5,3.4-1.5,4.7
				c-1.4,2-3.7,3.2-6.1,3.4c-2.2,0.2-4.4,0-6.5,0.1c-0.7,0-1.8-0.1-1.9-1c-0.1-1.5,0-3,0-4.6c1.9,0,3.9,0.1,5.8,0
				c1.8-0.1,3.5-1.4,4.3-3c0.5-1,0.5-2.1,0.5-3.2C66.5,97.2,66.5,95.8,66.4,94.4z"/>
		</g>
	</g>
</g>
</svg>
