<?xml version="1.0" encoding="iso-8859-1"?>
<!-- Generator: Adobe Illustrator 22.0.0, SVG Export Plug-In . SVG Version: 6.00 Build 0)  -->
<svg version="1.1" id="Layer_1" xmlns="http://www.w3.org/2000/svg" xmlns:xlink="http://www.w3.org/1999/xlink" x="0px" y="0px"
	 viewBox="0 0 500 431.818" style="enable-background:new 0 0 500 431.818;" xml:space="preserve">
<g>
	<g style="opacity:0.1;">
		<path style="fill:#4DF0F4;" d="M394.661,269.37c-0.235-0.052-0.476-0.058-0.713-0.086l6.437-106.394
			c2.953-0.278,5.525-2.391,6.199-5.441c0.836-3.785-1.549-7.535-5.339-8.372c-1.775-0.392-3.524-0.055-4.985,0.776l-56.289-88.212
			c1.126-0.957,1.969-2.25,2.312-3.802c0.837-3.786-1.554-7.532-5.343-8.369c-3.258-0.72-6.472,0.953-7.844,3.848l-99.411-39.081
			c0.764-3.746-1.606-7.424-5.353-8.252c-3.785-0.836-7.535,1.553-8.372,5.338c-0.277,1.255-0.174,2.496,0.195,3.635L115.15,41.155
			c-0.927-1.76-2.57-3.13-4.664-3.593c-3.785-0.836-7.537,1.557-8.373,5.342c-0.548,2.48,0.31,4.934,2.017,6.568l-65.549,79.636
			c-0.785-0.604-1.703-1.061-2.738-1.289c-3.786-0.837-7.537,1.557-8.373,5.342c-0.836,3.785,1.558,7.533,5.343,8.369
			c0.246,0.054,0.492,0.06,0.74,0.088l-6.156,101.774c-3.43-0.265-6.627,1.997-7.391,5.455c-0.837,3.789,1.558,7.533,5.343,8.369
			c1.191,0.263,2.364,0.176,3.456-0.139l57.937,90.8c-1.007,0.939-1.758,2.178-2.076,3.615c-0.837,3.789,1.557,7.537,5.342,8.373
			c2.867,0.634,5.707-0.588,7.279-2.859l99.327,39.047c-0.056,0.183-0.135,0.356-0.177,0.55c-0.838,3.792,1.549,7.534,5.338,8.372
			c3.785,0.836,7.535-1.549,8.373-5.342c0.264-1.194,0.171-2.377-0.147-3.477l102.674-26.631c0.929,1.757,2.565,3.12,4.658,3.583
			c3.785,0.837,7.533-1.558,8.37-5.346c0.561-2.541-0.356-5.047-2.151-6.685l65.301-79.324c0.8,0.626,1.73,1.098,2.777,1.329
			c3.789,0.837,7.539-1.552,8.376-5.337C400.845,273.95,398.45,270.207,394.661,269.37z M320.365,359.388
			c-0.136-0.03-0.265-0.023-0.395-0.048l1.672-14.604c2.905,0.172,5.593-1.764,6.241-4.699c0.516-2.333-0.414-4.642-2.173-6.026
			l14.775-17.464l10.94-12.93c0.141,0.103,0.304,0.175,0.451,0.263l-30.014,56.038C321.397,359.688,320.893,359.505,320.365,359.388
			z M311.989,364.729c-0.113,0.512-0.144,1.014-0.145,1.519l-27.799-1.795c-0.008-0.956-0.246-1.908-0.699-2.796l33.619-19.606
			c0.839,1.263,2.135,2.222,3.731,2.575c0.099,0.022,0.192,0.015,0.288,0.032l-1.673,14.607
			C315.909,359.036,312.748,361.293,311.989,364.729z M204.805,391.262c-2.617-0.578-5.192,0.4-6.822,2.304l-19.794-15.413
			c0.785-1.143,1.171-2.51,1.116-3.883l48.932-4.745l23.977,3.09c-0.137,1.016-0.035,2.013,0.302,2.919L209.228,394.4
			C208.271,392.86,206.721,391.686,204.805,391.262z M98.426,354.122c0.586-3.642-1.735-7.162-5.388-7.969
			c-1.491-0.329-2.962-0.134-4.259,0.427l-7.237-19.584c0.309-0.135,0.617-0.273,0.913-0.459c0.922-0.592,1.612-1.39,2.104-2.284
			l9.256,5.439c0.376,0.314,0.801,0.571,1.273,0.755l43.919,25.824c-0.161,0.315-0.295,0.631-0.374,0.992
			c-0.048,0.216-0.077,0.436-0.092,0.648L98.426,354.122z M29.492,243.871l5.418-16.545c0.89,0.241,1.829,0.289,2.752,0.127
			l23.481,53.888c-1.567,0.088-3.01,0.771-4.058,1.892l-25.119-28.059c0.842-0.892,1.473-2.006,1.759-3.295
			C34.477,248.477,32.614,245.133,29.492,243.871z M50.868,154.12l11.287,12.936c-0.815,0.791-1.416,1.819-1.68,3.014
			c-0.55,2.489,0.53,4.947,2.521,6.29L39.51,215.676c-0.66-0.345-1.36-0.595-2.09-0.693L50.868,154.12z M40.088,130.718
			l15.86-12.041c0.506,0.589,1.11,1.061,1.758,1.423l-7.204,32.603l-11.325-12.981c0.964-0.925,1.694-2.12,2.006-3.531
			C41.619,134.211,41.159,132.263,40.088,130.718z M66.114,111.196c-0.047-0.074-0.11-0.132-0.165-0.208l29.262-25.922
			l-12.939,42.478c-0.086-0.027-0.162-0.06-0.245-0.078c-0.929-0.205-1.853-0.111-2.68,0.208l-0.522,0.258
			c-0.42,0.225-0.79,0.514-1.12,0.855l-11.945-10.321C67.352,116.411,67.591,113.512,66.114,111.196z M145.568,45.411l7.593-0.733
			c0.169,1.935,1.267,3.665,2.943,4.648l0.195,1.531l-10.951-3.586C145.505,46.67,145.587,46.044,145.568,45.411z M247.757,41.013
			c0.18-0.111,0.333-0.245,0.491-0.369l8.401,9.618c-0.221,0.389-0.4,0.803-0.502,1.261c-0.189,0.854-0.107,1.691,0.156,2.461
			l-49.798,9.996l-0.569-0.269c-0.641-1.959-2.249-3.544-4.406-4.021c-1.218-0.269-2.434-0.148-3.51,0.279l-32.869-15.542
			c0.008-0.309-0.013-0.607-0.046-0.909l72.986-7.08c0.109,0.911,0.403,1.815,0.927,2.643
			C240.898,42.027,244.808,42.891,247.757,41.013z M303.39,59.735c2.26,0.5,4.487-0.361,5.884-2.018l16.379,12.363
			c-0.141,0.243-0.26,0.507-0.322,0.792c-0.156,0.705-0.025,1.394,0.3,1.972l-8.812,3.729l-39.627-23.304l21.479,0.586
			C298.672,56.62,300.579,59.114,303.39,59.735z M350.986,303.23l-11.555,13.661l-14.202,16.779c-0.578-0.37-1.221-0.668-1.93-0.824
			c-2.773-0.613-5.507,0.8-6.703,3.241L312.4,334.3l37.36-33.1C349.992,301.972,350.41,302.669,350.986,303.23z M283.037,361.076
			c-0.108-0.163-0.236-0.299-0.35-0.451l29.228-25.894l4.459,1.892c-0.099,0.269-0.205,0.531-0.267,0.812
			c-0.315,1.426-0.073,2.832,0.544,4.038L283.037,361.076z M271.425,364.676l-43.505,4.218l-80.131-10.324
			c0.052-0.756-0.074-1.484-0.365-2.145l3.981-2.028l35.634-18.194c0.634,1.071,1.683,1.888,2.988,2.176
			c2.128,0.47,4.233-0.612,5.156-2.485l76.379,27.36C271.465,363.719,271.416,364.197,271.425,364.676z M169.602,369.198
			c-1.129,0.717-1.942,1.735-2.422,2.878l-19.891-11.695c0.181-0.35,0.332-0.714,0.421-1.112c0.009-0.041,0.006-0.078,0.014-0.116
			l77.576,9.99l-46.039,4.47c-0.129-0.86-0.418-1.708-0.92-2.483C176.463,368.18,172.549,367.315,169.602,369.198z M115.251,276.47
			l-36.344-7.702c0.546-3.157-1.46-6.21-4.619-6.908c-0.345-0.076-0.699-0.111-1.042-0.127l7.708-45.846
			c0.141,0.047,0.268,0.103,0.42,0.137c1.081,0.239,2.155,0.058,3.073-0.407l32.779,56.129c-0.958,0.643-1.674,1.635-1.941,2.845
			C115.143,275.228,115.135,275.863,115.251,276.47z M62.769,281.453c-0.303-0.067-0.605-0.09-0.907-0.105L38.31,227.277
			c0.57-0.164,1.139-0.384,1.662-0.715c2.947-1.887,3.811-5.797,1.932-8.743c-0.048-0.07-0.108-0.123-0.156-0.193l36.084-5.198
			c0.293,1.413,1.235,2.636,2.57,3.257l-7.635,46.057c-2.679,0.096-5.061,1.965-5.665,4.7c-0.518,2.344,0.416,4.654,2.19,6.041
			l-5.053,9.525C63.777,281.771,63.296,281.57,62.769,281.453z M64.184,119.932c0.438-0.274,0.81-0.605,1.15-0.96l11.945,10.322
			c-0.115,0.161-0.224,0.328-0.322,0.506l-0.252,0.529c-0.08,0.217-0.165,0.441-0.217,0.676c-0.133,0.599-0.141,1.194-0.04,1.766
			l0.145,0.569c0.399,1.325,1.37,2.439,2.696,2.975L68.179,165.65c-0.171-0.054-0.333-0.13-0.516-0.17
			c-0.527-0.117-1.044-0.132-1.558-0.113l-4.379-44.523C62.577,120.722,63.414,120.425,64.184,119.932z M85,129.619l24.044-15.361
			c0.643,0.87,1.567,1.532,2.707,1.792l-10.58,64.691c-0.368-0.009-0.733,0.057-1.068,0.186L82.796,136.3
			c1.358-0.563,2.423-1.748,2.764-3.292C85.826,131.803,85.59,130.601,85,129.619z M106.514,69.687l2.906,1.915l-7.304,6.461
			l-0.471-1.432l-0.845-2.586C103.421,74.019,105.766,72.278,106.514,69.687z M109.991,71.974l49.738,32.687
			c-0.227,0.4-0.421,0.826-0.526,1.3c-0.082,0.372-0.104,0.741-0.094,1.109l-6.408,0.573l-35.334,3.175
			c-0.284-1.845-1.652-3.413-3.579-3.838c-0.744-0.164-1.478-0.12-2.166,0.059l-9.279-28.29L109.991,71.974z M142.666,50.963
			c1.186-0.756,2.023-1.844,2.483-3.063l11.24,3.681l3.611,28.338l2.869,22.481c-1.126,0.217-2.137,0.852-2.828,1.765L110.446,71.57
			l24.288-21.52C136.784,52.149,140.096,52.603,142.666,50.963z M297.889,85.22l18.8-7.955l14.476,8.513
			c-0.72,1.822-0.603,3.952,0.536,5.731c0.481,0.759,1.103,1.361,1.8,1.826l-22.619,36.922c-0.483-0.353-1.05-0.61-1.68-0.749
			c-0.614-0.136-1.221-0.143-1.801-0.04l-8.256-26.962l-3.36-10.99c1.238-0.598,2.207-1.724,2.528-3.177
			C298.557,87.241,298.372,86.15,297.889,85.22z M356.495,105.176l-13.821-14.269c0.208-0.419,0.371-0.849,0.482-1.298
			L356.495,105.176z M397.9,162.686l-17.272,78.162c-0.192-0.03-0.385-0.053-0.574-0.067l2.067-43.449
			c2.103-0.032,3.993-1.489,4.468-3.639c0.067-0.303,0.099-0.61,0.102-0.912l-0.799-1.119c1.749-2.064,2.062-5.082,0.535-7.48
			c-0.464-0.727-1.067-1.31-1.729-1.771l11.8-20.278C396.937,162.362,397.401,162.548,397.9,162.686z M375.547,242.368l-4.883-3.375
			l9.315-42.153c0.333,0.169,0.683,0.31,1.066,0.395c0.167,0.037,0.33,0.041,0.492,0.061l-2.065,43.473
			C377.99,240.815,376.603,241.387,375.547,242.368z M186.772,335.678l-32.939,16.816l-6.673,3.41
			c-0.431-0.735-1.063-1.329-1.831-1.741l28.163-63.018l2.641-5.905c0.199,0.072,0.4,0.153,0.613,0.2
			c0.626,0.138,1.253,0.145,1.851,0.031l11.024,43.955c-1.521,0.491-2.762,1.733-3.132,3.409
			C186.269,333.833,186.398,334.813,186.772,335.678z M152.256,213.6l-32.6,6.445c-0.432-1.627-1.716-2.961-3.477-3.35
			c-0.815-0.18-1.624-0.12-2.372,0.116l-11.704-30.691c0.404-0.154,0.759-0.409,1.049-0.731l49.667,25.754
			c-0.206,0.376-0.378,0.776-0.475,1.216C152.251,212.775,152.236,213.189,152.256,213.6z M85.2,207.812l7.75-11.51l6.931-10.284
			c0.198,0.096,0.403,0.176,0.622,0.225c0.349,0.077,0.694,0.081,1.029,0.024l11.063,29.002l0.664,1.746
			c-1.106,0.504-1.987,1.43-2.424,2.619L86.9,212.523c0.002-0.011,0.006-0.026,0.009-0.042
			C87.31,210.669,86.58,208.877,85.2,207.812z M71.247,174.897l10.174,3.43l0.566,28.544c-0.385,0.03-0.752,0.124-1.111,0.24
			l-12.955-29.941C69.254,176.808,70.437,176.023,71.247,174.897z M83.38,206.944c-0.273-0.06-0.539-0.083-0.806-0.099
			l-0.565-28.317l16.359,5.521c0.124,0.66,0.497,1.243,1.022,1.658l-14.683,21.781C84.303,207.244,83.865,207.051,83.38,206.944z
			 M117.417,111.399l35.683-3.201l6.06-0.547c0.272,1.85,1.646,3.426,3.572,3.852c0.251,0.055,0.493,0.073,0.733,0.087l0.09,38.873
			l0.034,15.239c-0.921,0.063-1.79,0.396-2.504,0.942l-45.041-51.817c0.619-0.607,1.079-1.393,1.281-2.303
			C117.408,112.145,117.427,111.771,117.417,111.399z M230.074,79.702c1.991,0.44,3.951-0.687,4.64-2.547l37.927,9.07
			c-0.052,0.307-0.076,0.611-0.067,0.916l-31.983,2.894l-12.494,1.133c0.068-1.552-0.648-3.008-1.856-3.915l3.676-7.601
			C229.971,79.664,230.021,79.691,230.074,79.702z M228.002,91.978c0.016-0.072,0.012-0.144,0.024-0.217l44.594-4.037
			c0.108,0.7,0.37,1.351,0.769,1.92l-0.854,0.662l-61.06,47.999c-0.559-0.477-1.227-0.84-1.993-1.009
			c-0.027-0.006-0.055-0.004-0.085-0.011l11.497-35.788l1.913-5.942C225.189,95.903,227.473,94.371,228.002,91.978z M339.974,93.677
			l10.342,23.747l-37.949,14.614c-0.254-0.525-0.603-1-1.036-1.398l22.66-37.016C335.806,94.609,338.047,94.691,339.974,93.677z
			 M360.398,113.545l-9.465,3.645L340.55,93.354c0.743-0.5,1.34-1.132,1.799-1.842l18.622,19.204
			c-0.296,0.368-0.527,0.798-0.635,1.287C360.219,112.538,360.259,113.061,360.398,113.545z M374.309,150.524l-8.423,0.998
			l-3.49-8.023l11.659,2c-0.136,0.328-0.253,0.656-0.332,1.013C373.41,147.93,373.665,149.335,374.309,150.524z M365.208,151.6
			l-16.06,1.909c0.231-0.45,0.428-0.927,0.542-1.443c0.718-3.251-1.334-6.473-4.585-7.191c-3.254-0.719-6.474,1.338-7.192,4.589
			c-0.426,1.926,0.137,3.825,1.333,5.219l-17.287,2.047c-0.326-1.783-1.689-3.285-3.57-3.701c-0.815-0.18-1.621-0.116-2.357,0.116
			l-5.576-14.75l-0.091-0.255c1.158-0.615,2.063-1.704,2.37-3.092c0.006-0.026,0.005-0.059,0.011-0.085l48.871,8.405L365.208,151.6z
			 M377.808,194.562l-36.903,19.11c-0.634-1.055-1.676-1.866-2.977-2.154c-0.751-0.166-1.494-0.119-2.191,0.065l-16.606-49.711
			c0.896-0.363,1.651-1.007,2.174-1.843l53.694,29.169c0.162,0.617,0.394,1.224,0.754,1.79c0.449,0.704,1.025,1.268,1.664,1.72
			C377.426,193.356,377.55,193.984,377.808,194.562z M352.266,291.953c-0.015,0.876,0.172,1.76,0.538,2.605l0.179,0.863
			c-0.987,0.271-1.871,0.852-2.488,1.682l-68.591-45.124c0.223-0.396,0.417-0.823,0.52-1.293c0.236-1.066,0.059-2.123-0.384-3.033
			l51.004-29.043c0.643,0.978,1.649,1.717,2.878,1.988c0.561,0.124,1.116,0.131,1.655,0.052l13.889,67.41L352.266,291.953z
			 M265.242,188.102l-27.107,25.042c-0.543-0.442-1.181-0.778-1.917-0.94c-0.682-0.151-1.359-0.133-2.003,0.011l-4.615-12.421
			l-19.88-53.494c0.823-0.232,1.559-0.682,2.141-1.301l52.385,37.274l0.653,0.466c-0.274,0.433-0.488,0.911-0.603,1.434
			C263.977,185.614,264.376,187.035,265.242,188.102z M233.651,212.372c-0.679,0.247-1.281,0.648-1.782,1.169l-10.039-6.435
			l-53.892-34.54c0.208-0.383,0.386-0.794,0.486-1.245c0.258-1.168,0.04-2.323-0.507-3.287l36.535-23.91
			c0.627,1.105,1.688,1.956,3.023,2.251c0.565,0.125,1.126,0.126,1.671,0.051L233.651,212.372z M167.632,173.072l26.296,16.842
			l37.556,24.072c-0.357,0.482-0.619,1.037-0.771,1.656l-69.234-2.788c-0.21-1.908-1.58-3.559-3.548-4.014l5.512-33.912
			C165.098,175.09,166.682,174.366,167.632,173.072z M161.42,214.364c0.068-0.307,0.101-0.618,0.105-0.924l69.097,2.781
			c-0.15,1.324,0.266,2.593,1.093,3.551l-41.251,46.386l-9.857,11.089c-0.528-0.419-1.151-0.736-1.852-0.89
			c-0.709-0.157-1.416-0.126-2.073,0.035l-6.067-19.818l-11.917-38.945C160.028,217.059,161.083,215.888,161.42,214.364z
			 M190.95,266.493l41.177-46.303c0.578,0.517,1.271,0.91,2.086,1.09c1.897,0.419,3.773-0.383,4.817-1.887l26.911,21.242
			l8.128,6.406c-0.338,0.486-0.586,1.032-0.72,1.639c-0.159,0.721-0.126,1.436,0.033,2.1l-45.344,14.142l-45.952,14.319
			c-0.229-0.604-0.586-1.148-1.04-1.61L190.95,266.493z M266.404,240.251l-27.081-21.371c0.186-0.357,0.343-0.724,0.433-1.133
			c0.347-1.57-0.144-3.13-1.177-4.214l27.053-24.999c0.595,0.565,1.331,0.995,2.196,1.186c0.33,0.073,0.653,0.105,0.975,0.104
			l7.778,55.422c-0.825,0.243-1.569,0.708-2.14,1.349L266.404,240.251z M269.763,189.729c1.314-0.275,2.45-1.114,3.11-2.3
			l59.699,27.071c-0.068,0.18-0.143,0.358-0.187,0.556c-0.215,0.971-0.094,1.94,0.263,2.791l-51.051,29.076
			c-0.644-0.866-1.577-1.526-2.71-1.776c-0.459-0.101-0.906-0.113-1.356-0.077L269.763,189.729z M272.987,183.15l40.514-23.034
			c0.643,0.978,1.649,1.721,2.881,1.993c0.751,0.166,1.493,0.123,2.194-0.064l16.606,49.712c-0.996,0.404-1.823,1.157-2.345,2.131
			l-59.679-27.071c0.074-0.207,0.156-0.416,0.205-0.639C273.6,185.111,273.435,184.057,272.987,183.15z M377.685,182.251
			c-2.149,1.371-3.172,3.822-2.848,6.193l-14.317-7.779l-38.92-21.139c0.135-0.304,0.247-0.618,0.323-0.959
			c0.093-0.421,0.106-0.84,0.085-1.25l17.754-2.108c0.756,0.684,1.675,1.206,2.741,1.441c2.484,0.549,4.938-0.528,6.284-2.514
			l16.663-1.975l12.947,29.729C378.161,182.002,377.915,182.107,377.685,182.251z M312.809,134.376
			c0.049-0.618-0.031-1.228-0.22-1.795l37.966-14.615l10.783,24.759L312.809,134.376z M309.836,138.397l5.644,14.947
			c-1.287,0.586-2.301,1.735-2.628,3.218c-0.237,1.073-0.071,2.12,0.375,3.035l-22.585,12.843l-17.926,10.192
			c-0.229-0.349-0.512-0.654-0.828-0.931l33.825-43.742c0.446,0.285,0.938,0.509,1.483,0.63
			C308.11,138.791,309.016,138.705,309.836,138.397z M271.432,181.33c-0.475-0.316-1.005-0.564-1.597-0.695
			c-1.779-0.393-3.528,0.302-4.6,1.625l-0.791-0.564l-52.194-37.144c0.358-0.502,0.627-1.075,0.768-1.712
			c0.097-0.44,0.102-0.873,0.077-1.3l21.257-1.632l69.247-5.316c0.144,1.185,0.728,2.265,1.644,3.02L271.432,181.33z
			 M303.66,133.042c-0.072,0.326-0.108,0.648-0.107,0.971l-84.315,6.47l-6.191,0.474c-0.167-0.844-0.565-1.617-1.131-2.243
			l17.044-13.403l44.787-35.202c0.624,0.703,1.463,1.226,2.453,1.445c1.187,0.262,2.351,0.034,3.327-0.526l26.093,39.165
			C304.657,130.836,303.928,131.828,303.66,133.042z M220.15,101.91l-11.342,35.305c-1.582-0.115-3.07,0.587-4.005,1.796
			l-37.238-29.415c0.33-0.485,0.58-1.026,0.714-1.629c0.14-0.633,0.14-1.266,0.026-1.864l51.117-12.871
			c0.587,1.052,1.569,1.862,2.802,2.206L220.15,101.91z M204.487,139.506c-0.236,0.401-0.437,0.842-0.544,1.328
			c-0.213,0.963-0.106,1.918,0.24,2.766l-18.952,12.408l-17.634,11.538c-0.642-0.858-1.57-1.517-2.701-1.766
			c-0.243-0.054-0.482-0.071-0.718-0.083l-0.13-54.118c1.222-0.076,2.344-0.635,3.143-1.533L204.487,139.506z M160.632,167.018
			c-0.616,0.608-1.076,1.393-1.276,2.3c-0.127,0.576-0.126,1.146-0.045,1.696l-55.476,11.979c-0.204-1.039-0.994-1.91-2.086-2.171
			l10.577-64.693c1.203,0.119,2.354-0.232,3.268-0.928L160.632,167.018z M123.169,195.111L103.5,184.913
			c0.142-0.244,0.258-0.504,0.321-0.788c0.04-0.182,0.06-0.36,0.064-0.543l28.21-6.09l27.35-5.906
			c0.449,1.583,1.699,2.877,3.415,3.268l-5.448,33.564l-0.059,0.341c-1.681-0.173-3.283,0.563-4.235,1.881L123.169,195.111z
			 M155.876,217.904c0.778,0.172,1.554,0.116,2.268-0.092l12.033,39.32l5.936,19.42c-1.419,0.534-2.547,1.749-2.899,3.345
			c-0.021,0.095-0.015,0.192-0.032,0.287l-48.724-4.458c0.047-1.601-0.734-3.086-2.023-3.967l15.501-26.132l16.726-28.203
			C155.037,217.631,155.439,217.808,155.876,217.904z M124.353,276.596c0.02-0.091,0.018-0.191,0.035-0.287l48.725,4.458
			c-0.055,1.778,0.928,3.416,2.485,4.237l-9.724,21.755l-21.084,47.167c-0.199-0.072-0.399-0.156-0.611-0.203
			c-0.679-0.15-1.352-0.132-1.984,0.011l-10.937-38.712l-9.901-35.05C122.818,279.454,123.992,278.226,124.353,276.596z
			 M179.157,285.313c1.225-0.398,2.27-1.273,2.817-2.485l74.27,28.35c-0.037,0.131-0.09,0.243-0.119,0.376
			c-0.157,0.709-0.129,1.411,0.031,2.071l-60.785,18.583c-0.537-1.424-1.745-2.562-3.338-2.914c-0.634-0.14-1.258-0.139-1.851-0.031
			L179.157,285.313z M256.432,310.631l-32.454-12.399l-41.814-15.963c0.039-0.122,0.096-0.238,0.125-0.366
			c0.159-0.72,0.125-1.428-0.037-2.1l91.295-28.461c0.479,1.255,1.504,2.266,2.836,2.719l-4.18,15.263l-10.597,38.684
			C259.446,307.562,257.319,308.691,256.432,310.631z M272.797,269.356l4.144-15.116c1.816,0.366,3.598-0.366,4.651-1.765
			l68.591,45.123c-0.226,0.392-0.416,0.819-0.519,1.286c-0.101,0.455-0.11,0.895-0.076,1.336l-84.372,11.422
			c-0.319-1.582-1.46-2.916-3.053-3.464L272.797,269.356z M264.796,314.636l46.451,19.804l-28.972,25.669
			c-1.591-1.64-3.946-2.268-6.132-1.701l-12.982-41.937C263.856,316.027,264.417,315.395,264.796,314.636z M291.496,325.389
			l-26.472-11.296c0.059-0.178,0.133-0.352,0.173-0.534c0.1-0.451,0.106-0.892,0.08-1.331l83.862-11.363l-37.41,33.145
			L291.496,325.389z M355.186,286.71c-1.357,0.866-2.249,2.168-2.658,3.606l-2.132-10.333l-12.249-59.457
			c0.958-0.266,1.804-0.819,2.417-1.598l8.155,5.633l7.532,5.196c-0.421,3.078,1.559,6.017,4.642,6.699
			c1.479,0.327,2.939,0.057,4.173-0.613l4.873,3.364l-10.301,46.617C358.146,285.574,356.559,285.828,355.186,286.71z
			 M365.617,235.511c1.207-0.835,2.125-2.092,2.467-3.64c0.718-3.25-1.338-6.474-4.589-7.192c-3.201-0.707-6.353,1.277-7.138,4.437
			l-10.345-7.139l-5.122-3.535c0.26-0.42,0.464-0.876,0.576-1.381c0.222-1.005,0.091-1.993-0.297-2.866l18.341-9.496l18.563-9.618
			c0.328,0.549,0.775,1.03,1.308,1.407l-9.303,42.1L365.617,235.511z M379,181.626l-12.868-29.544l8.505-1.009
			c0.805,1.164,2.022,2.046,3.509,2.374c0.436,0.096,0.871,0.129,1.297,0.128l1.786,27.704
			C380.483,181.27,379.729,181.37,379,181.626z M374.337,144.961l-12.221-2.104l-10.944-25.129l9.439-3.635
			c0.405,0.83,1.165,1.479,2.14,1.694c0.592,0.131,1.184,0.079,1.719-0.109l12.242,26.959
			C375.722,143.158,374.894,143.954,374.337,144.961z M334.294,82.44l-4.517-8.449l6.717,7.838
			C335.74,81.893,335.003,82.096,334.294,82.44z M325.979,73.335c0.376,0.421,0.879,0.739,1.47,0.87
			c0.565,0.125,1.122,0.069,1.623-0.126l4.635,8.658c-0.023,0.015-0.048,0.021-0.076,0.039c-0.967,0.614-1.683,1.458-2.174,2.404
			l-14.013-8.236L325.979,73.335z M300.123,107.696l6.711,21.926c-0.24,0.078-0.475,0.17-0.699,0.283l-3.092-4.641l-23.035-34.572
			c0.842-0.641,1.486-1.557,1.733-2.676c0.062-0.28,0.088-0.561,0.094-0.838l0.788-0.021c0.695,1.84,2.273,3.306,4.34,3.763
			c1.225,0.271,2.454,0.145,3.542-0.295c0.597,0.609,1.368,1.062,2.271,1.262c0.849,0.188,1.69,0.111,2.459-0.145L300.123,107.696z
			 M282.374,83.733c-0.215,0.975-0.154,1.939,0.084,2.843l-0.644,0.017c-0.179-1.961-1.583-3.672-3.609-4.119
			c-0.956-0.211-1.897-0.109-2.74,0.23l-5.549-11.577l-6.971-14.557c0.269-0.156,0.526-0.329,0.762-0.532l22.756,23.268
			C284.473,79.936,282.856,81.552,282.374,83.733z M274.94,82.969c-1.014,0.571-1.793,1.509-2.158,2.69L238.4,77.433l-3.51-0.84
			c0.204-0.957,0.033-1.898-0.389-2.703l22.747-18.237c0.624,0.687,1.453,1.2,2.432,1.417c0.952,0.21,1.898,0.105,2.744-0.233
			L274.94,82.969z M256.893,55.189l-22.699,18.204c-0.561-0.773-1.38-1.351-2.378-1.572c-1.805-0.399-3.58,0.486-4.417,2.039
			l-19.892-9.404l49.053-9.85C256.664,54.804,256.763,55.004,256.893,55.189z M227.166,74.394c-0.064,0.165-0.127,0.322-0.166,0.496
			c-0.426,1.927,0.606,3.829,2.362,4.58l-3.617,7.475c-0.4-0.224-0.812-0.41-1.275-0.513c-1.927-0.426-3.832,0.418-4.864,1.973
			l-7.876-5.957l-29.709-22.481l12.405,4.062c-0.023,0.086-0.064,0.165-0.084,0.252c-0.718,3.25,1.336,6.469,4.586,7.187
			c3.25,0.718,6.469-1.335,7.187-4.586c0.162-0.732,0.167-1.459,0.064-2.162l0.37-0.073L227.166,74.394z M194.628,63.4
			l-14.227-4.656l-15.845-11.986c0.203-0.413,0.369-0.841,0.472-1.308c0.03-0.137,0.024-0.273,0.047-0.411l32.286,15.266
			C196.14,60.969,195.159,62.042,194.628,63.4z M164.268,47.271l14.428,10.913l-21.78-7.128l-0.177-1.38
			c0.349,0.149,0.712,0.273,1.099,0.358C160.42,50.606,162.964,49.41,164.268,47.271z M180.314,59.41l39,29.507
			c-0.164,0.33-0.304,0.677-0.388,1.056c-0.209,0.945-0.11,1.885,0.222,2.722l-51.004,12.844c-0.492-1.517-1.729-2.745-3.405-3.115
			c-0.428-0.095-0.863-0.111-1.286-0.082l-4.646-36.403l-1.801-14.154L180.314,59.41z M99.583,181.195
			c-0.59,0.383-1.034,0.989-1.198,1.729c-0.031,0.14-0.041,0.277-0.049,0.418l-16.34-5.516l-0.577-29.358l-0.239-11.828
			c0.364-0.011,0.716-0.073,1.056-0.169L99.583,181.195z M80.817,147.542l0.591,30.089l-9.813-3.314
			c0.283-0.507,0.522-1.05,0.654-1.646c0.63-2.852-0.869-5.681-3.444-6.812l11.11-29.341c0.038,0.008,0.07,0.024,0.104,0.031
			c0.194,0.043,0.383,0.049,0.578,0.068L80.817,147.542z M65.06,177.261c0.751,0.166,1.492,0.163,2.203,0.057l13.011,30.049
			c-0.604,0.304-1.141,0.734-1.565,1.269l-0.32,0.494c-0.246,0.411-0.447,0.852-0.556,1.345c-0.102,0.463-0.108,0.923-0.073,1.376
			l-36.443,5.241c-0.373-0.42-0.782-0.801-1.233-1.1l23.488-39.308C64.035,176.931,64.525,177.143,65.06,177.261z M84.958,215.336
			c0.795-0.536,1.412-1.315,1.756-2.258l23.939,7.112c-0.004,0.019-0.013,0.025-0.016,0.036c-0.555,2.511,1.033,4.994,3.536,5.547
			c0.372,0.082,0.745,0.105,1.112,0.099l1.411,16.602l2.435,28.532c-0.495,0.078-0.956,0.238-1.394,0.456L84.958,215.336z
			 M117.762,248.076l-1.9-22.255c1.852-0.279,3.428-1.65,3.856-3.588c0.12-0.542,0.12-1.083,0.058-1.614l12.924-2.554l19.606-3.882
			c0.212,1.184,0.877,2.242,1.847,2.946l-16.568,27.937l-15.665,26.405c-0.343-0.179-0.703-0.327-1.102-0.415
			c-0.372-0.082-0.741-0.104-1.108-0.098L117.762,248.076z M118.201,279.934c0.197,0.079,0.399,0.156,0.611,0.203
			c0.675,0.149,1.347,0.135,1.978-0.004l9.962,35.243l10.878,38.517c-0.85,0.298-1.594,0.841-2.14,1.564l-39.243-26.303
			c0.491-0.568,0.876-1.25,1.052-2.043c0.429-1.942-0.432-3.858-1.998-4.889L118.201,279.934z M99.831,329.582l35.282,23.633
			l-38.201-22.464C98.005,330.714,99.034,330.289,99.831,329.582z M195.398,335.345c0.053-0.167,0.127-0.322,0.167-0.504
			c0.157-0.709,0.125-1.412-0.032-2.071l60.781-18.58c0.537,1.423,1.751,2.555,3.344,2.907c1.047,0.231,2.084,0.075,2.987-0.358
			l12.948,41.838c-0.438,0.162-0.86,0.347-1.268,0.607c-1.334,0.851-2.219,2.123-2.63,3.532L195.398,335.345z M360.281,285.975
			l10.244-46.36l4.626,3.19c-0.657,0.742-1.157,1.634-1.386,2.673c-0.55,2.489,0.53,4.947,2.525,6.291l-15.941,34.225
			C360.322,285.988,360.3,285.979,360.281,285.975z M395.925,161.813l-11.784,20.237c-0.699-0.381-1.463-0.617-2.249-0.716
			l-1.789-27.816c2.383-0.289,4.433-2.024,4.98-4.497c0.693-3.137-1.286-6.243-4.426-6.937c-1.168-0.258-2.331-0.141-3.371,0.261
			l-12.217-26.945c0.033-0.02,0.071-0.036,0.105-0.06l29.814,35.468c-1.017,0.933-1.792,2.154-2.114,3.611
			C392.224,157.358,393.539,160.262,395.925,161.813z M361.602,110.115l-18.305-21.357c0.148-1.372-0.126-2.797-0.926-4.055
			c-1.149-1.802-3.054-2.811-5.038-2.907l-7.23-8.436c0.32-0.351,0.566-0.778,0.677-1.283c0.269-1.218-0.313-2.416-1.344-3.01
			l2.779-6.526c0.533,0.272,1.086,0.506,1.696,0.641c1.562,0.345,3.104,0.121,4.448-0.505l24.424,46.916
			C362.35,109.684,361.956,109.864,361.602,110.115z M331.64,62.21l-2.807,6.6c-0.06-0.017-0.117-0.046-0.178-0.059
			c-0.774-0.171-1.537,0.007-2.152,0.412l-0.17-0.201l0.126,0.239c-0.149,0.098-0.287,0.22-0.411,0.347L309.686,57.2
			c0.409-0.606,0.724-1.296,0.892-2.054c0.112-0.509,0.136-1.012,0.115-1.51l17.759,2.17C328.257,58.4,329.512,60.841,331.64,62.21z
			 M316.063,76.893l-18.467,7.817c-0.645-0.934-1.622-1.644-2.813-1.907c-0.326-0.072-0.653-0.105-0.976-0.104
			c-0.737-1.742-2.263-3.118-4.242-3.555c-0.838-0.185-1.675-0.179-2.465-0.024l-22.98-23.496c0.517-0.578,0.92-1.28,1.1-2.096
			c0.043-0.193,0.05-0.387,0.065-0.583l10.545,0.29L316.063,76.893z M265.311,52.359c-0.072-2.065-1.516-3.903-3.625-4.369
			c-1.813-0.401-3.599,0.322-4.662,1.695l-8.278-9.471c0.619-0.603,1.107-1.303,1.431-2.066l24.608,14.472L265.311,52.359z
			 M133.972,49.085c0.109,0.156,0.236,0.299,0.352,0.444l-24.452,21.667l-3.209-2.11c0.237-1.344,0.01-2.655-0.571-3.79
			L133.972,49.085z M99.446,73.913c0.239,0.053,0.48,0.062,0.725,0.085l0.841,2.585l0.633,1.906l-5.124,4.541l2.788-9.162
			C99.358,73.877,99.4,73.903,99.446,73.913z M101.865,79.169l9.195,28.036c-0.738,0.298-1.38,0.793-1.88,1.418l-0.337,0.478
			c-0.266,0.43-0.484,0.895-0.599,1.415c-0.255,1.153-0.037,2.291,0.488,3.247l-24.069,15.383c-0.466-0.592-1.064-1.071-1.771-1.386
			l13.259-43.529L101.865,79.169z M58.315,120.421c0.866,0.366,1.808,0.531,2.752,0.489l4.381,44.516
			c-1.029,0.154-1.972,0.586-2.774,1.213l-11.628-13.318L58.315,120.421z M64.814,282.338l5.026-9.479
			c0.56,0.347,1.167,0.624,1.846,0.774c3.19,0.705,6.335-1.266,7.133-4.411l36.599,7.809c0.366,1.131,1.165,2.091,2.248,2.664
			l-18.877,42.236c-0.319-0.158-0.657-0.288-1.02-0.369c-2.067-0.457-4.098,0.559-5.065,2.326l-0.255,0.54
			c-0.084,0.216-0.171,0.432-0.225,0.674c-0.09,0.41-0.101,0.821-0.085,1.231l0.051,0.596c0.082,0.456,0.236,0.896,0.448,1.304
			l-7.767-4.564c0.784-1.855,0.676-4.047-0.484-5.875c-1.67-2.613-4.934-3.577-7.713-2.448L66.129,291.13
			c0.571-0.709,1.015-1.534,1.226-2.486C67.907,286.144,66.817,283.68,64.814,282.338z M146.964,360.95l20.006,11.772
			c-0.113,0.385-0.184,0.779-0.226,1.187l-19.812-12.919C146.942,360.977,146.954,360.963,146.964,360.95z M176.41,379.868
			c0.529-0.341,0.984-0.741,1.375-1.2l19.113,14.893l-20.779-13.546C176.215,379.96,176.314,379.926,176.41,379.868z
			 M259.464,367.551c-3.216-0.711-6.392,1.293-7.156,4.481l-21.455-2.764l40.618-3.937c0.077,0.57,0.23,1.137,0.464,1.682
			l-8.422,3.708C262.722,369.17,261.296,367.955,259.464,367.551z M363.925,288.641c-0.747-1.175-1.828-1.971-3.025-2.442
			l15.902-34.138c0.48,0.257,0.988,0.481,1.553,0.606c1.218,0.269,2.426,0.146,3.511-0.278l8.071,17.608
			c-1.792,0.925-3.172,2.597-3.64,4.717c-0.369,1.669-0.093,3.321,0.643,4.721l-22.47,10.29
			C364.32,289.353,364.146,288.989,363.925,288.641z M393.293,269.207c-0.963-0.018-1.89,0.183-2.754,0.529l-8.09-17.648
			c1.513-0.799,2.691-2.206,3.089-4.008c0.536-2.424-0.469-4.826-2.356-6.189l0.529-0.591c0.017-0.076,0.037-0.151,0.054-0.227
			c0.067-0.303,0.123-0.609,0.19-0.913l-1.286,1.427c-0.434-0.251-0.898-0.453-1.396-0.595l17.27-78.151
			c0.395,0.067,0.785,0.106,1.178,0.105L393.293,269.207z M339.457,62.048l56.244,88.158c-0.071,0.052-0.133,0.118-0.205,0.173
			l-29.816-35.461c0.409-0.411,0.716-0.935,0.851-1.546c0.377-1.707-0.704-3.402-2.411-3.778c-0.212-0.047-0.426-0.07-0.636-0.077
			l-24.537-47.144C339.118,62.268,339.292,62.163,339.457,62.048z M328.858,53.934c-0.103,0.288-0.217,0.569-0.285,0.876
			c-0.026,0.117-0.022,0.226-0.04,0.341l-17.895-2.188c-0.356-2.402-2.134-4.453-4.645-5.008c-3.25-0.718-6.474,1.338-7.192,4.589
			c-0.054,0.246-0.063,0.483-0.086,0.728l-22.566-0.615L250.383,37.5c0.516-1.703,0.34-3.609-0.694-5.229
			c-1.883-2.946-5.793-3.81-8.738-1.931c-0.177,0.116-0.34,0.243-0.503,0.37l-12.008-13.74c0.456-0.623,0.833-1.32,1.068-2.095
			L328.858,53.934z M216.372,15.588c0.861,2.012,2.63,3.6,4.932,4.109c2.568,0.568,5.087-0.371,6.71-2.209l11.939,13.661
			c-1.263,1.233-1.934,2.918-1.907,4.635l-73.033,7.077c-0.488-2.22-2.202-4.078-4.572-4.603c-3.25-0.718-6.47,1.339-7.188,4.59
			c-0.086,0.391-0.129,0.783-0.143,1.17l-7.586,0.738c-0.124-0.879-0.415-1.739-0.921-2.531c-1.882-2.95-5.796-3.815-8.746-1.933
			c-1.71,1.094-2.696,2.873-2.868,4.752l-17.02-0.678c-0.006-0.908-0.172-1.796-0.506-2.606L216.372,15.588z M104.631,49.909
			c0.805,0.64,1.751,1.131,2.825,1.368c3.789,0.837,7.536-1.557,8.373-5.342c0.067-0.304,0.102-0.606,0.125-0.907l16.999,0.677
			c0.012,0.954,0.252,1.901,0.706,2.797l-27.881,16.216c-0.833-1.27-2.133-2.23-3.73-2.582c-3.255-0.719-6.477,1.333-7.196,4.588
			c-0.66,2.985,1.035,5.918,3.832,6.941l-3.107,10.193L65.542,110.47c-2.026-2.337-5.486-2.915-8.166-1.208
			c-2.946,1.883-3.81,5.793-1.931,8.738c0.031,0.058,0.073,0.1,0.106,0.15l-15.855,12.039c-0.192-0.23-0.399-0.446-0.616-0.649
			L104.631,49.909z M34.212,141.7c1.654,0.023,3.229-0.536,4.474-1.526l11.638,13.328l-13.567,61.394
			c-1.229-0.037-2.477,0.28-3.593,0.992c-2.945,1.879-3.809,5.789-1.932,8.742c0.754,1.177,1.838,2.013,3.056,2.481l-5.421,16.556
			c-0.167-0.053-0.318-0.126-0.489-0.164c-0.106-0.023-0.214-0.02-0.321-0.039L34.212,141.7z M87.262,347.466l-57.797-90.582
			c0.742-0.298,1.429-0.727,2.027-1.251l25.158,28.099c-0.503,0.673-0.88,1.444-1.071,2.309c-0.717,3.247,1.335,6.469,4.59,7.188
			c2.044,0.452,4.074-0.202,5.482-1.549l10.439,23.959c-0.149,0.082-0.304,0.135-0.444,0.224c-2.95,1.886-3.814,5.797-1.932,8.743
			c1.574,2.456,4.555,3.441,7.211,2.616l7.261,19.656C87.867,347.051,87.555,347.241,87.262,347.466z M97.618,356.426
			c0.289-0.517,0.521-1.062,0.683-1.651l40.238,3.8c0.092,1.349,0.773,2.589,1.84,3.394c0.61,0.282,1.218,0.572,1.834,0.843
			c1.614,0.348,3.209-0.21,4.28-1.314l20.243,13.185c0.014,1.121,0.291,2.245,0.936,3.254c1.682,2.632,4.983,3.591,7.767,2.421
			l21.823,14.226c-0.16,0.271-0.315,0.543-0.44,0.838L97.618,356.426z M209.811,395.523c-0.074-0.187-0.165-0.367-0.253-0.545
			l43.24-18.844c0.784,1.566,2.221,2.786,4.064,3.194c3.25,0.718,6.468-1.331,7.188-4.589c0.262-1.187,0.148-2.362-0.255-3.418
			l8.427-3.715c0.056,0.108,0.113,0.212,0.174,0.313c1.879,2.949,5.796,3.814,8.739,1.931c1.712-1.09,2.697-2.865,2.872-4.736
			l27.855,1.796c0.068,0.699,0.241,1.378,0.505,2.017L209.811,395.523z M323.056,360.643c-0.194-0.15-0.402-0.287-0.608-0.416
			l30.019-56.045c0.234,0.096,0.471,0.192,0.729,0.249c0.948,0.209,1.875,0.084,2.71-0.256c1-1.41,1.97-2.847,2.926-4.294
			c0.005-0.528-0.103-1.045-0.274-1.533c1.175,0.013,2.366-0.285,3.436-0.967c2.4-1.534,3.39-4.411,2.665-7.018l22.612-10.354
			c0.305,0.473,0.668,0.919,1.083,1.309L323.056,360.643z"/>
		<g>
			
				<ellipse transform="matrix(0.2659 -0.964 0.964 0.2659 -20.103 559.6212)" style="fill:#4DF0F4;" cx="357.369" cy="293.009" rx="17.992" ry="17.992"/>
			<path style="fill:#4DF0F4;" d="M366.509,180.46c-6.35,7.643-5.302,18.987,2.341,25.337c7.643,6.35,18.987,5.302,25.337-2.341
				c6.35-7.643,5.302-18.987-2.341-25.337C384.202,171.768,372.859,172.817,366.509,180.46z"/>
			<path style="fill:#4DF0F4;" d="M21.134,204.772c-6.35,7.643-5.302,18.987,2.341,25.337c7.643,6.35,18.987,5.302,25.337-2.341
				c6.35-7.643,5.302-18.987-2.341-25.337C38.828,196.08,27.484,197.129,21.134,204.772z"/>
			
				<ellipse transform="matrix(0.9077 -0.4196 0.4196 0.9077 -4.1147 66.5691)" style="fill:#4DF0F4;" cx="149.266" cy="42.638" rx="17.992" ry="17.992"/>
			<path style="fill:#4DF0F4;" d="M255.254,354.903c-6.35,7.643-5.302,18.987,2.341,25.337c7.643,6.35,18.987,5.302,25.337-2.341
				c6.35-7.643,5.302-18.987-2.341-25.337C272.948,346.211,261.604,347.26,255.254,354.903z"/>
			<path style="fill:#4DF0F4;" d="M272.819,72.057c-6.35,7.643-5.302,18.986,2.341,25.336c7.643,6.35,18.987,5.302,25.337-2.341
				c6.35-7.643,5.302-18.987-2.341-25.337C290.513,63.366,279.169,64.414,272.819,72.057z"/>
			<path style="fill:#4DF0F4;" d="M18.674,125.216c-6.35,7.643-5.302,18.987,2.341,25.337c7.643,6.35,18.987,5.302,25.337-2.341
				c6.35-7.643,5.302-18.987-2.341-25.337C36.367,116.524,25.024,117.572,18.674,125.216z"/>
		</g>
	</g>
	<g>
		<path style="fill:#154D61;" d="M456.898,395.573c0,0-9.274,9.367-17.643,17.141c-8.37,7.774-19.394,14.404-19.394,14.404
			s-3.823-1.516-10.285-5.384c-6.463-3.868-7.006-5.501-7.006-5.501s2.953-8.017,8.117-7.681c1.197-3.132,3.205-7.021,7.28-6.686
			c0.759-3.544,4.309-10.406,9.58-11.026c0.215-4.089,2.621-7.207,2.621-7.207L456.898,395.573z"/>
		<path style="fill:#154D61;" d="M421.964,381.263l-5.836,9.993c0,0,1.048,1.448,2.787,2.126s6.336-3.647,7.665-5.796
			c1.343-2.269,2.752-5.136,2.752-5.136L421.964,381.263z"/>
		<g>
			<path style="fill:#154D61;" d="M486.426,376.011c0,0,0.065,1.58-0.747,4.513c2.693,2.963,3.407,7.397,1.426,11.047
				c-1.994,3.769-5.952,5.625-10.001,5.051c-1.953,2.322-3.268,3.264-3.268,3.264l-8.827-2.197l7.365-13.935l7.365-13.935
				L486.426,376.011z"/>
			<path style="fill:#F28B44;" d="M431.151,326.158c8.007,17.106,26.692,28.511,35.438,33.602
				c8.746,5.091,11.361,5.505,13.111,8.241c1.631,2.723-5.721,16.538-5.721,16.538s-7.246,13.948-10.406,14.079
				c-3.16,0.13-5.123-1.783-14.202-6.064c-9.078-4.282-29.119-13.297-47.735-10.177c-18.616,3.12-28.19,5.436-28.19,5.436
				l23.186-43.982l23.186-43.982C419.566,299.942,423.145,309.052,431.151,326.158z"/>
			<path style="fill:#F47C2A;" d="M435.426,363.654c14.28,7.525,25.863,17.53,34.074,28.489c-2.193,3.384-4.598,6.502-6.072,6.7
				c-3.16,0.13-5.123-1.783-14.202-6.064c-9.078-4.282-29.119-13.297-47.735-10.177c-18.616,3.12-28.19,5.437-28.19,5.437
				l19.051-36.218C406.107,352.149,421.026,356.116,435.426,363.654z"/>
		</g>
		<g>
			<path style="fill:#154D61;" d="M366.207,375.753c-1.677,5.256-0.551,9.253,3.563,11.407l0,0
				c4.114,2.154,8.005,0.895,11.407-3.563c0,0,4.384-3.502,21.614-36.415c17.349-32.9,17.738-38.542,17.738-38.542
				c0.854-5.469,0.551-9.253-3.563-11.407l0,0c-4.114-2.154-7.394-0.948-11.407,3.563c0,0-5.766,6.13-21.614,36.415
				C367.965,367.602,366.207,375.753,366.207,375.753z"/>
			<path style="fill:#FFFFFF;" d="M385.299,338.088c-11.686,22.283-17.197,42.353-17.197,42.353s13.514-15.909,25.2-38.192
				c11.686-22.283,17.197-42.353,17.197-42.353S396.985,315.805,385.299,338.088z"/>
		</g>
		<g>
			<path style="fill:#F4D969;" d="M186.269,104.91c-5.327,14.287-21.244,21.635-35.651,16.302
				c-14.287-5.327-21.635-21.244-16.302-35.651c5.333-14.407,21.364-21.629,35.651-16.302
				C184.248,74.706,191.597,90.623,186.269,104.91z"/>
		</g>
		<g>
			<path style="fill:#F7CD00;" d="M153.742,322.549c-4.771,12.871-19.083,19.462-32.075,14.684
				c-12.871-4.771-19.455-19.203-14.684-32.075s19.203-19.455,32.075-14.684C152.049,295.251,158.639,309.564,153.742,322.549z"/>
		</g>
		<g>
			<path style="fill:#55BC55;" d="M337.027,296.443c0.088,12.044-9.706,22.002-21.744,21.97
				c-12.044,0.088-22.002-9.706-21.97-21.744c-0.082-12.164,9.706-22.002,21.75-22.09
				C327.107,274.491,336.945,284.279,337.027,296.443z"/>
		</g>
		<g>
			<g>
				<path style="fill:#FFFFFF;" d="M328.092,301.51l0.006-0.12l0,0l0.006-0.12l0,0c-0.07-0.967-0.265-1.82-0.821-2.692
					c0,0,0,0-0.12-0.006c0.006-0.12,0.006-0.12,0.006-0.12l0.006-0.12c0.006-0.12,0.013-0.24,0.019-0.36l0.006-0.12l0,0l0.006-0.12
					l0,0l0.006-0.12l0,0c0.006-0.12,0.006-0.12,0.013-0.24l0,0l0.006-0.12l0,0l0.006-0.12c0.013-0.24,0.025-0.48,0.038-0.72l0,0
					c0.019-0.36,0.032-0.6-0.069-0.967c0.013-0.24,0.025-0.48-0.082-0.727l0,0l0.006-0.12l0.006-0.12c0,0,0,0,0.006-0.12
					c0.006-0.12-0.107-0.246-0.095-0.487c-0.107-0.246-0.095-0.487-0.196-0.853c-0.107-0.246-0.209-0.613-0.316-0.859
					c-0.114-0.126-0.101-0.366-0.215-0.493c-0.114-0.126-0.107-0.246-0.215-0.493c-0.329-0.619-0.777-1.245-1.106-1.864
					c-0.114-0.126-0.221-0.373-0.455-0.505c-0.227-0.253-0.455-0.505-0.682-0.758c0,0,0,0-0.114-0.126c0,0-0.114-0.126-0.234-0.133
					c-0.114-0.126-0.114-0.126-0.227-0.253c0,0,0,0-0.12-0.006c-0.228-0.253-0.575-0.512-0.802-0.765
					c-0.114-0.126-0.348-0.259-0.581-0.392c0,0,0,0,0.006-0.12c-1.043-0.777-2.218-1.321-3.52-1.75
					c-0.36-0.019-0.594-0.152-0.954-0.171l0,0c0,0,0,0-0.12-0.006l0,0c0,0,0,0-0.12-0.006l0,0c0,0,0,0-0.12-0.006l0,0l0,0l0,0
					c-0.12-0.006-0.24-0.013-0.36-0.019l0,0l0,0l-0.12-0.006l0,0l0,0c0,0,0,0-0.12-0.006l0,0l0,0l-0.12-0.006l0,0l0,0
					c-0.12-0.006-0.12-0.006-0.12-0.006l0,0l0,0l0,0c-0.12-0.006-0.12-0.006-0.12-0.006l0,0l0,0l-0.12-0.006l0,0l0,0
					c-0.12-0.006-0.12-0.006-0.12-0.006l0,0l0,0c-0.12-0.006-0.12-0.006-0.12-0.006l0,0l0,0c-0.12-0.006-0.24-0.013-0.24-0.013
					c-0.24-0.013-0.6-0.032-0.72-0.038c-0.24-0.013-0.48-0.025-0.607,0.088l0,0l-0.12-0.006l0,0l0,0l-0.12-0.006l0,0l0,0
					l-0.12-0.006l0,0l0,0l0,0l-0.12-0.006l0,0l0,0c-0.12-0.006-0.24-0.013-0.36-0.019c-0.126,0.114-0.36-0.019-0.474-0.145
					c-0.941-0.411-1.889-0.701-2.97-0.758l0,0c0,0,0,0-0.12-0.006l-0.12-0.006c-0.12-0.006-0.36-0.019-0.48-0.025l-0.12-0.006
					l-0.12-0.006l0,0c-0.12-0.006-0.12-0.006-0.12-0.006c-0.24-0.013-0.36-0.019-0.607,0.088c-0.727,0.082-1.466,0.404-2.212,0.847
					c-0.499,0.335-0.998,0.67-1.504,1.125c-0.253,0.227-0.379,0.341-0.512,0.575c-0.385,0.461-0.651,0.929-0.916,1.396
					c-0.145,0.474-0.411,0.941-0.556,1.415c-0.152,0.594-0.297,1.068-0.209,1.674l0,0l-0.006,0.12
					c-0.006,0.12-0.006,0.12-0.006,0.12c-0.006,0.12-0.019,0.36-0.025,0.48l-0.006,0.12c0,0,0,0-0.006,0.12l0,0
					c0.082,0.727,0.171,1.333,0.379,1.946c0.101,0.366,0.322,0.739,0.43,0.986c-0.006,0.12-0.006,0.12-0.013,0.24
					c-0.013,0.24-0.145,0.474-0.038,0.72l-0.006,0.12c-0.032,0.6-0.063,1.201,0.032,1.687c-0.013,0.24,0.095,0.487,0.082,0.727
					c-0.006,0.12-0.006,0.12-0.006,0.12l0,0l0,0l-0.006,0.12l0,0l0,0l-0.006,0.12l0,0l0,0c0,0,0,0-0.006,0.12l0,0l0,0
					c0,0,0,0-0.006,0.12c0.183,1.093,0.493,2.073,0.922,3.058c0.107,0.246,0.329,0.619,0.436,0.866l0,0
					c0.215,0.493,0.556,0.872,0.891,1.371c0.227,0.253,0.449,0.626,0.676,0.878c0,0-0.006,0.12,0.114,0.126
					c0,0-0.006,0.12,0.114,0.126c-0.006,0.12,0.114,0.126,0.114,0.126c0.114,0.126,0.114,0.126,0.114,0.126s0,0-0.006,0.12
					c0.575,0.512,1.15,1.024,1.731,1.415c0.227,0.253,0.581,0.392,0.815,0.524c0.114,0.126,0.114,0.126,0.354,0.139
					c0.12,0.006,0.12,0.006,0.234,0.133c0,0,0,0,0.12,0.006c0.348,0.259,0.821,0.404,1.295,0.55
					c0.234,0.133,0.594,0.152,0.828,0.284c0.12,0.006,0.24,0.013,0.36,0.019c0,0,0,0,0.12,0.006l0.12,0.006
					c0.12,0.006,0.12,0.006,0.12,0.006l0.12,0.006l0,0c0,0,0,0,0.12,0.006l0,0l0,0c0.12,0.006,0.12,0.006,0.24,0.013l0,0l0.12,0.006
					l0,0l0,0l0.12,0.006l0,0l0,0l0.12,0.006l0,0l0,0l0,0c0,0,0,0,0.12,0.006l0,0l0.12,0.006l0,0l0.12,0.006l0,0
					c0.12,0.006,0.12,0.006,0.12,0.006l0,0l0,0l0.12,0.006l0,0l0,0c0.12,0.006,0.12,0.006,0.24,0.013l0,0l0,0
					c0.12,0.006,0.24,0.013,0.36,0.019l0,0l0.12,0.006c0.6,0.032,1.207-0.057,1.814-0.145c0.24,0.013,0.487-0.095,0.847-0.076
					c0,0,0,0,0.12,0.006c0.935,0.531,2.123,0.834,3.204,0.891l0,0c0.12,0.006,0.12,0.006,0.12,0.006
					c0.12,0.006,0.12,0.006,0.12,0.006l0.12,0.006c0.12,0.006,0.24,0.013,0.36,0.019l0.12,0.006l0.12,0.006c0,0,0,0,0.12,0.006l0,0
					c0.12,0.006,0.36,0.019,0.487-0.095c0.36,0.019,0.727-0.082,1.099-0.303c0.366-0.101,0.739-0.322,1.232-0.537
					c0.493-0.215,0.998-0.67,1.378-1.011c0.253-0.228,0.385-0.461,0.638-0.689c0.385-0.461,0.777-1.043,1.043-1.51
					c0.265-0.468,0.411-0.941,0.556-1.415c0.152-0.594,0.177-1.074,0.209-1.674c0,0,0,0,0.006-0.12c0,0,0,0,0.006-0.12l0.006-0.12
					l0.006-0.12C328.079,301.751,328.086,301.631,328.092,301.51z M317.432,284.456L317.432,284.456L317.432,284.456
					L317.432,284.456z M317.432,284.456L317.432,284.456L317.432,284.456L317.432,284.456z"/>
			</g>
			<g>
				<path style="fill:#55BC55;" d="M312.737,289.024c0.12,0.006,0.246-0.107,0.366-0.101l0.12,0.006l0.12,0.006l0,0l0.12,0.006l0,0
					l0.12,0.006l0,0l0.12,0.006l0,0l0.12,0.006l0,0l0.12,0.006c0,0,0,0,0.12,0.006s0.12,0.006,0.24,0.013l0.12,0.006
					c0.24,0.013,0.36,0.019,0.6,0.032c0.36,0.019,0.72,0.038,1.081,0.057c0.954,0.171,1.902,0.461,2.723,0.866
					c0.348,0.259,0.581,0.392,0.929,0.651c0.227,0.253,0.455,0.505,0.682,0.758c0.114,0.126,0.101,0.366,0.215,0.493
					c0,0,0,0-0.006,0.12l0,0l-0.006,0.12c-0.013,0.24-0.025,0.48-0.038,0.72c-0.284,0.828-1.017,1.03-1.611,0.878
					c-0.12-0.006-0.354-0.139-0.468-0.265c-0.234-0.133-0.348-0.259-0.455-0.506c-0.227-0.253-0.575-0.512-0.802-0.765
					c-0.12-0.006-0.12-0.006-0.234-0.133l0,0c-0.234-0.133-0.348-0.259-0.588-0.272c-0.354-0.139-0.588-0.272-1.068-0.297
					c-0.24-0.013-0.6-0.032-0.84-0.044c-0.48-0.025-0.973,0.19-1.346,0.411c-0.373,0.221-0.505,0.455-0.651,0.929
					c-0.139,0.354-0.032,0.6,0.196,0.853c0.227,0.253,0.461,0.385,0.695,0.518c0.354,0.139,0.708,0.278,1.062,0.417
					c0.12,0.006,0.114,0.126,0.114,0.126c0.24,0.013,0.474,0.145,0.714,0.158c0.594,0.152,1.188,0.303,1.782,0.455
					c0.354,0.139,0.594,0.152,0.948,0.291l0.12,0.006c0.234,0.133,0.474,0.145,0.708,0.278c0.708,0.278,1.283,0.79,1.858,1.302
					c0.114,0.126,0.114,0.126,0.114,0.126c0.227,0.253,0.335,0.499,0.442,0.746c0.107,0.246,0.329,0.619,0.31,0.979l-0.006,0.12
					l-0.006,0.12l0,0c-0.006,0.12-0.019,0.36-0.025,0.48c-0.013,0.24-0.019,0.36-0.152,0.594c-0.291,0.948-0.815,1.763-1.573,2.445
					l0,0l0,0c0,0-0.12-0.006-0.126,0.114s-0.126,0.114-0.246,0.107c-0.126,0.114-0.126,0.114-0.253,0.227
					c0,0-0.006,0.12-0.126,0.114c-0.246,0.107-0.373,0.221-0.619,0.329c-0.006,0.12-0.126,0.114-0.126,0.114
					c-0.12-0.006-0.126,0.114-0.246,0.107c-0.246,0.107-0.613,0.209-0.859,0.316c-0.24-0.013-0.366,0.101-0.607,0.088
					c-0.12-0.006-0.24-0.013-0.48-0.025l-0.12-0.006c-0.12-0.006-0.12-0.006-0.24-0.013c0,0,0,0-0.12-0.006
					c-0.36-0.019-0.72-0.038-1.081-0.057c-0.72-0.038-1.321-0.07-1.915-0.221l0,0c-0.114-0.126-0.114-0.126-0.24-0.013
					c-0.12-0.006-0.24-0.013-0.354-0.139c-0.354-0.139-0.594-0.152-0.828-0.284c-0.828-0.284-1.403-0.796-1.971-1.428l0,0
					c-0.114-0.126-0.227-0.253-0.341-0.379c-0.107-0.246-0.215-0.493-0.329-0.619c0.006-0.12,0.006-0.12,0.006-0.12l0.006-0.12l0,0
					c0.006-0.12,0.006-0.12,0.013-0.24l0,0c0,0,0,0,0.006-0.12c0.013-0.24,0.145-0.474,0.272-0.588
					c0.253-0.228,0.379-0.341,0.739-0.322c0,0,0,0,0.12,0.006l0.12,0.006l0,0c0.12,0.006,0.12,0.006,0.12,0.006
					c0.12,0.006,0.24,0.013,0.36,0.019c0.36,0.019,0.594,0.152,0.821,0.404c0.114,0.126,0.114,0.126,0.114,0.126
					c0.12,0.006,0.114,0.126,0.227,0.253c0.114,0.126,0.341,0.379,0.455,0.505c0.341,0.379,0.689,0.638,1.163,0.784
					c0.12,0.006,0.114,0.126,0.114,0.126c0.234,0.133,0.474,0.145,0.828,0.284c0,0,0,0,0.12,0.006l0.12,0.006l0,0l0.12,0.006l0,0
					c0.12,0.006,0.12,0.006,0.12,0.006l0,0c0.12,0.006,0.36,0.019,0.48,0.025c0,0,0,0,0.12,0.006l0.12,0.006l0,0l0.12,0.006
					c0.487-0.095,0.853-0.196,1.352-0.531c0.379-0.341,0.638-0.689,0.664-1.169c0.025-0.48-0.069-0.967-0.537-1.232
					c-0.234-0.133-0.468-0.265-0.581-0.392c-0.354-0.139-0.828-0.284-1.302-0.43c-0.474-0.145-0.948-0.291-1.428-0.316
					c0,0-0.12-0.006-0.114-0.126c-0.36-0.019-0.594-0.152-0.954-0.171c-0.714-0.158-1.422-0.436-2.123-0.834
					c-0.114-0.126-0.234-0.133-0.348-0.259c-0.234-0.133-0.348-0.259-0.575-0.512c-0.455-0.506-0.79-1.005-0.872-1.731
					c0,0,0,0,0.006-0.12l0.006-0.12l0,0l0.006-0.12l0,0c0.013-0.24,0.019-0.36-0.088-0.607c0,0,0,0,0.006-0.12l0,0l0.006-0.12l0,0
					l0.006-0.12l0,0c0,0,0,0,0.006-0.12c0.006-0.12,0.013-0.24,0.019-0.36c0,0,0,0,0.006-0.12c0.006-0.12,0.013-0.24,0.139-0.354
					c0.145-0.474,0.411-0.941,0.796-1.403c0.385-0.461,0.885-0.796,1.504-1.125c0.246-0.107,0.373-0.221,0.613-0.209
					c0,0,0,0,0.12,0.006C312.251,289.119,312.497,289.012,312.737,289.024z"/>
			</g>
		</g>
		<g>
			<path style="fill:#F4D969;" d="M122.321,208.209c0.474,11.582-8.714,21.452-20.29,21.806
				c-11.702,0.467-21.452-8.714-21.806-20.29c-0.474-11.582,8.588-21.339,20.29-21.806
				C112.091,187.565,121.967,196.633,122.321,208.209z"/>
		</g>
		<g>
			<g>
				<path style="fill:#FFFFFF;" d="M89.412,202.142l5.668-0.183c1.207-0.057,2.047-0.013,2.528,0.013
					c0.6,0.032,1.068,0.297,1.535,0.562c0.468,0.265,0.809,0.645,1.144,1.144c0.335,0.499,0.423,1.106,0.512,1.712
					c0.082,0.727-0.19,1.314-0.461,1.902c-0.392,0.581-0.897,1.036-1.39,1.251c0.834,0.164,1.535,0.562,2.104,1.194
					c0.449,0.626,0.771,1.365,0.733,2.085c-0.032,0.6-0.07,1.321-0.341,1.908s-0.663,1.169-1.163,1.504
					c-0.499,0.335-1.118,0.663-1.965,0.739c-0.487,0.095-1.573,0.158-3.501,0.177l-4.828,0.227L89.412,202.142z M92.3,204.461
					l0.069,3.254l1.927-0.019c1.207-0.057,1.814-0.145,2.174-0.126c0.487-0.095,0.859-0.316,1.112-0.543
					c0.259-0.348,0.398-0.701,0.423-1.182s-0.196-0.853-0.423-1.106c-0.227-0.253-0.581-0.392-1.062-0.417
					c-0.24-0.013-1.087,0.063-2.414,0.114L92.3,204.461z M92.483,210.129l0.158,3.861l2.654-0.101
					c0.967-0.069,1.687-0.032,2.054-0.133c0.366-0.101,0.739-0.322,0.998-0.67c0.259-0.348,0.398-0.701,0.303-1.188
					c0.025-0.48-0.076-0.847-0.303-1.099c-0.227-0.253-0.575-0.512-0.929-0.651c-0.354-0.139-1.314-0.19-2.521-0.133L92.483,210.129
					z"/>
				<path style="fill:#FFFFFF;" d="M110.176,212.505l2.749,0.386c-0.297,1.068-0.815,1.763-1.567,2.325
					c-0.752,0.562-1.611,0.878-2.818,0.935c-1.807,0.025-3.103-0.525-4.006-1.656c-0.796-0.885-1.093-2.104-1.137-3.551
					c-0.032-1.687,0.284-3.115,1.175-4.031c0.897-1.036,2.009-1.58,3.336-1.63c1.567-0.038,2.749,0.386,3.659,1.397
					s1.434,2.483,1.441,4.651l-6.875,0.24c0.076,0.847,0.284,1.46,0.746,1.845c0.461,0.385,0.929,0.651,1.535,0.562
					c0.36,0.019,0.853-0.196,1.106-0.423C109.892,213.333,110.031,212.979,110.176,212.505z M110.208,209.618
					c-0.076-0.847-0.291-1.34-0.626-1.839c-0.461-0.385-0.929-0.651-1.415-0.556c-0.6-0.032-1.099,0.303-1.485,0.765
					c-0.385,0.461-0.537,1.055-0.455,1.782L110.208,209.618z"/>
			</g>
			<g>
				<path style="fill:#FFFFFF;" d="M104.944,204.405l-0.114-2.414l6.028-0.164l0.114,2.414L104.944,204.405z"/>
			</g>
		</g>
		<g>
			<path style="fill:#F7CD00;" d="M310.64,262.548c-4.348,11.69-17.301,17.629-28.991,13.282s-17.629-17.301-13.282-28.991
				c4.348-11.69,17.301-17.629,28.991-13.282C309.054,237.785,314.988,250.858,310.64,262.548z"/>
		</g>
		<g>
			<path style="fill:#55BC55;" d="M327.483,116.438c-5.194,14.053-20.859,21.174-34.912,15.98
				c-14.053-5.194-21.174-20.859-15.98-34.912c5.194-14.053,20.859-21.174,34.912-15.98
				C325.556,86.721,332.677,102.385,327.483,116.438z"/>
		</g>
		<g>
			<g>
				<path style="fill:#55BC55;" d="M223.49,280.593c2.489,9.883,12.65,15.835,22.413,13.34c9.883-2.489,15.835-12.65,13.226-22.539
					c-2.489-9.883-12.53-15.829-22.419-13.219C226.947,260.67,221.001,270.71,223.49,280.593z"/>
			</g>
			<path style="fill:#FFFFFF;" d="M245.619,271.886c-0.487,0.095-0.986,0.43-1.365,0.771l-6.944-3.014
				c0.019-0.36,0.044-0.84-0.057-1.207c-0.398-1.586-1.915-2.509-3.501-2.111c-1.586,0.398-2.509,1.915-2.111,3.501
				s1.915,2.509,3.501,2.111c0.613-0.209,1.112-0.543,1.498-1.005l6.831,2.888c-0.145,0.474-0.171,0.954,0.044,1.447
				c0.095,0.487,0.436,0.866,0.777,1.245l-4.651,6.015c-0.594-0.152-1.188-0.303-1.681-0.089c-1.586,0.398-2.509,1.915-2.111,3.501
				c0.404,1.466,1.915,2.509,3.501,2.111c1.586-0.398,2.515-2.035,2.111-3.501c-0.101-0.366-0.322-0.739-0.543-1.112l4.657-6.135
				c0.474,0.145,0.954,0.171,1.561,0.082c1.586-0.398,2.515-2.035,2.111-3.501C248.722,272.411,247.085,271.482,245.619,271.886z"/>
		</g>
		<g>
			<path style="fill:#F4D969;" d="M373.552,201.813c-1.928,16.031-16.505,27.664-32.536,25.736
				c-16.031-1.928-27.543-16.499-25.736-32.536c1.934-16.151,16.499-27.543,32.536-25.736
				C363.973,171.09,375.485,185.662,373.552,201.813z"/>
			<g>
				<path style="fill:#FFFFFF;" d="M361.685,196.252c-0.897-8.113-7.07-14.338-15.323-15.374c-1.081-0.057-2.281-0.12-3.368-0.057
					c-11.728,0.948-19.102,12.96-14.736,23.784c0.107,0.246,0.095,0.487-0.044,0.84c-1.1,2.591-2.079,5.188-3.178,7.778
					c-0.145,0.474-0.145,0.474,0.221,0.373c2.913-0.449,5.82-0.777,8.613-1.232c0.24,0.013,0.36,0.019,0.594,0.152
					c3.368,2.344,7.172,3.267,11.159,2.995C355.644,214.956,362.86,205.945,361.685,196.252z M345.167,212.719
					c-0.847,0.076-1.567,0.038-2.041-0.107c-3.109-0.404-5.466-1.371-7.545-3.046c-0.227-0.253-0.468-0.265-0.954-0.171
					c-1.58,0.278-3.153,0.436-4.726,0.594c-0.366,0.101-0.36-0.019-0.228-0.253c0.556-1.415,1.112-2.831,1.668-4.246
					c0.139-0.354,0.158-0.714-0.063-1.087c-2.603-5.434-1.668-11.766,2.408-16.006c4.208-4.474,9.459-5.883,15.254-3.892
					c5.681,1.864,8.947,6.129,9.712,12.189C359.776,205.06,353.375,212.308,345.167,212.719z"/>
				<path style="fill:#FFFFFF;" d="M347.992,207.089c-0.6-0.032-1.194-0.183-1.782-0.455c-3.886-1.649-6.508-4.436-8.486-8.031
					c-0.771-1.365-1.422-2.723-1.58-4.297c-0.145-1.814,0.657-3.336,2.161-4.461c0.499-0.335,1.826-0.385,2.287,0
					c0.234,0.133,0.348,0.259,0.335,0.499c0.417,1.226,0.714,2.445,1.011,3.665c0.107,0.246-0.025,0.48-0.158,0.714
					c-0.265,0.468-0.771,0.923-1.15,1.264c-0.373,0.221-0.392,0.581-0.171,0.954c1.194,2.471,2.9,4.366,5.238,5.693
					c0.354,0.139,0.594,0.152,0.967-0.069c0.505-0.455,1.011-0.91,1.403-1.491c0.379-0.341,0.619-0.329,1.093-0.183
					c0.815,0.524,1.63,1.049,2.332,1.447c0.114,0.126,0.348,0.259,0.461,0.385c0.815,0.524,0.815,0.524,0.645,1.479
					c-0.335,1.788-1.82,2.553-3.52,2.824C348.712,207.126,348.352,207.107,347.992,207.089z"/>
			</g>
		</g>
		<g>
			<path style="fill:#F7CD00;" d="M99.647,284.426c-5.333,14.407-21.371,21.749-35.898,16.409
				c-14.407-5.333-21.749-21.371-16.409-35.898c5.333-14.407,21.491-21.743,35.898-16.409
				C97.639,253.982,104.981,270.019,99.647,284.426z"/>
		</g>
		<g>
			<path style="fill:#F7CD00;" d="M192.431,81.638c2.496,9.763,12.536,15.709,22.299,13.213
				c9.763-2.496,15.709-12.536,13.213-22.299s-12.536-15.709-22.299-13.213C195.881,61.834,189.941,71.755,192.431,81.638z"/>
		</g>
		<g>
			<path style="fill:#F7CD00;" d="M137.399,145.918c-5.327,14.287-21.118,21.522-35.405,16.194
				c-14.287-5.327-21.522-21.118-16.194-35.405s21.118-21.522,35.405-16.194C135.497,115.72,142.726,131.631,137.399,145.918z"/>
		</g>
		<path style="fill:#F7CD00;" d="M296.727,197.527c-5.333,14.407-21.371,21.749-35.771,16.296
			c-14.407-5.333-21.749-21.371-16.296-35.771c5.333-14.407,21.371-21.749,35.771-16.296
			C294.712,167.203,302.061,183.12,296.727,197.527z"/>
		<g>
			<path style="fill:#55BC55;" d="M364.921,146.22c-3.785,10.154-15.134,15.336-25.288,11.55
				c-10.154-3.785-15.342-15.014-11.55-25.288c3.785-10.154,15.014-15.342,25.288-11.55
				C363.525,124.717,368.706,136.065,364.921,146.22z"/>
		</g>
		<path style="fill:#F4D969;" d="M141.12,194.15c3.393,13.301,17.054,21.364,30.355,17.971s21.364-17.054,17.971-30.355
			c-3.393-13.301-17.054-21.364-30.355-17.971C145.783,167.307,137.727,180.849,141.12,194.15z"/>
		<g>
			<path style="fill:#F7CD00;" d="M226.341,244.746c-4.638,12.638-18.698,19-31.335,14.362c-12.638-4.638-19-18.698-14.362-31.335
				c4.638-12.638,18.698-19,31.335-14.362C224.61,218.169,231.099,232.115,226.341,244.746z"/>
		</g>
		<g>
			<path style="fill:#F7CD00;" d="M162.956,266.45c-4.493,12.164-18.066,18.432-30.343,13.812
				c-12.164-4.493-18.432-18.066-13.812-30.343c4.493-12.164,18.066-18.432,30.343-13.812
				C161.301,240.72,167.449,254.287,162.956,266.45z"/>
		</g>
		<g>
			<path style="fill:#F7CD00;" d="M18.793,201.193c3.696,14.401,18.293,22.995,32.693,19.298
				c14.401-3.696,22.995-18.293,19.298-32.693c-3.696-14.401-18.293-22.995-32.693-19.298
				C23.811,172.202,15.091,186.912,18.793,201.193z"/>
		</g>
		<path style="fill:#F7CD00;" d="M170.058,296.2c3.197,12.448,15.809,19.854,28.251,16.777
			c12.448-3.197,19.974-15.803,16.777-28.251s-15.809-19.854-28.257-16.657C174.387,271.145,166.861,283.751,170.058,296.2z"/>
		<g>
			<g>
				<path style="fill:#F7CD00;" d="M261.185,124.866c-0.19,15.039-12.499,27.032-27.532,26.722
					c-15.039-0.19-27.032-12.499-26.722-27.532c0.19-15.039,12.493-26.912,27.532-26.722
					C249.376,97.638,261.369,109.947,261.185,124.866z"/>
			</g>
			<g>
				<path style="fill:#FFFFFF;" d="M225.377,116.72l3.848,0.082l-0.019-1.927c-0.006-2.167,0.202-3.842,0.739-4.897
					c0.537-1.055,1.308-1.978,2.667-2.629c1.239-0.657,2.818-0.935,4.745-0.954c1.927-0.019,3.836,0.322,5.731,0.904l-0.973,4.764
					c-1.068-0.297-2.142-0.474-3.109-0.404c-0.96-0.051-1.7,0.272-2.199,0.607c-0.506,0.455-0.67,1.289-0.619,2.616l0.025,1.807
					l5.055,0.025l-0.044,5.415l-5.175-0.032l-0.234,20.454l-6.856-0.12l0.234-20.454l-3.848-0.082L225.377,116.72z"/>
			</g>
		</g>
		<path style="fill:#F7CD00;" d="M43.438,149.278c2.502,9.643,12.315,15.336,21.831,12.948s15.33-12.195,12.828-21.838
			c-2.508-9.523-12.195-15.33-21.711-12.941C46.743,129.949,40.929,139.755,43.438,149.278z"/>
		<path style="fill:#F7CD00;" d="M330.625,326.565c1.706,6.471,8.24,10.426,14.71,8.72c6.471-1.706,10.426-8.24,8.72-14.71
			s-8.24-10.426-14.71-8.72C332.881,313.441,329.039,320.101,330.625,326.565z"/>
		<path style="fill:#55BC55;" d="M260.961,298.337c2.104,8.057,10.274,12.941,18.331,10.837
			c8.057-2.104,12.821-10.281,10.837-18.331c-2.104-8.057-10.281-12.821-18.211-10.831
			C263.741,282.11,258.977,290.287,260.961,298.337z"/>
		<path style="fill:#F7CD00;" d="M225.486,318.14c2.104,8.057,10.274,12.941,18.331,10.837c8.057-2.104,12.821-10.281,10.837-18.331
			c-2.104-8.057-10.281-12.821-18.211-10.831C228.261,302.033,223.376,310.203,225.486,318.14z"/>
		<path style="fill:#55BC55;" d="M158.279,332.419c1.807,6.837,8.688,11.052,15.645,9.251c6.837-1.807,10.938-8.815,9.251-15.645
			c-1.807-6.837-8.694-10.932-15.525-9.245C160.573,318.574,156.478,325.462,158.279,332.419z"/>
		<path style="fill:#F7CD00;" d="M84.829,323.495c1.194,4.758,6.098,7.665,10.856,6.471s7.665-6.098,6.477-10.976
			c-1.194-4.758-6.098-7.665-10.856-6.471C86.421,313.827,83.635,318.737,84.829,323.495z"/>
		<path style="fill:#55BC55;" d="M12.726,240.964c1.889,7.564,9.712,12.189,17.282,10.18c7.564-1.889,12.189-9.712,10.18-17.282
			c-2.009-7.57-9.712-12.189-17.282-10.18C15.336,225.691,10.717,233.394,12.726,240.964z"/>
		<path style="fill:#F7CD00;" d="M129.176,222.054c1.194,4.758,5.984,7.538,10.742,6.344c4.758-1.194,7.538-5.984,6.344-10.742
			c-1.194-4.758-5.984-7.538-10.742-6.344C130.763,212.506,127.976,217.416,129.176,222.054z"/>
		<path style="fill:#55BC55;" d="M118.739,175.635c0.891,3.659,4.632,5.782,8.17,4.885c3.659-0.891,5.782-4.632,4.885-8.17
			c-0.891-3.659-4.632-5.782-8.17-4.885C119.965,168.356,117.841,172.097,118.739,175.635z"/>
		<path style="fill:#55BC55;" d="M81.116,176.784c1.497,5.858,7.456,9.301,13.314,7.804c5.858-1.497,9.295-7.336,7.798-13.194
			c-1.497-5.858-7.456-9.301-13.194-7.798C83.183,164.975,79.619,170.927,81.116,176.784z"/>
		<path style="fill:#F7CD00;" d="M144.299,145.198c1.39,5.611,7.115,8.922,12.612,7.406c5.491-1.396,8.916-6.995,7.406-12.612
			c-1.39-5.611-7.115-8.922-12.612-7.406C146.214,133.982,142.903,139.707,144.299,145.198z"/>
		<path style="fill:#55BC55;" d="M171.615,143.145c2.11,7.936,10.16,12.815,18.097,10.704c8.057-2.104,12.815-10.16,10.711-18.217
			c-2.11-7.936-10.16-12.815-18.217-10.711C174.383,127.158,169.505,135.208,171.615,143.145z"/>
		<path style="fill:#55BC55;" d="M100.953,97.288c1.295,5.125,6.552,8.17,11.557,6.869c5.125-1.295,8.17-6.552,6.875-11.677
			c-1.295-5.125-6.552-8.17-11.677-6.875C102.697,87.026,99.657,92.163,100.953,97.288z"/>
		<path style="fill:#55BC55;" d="M236.05,69.487c1.093,4.392,5.643,7.159,10.161,5.953c4.392-1.093,7.159-5.643,5.953-10.161
			c-1.087-4.512-5.643-7.159-10.161-5.953C237.605,60.54,234.963,64.976,236.05,69.487z"/>
		<path style="fill:#F7CD00;" d="M296.766,157.921c1.289,5.245,6.66,8.417,11.911,7.008c5.245-1.289,8.417-6.66,7.008-11.911
			c-1.289-5.245-6.66-8.417-11.911-7.008C298.523,147.419,295.477,152.676,296.766,157.921z"/>
		<path style="fill:#55BC55;" d="M198.185,173.558c2.003,7.69,9.826,12.316,17.509,10.433c7.69-2.003,12.436-9.819,10.433-17.509
			c-1.997-7.81-9.819-12.436-17.629-10.439C200.934,157.931,196.189,165.748,198.185,173.558z"/>
		<path style="fill:#F7CD00;" d="M265.02,143.488c0.992,4.025,5.08,6.407,9.105,5.415c4.025-0.992,6.407-5.08,5.415-9.105
			c-0.992-4.025-5.08-6.407-9.105-5.415C266.411,135.374,264.028,139.463,265.02,143.488z"/>
		<path style="fill:#F7CD00;" d="M247.948,90.46c1.807,6.837,8.808,11.058,15.645,9.251c6.837-1.807,11.058-8.808,9.251-15.645
			c-1.807-6.837-8.808-11.058-15.645-9.251C250.362,76.622,246.267,83.509,247.948,90.46z"/>
		<path style="fill:#55BC55;" d="M104.747,244.725c0.891,3.659,4.745,5.908,8.41,4.897c3.659-0.891,5.908-4.745,4.897-8.41
			c-0.891-3.659-4.745-5.908-8.41-4.897C106.1,237.332,103.857,241.066,104.747,244.725z"/>
		<path style="fill:#55BC55;" d="M20.536,266.416c0.891,3.659,4.745,5.908,8.41,4.897c3.659-0.891,5.908-4.745,4.897-8.41
			c-0.891-3.659-4.745-5.908-8.41-4.897C21.768,259.017,19.525,262.751,20.536,266.416z"/>
		<path style="fill:#F7CD00;" d="M245.797,231.926c0.998,3.905,4.966,6.281,8.992,5.289c3.905-0.998,6.287-5.087,5.289-8.992
			s-4.966-6.281-8.992-5.289C247.174,224.053,244.798,228.021,245.797,231.926z"/>
		<path style="fill:#F7CD00;" d="M207.48,200.533c0.998,3.905,5.087,6.287,8.992,5.289c3.905-0.998,6.281-4.966,5.289-8.992
			c-0.998-3.905-5.087-6.287-8.992-5.289C208.864,192.54,206.482,196.628,207.48,200.533z"/>
		<path style="fill:#F7CD00;" d="M320.725,251.642c1.896,7.444,9.484,11.936,17.048,10.047c7.444-1.896,12.057-9.478,10.047-17.048
			c-1.896-7.444-9.604-11.943-17.048-10.047C323.322,236.61,318.83,244.198,320.725,251.642z"/>
		<path style="fill:#55BC55;" d="M303.045,226.152c0.998,3.905,5.087,6.287,8.992,5.289c4.025-0.992,6.281-4.966,5.289-8.992
			c-0.998-3.905-4.966-6.281-8.992-5.289C304.429,218.158,302.053,222.126,303.045,226.152z"/>
		<path style="fill:#55BC55;" d="M358.952,335.039c0.891,3.659,4.632,5.782,8.17,4.885c3.659-0.891,5.782-4.632,4.885-8.17
			c-0.891-3.659-4.632-5.782-8.17-4.885C360.178,327.76,357.935,331.494,358.952,335.039z"/>
		<path style="fill:#FFFFFF;" d="M60.035,282.22c2.319,1.687,5.036,2.673,8.038,2.831c9.845,0.518,15.93-7.589,15.962-15.051
			c1.118-0.663,2.009-1.58,2.787-2.622c-0.986,0.43-2.079,0.613-3.166,0.676c1.112-0.543,2.009-1.58,2.559-2.875
			c-1.112,0.543-2.218,0.967-3.431,1.144c-0.904-1.131-2.313-1.807-3.753-1.883c-3.482-0.183-6.174,2.926-5.51,6.331
			c-4.429-0.474-8.278-2.844-10.755-6.104c-1.567,2.325-1.011,5.485,1.308,7.172c-0.84-0.044-1.668-0.329-2.363-0.847
			c-0.133,2.521,1.428,4.891,4.044,5.51c-0.733,0.202-1.573,0.158-2.407-0.006c0.607,2.199,2.452,3.741,4.846,3.987
			C65.703,282.037,62.897,282.732,60.035,282.22z"/>
		<g>
			<path style="fill:#FFFFFF;" d="M112.844,125.242c3.842,0.202,4.322,0.228,5.876,0.43c1.434,0.196,2.142,0.474,2.616,0.619
				c0.708,0.278,1.169,0.664,1.624,1.169c0.455,0.506,0.79,1.005,0.992,1.738c0.215,0.493,0.411,1.346,0.341,2.667
				c0.038,1.567,0.013,2.047-0.19,5.889s-0.228,4.322-0.43,5.876c-0.196,1.434-0.474,2.142-0.619,2.616
				c-0.278,0.708-0.664,1.169-1.169,1.624s-1.005,0.79-1.738,0.992c-0.493,0.215-1.346,0.411-2.667,0.341
				c-1.567,0.038-2.047,0.013-5.889-0.19c-3.842-0.202-4.322-0.228-5.877-0.43c-1.434-0.196-2.142-0.474-2.736-0.626
				c-0.708-0.278-1.169-0.663-1.624-1.169c-0.455-0.506-0.79-1.005-0.992-1.738c-0.215-0.493-0.411-1.346-0.341-2.667
				c-0.038-1.567-0.013-2.047,0.19-5.889s0.228-4.322,0.43-5.876c0.196-1.434,0.474-2.142,0.619-2.616
				c0.278-0.708,0.664-1.169,1.169-1.624s1.005-0.79,1.738-0.992c0.493-0.215,1.346-0.411,2.787-0.335
				C108.402,125.008,108.882,125.034,112.844,125.242 M112.983,122.601c-3.962-0.209-4.442-0.234-6.009-0.196
				c-1.567,0.038-2.66,0.221-3.52,0.537c-0.979,0.31-1.845,0.746-2.61,1.548c-0.885,0.796-1.403,1.491-1.814,2.433
				c-0.411,0.941-0.708,2.009-0.904,3.444c-0.202,1.554-0.228,2.035-0.436,5.997c-0.209,3.962-0.234,4.442-0.196,6.009
				s0.221,2.66,0.537,3.52c0.31,0.979,0.746,1.845,1.548,2.61c0.796,0.885,1.491,1.403,2.433,1.814
				c0.941,0.411,2.009,0.708,3.444,0.904c1.554,0.202,2.035,0.228,5.997,0.436c3.962,0.209,4.442,0.234,6.009,0.196
				c1.567-0.038,2.66-0.221,3.52-0.537c0.979-0.31,1.845-0.746,2.61-1.548c0.885-0.796,1.403-1.491,1.814-2.433
				c0.411-0.941,0.708-2.009,0.904-3.444c0.202-1.554,0.228-2.035,0.436-5.997s0.234-4.442,0.196-6.009
				c-0.038-1.567-0.221-2.66-0.537-3.52c-0.31-0.979-0.746-1.845-1.548-2.61c-0.796-0.885-1.491-1.403-2.433-1.814
				c-0.942-0.411-2.009-0.708-3.444-0.904C117.425,122.835,116.825,122.803,112.983,122.601"/>
			<path style="fill:#FFFFFF;" d="M112.61,129.684c-4.082-0.215-7.621,2.97-7.835,7.052c-0.215,4.082,2.97,7.621,7.052,7.835
				s7.621-2.97,7.835-7.052S116.692,129.899,112.61,129.684 M111.966,141.93c-2.641-0.139-4.689-2.414-4.549-5.055
				c0.139-2.641,2.414-4.689,5.055-4.549c2.641,0.139,4.689,2.414,4.549,5.055C116.882,140.022,114.607,142.069,111.966,141.93"/>
			<path style="fill:#FFFFFF;" d="M122.114,129.824c-0.051,0.96-0.935,1.757-1.896,1.706c-0.96-0.051-1.757-0.935-1.706-1.896
				s0.935-1.757,1.896-1.706C121.362,128.099,122.164,128.863,122.114,129.824"/>
		</g>
		<g>
			<path style="fill:#FFFFFF;" d="M170.085,188.211l-8.524-0.449l-0.126,2.401l5.763,0.303c-0.878,2.964-3.014,4.657-5.776,4.512
				c-3.722-0.196-6.565-3.355-6.369-7.077c0.196-3.722,3.355-6.565,7.077-6.369c1.801,0.095,3.324,0.897,4.467,2.041l2.009-1.58
				c-1.592-1.769-3.823-2.85-6.224-2.976c-5.042-0.265-9.339,3.602-9.605,8.644c-0.265,5.042,3.602,9.339,8.644,9.605
				c4.802,0.253,8.6-3.279,8.865-8.322L170.085,188.211z"/>
			<g>
				
					<rect x="176.38" y="185.238" transform="matrix(0.0526 -0.9986 0.9986 0.0526 -21.4151 357.1604)" style="fill:#FFFFFF;" width="2.284" height="9.257"/>
				
					<rect x="172.936" y="188.676" transform="matrix(0.0526 -0.9986 0.9986 0.0526 -21.327 357.1568)" style="fill:#FFFFFF;" width="9.257" height="2.284"/>
			</g>
		</g>
		<path style="fill:#FFFFFF;" d="M197.761,243.362c-0.07,1.321,0,2.287,0.202,3.02c0.202,0.733,0.651,1.359,1.34,1.997
			c0.689,0.638,1.504,1.163,2.445,1.573c0.941,0.411,2.136,0.594,3.456,0.664c1.081,0.057,2.167-0.006,3.14-0.196
			c0.973-0.19,2.073-0.493,3.305-1.03l0.234-4.442c-1.491,0.885-2.957,1.289-4.398,1.213c-0.84-0.044-1.548-0.322-2.129-0.714
			c-0.468-0.265-0.809-0.645-0.904-1.131c-0.095-0.487-0.158-1.573-0.076-3.134l0.379-7.203l6.723,0.354l0.234-4.442l-6.723-0.354
			l0.379-7.203l-3.962-0.209c-0.316,1.428-0.619,2.616-1.15,3.551c-0.531,0.935-1.175,1.744-2.047,2.3
			c-0.878,0.676-1.744,1.112-2.964,1.409l-0.215,4.082l3.122,0.164l-0.512,9.725L197.761,243.362z"/>
		<g>
			<g>
				
					<rect x="251.497" y="186.291" transform="matrix(0.0526 -0.9986 0.9986 0.0526 57.9653 439.2096)" style="fill:#FFFFFF;" width="17.913" height="5.53"/>
				
					<ellipse transform="matrix(0.0526 -0.9986 0.9986 0.0526 73.2597 426.1564)" style="fill:#FFFFFF;" cx="261.222" cy="174.469" rx="3.246" ry="3.246"/>
			</g>
			<path style="fill:#FFFFFF;" d="M272.122,189.249c0.133-2.521,1.409-3.899,3.57-3.785c2.041,0.107,2.926,1.599,2.793,4.12
				c-0.133,2.521-0.493,9.364-0.493,9.364l5.523,0.291c0,0,0.341-6.483,0.594-11.285s-2.388-7.229-6.11-7.425
				s-5.561,2.717-5.561,2.717l0.126-2.401l-5.283-0.278l-0.942,17.889l5.283,0.278C271.629,198.613,271.976,192.01,272.122,189.249z
				"/>
		</g>
		<path style="fill:#FFFFFF;" d="M204.123,296.308L204.123,296.308L204.123,296.308L204.123,296.308L204.123,296.308
			c-0.348-0.259-0.588-0.272-0.708-0.278l0,0c-1.182-0.423-2.218-1.321-2.888-2.319c-0.449-0.626-0.777-1.245-0.986-1.858l0,0
			c-0.107-0.246-0.088-0.607,0.038-0.72l0,0c0.259-0.348,0.626-0.449,1.112-0.543l0,0c0.487-0.095,0.979-0.31,1.479-0.645l0,0
			c0.12,0.006,0.126-0.114,0.253-0.227c0,0,0,0,0.006-0.12c0.006-0.12,0.013-0.24,0.019-0.36l0,0
			c-0.107-0.246-0.341-0.379-0.455-0.506l0,0c-0.234-0.133-0.594-0.152-0.834-0.164l0,0l0,0c-0.246,0.107-0.493,0.215-0.733,0.202
			l0,0c-0.36-0.019-0.607,0.088-0.84-0.044c0,0,0.006-0.12,0.013-0.24l0,0c0.025-0.48,0.057-1.081,0.082-1.561l0,0
			c0.044-0.84,0.089-1.681,0.013-2.528l0,0c-0.164-1.453-1.062-2.704-2.218-3.608c-0.809-0.645-1.87-1.062-2.824-1.232l0,0
			c-0.36-0.019-0.72-0.038-1.081-0.057c-1.441-0.076-2.9,0.208-4.031,1.112c-0.878,0.676-1.643,1.479-2.054,2.42l0,0
			c-0.411,0.941-0.468,2.022-0.525,3.103l0,0c-0.038,0.72,0.044,1.447-0.107,2.041l0,0c-0.36-0.019-0.6-0.032-0.96-0.051l0,0
			c-0.24-0.013-0.474-0.145-0.708-0.278l0,0c-0.24-0.013-0.6-0.032-0.727,0.082l0,0l0,0c-0.126,0.114-0.373,0.221-0.392,0.581l0,0
			l0,0c-0.013,0.24,0.101,0.366,0.221,0.373c0.114,0.126,0.234,0.133,0.227,0.253l0,0c0.461,0.385,1.055,0.537,1.523,0.803l0,0
			c0.354,0.139,0.581,0.392,0.682,0.758c0.101,0.366-0.164,0.834-0.303,1.188l0,0c-0.657,1.049-1.428,1.971-2.547,2.635
			c-0.499,0.335-1.112,0.543-1.845,0.746l0,0c-0.12-0.006-0.487,0.095-0.619,0.329c0,0,0,0-0.006,0.12
			c-0.126,0.114-0.019,0.36,0.095,0.487c0.114,0.126,0.234,0.133,0.227,0.253l0,0c0.461,0.385,1.055,0.537,1.529,0.682l0,0
			c0.354,0.139,0.714,0.158,0.948,0.291c0,0-0.006,0.12,0.107,0.246c0.107,0.246,0.088,0.607,0.19,0.973
			c-0.006,0.12,0.114,0.126,0.227,0.253c0.24,0.013,0.36,0.019,0.36,0.019l0,0c0.847-0.076,1.814-0.145,2.528,0.013l0,0
			c0.828,0.284,1.517,0.923,2.332,1.447l0,0l0,0c0.581,0.392,1.163,0.784,1.883,0.822l0,0l0,0c0.6,0.032,1.081,0.057,1.561,0.082
			l0,0c0.48,0.025,0.853-0.196,1.346-0.411l0,0c0.866-0.436,1.738-0.992,2.597-1.308l0,0c0.246-0.107,0.607-0.088,0.967-0.07l0,0
			c0.72,0.038,1.441,0.076,2.035,0.228c0,0,0,0,0.12,0.006c0.12,0.006,0.246-0.107,0.246-0.107l0.126-0.114
			c0.006-0.12,0.006-0.12,0,0l0,0c0.139-0.354,0.284-0.828,0.417-1.062c0.126-0.114,0.246-0.107,0.487-0.095l0,0
			c0.607-0.088,1.213-0.177,1.706-0.392l0,0c0.246-0.107,0.487-0.095,0.746-0.442l0,0l0,0
			C204.338,296.801,204.357,296.44,204.123,296.308L204.123,296.308z"/>
		<path style="fill:#FFFFFF;" d="M352.979,132.95c-2.395-0.246-4.031,1.112-5.137,3.823c0.493-0.215,0.853-0.196,1.333-0.171
			c0.84,0.044,1.295,0.55,1.125,1.504c-0.032,0.6-0.556,1.415-1.34,2.578c-0.784,1.163-1.409,1.611-1.769,1.592
			c-0.48-0.025-0.796-0.885-1.182-2.711c-0.095-0.487-0.265-1.82-0.512-4c-0.259-1.94-0.929-2.938-2.376-2.894
			c-0.6-0.032-1.472,0.524-2.603,1.428c-0.878,0.676-1.763,1.472-2.641,2.148l0.784,1.125c0.752-0.562,1.245-0.777,1.365-0.771
			c0.6,0.032,1.15,1.024,1.535,2.85c0.392,1.706,0.783,3.412,1.169,5.238c0.626,1.839,1.415,2.844,2.376,2.894
			c1.681,0.089,3.684-1.371,6.243-4.246c2.433-2.761,3.76-5.099,3.848-6.78C355.557,134.289,354.78,133.045,352.979,132.95z"/>
		<g>
			<g>
				<path style="fill:#FFFFFF;" d="M164.685,91.855c0.48,0.025,1.093-0.183,1.731-0.872l-0.044,0.84l1.441,0.076l0.424-8.044
					l-1.441-0.076l-0.322,6.123c-0.253,0.227-0.632,0.569-0.872,0.556c-0.36-0.019-0.348-0.259-0.329-0.619l0.322-6.123
					l-1.441-0.076l-0.354,6.723C163.762,91.084,163.964,91.817,164.685,91.855z"/>
				<path style="fill:#FFFFFF;" d="M158.195,89.346c-0.076,1.441,0.607,2.199,2.047,2.275c1.201,0.063,2.205-0.727,2.275-2.047
					l0.209-3.962c0.063-1.201-0.847-2.212-2.047-2.275c-1.321-0.07-2.205,0.727-2.275,2.047L158.195,89.346z M159.958,85.586
					c0.025-0.48,0.278-0.708,0.638-0.689c0.48,0.025,0.581,0.392,0.562,0.752l-0.196,3.722c-0.025,0.48-0.278,0.708-0.638,0.689
					c-0.36-0.019-0.581-0.392-0.562-0.752L159.958,85.586z"/>
				<polygon style="fill:#FFFFFF;" points="154.486,91.197 156.167,91.286 156.401,86.844 158.783,80.468 156.982,80.373 
					155.674,84.638 154.821,80.259 153.02,80.165 154.72,86.755 				"/>
			</g>
			<g>
				<path style="fill:#FFFFFF;" d="M169.879,93.814l-17.648-0.929c-1.921-0.101-3.564,1.377-3.665,3.298l-0.455,8.644
					c-0.101,1.921,1.377,3.564,3.298,3.665l17.648,0.929c1.921,0.101,3.564-1.377,3.665-3.298l0.455-8.644
					C173.278,95.558,171.8,93.915,169.879,93.814z M153.949,105.977l-1.561-0.082l0.468-8.884l-1.801-0.095l0.082-1.561l4.922,0.259
					l-0.082,1.561l-1.681-0.088l-0.468,8.884L153.949,105.977z M159.591,106.274l-1.441-0.076l0.044-0.84
					c-0.259,0.348-0.512,0.575-0.878,0.676c-0.746,0.442-1.826,0.385-1.744-1.175l0.335-6.363l1.441,0.076l-0.31,5.883
					c-0.019,0.36,0.095,0.487,0.335,0.499c0.24,0.013,0.739-0.322,0.872-0.556l0.303-5.763l1.441,0.076L159.591,106.274z
					 M165.196,105.004c-0.051,0.96-0.449,1.662-1.409,1.611c-0.48-0.025-0.948-0.291-1.283-0.79l-0.032,0.6l-1.441-0.076
					l0.55-10.445l1.441,0.076l-0.177,3.362c0.379-0.341,0.758-0.682,1.359-0.651c1.081,0.057,1.396,0.916,1.34,1.997l-0.228,4.322
					L165.196,105.004z M170.586,103.241l-2.761-0.145l-0.076,1.441c-0.032,0.6-0.057,1.081,0.543,1.112
					c0.6,0.032,0.619-0.329,0.657-1.049l0.025-0.48l1.441,0.076l-0.032,0.6c-0.076,1.441-0.727,2.37-2.287,2.287
					c-1.321-0.07-1.99-1.068-1.915-2.509l0.183-3.482c0.07-1.321,0.961-2.237,2.281-2.167c1.321,0.07,1.997,0.948,1.921,2.389
					l-0.101,1.921L170.586,103.241z"/>
				<path style="fill:#FFFFFF;" d="M168.577,100.246c-0.48-0.025-0.619,0.329-0.645,0.809l-0.038,0.72l1.201,0.063l0.038-0.72
					C169.278,100.644,169.177,100.278,168.577,100.246z"/>
				<path style="fill:#FFFFFF;" d="M163.054,99.955c-0.12-0.006-0.246,0.107-0.253,0.227l-0.253,4.802
					c0.114,0.126,0.227,0.253,0.348,0.259c0.234,0.133,0.594,0.152,0.727-0.082c0.126-0.114,0.133-0.234,0.145-0.474l0.209-3.962
					c0.013-0.24,0.025-0.48-0.088-0.607C163.661,99.867,163.301,99.848,163.054,99.955z"/>
			</g>
		</g>
		<g>
			<path style="fill:#FFFFFF;" d="M282.465,248.905c-3.362-0.177-6.249,2.079-6.78,5.301l0,0l0,0
				c-0.013,0.24-0.152,0.594-0.164,0.834c-0.19,3.602,2.66,6.641,6.262,6.831c3.602,0.19,6.755-2.534,6.945-6.135
				c0.051-0.96-0.139-1.934-0.455-2.793C287.311,250.605,285.106,249.044,282.465,248.905z"/>
			<path id="XMLID_97_" style="fill:#FFFFFF;" d="M305.206,256.002c-0.063-3.374-2.805-6.167-6.287-6.351
				c-2.641-0.139-5.005,1.302-6.205,3.526c-0.404,0.821-0.689,1.649-0.739,2.61c-0.19,3.602,2.66,6.641,6.262,6.831
				c3.602,0.19,6.755-2.534,6.945-6.135C305.307,256.368,305.313,256.248,305.206,256.002z"/>
		</g>
		<path style="fill:#FFFFFF;" d="M55.613,192.417l-1.921-0.101c-0.6-0.032-1.175-0.543-1.137-1.264l0.025-0.48
			c0.209-3.962-2.862-7.374-6.824-7.583l-4.922-0.259c-3.962-0.209-7.374,2.862-7.583,6.824l-0.487,9.244
			c-0.209,3.962,2.862,7.374,6.824,7.583l9.244,0.487c3.962,0.209,7.374-2.862,7.583-6.824l0.335-6.363
			C56.782,193.08,56.213,192.448,55.613,192.417z M40.751,188.865l4.322,0.228c0.72,0.038,1.409,0.676,1.365,1.517
			c-0.038,0.72-0.676,1.409-1.517,1.365l-4.322-0.228c-0.72-0.038-1.409-0.676-1.365-1.517
			C39.399,189.396,40.031,188.827,40.751,188.865z M48.795,200.726l-8.644-0.455c-0.72-0.038-1.409-0.676-1.365-1.517
			c0.038-0.72,0.676-1.409,1.517-1.365l8.644,0.455c0.72,0.038,1.409,0.676,1.365,1.517
			C50.267,200.201,49.635,200.77,48.795,200.726z"/>
		<g>
			<path style="fill:#FFFFFF;" d="M213.705,162.336c1.188,0.303,2.37,0.727,3.557,1.03c0.392-0.581,0.771-0.923,1.498-1.005
				c0.967-0.07,1.769,0.695,1.845,1.542c0.076,0.847-0.575,1.776-1.422,1.851c-0.973,0.19-1.902-0.461-1.971-1.428
				c-0.101-0.367-0.215-0.493-0.575-0.512c-0.834-0.164-1.662-0.449-2.49-0.733c-0.423,1.182-0.84,2.243-1.258,3.305
				c0.714,0.158,1.434,0.196,2.022,0.468c0.941,0.411,1.883,0.822,2.945,1.239c0.12,0.006,0.354,0.139,0.48,0.025
				c1.112-0.543,2.3-0.24,2.97,0.758c0.55,0.992,0.366,2.186-0.632,2.856c-0.126,0.114-0.253,0.227-0.259,0.348
				c0.038,1.567-0.739,2.61-1.87,3.513c-1.384,1.131-2.976,1.649-4.67,1.801c-2.54,0.227-4.929-0.139-7.153-1.34
				c-0.815-0.524-1.63-1.049-2.186-1.921c-0.676-0.878-0.986-1.858-0.809-2.932c0.006-0.12-0.101-0.367-0.215-0.493
				c-0.802-0.765-0.859-1.971-0.208-2.9c0.645-0.809,1.984-1.099,2.793-0.455c0.234,0.133,0.474,0.145,0.72,0.038
				c1.485-0.765,2.945-1.049,4.632-1.08c0.48,0.025,0.727-0.082,0.872-0.556C212.732,164.813,213.275,163.638,213.705,162.336z
				 M212.087,177.059c0.36,0.019,0.96,0.051,1.567-0.038c1.814-0.145,3.532-0.777,4.802-2.035c1.396-1.371,1.618-3.286,0.373-4.796
				c-0.449-0.626-1.144-1.144-1.731-1.415c-2.338-1.327-4.847-1.7-7.399-1.232c-1.58,0.278-2.932,0.809-4.069,1.832
				c-1.517,1.365-1.618,3.286-0.253,4.802c0.341,0.379,0.802,0.765,1.264,1.15C208.03,176.364,209.812,176.819,212.087,177.059z
				 M217.825,164.118c-0.032,0.6,0.423,1.106,0.904,1.131c0.6,0.032,1.106-0.423,1.137-1.024c0.032-0.6-0.423-1.106-1.024-1.137
				C218.362,163.063,217.856,163.518,217.825,164.118z M220.346,171.113c0.632-0.569,0.67-1.289,0.221-1.915
				c-0.455-0.505-1.289-0.67-1.668-0.329C219.341,169.615,219.783,170.361,220.346,171.113z M203.898,170.247
				c0.638-0.689,1.156-1.384,1.795-2.073c-0.461-0.385-1.308-0.31-1.693,0.152C203.487,168.901,203.443,169.741,203.898,170.247z"/>
			<path style="fill:#FFFFFF;" d="M209.345,169.691c0.72,0.038,1.295,0.55,1.251,1.39c-0.038,0.72-0.55,1.295-1.27,1.257
				s-1.289-0.67-1.257-1.27C207.992,170.222,208.624,169.653,209.345,169.691z"/>
			<path style="fill:#FFFFFF;" d="M214.987,169.988c0.72,0.038,1.289,0.67,1.131,1.384c-0.038,0.72-0.663,1.169-1.384,1.131
				c-0.72-0.038-1.289-0.67-1.251-1.39C213.755,170.525,214.267,169.95,214.987,169.988z"/>
			<path style="fill:#FFFFFF;" d="M211.916,175.725c-0.96-0.051-1.795-0.215-2.61-0.739c-0.114-0.126-0.348-0.259-0.341-0.379
				c-0.114-0.126-0.101-0.367,0.025-0.48c0.126-0.114,0.367-0.101,0.487-0.095c1.03,1.017,2.357,0.967,3.69,0.796
				c0.487-0.095,0.859-0.316,1.352-0.531c0.246-0.107,0.373-0.221,0.6,0.032c0.227,0.253-0.025,0.48-0.152,0.594
				c-0.752,0.562-1.599,0.638-2.445,0.714C212.156,175.738,212.036,175.732,211.916,175.725z"/>
		</g>
		<g>
			<path style="fill:#FFFFFF;" d="M129.726,250.495c0.013-0.24,0.019-0.36,0.032-0.6c1.321,0.07,2.641,0.139,3.962,0.209
				c0.36,0.019,0.354,0.139,0.461,0.385c0.227,2.54,0.461,4.96,1.055,7.399c0.897,3.539,2.294,6.742,4.423,9.744
				c0.114,0.126,0.221,0.373,0.474,0.145c1.649-1.599,3.071-3.45,4.385-5.548c0.133-0.234,0.013-0.24-0.101-0.366
				c-0.468-0.265-0.815-0.524-1.156-0.904c-2.742-2.793-3.406-6.199-2.369-9.876c0.6-2.256,2.237-3.614,4.543-3.974
				c0.12,0.006,0.24,0.013,0.246-0.107c0.6,0.032,1.321,0.07,1.921,0.101c-0.006,0.12,0.114,0.126,0.114,0.126
				c2.262,0.48,3.633,1.877,4.113,4.189c0.101,0.366-0.032,0.6,0.19,0.973c-0.044,0.84-0.082,1.561-0.126,2.401
				c-0.12-0.006-0.126,0.114-0.133,0.234c-0.171,0.954-0.455,1.782-0.859,2.603c-0.006,0.12-0.133,0.234-0.253,0.227
				c-1.213,0.177-2.401-0.126-3.191-1.131c-0.114-0.126-0.221-0.373-0.088-0.607c0.272-0.588,0.423-1.182,0.455-1.782
				c0.164-0.834,0.209-1.674-0.107-2.534c-0.209-0.613-0.556-0.872-1.15-1.024c-0.6-0.032-1.093,0.183-1.359,0.651
				c-0.133,0.234-0.265,0.468-0.278,0.708c-0.278,0.708-0.316,1.428-0.234,2.155c-0.051,3.248,2.23,5.655,5.478,5.706
				c0.6,0.032,1.087-0.063,1.687-0.032c-0.051,0.96-0.107,2.041-0.158,3.001c-0.967,0.069-1.82,0.265-2.78,0.215
				c-0.24-0.013-0.246,0.107-0.373,0.221c-0.929,1.637-1.972,3.147-3.248,4.524c-1.15,1.264-2.3,2.528-3.798,3.532
				c-1.251,0.897-2.212,0.847-3.368-0.057c-0.581-0.392-1.036-0.897-1.491-1.403c-1.7-2.016-2.9-4.366-3.854-6.824
				c-1.377-3.564-2.028-7.21-2.553-10.97C129.909,251.588,129.94,250.988,129.726,250.495z"/>
		</g>
		<g>
			<path style="fill:#FFFFFF;" d="M135.134,303.27c0.923,0.771,1.232,1.75,0.802,3.052c-0.562,1.535-1.7,2.559-3.178,3.204
				c-0.992,0.55-0.878,0.676-1.175-0.543c-0.196-0.853-0.272-1.7-0.107-2.534c0.322-1.548,1.22-2.584,2.692-3.109
				C134.533,303.238,134.773,303.251,135.134,303.27z"/>
			<path style="fill:#FFFFFF;" d="M124.347,311.49c-1.801-0.095-3.576-0.67-4.941-2.186c-0.341-0.379-0.676-0.878-0.885-1.491
				c-0.524-1.472,0.019-2.648,1.378-3.298c1.485-0.765,3.159-0.556,4.695,0.006c2.717,0.986,4.537,3.008,5.605,5.592
				c0.107,0.246-0.019,0.36-0.139,0.354C128.214,311.212,126.388,311.598,124.347,311.49z"/>
			<path style="fill:#FFFFFF;" d="M137.92,323.522c-1.877,1.346-5.27,1.769-7.406-1.112c-1.46-2.003-2.066-4.202-1.82-6.597
				c0.038-0.72,0.31-1.308,0.701-1.889c0.916-1.396,2.401-2.161,3.987-2.559C131.607,315.364,134.274,321.885,137.92,323.522z"/>
			<path style="fill:#FFFFFF;" d="M134.956,313.494c0.025-0.48,0.057-1.081,0.569-1.656c0.506-0.455,1.118-0.663,1.826-0.385
				c3.418,1.384,4.998,5.681,3.387,8.846c-0.537,1.055-1.877,1.346-2.799,0.575C135.98,319.206,134.811,316.255,134.956,313.494z"/>
			<path style="fill:#FFFFFF;" d="M129.459,324.16c-1.194-0.183-2.376-0.607-3.437-1.024c-0.708-0.278-1.295-0.55-2.003-0.828
				c-0.354-0.139-0.581-0.392-0.436-0.866c0.695-1.769,1.744-3.399,2.919-5.143C126.578,319.433,127.532,321.891,129.459,324.16z"/>
		</g>
		<g>
			<path style="fill:#FFFFFF;" d="M302.846,92.748c2.875,0.272,5.346,1.365,7.399,3.52c2.167,2.281,3.109,4.979,2.944,8.101
				c-0.089,1.681-0.657,3.336-1.346,4.986c-1.239,2.945-2.711,5.756-4.537,8.429c-1.175,1.744-2.344,3.368-3.747,4.859
				c-0.385,0.461-0.891,0.916-1.39,1.251c-0.752,0.562-1.232,0.537-2.041-0.107c-0.923-0.771-1.712-1.776-2.382-2.774
				c-2.894-4.486-5.049-9.295-6.217-14.533c-0.701-2.686-0.442-5.32,0.891-7.778c1.599-2.926,4.107-4.84,7.399-5.63
				C300.919,92.767,301.885,92.698,302.846,92.748z M302.751,94.549c-5.042-0.265-9.459,3.595-9.725,8.638
				c-0.265,5.042,3.595,9.459,8.758,9.731c5.042,0.265,9.339-3.602,9.605-8.644C311.661,99.112,307.794,94.815,302.751,94.549z"/>
			<path style="fill:#FFFFFF;" d="M297.19,101.841c1.251,1.39,2.685,1.586,3.709,0.436c0.765-0.802,1.093-2.471-0.537-3.52
				c1.238-0.657,4.006-0.632,5.946,1.397c1.82,2.022,1.902,5.036,0.107,7.109c-1.795,2.073-4.828,2.515-7.039,1.074
				C296.931,106.763,296.363,103.844,297.19,101.841z"/>
		</g>
		<path style="fill:#FFFFFF;" d="M247.918,315.107L247.918,315.107L247.918,315.107c0.019-0.36,0.025-0.48,0.038-0.72
			c0.013-0.24,0.019-0.36,0.032-0.6l0.006-0.12l0.006-0.12l0.006-0.12c0,0,0,0,0.006-0.12l0,0l0,0l0.006-0.12
			c0.006-0.12,0.006-0.12,0.013-0.24l0,0l0.006-0.12l0.006-0.12l0.006-0.12c0,0,0,0,0.006-0.12l0.006-0.12
			c0.006-0.12,0.006-0.12,0.013-0.24l0,0l0.006-0.12l0.006-0.12l0.006-0.12c0.019-0.36-0.088-0.607-0.076-0.847
			c-0.107-0.246-0.101-0.366-0.215-0.493c-0.107-0.246-0.095-0.487-0.209-0.613c0.006-0.12-0.107-0.246-0.107-0.246l0.006-0.12
			c0.006-0.12,0,0,0.006-0.12c-0.114-0.126-0.107-0.246-0.221-0.373l0.006-0.12c0,0,0,0-0.114-0.126l-0.114-0.126
			c-0.114-0.126-0.221-0.373-0.455-0.506c-0.114-0.126-0.341-0.379-0.455-0.505s-0.227-0.253-0.461-0.385
			c0,0-0.12-0.006-0.114-0.126c0,0,0,0-0.12-0.006l0,0c-0.114-0.126-0.234-0.133-0.468-0.265c0,0-0.12-0.006-0.114-0.126
			c-0.114-0.126-0.354-0.139-0.468-0.265c-0.12-0.006-0.234-0.133-0.354-0.139c-0.114-0.126-0.354-0.139-0.468-0.265l-0.12-0.006
			c-0.234-0.133-0.474-0.145-0.828-0.284c-0.24-0.013-0.48-0.025-0.714-0.158c-0.24-0.013-0.36-0.019-0.6-0.032
			c-0.24-0.013-0.36-0.019-0.6-0.032c-0.12-0.006-0.24-0.013-0.48-0.025l-0.12-0.006c-0.12-0.006-0.12-0.006-0.12-0.006
			c-0.12-0.006-0.24-0.013-0.246,0.107l0,0c0,0,0,0-0.12-0.006c-0.246,0.107-0.487,0.095-0.733,0.202l-0.12-0.006l0,0
			c-0.12-0.006-0.12-0.006-0.246,0.107l-0.12-0.006l-0.12-0.006l-0.12-0.006c-0.12-0.006-0.12-0.006-0.126,0.114
			c-0.12-0.006-0.12-0.006-0.126,0.114l-0.12-0.006c-0.12-0.006-0.12-0.006-0.246,0.107l-0.12-0.006l0,0c0,0,0,0-0.12-0.006
			c-0.126,0.114-0.246,0.107-0.373,0.221c-0.12-0.006-0.12-0.006-0.12-0.006l0,0l0,0l0,0l0,0l0,0l0,0c0,0,0,0-0.126,0.114
			c-0.246,0.107-0.373,0.221-0.619,0.329c-0.12-0.006-0.126,0.114-0.246,0.107c-0.126,0.114-0.253,0.227-0.373,0.221
			c-0.126,0.114-0.253,0.228-0.373,0.221l0,0l-0.126,0.114c-0.12-0.006-0.12-0.006-0.126,0.114
			c-0.253,0.227-0.385,0.461-0.512,0.575c-0.006,0.12-0.126,0.114-0.253,0.228c0,0,0,0-0.006,0.12l0,0
			c-0.126,0.114-0.126,0.114-0.133,0.234c0,0-0.006,0.12-0.126,0.114c0,0,0,0-0.126,0.114c-0.006,0.12-0.126,0.114-0.133,0.234
			c-0.126,0.114-0.133,0.234-0.265,0.468c-0.006,0.12-0.013,0.24-0.133,0.234c-0.006,0.12-0.006,0.12,0,0l-0.006,0.12
			c-0.006,0.12-0.006,0.12-0.133,0.234c0,0-0.006,0.12,0,0l-0.006,0.12c-0.013,0.24-0.139,0.354-0.152,0.594
			c-0.006,0.12-0.006,0.12-0.013,0.24c-0.006,0.12-0.013,0.24-0.019,0.36c-0.013,0.24-0.019,0.36-0.152,0.594
			c-0.006,0.12-0.019,0.36-0.019,0.36c-0.006,0.12-0.019,0.36-0.025,0.48c-0.006,0.12-0.013,0.24-0.019,0.36
			c-0.006,0.12,0.107,0.246,0.095,0.487l-0.006,0.12c-0.013,0.24,0.101,0.366,0.202,0.733c0.107,0.246,0.101,0.366,0.208,0.613
			c0.107,0.246,0.215,0.493,0.329,0.619c-0.006,0.12,0.107,0.246,0.107,0.246l-0.006,0.12c0.114,0.126,0.227,0.253,0.341,0.379
			s0.227,0.253,0.341,0.379c0.114,0.126,0.227,0.253,0.348,0.259c0.114,0.126,0.114,0.126,0.227,0.253c0,0,0,0,0.12,0.006
			c0.114,0.126,0.234,0.133,0.468,0.265l0.12,0.006c0.12,0.006,0.12,0.006,0.24,0.013s0.12,0.006,0.24,0.013
			c0.12,0.006,0.234,0.133,0.36,0.019l0.12,0.006c0.246-0.107,0.253-0.227,0.265-0.468c0.006-0.12,0.013-0.24,0.019-0.36
			c0.006-0.12,0.013-0.24,0.019-0.36c0.006-0.12,0.013-0.24,0.013-0.24c0.013-0.24,0.013-0.24-0.095-0.487
			c0.006-0.12-0.114-0.126-0.114-0.126c-0.12-0.006-0.12-0.006-0.114-0.126c-0.114-0.126-0.234-0.133-0.348-0.259l0,0l0,0
			c-0.114-0.126-0.227-0.253-0.341-0.379l0,0c-0.107-0.246-0.215-0.493-0.322-0.739c-0.107-0.246-0.215-0.493-0.202-0.733
			c0.013-0.24-0.101-0.366-0.095-0.487c0.019-0.36,0.032-0.6,0.051-0.96c0.013-0.24,0.025-0.48,0.038-0.72
			c0.133-0.234,0.152-0.594,0.284-0.828c0.006-0.12,0.133-0.234,0.139-0.354c0.006-0.12,0.133-0.234,0.133-0.234
			c0.133-0.234,0.265-0.468,0.392-0.581c0.126-0.114,0.133-0.234,0.259-0.348c0.126-0.114,0.259-0.348,0.379-0.341
			c0.126-0.114,0.253-0.227,0.379-0.341l0,0c0.12,0.006,0.12,0.006,0.126-0.114c0.126-0.114,0.253-0.228,0.499-0.335
			c0.12,0.006,0.126-0.114,0.246-0.107c0.126-0.114,0.373-0.221,0.493-0.215c0.126-0.114,0.246-0.107,0.367-0.101
			c0.12,0.006,0.12,0.006,0.246-0.107c0.246-0.107,0.367-0.101,0.613-0.209c0.12,0.006,0.24,0.013,0.246-0.107
			c0.12,0.006,0.12,0.006,0.12,0.006c0.12,0.006,0.12,0.006,0.24,0.013c0,0,0,0,0.12,0.006l0.12,0.006
			c0.12,0.006,0.24,0.013,0.24,0.013l0.12,0.006l0,0l0.12,0.006c0.12,0.006,0.12,0.006,0.24,0.013l0.12,0.006
			c0.12,0.006,0.12,0.006,0.24,0.013l0.12,0.006c0.12,0.006,0.24,0.013,0.36,0.019c0.36,0.019,0.594,0.152,0.828,0.284
			c0.24,0.013,0.354,0.139,0.468,0.265c0.12,0.006,0.234,0.133,0.348,0.259c0.234,0.133,0.461,0.385,0.689,0.638
			c0.114,0.126,0.227,0.253,0.221,0.373c0.114,0.126,0.221,0.373,0.335,0.499c0.107,0.246,0.221,0.373,0.209,0.613
			c0.107,0.246,0.215,0.493,0.196,0.853c-0.006,0.12,0.101,0.366,0.088,0.607c-0.013,0.24,0.095,0.487,0.076,0.847
			c0,0,0,0-0.006,0.12c-0.006,0.12-0.013,0.24-0.019,0.36c-0.013,0.24-0.025,0.48-0.044,0.84c-0.013,0.24-0.019,0.36-0.025,0.48
			c-0.013,0.24-0.025,0.48-0.158,0.714c-0.006,0.12-0.006,0.12-0.013,0.24c-0.013,0.24-0.139,0.354-0.152,0.594
			c-0.133,0.234-0.145,0.474-0.278,0.708c-0.126,0.114-0.133,0.234-0.259,0.348c-0.126,0.114-0.133,0.234-0.253,0.228
			c-0.253,0.227-0.379,0.341-0.626,0.449c-0.246,0.107-0.373,0.221-0.619,0.329c-0.12-0.006-0.366,0.101-0.487,0.095
			c-0.12-0.006-0.12-0.006-0.12-0.006l-0.12-0.006c-0.12-0.006-0.24-0.013-0.234-0.133c-0.12-0.006-0.234-0.133-0.474-0.145
			c-0.114-0.126-0.234-0.133-0.348-0.259c0,0-0.114-0.126-0.234-0.133c0.006-0.12-0.114-0.126-0.107-0.246
			c-0.114-0.126-0.101-0.366-0.215-0.493c0.006-0.12-0.101-0.366,0.032-0.6c0.013-0.24,0.025-0.48,0.038-0.72
			c0.006-0.12,0.013-0.24,0.019-0.36c0.006-0.12,0.019-0.36,0.025-0.48c0.006-0.12,0.013-0.24,0.019-0.36
			c0.006-0.12,0.006-0.12,0.013-0.24c0.013-0.24,0.019-0.36,0.032-0.6c0.013-0.24,0.025-0.48,0.038-0.72
			c0.013-0.24,0.032-0.6-0.076-0.847c0.013-0.24-0.101-0.366-0.208-0.613c-0.107-0.246-0.341-0.379-0.455-0.506
			c-0.12-0.006-0.234-0.133-0.234-0.133c-0.12-0.006-0.24-0.013-0.36-0.019c-0.24-0.013-0.48-0.025-0.727,0.082
			c-0.246,0.107-0.493,0.215-0.746,0.442c0,0-0.126,0.114-0.133,0.234c-0.126,0.114-0.259,0.348-0.265,0.468
			c-0.126,0.114-0.133,0.234-0.139,0.354c-0.139,0.354-0.164,0.834-0.183,1.194c-0.013,0.24-0.019,0.36,0.088,0.607
			c-0.013,0.24,0.101,0.366,0.088,0.607c-0.013,0.24,0.101,0.366,0.208,0.613c0.107,0.246,0.215,0.493,0.442,0.746l0,0l-0.006,0.12
			l0,0l-0.006,0.12c-0.006,0.12-0.006,0.12-0.013,0.24l-0.006,0.12c0,0-0.006,0.12-0.013,0.24c-0.006,0.12-0.006,0.12-0.006,0.12
			l0,0l-0.006,0.12l-0.006,0.12l-0.006,0.12c-0.006,0.12-0.013,0.24-0.019,0.36l-0.006,0.12l0,0c0,0,0,0-0.006,0.12l-0.006,0.12
			l-0.006,0.12l-0.006,0.12l0,0l-0.006,0.12c-0.006,0.12-0.006,0.12-0.006,0.12l-0.006,0.12l-0.006,0.12l0,0
			c-0.006,0.12-0.019,0.36-0.025,0.48c-0.006,0.12-0.019,0.36-0.025,0.48c-0.006,0.12-0.013,0.24-0.019,0.36
			c-0.006,0.12-0.006,0.12-0.013,0.24c-0.006,0.12-0.006,0.12-0.006,0.12c-0.013,0.24-0.019,0.36-0.032,0.6
			c-0.013,0.24-0.019,0.36-0.032,0.6c-0.013,0.24-0.025,0.48-0.032,0.6c-0.006,0.12-0.019,0.36-0.032,0.6
			c-0.006,0.12-0.013,0.24-0.019,0.36c-0.006,0.12-0.019,0.36-0.025,0.48c-0.013,0.24-0.019,0.36,0.095,0.487
			c-0.006,0.12,0.101,0.366,0.088,0.607c-0.006,0.12-0.006,0.12-0.013,0.24c0.594,0.152,1.194,0.183,1.795,0.215
			c0.013-0.24,0.145-0.474,0.158-0.714c0.133-0.234,0.145-0.474,0.164-0.834c0.013-0.24,0.145-0.474,0.044-0.84c0,0,0,0,0.006-0.12
			c0.006-0.12,0.013-0.24,0.019-0.36c0.006-0.12,0.006-0.12,0.013-0.24s0.019-0.36,0.025-0.48s0.019-0.36,0.025-0.48
			s0.019-0.36,0.025-0.48s0.013-0.24,0.025-0.48c0.006-0.12,0.006-0.12,0.013-0.24c0.006-0.12,0.006-0.12,0.013-0.24
			c0.006-0.12,0.006-0.12,0.013-0.24c0.114,0.126,0.114,0.126,0.227,0.253l0.12,0.006c0.227,0.253,0.588,0.272,0.941,0.411
			c0.12,0.006,0.234,0.133,0.474,0.145c0.12,0.006,0.12,0.006,0.24,0.013c0.24,0.013,0.36,0.019,0.6,0.032
			c0.12,0.006,0.24,0.013,0.366-0.101c0.24,0.013,0.487-0.095,0.607-0.088l0,0c0.12,0.006,0.366-0.101,0.487-0.095
			c0.126-0.114,0.366-0.101,0.493-0.215c0.126-0.114,0.373-0.221,0.493-0.215c0.126-0.114,0.246-0.107,0.373-0.221
			c0.126-0.114,0.253-0.227,0.385-0.461c0.246-0.107,0.379-0.341,0.512-0.575c0.253-0.228,0.385-0.461,0.524-0.815
			c0.006-0.12,0.126-0.114,0.126-0.114c0.006-0.12,0.013-0.24,0.133-0.234l0,0c0,0,0,0,0.006-0.12
			c0.006-0.12,0.133-0.234,0.139-0.354c0,0,0,0,0.006-0.12c0.006-0.12,0.133-0.234,0.139-0.354c0,0,0,0,0.006-0.12
			s0.126-0.114,0.133-0.234l0,0c0.013-0.24,0.139-0.354,0.152-0.594c0,0,0,0,0.12,0.006l0,0
			C247.779,315.461,247.906,315.347,247.918,315.107L247.918,315.107z"/>
	</g>
</g>
</svg>
