<?xml version="1.0" encoding="iso-8859-1"?>
<!-- Generator: Adobe Illustrator 22.0.0, SVG Export Plug-In . SVG Version: 6.00 Build 0)  -->
<svg version="1.1" id="Layer_1" xmlns="http://www.w3.org/2000/svg" xmlns:xlink="http://www.w3.org/1999/xlink" x="0px" y="0px"
	 viewBox="0 0 500 356.25" style="enable-background:new 0 0 500 356.25;" xml:space="preserve">
<path style="fill:#8FA5E2;" d="M396.555,330.295H107.576c-2.002,0-3.639-1.638-3.639-3.639v-4.639c0-2.002,1.638-3.639,3.639-3.639
	h288.979c2.002,0,3.639,1.638,3.639,3.639v4.639C400.194,328.658,398.556,330.295,396.555,330.295z"/>
<g>
	<path style="fill:#80D8FF;" d="M97.984,191.962c-6.326-20.905-3.781-44.341,6.887-63.4c21.871,7.523,39.635,26.059,46.221,48.23
		c4.85,16.327,3.548,34.314-3.152,49.934c-2.979,6.944-5.669,16.166-13.945,11.463c-8.032-4.564-15.191-11.172-21.018-18.289
		C106.239,211.672,101.066,202.147,97.984,191.962z"/>
</g>
<g>
	<g>
		<path style="fill:#D0DAFC;" d="M82.566,220.273c-10.621-19.085-13.111-42.527-6.734-63.417
			c22.97,2.707,44.265,17.048,55.409,37.314c8.207,14.925,10.754,32.778,7.524,49.465c-1.436,7.419-2.107,17.001-11.193,14.163
			c-8.818-2.755-17.217-7.691-24.423-13.408C94.819,237.781,87.741,229.571,82.566,220.273z"/>
	</g>
</g>
<g>
	<path style="fill:#E3F2FD;" d="M136.851,189.233c-8.7-15.821-23.586-28.031-40.626-33.914c-0.361,2.221-0.616,4.457-0.797,6.699
		c15.25,6.345,28.411,17.804,36.38,32.296c7.501,13.641,10.258,29.725,8.214,45.131c2.117-0.546,3.688-2.399,5.002-4.76
		C147.15,219.183,144.404,202.969,136.851,189.233z"/>
</g>
<g>
	<g>
		<g>
			<path style="fill:#FFFFFF;" d="M132.034,256.63c-0.217,0-0.41-0.155-0.45-0.376c-8.432-46.372-55.604-97.431-56.08-97.941
				c-0.172-0.185-0.162-0.475,0.023-0.648c0.186-0.173,0.475-0.163,0.648,0.023c0.477,0.512,47.83,51.764,56.311,98.402
				c0.045,0.249-0.12,0.487-0.369,0.532C132.089,256.628,132.062,256.63,132.034,256.63z"/>
		</g>
	</g>
	<g>
		<g>
			<path style="fill:#FFFFFF;" d="M103.979,194.574c-0.029,0-0.058-0.003-0.087-0.008c-0.249-0.047-0.412-0.288-0.364-0.536
				l4.524-23.687c0.047-0.249,0.293-0.412,0.536-0.364c0.249,0.047,0.412,0.288,0.364,0.536l-4.524,23.687
				C104.386,194.422,104.193,194.574,103.979,194.574z"/>
		</g>
	</g>
	<g>
		<g>
			<path style="fill:#FFFFFF;" d="M119.676,221.507c-0.057,0-0.115-0.011-0.172-0.033c-0.234-0.095-0.348-0.362-0.253-0.597
				l10.897-26.932c0.096-0.235,0.363-0.347,0.597-0.253c0.234,0.095,0.348,0.362,0.253,0.597l-10.897,26.932
				C120.028,221.399,119.856,221.507,119.676,221.507z"/>
		</g>
	</g>
	<g>
		<g>
			<path style="fill:#FFFFFF;" d="M91.042,176.7H72.537c-0.253,0-0.458-0.205-0.458-0.458c0-0.253,0.205-0.458,0.458-0.458h18.505
				c0.253,0,0.458,0.205,0.458,0.458C91.501,176.495,91.296,176.7,91.042,176.7z"/>
		</g>
	</g>
	<g>
		<g>
			<path style="fill:#FFFFFF;" d="M111.002,205.733H76.321c-0.253,0-0.458-0.205-0.458-0.458s0.205-0.458,0.458-0.458h34.681
				c0.253,0,0.458,0.205,0.458,0.458S111.255,205.733,111.002,205.733z"/>
		</g>
	</g>
	<g>
		<g>
			<path style="fill:#FFFFFF;" d="M124.97,235.066c0,0-0.015,0-0.023,0l-34.672-1.786c-0.253-0.013-0.447-0.229-0.434-0.481
				c0.013-0.251,0.195-0.455,0.481-0.434l34.672,1.786c0.253,0.013,0.447,0.229,0.434,0.481
				C125.415,234.876,125.213,235.066,124.97,235.066z"/>
		</g>
	</g>
</g>
<g>
	<g>
		<g>
			<g>
				<polygon style="fill:#80D8FF;" points="371.041,291.277 397.369,294.898 392.064,320.012 369.368,316.891 				"/>
			</g>
		</g>
		<g>
			<g>
				<polygon style="fill:#80D8FF;" points="420.81,285.578 437.11,264.589 456.208,281.74 442.156,299.834 				"/>
			</g>
		</g>
		<g>
			<g>
				<polygon style="fill:#80D8FF;" points="440.76,239.628 430.732,215.017 455.134,207.054 463.779,228.27 				"/>
			</g>
		</g>
		<g>
			<g>
				<polygon style="fill:#80D8FF;" points="410.94,199.376 384.613,195.755 389.918,170.64 412.614,173.762 				"/>
			</g>
		</g>
		<g>
			<g>
				<polygon style="fill:#80D8FF;" points="361.171,205.074 344.872,226.064 325.774,208.913 339.826,190.818 				"/>
			</g>
		</g>
		<g>
			<g>
				<polygon style="fill:#80D8FF;" points="341.222,251.025 351.249,275.635 326.847,283.599 318.203,262.383 				"/>
			</g>
		</g>
		<g>
			<g>
				<path style="fill:#80D8FF;" d="M369.677,193.014c-28.891,11.772-42.769,44.735-30.998,73.626
					c11.772,28.891,44.735,42.769,73.626,30.998c28.891-11.771,42.769-44.735,30.998-73.626
					C431.531,195.121,398.568,181.243,369.677,193.014z M402.499,251.503c-3.411,6.356-11.329,8.742-17.685,5.331
					c-6.356-3.411-8.742-11.329-5.331-17.685c3.411-6.356,11.329-8.742,17.685-5.331C403.523,237.23,405.91,245.148,402.499,251.503
					z"/>
			</g>
		</g>
	</g>
	<g>
		<g>
			<path style="fill:#4053AD;" d="M407.549,282.765c-20.644,9.13-44.866-0.236-53.997-20.88c-9.13-20.644,0.236-44.866,20.88-53.997
				c20.644-9.13,44.866,0.236,53.997,20.88C437.56,249.412,428.193,273.634,407.549,282.765z M375.106,209.412
				c-19.803,8.759-28.789,31.996-20.03,51.799c8.759,19.803,31.996,28.789,51.799,20.03c19.803-8.759,28.789-31.996,20.03-51.799
				C418.147,209.638,394.91,200.653,375.106,209.412z"/>
		</g>
	</g>
	<g>
		<g>
			<path style="fill:#FFFFFF;" d="M431.634,220.474c-0.373,0.165-0.821,0.035-1.043-0.322c-10.7-17.164-31.168-25.802-50.933-21.495
				c-0.449,0.098-0.893-0.187-0.991-0.637c-0.098-0.449,0.184-0.896,0.637-0.991c20.451-4.457,41.63,4.481,52.702,22.241
				c0.243,0.39,0.124,0.904-0.266,1.148C431.705,220.44,431.67,220.458,431.634,220.474z"/>
		</g>
	</g>
	<g>
		<g>
			<path style="fill:#FFFFFF;" d="M402.102,270.449c-13.852,6.127-30.107-0.159-36.234-14.011
				c-6.127-13.852,0.159-30.107,14.011-36.234c13.852-6.127,30.107,0.159,36.234,14.011
				C422.24,248.067,415.954,264.322,402.102,270.449z M380.554,221.728c-13.012,5.755-18.916,21.024-13.161,34.036
				c5.755,13.012,21.023,18.917,34.036,13.161c13.012-5.755,18.916-21.023,13.161-34.036
				C408.834,221.877,393.566,215.972,380.554,221.728z"/>
		</g>
	</g>
</g>
<g>
	<rect x="107.178" y="253.066" style="fill:#FF9E80;" width="46.99" height="46.99"/>
</g>
<g>
	<g>
		<path style="fill:#D0DAFC;" d="M341.001,176.883c-0.329,0-0.646-0.177-0.811-0.487c-0.586-1.106-1.147-2.198-1.684-3.275
			c-0.226-0.453-0.042-1.003,0.411-1.229c0.455-0.225,1.004-0.041,1.229,0.411c0.532,1.064,1.086,2.143,1.665,3.234
			c0.237,0.448,0.066,1.002-0.38,1.239C341.293,176.849,341.146,176.883,341.001,176.883z M336.975,168.66
			c-0.351,0-0.685-0.202-0.838-0.542c-0.767-1.713-1.489-3.432-2.146-5.109c-0.185-0.471,0.047-1.003,0.518-1.188
			c0.471-0.184,1.003,0.047,1.188,0.519c0.647,1.649,1.358,3.341,2.114,5.028c0.207,0.462,0,1.004-0.462,1.211
			C337.227,168.634,337.099,168.66,336.975,168.66z M332.95,158.352c-0.385,0-0.743-0.244-0.87-0.629
			c-0.591-1.787-1.122-3.579-1.581-5.326c-0.128-0.49,0.165-0.99,0.654-1.119c0.488-0.13,0.991,0.165,1.12,0.654
			c0.448,1.71,0.968,3.465,1.547,5.215c0.159,0.481-0.102,0.999-0.583,1.158C333.142,158.337,333.045,158.352,332.95,158.352z
			 M330.181,147.718c-0.433,0-0.818-0.308-0.9-0.749c-0.347-1.867-0.614-3.722-0.794-5.516c-0.05-0.503,0.317-0.953,0.821-1.003
			c0.512-0.047,0.953,0.317,1.003,0.821c0.175,1.743,0.434,3.548,0.772,5.364c0.092,0.498-0.236,0.976-0.734,1.068
			C330.293,147.713,330.236,147.718,330.181,147.718z M329.111,136.789c-0.507,0-0.916-0.41-0.916-0.916v-0.154
			c0-1.843,0.097-3.669,0.286-5.427c0.055-0.503,0.511-0.872,1.01-0.813c0.503,0.054,0.867,0.507,0.813,1.01
			c-0.183,1.693-0.276,3.452-0.276,5.23v0.154C330.027,136.378,329.617,136.789,329.111,136.789z M330.33,125.823
			c-0.071,0-0.141-0.008-0.213-0.025c-0.492-0.117-0.797-0.611-0.679-1.104c0.437-1.837,0.993-3.641,1.656-5.362
			c0.182-0.473,0.712-0.708,1.185-0.526c0.473,0.182,0.708,0.712,0.526,1.184c-0.634,1.645-1.166,3.371-1.584,5.129
			C331.121,125.54,330.745,125.823,330.33,125.823z M334.272,115.602c-0.15,0-0.303-0.037-0.444-0.115
			c-0.443-0.246-0.602-0.804-0.356-1.246c0.906-1.629,1.937-3.214,3.066-4.71c0.304-0.404,0.878-0.485,1.283-0.18
			c0.404,0.305,0.484,0.88,0.179,1.283c-1.078,1.429-2.062,2.942-2.927,4.497C334.907,115.432,334.594,115.602,334.272,115.602z
			 M340.87,106.847c-0.234,0-0.466-0.089-0.645-0.266c-0.36-0.357-0.362-0.937-0.005-1.296c1.307-1.317,2.722-2.57,4.206-3.723
			c0.401-0.311,0.976-0.238,1.286,0.161c0.311,0.4,0.238,0.976-0.162,1.286c-1.422,1.105-2.778,2.305-4.029,3.566
			C341.341,106.757,341.105,106.847,340.87,106.847z M349.6,100.068c-0.314,0-0.619-0.161-0.79-0.451
			c-0.257-0.436-0.112-0.998,0.324-1.255c2.954-1.741,5.015-2.486,5.101-2.517c0.473-0.172,1.001,0.077,1.172,0.554
			c0.17,0.476-0.077,1.001-0.553,1.172c-0.02,0.007-1.997,0.725-4.788,2.37C349.919,100.027,349.759,100.068,349.6,100.068z"/>
	</g>
</g>
<g>
	<g>
		<path style="fill:#D0DAFC;" d="M212.205,253.983c-0.143,0-0.287-0.033-0.423-0.104c-1.347-0.702-2.652-1.415-3.88-2.119
			c-0.439-0.252-0.591-0.812-0.34-1.251c0.252-0.439,0.812-0.591,1.251-0.34c1.207,0.692,2.491,1.393,3.817,2.084
			c0.449,0.234,0.623,0.788,0.389,1.236C212.856,253.803,212.536,253.983,212.205,253.983z M203.672,249.004
			c-0.173,0-0.349-0.049-0.504-0.152c-1.616-1.068-3.139-2.163-4.526-3.255c-0.398-0.313-0.466-0.89-0.153-1.287
			c0.314-0.397,0.89-0.465,1.287-0.153c1.347,1.061,2.828,2.126,4.402,3.166c0.422,0.279,0.538,0.848,0.26,1.27
			C204.261,248.859,203.969,249.004,203.672,249.004z M195.076,242.17c-0.232,0-0.465-0.088-0.644-0.264
			c-1.398-1.378-2.65-2.799-3.72-4.224c-0.304-0.405-0.222-0.979,0.182-1.283c0.405-0.304,0.98-0.223,1.283,0.182
			c1.017,1.353,2.208,2.705,3.542,4.019c0.36,0.355,0.365,0.936,0.009,1.296C195.549,242.079,195.312,242.17,195.076,242.17z
			 M188.54,233.306c-0.341,0-0.669-0.192-0.827-0.52c-0.838-1.748-1.462-3.559-1.855-5.384c-0.106-0.495,0.208-0.982,0.703-1.089
			c0.491-0.106,0.982,0.208,1.089,0.703c0.362,1.684,0.94,3.358,1.716,4.978c0.219,0.456,0.026,1.004-0.431,1.223
			C188.808,233.278,188.672,233.306,188.54,233.306z M186.265,222.668c-0.009,0-0.019,0-0.029,0
			c-0.506-0.016-0.903-0.438-0.888-0.944c0.056-1.832,0.324-3.722,0.795-5.62c0.122-0.492,0.618-0.792,1.111-0.669
			c0.491,0.122,0.79,0.619,0.669,1.111c-0.44,1.771-0.69,3.532-0.742,5.234C187.165,222.276,186.758,222.668,186.265,222.668z
			 M188.815,212.053c-0.122,0-0.246-0.025-0.366-0.076c-0.464-0.202-0.676-0.742-0.474-1.206c0.71-1.629,1.575-3.305,2.573-4.981
			c0.259-0.434,0.82-0.577,1.257-0.319c0.435,0.259,0.577,0.822,0.319,1.257c-0.958,1.609-1.788,3.216-2.467,4.775
			C189.506,211.847,189.169,212.053,188.815,212.053z M194.42,202.542c-0.188,0-0.378-0.058-0.541-0.178
			c-0.408-0.3-0.496-0.873-0.196-1.281c1.047-1.425,2.212-2.89,3.462-4.353c0.329-0.385,0.908-0.43,1.292-0.101
			c0.384,0.329,0.43,0.908,0.101,1.292c-1.222,1.429-2.358,2.858-3.378,4.247C194.98,202.413,194.702,202.542,194.42,202.542z
			 M201.535,194.175c-0.229,0-0.457-0.085-0.635-0.256c-0.365-0.351-0.376-0.931-0.026-1.296c1.235-1.285,2.558-2.597,3.933-3.9
			c0.367-0.347,0.948-0.333,1.296,0.035c0.348,0.367,0.333,0.948-0.035,1.296c-1.355,1.283-2.657,2.575-3.872,3.839
			C202.016,194.08,201.776,194.175,201.535,194.175z M209.503,186.606c-0.255,0-0.508-0.106-0.69-0.312
			c-0.334-0.38-0.296-0.959,0.085-1.293c1.338-1.173,2.757-2.375,4.216-3.572c0.392-0.32,0.969-0.264,1.29,0.127
			c0.321,0.392,0.264,0.969-0.127,1.29c-1.444,1.184-2.847,2.373-4.171,3.534C209.933,186.532,209.717,186.606,209.503,186.606z
			 M218.054,179.583c-0.274,0-0.545-0.122-0.725-0.355c-0.31-0.4-0.237-0.976,0.163-1.286c1.415-1.095,2.898-2.214,4.406-3.324
			c0.407-0.301,0.981-0.213,1.281,0.195c0.3,0.407,0.213,0.981-0.195,1.281c-1.496,1.102-2.966,2.212-4.37,3.298
			C218.448,179.521,218.25,179.583,218.054,179.583z M226.904,173.06c-0.288,0-0.571-0.135-0.75-0.388
			c-0.292-0.414-0.192-0.985,0.221-1.277c1.466-1.033,2.978-2.077,4.538-3.133c0.419-0.283,0.989-0.175,1.273,0.245
			c0.284,0.419,0.174,0.989-0.245,1.273c-1.55,1.049-3.052,2.087-4.509,3.113C227.27,173.005,227.086,173.06,226.904,173.06z
			 M236.004,166.893c-0.299,0-0.592-0.146-0.768-0.415c-0.277-0.424-0.158-0.992,0.266-1.268c1.505-0.984,3.051-1.977,4.636-2.979
			c0.426-0.272,0.993-0.143,1.264,0.285c0.27,0.428,0.143,0.994-0.285,1.264c-1.578,0.997-3.116,1.986-4.613,2.964
			C236.35,166.845,236.176,166.893,236.004,166.893z M245.359,160.977c-0.308,0-0.609-0.155-0.782-0.437
			c-0.264-0.431-0.129-0.996,0.302-1.261c0.983-0.602,1.98-1.209,2.992-1.819c0.575-0.346,1.142-0.693,1.702-1.039
			c0.43-0.266,0.996-0.133,1.261,0.298c0.266,0.431,0.132,0.995-0.298,1.261c-0.566,0.35-1.138,0.699-1.719,1.049
			c-1.007,0.607-2.001,1.211-2.979,1.811C245.688,160.934,245.523,160.977,245.359,160.977z M254.683,155.153
			c-0.296,0-0.588-0.144-0.764-0.409c-0.28-0.421-0.166-0.99,0.256-1.27c1.545-1.027,3.056-2.072,4.492-3.107
			c0.412-0.295,0.984-0.202,1.28,0.208c0.295,0.411,0.202,0.984-0.208,1.279c-1.455,1.048-2.986,2.107-4.549,3.146
			C255.034,155.103,254.858,155.153,254.683,155.153z M263.595,148.721c-0.272,0-0.541-0.12-0.721-0.35
			c-0.312-0.397-0.244-0.974,0.154-1.287c1.449-1.14,2.862-2.309,4.201-3.474c0.381-0.332,0.96-0.293,1.292,0.09
			c0.333,0.382,0.293,0.96-0.089,1.293c-1.361,1.185-2.799,2.373-4.271,3.532C263.993,148.657,263.793,148.721,263.595,148.721z
			 M271.927,141.446c-0.238,0-0.476-0.092-0.655-0.276c-0.354-0.362-0.347-0.942,0.014-1.296c1.325-1.294,2.591-2.613,3.764-3.921
			c0.339-0.376,0.917-0.406,1.294-0.07c0.377,0.338,0.408,0.918,0.07,1.295c-1.199,1.337-2.494,2.686-3.847,4.008
			C272.39,141.359,272.158,141.446,271.927,141.446z M279.245,133.256c-0.194,0-0.39-0.062-0.557-0.189
			c-0.402-0.308-0.478-0.883-0.17-1.285c1.122-1.463,2.167-2.955,3.104-4.435c0.27-0.427,0.836-0.556,1.265-0.284
			c0.428,0.271,0.555,0.837,0.284,1.265c-0.967,1.525-2.042,3.063-3.197,4.569C279.793,133.132,279.521,133.256,279.245,133.256z
			 M285.098,123.97c-0.137,0-0.276-0.03-0.407-0.096c-0.453-0.226-0.638-0.776-0.413-1.229c0.812-1.632,1.523-3.298,2.116-4.952
			c0.171-0.477,0.696-0.725,1.172-0.554c0.477,0.171,0.725,0.695,0.554,1.172c-0.617,1.721-1.357,3.453-2.2,5.149
			C285.759,123.784,285.435,123.97,285.098,123.97z M288.791,113.571c-0.064,0-0.129-0.007-0.194-0.021
			c-0.495-0.107-0.809-0.595-0.703-1.089c0.379-1.756,0.641-3.543,0.776-5.311c0.039-0.504,0.487-0.88,0.984-0.844
			c0.505,0.038,0.882,0.479,0.844,0.984c-0.141,1.85-0.415,3.72-0.812,5.557C289.593,113.277,289.214,113.571,288.791,113.571z
			 M289.627,102.644c-0.481,0-0.884-0.374-0.914-0.861c-0.106-1.763-0.335-3.555-0.678-5.328c-0.097-0.497,0.228-0.978,0.725-1.074
			c0.502-0.096,0.978,0.229,1.074,0.726c0.359,1.85,0.597,3.723,0.708,5.565c0.03,0.505-0.354,0.94-0.859,0.97
			C289.665,102.644,289.646,102.644,289.627,102.644z M287.565,91.878c-0.388,0-0.747-0.248-0.873-0.637
			c-0.536-1.67-1.185-3.367-1.928-5.042c-0.205-0.463,0.004-1.004,0.466-1.209c0.464-0.208,1.004,0.004,1.209,0.466
			c0.77,1.735,1.441,3.493,1.998,5.225c0.155,0.482-0.11,0.998-0.592,1.153C287.752,91.864,287.658,91.878,287.565,91.878z
			 M283.101,81.765c-0.32,0-0.632-0.168-0.8-0.468c-0.862-1.534-1.822-3.086-2.853-4.614c-0.283-0.42-0.173-0.989,0.247-1.273
			c0.421-0.283,0.99-0.172,1.273,0.247c1.059,1.57,2.045,3.165,2.932,4.742c0.248,0.441,0.091,1-0.35,1.248
			C283.407,81.728,283.253,81.765,283.101,81.765z M276.966,72.642c-0.272,0-0.541-0.12-0.721-0.35
			c-1.099-1.4-2.276-2.804-3.499-4.173c-0.337-0.378-0.304-0.957,0.073-1.294c0.376-0.336,0.956-0.305,1.294,0.073
			c1.249,1.398,2.45,2.832,3.573,4.262c0.313,0.398,0.243,0.975-0.155,1.287C277.363,72.578,277.164,72.642,276.966,72.642z
			 M269.643,64.428c-0.234,0-0.468-0.089-0.647-0.268c-1.273-1.27-2.607-2.53-3.968-3.747c-0.377-0.337-0.409-0.916-0.072-1.294
			c0.337-0.378,0.916-0.409,1.294-0.072c1.385,1.238,2.743,2.522,4.039,3.815c0.359,0.358,0.359,0.938,0.002,1.296
			C270.113,64.338,269.878,64.428,269.643,64.428z M261.377,57.038c-0.2,0-0.403-0.066-0.572-0.201
			c-2.614-2.091-4.345-3.246-4.362-3.257c-0.422-0.28-0.536-0.849-0.256-1.27c0.28-0.423,0.848-0.536,1.271-0.256
			c0.072,0.048,1.809,1.206,4.493,3.353c0.395,0.316,0.459,0.893,0.143,1.288C261.912,56.92,261.646,57.038,261.377,57.038z"/>
	</g>
</g>
<g>
	<circle style="fill:#FF7043;" cx="153.556" cy="237.5" r="5.964"/>
</g>
<g>
	<rect x="150.825" y="238.901" style="fill:#FF7043;" width="5.461" height="64.02"/>
</g>
<g>
	<polygon style="fill:#E8EAF6;" points="338.535,242.669 347.296,266.237 323.987,273.053 316.434,252.736 	"/>
</g>
<g>
	<polygon style="fill:#80D8FF;" points="358.747,199.801 342.718,219.172 325.161,202.393 338.979,185.694 	"/>
</g>
<g>
	<path style="fill:#FFFFFF;" d="M354.731,295.05H146.004V184.003c0-5.21,4.224-9.434,9.434-9.434h189.858
		c5.21,0,9.434,4.224,9.434,9.434V295.05z"/>
</g>
<g>
	<rect x="153.735" y="185.694" style="fill:#7986CB;" width="193.561" height="109.714"/>
</g>
<g>
	<polygon style="fill:#E3F2FD;" points="354.661,295.05 146.074,295.05 101.427,311.188 399.605,311.188 	"/>
</g>
<g>
	<g>
		<path style="fill:#4053AD;" d="M352.786,137.776c0-7.618-5.947-13.845-13.451-14.299c-0.29-0.018-0.582-0.029-0.877-0.029
			c-7.913,0-14.328,6.415-14.328,14.328v21.257h28.656V137.776z"/>
	</g>
</g>
<g>
	<g>
		<path style="fill:#D0DAFC;" d="M338.409,123.448H197.154h0c-7.913,0-14.328,6.415-14.328,14.328V295.05H324.13V193.82h-0.049
			v-56.044C324.081,129.863,330.496,123.448,338.409,123.448z"/>
	</g>
</g>
<g>
	<path style="fill:#FF9E80;" d="M399.979,123.112c0,0,1.167,1.288-1.935,7.68c-0.184,0.38-0.644,0.542-1.03,0.37
		c-1.652-0.735-3.107-1.977-3.107-1.977l-1.039-3.982C392.867,125.204,393.894,117.448,399.979,123.112z"/>
</g>
<g>
	<path style="fill:#223056;" d="M385.18,159.932l1.733,0.344c1.283-0.686,3.779-1.927,8.495-4.023
		c7.626,4.67,26.386,3.502,27.632,8.873c1.245,5.37-4.281,30.899-4.281,30.899s-1.421,0.072-4.924-0.628
		c-0.671-7.948-1.03-21.679-1.081-24.054c-3.144-0.275-22.035,0.218-23.606-1.463C384.86,165.289,385.18,159.932,385.18,159.932z"/>
</g>
<g>
	<path style="fill:#D0DAFC;" d="M421.145,148.226h-1.612c-0.276,0-0.535,0.132-0.697,0.356l-7.445,10.274l1.773,0.331
		L421.145,148.226z"/>
</g>
<g>
	<polygon style="fill:#FF9E80;" points="395.617,129.937 394.434,134.045 389.926,129.866 392.079,126.412 393.948,126.171 	"/>
</g>
<g>
	<polygon style="fill:#F4C9C9;" points="395.762,129.901 394.479,128.233 395.308,131.478 	"/>
</g>
<g>
	<path style="fill:#3359C4;" d="M389.986,125.131c0.059-1.466,1.125-1.627,1.297-1.666c1.472-0.617,1.74-1.992,2.477-3.427
		c0.815-1.588,3.225-0.992,3.743-0.249c1.3,1.866,4.731,0.204,3.992,3.76c-0.869,2.606-3.487-0.563-3.487-0.563
		c-0.514,0.472-0.435,0.942-0.905,1.698c-0.67,1.075-1.173,0.572-1.99,0.105c-0.817-0.466-1.687,0.905-1.047,2.024
		c-0.685,0.439-1.437,0.419-1.956,0.327l0,0l-0.004-0.001c-0.377-0.068-0.634-0.172-0.634-0.172s0.013-0.024,0.018-0.035
		C390.82,126.663,389.947,126.113,389.986,125.131z"/>
</g>
<g>
	<path style="fill:#3359C4;" d="M393.985,126.778c0,0,0.262,0.163,0.948,0.135c0.32,0.508,0.635,1.149,1.41,1.81
		c1.105-0.635,2.249-0.4,2.784-0.229c-0.285,0.711-0.632,1.503-1.069,2.403c-0.188,0.387-0.641,0.513-1.05,0.377
		C393.235,130.017,393.985,126.778,393.985,126.778z"/>
</g>
<g>
	<path style="fill:#FFD740;" d="M390.025,129.263c0,0-5.435,3.451-6.553,10.01c-1.118,6.559-1.593,14.395,2.034,23.734
		c9.521-3.066,11.625-5.379,11.625-5.379s2.329-12.731,1.707-16.026c-0.622-3.296-3.626-9.028-3.626-9.028L390.025,129.263z"/>
</g>
<g>
	<polygon style="fill:#3359C4;" points="389.88,129.247 394.011,134.824 395.265,132.665 390.575,128.661 	"/>
</g>
<g>
	<path style="fill:#ECEFF1;" d="M412.888,159.894l0.258,0.184c0.111,0.08,0.268,0.053,0.347-0.058l8.061-11.287
		c0.08-0.111,0.054-0.268-0.058-0.347l-0.258-0.184c-0.111-0.08-0.268-0.053-0.347,0.058l-8.061,11.287
		C412.75,159.658,412.776,159.814,412.888,159.894z"/>
</g>
<g>
	<path style="fill:#ECEFF1;" d="M399.17,157.816l14.138,2.643c0.209,0.039,0.413-0.1,0.452-0.309l0.091-0.485
		c0.039-0.209-0.1-0.413-0.309-0.452l-14.138-2.643c-0.209-0.039-0.413,0.1-0.452,0.309l-0.091,0.485
		C398.821,157.573,398.96,157.776,399.17,157.816z"/>
</g>
<g>
	<path style="fill:#FF9E80;" d="M384.382,139.972c0,0-0.965,8.855,1.44,13.582c-0.354,1.629,1.192,2.054,1.552,2.054
		c0.36,0,4.567,3.488,15.826,3.276c0.496-2.337,0.585-2.573,0.585-2.573s-8.648-5.257-12.116-5.824
		c0.174-5.356,0.066-9.22,0.066-9.22L384.382,139.972z"/>
</g>
<g>
	<path style="fill:#FF9E80;" d="M402.002,155.816c0,0,2.328,0.428,4.322-0.349c1.995-0.777,3.631,1.781,3.631,1.781
		s0.827,1.431-0.467,1.51c-1.294,0.08-1.547-0.696-2.092-0.708s-0.556,1.837-4.566,0.899
		C399.48,158.166,402.002,155.816,402.002,155.816z"/>
</g>
<g>
	<path style="fill:#FFD740;" d="M392.318,149.432c0,0,1.984-13.894-2.445-16.362c-5.497-3.064-6.399,7.722-5.735,15.309
		C389.286,149.379,392.318,149.432,392.318,149.432z"/>
</g>
<g>
	<path style="fill:#3359C4;" d="M413.698,192.088l-1.113,3.473c-0.092,0.247,0.046,0.521,0.299,0.595l10.26,2.956
		c0,0,0.306-1.097-0.289-2.241c-0.595-1.144-3.405-1.824-4.076-3.528c-0.326-0.948-1.593-0.053-2.194,0.025
		C415.985,193.445,413.698,192.088,413.698,192.088z"/>
</g>
<g>
	<g>
		<path style="fill:#FFFFFF;" d="M392.303,148.739l-0.284-0.065c2.038-8.898,0.938-12.709-0.344-14.339
			c-0.949-1.206-2.014-1.234-2.024-1.234l0.003-0.291c0.049,0.001,1.217,0.031,2.25,1.345
			C393.226,135.834,394.367,139.728,392.303,148.739z"/>
	</g>
</g>
<g>
	<path style="fill:#FFFFFF;" d="M392.542,322.753H108.49c-3.901,0-7.063-3.162-7.063-7.063v-4.502h298.178v4.502
		C399.605,319.59,396.442,322.753,392.542,322.753z"/>
</g>
<g>
	<path style="fill:#FF9E80;" d="M195.494,140.667l1.473,11.062c0,0,1.927,1.324,3.01,0c0.421-2.709,1.262-14.234,1.262-14.234
		L195.494,140.667z"/>
</g>
<g>
	<path style="fill:#FF9E80;" d="M204.168,141.483l0.812,12.836c0,0,1.75,1.223,2.855-0.387c1.105-1.611,1.554-15.29,1.554-15.29
		L204.168,141.483z"/>
</g>
<g>
	<path style="fill:#3359C4;" d="M200.697,150.097l1.284,3.322c0.104,0.236-0.017,0.509-0.262,0.594l-9.377,3.254
		c0,0-0.36-1.052,0.163-2.196c0.523-1.144,3.251-1.952,3.818-3.646c0.269-0.94,1.564-0.134,2.159-0.09
		C199.076,151.379,200.697,150.097,200.697,150.097z"/>
</g>
<g>
	<path style="fill:#3359C4;" d="M208.223,152.987c0,0,0.918,3.43-0.125,4.841c-2.494,0.511-4.144,0.397-5.065-0.13
		c-0.07-1.476,0.522-2.143,1.157-3.062c0.335-1.861,0.387-2.47,0.387-2.47S207.162,150.919,208.223,152.987z"/>
</g>
<g>
	<path style="fill:#3359C4;" d="M217.86,78.026c2.525,2.119,2.389,6.256,4.765,8.539c1.21,1.163,2.889,1.662,4.446,2.288
		c1.558,0.625,3.166,1.53,3.811,3.08c0.349,0.837,0.741,1.711,0.76,2.618c0.02,0.94-0.842,1.847-0.822,2.787
		c0.013,0.618,0.329,2.016,0.2,2.621c-0.432,2.027-2.151,2.733-4.124,3.368c-2.657,0.855-5.589,0.688-8.223-0.236
		s-4.977-2.574-6.923-4.575c-1.009-1.038-1.929-2.189-2.504-3.518s-0.781-2.854-0.355-4.237c0.318-1.033,0.978-1.973,1.059-3.052
		c0.147-1.953-1.623-3.595-1.734-5.55c-0.127-2.221,1.994-3.235,3.567-4.273C213.604,76.683,216.13,76.574,217.86,78.026z"/>
</g>
<g>
	<path style="fill:#FFD740;" d="M204.494,97.245c-0.515,1.608-0.687,3.313-1.246,4.907c-0.473,1.349-1.213,2.587-1.947,3.814
		c-1.252,2.091-2.504,4.183-3.755,6.274c-0.161,0.269-0.326,0.55-0.357,0.863c-0.075,0.774,0.753,1.401,1.531,1.387
		c0.778-0.014,1.471-0.478,2.071-0.973c3.979-3.285,5.826-8.406,8.465-12.839c0.791-1.328,1.686-2.672,1.844-4.21
		c0.142-1.387,0.526-5.168-2.841-4.591C206.536,92.172,204.94,95.854,204.494,97.245z"/>
</g>
<g>
	<path style="fill:#FFD740;" d="M207.083,92.547c0,0,0.458,1.69,0.104,2.934c-0.354,1.244-1.803,4.264,0.789,6.769
		c2.593,2.504,2.28,8.462,2.28,8.462s7.007,2.217,10.986-1.365c1.353-4.756,1.353-9.669,1.353-9.669s-2.562-2.656,0.039-8.198
		C212.507,86.606,207.083,92.547,207.083,92.547z"/>
</g>
<g>
	<path style="fill:#FF9E80;" d="M212.619,86.822c0,0,0.069,2.26-0.013,2.539c-0.056,0.192-0.905,0.906-1.428,1.333
		c-0.217,0.176-0.22,0.504-0.008,0.686c0.542,0.466,1.523,1.234,2.217,1.345c0.938,0.149,3.158-0.072,4.646-1.929
		c0.175-0.219,0.102-0.546-0.145-0.677c-1.389-0.734-1.466-0.643-1.551-1.045c-0.093-0.442-1.107-5.031-1.107-5.031L212.619,86.822z
		"/>
</g>
<g>
	<path style="fill:#F4C9C9;" d="M215.251,86.185l-2.612,1.714c-0.033,0.64-0.08,1.311-0.133,1.456
		C215.129,88.713,215.251,86.185,215.251,86.185z"/>
</g>
<g>
	<path style="fill:#223056;" d="M225.666,119.747c-0.82,1.632-1.66,2.884-3.155,3.933c-2.118,1.485-9.863,3.973-10.851,5.462
		c-1.085,1.635-1.131,3.718-1.266,5.676c-0.192,2.798,0.05,5.64-0.897,8.28c-0.412,1.147-3.246,1.298-4.765,0.875
		c-0.327-0.091-0.559-0.387-0.592-0.725c-0.505-5.27-0.7-9.96-0.706-15.295c-0.001-1.203,0.015-2.435,0.433-3.563
		c0.581-1.566,1.867-0.983,3.17-2.029c3.136-2.518,6.613-4.572,10.182-6.408c1.793-0.922,3.613-1.791,5.439-2.645
		c0.648-0.303,0.98-1.129,1.675-0.814c0.614,0.278,1.135,1.388,1.39,1.967C226.455,116.121,226.487,118.113,225.666,119.747z"/>
</g>
<g>
	<path style="fill:#223056;" d="M220.901,107.324c0,0,3.237,2.145,5.259,8.55c-5.937,4.889-18.573,1.697-19.036,0.155
		c-0.462-1.541,3.133-7.751,3.133-7.751L220.901,107.324z"/>
</g>
<g>
	<path style="fill:#223056;" d="M211.043,111.056l1.935,6.174c-0.144,1.633-0.041,3.399-1.277,4.476
		c-1.563,1.361-3.963,1.124-5.726,2.213c-1.032,0.638-2.976,1.147-3.556,2.212c-0.453,0.833-0.485,2.079-0.542,3.025
		c-0.259,4.334-0.211,12.372-1.233,13.288c-0.952,0.853-4.336,0.955-4.911-0.21c-0.941-3.35-2.161-14.653-1.77-17.124
		c0.204-1.289,0.62-0.773,1.226-1.929c0.844-1.609,2.043-3.007,3.349-4.269c1.966-1.899,4.2-3.52,6.614-4.801
		c0.598-0.317,1.221-0.618,1.892-0.709L211.043,111.056z"/>
</g>
<g>
	<polygon style="fill:#ECEFF1;" points="209.987,122.056 193.016,122.056 199.724,115.711 216.695,115.711 	"/>
</g>
<g>
	<polygon style="fill:#D5DEE2;" points="209.987,122.056 193.119,122.056 189.568,110.712 206.436,110.712 	"/>
</g>
<g>
	<path style="fill:#FFD740;" d="M223.543,91.653c0.953,0.582,1.539,1.603,2.035,2.603c1.578,3.185,2.644,6.606,3.397,10.08
		c0.13,0.6,0.252,1.213,0.198,1.825c-0.09,1.027-0.675,1.961-1.421,2.673c-0.746,0.712-1.649,1.234-2.543,1.749
		c-1.503,0.865-3.007,1.731-4.51,2.596c-1.138,0.655-2.28,1.312-3.499,1.8c-0.237,0.095-0.487,0.185-0.742,0.164
		c-0.316-0.026-0.59-0.218-0.847-0.403c-0.512-0.369-1.078-0.839-1.068-1.471c0.006-0.389,0.238-0.735,0.471-1.046
		c2.164-2.894,5.236-5.099,8.67-6.224c0.198-0.065,0.419-0.145,0.505-0.334c0.051-0.112,0.043-0.241,0.029-0.363
		c-0.263-2.286-2.169-3.99-3.192-6.051c-0.659-1.325-0.949-2.802-1.149-4.268C219.573,92.761,220.885,90.028,223.543,91.653z"/>
</g>
<g>
	<path style="fill:#FF9E80;" d="M215.445,111.977c0,0-1.738,0.716-2.504,1.84c-0.767,1.124-2.147,2.913-1.329,3.322
		c0.818,0.409,2.351-0.098,2.964-0.995c0.613-0.896,1.687-1.867,2.402-2.378C217.694,113.254,216.621,112.283,215.445,111.977z"/>
</g>
<g>
	<path style="fill:#FF9E80;" d="M210.155,83.026c0,0,0.062,3.471,2.12,4.755c0.221,0.138,0.504,0.179,0.753,0.103
		c1.517-0.458,1.987-2.123,2.177-2.997c0.568-0.564,0.626-2.285-0.949-1.683c-0.912,0.155-0.961-1.634-1.98-2.148
		C212.276,81.057,210.706,80.088,210.155,83.026z"/>
</g>
<g>
	<polygon style="fill:#64B5F6;" points="249.957,59.74 199.191,29.627 248.237,44.377 	"/>
</g>
<g>
	<polygon style="fill:#E3F2FD;" points="266.088,36.856 198.635,29.415 224.794,57.26 242.082,47.178 	"/>
</g>
<g>
	<polygon style="fill:#80D8FF;" points="198.635,29.415 243.557,46.543 249.957,59.74 252.855,42.546 	"/>
</g>
<g>
	<polygon style="fill:#E3F2FD;" points="361.553,78.654 398.849,77.19 375.371,97.89 	"/>
</g>
<g>
	<polygon style="fill:#80D8FF;" points="365.918,84.731 364.489,93.936 398.849,77.19 	"/>
</g>
<g>
	<rect x="202.018" y="179.474" style="fill:#FFFFFF;" width="97.749" height="63.195"/>
</g>
<g>
	<g>
		<g>
			<polygon style="fill:#C5CAE9;" points="279.934,283.754 192.432,283.754 192.665,193.435 280.168,193.435 			"/>
		</g>
	</g>
	<g>
		<g>
			<g>
				<polygon style="fill:#C5CAE9;" points="284.915,294.514 279.907,294.514 280.195,182.675 285.204,182.675 				"/>
			</g>
		</g>
		<g>
			<g>
				<polygon style="fill:#C5CAE9;" points="302.127,294.514 297.118,294.514 297.407,182.675 302.416,182.675 				"/>
			</g>
		</g>
		<g>
			<g>
				<g>
					<polygon style="fill:#C5CAE9;" points="301.757,188.696 301.745,193.435 280.168,193.435 280.18,188.696 					"/>
				</g>
			</g>
			<g>
				<g>
					<polygon style="fill:#C5CAE9;" points="301.716,204.539 301.704,209.279 280.127,209.279 280.139,204.539 					"/>
				</g>
			</g>
			<g>
				<g>
					<polygon style="fill:#C5CAE9;" points="301.675,220.382 301.663,225.122 280.086,225.122 280.098,220.382 					"/>
				</g>
			</g>
			<g>
				<g>
					<polygon style="fill:#C5CAE9;" points="301.634,236.225 301.622,240.965 280.045,240.965 280.057,236.225 					"/>
				</g>
			</g>
			<g>
				<g>
					<polygon style="fill:#C5CAE9;" points="301.593,252.068 301.581,256.808 280.004,256.808 280.016,252.068 					"/>
				</g>
			</g>
			<g>
				<g>
					<polygon style="fill:#C5CAE9;" points="301.552,267.911 301.54,272.651 279.963,272.651 279.975,267.911 					"/>
				</g>
			</g>
			<g>
				<g>
					<polygon style="fill:#C5CAE9;" points="301.511,283.754 301.499,288.494 279.922,288.494 279.934,283.754 					"/>
				</g>
			</g>
		</g>
	</g>
	<g>
		<g>
			<g>
				<polygon style="fill:#C5CAE9;" points="175.836,294.514 170.827,294.514 171.115,182.675 176.125,182.675 				"/>
			</g>
		</g>
		<g>
			<g>
				<polygon style="fill:#C5CAE9;" points="193.047,294.514 188.038,294.514 188.327,182.675 193.336,182.675 				"/>
			</g>
		</g>
		<g>
			<g>
				<g>
					<polygon style="fill:#C5CAE9;" points="192.677,188.696 192.665,193.435 171.088,193.435 171.1,188.696 					"/>
				</g>
			</g>
			<g>
				<g>
					<polygon style="fill:#C5CAE9;" points="192.636,204.539 192.624,209.279 171.047,209.279 171.059,204.539 					"/>
				</g>
			</g>
			<g>
				<g>
					<polygon style="fill:#C5CAE9;" points="192.595,220.382 192.583,225.122 171.006,225.122 171.018,220.382 					"/>
				</g>
			</g>
			<g>
				<g>
					<polygon style="fill:#C5CAE9;" points="192.554,236.225 192.542,240.965 170.965,240.965 170.977,236.225 					"/>
				</g>
			</g>
			<g>
				<g>
					<polygon style="fill:#C5CAE9;" points="192.513,252.068 192.501,256.808 170.924,256.808 170.936,252.068 					"/>
				</g>
			</g>
			<g>
				<g>
					<polygon style="fill:#C5CAE9;" points="192.473,267.911 192.46,272.651 170.883,272.651 170.895,267.911 					"/>
				</g>
			</g>
			<g>
				<g>
					<polygon style="fill:#C5CAE9;" points="192.432,283.754 192.419,288.494 170.842,288.494 170.855,283.754 					"/>
				</g>
			</g>
		</g>
	</g>
</g>
<g>
	<g>
		<g>
			<polygon style="fill:#223056;" points="270.492,299.266 265.483,299.266 280.285,181.064 285.294,181.064 			"/>
		</g>
	</g>
	<g>
		<g>
			<polygon style="fill:#223056;" points="287.703,299.266 282.694,299.266 297.496,181.064 302.505,181.064 			"/>
		</g>
	</g>
	<g>
		<g>
			<g>
				<polygon style="fill:#223056;" points="301.065,187.427 300.438,192.436 278.861,192.436 279.488,187.427 				"/>
			</g>
		</g>
		<g>
			<g>
				<polygon style="fill:#223056;" points="298.968,204.172 298.341,209.181 276.764,209.181 277.391,204.172 				"/>
			</g>
		</g>
		<g>
			<g>
				<polygon style="fill:#223056;" points="296.871,220.916 296.244,225.925 274.667,225.925 275.294,220.916 				"/>
			</g>
		</g>
		<g>
			<g>
				<polygon style="fill:#223056;" points="294.775,237.66 294.147,242.669 272.57,242.669 273.197,237.66 				"/>
			</g>
		</g>
		<g>
			<g>
				<polygon style="fill:#223056;" points="292.678,254.405 292.05,259.414 270.473,259.414 271.101,254.405 				"/>
			</g>
		</g>
		<g>
			<g>
				<polygon style="fill:#223056;" points="290.581,271.149 289.953,276.158 268.377,276.158 269.004,271.149 				"/>
			</g>
		</g>
		<g>
			<g>
				<polygon style="fill:#223056;" points="288.484,287.894 287.857,292.903 266.28,292.903 266.907,287.894 				"/>
			</g>
		</g>
	</g>
</g>
<g>
	<g>
		<polygon style="fill:#FF9E80;" points="266.907,287.894 179.404,287.894 191.358,192.436 278.861,192.436 		"/>
	</g>
</g>
<g>
	<g>
		<path style="fill:#FFFFFF;" d="M256.476,241.642l-53.021,28.547c-2.696,1.452-5.907-0.748-5.526-3.787l7.15-57.095
			c0.342-2.729,3.396-4.185,5.731-2.731l45.871,28.547C259.139,236.654,259.025,240.269,256.476,241.642z"/>
	</g>
</g>
<g>
	<polygon style="fill:#C5CAE9;" points="242.101,223.802 233.678,295.05 220.648,303.865 231.374,223.802 	"/>
</g>
<g>
	<g>
		<g>
			<polygon style="fill:#223056;" points="161.412,299.266 156.403,299.266 171.205,181.064 176.214,181.064 			"/>
		</g>
	</g>
	<g>
		<g>
			<polygon style="fill:#223056;" points="178.623,299.266 173.614,299.266 188.416,181.064 193.426,181.064 			"/>
		</g>
	</g>
	<g>
		<g>
			<g>
				<polygon style="fill:#223056;" points="191.985,187.427 191.358,192.436 169.781,192.436 170.408,187.427 				"/>
			</g>
		</g>
		<g>
			<g>
				<polygon style="fill:#223056;" points="189.888,204.172 189.261,209.181 167.684,209.181 168.311,204.172 				"/>
			</g>
		</g>
		<g>
			<g>
				<polygon style="fill:#223056;" points="187.792,220.916 187.164,225.925 165.587,225.925 166.215,220.916 				"/>
			</g>
		</g>
		<g>
			<g>
				<polygon style="fill:#223056;" points="185.695,237.66 185.067,242.669 163.49,242.669 164.118,237.66 				"/>
			</g>
		</g>
		<g>
			<g>
				<polygon style="fill:#223056;" points="183.598,254.405 182.971,259.414 161.394,259.414 162.021,254.405 				"/>
			</g>
		</g>
		<g>
			<g>
				<polygon style="fill:#223056;" points="181.501,271.149 180.874,276.158 159.297,276.158 159.924,271.149 				"/>
			</g>
		</g>
		<g>
			<g>
				<polygon style="fill:#223056;" points="179.404,287.894 178.777,292.903 157.2,292.903 157.827,287.894 				"/>
			</g>
		</g>
	</g>
</g>
<g>
	<g>
		<polygon style="fill:#FFFFFF;" points="220.648,303.865 115.566,303.865 137.019,223.802 242.101,223.802 		"/>
	</g>
</g>
<g>
	<g>
		<polygon style="fill:#64B5F6;" points="210.835,292.07 131.7,292.07 146.832,235.597 225.966,235.597 		"/>
	</g>
</g>
<g>
	<g>
		<path style="fill:#FFD740;" d="M190.207,248.732c-0.78,2.912-3.773,5.272-6.685,5.272c-2.912,0-4.64-2.36-3.859-5.272
			c0.78-2.912,3.773-5.272,6.685-5.272C189.259,243.46,190.987,245.821,190.207,248.732z"/>
	</g>
</g>
<g>
	<g>
		<polygon style="fill:#1A237E;" points="138.415,267.01 161.064,249.147 180.841,276.162 200.068,260.998 214.045,280.09 
			210.835,292.07 131.7,292.07 		"/>
	</g>
</g>
<g>
	<rect x="324.081" y="174.569" style="fill:#C5CAE9;" width="7.784" height="120.839"/>
</g>
<g>
	<g>
		<g>
			<path style="fill:#D0DAFC;" d="M123.289,70.693h-12.696v-3.304c0-6.521-5.305-11.826-11.826-11.826
				c-4.803,0-9.093,2.871-10.93,7.313l-0.329,0.796l-0.743-0.436c-0.963-0.564-2.057-0.862-3.163-0.862
				c-3.463,0-6.281,2.817-6.281,6.28c0,0.373,0.036,0.749,0.111,1.151l0.164,0.887H65.853v-1.501h9.987
				c-0.014-0.182-0.02-0.361-0.02-0.537c0-4.291,3.491-7.781,7.781-7.781c1.096,0,2.182,0.236,3.182,0.686
				c2.225-4.581,6.844-7.498,11.983-7.498c7.348,0,13.327,5.978,13.327,13.326v1.804h11.195V70.693z"/>
		</g>
	</g>
	<g>
		<g>
			<rect x="98.423" y="74.106" style="fill:#D0DAFC;" width="32.669" height="1.501"/>
		</g>
	</g>
</g>
<g>
	<g>
		<g>
			<path style="fill:#D0DAFC;" d="M448.867,27.291h-16.28V23.22c0-8.602-6.998-15.6-15.6-15.6c-6.335,0-11.995,3.787-14.418,9.647
				l-0.329,0.796l-0.743-0.435c-1.287-0.753-2.749-1.152-4.227-1.152c-4.627,0-8.39,3.764-8.39,8.391
				c0,0.498,0.048,1.001,0.147,1.537l0.164,0.887h-14.996V25.79h13.229c-0.03-0.311-0.045-0.617-0.045-0.923
				c0-5.454,4.437-9.891,9.891-9.891c1.467,0,2.919,0.332,4.245,0.965c2.817-5.993,8.803-9.821,15.473-9.821
				c9.43,0,17.101,7.672,17.101,17.101v2.57h14.78V27.291z"/>
		</g>
	</g>
	<g>
		<g>
			<rect x="348.36" y="32.178" style="fill:#D0DAFC;" width="42.473" height="1.501"/>
		</g>
	</g>
</g>
<g>
	<path style="fill:#7986CB;" d="M275.728,317.111h-50.425c-1.998,0-3.618-1.62-3.618-3.618v-2.306h57.66v2.306
		C279.346,315.491,277.726,317.111,275.728,317.111z"/>
</g>
<g>
	<path style="fill:#FFFFFF;" d="M266.5,134.079h-29.151c-0.752,0-1.368-0.615-1.368-1.368v-1.743c0-0.752,0.615-1.368,1.368-1.368
		H266.5c0.752,0,1.368,0.615,1.368,1.368v1.743C267.868,133.464,267.252,134.079,266.5,134.079z"/>
</g>
<g>
	<path style="fill:#FFFFFF;" d="M313.1,133.889h-37.065c-0.752,0-1.368-0.616-1.368-1.368v-1.743c0-0.752,0.616-1.368,1.368-1.368
		H313.1c0.752,0,1.368,0.615,1.368,1.368v1.743C314.467,133.274,313.852,133.889,313.1,133.889z"/>
</g>
<g>
	<path style="fill:#FFFFFF;" d="M289.73,146.576h-52.381c-0.752,0-1.368-0.615-1.368-1.368v-1.743c0-0.752,0.615-1.368,1.368-1.368
		h52.381c0.752,0,1.368,0.615,1.368,1.368v1.743C291.098,145.961,290.482,146.576,289.73,146.576z"/>
</g>
<g>
	<path style="fill:#FFFFFF;" d="M304.228,159.073h-66.879c-0.752,0-1.368-0.615-1.368-1.368v-1.743c0-0.752,0.615-1.368,1.368-1.368
		h66.879c0.752,0,1.368,0.615,1.368,1.368v1.743C305.596,158.458,304.98,159.073,304.228,159.073z"/>
</g>
<g>
	<path style="fill:#3359C4;" d="M289.73,171.57h-52.381c-0.752,0-1.368-0.615-1.368-1.368v-1.743c0-0.752,0.615-1.368,1.368-1.368
		h52.381c0.752,0,1.368,0.615,1.368,1.368v1.743C291.098,170.954,290.482,171.57,289.73,171.57z"/>
</g>
<g>
	<g>
		<g>
			<path style="fill:#FFD740;" d="M86.475,219.272c0,0-10.05-5.071-21.045,0.405C72.824,224.833,83.757,223.794,86.475,219.272z"/>
		</g>
		<g>
			<path style="fill:#3359C4;" d="M80.43,221.325c0,0,3.291-0.901,2.009-7.413c-0.346-2.079,1.535-5.945,0.069-8.626
				c-1.119-2.047-2.756-3.154-4.503-3.672c-2.39-0.693-5.577-1.143-7.067,5.162c-1.49,6.305-2.875,4.781-4.884,7.587
				s-1.247,4.573,0.658,4.988c1.905,0.416,2.425,2.737,4.919,1.282C74.125,219.178,76.896,222.087,80.43,221.325z"/>
		</g>
		<g>
			<path style="fill:#FFD740;" d="M85.669,219.022c0,0,2.745,0.141,4.79,3.998c2.045,3.857,2.19,6.431,3.35,10.061
				c0.937,2.932,2.429,5.218,2.429,5.218s3.121-0.684,10.603-6.615c1.794,3.594,2.023,3.285,2.023,3.285s-7.805,8.788-13.59,9.475
				c-0.805,0.096-1.617-0.208-2.115-0.732c-6.072-6.378-7.489-15.143-7.489-15.143V219.022z"/>
		</g>
		<g>
			<g>
				<defs>
					<polygon id="SVGID_1_" points="120.402,221.052 108.931,220.129 96.461,237.642 107.471,238.74 					"/>
				</defs>
				<clipPath id="SVGID_2_">
					<use xlink:href="#SVGID_1_"  style="overflow:visible;"/>
				</clipPath>
				<g style="clip-path:url(#SVGID_2_);">
					<polygon style="fill:#FFFFFF;" points="120.402,238.74 120.402,221.088 120.402,238.74 					"/>
				</g>
				<g style="clip-path:url(#SVGID_2_);">
					<polygon style="fill:#FFFFFF;" points="119.547,238.74 119.547,220.129 120.402,220.129 120.402,221.064 120.402,238.74 					
						"/>
				</g>
				<g style="clip-path:url(#SVGID_2_);">
					<rect x="118.692" y="220.129" style="fill:#FFFFFF;" width="0.855" height="18.612"/>
				</g>
				<g style="clip-path:url(#SVGID_2_);">
					<rect x="117.837" y="220.129" style="fill:#FFFFFF;" width="0.855" height="18.612"/>
				</g>
				<g style="clip-path:url(#SVGID_2_);">
					<rect x="116.982" y="220.129" style="fill:#FFFFFF;" width="0.855" height="18.612"/>
				</g>
				<g style="clip-path:url(#SVGID_2_);">
					<rect x="116.127" y="220.129" style="fill:#FEFFFF;" width="0.855" height="18.612"/>
				</g>
				<g style="clip-path:url(#SVGID_2_);">
					<rect x="115.272" y="220.129" style="fill:#FEFEFF;" width="0.855" height="18.612"/>
				</g>
				<g style="clip-path:url(#SVGID_2_);">
					<rect x="114.417" y="220.129" style="fill:#FDFEFF;" width="0.855" height="18.612"/>
				</g>
				<g style="clip-path:url(#SVGID_2_);">
					<rect x="113.562" y="220.129" style="fill:#FDFEFF;" width="0.855" height="18.612"/>
				</g>
				<g style="clip-path:url(#SVGID_2_);">
					<rect x="112.707" y="220.129" style="fill:#FCFEFF;" width="0.855" height="18.612"/>
				</g>
				<g style="clip-path:url(#SVGID_2_);">
					<rect x="111.852" y="220.129" style="fill:#FBFDFF;" width="0.855" height="18.612"/>
				</g>
				<g style="clip-path:url(#SVGID_2_);">
					<rect x="110.997" y="220.129" style="fill:#FAFDFF;" width="0.855" height="18.612"/>
				</g>
				<g style="clip-path:url(#SVGID_2_);">
					<rect x="110.142" y="220.129" style="fill:#FAFDFF;" width="0.855" height="18.612"/>
				</g>
				<g style="clip-path:url(#SVGID_2_);">
					<rect x="109.286" y="220.129" style="fill:#F9FCFF;" width="0.855" height="18.612"/>
				</g>
				<g style="clip-path:url(#SVGID_2_);">
					<rect x="108.431" y="220.129" style="fill:#F8FCFE;" width="0.855" height="18.612"/>
				</g>
				<g style="clip-path:url(#SVGID_2_);">
					<rect x="107.576" y="220.129" style="fill:#F7FBFE;" width="0.855" height="18.612"/>
				</g>
				<g style="clip-path:url(#SVGID_2_);">
					<rect x="106.721" y="220.129" style="fill:#F5FBFE;" width="0.855" height="18.612"/>
				</g>
				<g style="clip-path:url(#SVGID_2_);">
					<rect x="105.866" y="220.129" style="fill:#F4FAFE;" width="0.855" height="18.612"/>
				</g>
				<g style="clip-path:url(#SVGID_2_);">
					<rect x="105.011" y="220.129" style="fill:#F3F9FE;" width="0.855" height="18.612"/>
				</g>
				<g style="clip-path:url(#SVGID_2_);">
					<rect x="104.156" y="220.129" style="fill:#F2F9FE;" width="0.855" height="18.612"/>
				</g>
				<g style="clip-path:url(#SVGID_2_);">
					<rect x="103.301" y="220.129" style="fill:#F0F8FE;" width="0.855" height="18.612"/>
				</g>
				<g style="clip-path:url(#SVGID_2_);">
					<rect x="102.446" y="220.129" style="fill:#EFF8FE;" width="0.855" height="18.612"/>
				</g>
				<g style="clip-path:url(#SVGID_2_);">
					<rect x="101.591" y="220.129" style="fill:#EDF7FE;" width="0.855" height="18.612"/>
				</g>
				<g style="clip-path:url(#SVGID_2_);">
					<rect x="100.736" y="220.129" style="fill:#ECF6FE;" width="0.855" height="18.612"/>
				</g>
				<g style="clip-path:url(#SVGID_2_);">
					<rect x="99.881" y="220.129" style="fill:#EAF5FE;" width="0.855" height="18.612"/>
				</g>
				<g style="clip-path:url(#SVGID_2_);">
					<rect x="99.026" y="220.129" style="fill:#E8F5FD;" width="0.855" height="18.612"/>
				</g>
				<g style="clip-path:url(#SVGID_2_);">
					<rect x="98.171" y="220.129" style="fill:#E7F4FD;" width="0.855" height="18.612"/>
				</g>
				<g style="clip-path:url(#SVGID_2_);">
					<rect x="97.316" y="220.129" style="fill:#E5F3FD;" width="0.855" height="18.612"/>
				</g>
				<g style="clip-path:url(#SVGID_2_);">
					<polygon style="fill:#E3F2FD;" points="96.461,237.662 96.461,220.129 97.316,220.129 97.316,238.74 96.461,238.74 					"/>
				</g>
				<g style="clip-path:url(#SVGID_2_);">
					<polygon style="fill:#E3F2FD;" points="96.461,220.129 96.461,237.662 96.461,220.129 					"/>
				</g>
			</g>
		</g>
		<g>
			<path style="fill:#FFD740;" d="M57.728,243.474c0.71-3.654,0.021-5.336,1.775-13.431c2.283-10.53,6.943-10.744,6.943-10.744
				c2.586-0.451,2.506,7.741,2.506,7.741l-0.854,1.875c-1.162,3.077-3.854,10.624-2.927,12.189c1.171,1.975,1.907,5.333-1.762,6.597
				C59.74,248.965,57.018,247.128,57.728,243.474z"/>
		</g>
		<g>
			<path style="fill:#FFD740;" d="M80.669,217.706l4.968,1.677c0,0,1.225,3.793,1.822,5.419c0.597,1.625,2.836,5.512-0.373,9.116
				c-3.21,3.604-3.237,11.688-3.237,11.688s-8.841,3.417-14.513-0.965c-0.746-6.713-3.462-12.491-3.462-12.491s4.031-5.014,0-12.151
				c3.799-1.817,6.154-2.309,6.154-2.309L80.669,217.706z"/>
		</g>
		<g>
			<path style="fill:#223056;" d="M66.347,244.962c0,0-3.081,6.479-2.036,20.36c1.046,13.881,6.981,54.825,6.981,54.825l5.412,0.718
				c0,0-0.47-36.015,2.476-61.894C73.487,248.478,66.347,244.962,66.347,244.962z"/>
		</g>
		<g>
			<path style="fill:#223056;" d="M84.247,245.408c0,0,9.884,16.103,11.36,38.953c0.053,0.826-0.017,1.663-0.193,2.471
				c-5.595,25.682-9.063,34.31-9.063,34.31h-4.733c0,0,0.474-18.353,4.857-35.359c-7.318-16.134-9.941-21.091-9.941-21.091
				l-7.012-19.284H84.247z"/>
		</g>
		<g>
			<path style="fill:#FFFFFF;" d="M81.614,319.385l-0.916,4.243c-0.08,0.304,0.117,0.61,0.428,0.666l11.907,2.141
				c0,0,0.235-1.335-0.612-2.613s-4.284-1.735-5.287-3.666c-0.502-1.081-1.909,0.135-2.617,0.3
				C83.809,320.622,81.614,319.385,81.614,319.385z"/>
		</g>
		<g>
			<g>
				<defs>
					<polygon id="SVGID_3_" points="57.615,233.637 71.997,231.842 78.613,247.99 64.563,250.008 					"/>
				</defs>
				<clipPath id="SVGID_4_">
					<use xlink:href="#SVGID_3_"  style="overflow:visible;"/>
				</clipPath>
				<g style="clip-path:url(#SVGID_4_);">
					<polygon style="fill:#FFFFFF;" points="78.613,250.008 78.613,247.976 78.613,250.008 					"/>
				</g>
				<g style="clip-path:url(#SVGID_4_);">
					<polygon style="fill:#FFFFFF;" points="77.863,250.008 77.863,231.842 78.613,231.842 78.613,248 78.613,250.008 					"/>
				</g>
				<g style="clip-path:url(#SVGID_4_);">
					<rect x="77.113" y="231.842" style="fill:#FFFFFF;" width="0.75" height="18.167"/>
				</g>
				<g style="clip-path:url(#SVGID_4_);">
					<rect x="76.363" y="231.842" style="fill:#FFFFFF;" width="0.75" height="18.167"/>
				</g>
				<g style="clip-path:url(#SVGID_4_);">
					<rect x="75.613" y="231.842" style="fill:#FFFFFF;" width="0.75" height="18.167"/>
				</g>
				<g style="clip-path:url(#SVGID_4_);">
					<rect x="74.863" y="231.842" style="fill:#FEFFFF;" width="0.75" height="18.167"/>
				</g>
				<g style="clip-path:url(#SVGID_4_);">
					<rect x="74.113" y="231.842" style="fill:#FEFEFF;" width="0.75" height="18.167"/>
				</g>
				<g style="clip-path:url(#SVGID_4_);">
					<rect x="73.364" y="231.842" style="fill:#FDFEFF;" width="0.75" height="18.167"/>
				</g>
				<g style="clip-path:url(#SVGID_4_);">
					<rect x="72.614" y="231.842" style="fill:#FDFEFF;" width="0.75" height="18.167"/>
				</g>
				<g style="clip-path:url(#SVGID_4_);">
					<rect x="71.864" y="231.842" style="fill:#FCFEFF;" width="0.75" height="18.167"/>
				</g>
				<g style="clip-path:url(#SVGID_4_);">
					<rect x="71.114" y="231.842" style="fill:#FBFDFF;" width="0.75" height="18.167"/>
				</g>
				<g style="clip-path:url(#SVGID_4_);">
					<rect x="70.364" y="231.842" style="fill:#FAFDFF;" width="0.75" height="18.167"/>
				</g>
				<g style="clip-path:url(#SVGID_4_);">
					<rect x="69.614" y="231.842" style="fill:#FAFDFF;" width="0.75" height="18.167"/>
				</g>
				<g style="clip-path:url(#SVGID_4_);">
					<rect x="68.864" y="231.842" style="fill:#F9FCFF;" width="0.75" height="18.167"/>
				</g>
				<g style="clip-path:url(#SVGID_4_);">
					<rect x="68.114" y="231.842" style="fill:#F8FCFE;" width="0.75" height="18.167"/>
				</g>
				<g style="clip-path:url(#SVGID_4_);">
					<rect x="67.364" y="231.842" style="fill:#F7FBFE;" width="0.75" height="18.167"/>
				</g>
				<g style="clip-path:url(#SVGID_4_);">
					<rect x="66.614" y="231.842" style="fill:#F5FBFE;" width="0.75" height="18.167"/>
				</g>
				<g style="clip-path:url(#SVGID_4_);">
					<rect x="65.864" y="231.842" style="fill:#F4FAFE;" width="0.75" height="18.167"/>
				</g>
				<g style="clip-path:url(#SVGID_4_);">
					<rect x="65.114" y="231.842" style="fill:#F3F9FE;" width="0.75" height="18.167"/>
				</g>
				<g style="clip-path:url(#SVGID_4_);">
					<rect x="64.364" y="231.842" style="fill:#F2F9FE;" width="0.75" height="18.167"/>
				</g>
				<g style="clip-path:url(#SVGID_4_);">
					<rect x="63.614" y="231.842" style="fill:#F0F8FE;" width="0.75" height="18.167"/>
				</g>
				<g style="clip-path:url(#SVGID_4_);">
					<rect x="62.864" y="231.842" style="fill:#EFF8FE;" width="0.75" height="18.167"/>
				</g>
				<g style="clip-path:url(#SVGID_4_);">
					<rect x="62.114" y="231.842" style="fill:#EDF7FE;" width="0.75" height="18.167"/>
				</g>
				<g style="clip-path:url(#SVGID_4_);">
					<rect x="61.364" y="231.842" style="fill:#ECF6FE;" width="0.75" height="18.167"/>
				</g>
				<g style="clip-path:url(#SVGID_4_);">
					<rect x="60.614" y="231.842" style="fill:#EAF5FE;" width="0.75" height="18.167"/>
				</g>
				<g style="clip-path:url(#SVGID_4_);">
					<rect x="59.864" y="231.842" style="fill:#E8F5FD;" width="0.75" height="18.167"/>
				</g>
				<g style="clip-path:url(#SVGID_4_);">
					<rect x="59.115" y="231.842" style="fill:#E7F4FD;" width="0.75" height="18.167"/>
				</g>
				<g style="clip-path:url(#SVGID_4_);">
					<rect x="58.365" y="231.842" style="fill:#E5F3FD;" width="0.75" height="18.167"/>
				</g>
				<g style="clip-path:url(#SVGID_4_);">
					<polygon style="fill:#E3F2FD;" points="57.615,233.636 57.615,231.842 58.365,231.842 58.365,250.008 57.615,250.008 					"/>
				</g>
				<g style="clip-path:url(#SVGID_4_);">
					<polygon style="fill:#E3F2FD;" points="57.615,231.842 57.615,233.636 57.615,231.842 					"/>
				</g>
			</g>
		</g>
		<g>
			<path style="fill:#FF9E80;" d="M61.237,245.827c-0.249-0.422-0.102-0.966,0.328-1.2c0.596-0.325,1.378-0.74,1.702-0.862
				c0.556-0.208,4.637-0.422,4.637-0.422s1.397,1.196,0.285,2.336c-1.112,1.14-2.528,2.166-2.528,2.166
				S63.353,249.412,61.237,245.827z"/>
		</g>
		<g>
			<path style="fill:#FF9E80;" d="M78.971,212.7c0,0,0.1,3.02,0.232,3.385c0.133,0.365,2.588,2.058,2.588,2.058
				s-2.017,2.195-3.344,2.494c-1.327,0.299-4.659,0.154-6.811-2.726c2.356-1.493,2.481-1.294,2.568-1.892
				c0.087-0.597,1.05-6.803,1.05-6.803L78.971,212.7z"/>
		</g>
		<g>
			<path style="fill:#F4C9C9;" d="M75.794,211.977l3.233,2.121c0.041,0.793,0.099,1.622,0.164,1.803
				C75.945,215.106,75.794,211.977,75.794,211.977z"/>
		</g>
		<g>
			<path style="fill:#FF9E80;" d="M81.201,206.533c0,0,0.971,4.797-1.472,7.191c-0.262,0.257-0.64,0.399-1.006,0.371
				c-2.228-0.169-3.38-2.318-3.909-3.463c-0.953-0.604-1.557-2.955,0.794-2.605c1.303-0.064,0.826-2.542,2.073-3.559
				C77.681,204.467,79.549,202.656,81.201,206.533z"/>
		</g>
		<g>
			<path style="fill:#3359C4;" d="M82.765,208.963c0,0-1.927-0.249-3.016-2.643s-2.332-2.643-2.332-2.643l3.575-0.342
				C80.993,203.336,83.076,204.362,82.765,208.963z"/>
		</g>
		<g>
			<path style="fill:#FFFFFF;" d="M76.343,319.477c0,0,1.119,4.181-0.152,5.901c-3.039,0.623-5.051,0.483-6.174-0.159
				c-0.085-1.799,0.637-2.612,1.411-3.732c0.409-2.268,0.472-3.011,0.472-3.011S75.05,316.957,76.343,319.477z"/>
		</g>
	</g>
	<g>
		<path style="fill:#FF9E80;" d="M112.752,232.713c0.435-2.386-1.721-3.196-2.304-3.277c-0.583-0.081-1.486,1.57-1.112,3.45
			c0.374,1.88-1.65,4.648-1.65,4.648S111.843,237.704,112.752,232.713z"/>
	</g>
</g>
</svg>
