<?xml version="1.0" encoding="utf-8"?>
<!-- Generator: Adobe Illustrator 21.1.0, SVG Export Plug-In . SVG Version: 6.00 Build 0)  -->
<svg version="1.1" id="Layer_1" xmlns="http://www.w3.org/2000/svg" xmlns:xlink="http://www.w3.org/1999/xlink" x="0px" y="0px"
	 width="42px" height="20px" viewBox="0 0 42 20" style="enable-background:new 0 0 42 20;" xml:space="preserve">
<style type="text/css">
	.st0{fill:#333333;}
	.st1{fill:none;stroke:#333333;stroke-width:1.3;stroke-miterlimit:10;}
</style>
<g>
	<path class="st0" d="M0.3,5c0.1-0.2,0.1-0.4,0.2-0.6C0.6,4,0.8,3.8,1.1,3.5c0.1,0.1,0.2,0.3,0.3,0.4c0.7,0.9,1.4,1.9,2.1,2.8
		C3.7,7,3.9,7.3,4.1,7.6c0.1,0.1,0,0.1,0,0.2C4,8.2,3.9,8.6,4,9c0,0.3,0.2,0.5,0.3,0.7c0.6,0.9,1.2,1.7,1.8,2.6
		c0.3,0.4,0.6,0.7,0.9,1.1c0.4,0.4,0.9,0.6,1.5,0.5c0.1,0,0.2,0,0.2,0.1c0.4,0.6,0.9,1.2,1.3,1.8c0.4,0.6,0.9,1.2,1.3,1.8
		c0.1,0.2,0.2,0.3,0.4,0.5c-0.3,0.2-0.5,0.3-0.8,0.3c-0.3,0-0.5,0-0.8,0c-0.2,0-0.5-0.1-0.7-0.1c0,0-0.1,0-0.1,0
		c-0.7-0.2-1.4-0.5-2.1-0.9c-0.9-0.6-1.7-1.3-2.5-2c-0.6-0.6-1.1-1.2-1.6-1.9c-0.6-0.7-1.1-1.5-1.5-2.3c-0.4-0.8-0.8-1.5-1.1-2.4
		C0.4,8,0.2,7.2,0.2,6.4c0-0.3,0-0.5,0-0.8C0.2,5.4,0.2,5.2,0.3,5z"/>
	<path class="st0" d="M4,1.7c0.3,0.2,0.4,0.5,0.6,0.7C5.3,3.2,5.9,4.1,6.6,5c0.3,0.3,0.2,0.7-0.1,0.9C6,6.2,5.6,6.5,5.2,6.8
		C5.1,6.8,5,6.9,5,7c-1-1.4-2-2.7-3-4.1c0,0,0,0,0.1-0.1c0.5-0.4,1-0.7,1.5-1.1c0.1-0.1,0.2-0.1,0.3-0.1C3.9,1.6,3.9,1.6,4,1.7z"/>
	<path class="st0" d="M14.4,16c-0.1,0.3-0.4,0.4-0.6,0.5c-0.4,0.3-0.8,0.6-1.1,0.8c0,0,0,0-0.1,0c-1-1.4-2-2.7-3-4.1
		c0.3-0.2,0.5-0.4,0.8-0.6c0.2-0.2,0.5-0.3,0.7-0.5c0.3-0.2,0.7-0.2,0.9,0.1c0.8,1,1.5,2.1,2.3,3.1c0.1,0.1,0.1,0.2,0.2,0.4
		C14.4,15.8,14.4,15.9,14.4,16z"/>
</g>
<circle class="st1" cx="30.4" cy="7.9" r="6.5"/>
<path class="st0" d="M40,18.9l-4.3-4.3c-0.3-0.3-0.3-0.7,0-1l0.4-0.4c0.3-0.3,0.7-0.3,1,0l4.3,4.3c0.3,0.3,0.3,0.7,0,1L41,18.9
	C40.7,19.1,40.3,19.1,40,18.9z"/>
</svg>
