<?xml version="1.0" encoding="utf-8"?>
<!-- Generator: Adobe Illustrator 23.0.0, SVG Export Plug-In . SVG Version: 6.00 Build 0)  -->
<svg version="1.1" id="Layer_1" xmlns="http://www.w3.org/2000/svg" xmlns:xlink="http://www.w3.org/1999/xlink" x="0px" y="0px"
	 viewBox="0 0 110.4 49.8" style="enable-background:new 0 0 110.4 49.8;" xml:space="preserve">
<style type="text/css">
	.st0{fill-rule:evenodd;clip-rule:evenodd;fill:#1E4DA7;}
	.st1{fill:#1E4DA7;}
</style>
<title>Logo</title>
<polygon class="st0" points="97.9,47.3 100.4,44.8 102.9,47.3 100.4,49.8 "/>
<polygon class="st0" points="96.7,46 99.2,43.5 96.7,41 94.2,43.5 "/>
<polygon class="st0" points="92.9,42.3 95.4,39.8 92.9,37.3 90.4,39.8 "/>
<polygon class="st0" points="89.3,38.5 91.7,36 89.3,33.6 86.7,36 "/>
<polygon class="st0" points="85.5,42 88,39.6 85.5,37.1 83,39.6 "/>
<polygon class="st0" points="74.3,46 76.7,43.5 74.3,41 71.8,43.5 "/>
<polygon class="st0" points="78,42.3 80.5,39.8 78,37.3 75.5,39.8 "/>
<polygon class="st0" points="81.7,33.6 79.2,36 81.7,38.5 84.2,36 "/>
<polygon class="st0" points="83,32.4 85.5,34.8 88,32.4 85.5,29.8 "/>
<polygon class="st0" points="105.4,47.2 107.9,44.8 110.4,47.2 107.9,49.7 "/>
<polygon class="st0" points="101.6,43.5 104.1,41 106.6,43.5 104.1,46 "/>
<polygon class="st0" points="97.9,39.8 100.4,37.3 102.9,39.8 100.4,42.3 "/>
<polygon class="st0" points="105.4,39.8 107.9,37.3 110.4,39.8 107.9,42.3 "/>
<polygon class="st0" points="104.2,38.5 106.7,36 104.2,33.6 101.7,36 "/>
<polygon class="st0" points="100.4,34.8 103,32.4 100.4,29.8 97.9,32.4 "/>
<polygon class="st0" points="96.7,31.1 99.2,28.6 96.7,26.1 94.2,28.6 "/>
<polygon class="st0" points="100.2,27.3 102.7,24.9 100.2,22.4 97.8,24.9 "/>
<polygon class="st0" points="92.9,27.3 95.4,24.9 92.9,22.4 90.4,24.9 "/>
<polygon class="st0" points="96.7,23.6 99.2,21.2 96.7,18.7 94.2,21.2 "/>
<polygon class="st0" points="100.4,19.9 103,17.4 100.4,14.9 97.9,17.4 "/>
<polygon class="st0" points="101.7,13.6 104.2,16.2 106.7,13.6 104.2,11.2 "/>
<polygon class="st0" points="60.5,47.3 63,44.8 65.5,47.3 63,49.8 "/>
<polygon class="st0" points="68,47.3 70.5,44.8 73,47.3 70.5,49.8 "/>
<polygon class="st0" points="64.3,43.5 66.8,41 69.3,43.5 66.8,46 "/>
<polygon class="st0" points="60.5,39.8 63,37.3 65.5,39.8 63,42.3 "/>
<polygon class="st0" points="68,39.8 70.5,37.3 73,39.8 70.5,42.3 "/>
<polygon class="st0" points="66.8,38.5 69.3,36 66.8,33.6 64.3,36 "/>
<polygon class="st0" points="70.5,34.8 73.1,32.4 70.5,29.8 68,32.4 "/>
<polygon class="st0" points="74.3,31.1 76.7,28.6 74.3,26.1 71.8,28.6 "/>
<polygon class="st0" points="78,27.3 80.5,24.9 78,22.4 75.5,24.9 "/>
<polygon class="st0" points="70.5,27.3 73.1,24.9 70.5,22.4 68,24.9 "/>
<polygon class="st0" points="74.3,23.6 76.7,21.2 74.3,18.7 71.8,21.2 "/>
<polygon class="st0" points="70.5,19.9 73.1,17.4 70.5,14.9 68,17.4 "/>
<polygon class="st0" points="64.3,13.6 66.8,16.2 69.3,13.6 66.8,11.2 "/>
<polygon class="st0" points="60.5,10 63,7.5 65.5,10 63,12.5 "/>
<polygon class="st0" points="68,10 70.5,7.5 73,10 70.5,12.5 "/>
<polygon class="st0" points="64.3,6.2 66.8,3.7 69.3,6.2 66.8,8.7 "/>
<polygon class="st0" points="60.6,2.5 63,0 65.6,2.5 63,5 "/>
<polygon class="st0" points="81.7,16.2 84.2,13.6 81.7,11.2 79.2,13.6 "/>
<polygon class="st0" points="78,12.4 80.5,10 78,7.5 75.5,10 "/>
<polygon class="st0" points="74.3,8.7 76.7,6.2 74.3,3.7 71.8,6.2 "/>
<polygon class="st0" points="85.5,19.9 88,17.4 85.5,14.9 83,17.4 "/>
<polygon class="st0" points="85.5,7.7 83,10.2 85.5,12.7 88,10.2 "/>
<polygon class="st0" points="89.3,16.2 91.7,13.6 89.3,11.2 86.7,13.6 "/>
<polygon class="st0" points="92.9,12.4 95.4,10 92.9,7.5 90.4,10 "/>
<polygon class="st0" points="94.2,6.2 96.7,8.7 99.2,6.2 96.7,3.7 "/>
<polygon class="st0" points="68,2.5 70.5,0 73,2.5 70.5,5 "/>
<polygon class="st0" points="97.9,10 100.4,7.5 102.9,10 100.4,12.5 "/>
<polygon class="st0" points="105.4,9.9 107.9,7.4 110.4,9.9 107.9,12.4 "/>
<polygon class="st0" points="101.7,6.2 104.2,3.7 106.7,6.2 104.2,8.7 "/>
<polygon class="st0" points="97.9,2.5 100.4,0 102.9,2.5 100.4,5 "/>
<polygon class="st0" points="105.4,2.5 107.9,0 110.4,2.5 107.9,5 "/>
<g>
	<path class="st1" d="M30.2,19.7c-3.9,0-6.2,2.4-6.2,6.4c0,1.4,0.4,2.7,1.2,3.8c1.1,1.6,2.7,2.3,5.2,2.3c2.3,0,3.9-0.7,4.9-2.2
		c0.4-0.5,0.6-1.1,0.7-1.8h-2l-0.1-0.1c-0.3,1.4-1.7,2.3-3.5,2.3c-2.2,0.1-4-1.5-4.2-3.7c0-0.1,0-0.3,0-0.4h9.9
		c0.1-1-0.1-1.9-0.3-2.9C35,21,33.2,19.7,30.2,19.7z M26.3,24.9c0.1-2.1,1.9-3.6,3.9-3.5c1.9-0.1,3.5,1.3,3.7,3.2c0,0.1,0,0.2,0,0.3
		H26.3z"/>
	<path class="st1" d="M44,28.5c0,0.5,0,1-0.2,1.5c-0.2,0.5-0.7,0.8-1.2,0.8c-0.4,0-0.8-0.2-1-0.5c-0.2-0.2-0.3-0.6-0.3-1.4v-7.1
		l0-0.2h3.8V20h-3.8v-3.4l-2.2,0.8v2.7h-2.4v1.6h2.4v7c0,1.6,0.2,2.3,1,3c0.6,0.4,1.4,0.7,2.2,0.6c1.1,0.1,2.2-0.4,2.9-1.3
		c0.4-0.8,0.6-1.7,0.5-2.6H44z"/>
	<path class="st1" d="M57.9,30.2v-6c0-1.8-0.2-2.6-1-3.4c-1.1-0.9-2.6-1.3-4-1.2c-3.3,0-4.9,1.2-5.2,3.7h2.3l0,0.1
		c0.2-1.4,1.1-2.1,3-2.1c0.8,0,1.6,0.2,2.2,0.6c0.6,0.5,0.7,1,0.7,2.3v0.5c-1.4-0.1-1.9-0.1-2.2-0.1c-1.4-0.1-2.9,0.1-4.3,0.6
		c-1.3,0.5-2.2,1.8-2.2,3.3c0,2.3,1.6,3.6,4.3,3.6c2.4,0,3.8-0.8,4.4-2.8v2.6h4v-1.6H57.9z M55.2,29.1c-0.7,0.9-1.9,1.4-3,1.3
		c-1.5,0-2.5-0.8-2.5-2c0-0.7,0.3-1.3,0.9-1.7c1.1-0.5,2.3-0.8,3.5-0.6c0.6,0.1,1.3,0.2,2,0.2c0,0,0,0,0,0l0,0c0,0,0,0,0,0
		C55.8,27.9,55.6,28.6,55.2,29.1z"/>
	<path class="st1" d="M56,26.3C56,26.3,56,26.3,56,26.3C56,26.3,56,26.3,56,26.3L56,26.3z"/>
	<path class="st1" d="M12.6,26.2l-0.9,2.6c-0.1,0.4-0.2,0.8-0.2,1.2c-0.2-1.3-0.6-2.7-1.1-3.9L6.6,15.3H0V17h2.7v13.5H0v1.7h7.1
		v-1.6H4.7V16.9h0.2l5.6,15.3h2L18,16.9h0.2v13.6h-2.4v1.7H23v-1.6h-2.7V17H23v-1.7h-6.7L12.6,26.2z"/>
</g>
</svg>
