<?xml version="1.0" encoding="utf-8"?>
<!-- Generator: Adobe Illustrator 22.0.0, SVG Export Plug-In . SVG Version: 6.00 Build 0)  -->
<svg version="1.1" id="Layer_1" xmlns="http://www.w3.org/2000/svg" xmlns:xlink="http://www.w3.org/1999/xlink" x="0px" y="0px"
	 viewBox="0 0 500 384.1" style="enable-background:new 0 0 500 384.1;" xml:space="preserve">
<style type="text/css">
	.st0{fill:#1FB7E1;}
	.st1{fill:none;}
	.st2{fill:#202859;}
	.st3{fill:#FFFFFF;}
</style>
<g>
	<path class="st0" d="M483.3,256.2c-1.2,11.5-3.5,22-6.7,31.6c-7.4,22.1-20.1,39.2-36.4,52.2c-12.6,10-27.3,17.4-43.7,22.7
		c-3.5,1.1-7,2.2-10.7,3.1c-14,3.7-29,5.8-44.7,6.8c-23.7,1.5-48.8,0.1-74-3.5c-11.9-1.7-23.7-3.9-35.5-6.4
		c-12.9-2.8-25.7-6.1-38.1-9.8c-19.5-5.7-38.2-12.5-55.3-19.9c-14.2-6-27.4-12.5-39.3-19.2l0,0c-1.1-0.7-2.2-1.2-3.3-1.9
		c-2-1.1-3.9-2.3-5.8-3.5c-0.6-0.4-1.2-0.8-1.9-1.1c-6.2-3.9-11.9-7.6-17.1-11.4c-2.3-1.6-4.4-3.2-6.5-4.8
		c-3.8-2.9-7.4-5.8-10.7-8.7c-73.7-63.1-28.9-113,37.8-94.6c1.1,0.3,2.3,0.7,3.4,1h0.1c5.3,1.6,10.4,2.6,15.5,3.1
		c3.8,0.4,7.6,0.4,11.2,0.1c8.8-0.6,17.2-2.7,25.4-6c12-4.9,23.4-12.2,34.8-21.1c5-3.9,9.9-8,14.8-12.3
		c13.3-11.8,26.5-24.8,39.9-37.5l0,0c3-2.8,6.1-5.6,9.1-8.4c3.3-3,6.6-5.9,10-8.8c0.9-0.8,1.8-1.5,2.7-2.3
		c12.1-10,24.3-18.7,37.3-25.1c70.8-34.7,175.3,49.9,186.3,134.4C484.5,224,484.9,240.9,483.3,256.2z"/>
	<path class="st1" d="M245.8,107.6L245.8,107.6l34.9,144.3L236.9,116c0,0,0,0-0.1,0.1L281.4,255L245.8,107.6z"/>
	<polygon class="st1" points="381,208.7 381,209.6 392.6,324.6 392.7,324.6 	"/>
	<path class="st1" d="M121.8,192.8l15,21.4L99,314.3l0,0l48.2-127.7C139.1,190,130.6,192.2,121.8,192.8z"/>
	<polygon class="st1" points="266.1,141.3 266,141 266.4,142.5 266.1,141.2 	"/>
	<path class="st1" d="M482.2,205.7c-11-84.4-115.5-169-186.3-134.3c-13,6.3-25.4,15.2-37.3,25.1l24.8,47.5l41.1,67.7l31.6-56
		l21.3-40.5l45.6,69.5l60.7,71.9C485,241.5,484.6,224.6,482.2,205.7z"/>
	<path class="st1" d="M71.6,239.6l20-51.1c-66.7-18.4-111.4,31.3-37.8,94.6L71.6,239.6L71.6,239.6z"/>
	<path class="st2" d="M265.9,141.1l0.4,1.3L341.2,373c15.6-0.9,30.6-3.2,44.7-6.8L265.9,141.1L265.9,141.1z"/>
	<path class="st2" d="M476.7,288.3c3.2-9.6,5.5-20.1,6.7-31.6l-60.7-71.9L476.7,288.3z"/>
	<polygon class="st2" points="359.9,148.8 356.9,195.9 375.6,146.6 389.6,173.1 390.4,139.4 422.8,184.9 377.2,115.2 355.9,155.8 
		354.5,158.4 	"/>
	<path class="st2" d="M64.5,291.7c2.1,1.6,4.2,3.2,6.5,4.8l9.4-55.3L64.5,291.7z"/>
	<path class="st2" d="M231.8,363.3c11.8,2.5,23.6,4.7,35.5,6.4l-34-197.1L231.8,363.3z"/>
	<polygon class="st3" points="392.6,324.6 393,328.5 392.7,324.6 	"/>
	<path class="st2" d="M392.5,324.6l0.4,3.9l0,0l3.5,34.7c16.3-5.3,31.2-12.7,43.7-22.7l-59.3-131.8L392.5,324.6z"/>
	<path class="st2" d="M197.6,106.1l-15.5,59.6l0,0l-43.6,168c17.2,7.3,35.9,14.1,55.3,19.9l3.1-200.1l0,0L197.6,106.1z"/>
	<path class="st2" d="M255.8,98.8l27.4,45.3l-24.8-47.5l0,0l-44.9-86.1l-57.3,152.2l49.9-104.3l4.6,45.9l9.5-38.7l16.2,50.3
		c0.1-0.1,0.2-0.2,0.3-0.3c-0.1,0.1-0.2,0.2-0.3,0.3l44.8,139l-35.6-147.4l0,0l-10.1-42L255.8,98.8"/>
	<path class="st3" d="M266,141.3l119.9,225c3.6-0.9,7.2-2,10.7-3.1l-3.5-34.7l0,0l-0.4-3.9l-11.7-115l-0.1-1l59.3,131.8
		c16.3-12.9,28.9-30,36.4-52.2l-53.8-103.4l-32.4-45.5l-0.7,33.7l-14-26.4l-18.7,49.2l3-47.1l-5.5,9.6l1.4-2.6l-31.6,56l-41-67.7
		l-27.4-45.4c-0.7,0.7-0.7,0.7,0,0l-20.1-33.2l10.1,42l0,0L281.4,255l-44.7-139l0,0l-16.2-50.3l-9.5,38.7l-4.6-45.9l-50,104.3
		l-9.1,24.1l0,0L99.2,314.4c11.9,6.7,25.1,13.2,39.2,19.2l43.6-168l0,0l15.5-59.6l-0.7,47.2l0,0l-3.1,200.1
		c12.4,3.7,25.2,7,38.1,9.8l1.5-190.6l34,197c25.2,3.6,50.2,4.9,74,3.5l-74.9-230.6"/>
	<path class="st2" d="M121.8,192.8L121.8,192.8l-20.4-29.3l-9.8,25l0,0l-20,51.1l0,0l0.2-0.7l23.3-49.4l0,0l6.7-14.1l8.8,17.2l0,0
		l16.1,31.5l-3.8,8.8l-21.7,50.3l-1.2-76.7l-7.8,97.6l-2.1,4.8c1.9,1.1,3.8,2.4,5.8,3.5c1,0.7,2.2,1.2,3.3,1.9l37.7-100.3
		L121.8,192.8z"/>
	<path class="st3" d="M110.8,192.8L110.8,192.8l-8.8-17.2l-6.7,14.1l0,0L72,239.1l-0.3,0.7L54,283.2c3.3,2.8,6.9,5.7,10.7,8.7
		l15.9-50.6l-9.4,55.3c5.3,3.8,11,7.6,17.1,11.4c0.6,0.4,1.2,0.8,1.8,1.1l2.1-4.8l8-97.6l1,76.7l21.7-50.3l3.8-8.8L110.8,192.8z"/>
</g>
</svg>
