<?xml version="1.0" encoding="utf-8"?>
<!-- Generator: Adobe Illustrator 22.0.0, SVG Export Plug-In . SVG Version: 6.00 Build 0)  -->
<svg version="1.1" id="Layer_1" xmlns="http://www.w3.org/2000/svg" xmlns:xlink="http://www.w3.org/1999/xlink" x="0px" y="0px"
	 viewBox="0 0 100 100" style="enable-background:new 0 0 100 100;" xml:space="preserve">
<style type="text/css">
	.st0{fill:#1FB7E1;}
	.st1{fill:none;stroke:#202859;stroke-width:2.5;stroke-miterlimit:10;}
</style>
<g>
	<path class="st0" d="M32.2,39.9C23.5,49.6,23.5,69,34,72.8c10.5,3.9,27.5-1.5,31.9,9c4.4,10.4,16.7,8.9,14.1-11.2
		C77.5,50.4,56.1,13.1,32.2,39.9z"/>
	<g>
		<path class="st1" d="M2.3,37.2c0.3-1.3,0.5-2.6,0.9-3.9c1.1-3.9,3.3-7.1,6.1-10c4.7-4.7,10.4-7.7,16.7-9.5
			c7.7-2.2,15.6-2.5,23.5-1c4.2,0.7,8.2,2.1,11.9,4c4.8,2.4,8.9,5.6,12,10.1c4.2,6.1,5.1,12.7,2.6,19.6c-1.4,3.9-3.9,7-6.9,9.8
			c-3.6,3.3-7.8,5.6-12.3,7.2c-4.8,1.8-9.7,2.7-14.8,2.8c-3.6,0.1-7.3-0.1-10.9-0.7c-0.3,0-0.6,0-0.8,0.1c-3.2,2.2-6.6,4-10.3,5.3
			c-2.8,1-5.6,1.8-8.6,2.1c-0.8,0.1-1.5-0.1-1.9-0.8C9,71.5,9,70.8,9.6,70.1c1.4-1.6,2.8-3.2,4.2-4.9c1.2-1.4,2-3,2.6-4.6
			c-1.8-1.4-3.7-2.6-5.4-4.1c-4.6-4-7.8-8.9-8.6-15.1c0-0.2-0.1-0.3-0.1-0.5C2.3,39.7,2.3,38.4,2.3,37.2z"/>
		<path class="st1" d="M97.7,54.7c-0.1,0.7-0.3,1.4-0.4,2.1c-0.7,3.8-2.5,7-4.9,10c-2.3,2.8-5.1,5.1-8.3,7c-0.5,0.3-0.4,0.6-0.2,1
			c1.2,2.8,3.1,5.1,5.1,7.2c0.6,0.7,1.2,1.3,1.7,2s0.3,1.4-0.1,2s-1,0.9-1.8,0.8c-6.3-0.9-12.2-3.1-17.5-6.6
			c-1.2-0.8-2.2-0.9-3.6-0.7c-8.5,1.1-16.8,0.6-24.8-2.6c-2.4-0.9-4.6-2.3-6.9-3.4c-0.1-0.1-0.2-0.2-0.3-0.3c1.9,0,3.8,0,5.7,0
			c5-0.1,10-0.8,14.8-2.3c4.8-1.4,9.2-3.5,13.4-6.3c3.8-2.6,7-5.7,9.6-9.4c3.8-5.6,5.6-11.7,5-18.5c-0.1-1.6-0.6-3.2-0.9-4.9
			c0-0.2-0.1-0.3-0.2-0.7c1,0.6,1.9,1.1,2.8,1.7c3.7,2.5,6.8,5.6,9.1,9.5c1.5,2.5,2.4,5.2,2.8,8C97.8,50.5,97.7,53.4,97.7,54.7z"/>
	</g>
</g>
</svg>
