<?xml version="1.0" encoding="utf-8"?>
<!-- Generator: Adobe Illustrator 22.0.0, SVG Export Plug-In . SVG Version: 6.00 Build 0)  -->
<svg version="1.1" id="Layer_1" xmlns="http://www.w3.org/2000/svg" xmlns:xlink="http://www.w3.org/1999/xlink" x="0px" y="0px"
	 viewBox="0 0 100 100" style="enable-background:new 0 0 100 100;" xml:space="preserve">
<style type="text/css">
	.st0{fill:#1FB7E1;}
	.st1{fill:none;stroke:#202859;stroke-width:2.5;stroke-miterlimit:10;}
	.st2{fill:none;stroke:#202859;stroke-width:2;stroke-miterlimit:10;}
</style>
<path class="st0" d="M33.8,88.3c11.8,9.6,34.6,8.6,38.5-3.9c4-12.5-3.2-32.2,8.8-37.9s9.6-20-13.9-16C43.7,34.6,1,61.7,33.8,88.3z"
	/>
<path class="st1" d="M55.3,65c-1.5-0.7-2.9-1.4-4.4-2.1c-4-1.9-8.2-0.2-9.8,4c-0.6,1.5-1.1,3.1-1.7,4.6c-3,0-5.9,0-9,0
	c-0.5-1.5-1.1-3-1.7-4.6c-1.5-4.1-5.6-5.9-9.6-4.1c-1.3,0.6-2.6,1.3-3.9,1.8c-0.3,0.1-0.8,0-1.1-0.2c-1.8-1.8-3.6-3.5-5.4-5.4
	c-0.2-0.2-0.3-0.9-0.2-1.2c0.5-1.3,1.2-2.6,1.8-3.9c1.8-3.9,0-8-4-9.5C5,43.9,3.6,43.5,2.4,43c-0.3-0.1-0.7-0.7-0.7-1.1
	c-0.1-2.4,0-4.9-0.1-7.4c0-0.7,0.3-1,0.9-1.2C3.8,32.9,5,32.4,6.2,32c4.1-1.5,5.9-5.6,4-9.7C9.6,21,9,19.8,8.4,18.5
	c-0.1-0.3,0-1,0.2-1.3c1.9-1.9,3.8-3.8,5.7-5.8c1.4,0.7,2.8,1.3,4.2,2c4.3,2.1,8.4,0.4,10.1-4.1c0.5-1.5,1.1-2.9,1.6-4.4
	c2.7,0,5.3,0,8,0c0.3,0,0.6,0,1,0c0.6,1.6,1.1,3.2,1.7,4.7c1.5,4,5.7,5.7,9.6,3.9c1.2-0.6,2.5-1.1,3.7-1.8c0.6-0.3,0.9-0.3,1.4,0.2
	c1.7,1.8,3.5,3.5,5.2,5.2c0.3,0.3,0.4,0.9,0.2,1.3c-0.5,1.3-1.2,2.5-1.8,3.8c-1.8,3.9-0.1,8,3.9,9.6c1.3,0.5,2.7,0.9,4,1.5
	c0.3,0.1,0.7,0.7,0.8,1c0.1,2.4,0,4.9,0.1,7.4c0,0.7-0.3,1-0.9,1.1c-1.2,0.4-2.4,0.8-3.6,1.3c-4.3,1.5-6.1,5.7-4.1,9.9
	c0.6,1.2,1.2,2.4,1.7,3.7c0.1,0.3,0.1,0.8-0.1,1C59.3,61.1,57.3,63,55.3,65z M47.1,38.4c0-6.7-5.4-12.1-12-12.2
	c-6.7,0-12.2,5.5-12.2,12.2c0,6.6,5.5,12.1,12.1,12.1C41.7,50.6,47.1,45.1,47.1,38.4z"/>
<path class="st2" d="M94.7,55.8c-0.5,1-0.8,1.8-1.2,2.6c-0.9,2.1-0.1,4.2,2.1,5c2.5,1,2.5,1,2.5,3.7v0.1c0,1.9,0,1.9-1.8,2.6
	c-3.1,1.1-3.9,3-2.5,6c0.2,0.3,0.4,0.7,0.5,1.1s0,0.9-0.2,1.2c-0.7,0.9-1.5,1.7-2.4,2.4c-0.3,0.2-0.8,0.3-1.2,0.2
	c-0.6-0.2-1.1-0.5-1.7-0.8c-2.1-0.9-4.2-0.1-5.1,2c-0.4,0.8-0.5,2.1-1.1,2.5c-0.7,0.4-1.9,0-2.8,0.2c-1.4,0.2-2-0.4-2.4-1.7
	c-1-3.3-3-4-6.1-2.6c-1.6,0.8-1.6,0.8-3-0.5c-2-2-2-2-0.9-4.6c0.9-2.1,0-4.1-2.1-5c-2.6-1-2.6-1-2.6-3.8c0-2,0-2,1.9-2.6
	c3-1.1,3.8-3,2.4-5.9c-1-2.2-1.2-1.5,0.6-3.3c1.9-1.9,1.9-1.9,4.3-0.8c2.3,1,4.3,0.1,5.2-2.2c0.9-2.4,0.9-2.4,3.4-2.4
	c2.2,0,2.2,0,3,2.1c1,2.8,3,3.6,5.7,2.3c1.9-0.9,1.9-0.9,3.5,0.6C93.4,54.7,94.1,55.2,94.7,55.8z M86.9,66.8c0-3.6-2.8-6.5-6.4-6.5
	c-3.5,0-6.4,2.9-6.4,6.4s2.8,6.4,6.3,6.5C84,73.2,86.9,70.4,86.9,66.8z"/>
<path class="st2" d="M56.8,70.8c0.3,0.2,0.6,0.4,0.9,0.5c1.2,0.4,1.4,1.1,0.9,2.2c-0.4,1.1,0.1,1.8,1.2,1.6c0.6-0.1,1.4-0.5,1.8-0.3
	c0.6,0.5,0.9,1.3,1.2,1.8c-0.5,0.9-1.5,1.8-1.4,2.5c0.1,0.6,1.4,1,2.4,1.6c0,0.1-0.1,0.5,0,0.9c0.2,1.1-0.3,1.6-1.4,1.8
	c-1.5,0.3-1.7,1.1-0.6,2.1c0.3,0.3,0.7,0.6,1,0.8c-0.2,0.4-0.3,0.7-0.5,0.9c-0.5,1.2-1.1,1.7-2.4,1.1c-1-0.4-1.7,0.2-1.5,1.2
	c0.1,0.6,0.3,1.1,0.4,1.7c0,0.1,0,0.2-0.1,0.2c-0.7,0.4-1.3,0.8-2.3,1.4c-0.3-0.4-0.6-0.9-0.9-1.3c-0.9-0.9-1.7-0.7-2,0.6
	c-0.2,1-0.5,1.6-1.8,1.5c-1-0.1-1.4-0.2-1.6-1.3c-0.3-1.6-1.1-1.8-2.3-0.6c-0.3,0.3-0.6,0.6-0.9,0.9c-0.7-0.4-1.5-0.8-2.2-1.3
	c0.1-0.4,0.3-0.8,0.3-1.2c0-0.5,0.1-1.2-0.2-1.6c-0.2-0.3-1-0.3-1.5-0.1c-1,0.4-1.5,0-2-0.8c-0.5-0.9-0.4-1.4,0.3-2.1
	c1.3-1.1,1-1.8-0.6-2.3c-1.4-0.4-1.4-0.4-1.2-3c0.5-0.1,0.9-0.3,1.4-0.4c1.3-0.4,1.5-1.1,0.5-2.1c-0.6-0.6-1.2-1-0.5-2.1
	c0.6-0.9,1-1.3,2.2-0.9c1.4,0.5,2-0.2,1.6-1.6c-0.1-0.4-0.2-0.8-0.4-1.3c0.6-0.3,1.1-0.7,1.6-0.9c0.3-0.1,0.8,0,1.2,0.1
	c0.2,0.1,0.4,0.4,0.6,0.6c1,1,1.7,0.8,2.1-0.6c0.2-0.8,0.2-1.5,1.5-1.5c1.2,0,1.7,0.3,2,1.5c0.2,1.4,1,1.5,2,0.6
	C56,71.2,56.7,70.7,56.8,70.8z M47.3,81.8c0,2.6,2.1,4.7,4.6,4.7s4.6-2.2,4.6-4.7s-2.1-4.6-4.6-4.6C49.4,77.1,47.3,79.2,47.3,81.8z"
	/>
</svg>
