<?xml version="1.0" encoding="utf-8"?>
<!-- Generator: Adobe Illustrator 22.0.0, SVG Export Plug-In . SVG Version: 6.00 Build 0)  -->
<svg version="1.1" id="Layer_1" xmlns="http://www.w3.org/2000/svg" xmlns:xlink="http://www.w3.org/1999/xlink" x="0px" y="0px"
	 viewBox="0 0 100 100" style="enable-background:new 0 0 100 100;" xml:space="preserve">
<style type="text/css">
	.st0{fill:#1FB7E1;}
	.st1{fill-rule:evenodd;clip-rule:evenodd;fill:#202859;}
</style>
<g>
	<path class="st0" d="M91.2,77c6-15.2-2.4-38.1-16.5-38.1c-14,0-31.9,13.7-41.6,3.3c-9.7-10.4-23.6-3.3-11.8,19.4
		C33.1,84.3,74.6,119.1,91.2,77z"/>
	<path class="st1" d="M46.9,64.5c-1.2,0-2.2-0.5-2.9-1.5c-0.1-0.1-0.1-0.1-0.2-0.1l-4.6,0v-2H45l0.2,0.6c0.3,0.7,0.7,1,1.5,1h14.1
		c0.4,0,0.7-0.1,0.9-0.4c0.2-0.3,0.3-0.6,0.2-1c0-0.2-0.1-0.3-0.3-0.4c-0.2-0.1-0.4-0.2-0.6-0.3l-0.4-0.2l0.1-1.8l1,0
		c0.3,0,0.6-0.2,0.8-0.4c0.2-0.3,0.3-0.6,0.2-0.9c0-0.2-0.1-0.3-0.3-0.4c-0.2-0.1-0.4-0.2-0.6-0.3l-0.4-0.2l0.2-1.8l1,0
		c0.3,0,0.6-0.2,0.8-0.4c0.2-0.3,0.3-0.6,0.2-0.9c0-0.2-0.2-0.3-0.3-0.4c-0.2-0.1-0.4-0.2-0.6-0.3l-0.4-0.2l0.1-0.9l0.1-1l0.9,0
		c0.6,0,1.1-0.4,1.1-1c0-0.3-0.1-0.5-0.3-0.7c-0.2-0.2-0.5-0.3-0.8-0.3H51.2l0.4-2.6c0.2-1.3,0.4-2.6,0.6-3.9
		c0.1-0.9-0.2-1.8-0.5-2.6c-0.3-0.8-0.7-1.3-1.2-1.8c-0.4-0.4-0.8-0.5-1.2-0.5l0,3.9c0,0.1,0,0.3-0.1,0.4L45,49.5
		c-0.1,0.2-0.2,0.3-0.5,0.3c-1,0-5.4,0-5.4,0v-2l4.4,0c0.1,0,0.1,0,0.1-0.1l3.5-7.2c0-0.1,0-0.2,0-0.2l0-5.5l1.4,0c0.3,0,0.7,0,1,0
		c0.8,0.1,1.5,0.4,2.2,1c1.1,1,1.8,2.3,2.1,4c0.2,0.9,0.2,1.9,0,3.1c-0.1,0.9-0.3,1.7-0.4,2.6l-0.1,0.7l9.9,0c1.3,0,2.4,0.8,2.8,2
		c0.4,1.3,0,2.6-1.1,3.4L65,51.7c0.5,0.7,0.7,1.4,0.5,2.2c-0.2,0.8-0.6,1.4-1.3,1.9c0.5,0.7,0.7,1.4,0.5,2.2
		c-0.2,0.8-0.6,1.4-1.3,1.8c0.4,0.5,0.6,1.1,0.5,1.7c0,1.6-1.3,2.9-2.9,2.9h-7.3C51.4,64.5,49.2,64.5,46.9,64.5L46.9,64.5z"/>
	<path class="st1" d="M50,95.4c-10.9,0-21.2-3.9-30.4-11.7C12.1,77.4,7.3,69.5,5.3,60.2C3,49.6,3.8,40.1,7.5,31.2
		c3.2-7.7,8.6-14.2,16.1-19.4c7.4-5.1,15.7-8,24.6-8.6c0.9-0.1,1.8-0.1,2.7-0.1c6.3,0,12.6,1.4,18.6,4.1
		c10.8,4.9,18.7,12.9,23.2,23.8c2.1,4.9,3.2,10.2,3.3,16.3c0,0.5,0,0.9,0,1.4l0,0.6C96,61.7,92,72.4,84,81.1
		C77.6,88,69.6,92.5,60.1,94.4C56.7,95.1,53.3,95.4,50,95.4z M51.7,92.6l1.7-0.1c0.7-0.1,1.3-0.1,2-0.1c1.1,0,1.7-0.3,2.3-1.1
		c3-4.2,5.3-8.9,7.3-13c0.4-0.9,0.8-1.8,1.2-2.7l0.8-1.7l-0.7-0.2c-5.2-1.9-9.7-2.8-14-3.1l-0.7,0V92.6z M45.8,70.6
		c-4.1,0.7-7.9,1.4-11.6,2.8l-0.4,0.1l-0.1,0.7l0,0.3c2.4,6,5.5,11.7,9.3,17c0.3,0.4,0.8,0.7,1.2,0.7c0.9,0.1,1.8,0.1,2.8,0.2
		l1.7,0.1V70.1L45.8,70.6z M20.1,80.7l0.8,0.6c6,4.7,11.4,7.7,17.1,9.4l1.5,0.5l-8.8-16.3L20.1,80.7z M69,75.5
		c-1.9,4.9-3.9,9.7-7.4,14l-1.2,1.4l1.8-0.4c7.1-1.5,12.8-4.6,17.3-9.3l0.6-0.6l-10.9-5.8L69,75.5z M7.3,51.5
		C8.2,62.2,11.6,71,17.9,78.3l0.3,0.4l11.7-6.1l-0.1-0.5c-0.3-1.1-0.6-2.1-0.9-3.2c-0.7-2.4-1.4-4.7-1.9-7.1
		c-0.5-2.4-0.9-4.8-1.3-7.2l-0.1-0.3c-0.2-1-0.3-2-0.5-3l-0.1-0.5H7.3L7.3,51.5z M75.5,51.4c-0.2,7.3-2.6,14-4.9,20.3l-0.2,0.5
		l12,6.4l0.3-0.4c6.5-7.7,10-16.7,10.4-26.8l0-0.7H75.5L75.5,51.4z M28.2,54.4c0.1,0.7,0.2,1.4,0.3,2.1c0.8,5,2.1,10,4,14.7l0.2,0.6
		l0.6-0.2c4.2-1.6,7.8-2.8,11.5-3.4c0.9-0.1,3.3-0.4,6.2-0.4l0.7,0l0.1,0l0.4,0l0.3,0c0.5,0,1,0,1.5,0c1.2,0.1,2.3,0.2,3.4,0.4
		l0.7,0.1c2.7,0.6,5.4,1.5,9,3l0.6,0.3l0.2-0.6c2.1-5.5,3.4-10.2,4-14.6c0.5-3.3,0.4-7.2,0.3-9.8c0-1.1-0.1-2.7-0.4-4.7
		c-0.7-4.9-2.6-12.7-4.2-14.3l-0.3-0.3l-0.4,0.2c-3.2,1.2-6.9,2.6-10.9,3.2c-1.5,0.2-3.2,0.4-5,0.4c-2.5,0-4.7-0.3-6.2-0.5
		c-2-0.4-4.1-0.8-6.3-1.3c-1.3-0.3-2.5-0.7-3.8-1.2l-0.1-0.1c-0.6-0.2-1.2-0.4-1.8-0.6l-0.6-0.2l-0.2,0.6c-2.4,5.8-3.7,11-4.2,16.1
		c-0.4,2.2-0.4,4.9-0.3,6.8l0,0.2l0,0.5l0,0.5C28.1,53.4,28.2,54.4,28.2,54.4L28.2,54.4z M18,20.4c-6.2,6.7-9.7,15.2-10.8,26.8
		l-0.1,0.6L7.9,48c0.1,0,0.3,0.1,0.4,0.1l5.5,0c3.4,0,6.8,0,10.2,0c1.3,0,1.4-0.9,1.4-1.4c0.1-1,0.2-1.8,0.3-2.7
		c0.3-2.2,0.6-4.5,1-6.6c0.6-2.5,1.3-4.8,2-7.4c0.3-1.1,0.7-2.2,1-3.3l0.2-0.5L29.5,26c-1-0.5-2.1-1-3.1-1.5
		c-2.6-1.2-5.2-2.3-7.5-4.1L18.4,20L18,20.4z M70.4,26.5l0.2,0.5c3.1,7.5,4.5,14,4.6,20.3l0,0.7h18l0-0.7
		c-0.5-11.1-4-19.8-10.7-26.9l-0.3-0.4L70.4,26.5z M45.1,6.7c-1.1,0-1.9,0.5-2.6,1.6c-0.8,1.4-1.7,2.8-2.5,4.3
		c-1.4,2.4-2.8,4.8-4.2,7.2c-0.6,1-1,2.1-1.5,3.2l-0.1,0.1c-0.2,0.4-0.4,0.9-0.6,1.3l-0.3,0.7l1.7,0.5c4.3,1.2,8.4,2.4,12.9,2.6
		l0.7,0V6.7l-2.5,0L45.1,6.7z M51.7,28l1.1,0c3.3,0,11.2-1.1,13.8-3.2l0.4-0.3l-0.2-0.5C64,17.6,60.8,12.2,57,7.4
		c-0.2-0.3-0.7-0.7-1.3-0.7c-0.8-0.1-1.5-0.1-2.3-0.1l-1.7-0.1V28z M61.1,8.9c3.3,4.3,5.9,9,8.2,14.7l0.3,0.7l10.7-6.2l-0.7-0.6
		C74.1,13,68.2,9.8,61.8,7.9l-1.9-0.6L61.1,8.9z M37.6,8.2c-6.9,1.8-12.4,4.9-16.9,9.4l-0.6,0.6l10.4,5.6l8.6-16L37.6,8.2z"/>
</g>
</svg>
