<?xml version="1.0" encoding="utf-8"?>
<!-- Generator: Adobe Illustrator 22.0.0, SVG Export Plug-In . SVG Version: 6.00 Build 0)  -->
<svg version="1.1" id="Layer_1" xmlns="http://www.w3.org/2000/svg" xmlns:xlink="http://www.w3.org/1999/xlink" x="0px" y="0px"
	 viewBox="0 0 1104.5 895" style="enable-background:new 0 0 1104.5 895;" xml:space="preserve">
<style type="text/css">
	.st0{fill:url(#SVGID_1_);}
	.st1{fill:url(#SVGID_2_);}
</style>
<g>
	
		<linearGradient id="SVGID_1_" gradientUnits="userSpaceOnUse" x1="473.8186" y1="659.3227" x2="1135.4978" y2="-4.603" gradientTransform="matrix(1 0 0 -1 0 689.796)">
		<stop  offset="0" style="stop-color:#4D63D5"/>
		<stop  offset="1" style="stop-color:#5825C7"/>
	</linearGradient>
	<path class="st0" d="M1086.6-1.7c9.8,0,17.9,8,17.9,17.9v875.3c-100.8-13-161.2-93.5-180.8-136.8C893.5,687.4,843,644.5,753,655.4
		s-143.8-15.1-199.3-132.1c-48.9-103.1-101.8-78.2-308.7-127.9S95.2,208.8,52.3,67.9C44.1,41,31.3,18.1,14.7-1.7L1086.6-1.7z"/>
	
		<linearGradient id="SVGID_2_" gradientUnits="userSpaceOnUse" x1="717.0028" y1="207.2335" x2="651.9567" y2="633.401" gradientTransform="matrix(1 0 0 -1 0 689.796)">
		<stop  offset="0" style="stop-color:#4D63D5;stop-opacity:0"/>
		<stop  offset="1" style="stop-color:#5825C7"/>
	</linearGradient>
	<path class="st1" d="M500.6,188.2C389.4,184.5,234,121.6,181.7-1.7l922.8,0V584c-134.5,2.2-262.7-68.5-306-191.1
		C750.7,257.9,631.8,192.5,500.6,188.2z"/>
</g>
</svg>
