<?xml version="1.0" encoding="utf-8"?>
<!-- Generator: Adobe Illustrator 21.1.0, SVG Export Plug-In . SVG Version: 6.00 Build 0)  -->
<svg version="1.1" id="Objects" xmlns="http://www.w3.org/2000/svg" xmlns:xlink="http://www.w3.org/1999/xlink" x="0px" y="0px"
	 width="183px" height="214.8px" viewBox="0 0 183 214.8" style="enable-background:new 0 0 183 214.8;" xml:space="preserve">
<style type="text/css">
	.st0{fill:#F8CAD7;}
	.st1{opacity:0.1;fill:#202857;}
	.st2{fill:#24B7DF;}
	.st3{clip-path:url(#SVGID_2_);fill:#14A5C6;}
	.st4{fill:#E1B1BE;}
	.st5{fill:#FFE7EE;}
	.st6{fill:#F9CDDC;}
	.st7{fill:#FF71A8;}
	.st8{fill:#F8B7B0;}
	.st9{fill:#E85858;}
	.st10{fill:#1C1E38;}
	.st11{fill:#E04B4B;}
	.st12{fill:#FF6666;}
	.st13{fill:#4F5DD0;}
	.st14{fill:#432AA5;}
	.st15{fill:#4E63D1;}
	.st16{fill:#14A5C6;}
	.st17{fill:#0C8EA3;}
</style>
<rect x="134.6" y="31.3" class="st0" width="5.7" height="1"/>
<g>
	<ellipse class="st1" cx="122.2" cy="210.7" rx="8.8" ry="0.9"/>
	<g>
		<path class="st2" d="M126.3,194.9c0.2-1.5,0.7-4.2,2.4-6.1c5-5.4,11.3-1.6,11.9-4.1c0.3-1.2-1.7-3.3-4-3.9
			c-5.8-1.7-5.8,2.5-7.4,1.3c-1.9-1.6,6.1-9.4,2.7-16.4c-1.8-3.6-6.8-6-9.5-4.6c-2.1,1.1-2.5,4.6-2.5,5.3c-0.3,3.5,2.8,7.5,1.4,9.6
			c-2.7,4.1-2.2-6-9.5-4.3c-3.8,0.9-4.2,3.4-3.7,4.4c0.7,1.6,3.4,0.1,6.9,2.3c2.4,1.5,3.8,4.3,3.2,5c-0.7,0.9-3.7-1.8-6.7-0.5
			c-1.7,0.7-3,2.7-2.6,3.6c0.3,0.6,1.2,0.5,3,0.8c1,0.2,5.7,1.1,6.7,3.8c0.2,0.5,0.5,1.8-0.5,3.9H126.3z"/>
		<g>
			<defs>
				<path id="SVGID_1_" d="M126.3,194.9c0.2-1.5,0.7-4.2,2.4-6.1c5-5.4,11.3-1.6,11.9-4.1c0.3-1.2-1.7-3.3-4-3.9
					c-5.8-1.7-5.8,2.5-7.4,1.3c-1.9-1.6,6.1-9.4,2.7-16.4c-1.8-3.6-6.8-6-9.5-4.6c-2.1,1.1-2.5,4.6-2.5,5.3
					c-0.3,3.5,2.8,7.5,1.4,9.6c-2.7,4.1-2.2-6-9.5-4.3c-3.8,0.9-4.2,3.4-3.7,4.4c0.7,1.6,3.4,0.1,6.9,2.3c2.4,1.5,3.8,4.3,3.2,5
					c-0.7,0.9-3.7-1.8-6.7-0.5c-1.7,0.7-3,2.7-2.6,3.6c0.3,0.6,1.2,0.5,3,0.8c1,0.2,5.7,1.1,6.7,3.8c0.2,0.5,0.5,1.8-0.5,3.9H126.3z
					"/>
			</defs>
			<clipPath id="SVGID_2_">
				<use xlink:href="#SVGID_1_"  style="overflow:visible;"/>
			</clipPath>
			<path class="st3" d="M138.1,227.1c0.4-3.6,1.5-9.8,5.6-14.2c11.6-12.6,26.1-3.6,27.7-9.5c0.8-2.8-4-7.6-9.3-9.1
				c-13.4-4-13.5,5.9-17.2,2.9c-4.5-3.6,14.2-21.8,6.2-38c-4.1-8.3-15.8-13.9-21.9-10.7c-4.9,2.6-5.8,10.7-5.9,12.4
				c-0.7,8.2,6.5,17.3,3.1,22.4c-6.3,9.4-5-14-21.9-10c-8.8,2.1-9.7,8-8.6,10.2c1.7,3.7,7.9,0.2,15.9,5.3c5.6,3.5,8.8,9.9,7.5,11.7
				c-1.6,2-8.6-4.1-15.5-1.2c-4,1.7-6.9,6.4-6,8.4c0.6,1.4,2.9,1,7,1.8c2.3,0.4,13.2,2.5,15.6,8.7c0.4,1.2,1.3,4.1-1.3,9H138.1z"/>
		</g>
		<path class="st0" d="M133,199.9c0,6-4.9,10.9-11,10.7c-5.9-0.1-10.5-5.2-10.5-11.1v-6.1c0-1.4,1.2-2.6,2.6-2.6h16.3
			c1.4,0,2.6,1.2,2.6,2.6V199.9z"/>
	</g>
</g>
<path class="st4" d="M177.6,84.1h-19c-2.2,0-4.1,1.6-4.3,3.8c-0.1,1.4,0.4,2.6,1.3,3.5c2.3,2.1,2,5.9-0.5,7.8c-1.4,1-3.1,1.7-5,1.7
	c-1.9,0-3.6-0.6-5-1.7c-2.5-1.9-2.8-5.7-0.5-7.8c0.9-0.8,1.5-2.1,1.3-3.5c-0.2-2.2-2.1-3.8-4.3-3.8h-19v19c0,2.2-1.6,4.1-3.8,4.3
	c-1.4,0.1-2.6-0.4-3.5-1.3c-2.1-2.3-5.9-2-7.8,0.5c-1,1.4-1.7,3.1-1.7,5c0,1.9,0.6,3.6,1.7,5c1.9,2.5,5.7,2.8,7.8,0.5
	c0.8-0.9,2.1-1.5,3.5-1.3c2.2,0.2,3.8,2.2,3.8,4.3v19h47.1c4.4,0,7.9-3.5,7.9-7.9V84.1z"/>
<rect x="180.3" y="107.1" class="st0" width="1" height="18.3"/>
<rect x="155.5" y="135.6" class="st5" width="12.6" height="1"/>
<path class="st4" d="M158.6,83.1c-2.7,0-5.1,2-5.3,4.7c-0.2,1.6,0.4,3.2,1.6,4.3c0.8,0.8,1.3,1.9,1.2,3.1c-0.1,1.3-0.7,2.4-1.7,3.2
	c-1.3,1-2.8,1.5-4.4,1.5s-3.1-0.5-4.4-1.5c-1-0.7-1.6-1.9-1.7-3.2c-0.1-1.2,0.4-2.3,1.2-3.1c1.2-1.1,1.8-2.7,1.6-4.3
	c-0.2-2.6-2.6-4.7-5.3-4.7h-19v1h0v19c0,1.7-1.3,3.2-2.9,3.3c-0.1,0-0.2,0-0.3,0c-0.9,0-1.7-0.4-2.3-1c-1.1-1.2-2.7-1.9-4.3-1.9
	c-2,0-3.8,0.9-5,2.5c-1.2,1.6-1.9,3.6-1.9,5.6c0,2,0.6,4,1.8,5.6c1.2,1.5,3,2.5,5,2.5c1.7,0,3.2-0.7,4.3-1.9c0.6-0.7,1.4-1,2.3-1
	c0.1,0,0.2,0,0.3,0c1.6,0.2,2.9,1.6,2.9,3.3v19h51.1c2,0,3.8-1.5,3.9-3.9V83.1H158.6z"/>
<path class="st6" d="M122.6,29.1v19c0,2.2,1.6,4.1,3.8,4.3c1.4,0.1,2.6-0.4,3.5-1.3c2.1-2.3,5.9-2,7.8,0.5c1,1.4,1.7,3.1,1.7,5
	c0,1.9-0.6,3.6-1.7,5c-1.9,2.5-5.7,2.8-7.8,0.5c-0.8-0.9-2.1-1.5-3.5-1.3c-2.2,0.2-3.8,2.1-3.8,4.3v19h19c2.2,0,4.1,1.6,4.3,3.8
	c0.1,1.4-0.4,2.6-1.3,3.5c-2.3,2.1-2,5.9,0.5,7.8c1.4,1,3.1,1.7,5,1.7c1.9,0,3.6-0.6,5-1.7c2.5-1.9,2.8-5.7,0.5-7.8
	c-0.9-0.8-1.5-2.1-1.3-3.5c0.2-2.2,2.2-3.8,4.3-3.8h19V37c0-4.4-3.5-7.9-7.9-7.9H122.6z"/>
<rect x="152.7" y="31.3" class="st5" width="14.2" height="1"/>
<rect x="174.3" y="39.7" class="st5" width="1" height="39.3"/>
<path class="st7" d="M82,79.5l8.7-16.9c1-1.9,0.5-4.4-1.4-5.6c-1.2-0.7-2.5-0.8-3.7-0.4c-2.9,1.1-6.2-1-6.7-4
	c-0.3-1.7,0-3.5,0.8-5.2c0.9-1.7,2.2-2.9,3.7-3.7c2.8-1.4,6.3,0.1,7.2,3.1c0.3,1.2,1.2,2.2,2.5,2.8c2,0.8,4.3-0.2,5.3-2.1l8.7-16.9
	l-16.9-8.7c-1.9-1-2.9-3.3-2.1-5.3c0.5-1.3,1.6-2.2,2.8-2.5c3-0.8,4.5-4.4,3.1-7.2c-0.8-1.6-2-2.9-3.7-3.7c-1.7-0.9-3.5-1.1-5.2-0.8
	C82,2.8,80,6.1,81,9c0.4,1.2,0.3,2.5-0.4,3.7c-1.2,1.8-3.6,2.4-5.6,1.4L58.2,5.4L36.7,47.3c-2,3.9-0.5,8.7,3.4,10.7L82,79.5z"/>
<rect x="96.3" y="37.5" transform="matrix(0.4574 -0.8893 0.8893 0.4574 23.6304 114.6619)" class="st0" width="19" height="1"/>
<path class="st0" d="M122.6,139.1v-19c0-2.2-1.6-4.1-3.8-4.3c-1.4-0.1-2.6,0.4-3.5,1.3c-2.1,2.3-5.9,2-7.8-0.5c-1-1.4-1.7-3.1-1.7-5
	c0-1.9,0.6-3.6,1.7-5c1.9-2.5,5.7-2.8,7.8-0.5c0.8,0.9,2.1,1.5,3.5,1.3c2.2-0.2,3.8-2.2,3.8-4.3v-19h-19c-2.2,0-4.1-1.6-4.3-3.8
	c-0.1-1.4,0.4-2.6,1.3-3.5c2.3-2.1,2-5.9-0.5-7.8c-1.4-1-3.1-1.7-5-1.7c-1.9,0-3.6,0.6-5,1.7c-2.5,1.9-2.8,5.7-0.5,7.8
	c0.9,0.8,1.5,2.1,1.3,3.5c-0.2,2.2-2.2,3.8-4.3,3.8h-19v47.1c0,4.4,3.5,7.9,7.9,7.9H122.6z"/>
<rect x="83.2" y="135.6" class="st5" width="21" height="1"/>
<rect x="111.3" y="135.6" class="st5" width="7.3" height="1"/>
<rect x="69.4" y="60" transform="matrix(0.4567 -0.8896 0.8896 0.4567 -25.0482 100.6151)" class="st0" width="1" height="21.7"/>
<rect x="50.1" y="58.9" transform="matrix(0.4567 -0.8896 0.8896 0.4567 -26.7127 78.1676)" class="st0" width="1" height="4"/>
<g>
	<g>
		<path class="st8" d="M86.9,79.7c-0.7,0.2-1.3,0.8-1.3,0.8s-1.3-2.6-1.5-4c-0.3-1.3-0.3-1.7-0.1-3.2s0.5-2.9,2.6-3.1
			c1.7-0.2,2.3,2.1,2,3.2c-0.3,1.1-1.3,2.9-1.1,3.9c0.2,0.9,0.6,2.3,0.6,2.3S87.5,79.5,86.9,79.7z"/>
		<path class="st9" d="M96.1,103.8c-3.8-2.2-8.6-5-10.1-8.3c-1.5-3.5-1.7-14.3-1.5-16.3c0-0.3,0.2-0.5,0.4-0.6
			c1.3-0.9,2.9-0.8,3.2-0.5c0.3,0.4-0.2,12.6,3.3,16.6c2.5,2.7,2.9,2.6,5.9,4c2.8,1.3,4.8,0.2,4.9,3.5
			C102.3,105.5,99.7,105.9,96.1,103.8z"/>
	</g>
	<g>
		<path class="st8" d="M95.5,104.3c-3.4,0.5-5.6-1.4-6.3-2.2c-0.7-0.9,1.5-1.7,2.3-2.6c0.3-0.4,0.5-1,0.5-1.7c0-1,0-4.2-0.2-5.7
			l6.6,0.7c0,0-0.2,3.4-0.2,4.6c0,0.2,0,0.4,0.1,0.6c0.3,0.8,1.1,1.1,2.4,2.1C102.3,101.5,98.9,103.9,95.5,104.3z"/>
		<g>
			<g>
				<path class="st8" d="M101.3,92c-2,3.3-3,4.9-5,5.7c-2.1,0.8-3.6-0.6-4.6-1.4c-1.3-1.1-2.5-3.9-2.1-5.5c0.3-1.7,1.3-4.6,3.6-8.2
					c1.1-1.8,4.4-3.1,6.7-2.1C102.1,81.6,106.1,83.8,101.3,92z"/>
			</g>
			<path class="st10" d="M93.1,86.5c-1,3.2-0.8,4.7,0.1,6.5c0.9,1.9,2.6,2.9,3.8,3c1.5,0.1,1.9-0.3,4.5-2.8c1.1-1,3-2.5,4-6
				c0.5-1.8-0.8-4.9-3.2-5.9C100,80.3,95.6,78.6,93.1,86.5z"/>
			<path class="st8" d="M91.4,88.5c-0.4,1.2,0,2.4,0.9,2.7c0.8,0.3,1.8-0.5,2.2-1.7c0.4-1.2,0-2.4-0.9-2.7
				C92.8,86.5,91.8,87.3,91.4,88.5z"/>
			<path class="st10" d="M94.9,85.2c-1.2-1.7-2.8-3.3-1.2-4.4c1.6-1.2,5.7-2.4,9.4,0.7C107.4,85.2,94.9,85.2,94.9,85.2z"/>
		</g>
	</g>
	<ellipse class="st1" cx="88.2" cy="201.1" rx="22.1" ry="3"/>
	<path class="st11" d="M79.3,199.8c3.5-0.2,6.6-1.1,6.4,1c-0.1,1.8-0.3,1.7-6.3,1.7c-3.5,0-6.4-0.3-6.4-1
		C72.9,200.8,75.7,200,79.3,199.8z"/>
	<path class="st11" d="M96.2,197.4c3.3-1.2,6.6-1.1,6.4,1c-0.1,1.8,0.1,1.7-5.9,1.7c-3.5,0-4.4-0.7-3.9-1.2
		C93.8,198.2,94.8,197.9,96.2,197.4z"/>
	<path class="st12" d="M91.4,98.4c3.2,0,5-0.1,8.8,0.8c2.7,0.6,5.5,2.3,4.5,10.3c0,0-2,19.5-2.1,22.1c-0.3,6.3,1.5,7.5-3.5,7.1
		c-5.3-0.5-11.7-0.2-14.2-0.5c-0.8-0.1-0.6-2-0.3-4.3c0.3-1.9,1.8-16.7,1.6-23.7C86.1,105.3,84.8,98.4,91.4,98.4z"/>
	<path class="st13" d="M102.1,195.1c0.2,1.9,0.4,2.6,0.4,2.6s-1.2,0.2-5.1-0.3c-0.4-0.1-1-5.6-1.3-8.3c-0.3-2.7-1.5-15.6-1.4-18.7
		c0.1-3.1-0.5-21.4-0.5-21.4h-1.3c0,0-3.7,9.6-4.3,13c-0.8,5.2-1.4,8.3-1.3,10.2c0.1,3.3-1.4,22.5-1.7,24.3c-0.3,1.8,0,3.7,0,3.7
		s-2.8,0.9-5.8,0.1c0,0,0.4-27.4,0.5-31.4c0.1-2.8,2-17.1,3.2-24.9c0-0.2,0-0.4,0.1-0.5c0.4-2.8,0.7-4.6,0.7-4.6s0-0.8,0.7-0.8
		c0.3-0.1,0.8-0.1,2.1-0.2c0.2,0,0.3,0,0.5,0c1.3,0,3.3-0.1,6.4-0.1c7.4,0,8.6,0.2,8.6,0.7c0,0-0.9,26.6-1.1,30.8
		C101.4,173.3,101.9,193.2,102.1,195.1z"/>
	<path class="st8" d="M81.3,129"/>
	<path class="st14" d="M87.6,137.7c-0.2,0-0.4,0-0.5,0c0.2,0.4,0.3,0.9,0.3,1.4c0,2.2-1.6,4-3.7,4.2c0,0.2-0.1,0.3-0.1,0.5
		c2.4-0.2,4.3-2.3,4.3-4.8C87.8,138.7,87.7,138.2,87.6,137.7z"/>
	<path class="st8" d="M64.2,97.3C64,98,64,98.9,64,98.9s-2.9-0.7-4.1-1.3c-1.2-0.6-1.5-0.8-2.6-1.9c-1.1-1.1-2-2.2-0.8-4
		c0.9-1.4,3.1-0.5,3.8,0.4c0.7,0.9,1.5,2.8,2.3,3.3c0.8,0.5,2.2,0.9,2.2,0.9S64.5,96.7,64.2,97.3z"/>
	<path class="st12" d="M88.8,105.2c-4.1,1.6-9.2,3.6-12.8,2.7c-3.7-1-12.2-7.6-13.7-9c-0.2-0.2-0.3-0.4-0.3-0.7
		c0.1-1.6,1.1-2.8,1.6-2.8c0.5,0,9.7,8.1,15,7.8c3.7-0.2,3.9-0.6,6.8-2.1c2.7-1.3,3.2-3.6,5.8-1.6C94,101.5,92.7,103.7,88.8,105.2z"
		/>
</g>
<g>
	<ellipse class="st1" cx="39.1" cy="210.6" rx="37.9" ry="3"/>
	<path class="st4" d="M57.2,123.1H21.1c-1.1,0-2-0.9-2-2l0,0c0-1.1,0.9-2,2-2h36.1c1.1,0,2,0.9,2,2l0,0
		C59.1,122.2,58.3,123.1,57.2,123.1z"/>
	<path class="st8" d="M74.6,49.6c-0.1,0.5-0.6,1.1-0.6,1.1s2.1,0.9,3.2,1.1c1.1,0.2,1.4-0.5,2.6-0.7c1.2-0.2,1.6-0.3,1.7-1.9
		c0.1-1.3-1.2-1.8-2.1-1.6c-0.9,0.3-2.1,1.6-2.9,1.5c-0.7-0.1-1.8-0.4-1.8-0.4S74.7,49.2,74.6,49.6z"/>
	<path class="st8" d="M46.9,34.8c2.1,0.8,3.7-0.1,4.2-0.5c0.5-0.4-0.7-1.3-1.1-1.9c-0.2-0.3-0.2-0.7-0.1-1.1
		c0.1-0.6,0.5-1.4,0.9-2.3l-4.1-1.7c0,0-0.4,2.1-0.5,2.9c0,0.1-0.1,0.3-0.1,0.4c-0.3,0.5-0.8,0.5-1.8,1C43.1,32.1,44.8,34,46.9,34.8
		z"/>
	<g>
		<path class="st8" d="M46.3,25.3c0,2.9,0.1,4.3,1.1,5.6c1,1.3,2.1,1.9,3,2c1.1,0.1,3-1.8,3.4-3c0.4-1.2,1.1-4.5,1-7.7
			c-0.1-1.6-1.6-3.7-3.4-3.9C49.5,18.3,46.2,18.2,46.3,25.3z"/>
		<ellipse transform="matrix(0.2957 -0.9553 0.9553 0.2957 12.66 70.2627)" class="st8" cx="54" cy="26.5" rx="2" ry="1"/>
		<ellipse transform="matrix(0.9533 -0.302 0.302 0.9533 -5.5616 15.1449)" class="st8" cx="46.2" cy="25.6" rx="1" ry="2"/>
	</g>
	<path class="st15" d="M41.5,117.4c-2.9-0.4-5.4-1.3-5.4,0.5c0,1.5,0.1,1.4,5.2,1.8c2.9,0.2,5.4,0.1,5.4-0.5
		C46.7,118.5,44.4,117.7,41.5,117.4z"/>
	<path class="st16" d="M38.9,32.2c-3.6,3.4-9.6,11.2-10.5,15.4c-0.2,0.9,0.4,1.9,1.3,2.1l13.1,3.5c0.3,0.1,0.6-0.1,0.8-0.3l0.5-1
		c0.2-0.3,0-0.7-0.3-0.9l-9.8-5.2c2.8-5.3,4.8-6.4,4.8-6.4c-0.3,6.6-6.2,21.4-6.6,23.2c-0.5,2.2-0.8,4-0.1,4.1
		c2.4,0.5,8.1,0.8,13.2,1.6c3.6,0.6,3.6-0.8,3.1-6.7c-0.8-8.9,1.6-12.6,3.5-15.7c1.6-2.7,1.3-5.2,1.3-5.2l5.7,7.5
		c0.5,0.6,1.3,1.1,2.1,1.2L75,51.1c0.6,0.1,1.1-0.4,1.1-1l0-0.5c0-0.4-0.3-0.8-0.7-0.9L62,45.2c0,0-3.8-6.1-5.6-8.6
		c-0.8-1.1-2.2-4.1-5-4.7C42.7,30.3,41.5,29.8,38.9,32.2z"/>
	<path class="st12" d="M48.6,66.1c0,0-0.1,1.5-0.3,3.7c0,0.2,0,0.4,0,0.6c-0.6,6.8-1.6,19.5-2,22.4c-0.6,3.9-4.8,17.4-7.1,24.5
		c-0.1,0.3-0.4,0.6-0.8,0.6l-1.4,0c-0.5,0-0.9-0.4-0.8-0.9c0.4-4.7,3.4-20,4.1-23.3c0.6-3.1,1.1-14.2-0.5-19.3
		c-0.3-0.8-1.5-0.8-1.7,0.1c-1.1,4.1-3.7,13.1-5.2,17c-1.8,4.5-21.8-1-25.4-2.1C7.2,89.2,7,89,7,88.7l-0.1-1c0-0.3,0.3-0.7,0.6-0.6
		c3.4,0.3,19.6,1.5,20.4-1.6c0.7-2.8,2.1-11.2,2.9-16.3v0c0.1-0.3,0.1-0.5,0.1-0.7c0.3-2.1,0.6-3.5,0.6-3.5s0.1-0.7,0.7-0.8h0.1
		c0.1,0,0.3,0,0.5,0c0.8,0,2.6,0.1,7.8,0.6c3,0.3,4.9,0.5,6.1,0.7c0.2,0,0.4,0,0.5,0.1C48.4,65.7,48.6,65.8,48.6,66.1z"/>
	<path class="st15" d="M9.5,91.8c-0.7-2.9-1.7-5.1-2.3-5c-0.6,0.1-1.3,0.6,0.1,5.5c0.8,2.8,1.7,5.1,2.3,5
		C10.2,97.2,10.1,94.7,9.5,91.8z"/>
	<g>
		<g>
			<path class="st17" d="M37,47.5l-2-1l-2.4,4l3.2,0.9C36.3,50.1,36.7,48.8,37,47.5z"/>
		</g>
	</g>
	<path class="st10" d="M53.7,27.6c-1.2,3-0.5,8.4-1.5,13.2c-1,4.8-8.6,12.5-15.2,7c-7.5-6.3,2.1-13.2,3.9-17.7c2-5,1.9-8.9,4.6-11.6
		c2.5-2.6,6.2-1.5,7.8-0.2C56.6,21.1,54.7,25.2,53.7,27.6z"/>
	<g>
		<path class="st4" d="M9.1,211.2c0,0-0.1,0-0.1,0c-0.5-0.1-0.9-0.6-0.9-1.1l11-89.2c0.1-0.5,0.6-0.9,1.1-0.9
			c0.5,0.1,0.9,0.6,0.9,1.1l-11,89.2C10,210.9,9.6,211.2,9.1,211.2z"/>
		<path class="st4" d="M69.1,211.2c-0.5,0-0.9-0.4-1-0.9l-11-89.2c-0.1-0.5,0.3-1,0.9-1.1c0.5-0.1,1,0.3,1.1,0.9l11,89.2
			c0.1,0.5-0.3,1-0.9,1.1C69.2,211.2,69.2,211.2,69.1,211.2z"/>
	</g>
	<path class="st4" d="M62.2,155.7H15.9c-0.6,0-1-0.4-1-1c0-0.6,0.4-1,1-1h46.2c0.6,0,1,0.4,1,1C63.2,155.3,62.7,155.7,62.2,155.7z"
		/>
	<path class="st4" d="M66.1,185.8H12.2c-0.6,0-1-0.4-1-1c0-0.6,0.4-1,1-1h53.9c0.6,0,1,0.4,1,1C67.1,185.4,66.6,185.8,66.1,185.8z"
		/>
	<path class="st11" d="M47,66.7c0-0.4,0.1-0.8,0.2-1.2c-0.1,0-0.3-0.1-0.5-0.1c-0.1,0.4-0.2,0.8-0.2,1.3c0,1.5,0.7,2.8,1.8,3.7
		c0-0.2,0-0.4,0-0.6C47.5,69,47,67.9,47,66.7z"/>
	<path class="st11" d="M32.8,64.1c-0.2,0-0.4,0-0.5,0c0.1,0.3,0.1,0.7,0.1,1.1c0,1.3-0.6,2.4-1.5,3.2c0,0.2-0.1,0.5-0.1,0.7
		c1.3-0.9,2.1-2.3,2.1-4C33,64.8,32.9,64.4,32.8,64.1z"/>
</g>
</svg>
