<?xml version="1.0" encoding="utf-8"?>
<!-- Generator: Adobe Illustrator 22.0.0, SVG Export Plug-In . SVG Version: 6.00 Build 0)  -->
<svg version="1.1" id="Layer_1" xmlns="http://www.w3.org/2000/svg" xmlns:xlink="http://www.w3.org/1999/xlink" x="0px" y="0px"
	 viewBox="0 0 100 100" style="enable-background:new 0 0 100 100;" xml:space="preserve">
<style type="text/css">
	.st0{fill:#1FB7E1;}
	.st1{fill:none;stroke:#202859;stroke-width:2.5;stroke-miterlimit:10;}
</style>
<g>
	<path class="st0" d="M26.6,37.2c-9.4,5.6-14.4,21.2-7,27C27,70,42.2,70,43,79.6c0.9,9.5,11.1,11.5,14.3-5.4
		C60.4,57.2,52.7,21.7,26.6,37.2z"/>
	<g>
		<path class="st1" d="M16.4,55.6c-0.7,0.3-1.4,0.7-2.1,0.9c-1.6,0.3-3,0-4.2-1.2c-1-1-2-2.1-2.9-3.1C7,52,6.8,51.7,6.7,51.4
			c-0.2-0.6,0.1-1.1,0.7-1.1c0.8,0,1.6-0.3,2.3-0.8c-0.2,0-0.4,0-0.7,0c-1.4,0.1-2.5-0.4-3.3-1.5c-0.4-0.5-0.8-1.1-1.1-1.7
			c-0.5-0.9-0.2-1.6,0.7-1.9c1.4-0.5,2.7-1,4.1-1.4c0.7-0.2,1.4,0,2.2-0.1c0.4,0,0.8-0.1,1-0.1c-0.2-0.8-0.4-1.5-0.6-2.2
			c-0.2-0.5-0.3-0.9-0.6-1.4c-0.6-1.1-1.2-2.2-1.8-3.2c-0.7-1.3-0.3-2.9,1.6-3.5c0.2-0.1,0.5-0.1,0.7-0.1c1,0,2,0,3,0
			c0.4,0,0.8-0.1,1.1-0.3c0.6-0.5,1.2-1,1.8-1.5c0.1-0.1,0.1-0.2,0.2-0.3c0.2-0.5,0.4-0.6,0.9-0.5c0.3,0.1,0.5,0,0.6-0.3
			c0.2-0.3,0.3-0.6,0.4-0.9c0.3-0.5,0.5-1,0.8-1.5c0.4-0.6,0.9-0.9,1.6-0.8c0.1,0,0.3,0,0.5,0c0-0.2,0-0.5,0-0.7
			c0-0.9,0.4-1.6,1-2.2c0.1-0.1,0.2-0.2,0.3-0.3c0.7-0.5,1-1.2,1.1-2.1c0-0.6,0.1-1.1,0.5-1.6c0.3-0.4,0.1-1.1-0.3-1.3
			c-0.3-0.2-0.6-0.5-1-0.7c-0.5-0.4-1-0.7-1.5-1.1c-0.2-0.2-0.4-0.4-0.5-0.6c-0.4-1.1-0.7-2.3-1-3.4c-0.2-0.7,0.2-1.3,0.7-1.9
			c0.2-0.3,0.5-0.5,0.7-0.8c0.4-0.5,0.4-0.5-0.1-0.8c-1-0.6-2-1.1-3.1-1.6c-0.3-0.2-0.7-0.3-1.1-0.5c0.5-1.1,0.9-2.3,2-3
			c0.7-0.5,1.5-1,2.4-1.3c1.2-0.5,2.5-0.6,3.8-0.6c0.7,0,1.3,0.3,1.8,0.9c0.5,0.5,1,1,1.5,1.5s1.1,1,1.8,1.2
			c0.9,0.2,1.9,0.5,2.8,0.6c0.3,0.1,0.7,0,1,0c1.6-0.4,3.2-0.3,4.8-0.2c0.4,0,0.9,0.1,1.3,0.3c0.9,0.6,1.1,1.5,1,2.5
			c-0.1,0.5-0.3,1.1-0.6,1.5c-0.4,0.6-0.8,1.2-1.3,1.7c-0.2,0.3-0.6,0.5-0.9,0.6c-0.3,0.1-0.5,0.3-0.6,0.6c-0.1,0.5,0,1.1,0.2,1.5
			c0.2,0.3,0.3,0.6,0.5,0.9c0.5,0.9,0.2,1.9-0.7,2.4c-0.6,0.3-1.2,0.4-1.9,0.6c0.7,1,1.2,2.2,2.4,2.9c1.4,0.8,2.8,1.6,4.2,2.4
			c0.2,0.1,0.3,0.2,0.5,0.3c0.6,0.5,0.6,1.2,0,1.7c-0.7,0.6-1.3,1.3-2,2c-0.2,0.2-0.2,0.3-0.1,0.5c0.1,0.1,0.1,0.2,0.1,0.3
			c0.2,0.9,0.8,1.4,1.6,1.7c2.3,1,4.7,1.8,7.2,2.5c3,0.9,6.1,1.7,9.1,2.5c0.7,0.2,1.4,0.2,2.1,0c0.8-0.2,1.6-0.4,2.3-0.7
			c0.6-0.2,1.1-0.5,1.3-1.2c0.1-0.3,0.2-0.7,0.4-1c0.3-0.9,1.2-1.3,2-0.9c0.6,0.3,1.3,0.6,1.7,1.1c0.7,0.7,1.4,0.9,2.4,0.7
			c1.5-0.4,3.1-0.7,4.5-1.3c0.9-0.3,1.8-0.9,2.6-1.5c1.4-1,2.9-2,4-3.3c0.4-0.4,0.7-0.9,1.1-1.4c0.6-0.7,1.3-1.1,2.3-1.2
			c0.9-0.1,1.8-0.2,2.8-0.3c0.4,0,0.8-0.1,1.1,0c1,0.1,1.5,0.8,1.5,1.8c0,0.5,0.2,0.7,0.6,0.9c0.4,0.1,0.7,0.3,1.1,0.4
			c0.8,0.3,1,0.8,0.9,1.7c0,0.3,0.1,0.7,0.2,1c0.2,0.4,0.5,0.8,0.1,1.3c-0.4,0.4-0.8,0.3-1.3,0.1c-1.1-0.4-2.1,0-2.9,0.8
			c-1.1,1-1.6,2.3-1.9,3.7c-0.4,1.4-0.6,2.9-1,4.3c-0.1,0.5-0.3,1-0.6,1.5c-0.6,1.2-1.3,1.4-2.5,0.9c0,0.1,0,0.2,0,0.4
			c0,0.6,0,1.1,0,1.7c0,0.5-0.2,1-0.3,1.5c0,0.3-0.1,0.6-0.1,0.8c0.1,1.2-0.3,2-1.2,2.7c-0.8,0.6-1.6,0.3-1.9-0.6
			c-0.2-0.9-0.5-1.8-0.8-2.6c0-0.1-0.1-0.3-0.2-0.4c-0.2,0.3-0.3,0.5-0.5,0.7c-0.6,0.7-1.4,0.7-1.9,0c-0.8-1.2-0.9-2.5-0.4-3.8
			c0.3-0.7,0.6-1.5,0.8-2.2c0-0.1,0-0.2,0-0.3c0-0.5-0.1-0.7-0.6-0.6c-1.3,0.2-2.7,0.4-4,0.6c-1.2,0.2-1.8-0.2-2-1.4
			c-0.1-0.4-0.3-0.7-0.6-1c-0.6-0.4-1.1-0.9-1.8-1.1c-0.5-0.1-0.9,0-1.4,0.3c-0.3,0.2-0.4,0.4-0.1,0.7c0.4,0.4,0.8,0.8,1.2,1.1
			c0.2,0.2,0.4,0.3,0.5,0.5s0.2,0.4,0.1,0.6c-0.1,0.1-0.3,0.3-0.5,0.3c-0.3,0-0.4,0.1-0.5,0.4c-0.1,0.7,0,1.3,0.4,1.9
			c0.3,0.5,0.5,1,0.7,1.5c0.2,0.9,0.5,1.7,1.2,2.4c0.4,0.3,0.6,0.9,0.7,1.4c0.2,0.9,0.2,1.9,0.2,2.8c0,0.9-0.7,1.5-1.6,1.5
			c-1.5,0-2.8,0.4-4.2,0.8c-0.5,0.1-1,0.3-1.5,0.4c-0.5,0.1-0.5,0.3-0.3,0.7c0.5,1,0.3,1.6-0.6,2.3c-4.5,3.5-9.1,7-13.6,10.5
			c-0.5,0.4-0.7,0.8-0.8,1.4c-0.1,0.8-0.5,1.3-1.2,1.6c-0.3,0.1-0.7,0.2-1.1,0.4c-0.6,0.3-1.2,0.6-1.7,1.1c-0.8,0.8-1.6,1.6-2.4,2.5
			c-0.5,0.5-0.7,1.1-0.7,1.7c0,4.4,0,8.9,0,13.3c0,0.2,0,0.3,0,0.5c-0.1,0.7-0.6,1.2-1.3,1.2c-0.5,0-0.8,0.2-1.1,0.6
			c-0.4,0.6-0.8,1.2-1.2,1.7c-0.6,0.9-1.3,1.5-2.4,1.7c-1,0.2-1.1,0.3-1.1,1.3c0,0.9-0.6,1.5-1.5,1.5s-1.7-0.1-2.5,0.4
			c-0.3,0.2-0.8,0-0.9-0.4c-0.2-0.5-0.3-1-0.4-1.5C30,95,29.7,94,29.2,93c-0.9-1.8-1.8-3.6-2.9-5.4s-2-3.6-2.8-5.6
			c-0.9-2.3-1.8-4.5-2.8-6.7c-0.7-1.6-1.1-3.3-1.4-5c-0.1-0.9-0.4-1.8-0.6-2.7c-0.2-0.7-0.3-1.4-0.4-2.2c-0.1-0.6-0.3-1.1-0.6-1.6
			c-1.2-1.8-1.3-2.2-1.3-4.9C16.7,57.7,16.5,56.6,16.4,55.6z"/>
	</g>
</g>
</svg>
