<?xml version="1.0" encoding="utf-8"?>
<!-- Generator: Adobe Illustrator 22.0.0, SVG Export Plug-In . SVG Version: 6.00 Build 0)  -->
<svg version="1.1" id="Layer_1" xmlns="http://www.w3.org/2000/svg" xmlns:xlink="http://www.w3.org/1999/xlink" x="0px" y="0px"
	 viewBox="0 0 100 100" style="enable-background:new 0 0 100 100;" xml:space="preserve">
<style type="text/css">
	.st0{fill:#1FB7E1;}
	.st1{fill:#202859;}
</style>
<g>
	<path class="st0" d="M31.5,52.6c-6.6,10.9-3.1,29.7,7.7,31.6c10.8,1.8,26.4-6.4,32.6,2.9c6.1,9.3,17.8,5.6,11.7-13.5
		C77.4,54.6,49.8,22.3,31.5,52.6z"/>
	<path class="st1" d="M50.7,97.8c-15.1,0-15.1-0.1-16-1l-0.1-0.1c-0.1-0.1-1.3-1.8-10.3-19.1c-9-17-9.6-18.3-9.6-19.1
		c0-2.7,2.9-5,6.4-5c0.4,0,0.8,0,1.1,0.1c2.9,0.4,4.3,1.6,6.5,5.8c2.6,4.7,3.2,5.1,4,5.1c1.4,0,1.4,0,1.4-20.3l0.1-18.9l0.5-1
		c0.9-1.9,2.7-3.2,4.8-3.6c0.3-0.1,0.7-0.1,1-0.1c1.5,0,3.2,0.5,4.3,1.3c0.8,0.6,1.5,1.4,2,2.6c0.3,0.8,0.4,1.1,0.4,10l0.1,10.9
		l2.2-0.5c0.5-0.1,1-0.2,1.5-0.2c1.8,0,3.6,0.6,4.8,1.5c0.9,0.7,1.9,2.2,2,2.7c0.1,0.4,0.3,1.5,1.5,1.5c0.2,0,0.5-0.1,0.8-0.1
		c0.4-0.1,0.9-0.1,1.4-0.1c1.1,0,2.2,0.2,2.9,0.4c1.3,0.5,2.9,1.9,3.3,3c0.2,0.6,0.6,1.6,1.7,1.6c0.2,0,0.4,0,0.7-0.1
		c0.1,0,0.9-0.1,2.1-0.1c1.7,0,2,0.1,2.8,0.5c1.3,0.6,2.4,1.6,3.1,3c0.4,0.8,0.5,0.9,0.7,5.7c0.3,8.2-0.4,24.1-1.3,27.4
		c-0.9,3.5-3,5.7-6.1,6.3c-0.4,0.1-5.6,0.2-17.9,0.2H50.7z M21.1,56.1c-1.1,0-2,0.3-2.8,1l-1.4,1l9.9,18.6L36.5,95l17.5,0.1
		c3.9,0,6.9,0,9.2,0c7.7,0,8.1-0.1,9.1-0.6c2.5-1.2,2.9-3.6,3.4-9.3c0.4-4.3,0.7-22.1,0.4-24.4C76,59.6,75.8,59,75,58.3
		c-0.8-0.7-1.7-1.1-2.7-1.1c-1,0-2,0.4-2.7,1.2c-1,0.9-1,1.5-1,3.4c0,2.4-0.5,2.6-0.7,2.8c-0.2,0.1-0.4,0.2-0.6,0.2
		c-0.2,0-0.4-0.1-0.7-0.2c-0.4-0.2-0.7-0.3-0.7-5c0-4.5,0-5.5-1.9-6.5c-0.5-0.3-1.4-0.5-2-0.5c-1,0-1.6,0.3-2.5,1l-1.2,1.1l-0.1,3.4
		c-0.1,2.5-0.1,2.5-0.3,2.7c-0.3,0.3-0.6,0.4-0.9,0.4c-0.3,0-0.6-0.2-0.9-0.5l-0.3-0.3v-4.8c0-4.7-0.1-5.8-0.4-6.3
		c-0.7-1.3-2.2-2.1-3.9-2.1c-1.4,0-2.7,0.6-3.4,1.6c-0.5,0.7-0.6,1.7-0.6,4.5c0,3.8-0.3,3.9-0.7,4.1c-0.2,0.1-0.5,0.2-0.8,0.2
		c-0.3,0-0.5-0.1-0.6-0.1c-0.6-0.4-0.6-1.9-0.6-15.3V25.2l-0.8-0.9c-0.4-0.4-1-0.9-1.5-1.1c-0.5-0.2-1-0.3-1.5-0.3
		c-1.5,0-2.9,0.7-3.6,1.8c-0.5,0.8-0.5,0.8-0.7,20.8l0,4.4c-0.1,14.8-0.1,15.5-0.8,16.1c-0.1,0.1-0.2,0.1-0.3,0.2
		c-0.8,0.7-1.5,0.9-2.7,0.9c-2,0-3.3-1.2-5.3-4.8c-2.7-4.8-3.3-5.8-5.4-6.1C21.8,56.1,21.5,56.1,21.1,56.1z"/>
	<path class="st1" d="M28.6,48.5c-3.1-1.7-7.2-5.7-9-8.6c-5.9-9.5-4.6-21.8,3.1-30C26.6,5.8,32,3,37.6,2.3c0.6-0.1,1.5-0.1,2.5-0.1
		c2,0,4.2,0.2,5.5,0.5c3.1,0.6,6.3,2,8.9,3.7c1.6,1.1,4.6,3.9,5.8,5.5c5.5,7.2,6.7,16.5,3.1,24.8c-0.7,1.6-2.7,4.9-3.5,5.8
		c-0.1-0.1-0.3-0.2-0.5-0.4c-0.4-0.4-1.1-0.8-1.5-1L57.8,41l0.7-1c1.4-1.9,3.1-5.4,3.7-7.8c1-3.7,0.8-8.1-0.4-11.9
		C58.9,11,50.4,4.8,40.6,4.8c-3.7,0-7.2,0.9-10.4,2.6c-5.7,3-9.9,8.6-11.3,14.9c-0.5,2.2-0.5,6.7-0.1,8.7c1.1,5.4,3.9,9.9,8.1,13.3
		l1.7,1.4V48.5z"/>
	<path class="st1" d="M52.8,37.6c0-0.4,0-1,0-1.7l0-0.3c0.1-2.9,0.2-3.3,0.7-4.7c0.6-1.5,0.6-2.1,0.7-4c0-1.5-0.1-2.7-0.4-3.6
		c-1.8-6-6.8-9.8-12.8-9.9h0c-4,0-6.9,1.2-9.7,4c-2.8,2.8-3.9,5.6-3.9,9.5c0,1.7,0.1,2.5,0.7,4.1c0.6,1.8,0.6,2,0.6,4.7l0,1.5
		l-0.1-0.2c-1.4-1.7-2.3-3.4-3-5.5c-0.5-1.5-0.6-1.8-0.6-4.8c0-2.9,0.1-3.3,0.6-4.8C27.4,15.9,32.7,11.6,39,11
		c0.5-0.1,1-0.1,1.6-0.1c3.1,0,6.2,0.9,8.7,2.4c1.4,0.9,3.8,3.2,4.8,4.6c1.8,2.7,2.7,5.6,2.7,9.1c0,3.7-1.1,6.9-3.3,9.7l-0.1,0.2
		C53.1,37.2,52.9,37.4,52.8,37.6z"/>
</g>
</svg>
