<?xml version="1.0" encoding="UTF-8"?>
<svg xmlns="http://www.w3.org/2000/svg" id="Layer_1" data-name="Layer 1" viewBox="0 0 585.06 129.71">
  <g>
    <g>
      <path d="M568.76,264.34a56.83,56.83,0,1,0-50,99.69s-3.66-18,4.79-34.06h0s5.27-14.61,33.15-27.23l.91-.41c.84-.38,1.71-.75,2.59-1.12l.87-.37.16-.06a41.51,41.51,0,0,0,6.37-3.27A47.94,47.94,0,0,0,581,285.29l0,0,.31-.42a34.07,34.07,0,0,0,1.74-3,4.45,4.45,0,0,0,.17-.54A61.54,61.54,0,0,0,568.76,264.34Z" transform="translate(-133.08 -251.49)" style="fill: #0097c8"></path>
      <path d="M533.9,321.72" transform="translate(-133.08 -251.49)" style="fill: #231f20"></path>
      <circle cx="387.76" cy="63.18" r="5.69" style="fill: #00bef3"></circle>
      <circle cx="376.9" cy="41.71" r="9.76" style="fill: #5fccf5"></circle>
      <circle cx="412.97" cy="43.58" r="5.23" style="fill: #aee2fa"></circle>
      <circle cx="397.15" cy="49.32" r="3.38" style="fill: #fff"></circle>
      <circle cx="399.21" cy="36.69" r="1.72" style="fill: #d1eefc"></circle>
      <path d="M585.94,286.64a52.69,52.69,0,0,1-23.05,18.62,96.24,96.24,0,0,0-14.32,7.2l-.73.46c-.42.26-.82.53-1.22.79a71.58,71.58,0,0,0-7.15,5.41l-.8.71c-.28.25-.56.5-.83.76,0,0-13.59,9.82-14.71,32.46,11-15.62,25.19-14.18,25.19-14.18a41.32,41.32,0,0,0-5.69,4.11c-17.83,14.82-19.15,36.64-19.15,36.64l2.2.92,1.49.66s2.84-15.38,5.37-15.37a56.64,56.64,0,0,0,53.4-79.19Z" transform="translate(-133.08 -251.49)" style="fill: #78bd43"></path>
    </g>
    <path d="M460.13,366.06V320.24a15.53,15.53,0,0,0-4.46-11.45A14.41,14.41,0,0,0,445,304.28a15.67,15.67,0,0,0-11.26,4.79A14.59,14.59,0,0,0,428.8,320v46.1H417.62V320a15.27,15.27,0,0,0-4.5-11,14.25,14.25,0,0,0-10.74-4.63A15.1,15.1,0,0,0,391.3,309,14.92,14.92,0,0,0,386.56,320v46.1H375.39V293.81h11.17v5.71a33.19,33.19,0,0,1,3.58-2.28,27.11,27.11,0,0,1,13.31-3.56,22.34,22.34,0,0,1,13.62,4.88,27.41,27.41,0,0,1,6,6.25,24.25,24.25,0,0,1,6.47-6.42,29,29,0,0,1,16.63-4.71,24.73,24.73,0,0,1,17.55,7.19c5,4.82,7.58,11.34,7.58,19.37v45.82Z" transform="translate(-133.08 -251.49)" style="fill: #004761"></path>
    <path d="M714.36,331.08a30.71,30.71,0,0,0-8.56-8c-3-1.89-6.09-3.69-9.06-5.35a34.88,34.88,0,0,1-6.94-4.93,5.63,5.63,0,0,1-2.13-4.09,4.25,4.25,0,0,1,1.66-3.41,7,7,0,0,1,1.74-1.08h0a5.13,5.13,0,0,1,.78-.27h0a8.75,8.75,0,0,1,2.8-.33h.21c3.73.12,10.54,1.93,18.41,11.6v-8.7l-.07-.11,0-2.82c-3.71-6.39-10.68-8.85-14.38-9.74a19.34,19.34,0,0,0-2-.41l-.44-.06h0a18.77,18.77,0,0,0-2.14-.13,18.55,18.55,0,0,0-12.45,4.22,13.91,13.91,0,0,0-5.13,10.89,16.26,16.26,0,0,0,3.93,10.81,32.58,32.58,0,0,0,8.42,7q4.43,2.59,8.9,5.26a26.21,26.21,0,0,1,6.82,5.75,10.83,10.83,0,0,1,2.4,7.25c0,2.76-1.28,5.25-3.91,7.63a14.4,14.4,0,0,1-10.11,3.65c-5.89,0-10.2-2.61-13.18-7.94L678.53,345l-8.49.77.19,1.35c0,.14.12.66.12.66l0,.08c.7,2.31,4.75,14,16,17.32a25.94,25.94,0,0,0,2.66.59l.14,0a26.78,26.78,0,0,0,4.41.36,24.61,24.61,0,0,0,17.31-6.7A21.82,21.82,0,0,0,718.14,343,19.77,19.77,0,0,0,714.36,331.08Z" transform="translate(-133.08 -251.49)" style="fill: #004761"></path>
    <path d="M190,366.37a54.25,54.25,0,0,1-28.52-8,58.82,58.82,0,0,1-20.74-21.19,56,56,0,0,1-7.63-28.23c0-15.63,5.73-29.26,17-40.51s25-16.93,40.7-16.93a58.86,58.86,0,0,1,30,8.26l1.84,1.07v14.25l-5.79-3.94a45.63,45.63,0,0,0-26-8.22c-12.66,0-23.22,4.43-32.28,13.52s-13.46,19.72-13.46,32.43,4.41,23.35,13.47,32.5,19.61,13.58,32.27,13.58a45.59,45.59,0,0,0,26-8.21l5.79-4V357l-1.76,1.09a55.27,55.27,0,0,1-29.37,8.3Z" transform="translate(-133.08 -251.49)" style="fill: #004761"></path>
    <path d="M284.4,366.31V325a20.06,20.06,0,0,0-5.93-14.58,18.82,18.82,0,0,0-14.13-6.06,20.13,20.13,0,0,0-14.64,6.2A19.45,19.45,0,0,0,243.41,325v41.31H231.17V251.49h12.24v48c5.35-4.52,12.35-6.79,20.93-6.79a32,32,0,0,1,32.3,32.3v41.31Z" transform="translate(-133.08 -251.49)" style="fill: #004761"></path>
    <path d="M338.61,366.51c-9.8,0-18.43-3.72-25.65-11.05s-10.87-16-10.87-25.74a34.9,34.9,0,0,1,10.83-25.5,36.53,36.53,0,0,1,26.66-10.73c10.59,0,19.79,4.24,27.35,12.62l2.39,2.63-43,42.5c4.07,2.62,8,3.94,11.63,3.94A25.35,25.35,0,0,0,351,351.86a29.47,29.47,0,0,0,9.69-9.07l6.79-10.09v20.69l-1,1.06c-7.29,8-16.25,12.06-26.65,12.06Zm-.21-61.7c-6.4,0-11.95,2.44-17,7.46s-7.45,10.59-7.45,17a24.52,24.52,0,0,0,4,13.85L352.42,309A24.82,24.82,0,0,0,338.4,304.81Z" transform="translate(-133.08 -251.49)" style="fill: #004761"></path>
    <path d="M632.82,366.37a36.16,36.16,0,0,1-18-5,36.81,36.81,0,0,1-6.51-4.7v9.6H596.46V252.19h11.83v50.95a35,35,0,0,1,6.15-4.45,36.55,36.55,0,0,1,18.38-5.06,36.37,36.37,0,1,1,0,72.74Zm.14-61.46a23.57,23.57,0,0,0-17.5,7.55A24.22,24.22,0,0,0,608,330.14a25.38,25.38,0,0,0,25,24.95,23.16,23.16,0,0,0,17.35-7.4,25,25,0,0,0-.07-35.31A23.22,23.22,0,0,0,633,304.91Z" transform="translate(-133.08 -251.49)" style="fill: #004761"></path>
  </g>
</svg>
